<svg width="26" height="22" viewBox="0 0 26 22" fill="none" xmlns="http://www.w3.org/2000/svg">
<g clip-path="url(#clip0_2359_23020)">
<path d="M3.07153 22.2286C6.38399 22.2286 8.87332 19.3575 10.3589 17.0888C10.1782 17.5908 10.0778 18.0927 10.0778 18.5745C10.0778 19.8996 10.8407 20.8432 12.3464 20.8432C14.4141 20.8432 16.6224 19.0363 17.7667 17.0888C17.6864 17.3699 17.6463 17.6309 17.6463 17.8718C17.6463 18.7954 18.1682 19.3776 19.2322 19.3776C22.5848 19.3776 25.9575 13.4548 25.9575 8.27493C25.9575 4.2394 23.9098 0.68573 18.7705 0.68573C9.73658 0.68573 0 11.6881 0 18.7954C0 21.5861 1.50565 22.2286 3.07153 22.2286ZM15.6588 7.83324C15.6588 6.82938 16.2209 6.12668 17.044 6.12668C17.847 6.12668 18.4091 6.82938 18.4091 7.83324C18.4091 8.8371 17.847 9.55986 17.044 9.55986C16.2209 9.55986 15.6588 8.8371 15.6588 7.83324ZM19.9549 7.83324C19.9549 6.82938 20.5171 6.12668 21.3401 6.12668C22.1431 6.12668 22.7053 6.82938 22.7053 7.83324C22.7053 8.8371 22.1431 9.55986 21.3401 9.55986C20.5171 9.55986 19.9549 8.8371 19.9549 7.83324Z" fill="#AB9FF2"/>
</g>
<defs>
<clipPath id="clip0_2359_23020">
<rect width="26" height="21.5429" fill="white" transform="translate(0 0.228699)"/>
</clipPath>
</defs>
</svg>
