<svg width="22" height="22" viewBox="0 0 22 22" fill="none" xmlns="http://www.w3.org/2000/svg">
<path d="M18.0716 16.7831C16.7676 16.0914 15.7358 14.3225 15.1802 11.794C15.1688 11.7259 13.6834 4.48035 13.1732 1.80436C13.0938 1.37352 12.8217 0.999319 12.4248 0.795233C12.2094 0.681813 11.9713 0.625122 11.7332 0.625122C11.5404 0.625122 11.3476 0.659136 11.1549 0.738503L1.01787 5.06998C0.382893 5.34213 0.0200343 6.02246 0.156131 6.70278C0.167469 6.75947 1.57347 12.9165 2.0157 14.9575C2.628 17.8036 4.00003 19.958 5.75755 20.8878C6.98214 21.5228 8.30882 21.5568 9.71483 20.9671C11.7899 20.0941 17.3913 17.849 19.2962 17.0779C18.8994 17.1006 18.4798 16.9985 18.0716 16.7831Z" fill="url(#paint0_linear_2359_23028)"/>
<path d="M19.7156 11.8166C19.6476 11.4424 18.9899 8.18811 18.7065 6.70274C18.5137 5.71625 18.3209 4.67306 18.1055 3.56185C18.0261 3.13096 17.754 2.7568 17.3571 2.55268C16.9602 2.34859 16.5067 2.32592 16.0985 2.49599L15.0667 2.93821C15.2934 4.01541 15.5202 5.12663 15.7583 6.28319C16.0758 7.84797 16.8015 11.329 16.8015 11.3517C17.051 12.4629 17.6179 13.9256 18.4003 14.4132C18.6724 14.5833 18.9672 14.6286 19.2621 14.5493C20.0444 14.3565 19.9197 12.9165 19.7156 11.8166Z" fill="url(#paint1_linear_2359_23028)"/>
<path d="M21.3937 11.6692C21.0196 9.855 20.1351 5.38743 19.863 4.10614C19.7269 3.43715 19.228 2.90422 18.6044 2.74549L17.0282 2.30326C16.6994 2.2239 16.3593 2.25791 16.0418 2.38263L15.0326 2.81352C14.9986 2.65475 14.9646 2.49601 14.9306 2.33728C14.7945 1.66829 14.2956 1.13536 13.6719 0.976588L12.0958 0.54574C11.767 0.466334 11.4268 0.48901 11.1094 0.625107L0.961006 4.95658C0.269342 5.25137 -0.116193 5.98839 0.0312024 6.72544C0.0425405 6.78213 1.44858 12.9392 1.89081 14.9802C2.51444 17.8603 3.89777 20.0487 5.70069 20.9898C6.347 21.33 7.03866 21.5001 7.75301 21.5001C8.41069 21.5001 9.07968 21.364 9.76001 21.0805C12.2659 20.0373 19.9877 16.9304 19.9877 16.9304C21.3484 16.3976 21.9267 14.2318 21.3937 11.6692ZM16.0871 2.49601C16.4953 2.32594 16.9602 2.33728 17.3458 2.5527C17.7426 2.75683 18.0147 3.13099 18.0941 3.56187C18.3096 4.66175 18.5023 5.70493 18.6951 6.70277C18.9786 8.18814 19.6362 11.4424 19.7042 11.8166C19.9084 12.9165 20.0331 14.3565 19.262 14.5493C18.9672 14.6287 18.6724 14.5833 18.4003 14.4132C17.6065 13.9257 17.0396 12.4629 16.8015 11.3517C16.8015 11.329 16.0758 7.84799 15.7583 6.28322C15.5202 5.12665 15.2934 4.02678 15.0666 2.93824L16.0871 2.49601ZM14.8172 2.37129C14.8512 2.54137 16.6768 11.3744 16.6768 11.3744C16.7675 11.7826 17.2777 13.8576 18.3322 14.5153C18.5363 14.64 18.7631 14.708 18.9786 14.708C19.0806 14.708 19.1826 14.6967 19.2847 14.674C20.1691 14.4472 20.0444 12.9732 19.829 11.8053C19.7609 11.4311 19.0919 8.16546 18.8198 6.68009C18.627 5.6936 18.4343 4.65041 18.2189 3.5392C18.1508 3.15366 17.9354 2.82486 17.6406 2.59806L18.5817 2.85887C19.1713 3.00627 19.6249 3.50518 19.7609 4.12882C20.0331 5.4101 20.9062 9.88901 21.2917 11.6919C21.8019 14.1978 21.2577 16.3068 19.9651 16.8171C19.3868 17.0439 18.7631 16.9985 18.1508 16.681C16.8809 16.0007 15.8717 14.2658 15.3161 11.7713C15.2821 11.6125 13.8194 4.44633 13.3091 1.79301C13.2411 1.40748 13.0256 1.07863 12.7195 0.840531L13.6606 1.10135C14.2275 1.24874 14.6924 1.74766 14.8172 2.37129ZM9.71466 20.9671C8.30861 21.5568 6.98197 21.5227 5.75738 20.8878C3.98852 19.9693 2.62783 17.8036 2.01553 14.9575C1.5733 12.9165 0.167299 6.75946 0.155961 6.70277C0.0198643 6.02244 0.382723 5.34207 1.0177 5.06996L11.1661 0.738488C11.3475 0.659121 11.5402 0.625107 11.7443 0.625107C11.9824 0.625107 12.2206 0.681797 12.436 0.795178C12.8329 0.999264 13.105 1.37346 13.1844 1.80435C13.7059 4.48034 15.18 11.7146 15.1914 11.7939C15.747 14.3225 16.7788 16.0914 18.0828 16.7831C18.491 16.9985 18.8992 17.1006 19.3074 17.0779C17.3911 17.8489 11.7897 20.1054 9.71466 20.9671Z" fill="#9C12C1"/>
<path d="M14.8172 2.37124C14.8512 2.54135 16.6768 11.3744 16.6768 11.3744C16.7675 11.7826 17.2777 13.8576 18.3322 14.5153C18.5363 14.64 18.7631 14.708 18.9786 14.708C19.0806 14.708 19.1826 14.6967 19.2847 14.674C20.1691 14.4472 20.0444 12.9732 19.829 11.8053C19.761 11.4311 19.0919 8.16545 18.8198 6.68004C18.6271 5.69354 18.4343 4.6504 18.2189 3.53914C18.1508 3.15365 17.9354 2.8248 17.6406 2.59804L18.5817 2.85882C19.1713 3.00621 19.6249 3.50513 19.761 4.1288C20.0331 5.41009 20.9062 9.88896 21.2917 11.6918C21.8019 14.1978 21.2577 16.3068 19.965 16.8171C19.3868 17.0438 18.7631 16.9985 18.1508 16.681C16.8808 16.0006 15.8717 14.2658 15.3161 11.7712C15.2821 11.6125 13.8194 4.44627 13.3091 1.79296C13.2411 1.40746 13.0256 1.07862 12.7195 0.840515L13.6606 1.10129C14.2275 1.24869 14.6924 1.7476 14.8172 2.37124Z" fill="white"/>
<defs>
<linearGradient id="paint0_linear_2359_23028" x1="4.28157" y1="3.17144" x2="14.0582" y2="20.105" gradientUnits="userSpaceOnUse">
<stop stop-color="#FF004C"/>
<stop offset="0.21" stop-color="#FF006F"/>
<stop offset="0.33" stop-color="#FF007F"/>
<stop offset="0.4" stop-color="#F30083"/>
<stop offset="0.52" stop-color="#D90096"/>
<stop offset="0.67" stop-color="#AF00B4"/>
<stop offset="0.78" stop-color="#8B00CE"/>
<stop offset="1" stop-color="#3664FF"/>
</linearGradient>
<linearGradient id="paint1_linear_2359_23028" x1="14.7644" y1="3.10963" x2="20.8555" y2="13.6599" gradientUnits="userSpaceOnUse">
<stop stop-color="#FF004C"/>
<stop offset="0.21" stop-color="#FF006F"/>
<stop offset="0.33" stop-color="#FF007F"/>
<stop offset="0.4" stop-color="#F30083"/>
<stop offset="0.52" stop-color="#D90096"/>
<stop offset="0.67" stop-color="#AF00B4"/>
<stop offset="0.78" stop-color="#8B00CE"/>
<stop offset="1" stop-color="#3664FF"/>
</linearGradient>
</defs>
</svg>
