<svg width="381" height="410" viewBox="0 0 381 410" fill="none" xmlns="http://www.w3.org/2000/svg">
<g clip-path="url(#clip0_3327_22849)">
<mask id="mask0_3327_22849" style="mask-type:luminance" maskUnits="userSpaceOnUse" x="-13" y="-2" width="406" height="352">
<path d="M392.53 -1.53003H-12.4702V349.47H392.53V-1.53003Z" fill="white"/>
</mask>
<g mask="url(#mask0_3327_22849)">
<path d="M380.22 341.9V170.64C361.23 91.4199 315.01 12.0699 207.37 0.0499268H150.5C58.19 11.8699 17.47 93.6599 0 174.71V345.71H58.64C58.64 345.71 43.64 61.5499 177.07 63.2399C327.42 65.0999 314.25 341.9 314.25 341.9H380.22Z" fill="#90D35B"/>
<path d="M87.59 349.35C87.59 349.35 78.13 103.11 176.59 98.9599C305.45 93.5299 276.59 345.56 276.59 345.56H218.36C218.36 345.56 216.47 174.93 178.86 169.26C143.55 164.14 148.78 349.35 148.78 349.35H87.59Z" fill="#90D35B"/>
</g>
<path d="M380.03 0H0.0297852V409.94H380.03V0Z" fill="url(#paint0_linear_3327_22849)"/>
<path d="M248.16 387.87V387.73V387.63L248.05 387.28L247.82 386.58L246.91 383.8L245.14 378.21L241.57 367.06L237.96 355.92C233.28 341.58 228.54 327.26 223.57 313.01H227.47H230.91H232.66C233.579 312.989 234.484 312.781 235.32 312.4C236.157 312.004 236.905 311.442 237.52 310.75C238.137 310.055 238.601 309.237 238.88 308.35C239.018 307.907 239.112 307.452 239.16 306.99V306.65V306.34V305.91V304.19C239.185 302.778 238.762 301.395 237.95 300.24C237.135 299.086 235.976 298.218 234.64 297.76C234.2 297.606 233.743 297.502 233.28 297.45H233.01L230.48 175.26V174.94C230.418 174.276 230.099 173.662 229.59 173.23C229.338 173.017 229.047 172.856 228.733 172.757C228.419 172.657 228.088 172.621 227.76 172.65C221.06 173.22 214.35 173.65 207.64 174L207.57 170.28C207.559 169.536 207.4 168.801 207.1 168.12C206.804 167.434 206.372 166.815 205.83 166.3C205.293 165.779 204.657 165.371 203.96 165.1C203.263 164.826 202.518 164.694 201.77 164.71H201.66L196.87 164.89L196.61 143.46C196.589 142.589 196.391 141.732 196.03 140.94C195.671 140.144 195.158 139.426 194.52 138.83C193.885 138.234 193.137 137.771 192.32 137.47C191.506 137.163 190.64 137.017 189.77 137.04H189.72L180.97 137.43C179.232 137.504 177.592 138.254 176.4 139.52C175.211 140.782 174.558 142.456 174.58 144.19L175.49 165.73L168.55 165.99C167.078 166.04 165.683 166.66 164.66 167.72C163.62 168.791 163.042 170.227 163.05 171.72V175.65H160.95C153.52 175.77 146.08 175.82 138.64 175.65H138.51C137.846 175.674 137.217 175.958 136.76 176.44C136.307 176.92 136.063 177.56 136.08 178.22V178.33L139.49 292.33L139.7 299.44H139.14H137.36C135.911 299.491 134.513 299.991 133.36 300.87C132.21 301.751 131.367 302.973 130.95 304.36C130.81 304.812 130.72 305.278 130.68 305.75C130.68 305.99 130.68 306.21 130.68 306.47V306.92V308.64V309.19C130.719 309.666 130.799 310.138 130.92 310.6C130.99 310.84 131.06 311.06 131.15 311.29C131.508 312.184 132.042 312.997 132.72 313.68C133.399 314.358 134.213 314.887 135.11 315.23C135.567 315.401 136.039 315.528 136.52 315.61C136.75 315.61 136.99 315.67 137.23 315.68H137.59H137.89C140.19 315.61 142.48 315.55 144.77 315.44L147.9 315.3C145.66 321.95 143.55 328.62 141.44 335.3C140.32 338.92 139.17 342.54 138.08 346.17L134.91 357C133.41 362.11 131.91 367.21 130.39 372.33L125.39 391.33C125.27 391.84 125.27 392.37 125.39 392.88C125.51 393.395 125.75 393.875 126.09 394.28C126.429 394.681 126.857 394.996 127.34 395.2C127.828 395.399 128.355 395.481 128.88 395.44C130.88 395.26 141.07 393.91 141.07 393.91L146.68 393.02L149.5 392.57L150.9 392.35L151.6 392.24L151.96 392.18H152.22L152.52 392.12C153.34 391.934 154.117 391.595 154.81 391.12C155.491 390.638 156.077 390.034 156.54 389.34C157.015 388.643 157.354 387.863 157.54 387.04L157.84 385.65L159.02 380.06L161.39 368.95L163.69 357.81C166.69 343.27 169.6 328.72 172.27 314.12H172.47C174.76 314.02 177.06 313.92 179.35 313.86C180.77 313.81 182.2 313.76 183.63 313.73C184.77 319.58 185.87 325.46 186.96 331.32L188.64 340.32C189.17 343.32 189.72 346.32 190.24 349.32L191.8 358.32C192.06 359.82 192.33 361.32 192.62 362.81L193.04 365.06L193.14 365.62L193.2 365.9L193.3 366.36C193.458 366.952 193.701 367.517 194.02 368.04C194.597 368.933 195.396 369.66 196.34 370.15C197.284 370.638 198.338 370.872 199.4 370.83L204.56 370.53L209.14 370.18C210.41 370.07 211.68 369.96 212.95 369.83L216.11 380.71L216.93 383.52L217.34 384.93L217.54 385.63L217.65 386C217.72 386.2 217.78 386.39 217.86 386.57C218.481 388.049 219.649 389.231 221.12 389.87C221.301 389.955 221.488 390.025 221.68 390.08L222.06 390.2L224.17 390.85L235.37 394.33L239.59 395.62L240.28 395.84L240.54 395.91L240.83 395.98C241.024 396.029 241.221 396.062 241.42 396.08C242.231 396.188 243.056 396.141 243.85 395.94C245.026 395.614 246.085 394.958 246.9 394.05C247.713 393.14 248.248 392.015 248.44 390.81C248.549 389.989 248.501 389.154 248.3 388.35L248.16 387.87ZM181.63 141.89C181.472 141.9 181.315 141.92 181.16 141.95C181.315 141.919 181.472 141.899 181.63 141.89ZM167.31 170.16C167.668 169.787 168.153 169.562 168.67 169.53C168.156 169.558 167.672 169.784 167.32 170.16C166.964 170.535 166.767 171.033 166.77 171.55C166.771 171.036 166.963 170.54 167.31 170.16ZM143.37 299.31L143.23 290.97L142.72 259.97L143.37 299.31Z" fill="#15171C"/>
<path d="M248.1 387.6V387.48L248.02 387.13L247.84 386.42L247.13 383.58L245.72 377.89L242.93 366.55L240.18 355.16C236.6 340.16 233.08 325.23 229.81 310.22L223 309.82L217.22 309.53L223.99 339.95C224.086 340.417 224.001 340.904 223.75 341.31C223.497 341.712 223.1 342.002 222.64 342.12C222.175 342.231 221.684 342.16 221.27 341.92C220.857 341.679 220.553 341.289 220.42 340.83L211.78 309.25L209.29 309.13C213.13 323.837 216.857 338.573 220.47 353.34L223.26 364.72L226.01 376.1L226.7 378.95L227.04 380.37L227.21 381.08L227.3 381.41C227.295 381.433 227.295 381.457 227.3 381.48V381.54C227.428 381.87 227.674 382.141 227.99 382.3L228.11 382.35L228.42 382.47L229.1 382.72L230.48 383.23L241.48 387.29L244.24 388.29L245.61 388.8L246.3 389.05C246.333 389.06 246.367 389.06 246.4 389.05H246.47C246.47 389.05 246.55 389.05 246.59 389.05C246.743 389.07 246.897 389.07 247.05 389.05C247.212 389.004 247.366 388.937 247.51 388.85C247.65 388.748 247.775 388.627 247.88 388.49C247.972 388.35 248.036 388.194 248.07 388.03C248.111 387.869 248.111 387.701 248.07 387.54L248.1 387.6ZM237.1 373.18C236.664 373.258 236.214 373.18 235.83 372.96C235.451 372.732 235.164 372.378 235.02 371.96C233.84 368.33 232.77 364.68 231.74 361.01C231.21 359.18 230.74 357.34 230.23 355.51L228.79 350.01L227.42 344.47C226.96 342.63 226.53 340.77 226.11 338.91C225.26 335.19 224.46 331.47 223.77 327.72C223.71 327.487 223.697 327.244 223.731 327.005C223.766 326.767 223.847 326.537 223.97 326.33C224.217 325.91 224.619 325.605 225.09 325.48C225.323 325.42 225.566 325.407 225.805 325.441C226.043 325.476 226.273 325.557 226.48 325.68C226.69 325.803 226.873 325.966 227.019 326.16C227.165 326.354 227.27 326.575 227.33 326.81C228.52 330.43 229.58 334.08 230.61 337.75C231.14 339.59 231.61 341.42 232.12 343.26L233.56 348.76L234.94 354.3C235.4 356.13 235.86 358 236.25 359.86C237.09 363.57 237.9 367.29 238.59 371.04C238.635 371.278 238.633 371.522 238.583 371.759C238.534 371.996 238.437 372.221 238.3 372.42C238.166 372.619 237.993 372.79 237.792 372.922C237.591 373.054 237.366 373.145 237.13 373.19L237.1 373.18Z" fill="#C39876"/>
<path d="M223.11 305.5L236.88 305.72L240.33 305.78H242.02C242.249 305.781 242.474 305.73 242.68 305.63C242.887 305.542 243.072 305.409 243.22 305.24C243.373 305.076 243.489 304.882 243.56 304.67C243.594 304.566 243.617 304.459 243.63 304.35V303.72L243.71 302C243.722 301.575 243.568 301.163 243.28 300.85C243.141 300.691 242.971 300.561 242.78 300.47L242.63 300.41L242.47 300.36C242.417 300.35 242.363 300.35 242.31 300.36H242.03L235.14 299.99C230.55 299.74 225.96 299.44 221.37 299.18C216.78 298.92 212.19 298.66 207.6 298.45C205.3 298.35 203.01 298.24 200.71 298.17C198.41 298.1 196.12 297.99 193.82 297.93L186.94 297.73L180.05 297.59L166.28 297.41L152.51 297.23L149.07 297.17H147.4C147.202 297.176 147.008 297.224 146.83 297.31C146.657 297.392 146.501 297.508 146.372 297.65C146.244 297.793 146.144 297.959 146.08 298.14C146.052 298.229 146.029 298.319 146.01 298.41C146 298.46 146 298.511 146.01 298.56V298.97L145.96 300.69V301.15C145.951 301.193 145.951 301.237 145.96 301.28V301.42C146.029 301.586 146.127 301.738 146.25 301.87C146.376 302.017 146.533 302.133 146.71 302.21L146.97 302.3H147.1H147.34C149.63 302.39 151.93 302.48 154.22 302.61C158.81 302.83 163.41 303.13 168 303.43C172.1 303.69 176.2 303.97 180.3 304.2L181.75 304.28C184.04 304.4 186.34 304.52 188.63 304.61C190.63 304.703 192.63 304.78 194.63 304.84H195.55C200.143 305 204.733 305.133 209.32 305.24L223.11 305.5Z" fill="#C39876"/>
<path d="M200.72 170.17L211.87 170.41C215.08 170.41 218.3 170.51 221.48 170.53L221.64 166.69C221.655 166.155 221.462 165.635 221.1 165.24C220.732 164.849 220.227 164.616 219.69 164.59L213.09 164.45L195.34 164.07L186.54 163.88C186.023 163.877 185.525 164.074 185.15 164.43C184.774 164.782 184.548 165.266 184.52 165.78L184.29 169.64L189.65 169.84L200.72 170.17Z" fill="#C39876"/>
<path d="M210.3 327.68L206.17 331L208.01 345.54C208.084 346.022 207.965 346.514 207.68 346.91C207.539 347.105 207.36 347.271 207.154 347.396C206.948 347.521 206.719 347.604 206.48 347.64C206.243 347.679 206.001 347.671 205.768 347.616C205.535 347.561 205.314 347.46 205.12 347.32C204.725 347.033 204.459 346.602 204.38 346.12L202.08 334.3L200.21 335.82C200.59 338.5 200.96 341.18 201.37 343.82L202.7 352.82C202.93 354.33 203.16 355.82 203.34 357.34L203.65 359.6L203.73 360.17V360.45C203.739 360.489 203.739 360.53 203.73 360.57C203.78 360.8 203.883 361.016 204.03 361.2C204.174 361.389 204.358 361.543 204.57 361.65C204.714 361.722 204.87 361.769 205.03 361.79H205.26H205.82L210.42 361.9L215.01 362.07L217.93 362.22L216.12 354.22C214.16 345.407 212.22 336.56 210.3 327.68Z" fill="#C39876"/>
<path d="M200.6 148C200.606 147.76 200.661 147.524 200.76 147.306C200.86 147.087 201.003 146.892 201.18 146.73C201.538 146.398 202.012 146.222 202.5 146.24C202.742 146.245 202.98 146.299 203.2 146.398C203.42 146.498 203.617 146.641 203.78 146.82C204.112 147.178 204.288 147.652 204.27 148.14L204.48 160.57L211.28 160.72L211.82 140.21C211.838 139.424 211.547 138.663 211.01 138.09C210.466 137.518 209.719 137.184 208.93 137.16L201.06 137.03C200.674 137.02 200.29 137.087 199.929 137.226C199.569 137.365 199.24 137.574 198.96 137.84C198.407 138.364 198.075 139.079 198.03 139.84L197.23 160.38H199.49L200.6 148Z" fill="#C39876"/>
<path d="M171.37 314.63C171.298 314.862 171.179 315.076 171.02 315.26C170.864 315.442 170.674 315.591 170.46 315.7C170.246 315.812 170.011 315.876 169.77 315.89C169.531 315.909 169.29 315.881 169.06 315.81C168.829 315.738 168.614 315.618 168.43 315.46C168.251 315.301 168.102 315.112 167.99 314.9C167.879 314.686 167.814 314.451 167.8 314.21C167.782 313.97 167.809 313.73 167.88 313.5L169.26 308.16H167.88C165.34 308.16 162.8 308.16 160.26 308.16C158.21 315.16 156.03 322.16 153.84 329.16C152.68 332.77 151.54 336.39 150.37 340L146.84 350.78C144.43 357.96 142.06 365.17 139.58 372.34L137.74 377.72L137.28 379.06L137.05 379.73V379.82C137.05 379.82 137.05 379.87 137.05 379.9C137.021 380.096 137.067 380.297 137.18 380.46C137.287 380.63 137.45 380.757 137.64 380.82H137.71H138.03L139.45 380.69L145.11 380.16L148.4 379.85L159.82 347.33C159.985 346.89 160.315 346.531 160.74 346.33C161.166 346.118 161.658 346.082 162.11 346.23C162.564 346.375 162.944 346.69 163.17 347.11C163.39 347.529 163.44 348.016 163.31 348.47L154.19 379.32L156.19 379.13C156.407 379.088 156.604 378.976 156.75 378.81C156.817 378.721 156.871 378.624 156.91 378.52L157.31 377.14L158.91 371.69L162.12 360.78L165.39 349.89C169.6 335.94 173.87 322.01 178.39 308.16H173.94L171.37 314.63ZM162.91 329.06C162.4 331.35 161.77 333.65 161.07 335.89C160.37 338.13 159.66 340.38 158.88 342.6C158.1 344.82 157.32 347.03 156.46 349.23C155.6 351.43 154.74 353.61 153.75 355.76C153.672 355.988 153.549 356.199 153.39 356.38C153.233 356.559 153.043 356.705 152.83 356.81C152.612 356.919 152.374 356.98 152.13 356.99C151.89 357.01 151.648 356.979 151.42 356.9C151.192 356.822 150.981 356.7 150.8 356.54C150.622 356.391 150.476 356.207 150.37 356C150.263 355.784 150.199 355.55 150.18 355.31C150.168 355.069 150.202 354.828 150.28 354.6C150.82 352.31 151.46 350.01 152.12 347.78C152.78 345.55 153.49 343.29 154.26 341.06C155.03 338.83 155.81 336.62 156.65 334.42C157.49 332.22 158.38 330.04 159.4 327.9C159.478 327.672 159.6 327.462 159.76 327.282C159.92 327.102 160.113 326.955 160.33 326.85C160.547 326.742 160.784 326.678 161.026 326.663C161.268 326.647 161.511 326.68 161.74 326.76C161.97 326.837 162.181 326.959 162.363 327.119C162.545 327.278 162.694 327.473 162.8 327.69C163.01 328.128 163.042 328.629 162.89 329.09L162.91 329.06Z" fill="#C39876"/>
<path d="M184.29 237.08C184.263 237.021 184.226 236.967 184.18 236.92C184.222 236.969 184.259 237.023 184.29 237.08Z" fill="white"/>
<path d="M223.24 174.39H222.92C219.21 174.22 215.49 174.11 211.78 173.94L200.64 173.61L189.5 173.37C187.1 173.37 184.7 173.29 182.31 173.27H178.31C171.74 173.27 165.17 173.27 158.57 173.35L153.57 291.98L166.51 292.75L180.25 293.56L187.14 293.91L194.02 294.2C196.32 294.31 198.62 294.39 200.91 294.46C203.2 294.53 205.5 294.61 207.8 294.67C212.39 294.78 216.98 294.84 221.57 294.92C226.16 295 230.75 295.02 235.34 295.1L239.54 295.17L242.54 175.53C236.11 175 229.68 174.68 223.24 174.39ZM231.01 250.45V250.81V250.86C230.912 251.759 230.758 252.65 230.55 253.53C230.435 254.158 230.285 254.779 230.1 255.39C230.05 255.57 229.99 255.73 229.95 255.9C229.7 256.65 229.45 257.3 229.22 257.9V257.97C229.157 258.144 229.042 258.294 228.89 258.4C228.735 258.5 228.555 258.556 228.37 258.56C228.283 258.57 228.196 258.57 228.11 258.56C227.94 258.98 227.75 259.4 227.55 259.84C227.689 259.968 227.787 260.135 227.83 260.32C227.867 260.508 227.85 260.702 227.78 260.88C227.26 262.08 226.659 263.242 225.98 264.36C225.946 264.426 225.902 264.487 225.85 264.54L225.67 264.71C225.532 264.878 225.378 265.032 225.21 265.17C225.046 265.32 224.832 265.402 224.61 265.4C224.468 265.396 224.328 265.362 224.2 265.3L223.9 265.68C223.67 266 223.4 266.3 223.15 266.6L223.04 266.72L222.22 267.64L221.8 268.06C221.34 268.52 220.94 268.92 220.51 269.32L220.02 269.75C219.6 270.13 219.21 270.47 218.8 270.8L217.8 271.58L217.14 272.06L215.5 273.26L214.77 273.75C214.748 273.888 214.693 274.018 214.61 274.13C214.533 274.245 214.43 274.341 214.31 274.41C213.613 274.806 212.884 275.14 212.13 275.41L211.8 275.54C211.768 275.664 211.71 275.78 211.63 275.88C211.55 275.981 211.452 276.066 211.34 276.13C208.304 277.664 204.97 278.517 201.57 278.63C201.11 278.63 200.68 278.63 200.23 278.63C197.607 278.602 194.992 278.328 192.42 277.81C192.215 277.813 192.011 277.797 191.81 277.76C191.753 277.765 191.696 277.765 191.64 277.76C187.404 276.39 183.409 274.365 179.8 271.76C177.05 269.76 175.18 267.81 174.8 266.51C174.76 266.359 174.76 266.201 174.8 266.05C174.829 265.895 174.898 265.75 175 265.63C175.101 265.513 175.227 265.42 175.37 265.36C175.516 265.304 175.675 265.287 175.83 265.31C176.489 265.498 177.118 265.778 177.7 266.14C178.31 266.45 178.99 266.8 179.33 266.93C179.412 266.952 179.487 266.993 179.55 267.05L179.92 267.31C180.64 267.84 181.22 268.31 181.92 268.69C182.899 269.296 183.93 269.814 185 270.24L188.62 271.38C190.021 271.806 191.443 272.16 192.88 272.44C193.42 272.55 193.93 272.62 194.37 272.68H194.7H194.87C194.96 272.526 195.092 272.402 195.25 272.32C195.408 272.242 195.584 272.208 195.76 272.22C197.46 272.37 198.76 272.42 199.76 272.45C200.4 272.45 200.95 272.45 201.44 272.54C202.26 272.54 202.89 272.64 203.44 272.7L204.17 272.78C205.015 272.894 205.873 272.867 206.71 272.7C208.528 272.283 210.258 271.549 211.82 270.53C212.06 270.33 212.34 270.14 212.62 269.95C212.9 269.76 213.05 269.66 213.27 269.49C213.49 269.32 213.84 269.06 214.15 268.85L214.61 268.55L214.88 268.34L215.03 268.21L215.62 267.75C216.03 267.43 216.42 267.13 216.77 266.8L217.65 266.04C217.82 265.89 217.98 265.73 218.13 265.58L218.37 265.35L218.69 265.04C218.64 264.92 218.619 264.79 218.63 264.66C218.633 264.527 218.668 264.397 218.73 264.28C218.874 263.988 219.034 263.704 219.21 263.43C219.27 263.34 219.35 263.22 219.43 263.08C219.609 262.831 219.773 262.57 219.92 262.3L220.06 262.12L220.65 261.49C221.44 260.64 221.78 260.27 222.17 260.11C222.317 260.054 222.473 260.027 222.63 260.03L223.03 259.34L223.11 259.21C223.451 258.348 223.69 257.448 223.82 256.53V256.31C223.82 256.18 223.82 256.04 223.87 255.91L223.95 254.91C223.95 254.58 224 254.26 224.01 253.91C224 253.854 224 253.796 224.01 253.74C224.191 252.843 224.308 251.934 224.36 251.02C224.355 250.967 224.355 250.913 224.36 250.86C224.52 250.2 224.72 249.42 225.28 249.21C225.172 248.863 225.088 248.509 225.03 248.15C225.03 247.82 224.95 247.43 224.9 246.9C224.85 246.37 224.81 245.9 224.74 245.18C224.57 243.858 224.299 242.551 223.93 241.27C223.558 239.952 223.111 238.656 222.59 237.39L222.52 237.22C222.44 237 222.34 236.79 222.26 236.57C222.053 236.597 221.843 236.558 221.66 236.46C221.482 236.355 221.344 236.193 221.27 236C221.14 235.66 220.993 235.326 220.83 235C220.66 234.63 220.46 234.28 220.3 234C220.219 233.843 220.181 233.667 220.19 233.49C220.21 233.308 220.279 233.135 220.39 232.99C220.546 232.807 220.762 232.686 221 232.65C220.34 231.51 219.71 230.42 219 229.32L218.12 228.06C217.82 227.63 217.5 227.26 217.17 226.85L217.12 226.79C216.79 226.42 216.45 226.04 216.12 225.69L215.37 225.01L215.1 224.75L214.71 224.42C214.467 224.253 214.201 224.121 213.92 224.03C213.574 223.904 213.24 223.75 212.92 223.57C212.763 223.476 212.635 223.341 212.55 223.18C212.472 223.015 212.441 222.832 212.46 222.65C212.58 222.054 212.768 221.474 213.02 220.92C213.19 220.52 213.38 220.05 213.63 219.49C213.76 219.15 213.93 218.72 214.14 218.23C214.162 218.156 214.2 218.088 214.25 218.03L214.41 217.81C215.151 216.861 215.819 215.859 216.41 214.81C217.441 212.846 218.346 210.819 219.12 208.74C219.186 208.576 219.297 208.434 219.44 208.33C219.588 208.23 219.761 208.171 219.94 208.16L220.03 207.99C220.152 207.743 220.292 207.506 220.45 207.28C220.3 207.241 220.16 207.169 220.04 207.07C219.928 206.959 219.839 206.826 219.78 206.68L219.33 205.38C219.24 205.159 219.24 204.911 219.33 204.69C220.316 202.217 220.936 199.613 221.17 196.96C221.099 196.891 221.041 196.81 221 196.72C220.871 196.403 220.823 196.06 220.86 195.72V195.09C220.862 194.978 220.879 194.867 220.91 194.76C220.981 194.567 221.09 194.391 221.23 194.24C221.199 193.955 221.118 193.677 220.99 193.42L220.89 193.25L220.79 193.2H220.62C220.336 193.24 220.061 193.331 219.81 193.47C219.754 193.502 219.693 193.525 219.63 193.54C219.146 193.701 218.682 193.919 218.25 194.19C216.716 195.763 215.432 197.56 214.44 199.52C214.07 200.21 213.7 200.95 213.34 201.72C213.19 202.05 213.05 202.38 212.88 202.72C212.45 203.72 212.03 204.8 211.59 206.06C210.799 208.315 210.131 210.612 209.59 212.94C209.35 213.94 209.13 215.06 208.86 216.42L208.4 219.09C208.33 219.52 208.27 219.96 208.2 220.41C208.1 221.05 208.01 221.69 207.9 222.3C207.879 222.428 207.831 222.551 207.76 222.66C207.689 222.769 207.593 222.858 207.48 222.92C207.37 222.988 207.248 223.032 207.12 223.05C206.995 223.079 206.865 223.079 206.74 223.05L204.9 222.53L204.47 222.41C204.25 222.34 204.01 222.28 203.79 222.23L203.44 222.15L201.65 221.74L200.84 221.63C200.578 221.586 200.315 221.556 200.05 221.54L198.33 221.71C197.46 221.77 196.49 221.86 195.42 221.99C194.87 222.05 194.42 222.12 193.95 222.2C193.48 222.28 192.9 222.37 192.47 222.46C192.04 222.55 191.77 222.61 191.47 222.69L191.08 222.78C190.91 222.78 190.75 222.87 190.59 222.91H190.45L189.45 223.18C189.255 223.241 189.045 223.241 188.85 223.18L187.93 223.47L186.86 223.82C186 224.1 185.03 224.41 183.91 224.74C183.675 224.799 183.426 224.771 183.21 224.66C182.997 224.541 182.839 224.344 182.77 224.11C182.759 224.027 182.759 223.943 182.77 223.86C182.77 222.94 182.77 221.99 182.77 221.06C182.77 220.32 182.77 219.6 182.77 218.9V216C182.662 215.861 182.596 215.695 182.58 215.52C182.48 214.39 182.38 213.52 182.28 212.63C182.12 211.25 181.97 209.93 181.86 207.83C181.854 207.71 181.872 207.589 181.913 207.476C181.954 207.362 182.018 207.258 182.1 207.17C182.265 206.996 182.49 206.892 182.73 206.88C182.832 206.86 182.937 206.86 183.04 206.88V205.8C183.001 204.691 182.87 203.587 182.65 202.5L182.37 202C182.32 201.81 182.31 201.72 182.26 201.54C182.139 201.517 182.026 201.466 181.93 201.39C181.827 201.317 181.739 201.226 181.67 201.12C181.605 201.013 181.561 200.894 181.54 200.77C181.18 198.38 180.94 196.62 180.74 195.21C180.59 194.06 180.46 193.14 180.32 192.21C180.208 191.447 180.02 190.696 179.76 189.97L179.63 190.03C179.478 190.06 179.322 190.06 179.17 190.03C179.127 190.153 179.059 190.265 178.97 190.36C178.876 190.455 178.763 190.529 178.64 190.58C178.268 191.014 178.001 191.527 177.86 192.08C177.54 193.256 177.349 194.463 177.29 195.68C177.29 196.14 177.29 196.53 177.24 196.89C177.238 197.352 177.201 197.813 177.13 198.27C177.092 198.494 176.979 198.699 176.81 198.85C176.638 199 176.418 199.082 176.19 199.08C176.14 199.71 176.1 200.36 176.07 201.08C175.91 204.493 175.95 207.912 176.19 211.32L176.71 213.16C176.745 213.298 176.745 213.442 176.71 213.58C176.687 213.722 176.629 213.857 176.54 213.97C176.51 214.139 176.49 214.309 176.48 214.48C176.94 214.77 177.13 215.57 177.35 216.59V216.71L177.98 223.87C177.98 224.26 178.05 224.63 178.09 225.01L178.2 226.06V226.17C178.208 226.331 178.181 226.491 178.12 226.64C178.052 226.789 177.949 226.92 177.82 227.02L177.2 227.54L176.91 227.8C176.73 227.96 176.56 228.1 176.4 228.26L176.35 228.31C176.124 228.521 175.911 228.745 175.71 228.98L175.61 229.08C174.651 230.239 173.791 231.477 173.04 232.78C172.42 233.84 171.78 235.02 171.14 236.26C171.069 236.413 170.954 236.542 170.81 236.63C170.666 236.72 170.5 236.769 170.33 236.77C170.206 236.771 170.084 236.747 169.97 236.7C169.762 236.606 169.593 236.444 169.49 236.24C169.413 236.023 169.413 235.787 169.49 235.57C170.018 234.059 170.632 232.58 171.33 231.14C172.021 229.645 172.788 228.186 173.63 226.77C173.728 226.63 173.835 226.497 173.95 226.37L174.34 225.93L174.6 225.67L174.84 225.44L174.67 224.3C174.6 223.84 174.53 223.36 174.46 222.88C174.23 221.33 174 219.7 173.83 218.04C173.45 214.69 173.16 211.39 172.98 208.24C172.77 204.43 172.73 201.31 172.84 198.44C172.902 196.82 173.049 195.205 173.28 193.6C173.34 193.14 173.41 192.75 173.49 192.38C173.57 192.01 173.62 191.75 173.7 191.43L173.75 191.21C173.81 190.93 173.9 190.66 173.98 190.39L174.09 190.04V189.96L174.21 189.64C174.313 189.347 174.434 189.06 174.57 188.78C174.641 188.656 174.736 188.547 174.85 188.46L175.12 188.17C175.448 187.779 175.813 187.421 176.21 187.1C176.538 186.848 176.911 186.662 177.31 186.55C177.462 186.53 177.617 186.53 177.77 186.55H177.84C177.988 186.492 178.143 186.448 178.3 186.42C178.895 186.251 179.53 186.29 180.1 186.53C180.606 186.771 181.038 187.144 181.35 187.61C181.557 187.915 181.709 188.253 181.8 188.61C182.395 189.622 182.871 190.699 183.22 191.82C183.617 193.018 183.951 194.237 184.22 195.47C184.738 197.958 185.122 200.471 185.37 203C185.88 207.9 186.06 212.59 186.16 216.13C186.455 216.464 186.618 216.894 186.62 217.34C186.62 217.72 186.72 218.25 186.75 218.86V219.47L187.98 219.12L188.53 218.96C188.99 218.84 189.37 218.73 189.65 218.63C189.736 218.615 189.824 218.615 189.91 218.63C190.64 218.58 191.59 218.46 192.58 218.33L194.09 218.14L194.61 218.08C194.679 217.896 194.8 217.736 194.96 217.62C195.18 217.47 195.85 217.02 198.61 217.16C198.874 217.165 199.138 217.185 199.4 217.22H199.8H199.94C200.34 217.22 200.73 217.3 201.12 217.37L202.32 217.56H202.39L202.98 217.68C202.87 217.603 202.781 217.5 202.72 217.38C202.656 217.26 202.622 217.126 202.62 216.99C202.603 216.775 202.637 216.559 202.72 216.36L202.8 216.23L203.21 214.5C203.31 214.1 203.42 213.7 203.53 213.3L203.62 212.98C203.932 211.827 204.326 210.697 204.8 209.6C204.627 209.444 204.508 209.238 204.46 209.01C204.439 208.006 204.627 207.008 205.01 206.08C205.002 206.066 204.998 206.051 204.998 206.035C204.998 206.019 205.002 206.004 205.01 205.99C205.37 205.18 205.74 204.35 206.11 203.49C207.275 200.636 208.611 197.854 210.11 195.16C211.205 193.234 212.569 191.473 214.16 189.93C215.08 189.079 216.13 188.38 217.27 187.86C217.93 187.576 218.627 187.384 219.34 187.29C219.646 187.265 219.954 187.265 220.26 187.29H220.49C220.645 187.295 220.799 187.315 220.95 187.35H221.21C221.414 187.377 221.615 187.423 221.81 187.49C222.035 187.573 222.219 187.742 222.32 187.96C222.372 188.065 222.404 188.178 222.413 188.295C222.421 188.412 222.407 188.529 222.37 188.64H222.42L222.88 188.86C223.637 189.298 224.249 189.948 224.64 190.73C224.962 191.359 225.188 192.034 225.31 192.73C225.518 193.881 225.572 195.055 225.47 196.22C225.372 197.552 225.147 198.871 224.8 200.16C224.912 200.172 225.023 200.195 225.13 200.23C225.71 200.47 226.25 200.69 225.21 205.06C224.552 207.692 223.751 210.286 222.81 212.83L222.7 213.13C222.36 214.05 221.86 215.38 221.38 216.5C221.117 217.286 220.714 218.018 220.19 218.66C219.9 219.57 219.57 220.43 219.19 221.27L218.91 221.93C219.42 222.49 219.91 223.1 220.34 223.68L220.5 223.88C221.28 224.88 222.04 226.05 222.88 227.41C223.068 227.345 223.272 227.345 223.46 227.41C223.65 227.472 223.815 227.595 223.93 227.76C224.92 229.228 225.809 230.761 226.59 232.35C226.934 232.974 227.177 233.65 227.31 234.35C227.32 234.493 227.3 234.636 227.25 234.77C227.2 234.905 227.122 235.028 227.02 235.13C227.22 235.55 227.43 235.97 227.63 236.38C228.2 236.38 228.63 236.89 228.8 237.15C228.85 237.208 228.887 237.277 228.91 237.35C230.255 240.731 230.934 244.341 230.91 247.98C231.002 248.8 231.036 249.625 231.01 250.45ZM189.83 241.09C189.863 241.956 189.637 242.813 189.18 243.55C188.73 244.264 188.094 244.841 187.34 245.22C186.693 245.524 185.985 245.678 185.27 245.67C184.306 245.668 183.364 245.382 182.56 244.85C182.341 244.793 182.141 244.679 181.98 244.52L181.92 244.46V244.41C181.681 244.319 181.476 244.159 181.33 243.95C180.664 243.093 180.312 242.035 180.33 240.95C180.36 239.893 180.768 238.882 181.48 238.1C181.871 237.67 182.327 237.302 182.83 237.01C182.925 236.899 183.04 236.807 183.17 236.74C183.243 236.706 183.32 236.683 183.4 236.67C183.583 236.571 183.783 236.507 183.99 236.48C184.093 236.465 184.197 236.465 184.3 236.48C184.412 236.461 184.527 236.461 184.64 236.48C184.8 236.48 184.93 236.48 185.06 236.48C185.16 236.49 185.26 236.49 185.36 236.48C185.558 236.451 185.76 236.483 185.94 236.57H186.12C186.245 236.561 186.371 236.578 186.49 236.62H186.64L187.19 236.8H187.31H187.43C187.822 236.99 188.181 237.243 188.49 237.55C188.679 237.72 188.844 237.915 188.98 238.13C189.12 238.303 189.234 238.495 189.32 238.7C189.34 238.765 189.37 238.825 189.41 238.88C189.481 238.993 189.528 239.119 189.55 239.25C189.58 239.382 189.58 239.518 189.55 239.65C189.52 239.774 189.458 239.888 189.37 239.98V240.19C189.527 240.268 189.659 240.389 189.75 240.54C189.835 240.71 189.863 240.903 189.83 241.09ZM203.29 240.63C203.302 240.546 203.318 240.462 203.34 240.38C203.355 240.325 203.375 240.272 203.4 240.22C203.511 239.978 203.638 239.745 203.78 239.52C203.791 239.358 203.839 239.201 203.92 239.06C204.379 238.329 205.011 237.721 205.76 237.29L205.95 237.21C206.215 237.129 206.486 237.069 206.76 237.03C206.827 236.977 206.901 236.934 206.98 236.9C207.352 236.754 207.76 236.722 208.15 236.81C208.328 236.677 208.548 236.613 208.77 236.63C209.868 236.718 210.914 237.136 211.77 237.83C212.61 238.535 213.22 239.475 213.52 240.53C213.608 241.057 213.542 241.599 213.33 242.09C213.303 242.166 213.269 242.24 213.23 242.31C213.134 242.452 213.027 242.586 212.91 242.71L212.79 242.81L212.64 242.93H212.55C212.471 242.987 212.383 243.031 212.29 243.06C212.3 243.16 212.3 243.26 212.29 243.36C212.29 244.24 211.73 244.73 210.62 244.81H210.5C210.55 244.97 210.55 245.141 210.5 245.3C210.456 245.42 210.392 245.532 210.31 245.63C210.219 245.724 210.11 245.798 209.99 245.85C209.471 246.026 208.927 246.114 208.38 246.11H208.08C207.786 246.162 207.488 246.189 207.19 246.19H206.97C205.873 245.979 204.892 245.374 204.21 244.49C203.5 243.549 203.146 242.387 203.21 241.21C203.221 241.126 203.237 241.042 203.26 240.96V240.85C203.25 240.757 203.25 240.663 203.26 240.57L203.29 240.63ZM203.49 253.63C203.723 253.68 203.961 253.71 204.2 253.72C204.446 253.728 204.691 253.701 204.93 253.64C205.344 253.567 205.719 253.351 205.99 253.03C206.033 252.971 206.08 252.914 206.13 252.86C206.827 252.208 207.442 251.472 207.96 250.67C208.014 250.505 208.111 250.357 208.24 250.24C208.349 250.035 208.507 249.859 208.7 249.73C208.839 249.622 209.005 249.553 209.18 249.53C209.356 249.502 209.537 249.527 209.7 249.6C209.917 249.768 210.089 249.988 210.2 250.24C210.301 250.49 210.339 250.762 210.31 251.03C210.279 251.145 210.259 251.262 210.25 251.38C210.127 251.996 210.053 252.622 210.03 253.25L209.98 253.47C209.952 253.62 209.887 253.762 209.79 253.88C209.744 253.932 209.704 253.989 209.67 254.05C209.67 254.05 209.67 254.1 209.67 254.13C209.627 254.204 209.59 254.281 209.56 254.36L209.5 254.51C209.5 254.64 209.4 254.76 209.34 254.89C209.322 255.012 209.278 255.128 209.21 255.23C208.686 256.078 207.943 256.769 207.06 257.23C206.176 257.688 205.183 257.892 204.19 257.82C204.057 257.83 203.923 257.83 203.79 257.82C203.61 257.835 203.43 257.835 203.25 257.82H203.07L202.68 257.77C202.536 257.768 202.395 257.73 202.27 257.66C202.147 257.587 202.041 257.488 201.96 257.37H201.83H201.68C201.501 257.321 201.341 257.22 201.22 257.08C200.707 256.831 200.215 256.54 199.75 256.21C199.609 256.169 199.48 256.097 199.37 256C199.256 255.889 199.152 255.769 199.06 255.64C198.938 255.67 198.811 255.67 198.69 255.64C198.565 255.623 198.446 255.578 198.34 255.51L197.76 255.14C197.606 255.157 197.451 255.133 197.31 255.07C197.173 255.004 197.054 254.909 196.96 254.79L196.89 254.69L196.68 254.43L196.48 254.14L196.39 254.02L196.22 254.13L195.84 254.35L195.26 254.72C194.639 255.101 194.054 255.536 193.51 256.02L193.32 256.2L193.09 256.42C192.933 256.59 192.742 256.727 192.53 256.82C192.324 256.919 192.098 256.97 191.87 256.97C191.671 257 191.469 257 191.27 256.97C190.806 257.406 190.213 257.68 189.58 257.75C188.674 257.86 187.755 257.7 186.94 257.29C186.792 257.224 186.667 257.116 186.58 256.98C186.447 256.913 186.331 256.817 186.24 256.7L186.16 256.57C185.987 256.472 185.823 256.358 185.67 256.23C185.546 256.198 185.43 256.14 185.33 256.06H185.25H185.18C185 256.01 184.836 255.918 184.7 255.79C184.563 255.67 184.457 255.519 184.39 255.35C184.269 255.22 184.172 255.072 184.1 254.91C184.046 254.767 184.025 254.613 184.04 254.46C184.058 254.412 184.058 254.358 184.04 254.31V254L183.9 253.84C183.657 253.623 183.463 253.357 183.33 253.06V252.99C183.271 252.896 183.224 252.795 183.19 252.69V252.55C183.159 252.408 183.159 252.262 183.19 252.12C183.139 251.952 183.122 251.775 183.14 251.6C183.167 251.422 183.232 251.251 183.33 251.1L183.39 251.02V250.81C183.34 250.697 183.319 250.573 183.33 250.45C183.332 250.295 183.366 250.142 183.43 250C183.5 249.861 183.599 249.739 183.72 249.64L184.94 249.38C185.078 249.345 185.222 249.345 185.36 249.38C185.495 249.422 185.62 249.49 185.73 249.58C185.811 249.603 185.888 249.637 185.96 249.68C186.149 249.788 186.292 249.963 186.36 250.17C186.396 250.211 186.423 250.258 186.44 250.31C186.38 250.477 186.36 250.654 186.38 250.83C186.395 251.006 186.457 251.176 186.56 251.32L186.74 251.41H186.83C186.939 251.47 187.037 251.547 187.12 251.64C187.198 251.734 187.255 251.843 187.29 251.96C187.284 251.976 187.284 251.994 187.29 252.01C187.285 252.018 187.283 252.026 187.283 252.035C187.283 252.044 187.285 252.052 187.29 252.06C187.358 252.17 187.402 252.292 187.42 252.42C187.42 252.42 187.42 252.48 187.42 252.51C187.424 252.553 187.424 252.597 187.42 252.64V252.73V252.8C187.505 252.811 187.589 252.831 187.67 252.86C188.307 252.918 188.949 252.85 189.56 252.66C189.795 252.625 190.034 252.625 190.27 252.66H190.38C190.624 252.374 190.96 252.18 191.33 252.11H191.44C191.559 252.038 191.692 251.991 191.83 251.97L191.89 251.91L192.01 251.81C192.12 251.74 192.23 251.66 192.36 251.59C192.387 251.524 192.421 251.46 192.46 251.4C192.561 251.267 192.686 251.155 192.83 251.07C192.977 250.986 193.141 250.935 193.31 250.92V250.86C193.342 250.806 193.369 250.749 193.39 250.69C193.453 250.569 193.537 250.46 193.64 250.37C193.839 250.209 194.053 250.069 194.28 249.95L194.59 249.76L195.01 249.51L195.89 248.97L196.29 248.73L196.48 248.61C196.608 248.517 196.755 248.452 196.91 248.42C197.061 248.384 197.219 248.384 197.37 248.42C197.597 248.48 197.791 248.627 197.91 248.83L197.96 248.89L198.03 249.01C198.101 249.086 198.159 249.174 198.2 249.27L198.53 249.66L198.77 249.91L199.12 250.28L199.44 250.59L199.77 250.85C199.979 251.013 200.179 251.186 200.37 251.37L200.52 251.48C200.701 251.643 200.865 251.824 201.01 252.02C201.068 252.106 201.135 252.187 201.21 252.26L201.57 252.52C201.995 252.859 202.458 253.147 202.95 253.38C203.138 253.427 203.308 253.528 203.44 253.67L203.49 253.63Z" fill="white"/>
<path d="M236.22 359.86C235.81 358.03 235.35 356.16 234.91 354.3L233.54 348.76L232.09 343.26C231.59 341.42 231.09 339.59 230.59 337.76C229.59 334.09 228.49 330.42 227.31 326.81C227.247 326.575 227.138 326.354 226.99 326.16C226.848 325.968 226.668 325.808 226.46 325.69C226.254 325.562 226.022 325.48 225.78 325.45C225.546 325.4 225.304 325.4 225.07 325.45C224.834 325.506 224.612 325.612 224.42 325.76C224.228 325.904 224.065 326.084 223.94 326.29C223.82 326.5 223.738 326.731 223.7 326.97C223.657 327.208 223.657 327.452 223.7 327.69C224.39 331.44 225.2 335.16 226.05 338.87C226.46 340.71 226.92 342.58 227.35 344.43L228.73 349.97L230.17 355.47C230.67 357.31 231.17 359.14 231.67 360.98C232.67 364.65 233.77 368.31 234.96 371.92C235.084 372.394 235.389 372.8 235.81 373.05C236.231 373.291 236.73 373.36 237.2 373.24C237.67 373.12 238.073 372.817 238.32 372.4C238.443 372.193 238.524 371.964 238.559 371.725C238.593 371.486 238.58 371.244 238.52 371.01C237.87 367.29 237.07 363.59 236.22 359.86Z" fill="black"/>
<path d="M253.04 386.8L252.98 386.51V386.37V386.27L252.89 385.91L252.71 385.21L251.96 382.37L250.52 376.69L247.61 365.35L244.63 354C240.8 339.42 236.92 324.84 232.8 310.33L236.68 310.53L240.12 310.7L241.87 310.79C242.789 310.829 243.706 310.672 244.56 310.33C245.421 309.988 246.204 309.475 246.86 308.82C247.51 308.16 248.017 307.374 248.35 306.51C248.517 306.073 248.641 305.621 248.72 305.16V304.82V304.52V304.09L248.86 302.37C248.962 300.964 248.612 299.562 247.86 298.37C247.121 297.167 246.017 296.232 244.71 295.7C244.278 295.522 243.829 295.388 243.37 295.3C243.28 295.305 243.19 295.305 243.1 295.3L247.76 173.18V172.86C247.751 172.529 247.676 172.203 247.541 171.901C247.405 171.599 247.211 171.327 246.97 171.1C246.731 170.872 246.448 170.693 246.139 170.575C245.83 170.456 245.501 170.4 245.17 170.41C238.45 170.58 231.73 170.61 225.01 170.57L225.16 166.86C225.188 166.115 225.073 165.371 224.82 164.67C224.558 163.969 224.164 163.324 223.66 162.77C223.149 162.225 222.538 161.783 221.86 161.47C221.181 161.158 220.447 160.982 219.7 160.95H219.59L214.8 160.85L215.8 139.43C215.824 138.559 215.675 137.692 215.36 136.88C215.049 136.069 214.58 135.328 213.98 134.7C213.383 134.065 212.666 133.555 211.87 133.2C211.072 132.846 210.213 132.653 209.34 132.63H209.29L200.54 132.51C198.801 132.481 197.119 133.13 195.85 134.32C194.59 135.513 193.841 137.147 193.76 138.88L193.4 160.44L186.46 160.29C184.984 160.251 183.551 160.785 182.46 161.78C181.374 162.778 180.718 164.158 180.63 165.63L180.39 169.56L178.29 169.47C170.87 169.14 163.44 168.76 156.03 168.19H155.89C155.561 168.179 155.234 168.234 154.927 168.35C154.619 168.467 154.338 168.644 154.1 168.87C153.862 169.095 153.671 169.364 153.537 169.662C153.403 169.961 153.329 170.283 153.32 170.61V170.72L150.02 284.72L149.81 291.83H149.25L147.47 291.75C146.021 291.712 144.597 292.132 143.4 292.95C142.206 293.767 141.294 294.934 140.79 296.29C140.628 296.734 140.511 297.193 140.44 297.66C140.44 297.89 140.44 298.12 140.37 298.37V298.83L140.31 300.55V301C140.31 301.477 140.36 301.953 140.46 302.42C140.508 302.657 140.572 302.891 140.65 303.12C140.953 304.035 141.44 304.879 142.08 305.6C142.721 306.313 143.5 306.888 144.37 307.29C144.814 307.486 145.277 307.64 145.75 307.75C145.984 307.801 146.221 307.838 146.46 307.86H146.82H147.12C149.42 307.93 151.71 308 154.01 308.02C155.01 308.02 156.09 308.02 157.14 308.02C154.51 314.52 152 321.02 149.51 327.6C148.18 331.15 146.82 334.69 145.51 338.25L141.61 348.92C139.81 353.92 137.98 358.92 136.19 363.92L130.07 382.55C129.909 383.054 129.871 383.589 129.96 384.11C130.041 384.628 130.247 385.119 130.56 385.54C130.876 385.962 131.287 386.305 131.76 386.54C132.236 386.773 132.761 386.886 133.29 386.87C135.29 386.81 145.54 386.06 145.54 386.06L151.2 385.5L154.03 385.22L155.45 385.08L156.15 385.01H156.51H156.77H157.09C157.916 384.859 158.709 384.561 159.43 384.13C160.135 383.684 160.755 383.115 161.26 382.45C161.765 381.782 162.141 381.026 162.37 380.22L162.75 378.84L164.26 373.34L167.26 362.34L170.21 351.34C174.05 337 177.83 322.65 181.34 308.23H181.54C183.84 308.23 186.14 308.3 188.43 308.37L192.71 308.49C193.51 314.4 194.25 320.33 195 326.25L196.14 335.32C196.5 338.32 196.88 341.32 197.22 344.39L198.22 353.46C198.39 354.98 198.57 356.46 198.77 358L199.05 360.27L199.13 360.83V361.12L199.21 361.58C199.331 362.181 199.54 362.76 199.83 363.3C200.353 364.224 201.108 364.996 202.02 365.54C202.927 366.086 203.962 366.383 205.02 366.4H210.19L214.78 366.32C216.05 366.32 217.33 366.25 218.6 366.2L221.12 377.25L221.77 380.1L222.1 381.53L222.26 382.25L222.35 382.62C222.396 382.816 222.453 383.01 222.52 383.2C223.054 384.713 224.15 385.963 225.58 386.69L226.12 386.93L226.5 387.08L228.57 387.85L239.57 391.97L243.71 393.51L244.39 393.77L244.64 393.85L244.93 393.94C245.116 394.001 245.307 394.047 245.5 394.08C246.305 394.24 247.135 394.24 247.94 394.08C249.135 393.828 250.232 393.238 251.1 392.38C251.962 391.516 252.559 390.423 252.82 389.23C253.053 388.442 253.128 387.617 253.04 386.8ZM198.04 139.87C198.087 139.108 198.424 138.393 198.98 137.87C199.542 137.349 200.283 137.062 201.05 137.07L208.91 137.23C209.3 137.233 209.685 137.318 210.04 137.48C210.416 137.627 210.757 137.852 211.04 138.14C211.312 138.428 211.523 138.768 211.66 139.14C211.808 139.501 211.88 139.89 211.87 140.28L211.33 160.8L204.52 160.65L204.32 148.19C204.334 147.703 204.158 147.23 203.83 146.87C203.493 146.52 203.035 146.313 202.55 146.29C202.308 146.28 202.067 146.318 201.841 146.402C201.614 146.486 201.406 146.615 201.23 146.78C201.052 146.944 200.908 147.141 200.807 147.361C200.706 147.581 200.649 147.818 200.64 148.06L199.51 160.52L197.25 160.47L198.04 139.87ZM184.46 165.78C184.488 165.266 184.714 164.782 185.09 164.43C185.465 164.074 185.963 163.877 186.48 163.88H186.53L195.33 164.07L213.08 164.45L219.67 164.59C220.208 164.606 220.718 164.832 221.09 165.22C221.461 165.607 221.666 166.124 221.66 166.66L221.5 170.5C218.29 170.5 215.08 170.42 211.89 170.38L200.74 170.14L189.6 169.81L184.24 169.61L184.46 165.78ZM158.65 173.32C165.22 173.19 171.79 173.19 178.39 173.24C179.7 173.24 181.02 173.24 182.34 173.24L189.53 173.34L200.68 173.58L211.82 173.91C215.53 174.06 219.25 174.17 222.96 174.37H223.28C229.71 174.65 236.14 174.99 242.56 175.45L239.56 295.1L235.36 295.03C230.77 294.94 226.18 294.91 221.59 294.85C217 294.79 212.41 294.71 207.82 294.59C205.52 294.53 203.23 294.47 200.93 294.39C198.63 294.31 196.34 294.23 194.05 294.13L187.16 293.83L180.27 293.49L166.54 292.68L153.6 291.93L153.95 283.59L158.65 173.32ZM165.37 350L162.1 360.88L158.88 371.79L157.28 377.24L156.88 378.62C156.841 378.724 156.787 378.821 156.72 378.91C156.577 379.079 156.379 379.193 156.16 379.23L154.16 379.43L163.28 348.58C163.412 348.121 163.358 347.629 163.13 347.21C162.907 346.792 162.531 346.476 162.08 346.33C161.627 346.187 161.137 346.223 160.71 346.43C160.287 346.634 159.958 346.991 159.79 347.43L148.37 379.92L145.08 380.23L139.42 380.76L138 380.9H137.61C137.421 380.834 137.26 380.707 137.15 380.54C137.042 380.374 136.996 380.176 137.02 379.98V379.81V379.72L137.25 379.05L137.7 377.7L139.54 372.33C142.02 365.17 144.39 357.96 146.8 350.77L150.37 340C151.55 336.4 152.66 332.78 153.84 329.17C156.04 322.17 158.22 315.17 160.27 308.17C162.81 308.17 165.34 308.17 167.88 308.17H169.26L167.88 313.5C167.809 313.729 167.782 313.97 167.8 314.21C167.817 314.45 167.882 314.685 167.99 314.9C168.099 315.119 168.252 315.313 168.44 315.47C168.624 315.623 168.834 315.741 169.06 315.82C169.289 315.891 169.53 315.918 169.77 315.9C170.01 315.883 170.245 315.818 170.46 315.71C170.679 315.601 170.873 315.448 171.03 315.26C171.183 315.076 171.301 314.866 171.38 314.64L173.96 308.18H178.4C173.89 322.04 169.6 335.98 165.4 349.94L165.37 350ZM195.56 304.88H194.65C192.65 304.82 190.65 304.74 188.65 304.65C186.35 304.56 184.06 304.44 181.76 304.32L180.32 304.24C176.22 304.01 172.12 303.73 168.01 303.47C163.42 303.17 158.83 302.87 154.24 302.65C151.94 302.52 149.65 302.43 147.35 302.34H147.16C147.115 302.355 147.065 302.355 147.02 302.34L146.82 302.23C146.644 302.155 146.487 302.043 146.36 301.9C146.236 301.766 146.138 301.61 146.07 301.44C146.065 301.397 146.065 301.353 146.07 301.31C146.061 301.264 146.061 301.216 146.07 301.17C146.06 301.124 146.06 301.076 146.07 301.03V300.72L146.12 299V298.44C146.13 298.348 146.151 298.258 146.18 298.17C146.317 297.806 146.589 297.508 146.94 297.34C147.116 297.258 147.306 297.214 147.5 297.21H149.18L152.61 297.27L166.39 297.46L180.16 297.63L187.05 297.78L193.93 297.97C196.23 298.03 198.52 298.12 200.82 298.21C203.12 298.3 205.41 298.39 207.7 298.5C212.3 298.7 216.89 298.95 221.48 299.22C226.07 299.49 230.66 299.78 235.23 300.03L242.11 300.4H242.4C242.453 300.391 242.507 300.391 242.56 300.4C242.61 300.391 242.66 300.391 242.71 300.4L242.86 300.46C243.048 300.56 243.22 300.688 243.37 300.84C243.653 301.155 243.807 301.566 243.8 301.99L243.71 303.71V304.35C243.701 304.458 243.681 304.566 243.65 304.67C243.575 304.88 243.459 305.074 243.31 305.24C243.16 305.407 242.976 305.54 242.77 305.63C242.563 305.727 242.339 305.782 242.11 305.79H240.41L236.97 305.73L223.19 305.51L209.42 305.25C204.793 305.157 200.187 305.027 195.6 304.86L195.56 304.88ZM215.02 362.26L210.42 362.09L205.83 361.98H205.27H205.03C204.872 361.96 204.719 361.909 204.58 361.83C204.367 361.73 204.181 361.579 204.04 361.39C203.893 361.206 203.79 360.99 203.74 360.76C203.749 360.721 203.749 360.679 203.74 360.64V360.36L203.66 359.79L203.35 357.53C203.15 356.02 202.94 354.53 202.71 353.01L201.44 343.94C201.03 341.27 200.66 338.58 200.27 335.94L202.15 334.42L204.45 346.24C204.488 346.481 204.573 346.712 204.7 346.92C204.825 347.123 204.988 347.3 205.18 347.44C205.38 347.579 205.604 347.681 205.84 347.74C206.075 347.78 206.315 347.78 206.55 347.74C206.787 347.699 207.014 347.614 207.22 347.49C207.426 347.362 207.606 347.196 207.75 347C207.888 346.803 207.99 346.583 208.05 346.35C208.095 346.112 208.095 345.868 208.05 345.63L206.19 331L210.32 327.66C212.233 336.56 214.187 345.46 216.18 354.36L217.97 362.36L215.02 362.26ZM248.02 388.2C247.985 388.365 247.917 388.522 247.82 388.66C247.72 388.802 247.594 388.924 247.45 389.02C247.31 389.107 247.158 389.174 247 389.22C246.838 389.25 246.672 389.25 246.51 389.22C246.471 389.229 246.429 389.229 246.39 389.22H246.37C246.337 389.229 246.303 389.229 246.27 389.22L245.59 388.97L241.45 387.44L230.45 383.38L229.08 382.87L228.39 382.62L228.08 382.5H227.96C227.644 382.344 227.4 382.071 227.28 381.74C227.284 381.7 227.284 381.66 227.28 381.62L227.2 381.28L227.02 380.57L226.68 379.15L225.99 376.3L223.24 364.92L220.45 353.54C216.863 338.76 213.15 324.01 209.31 309.29L211.79 309.41L220.45 341.02C220.581 341.477 220.882 341.867 221.29 342.11C221.704 342.35 222.196 342.418 222.66 342.3C223.121 342.178 223.52 341.89 223.78 341.49C224.029 341.083 224.112 340.596 224.01 340.13L217.19 309.7L222.97 309.98L229.8 310.34C233.06 325.34 236.58 340.34 240.16 355.28L242.92 366.67L245.71 378.03L247.12 383.72L247.82 386.56L248 387.27L248.09 387.62V387.81C248.125 387.975 248.125 388.145 248.09 388.31L248.02 388.2Z" fill="black"/>
<path d="M161.95 327C161.507 326.792 161.001 326.767 160.54 326.93C160.099 327.104 159.741 327.44 159.54 327.87C158.54 330 157.64 332.19 156.78 334.38C155.92 336.57 155.15 338.79 154.4 341.02C153.65 343.25 152.92 345.48 152.25 347.74C151.58 350 150.93 352.26 150.42 354.56C150.341 354.787 150.308 355.029 150.323 355.269C150.339 355.51 150.402 355.745 150.51 355.96C150.71 356.388 151.069 356.722 151.51 356.89C151.737 356.97 151.979 357.003 152.219 356.988C152.46 356.972 152.695 356.908 152.91 356.8C153.127 356.695 153.321 356.548 153.48 356.368C153.64 356.188 153.762 355.978 153.84 355.75C154.84 353.6 155.68 351.41 156.55 349.22C157.42 347.03 158.2 344.81 158.97 342.59C159.74 340.37 160.48 338.14 161.16 335.89C161.84 333.64 162.47 331.36 163 329.05C163.08 328.639 163.021 328.213 162.83 327.84C162.639 327.469 162.329 327.173 161.95 327Z" fill="black"/>
<path d="M170 236.79C170.115 236.832 170.237 236.856 170.36 236.86C170.529 236.855 170.694 236.807 170.84 236.72C170.982 236.63 171.096 236.502 171.17 236.35C171.81 235.1 172.45 233.93 173.07 232.87C173.819 231.565 174.679 230.327 175.64 229.17L175.74 229.06L176.38 228.39C176.396 228.394 176.414 228.394 176.43 228.39C176.59 228.23 176.76 228.09 176.94 227.93L177.23 227.67L177.84 227.14C177.97 227.04 178.073 226.909 178.14 226.76C178.202 226.608 178.229 226.444 178.22 226.28V226.21L178.11 225.15C178.11 224.77 178.04 224.4 178.01 224.02L177.42 216.88V216.76C177.2 215.76 177.03 214.93 176.55 214.65C176.56 214.479 176.58 214.309 176.61 214.14C176.699 214.03 176.761 213.899 176.79 213.76C176.821 213.618 176.821 213.472 176.79 213.33L176.26 211.5C176.02 208.089 175.98 204.666 176.14 201.25C176.14 200.57 176.21 199.92 176.26 199.25C176.488 199.252 176.708 199.17 176.88 199.02C177.057 198.871 177.171 198.66 177.2 198.43C177.276 197.971 177.313 197.506 177.31 197.04C177.31 196.68 177.31 196.26 177.36 195.82C177.419 194.606 177.611 193.403 177.93 192.23C178.069 191.673 178.336 191.156 178.71 190.72C178.836 190.674 178.949 190.599 179.04 190.5C179.131 190.405 179.202 190.293 179.25 190.17C179.401 190.21 179.559 190.21 179.71 190.17H179.83C180.096 190.891 180.284 191.639 180.39 192.4C180.54 193.3 180.66 194.21 180.82 195.4C181.01 196.82 181.25 198.58 181.62 200.97C181.635 201.095 181.679 201.215 181.75 201.32C181.812 201.431 181.902 201.524 182.01 201.59C182.109 201.662 182.221 201.713 182.34 201.74L182.45 202.2C182.45 202.35 182.54 202.58 182.59 202.78C182.81 203.868 182.94 204.971 182.98 206.08V207.16C182.866 207.124 182.746 207.112 182.628 207.124C182.509 207.136 182.394 207.172 182.29 207.23C182.182 207.285 182.087 207.361 182.009 207.454C181.932 207.547 181.874 207.654 181.84 207.77C181.82 207.872 181.82 207.978 181.84 208.08C181.95 210.18 182.1 211.49 182.26 212.87C182.36 213.74 182.46 214.64 182.56 215.77C182.58 215.944 182.646 216.109 182.75 216.25V219.16C182.75 219.85 182.75 220.58 182.75 221.32C182.75 222.23 182.75 223.21 182.75 224.12C182.751 224.364 182.848 224.597 183.02 224.77C183.105 224.856 183.206 224.924 183.318 224.97C183.429 225.017 183.549 225.04 183.67 225.04C183.753 225.05 183.837 225.05 183.92 225.04C185.02 224.72 186.01 224.41 186.87 224.12L187.94 223.77L188.85 223.48C189.047 223.549 189.263 223.549 189.46 223.48L190.46 223.21H190.59L191.09 223.08L191.48 222.99C191.8 222.91 192.14 222.83 192.48 222.76C192.82 222.69 193.39 222.58 193.96 222.5C194.53 222.42 194.88 222.36 195.43 222.29C196.48 222.16 197.43 222.08 198.33 222.01C199.02 221.95 199.61 221.9 200.06 221.84C200.325 221.85 200.589 221.88 200.85 221.93L201.66 222.04L203.45 222.45L203.8 222.53C204.03 222.53 204.26 222.64 204.48 222.71L204.91 222.83L206.75 223.36C206.875 223.384 207.004 223.384 207.13 223.36C207.257 223.346 207.38 223.305 207.49 223.24C207.602 223.172 207.697 223.079 207.77 222.97C207.841 222.861 207.889 222.739 207.91 222.61C208.02 222.01 208.11 221.36 208.21 220.72C208.27 220.26 208.34 219.83 208.41 219.41L208.86 216.74C209.12 215.36 209.36 214.26 209.6 213.25C210.146 210.923 210.814 208.627 211.6 206.37C212.06 205.12 212.47 204.02 212.9 203.03C213.04 202.69 213.19 202.36 213.36 202.03C213.72 201.26 214.09 200.52 214.46 199.83C215.451 197.869 216.735 196.072 218.27 194.5C218.702 194.231 219.165 194.016 219.65 193.86C219.713 193.842 219.774 193.815 219.83 193.78C220.081 193.64 220.355 193.548 220.64 193.51H220.8H220.9C220.94 193.564 220.977 193.621 221.01 193.68C221.14 193.94 221.221 194.221 221.25 194.51C221.108 194.655 220.999 194.829 220.93 195.02C220.899 195.127 220.882 195.238 220.88 195.35V196C220.845 196.339 220.889 196.681 221.01 197C221.058 197.086 221.115 197.166 221.18 197.24C220.949 199.892 220.333 202.496 219.35 204.97C219.244 205.185 219.226 205.432 219.3 205.66L219.76 206.96C219.812 207.11 219.901 207.244 220.02 207.35C220.138 207.45 220.279 207.518 220.43 207.55C220.271 207.781 220.128 208.021 220 208.27L219.91 208.44C219.735 208.453 219.565 208.511 219.42 208.61C219.277 208.714 219.166 208.856 219.1 209.02C218.326 211.096 217.421 213.12 216.39 215.08C215.804 216.132 215.136 217.135 214.39 218.08L214.23 218.3C214.187 218.363 214.151 218.43 214.12 218.5L213.61 219.75C213.37 220.32 213.15 220.75 213.01 221.19C212.753 221.742 212.565 222.323 212.45 222.92C212.431 223.102 212.462 223.285 212.54 223.45C212.622 223.614 212.751 223.749 212.91 223.84C213.228 224.021 213.563 224.172 213.91 224.29C214.185 224.388 214.447 224.519 214.69 224.68L215.08 225.02L215.36 225.28L216.08 225.96C216.43 226.32 216.77 226.7 217.08 227.06L217.13 227.12C217.46 227.54 217.79 227.95 218.08 228.33C218.37 228.71 218.68 229.18 218.96 229.6C219.68 230.69 220.34 231.78 220.96 232.92C220.722 232.956 220.506 233.077 220.35 233.26C220.24 233.405 220.174 233.578 220.16 233.76C220.141 233.941 220.179 234.123 220.27 234.28C220.43 234.56 220.62 234.92 220.8 235.28C220.98 235.64 221.12 235.96 221.26 236.28C221.332 236.475 221.47 236.637 221.65 236.74C221.826 236.848 222.035 236.891 222.24 236.86L222.51 237.5L222.58 237.67C223.101 238.936 223.548 240.232 223.92 241.55C224.292 242.833 224.559 244.144 224.72 245.47C224.8 246.16 224.85 246.73 224.89 247.19C224.93 247.65 224.97 248.1 225.02 248.44C225.08 248.794 225.16 249.145 225.26 249.49C224.7 249.7 224.51 250.49 224.35 251.14C224.34 251.193 224.34 251.247 224.35 251.3C224.29 252.214 224.17 253.122 223.99 254.02V254.19C223.99 254.52 223.99 254.84 223.94 255.19L223.86 256.19C223.86 256.32 223.86 256.45 223.86 256.58V256.8C223.738 257.723 223.499 258.627 223.15 259.49L223.08 259.62L222.68 260.3C222.522 260.3 222.366 260.331 222.22 260.39C221.83 260.55 221.49 260.91 220.7 261.76L220.1 262.39L219.97 262.57C219.78 262.91 219.62 263.15 219.48 263.36C219.34 263.57 219.31 263.61 219.26 263.7C219.08 263.98 218.92 264.26 218.77 264.55C218.712 264.669 218.678 264.798 218.67 264.93C218.669 265.063 218.693 265.196 218.74 265.32L218.41 265.63L218.18 265.86C218.02 266.01 217.87 266.17 217.69 266.32L216.82 267.08C216.47 267.4 216.08 267.71 215.67 268.03L215.08 268.48L214.93 268.61L214.65 268.76L214.19 269.07C213.88 269.28 213.59 269.5 213.31 269.7C213.03 269.9 212.85 270.02 212.67 270.16C212.49 270.3 212.11 270.55 211.86 270.75C210.295 271.764 208.561 272.488 206.74 272.89C205.904 273.06 205.046 273.09 204.2 272.98L203.46 272.9C202.91 272.83 202.28 272.76 201.46 272.73C200.97 272.73 200.41 272.67 199.77 272.65C198.77 272.65 197.43 272.57 195.77 272.42C195.594 272.403 195.416 272.437 195.26 272.52C195.1 272.599 194.967 272.724 194.88 272.88H194.71H194.39C193.93 272.82 193.44 272.75 192.9 272.64C191.48 272.38 189.9 271.94 188.64 271.58L185.01 270.44C183.942 270.013 182.915 269.491 181.94 268.88C181.26 268.46 180.69 268.03 179.94 267.51L179.58 267.24C179.509 267.19 179.431 267.15 179.35 267.12C178.796 266.887 178.255 266.623 177.73 266.33C177.145 265.967 176.512 265.687 175.85 265.5C175.732 265.484 175.612 265.491 175.497 265.522C175.382 265.553 175.274 265.607 175.18 265.68C175.082 265.752 175 265.844 174.938 265.949C174.876 266.053 174.836 266.169 174.82 266.29C174.785 266.424 174.785 266.566 174.82 266.7C175.28 268 177.15 269.96 179.87 271.96C183.479 274.566 187.474 276.59 191.71 277.96H191.87C192.075 277.992 192.282 278.008 192.49 278.01C195.059 278.519 197.671 278.791 200.29 278.82C200.75 278.82 201.21 278.82 201.64 278.82C205.037 278.712 208.369 277.859 211.4 276.32C211.515 276.266 211.615 276.183 211.69 276.08C211.769 275.976 211.827 275.857 211.86 275.73L212.19 275.6C212.947 275.338 213.677 275.003 214.37 274.6C214.493 274.535 214.599 274.443 214.68 274.33C214.76 274.218 214.812 274.087 214.83 273.95L215.56 273.46L217.21 272.26L217.86 271.78L218.91 271C219.31 270.67 219.71 270.32 220.12 269.95L220.62 269.52C221.05 269.12 221.46 268.7 221.9 268.26L222.33 267.83L223.15 266.91L223.26 266.78C223.529 266.493 223.779 266.189 224.01 265.87L224.31 265.48C224.439 265.548 224.584 265.583 224.73 265.58C224.949 265.579 225.162 265.501 225.33 265.36L225.79 264.9L225.96 264.72C226.015 264.671 226.062 264.613 226.1 264.55C226.772 263.43 227.369 262.268 227.89 261.07C227.949 260.888 227.949 260.692 227.89 260.51C227.85 260.322 227.752 260.15 227.61 260.02C227.81 259.59 228 259.16 228.17 258.74C228.256 258.75 228.344 258.75 228.43 258.74C228.615 258.739 228.796 258.683 228.95 258.58C229.101 258.471 229.219 258.322 229.29 258.15V258.07C229.51 257.49 229.75 256.83 230.01 256.07L230.16 255.57C230.348 254.959 230.502 254.338 230.62 253.71C230.83 252.84 230.94 251.98 231.08 251.03V250.68C231.14 249.88 231.21 249.05 231.2 248.23C231.223 244.591 230.544 240.982 229.2 237.6C229.177 237.53 229.14 237.465 229.09 237.41C228.91 237.15 228.49 236.59 227.92 236.64L227.31 235.38C227.41 235.281 227.489 235.162 227.54 235.03C227.591 234.893 227.612 234.746 227.6 234.6C227.479 233.896 227.236 233.219 226.88 232.6C226.101 231.01 225.212 229.476 224.22 228.01C224.108 227.843 223.942 227.719 223.75 227.66C223.562 227.595 223.358 227.595 223.17 227.66C222.33 226.29 221.57 225.18 220.79 224.14L220.63 223.94C220.17 223.36 219.71 222.75 219.2 222.19L219.48 221.53C219.83 220.69 220.16 219.81 220.48 218.91C221.002 218.27 221.405 217.542 221.67 216.76C222.15 215.65 222.67 214.28 222.99 213.39L223.1 213.09C224.058 210.537 224.872 207.933 225.54 205.29C226.59 200.92 226.04 200.7 225.46 200.46C225.354 200.42 225.243 200.397 225.13 200.39C225.479 199.098 225.703 197.775 225.8 196.44C225.902 195.278 225.848 194.108 225.64 192.96C225.518 192.264 225.292 191.59 224.97 190.96C224.585 190.174 223.971 189.522 223.21 189.09C223.062 189.007 222.908 188.933 222.75 188.87C222.787 188.759 222.801 188.642 222.793 188.525C222.784 188.408 222.753 188.295 222.7 188.19C222.652 188.083 222.583 187.986 222.497 187.905C222.411 187.824 222.31 187.761 222.2 187.72C222.002 187.653 221.797 187.607 221.59 187.58H221.33C221.178 187.55 221.024 187.53 220.87 187.52H220.64C220.337 187.495 220.033 187.495 219.73 187.52C219.013 187.608 218.312 187.8 217.65 188.09C216.508 188.607 215.458 189.306 214.54 190.16C212.949 191.703 211.586 193.464 210.49 195.39C208.991 198.084 207.655 200.866 206.49 203.72L205.39 206.22C205.396 206.234 205.4 206.25 205.4 206.265C205.4 206.281 205.396 206.296 205.39 206.31C205.005 207.238 204.815 208.235 204.83 209.24C204.878 209.468 204.997 209.674 205.17 209.83C204.695 210.927 204.301 212.056 203.99 213.21L203.9 213.53C203.79 213.93 203.68 214.33 203.59 214.73L203.17 216.46C203.138 216.5 203.111 216.543 203.09 216.59C203.007 216.789 202.973 217.005 202.99 217.22C202.992 217.356 203.027 217.49 203.09 217.61C203.151 217.73 203.24 217.833 203.35 217.91L202.76 217.79H202.7L201.49 217.6C201.099 217.53 200.706 217.48 200.31 217.45H200.17H199.78L198.98 217.39C196.22 217.26 195.55 217.72 195.33 217.85C195.171 217.966 195.049 218.126 194.98 218.31L194.46 218.37L192.95 218.56C191.95 218.68 191.02 218.8 190.28 218.85H190.02C189.653 218.983 189.279 219.096 188.9 219.19L188.35 219.35C187.95 219.46 187.53 219.57 187.12 219.7V219.09C187.12 218.46 187.04 217.95 186.99 217.56C186.988 217.116 186.829 216.687 186.54 216.35C186.43 212.81 186.25 208.09 185.75 203.22C185.497 200.689 185.113 198.172 184.6 195.68C184.336 194.439 184.002 193.214 183.6 192.01C183.255 190.889 182.782 189.812 182.19 188.8C182.092 188.444 181.936 188.106 181.73 187.8C181.418 187.334 180.986 186.961 180.48 186.72C179.91 186.48 179.275 186.441 178.68 186.61C178.523 186.638 178.369 186.682 178.22 186.74H178.15C177.997 186.72 177.843 186.72 177.69 186.74C177.292 186.852 176.918 187.038 176.59 187.29C176.198 187.612 175.833 187.967 175.5 188.35C175.41 188.46 175.28 188.6 175.23 188.65C175.115 188.735 175.019 188.845 174.95 188.97C174.817 189.25 174.7 189.537 174.6 189.83L174.47 190.15V190.23L174.36 190.58C174.28 190.85 174.19 191.12 174.13 191.4L174.08 191.62C174 191.94 173.92 192.27 173.87 192.62C173.82 192.97 173.72 193.39 173.66 193.84C173.422 195.448 173.268 197.066 173.2 198.69C173.083 201.954 173.129 205.221 173.34 208.48C173.51 211.63 173.79 214.93 174.18 218.29C174.38 219.95 174.59 221.57 174.81 223.12C174.88 223.58 174.95 224.07 175.02 224.55L175.19 225.68L174.95 225.92L174.69 226.17L174.31 226.61C174.195 226.736 174.088 226.87 173.99 227.01V227.06C173.149 228.473 172.381 229.928 171.69 231.42C170.991 232.859 170.38 234.338 169.86 235.85C169.815 235.956 169.792 236.07 169.792 236.185C169.792 236.3 169.815 236.414 169.86 236.52C169.893 236.617 169.94 236.708 170 236.79ZM203.69 216.69L206.05 215.32L205.21 219.19L203.37 219L203.69 216.69Z" fill="#90D35B"/>
<path d="M203.21 241.29C203.138 242.465 203.493 243.626 204.21 244.56C204.886 245.448 205.864 246.056 206.96 246.27H207.19C207.489 246.27 207.787 246.24 208.08 246.18H208.25H208.38C208.924 246.189 209.466 246.101 209.98 245.92C210.102 245.872 210.211 245.796 210.3 245.7C210.393 245.608 210.461 245.495 210.5 245.37C210.54 245.209 210.54 245.041 210.5 244.88H210.64C211.75 244.8 212.31 244.31 212.31 243.43C212.325 243.33 212.325 243.229 212.31 243.13C212.403 243.101 212.491 243.057 212.57 243C212.599 243.007 212.63 243.007 212.66 243C212.714 242.969 212.764 242.932 212.81 242.89C212.852 242.859 212.892 242.826 212.93 242.79C213.05 242.665 213.158 242.527 213.25 242.38C213.287 242.312 213.321 242.242 213.35 242.17C213.566 241.68 213.633 241.137 213.54 240.61C213.25 239.551 212.638 238.607 211.79 237.91C210.939 237.207 209.89 236.788 208.79 236.71C208.569 236.687 208.348 236.748 208.17 236.88C207.779 236.799 207.374 236.83 207 236.97C206.918 237.007 206.84 237.054 206.77 237.11C206.496 237.151 206.225 237.211 205.96 237.29C205.893 237.308 205.829 237.335 205.77 237.37C205.017 237.792 204.387 238.402 203.94 239.14C203.849 239.272 203.8 239.429 203.8 239.59C203.65 239.815 203.52 240.053 203.41 240.3L203.35 240.46C203.343 240.545 203.326 240.629 203.3 240.71C203.29 240.806 203.29 240.904 203.3 241V241.1C203.264 241.16 203.234 241.224 203.21 241.29Z" fill="#90D35B"/>
<path d="M201.69 252.39L201.33 252.13C201.252 252.057 201.181 251.977 201.12 251.89C200.978 251.692 200.813 251.51 200.63 251.35C200.586 251.306 200.535 251.268 200.48 251.24C200.289 251.053 200.089 250.876 199.88 250.71C199.768 250.633 199.662 250.55 199.56 250.46L199.24 250.15L198.88 249.78L198.65 249.53C198.533 249.406 198.422 249.276 198.32 249.14C198.272 249.046 198.211 248.958 198.14 248.88L198.07 248.76V248.7C197.949 248.5 197.755 248.353 197.53 248.29C197.375 248.255 197.214 248.255 197.06 248.29C196.906 248.318 196.762 248.383 196.64 248.48L196.45 248.6L196.05 248.84L195.17 249.39C195.04 249.48 194.9 249.56 194.76 249.64L194.44 249.83C194.212 249.951 193.998 250.095 193.8 250.26C193.698 250.345 193.617 250.451 193.56 250.57C193.534 250.632 193.504 250.692 193.47 250.75C193.305 250.771 193.146 250.822 193 250.9C192.859 250.988 192.733 251.1 192.63 251.23C192.593 251.291 192.559 251.355 192.53 251.42C192.405 251.489 192.284 251.565 192.17 251.65L192.06 251.74L191.99 251.8C191.852 251.823 191.72 251.87 191.6 251.94H191.5C191.115 252.008 190.763 252.201 190.5 252.49H190.4C190.164 252.46 189.926 252.46 189.69 252.49C189.075 252.678 188.431 252.749 187.79 252.7C187.716 252.66 187.634 252.64 187.55 252.64V252.56C187.555 252.534 187.555 252.506 187.55 252.48C187.56 252.434 187.56 252.386 187.55 252.34C187.555 252.324 187.555 252.306 187.55 252.29C187.533 252.16 187.485 252.037 187.41 251.93C187.41 251.93 187.41 251.93 187.41 251.88C187.378 251.759 187.32 251.647 187.24 251.55C187.157 251.457 187.059 251.38 186.95 251.32H186.86L186.62 251.26C186.522 251.113 186.46 250.945 186.44 250.77C186.416 250.594 186.441 250.414 186.51 250.25C186.487 250.196 186.457 250.145 186.42 250.1C186.348 249.897 186.206 249.727 186.02 249.62C185.948 249.574 185.871 249.537 185.79 249.51C185.684 249.418 185.557 249.353 185.42 249.32C185.281 249.29 185.138 249.29 185 249.32C184.6 249.42 184.19 249.51 183.78 249.59C183.662 249.689 183.567 249.812 183.5 249.95C183.43 250.086 183.392 250.237 183.39 250.39C183.389 250.516 183.41 250.641 183.45 250.76V250.96L183.39 251.05C183.292 251.197 183.23 251.365 183.21 251.54C183.181 251.718 183.198 251.901 183.26 252.07C183.22 252.211 183.22 252.359 183.26 252.5V252.63C183.293 252.737 183.344 252.839 183.41 252.93V253C183.546 253.298 183.74 253.567 183.98 253.79L184.12 253.94H184.17V254.04C184.16 254.062 184.155 254.086 184.155 254.11C184.155 254.134 184.16 254.158 184.17 254.18C184.149 254.336 184.17 254.495 184.23 254.64C184.296 254.8 184.391 254.945 184.51 255.07C184.58 255.24 184.686 255.394 184.82 255.52C184.959 255.641 185.123 255.73 185.3 255.78H185.37H185.46C185.558 255.859 185.67 255.92 185.79 255.96C185.947 256.079 186.11 256.189 186.28 256.29C186.3 256.339 186.331 256.384 186.37 256.42C186.457 256.54 186.57 256.639 186.7 256.71C186.793 256.841 186.917 256.947 187.06 257.02C187.879 257.42 188.794 257.579 189.7 257.48C190.332 257.406 190.923 257.133 191.39 256.7C191.589 256.72 191.79 256.72 191.99 256.7C192.22 256.691 192.447 256.64 192.66 256.55C192.868 256.455 193.055 256.319 193.21 256.15L193.45 255.93L193.63 255.75C194.182 255.268 194.77 254.83 195.39 254.44C195.57 254.31 195.77 254.2 195.97 254.08L196.34 253.85L196.51 253.75L196.6 253.87L196.81 254.15L197.01 254.42L197.08 254.51C197.174 254.633 197.298 254.729 197.44 254.79C197.579 254.85 197.729 254.877 197.88 254.87L198.46 255.24C198.569 255.302 198.687 255.346 198.81 255.37C198.932 255.395 199.058 255.395 199.18 255.37H199.23C199.323 255.502 199.43 255.622 199.55 255.73C199.653 255.83 199.781 255.903 199.92 255.94C200.388 256.27 200.883 256.561 201.4 256.81C201.518 256.953 201.679 257.055 201.86 257.1H202L202.13 257.15C202.212 257.264 202.318 257.36 202.44 257.43C202.566 257.499 202.706 257.54 202.85 257.55C202.983 257.54 203.117 257.54 203.25 257.55H203.42C203.598 257.582 203.779 257.598 203.96 257.6C204.093 257.61 204.227 257.61 204.36 257.6C205.356 257.672 206.352 257.468 207.24 257.01C208.123 256.552 208.863 255.86 209.38 255.01C209.452 254.91 209.497 254.793 209.51 254.67C209.573 254.548 209.627 254.421 209.67 254.29L209.73 254.14C209.762 254.061 209.799 253.985 209.84 253.91C209.859 253.885 209.875 253.858 209.89 253.83C209.921 253.77 209.957 253.713 210 253.66C210.099 253.542 210.168 253.401 210.2 253.25V253.03C210.228 252.402 210.302 251.777 210.42 251.16C210.401 251.107 210.384 251.054 210.37 251C210.399 250.732 210.361 250.46 210.26 250.21C210.152 249.962 209.983 249.746 209.77 249.58C209.607 249.507 209.427 249.48 209.25 249.5C209.071 249.522 208.902 249.591 208.76 249.7C208.567 249.83 208.409 250.005 208.3 250.21C208.172 250.326 208.078 250.474 208.03 250.64C207.506 251.444 206.888 252.182 206.19 252.84C206.138 252.889 206.091 252.942 206.05 253C205.779 253.322 205.404 253.537 204.99 253.61C204.751 253.671 204.506 253.698 204.26 253.69C204.021 253.68 203.783 253.65 203.55 253.6C203.442 253.454 203.297 253.34 203.13 253.27C202.615 253.038 202.131 252.742 201.69 252.39Z" fill="#90D35B"/>
<path d="M189.49 239.77C189.52 239.642 189.52 239.508 189.49 239.38C189.478 239.246 189.437 239.116 189.37 239C189.33 238.942 189.3 238.878 189.28 238.81C189.19 238.607 189.076 238.416 188.94 238.24C188.805 238.025 188.64 237.829 188.45 237.66C188.141 237.353 187.783 237.099 187.39 236.91H187.27H187.15L186.6 236.73H186.46C186.335 236.706 186.206 236.706 186.08 236.73H185.9C185.723 236.635 185.518 236.603 185.32 236.64C185.221 236.625 185.12 236.625 185.02 236.64C184.92 236.64 184.76 236.64 184.61 236.64C184.494 236.619 184.376 236.619 184.26 236.64C184.158 236.62 184.053 236.62 183.95 236.64C183.744 236.665 183.545 236.726 183.36 236.82C183.28 236.836 183.203 236.863 183.13 236.9C182.999 236.961 182.883 237.05 182.79 237.16C182.287 237.455 181.831 237.826 181.44 238.26C180.728 239.042 180.32 240.053 180.29 241.11C180.272 242.195 180.625 243.253 181.29 244.11C181.436 244.319 181.642 244.479 181.88 244.57V244.62L181.94 244.67C182.101 244.832 182.301 244.949 182.52 245.01C183.323 245.543 184.266 245.829 185.23 245.83C185.946 245.838 186.655 245.681 187.3 245.37C188.058 244.997 188.696 244.419 189.14 243.7C189.597 242.967 189.823 242.113 189.79 241.25C189.783 241.078 189.727 240.912 189.63 240.77C189.536 240.63 189.404 240.519 189.25 240.45V240.24C189.376 240.112 189.46 239.947 189.49 239.77ZM184.31 237.1C184.282 237.042 184.241 236.99 184.19 236.95C184.24 236.983 184.281 237.028 184.31 237.08V237.1Z" fill="#90D35B"/>
<path d="M206.05 215.31L203.69 216.69L203.37 219L205.18 219.18L206.05 215.31Z" fill="#90D35B"/>
<path d="M277.02 367.46C285.73 367.46 292.79 365.98 292.79 364.16C292.79 362.34 285.73 360.85 277.02 360.85C268.31 360.85 261.24 362.33 261.24 364.16C261.24 365.99 268.3 367.46 277.02 367.46Z" fill="#90D35B"/>
<path d="M99.6798 394.61C106.52 394.61 112.08 393.45 112.08 392.01C112.08 390.57 106.52 389.41 99.6798 389.41C92.8398 389.41 87.2798 390.58 87.2798 392.01C87.2798 393.44 92.8298 394.61 99.6798 394.61Z" fill="#90D35B"/>
<path d="M268.74 399.39C272.63 399.39 275.79 398.5 275.79 397.39C275.79 396.28 272.63 395.39 268.74 395.39C264.85 395.39 261.68 396.28 261.68 397.39C261.68 398.5 264.84 399.39 268.74 399.39Z" fill="#90D35B"/>
<path d="M273.49 400.6C275.43 400.6 277.01 400.16 277.01 399.6C277.01 399.04 275.43 398.6 273.49 398.6C271.55 398.6 269.96 399.05 269.96 399.6C269.96 400.15 271.54 400.6 273.49 400.6Z" fill="#90D35B"/>
<path d="M167.59 402.1C179.01 402.1 188.27 400 188.27 397.41C188.27 394.82 179.01 392.71 167.59 392.71C156.17 392.71 146.91 394.82 146.91 397.41C146.91 400 156.17 402.1 167.59 402.1Z" fill="#90D35B"/>
<path d="M207.37 398.62C211.37 398.62 214.62 397.57 214.62 396.27C214.62 394.97 211.38 393.93 207.37 393.93C203.36 393.93 200.12 394.98 200.12 396.27C200.12 397.56 203.37 398.62 207.37 398.62Z" fill="#90D35B"/>
<path d="M154.37 405.29C158.37 405.29 161.62 404.24 161.62 402.95C161.62 401.66 158.37 400.6 154.37 400.6C150.37 400.6 147.11 401.6 147.11 402.95C147.11 404.3 150.37 405.29 154.37 405.29Z" fill="#90D35B"/>
<path d="M199.6 407.61C201.6 407.61 203.23 407.08 203.23 406.44C203.23 405.8 201.61 405.26 199.6 405.26C197.59 405.26 195.98 405.79 195.98 406.44C195.98 407.09 197.6 407.61 199.6 407.61Z" fill="#90D35B"/>
<path d="M191.59 380.54C193.59 380.54 195.22 380.01 195.22 379.37C195.22 378.73 193.6 378.19 191.59 378.19C189.58 378.19 187.97 378.72 187.97 379.37C187.97 380.02 189.59 380.54 191.59 380.54Z" fill="#90D35B"/>
</g>
<defs>
<linearGradient id="paint0_linear_3327_22849" x1="190.03" y1="0" x2="190.03" y2="409.95" gradientUnits="userSpaceOnUse">
<stop stop-color="#4A4156"/>
<stop offset="1" stop-color="#4E4156" stop-opacity="0"/>
</linearGradient>
<clipPath id="clip0_3327_22849">
<rect width="380.22" height="409.94" fill="white"/>
</clipPath>
</defs>
</svg>
