<svg width="360" height="255" viewBox="0 0 360 255" fill="none" xmlns="http://www.w3.org/2000/svg">
<g opacity="0.05" clip-path="url(#clip0_2808_10304)">
<path d="M25.7319 243.046C26.0756 243.382 26.5344 243.569 27.0115 243.568H27.2971C42.5946 241.123 57.6852 237.487 72.4359 232.694C72.8214 232.567 73.1547 232.314 73.3841 231.974C73.6239 231.638 73.741 231.227 73.7154 230.812C73.0859 216.986 71.3474 203.236 68.5172 189.698C68.4631 189.441 68.3539 189.199 68.1973 188.989C68.0438 188.78 67.8493 188.606 67.6261 188.478C67.4001 188.35 67.1501 188.271 66.8923 188.247C66.6345 188.223 66.3747 188.254 66.1295 188.339C65.2041 189.965 64.2901 191.568 63.3419 193.172L65.4326 192.475C67.8393 204.687 69.3667 217.061 70.0024 229.5C56.6363 233.769 42.9923 237.08 29.1708 239.409C30.2218 231.277 31.1129 222.181 31.8327 212.317L28.154 212.097C27.3771 222.889 26.3831 232.729 25.195 241.396C25.1622 241.686 25.1935 241.98 25.2864 242.256C25.3764 242.549 25.5284 242.819 25.7319 243.046Z" fill="#8B8FA2"/>
<path d="M96.0849 179.172C95.8409 179.078 95.5805 179.034 95.3195 179.045C95.0593 179.055 94.8051 179.126 94.5769 179.254C87.9867 182.554 81.0651 185.121 73.9325 186.91C73.6975 186.958 73.4753 187.057 73.2813 187.2C72.8853 187.493 72.6154 187.93 72.5273 188.42C72.4875 188.658 72.4875 188.902 72.5273 189.14C73.5213 193.567 75.9547 206.253 77.2571 228.524C77.2722 228.81 77.3544 229.089 77.497 229.337C77.634 229.59 77.8302 229.806 78.0682 229.964C78.3037 230.127 78.5739 230.231 78.8565 230.266C79.137 230.303 79.422 230.275 79.6906 230.185C89.4472 226.758 99.261 222.785 108.869 218.358C109.289 218.162 109.623 217.814 109.806 217.382C109.977 216.946 109.977 216.46 109.806 216.023L97.1017 180.23C97.0077 179.978 96.8638 179.749 96.679 179.556C96.5064 179.391 96.3049 179.261 96.0849 179.172ZM80.7759 225.886C80.1669 213.892 78.7391 201.956 76.5031 190.163C82.6572 188.509 88.6467 186.276 94.3941 183.494L105.819 215.686C97.5587 219.462 89.1502 222.878 80.7759 225.886Z" fill="#8B8FA2"/>
<path d="M-33.4248 213.247C-33.2899 213.524 -33.0945 213.766 -32.8536 213.955C-32.6056 214.141 -32.314 214.257 -32.0081 214.292C-19.5344 215.963 -6.96811 216.816 5.61322 216.848C11.1199 216.848 16.8208 216.674 22.6131 216.232C23.0527 216.205 23.4672 216.015 23.7786 215.698C24.09 215.381 24.2769 214.96 24.3039 214.513C24.3725 213.63 24.441 212.77 24.5096 211.911C23.2871 211.829 22.0647 211.748 20.8308 211.643L20.7623 212.619C4.23446 213.593 -12.3461 213.037 -28.7749 210.958C-27.3926 208.634 -26.2844 206.683 -25.5646 205.358C-26.8328 205.114 -28.1123 204.894 -29.3805 204.615C-30.3515 206.334 -31.7225 208.704 -33.3791 211.446C-33.5397 211.716 -33.6303 212.022 -33.6423 212.337C-33.6543 212.652 -33.5873 212.965 -33.4476 213.247H-33.4248Z" fill="#8B8FA2"/>
<path d="M21.7219 220.031C16.4666 220.403 10.9828 220.601 5.41896 220.601C-8.36401 220.578 -22.1278 219.553 -35.7669 217.533C-36.1193 217.474 -36.4812 217.523 -36.8065 217.673C-37.13 217.823 -37.4038 218.065 -37.5948 218.37C-39.3199 221.088 -40.8394 223.888 -42.3246 226.607C-44.9408 231.44 -47.4314 235.994 -50.7331 239.665C-50.9481 239.909 -51.0976 240.205 -51.1673 240.525C-51.2535 240.84 -51.2535 241.173 -51.1673 241.489C-51.068 241.801 -50.8908 242.081 -50.6532 242.302C-50.4149 242.523 -50.1231 242.675 -49.8077 242.744C-49.6021 242.744 -34.5673 245.973 -9.34166 245.973C-0.818878 245.973 8.88062 245.601 19.5512 244.637C19.9771 244.609 20.3804 244.432 20.6937 244.138C20.9992 243.851 21.1971 243.465 21.2535 243.046C22.1675 236.714 22.9786 229.651 23.6641 222.053C23.694 221.783 23.6632 221.51 23.5742 221.255C23.4851 220.999 23.3401 220.767 23.15 220.577C22.9661 220.38 22.7391 220.228 22.4874 220.136C22.24 220.039 21.9747 220 21.7105 220.02L21.7219 220.031ZM17.8375 241.071C-14.9169 243.905 -37.9718 240.966 -45.9348 239.665C-43.3779 236.091 -41.0866 232.328 -39.08 228.407C-37.8233 226.084 -36.5209 223.76 -35.1156 221.437C-21.6819 223.353 -8.13483 224.331 5.43039 224.365C10.3201 224.365 15.1528 224.214 19.8254 223.935C19.2085 230.034 18.5459 235.796 17.8375 241.071Z" fill="#8B8FA2"/>
<path d="M-4.85176 167.16C-4.77217 167.44 -4.63161 167.698 -4.44048 167.915C-4.24603 168.128 -4.00813 168.294 -3.74356 168.403C30.7017 181.972 47.6673 183.064 56.807 183.645H56.9213C57.2693 183.645 57.6101 183.545 57.9038 183.355C58.2007 183.162 58.4383 182.888 58.5893 182.565C62.7136 173.526 64.7357 168.821 64.7471 168.775C64.8613 168.516 64.916 168.234 64.9071 167.95C64.8964 167.664 64.818 167.385 64.6786 167.137C64.5475 166.89 64.3641 166.675 64.1416 166.509C63.9134 166.345 63.6519 166.233 63.3762 166.184C46.6962 163.14 31.7756 157.866 18.6716 153.219C15.0385 151.929 11.5997 150.721 8.18376 149.559C7.79719 149.43 7.37951 149.434 6.99538 149.571C6.61125 149.707 6.28207 149.969 6.05876 150.315C3.92235 153.695 0.346467 159.074 -4.5547 165.557C-4.72388 165.792 -4.84085 166.061 -4.89746 166.347C-4.93865 166.618 -4.92306 166.895 -4.85176 167.16ZM8.3894 153.521C11.3484 154.532 14.3531 155.589 17.5291 156.704C30.199 161.189 44.4798 166.265 60.5086 169.483C59.5946 171.528 58.0637 175.025 55.8359 179.939C46.8562 179.335 30.8045 177.848 -0.14481 165.905C3.57962 160.898 6.43579 156.611 8.40083 153.602L8.3894 153.521Z" fill="#8B8FA2"/>
<path d="M14.9129 179.196C14.809 178.938 14.6488 178.707 14.4444 178.522C14.24 178.336 13.9984 178.197 13.7361 178.115C3.70528 175.083 -4.29195 172.202 -7.27378 171.145C-7.63075 171.013 -8.01894 170.998 -8.38507 171.1C-8.7512 171.201 -9.07736 171.416 -9.3188 171.714C-15.2685 179.111 -21.6634 186.126 -28.4665 192.718C-28.7059 192.955 -28.8794 193.251 -28.9692 193.578C-29.0591 193.906 -29.0588 194.253 -28.9681 194.581C-28.8774 194.909 -28.7 195.205 -28.4551 195.437C-28.2114 195.668 -27.9117 195.828 -27.5868 195.902C-18.2186 197.935 -8.85038 199.654 0.255056 201.002H0.517834C0.782545 201.002 1.04401 200.943 1.28327 200.827C1.51672 200.71 1.72609 200.548 1.90021 200.351C6.81397 194.277 11.1374 187.733 14.81 180.811C14.9375 180.565 15.0152 180.297 15.0385 180.021C15.0621 179.739 15.019 179.456 14.9129 179.196ZM-0.213358 197.133C-7.82217 195.971 -15.6138 194.577 -23.4282 192.928C-17.7508 187.255 -12.3664 181.287 -7.29665 175.048C-3.94923 176.268 2.52856 178.533 10.503 181.008C7.38916 186.684 3.804 192.078 -0.213358 197.133Z" fill="#8B8FA2"/>
<path d="M54.3392 186.027C44.9253 185.039 32.6324 183.494 20.945 180.218C20.5429 180.11 20.1168 180.143 19.7354 180.312C19.3541 180.481 19.0396 180.775 18.8429 181.147C15.5656 187.44 11.8067 193.461 7.60104 199.155C7.40755 199.421 7.28195 199.733 7.23544 200.061C7.19186 200.388 7.23527 200.721 7.36113 201.025C7.48801 201.327 7.68857 201.591 7.9438 201.792C8.2068 201.985 8.51306 202.109 8.83492 202.152C20.0464 203.636 31.3349 204.439 42.6404 204.557C44.3427 204.557 45.2909 204.557 45.428 204.557C45.673 204.546 45.9135 204.487 46.1364 204.382C46.358 204.282 46.5564 204.136 46.719 203.953C49.678 200.688 51.8715 196.355 53.8137 192.544C54.4878 191.231 55.1161 189.988 55.7445 188.815C55.8898 188.543 55.9719 188.241 55.9844 187.932C55.9855 187.622 55.9151 187.315 55.7787 187.038C55.6351 186.766 55.4318 186.531 55.1846 186.352C54.9317 186.18 54.6417 186.073 54.3392 186.038V186.027ZM50.5577 190.79C48.9068 194.339 46.8844 197.696 44.5255 200.804C33.7907 200.812 23.0655 200.149 12.4108 198.818C15.6761 194.127 18.6706 189.247 21.3791 184.203C31.1772 186.698 41.1441 188.449 51.1975 189.442L50.5577 190.79Z" fill="#8B8FA2"/>
<path d="M166.701 153.742C166.301 151.662 165.821 149.571 165.25 147.526C165.161 147.188 164.964 146.89 164.69 146.678C164.419 146.461 164.086 146.339 163.742 146.33C144.902 145.946 133.695 149.885 133.226 150.071C132.854 150.196 132.543 150.462 132.358 150.814C132.163 151.167 132.102 151.58 132.187 151.976C132.468 153.242 132.614 154.535 132.621 155.833C132.618 156.175 132.68 156.514 132.804 156.832C133.063 157.468 133.561 157.974 134.186 158.238C134.494 158.367 134.824 158.434 135.157 158.435C135.298 158.447 135.439 158.447 135.58 158.435C145.42 156.783 155.395 156.102 165.364 156.402C165.633 156.424 165.902 156.367 166.141 156.239C166.38 156.121 166.585 155.941 166.735 155.717C166.891 155.498 166.989 155.242 167.021 154.973C167.056 154.701 167.02 154.425 166.918 154.172C166.862 154.02 166.789 153.876 166.701 153.742ZM135.854 155.055C135.818 154.276 135.742 153.501 135.626 152.731C144.398 150.411 153.446 149.351 162.508 149.583C162.805 150.744 163.079 151.906 163.308 153.068C154.106 152.914 144.908 153.578 135.82 155.055H135.854Z" fill="#8B8FA2"/>
<path d="M132.987 147.259C135.706 146.376 145.771 143.472 161.662 143.472H161.754C161.991 143.466 162.224 143.411 162.439 143.309C162.656 143.206 162.847 143.055 162.999 142.868C163.145 142.675 163.25 142.453 163.308 142.217C163.365 141.981 163.365 141.733 163.308 141.497C162.762 139.443 161.971 137.466 160.954 135.607C160.737 135.142 160.463 134.619 160.383 134.445C160.303 134.056 160.088 133.71 159.777 133.469C159.472 133.229 159.089 133.113 158.703 133.144C148.911 133.828 139.203 135.446 129.708 137.977C129.482 138.047 129.273 138.161 129.091 138.314C128.826 138.544 128.643 138.856 128.569 139.202C128.495 139.548 128.533 139.909 128.679 140.231C129.54 142.188 130.303 144.189 130.964 146.225C131.059 146.56 131.26 146.855 131.536 147.062C131.815 147.267 132.151 147.376 132.495 147.375C132.665 147.367 132.831 147.327 132.987 147.259ZM157.789 136.443L158.109 137.094C158.543 137.954 159.115 139.104 159.56 140.219C150.771 140.25 142.021 141.421 133.523 143.704C133.169 142.705 132.747 141.601 132.381 140.626C140.724 138.527 149.222 137.128 157.789 136.443Z" fill="#8B8FA2"/>
<path d="M196.199 138.523C188.408 134.747 178.48 132.83 166.655 132.83C166.37 132.831 166.088 132.898 165.832 133.028C165.586 133.166 165.375 133.361 165.216 133.597C165.068 133.83 164.985 134.099 164.976 134.375C164.956 134.651 165.007 134.927 165.124 135.177C167.471 141.661 169.402 148.293 170.905 155.031C170.859 155.397 170.931 155.768 171.111 156.088C171.255 156.332 171.46 156.532 171.705 156.669C171.945 156.809 172.217 156.881 172.493 156.878C188.796 156.971 198.85 160.863 198.952 160.898C199.137 160.978 199.335 161.018 199.535 161.014C199.839 161.012 200.135 160.923 200.392 160.759C200.605 160.619 200.785 160.433 200.917 160.213C201.041 159.987 201.115 159.738 201.135 159.481C201.673 152.422 200.198 145.354 196.885 139.127C196.716 138.864 196.479 138.655 196.199 138.523ZM173.921 153.626C173.647 152.15 172.996 149.652 171.762 145.261C170.905 142.275 169.797 138.616 168.94 136.106C179.028 136.339 187.596 138.058 194.371 141.241C196.807 146.17 198.049 151.619 197.993 157.134C190.168 154.837 182.065 153.667 173.921 153.66V153.626Z" fill="#8B8FA2"/>
<path d="M97.4559 174.746C96.0849 175.443 94.6683 176.094 93.263 176.71C90.4526 177.941 87.6193 179.033 84.7631 180.067C81.9069 181.101 79.0508 182.019 76.1604 182.913L71.8304 184.191L67.7061 185.353C67.1692 186.364 66.6208 187.374 66.0724 188.374C66.3175 188.285 66.5791 188.253 66.8378 188.281C67.0957 188.301 67.3456 188.38 67.569 188.513C67.7942 188.638 67.9893 188.813 68.1402 189.024C68.2968 189.234 68.406 189.476 68.4601 189.733C71.2903 203.271 73.0288 217.021 73.6584 230.847C73.6795 231.256 73.5664 231.661 73.3369 231.997C73.1073 232.334 72.7743 232.583 72.3902 232.706C57.6398 237.503 42.5493 241.142 27.2515 243.592H26.9659C26.483 243.594 26.0189 243.402 25.6749 243.057C25.4693 242.854 25.3162 242.603 25.2293 242.325C25.134 242.05 25.1066 241.755 25.1493 241.466C26.2918 232.811 27.3314 222.959 28.1197 212.178L26.0176 212.05L24.4524 211.934C24.3839 212.794 24.3268 213.653 24.2582 214.536C24.2168 214.975 24.027 215.386 23.7213 215.698C23.4146 216.008 23.0098 216.197 22.5788 216.232C16.7865 216.674 11.0628 216.848 5.5675 216.848C-7.01382 216.816 -19.5801 215.962 -32.0538 214.292C-32.35 214.246 -32.6316 214.131 -32.8764 213.955C-33.1206 213.773 -33.317 213.533 -33.4485 213.255C-33.5799 212.978 -33.6424 212.671 -33.6304 212.364C-33.6156 212.057 -33.5295 211.759 -33.3791 211.492C-31.7339 208.751 -30.363 206.358 -29.3805 204.661C-30.2602 204.487 -31.1398 204.324 -32.0081 204.139C-34.2397 207.864 -36.5247 211.558 -38.8629 215.222C-41.4449 219.241 -44.1106 223.218 -46.8601 227.153C-49.6135 231.08 -52.4239 234.96 -55.3601 238.77C-57.0509 240.92 -58.7875 243.034 -60.5469 245.137C-58.7075 245.462 -56.8681 245.764 -55.0059 246.043C-51.1444 246.601 -47.2715 247.089 -43.3871 247.484C-35.6183 248.262 -27.7924 248.715 -19.9666 248.878C-12.1407 249.04 -4.3034 248.878 3.52248 248.459C11.3484 248.041 19.2085 247.228 26.943 246.159L32.7696 245.334L38.5619 244.358C40.5041 244.056 42.4234 243.65 44.3427 243.278L47.2332 242.709L48.6841 242.418L50.1122 242.105L55.8245 240.803C56.7841 240.594 57.7324 240.339 58.6806 240.095L61.5368 239.363C65.3526 238.433 69.0999 237.26 72.87 236.191C87.3796 231.737 101.524 226.135 115.175 219.439L98.0385 174.374L97.4559 174.746ZM21.2649 243.069C21.206 243.484 21.0083 243.865 20.7051 244.149C20.393 244.447 19.9898 244.628 19.5627 244.66C8.89207 245.625 -0.796009 245.985 -9.34164 245.985C-34.5672 245.985 -49.5906 242.813 -49.7963 242.767C-50.1116 242.699 -50.4034 242.546 -50.6417 242.325C-50.8832 242.107 -51.0611 241.826 -51.1558 241.512C-51.2414 241.197 -51.2414 240.863 -51.1558 240.548C-51.0887 240.227 -50.9389 239.93 -50.7217 239.688C-47.42 235.994 -44.9408 231.44 -42.3132 226.63C-40.828 223.912 -39.3085 221.1 -37.5948 218.393C-37.4004 218.088 -37.1233 217.847 -36.7969 217.698C-36.4704 217.55 -36.1087 217.501 -35.7554 217.557C-22.1151 219.563 -8.35181 220.58 5.43041 220.601C10.9942 220.601 16.478 220.415 21.7334 220.043C21.9975 220.024 22.2627 220.063 22.5103 220.159C22.7636 220.258 22.9918 220.414 23.1777 220.615C23.3637 220.816 23.5026 221.058 23.5841 221.321C23.6749 221.573 23.71 221.843 23.687 222.111C22.9901 229.662 22.1789 236.726 21.2649 243.069ZM108.892 218.405C99.2724 222.831 89.4701 226.804 79.702 230.231C79.4337 230.323 79.1485 230.35 78.868 230.313C78.5889 230.277 78.3224 230.173 78.0911 230.011C77.8525 229.849 77.6533 229.635 77.5085 229.383C77.369 229.135 77.2906 228.856 77.2799 228.57C76.0004 206.299 73.5441 193.613 72.5502 189.187C72.5046 188.949 72.5046 188.704 72.5502 188.467C72.5872 188.223 72.6728 187.99 72.8015 187.781C72.9313 187.574 73.0979 187.392 73.2928 187.247C73.488 187.105 73.7096 187.007 73.944 186.956C81.0868 185.157 88.0165 182.574 94.6111 179.254C94.844 179.128 95.1016 179.056 95.3652 179.045C95.6261 179.035 95.8863 179.079 96.1306 179.173C96.3712 179.269 96.5892 179.415 96.7704 179.602C96.9519 179.796 97.092 180.025 97.1817 180.276L109.886 216.07C110.051 216.507 110.051 216.992 109.886 217.429C109.687 217.87 109.332 218.218 108.892 218.405Z" fill="white"/>
<path d="M-25.519 205.382C-26.2616 206.683 -27.3583 208.611 -28.7407 210.981C-12.3194 213.058 4.25343 213.614 20.7737 212.643C20.7737 212.317 20.8308 211.992 20.8536 211.667C15.4384 211.225 10.0307 210.683 4.63063 210.04C-5.45351 208.847 -15.5034 207.295 -25.519 205.382Z" fill="white"/>
<path d="M-35.127 221.402C-36.5323 223.726 -37.8232 226.049 -39.0914 228.373C-41.102 232.291 -43.3931 236.053 -45.9462 239.63C-37.9489 240.931 -14.9397 243.87 17.8262 241.036C18.5459 235.761 19.1971 229.999 19.8026 223.865C15.1299 224.156 10.2973 224.295 5.4076 224.295C-8.15321 224.278 -21.6968 223.311 -35.127 221.402Z" fill="white"/>
<path d="M58.4179 200.909C57.0355 202.93 55.5617 204.917 53.9966 206.834C52.4327 208.794 50.7173 210.623 48.8669 212.306C48.5564 212.6 48.1489 212.766 47.7244 212.77H47.6559C43.9886 212.77 40.4355 212.77 36.8367 212.573C35.1687 212.515 33.5007 212.433 31.8442 212.352C31.1244 222.215 30.2333 231.312 29.1823 239.444C43.0041 237.111 56.648 233.796 70.0139 229.523C69.3533 217.093 67.7954 204.73 65.3527 192.533L63.2734 193.23C62.9763 193.729 62.6907 194.229 62.3822 194.728C61.1141 196.819 59.8003 198.911 58.4179 200.909Z" fill="white"/>
<path d="M76.5145 190.163C78.7506 201.956 80.1783 213.892 80.7873 225.887C89.1616 222.878 97.5701 219.462 105.83 215.71L94.4055 183.517C88.6581 186.294 82.6684 188.518 76.5145 190.163Z" fill="white"/>
<path d="M204.288 152.452C204.036 149.414 203.422 146.418 202.46 143.53C201.555 140.808 200.169 138.276 198.37 136.06L197.627 135.746C197.25 135.584 196.873 135.444 196.485 135.27C195.719 134.979 194.954 134.701 194.2 134.445C192.646 133.922 191.069 133.458 189.47 133.039C186.281 132.211 183.051 131.556 179.793 131.076C173.261 130.124 166.654 129.809 160.063 130.135C159.24 130.135 158.418 130.24 157.595 130.286C156.773 130.332 155.95 130.402 155.128 130.495L152.671 130.739L150.226 131.064C149.404 131.169 148.593 131.297 147.781 131.436L145.337 131.854L142.915 132.319L141.704 132.563L140.504 132.842C135.052 134.101 129.686 135.719 124.441 137.686L124.681 138.349C125.104 139.51 125.503 140.777 125.892 142.008C126.646 144.459 127.309 146.957 127.868 149.478C128.432 152.022 128.848 154.598 129.114 157.192C129.239 158.493 129.319 159.806 129.342 161.142V162.164L131.627 161.816C133.318 161.56 135.054 161.328 136.711 161.119C140.138 160.701 143.497 160.352 146.913 160.085C153.768 159.539 160.554 159.248 167.42 159.376C174.328 159.466 181.217 160.127 188.019 161.351C191.506 161.978 194.943 162.868 198.301 164.012C200.254 164.698 202.162 165.509 204.014 166.44V166.382C204.219 164.848 204.356 163.291 204.471 161.735C204.658 158.641 204.597 155.536 204.288 152.452ZM130.953 146.248C130.45 144.587 129.296 141.601 128.668 140.254C128.574 140.04 128.525 139.808 128.525 139.574C128.525 139.34 128.574 139.108 128.668 138.895C128.766 138.678 128.91 138.488 129.091 138.337C129.267 138.182 129.473 138.068 129.696 138C139.196 135.477 148.908 133.866 158.703 133.19C159.091 133.163 159.475 133.28 159.784 133.519C160.093 133.759 160.306 134.104 160.383 134.492C160.463 134.701 160.737 135.247 160.954 135.653C161.971 137.512 162.762 139.49 163.308 141.543C163.365 141.78 163.365 142.027 163.308 142.264C163.252 142.501 163.147 142.722 162.999 142.914C162.847 143.102 162.656 143.253 162.439 143.356C162.224 143.457 161.991 143.513 161.754 143.518H161.662C145.771 143.518 135.706 146.423 132.987 147.306C132.829 147.362 132.662 147.389 132.495 147.387C132.149 147.391 131.81 147.28 131.532 147.07C131.254 146.86 131.05 146.563 130.953 146.225V146.248ZM166.735 155.728C166.585 155.953 166.381 156.133 166.141 156.251C165.902 156.379 165.633 156.435 165.364 156.414C155.399 156.116 145.429 156.793 135.591 158.435H135.18C134.843 158.435 134.509 158.368 134.198 158.238C133.892 158.106 133.613 157.917 133.375 157.68C133.139 157.437 132.952 157.149 132.827 156.832C132.699 156.515 132.633 156.176 132.632 155.833C132.634 154.535 132.492 153.241 132.21 151.976C132.126 151.582 132.183 151.17 132.37 150.814C132.561 150.467 132.869 150.203 133.238 150.071C133.695 149.896 144.925 145.958 163.753 146.341C164.095 146.346 164.426 146.461 164.699 146.67C164.972 146.879 165.173 147.171 165.273 147.503C165.832 149.548 166.324 151.639 166.712 153.718C166.79 153.839 166.855 153.967 166.906 154.102C167.012 154.355 167.051 154.631 167.021 154.904C166.991 155.18 166.893 155.444 166.735 155.67V155.728ZM201.146 159.539C201.132 159.797 201.057 160.048 200.929 160.271C200.8 160.493 200.619 160.68 200.403 160.817C200.147 160.983 199.85 161.072 199.547 161.072C199.346 161.076 199.148 161.036 198.964 160.956C198.861 160.956 188.807 157.03 172.504 156.937C172.228 156.938 171.956 156.866 171.716 156.727C171.433 156.571 171.205 156.33 171.062 156.037C170.919 155.744 170.868 155.413 170.916 155.089C170.722 153.033 166.484 138.07 165.136 135.235C165.017 134.986 164.966 134.709 164.987 134.433C164.996 134.157 165.079 133.888 165.227 133.655C165.389 133.422 165.6 133.228 165.844 133.086C166.099 132.956 166.381 132.889 166.666 132.888C178.491 132.888 188.442 134.805 196.222 138.581C196.494 138.72 196.726 138.928 196.896 139.185C200.178 145.403 201.652 152.442 201.146 159.481V159.539Z" fill="white"/>
<path d="M159.56 140.219C159.103 139.057 158.543 137.954 158.109 137.094L157.789 136.443C149.199 137.121 140.678 138.515 132.312 140.614C132.701 141.59 133.124 142.693 133.455 143.693C141.974 141.402 150.748 140.234 159.56 140.219Z" fill="white"/>
<path d="M168.94 136.13C169.797 138.627 170.905 142.287 171.75 145.273C173.018 149.676 173.647 152.162 173.921 153.637C182.064 153.674 190.163 154.847 197.993 157.122C198.047 151.611 196.806 146.166 194.371 141.241C187.596 138.116 179.051 136.35 168.94 136.13Z" fill="white"/>
<path d="M135.591 152.719C135.708 153.489 135.784 154.265 135.82 155.043C144.886 153.576 154.06 152.912 163.239 153.056C163.01 151.894 162.736 150.733 162.439 149.571C153.39 149.367 144.357 150.426 135.591 152.719Z" fill="white"/>
<path d="M71.1449 163.268L68.9742 162.92L66.8035 162.525L62.4622 161.735L58.1436 160.84C55.2646 160.271 52.4313 159.562 49.5409 158.912L45.2795 157.843L43.1317 157.308L41.0181 156.727L36.7682 155.566L32.5411 154.334C31.1244 153.928 29.7306 153.486 28.3254 153.056C26.9201 152.626 25.5149 152.185 24.1325 151.732C18.5459 149.92 13.0049 147.968 7.50967 145.923C2.2848 143.948 -2.89438 141.869 -8.02785 139.685C-8.51425 140.811 -9.06353 141.909 -9.673 142.972C-6.26084 144.32 -2.67731 145.675 1.07759 147.038C1.34019 147.135 1.57827 147.29 1.77448 147.492C1.97028 147.695 2.11829 147.94 2.20733 148.21C2.29637 148.48 2.32416 148.766 2.2886 149.048C2.25352 149.328 2.15154 149.596 1.99155 149.827C-8.45174 165.817 -20.762 180.461 -34.6701 193.439C-34.8901 193.643 -35.1574 193.787 -35.447 193.857C-35.7317 193.932 -36.0306 193.932 -36.3153 193.857C-56.1027 189.129 -76.6899 180.706 -100.487 170.947L-103.801 169.588C-104.051 169.483 -104.277 169.324 -104.463 169.123C-104.646 168.924 -104.782 168.686 -104.863 168.426C-104.952 168.165 -104.979 167.887 -104.943 167.613C-104.905 167.341 -104.812 167.08 -104.669 166.846C-103.903 165.685 -85.8525 137.489 -56.2627 121.189C-55.97 121.036 -55.6438 120.96 -55.3144 120.969C-54.9902 120.983 -54.6752 121.083 -54.4005 121.259C-54.2862 121.329 -19.8638 138.976 -8.00501 144.843C-7.70797 144.366 -5.72006 141.567 -5.37732 140.788C-7.58228 139.626 -38.3945 125.395 -40.5766 124.233C-43.1738 122.862 -45.7482 121.449 -48.2997 119.993C-49.5793 119.273 -50.8588 118.541 -52.127 117.797L-54.0235 116.635L-54.9717 116.055L-55.2802 115.88C-55.7943 116.252 -56.2855 116.589 -56.7882 116.891L-58.8561 118.053C-59.6215 118.529 -60.3984 118.912 -61.141 119.389L-63.4259 120.783C-66.3849 122.7 -69.2982 124.698 -72.0858 126.847C-77.6935 131.166 -83.0138 135.859 -88.0118 140.893C-93.0238 145.923 -97.7825 151.208 -102.27 156.727C-104.509 159.477 -106.683 162.285 -108.793 165.15C-109.844 166.579 -110.884 168.02 -111.889 169.472L-112.243 169.983C-107.262 172.423 -102.235 174.804 -97.1058 176.954C-93.8954 178.394 -90.5595 179.684 -87.2806 181.02C-85.6469 181.682 -83.9788 182.286 -82.3223 182.925C-80.6657 183.564 -79.0206 184.203 -77.3411 184.795L-72.3257 186.573C-70.6577 187.165 -68.9669 187.735 -67.2874 188.269L-64.7626 189.117L-62.2263 189.907L-57.1652 191.441C-50.3638 193.462 -43.509 195.329 -36.6009 197.04C-22.7999 200.398 -8.85042 203.139 5.22474 205.172C12.2509 206.172 19.3113 207.031 26.3946 207.682C29.921 208.015 33.4588 208.294 37.0081 208.518C40.2984 208.727 43.6115 208.89 46.879 208.96C48.3182 207.481 49.6579 205.905 50.889 204.243C52.26 202.373 53.5966 200.421 54.8419 198.434C56.0872 196.448 57.2754 194.38 58.4293 192.3C59.5831 190.221 60.7142 188.106 61.7424 185.98C63.8674 181.717 65.8667 177.372 67.7518 172.98C69.1227 169.774 70.4594 166.533 71.7047 163.291L71.1449 163.268ZM1.91157 200.316C1.74343 200.523 1.53288 200.689 1.29466 200.804C1.05584 200.909 0.800308 200.968 0.540634 200.979H0.277855C-8.86186 199.631 -18.1958 197.912 -27.5754 195.867C-27.9001 195.793 -28.1997 195.632 -28.4437 195.402C-28.6827 195.17 -28.8562 194.877 -28.9464 194.554C-29.0352 194.227 -29.0353 193.881 -28.9468 193.554C-28.8584 193.227 -28.6845 192.93 -28.4437 192.695C-21.6539 186.099 -15.2779 179.076 -9.35311 171.668C-9.11167 171.37 -8.78551 171.155 -8.41939 171.053C-8.05325 170.951 -7.66506 170.967 -7.30809 171.098C-4.32626 172.26 3.67097 175.083 13.7018 178.069C13.9661 178.146 14.2087 178.285 14.4101 178.475C14.6171 178.659 14.7777 178.89 14.8785 179.149C14.9801 179.403 15.0269 179.677 15.0156 179.951C14.9976 180.232 14.9196 180.505 14.7872 180.752C11.1268 187.681 6.81473 194.233 1.91157 200.316ZM55.7673 188.803C55.1275 189.965 54.4992 191.197 53.8366 192.533C51.8944 196.355 49.7123 200.665 46.7304 203.941C46.5716 204.126 46.3772 204.276 46.1592 204.382C45.9353 204.482 45.695 204.537 45.4509 204.545C45.3138 204.545 44.3655 204.545 42.6518 204.545C31.3502 204.427 20.0655 203.624 8.85777 202.14C8.53464 202.102 8.22715 201.978 7.96664 201.78C7.71142 201.579 7.51086 201.315 7.38398 201.013C7.25703 200.709 7.21361 200.376 7.25832 200.049C7.29272 199.721 7.41967 199.411 7.62389 199.155C11.8245 193.458 15.5832 187.437 18.8658 181.147C19.057 180.768 19.372 180.468 19.7569 180.299C20.1386 180.13 20.5655 180.097 20.9679 180.206C31.9219 183.061 43.0864 185.004 54.3507 186.015C54.6536 186.047 54.944 186.155 55.1961 186.329C55.4491 186.505 55.6568 186.74 55.8016 187.014C55.9391 187.288 56.0096 187.59 56.0072 187.897C56.0019 188.215 55.9195 188.526 55.7673 188.803ZM64.8499 168.798C64.8499 168.798 62.8163 173.55 58.692 182.588C58.5429 182.91 58.3071 183.183 58.0119 183.374C57.7166 183.565 57.3741 183.667 57.024 183.668H56.9098C47.7701 183.088 30.7931 181.996 -3.64079 168.426C-3.90536 168.317 -4.14322 168.151 -4.33768 167.938C-4.54418 167.718 -4.69683 167.451 -4.78326 167.16C-4.85197 166.878 -4.85197 166.583 -4.78326 166.3C-4.7273 166.016 -4.60593 165.749 -4.42909 165.522C0.472076 159.039 4.048 153.66 6.1844 150.28C6.40771 149.934 6.7369 149.672 7.12103 149.536C7.50516 149.399 7.9228 149.395 8.30937 149.525C11.7368 150.686 15.1642 151.848 18.7972 153.184C31.9355 157.831 46.8218 163.129 63.5132 166.196C63.7861 166.247 64.0445 166.358 64.2698 166.523C64.495 166.688 64.6815 166.901 64.8157 167.148C64.9511 167.398 65.0255 167.677 65.0327 167.962C65.0252 168.257 64.9425 168.545 64.7928 168.798H64.8499Z" fill="white"/>
<path d="M60.4743 169.483C44.4227 166.312 30.1648 161.247 17.4948 156.704C14.3531 155.542 11.3598 154.52 8.35513 153.509C6.39009 156.565 3.53393 160.805 -0.179077 165.801C30.6674 177.755 46.7762 179.242 55.8017 179.835C58.0523 174.979 59.5718 171.493 60.4743 169.483Z" fill="white"/>
<path d="M10.5029 181.02C2.50565 178.557 -3.94927 176.268 -7.30811 175.06C-12.3779 181.299 -17.7623 187.267 -23.4397 192.939C-15.6367 194.577 -7.83367 195.983 -0.224857 197.145C3.78675 192.083 7.37518 186.689 10.5029 181.02Z" fill="white"/>
<path d="M12.3538 198.818C23.0226 200.167 33.7631 200.846 44.5141 200.851C46.8805 197.748 48.9035 194.39 50.5463 190.836L51.2318 189.489C41.1678 188.491 31.1899 186.74 21.3792 184.249C18.6546 189.281 15.6409 194.146 12.3538 198.818Z" fill="white"/>
<path d="M119.345 219.811L102.951 168.577V168.461C102.831 168.083 102.641 167.732 102.391 167.427C101.861 166.778 101.1 166.368 100.273 166.287C99.4472 166.207 98.6232 166.462 97.9813 166.997C97.7507 167.188 97.5104 167.366 97.2616 167.532L96.4047 168.124C95.8107 168.508 95.2623 168.879 94.5996 169.286C93.3772 170.03 92.1205 170.75 90.8409 171.435C88.2818 172.841 85.6427 174.107 82.9693 175.315C80.296 176.524 77.5655 177.639 74.8236 178.801L70.6193 180.288L70.2766 180.416C71.1106 178.754 71.9446 177.081 72.7557 175.385C74.8693 170.994 76.8915 166.591 78.7765 162.025C78.8526 161.811 78.9062 161.589 78.9364 161.363C78.9958 160.956 78.9749 160.54 78.8748 160.142C78.7748 159.743 78.5977 159.368 78.3538 159.039C78.1108 158.713 77.8082 158.437 77.4627 158.226C77.1118 158.018 76.7232 157.883 76.3202 157.831L72.0474 157.227L69.9338 156.925L67.7974 156.576L63.536 155.868L59.2861 155.055C56.4528 154.555 53.6423 153.893 50.8204 153.324L46.5933 152.336L44.4912 151.871L42.3891 151.337L38.1848 150.28L34.0034 149.118C32.6324 148.746 31.2272 148.34 29.8334 147.956C28.4395 147.573 27.0572 147.155 25.6748 146.725C20.1453 145.04 14.6614 143.239 9.17761 141.288C3.94513 139.417 -6.41703 135.34 -11.581 133.272C-12.0494 134.747 -11.0097 136.443 -11.581 137.849C-6.43988 140.021 2.33427 143.96 7.5439 145.981C13.0506 148.026 18.5801 149.978 24.1667 151.79C25.5377 152.255 26.9658 152.673 28.3596 153.114C29.7534 153.556 31.1586 153.986 32.5753 154.392L36.8024 155.635L41.0524 156.797L43.1774 157.378L45.3138 157.912L49.5866 158.993C52.4541 159.632 55.2989 160.352 58.1893 160.91L62.4964 161.804L66.8378 162.606L69.0084 163.001L71.1906 163.349L71.7504 163.442C70.5051 166.684 69.1684 169.925 67.7974 173.131C65.9124 177.511 63.913 181.856 61.7881 186.12C60.7256 188.257 59.6174 190.36 58.4749 192.451C57.3325 194.542 56.19 196.575 54.899 198.574C53.608 200.572 52.3285 202.524 50.9347 204.382C49.7008 206.046 48.3612 207.625 46.9246 209.111C43.6686 209.041 40.344 208.878 37.0537 208.669C33.5121 208.437 29.9743 208.158 26.4402 207.833C19.3684 207.182 12.308 206.323 5.27038 205.312C-8.79335 203.302 -22.7428 200.56 -36.5438 197.18C-43.4443 195.476 -50.299 193.609 -57.1081 191.58L-62.1693 190L-64.7055 189.21L-67.2304 188.362C-68.9098 187.804 -70.6006 187.2 -72.28 186.666L-77.3069 184.888C-78.9863 184.307 -80.6429 183.668 -82.2995 183.018C-83.956 182.367 -85.6126 181.775 -87.2577 181.113C-90.5366 179.777 -93.8383 178.487 -97.0715 177.046C-102.19 174.886 -107.205 172.504 -112.221 170.076L-111.866 169.565C-110.861 168.113 -109.821 166.672 -108.77 165.243C-106.653 162.385 -104.475 159.578 -102.235 156.82C-97.7554 151.298 -93.0003 146.013 -87.9889 140.986C-82.9885 135.954 -77.6684 131.262 -72.063 126.94C-69.2639 124.779 -66.3506 122.781 -63.3917 120.876L-61.1067 119.482C-60.3641 119.017 -59.5873 118.599 -58.8218 118.146L-56.7426 116.984C-56.2399 116.682 -55.7486 116.345 -55.2345 115.973L-54.9374 116.147L-53.9892 116.728L-52.0813 117.89C-50.8246 118.634 -49.545 119.365 -48.2655 120.086C-45.7063 121.538 -43.1244 122.944 -40.5424 124.326C-38.3374 125.488 -9.09037 139.429 -5.8115 140.44C-5.44209 139.133 -5.14459 137.807 -4.92038 136.467C-7.02251 135.444 -36.6009 121.77 -38.6802 120.713C-41.2622 119.4 -43.8327 118.041 -46.3918 116.659L-50.1962 114.556L-52.0813 113.475L-52.9953 112.941L-53.4523 112.662L-53.6922 112.523H-53.7493L-54.0578 112.36C-54.2814 112.266 -54.5154 112.2 -54.7546 112.163C-55.7829 112.511 -56.8454 112.918 -57.885 113.324L-58.6619 113.673L-59.0503 113.847L-59.3588 114.01L-60.5812 114.626C-61.3924 115.044 -62.2264 115.427 -63.0147 115.88L-65.4138 117.205C-68.5785 119.04 -71.6974 120.945 -74.6906 123.013C-80.6948 127.171 -86.4198 131.732 -91.8276 136.664C-97.2419 141.581 -102.405 146.777 -107.297 152.231C-109.741 154.95 -112.125 157.73 -114.448 160.573C-115.614 162.006 -116.756 163.446 -117.876 164.895L-119.555 167.102C-120.115 167.857 -120.641 168.577 -121.223 169.425L-121.292 169.542C-121.398 169.705 -121.493 169.876 -121.577 170.053C-121.787 170.525 -121.907 171.034 -121.932 171.551C-121.944 172.069 -121.863 172.585 -121.692 173.073C-121.327 174.053 -120.602 174.849 -119.669 175.292C-113.1 178.359 -106.508 181.357 -99.7677 184.017C-96.4317 185.423 -93.0272 186.631 -89.6569 187.92C-87.9546 188.548 -86.2295 189.082 -84.5501 189.733C-82.8707 190.383 -81.1227 190.895 -79.4319 191.487L-74.2794 193.183C-72.5657 193.729 -70.852 194.24 -69.1154 194.775L-66.5334 195.565L-63.9286 196.308L-58.7304 197.784C-51.7766 199.643 -44.7847 201.354 -37.7548 202.919L-35.824 203.314C-37.9604 206.45 -40.1654 209.564 -42.3932 212.608C-45.1656 216.426 -48.0027 220.19 -50.9045 223.9C-53.8064 227.618 -56.7997 231.231 -59.8729 234.774C-62.9461 238.317 -66.1222 241.744 -69.4239 244.893L-69.5039 244.986C-69.9286 245.432 -70.2283 245.985 -70.3721 246.589C-70.5073 247.196 -70.4877 247.828 -70.315 248.424C-70.1259 249.008 -69.7885 249.53 -69.3371 249.938C-68.8857 250.346 -68.3362 250.625 -67.7444 250.748C-66.6705 250.98 -65.7109 251.166 -64.6941 251.34C-63.6773 251.515 -62.7062 251.689 -61.7122 251.852C-59.7244 252.177 -57.7365 252.456 -55.7486 252.723C-51.7728 253.234 -47.7514 253.664 -43.8213 253.989C-35.824 254.663 -27.8268 254.977 -19.8296 255C-11.8323 255.023 -3.83506 254.733 4.09364 254.152C12.0223 253.571 19.9739 252.642 27.8683 251.457L33.7749 250.527L39.6586 249.366C41.6236 249.029 43.5658 248.587 45.5079 248.204L48.4441 247.576L49.9064 247.263L51.3574 246.903L57.1611 245.508C58.1436 245.288 59.0919 245.009 60.063 244.742L62.942 243.94C66.8035 242.941 70.5965 241.617 74.3666 240.525C89.5417 235.583 104.297 229.398 118.489 222.029C118.878 221.83 119.186 221.496 119.357 221.088C119.493 220.673 119.489 220.223 119.345 219.811ZM72.9043 236.226C69.1341 237.307 65.3754 238.48 61.5596 239.398L58.7148 240.13C57.7552 240.374 56.8069 240.641 55.8473 240.838L50.1349 242.139L48.6954 242.465L47.2559 242.744L44.3655 243.313C42.4462 243.696 40.5268 244.091 38.5846 244.405L32.7809 245.369L26.9658 246.206C19.1856 247.228 11.3597 248.006 3.56812 248.448C-4.22349 248.889 -12.0951 249.029 -19.9209 248.878C-27.7468 248.727 -35.5727 248.262 -43.3414 247.472C-47.2334 247.077 -51.1102 246.597 -54.9717 246.031C-56.7997 245.752 -58.6504 245.45 -60.5012 245.125C-58.7304 243.034 -56.9939 240.908 -55.3145 238.759C-52.3783 234.948 -49.6021 231.068 -46.8145 227.141C-44.0269 223.214 -41.4221 219.206 -38.8173 215.198C-36.4752 211.539 -34.1789 207.868 -31.9625 204.127L-29.3348 204.65L-25.519 205.382C-15.5186 207.279 -5.46878 208.828 4.6306 210.029C10.023 210.656 15.4383 211.19 20.8422 211.643C22.0646 211.748 23.287 211.829 24.5209 211.911L26.0861 212.027C26.783 212.085 27.4799 212.108 28.1768 212.155L31.8441 212.375L36.8481 212.608C40.4469 212.735 44.0114 212.828 47.6672 212.794H47.7701C48.1954 212.794 48.6045 212.627 48.9125 212.329C50.75 210.623 52.4536 208.774 54.0079 206.799C55.5731 204.882 57.0354 202.895 58.4292 200.874C59.823 198.853 61.1254 196.785 62.3936 194.693C62.702 194.194 62.9876 193.694 63.2847 193.195C64.2329 191.592 65.1698 189.977 66.0723 188.362C66.6321 187.363 67.2148 186.352 67.7061 185.341L71.8418 184.18L76.1717 182.902C79.0507 182.007 81.884 181.089 84.7745 180.055C87.6649 179.021 90.4868 177.929 93.2744 176.698C94.6796 176.082 96.0734 175.432 97.4672 174.735L98.1184 174.398L115.255 219.45C101.595 226.168 87.4339 231.778 72.9043 236.226Z" fill="black"/>
<path d="M206.47 141.927C205.16 138.694 203.256 135.745 200.86 133.237C200.72 133.084 200.553 132.958 200.369 132.865C199.912 132.633 199.535 132.458 199.124 132.284C198.713 132.11 198.324 131.924 197.913 131.761C197.113 131.425 196.302 131.099 195.491 130.82C193.857 130.216 192.212 129.659 190.555 129.206C187.248 128.245 183.892 127.47 180.502 126.882C173.71 125.704 166.825 125.179 159.937 125.314C159.08 125.314 158.224 125.383 157.355 125.407C156.487 125.43 155.642 125.476 154.773 125.546L152.203 125.732L149.632 125.988C148.775 126.069 147.93 126.185 147.073 126.301L144.514 126.661L141.966 127.091L140.698 127.312L139.43 127.567C132.669 128.914 126.019 130.786 119.54 133.167L119.403 133.225C118.683 133.535 118.114 134.122 117.818 134.858C117.523 135.594 117.526 136.418 117.826 137.152V137.268C118.055 137.733 118.283 138.325 118.534 138.871C118.786 139.417 119.003 140.033 119.243 140.544C119.7 141.706 120.122 142.798 120.534 143.937C121.356 146.26 122.076 148.584 122.704 150.907C123.333 153.222 123.825 155.573 124.178 157.947C124.35 159.109 124.475 160.271 124.555 161.433C124.555 162.013 124.612 162.594 124.612 163.175V164.488C124.681 165.305 124.923 166.098 125.321 166.811C125.808 167.126 126.366 167.31 126.943 167.346H127.606H127.743H127.903L128.508 167.253L129.731 167.067L132.21 166.73C133.866 166.509 135.523 166.324 137.191 166.149C140.515 165.812 143.851 165.534 147.199 165.336C153.871 164.941 160.566 164.802 167.215 165.057C173.814 165.218 180.389 165.921 186.877 167.16C190.048 167.802 193.168 168.683 196.21 169.797C199.149 170.875 201.941 172.332 204.516 174.13L204.779 174.293C205.289 174.609 205.879 174.763 206.475 174.736C207.071 174.709 207.646 174.502 208.126 174.142C208.453 173.906 208.729 173.605 208.939 173.258C209.149 172.91 209.289 172.524 209.349 172.121C209.429 171.621 209.475 171.226 209.532 170.796L209.669 169.518C209.749 168.682 209.817 167.834 209.863 166.997C209.966 165.313 210.011 163.628 210 161.955C210 158.574 209.737 155.198 209.212 151.86C208.692 148.449 207.771 145.114 206.47 141.927ZM204.402 161.677C204.311 163.233 204.173 164.778 203.945 166.324C203.951 166.334 203.954 166.346 203.954 166.358C203.954 166.371 203.951 166.383 203.945 166.393C202.098 165.453 200.189 164.641 198.233 163.965C194.876 162.813 191.439 161.92 187.951 161.293C181.132 160.086 174.227 159.445 167.306 159.376C160.451 159.26 153.597 159.539 146.742 160.085C143.314 160.352 139.887 160.701 136.551 161.13C134.849 161.34 133.124 161.572 131.467 161.816L129.182 162.164V161.142C129.182 159.818 129.079 158.493 128.954 157.192C128.683 154.598 128.264 152.022 127.697 149.478C127.137 146.957 126.486 144.471 125.72 142.02C125.343 140.788 124.944 139.568 124.509 138.349L124.27 137.686C129.517 135.724 134.882 134.106 140.333 132.842L141.544 132.563L142.755 132.319L145.177 131.854L147.61 131.448C148.421 131.308 149.232 131.169 150.055 131.076L152.5 130.751L154.968 130.495C155.779 130.402 156.601 130.344 157.424 130.298C158.246 130.251 159.069 130.17 159.892 130.147C166.482 129.823 173.089 130.134 179.622 131.076C182.884 131.555 186.118 132.214 189.31 133.051C190.898 133.469 192.486 133.922 194.028 134.445C194.79 134.716 195.552 134.995 196.313 135.282C196.69 135.433 197.067 135.572 197.456 135.746L198.198 136.072C200.001 138.281 201.388 140.809 202.288 143.53C203.247 146.419 203.864 149.415 204.128 152.452C204.466 155.526 204.558 158.623 204.402 161.711V161.677Z" fill="black"/>
<path d="M1.77452 147.491C1.9719 147.693 2.12016 147.939 2.20744 148.209C2.29472 148.48 2.31862 148.767 2.27721 149.048C2.24097 149.326 2.14333 149.592 1.99158 149.827C-8.44576 165.821 -20.7566 180.466 -34.6701 193.439C-34.8942 193.637 -35.1603 193.78 -35.4476 193.856C-35.7349 193.933 -36.0357 193.941 -36.3266 193.88C-56.1141 189.152 -76.6785 180.718 -100.487 170.959L-103.812 169.6C-104.061 169.491 -104.287 169.333 -104.475 169.135C-104.657 168.936 -104.794 168.697 -104.874 168.438C-104.954 168.175 -104.977 167.898 -104.943 167.625C-104.911 167.351 -104.817 167.089 -104.669 166.858C-103.915 165.696 -85.8753 137.5 -56.2626 121.201C-55.975 121.046 -55.651 120.973 -55.3258 120.992C-54.9976 121.005 -54.6785 121.105 -54.4004 121.282C-54.2862 121.352 -22.4114 136.722 -9.67296 142.984C-10.3034 144.072 -11.0098 145.112 -11.7865 146.097C-22.5828 140.811 -53.3379 126.348 -55.4401 125.012C-79.4318 138.511 -95.7919 160.468 -100.316 166.997L-99.1165 167.497C-75.8216 177.046 -55.7028 185.306 -36.418 190.012C-23.6044 177.942 -12.1825 164.429 -2.37263 149.734C-5.16786 148.696 -7.86406 147.67 -10.4613 146.655C-9.83291 145.609 -9.20454 144.564 -8.56477 143.518L-9.70723 142.972C-6.29507 144.32 -2.71154 145.675 1.04336 147.038C1.31821 147.13 1.56845 147.285 1.77452 147.491Z" fill="#8B8FA2"/>
</g>
<g opacity="0.05" clip-path="url(#clip1_2808_10304)">
<path d="M306.575 101.247C306.71 101.524 306.905 101.766 307.146 101.955C307.394 102.141 307.686 102.257 307.992 102.292C320.466 103.963 333.032 104.816 345.613 104.848C351.12 104.848 356.821 104.674 362.613 104.232C363.053 104.205 363.467 104.015 363.779 103.698C364.09 103.382 364.277 102.96 364.304 102.513C364.372 101.63 364.441 100.77 364.51 99.9107C363.287 99.8293 362.065 99.748 360.831 99.6434L360.762 100.619C344.234 101.593 327.654 101.037 311.225 98.958C312.607 96.6345 313.716 94.6828 314.435 93.3584C313.167 93.1144 311.888 92.8936 310.62 92.6148C309.648 94.3342 308.277 96.7042 306.621 99.4459C306.46 99.7155 306.37 100.022 306.358 100.337C306.346 100.652 306.413 100.965 306.552 101.247H306.575Z" fill="#8B8FA2"/>
<path d="M361.722 108.031C356.467 108.403 350.983 108.601 345.419 108.601C331.636 108.578 317.872 107.553 304.233 105.533C303.881 105.474 303.519 105.523 303.193 105.673C302.87 105.823 302.596 106.065 302.405 106.37C300.68 109.088 299.161 111.888 297.675 114.607C295.059 119.44 292.569 123.994 289.267 127.665C289.052 127.909 288.902 128.205 288.833 128.525C288.747 128.84 288.747 129.173 288.833 129.489C288.932 129.801 289.109 130.081 289.347 130.302C289.585 130.523 289.877 130.675 290.192 130.744C290.398 130.744 305.433 133.973 330.658 133.973C339.181 133.973 348.881 133.601 359.551 132.637C359.977 132.609 360.38 132.432 360.694 132.138C360.999 131.851 361.197 131.465 361.254 131.046C362.167 124.714 362.979 117.651 363.664 110.053C363.694 109.783 363.663 109.51 363.574 109.255C363.485 108.999 363.34 108.767 363.15 108.577C362.966 108.38 362.739 108.228 362.487 108.136C362.24 108.039 361.975 108 361.711 108.02L361.722 108.031ZM357.838 129.071C325.083 131.905 302.028 128.966 294.065 127.665C296.622 124.091 298.913 120.328 300.92 116.407C302.177 114.084 303.479 111.76 304.884 109.437C318.318 111.353 331.865 112.331 345.43 112.365C350.32 112.365 355.153 112.214 359.825 111.935C359.209 118.034 358.546 123.796 357.838 129.071Z" fill="#8B8FA2"/>
<path d="M335.148 55.16C335.228 55.4399 335.368 55.698 335.56 55.9151C335.754 56.1276 335.992 56.2941 336.256 56.4031C370.702 69.9723 387.667 71.0644 396.807 71.6452H396.921C397.269 71.6455 397.61 71.5448 397.904 71.3548C398.201 71.1622 398.438 70.8884 398.589 70.5648C402.714 61.5264 404.736 56.8213 404.747 56.7748C404.861 56.5158 404.916 56.2337 404.907 55.95C404.896 55.6641 404.818 55.3852 404.679 55.1367C404.548 54.8897 404.364 54.6755 404.142 54.5094C403.913 54.3445 403.652 54.2334 403.376 54.1841C386.696 51.1403 371.776 45.866 358.672 41.219C355.039 39.9294 351.6 38.7212 348.184 37.5594C347.797 37.4302 347.38 37.4343 346.995 37.5708C346.611 37.7073 346.282 37.9687 346.059 38.3146C343.922 41.6953 340.346 47.0742 335.445 53.5568C335.276 53.7917 335.159 54.0613 335.103 54.3467C335.061 54.6181 335.077 54.8952 335.148 55.16ZM348.389 41.521C351.348 42.5318 354.353 43.5889 357.529 44.7042C370.199 49.1886 384.48 54.2654 400.509 57.4835C399.595 59.5282 398.064 63.025 395.836 67.9392C386.856 67.3351 370.805 65.8481 339.855 53.9053C343.58 48.8981 346.436 44.6113 348.401 41.6024L348.389 41.521Z" fill="#8B8FA2"/>
<path d="M354.913 67.1957C354.809 66.9378 354.649 66.7075 354.444 66.5219C354.24 66.3359 353.998 66.1971 353.736 66.1153C343.705 63.0831 335.708 60.2019 332.726 59.1448C332.369 59.0135 331.981 58.9977 331.615 59.0996C331.249 59.2015 330.923 59.4161 330.681 59.714C324.731 67.111 318.337 74.1259 311.534 80.7185C311.294 80.9548 311.121 81.2514 311.031 81.5782C310.941 81.9062 310.941 82.253 311.032 82.5808C311.123 82.9086 311.3 83.2048 311.545 83.437C311.789 83.6676 312.088 83.828 312.413 83.9017C321.781 85.9347 331.15 87.6542 340.255 89.0018H340.518C340.783 89.0022 341.044 88.9427 341.283 88.8275C341.517 88.7099 341.726 88.5483 341.9 88.3512C346.814 82.2769 351.137 75.7328 354.81 68.8105C354.938 68.5654 355.015 68.2968 355.039 68.0206C355.062 67.7393 355.019 67.4565 354.913 67.1957ZM339.787 85.1331C332.178 83.9714 324.386 82.5773 316.572 80.9276C322.249 75.2553 327.634 69.2875 332.703 63.0482C336.051 64.2681 342.529 66.5335 350.503 69.008C347.389 74.6837 343.804 80.0784 339.787 85.1331Z" fill="#8B8FA2"/>
<path d="M394.339 74.0268C384.925 73.0393 372.632 71.4942 360.945 68.2181C360.543 68.1103 360.117 68.1434 359.735 68.312C359.354 68.4806 359.04 68.7749 358.843 69.1474C355.566 75.4402 351.807 81.4612 347.601 87.1546C347.408 87.4214 347.282 87.7327 347.235 88.0608C347.192 88.3879 347.235 88.7208 347.361 89.0251C347.488 89.3269 347.689 89.5908 347.944 89.7918C348.207 89.9853 348.513 90.109 348.835 90.1519C360.046 91.6364 371.335 92.4394 382.64 92.5568C384.343 92.5568 385.291 92.5568 385.428 92.5568C385.673 92.5458 385.914 92.4866 386.136 92.3825C386.358 92.2822 386.556 92.1357 386.719 91.9526C389.678 88.6881 391.872 84.3548 393.814 80.5442C394.488 79.2314 395.116 77.9884 395.744 76.8151C395.89 76.5433 395.972 76.2412 395.984 75.9321C395.986 75.6217 395.915 75.3153 395.779 75.0375C395.635 74.7657 395.432 74.5312 395.185 74.3521C394.932 74.1801 394.642 74.0725 394.339 74.0384V74.0268ZM390.558 78.79C388.907 82.339 386.884 85.6965 384.525 88.8043C373.791 88.8124 363.065 88.1489 352.411 86.8177C355.676 82.1269 358.671 77.247 361.379 72.2029C371.177 74.698 381.144 76.4493 391.197 77.4424L390.558 78.79Z" fill="#8B8FA2"/>
<path d="M437.456 62.7463C436.085 63.4433 434.668 64.0938 433.263 64.7095C430.453 65.941 427.619 67.0331 424.763 68.067C421.907 69.101 419.051 70.0188 416.16 70.9133L411.83 72.1912L407.706 73.353C407.169 74.3637 406.621 75.3745 406.072 76.3736C406.318 76.2851 406.579 76.2533 406.838 76.2806C407.096 76.301 407.346 76.3804 407.569 76.513C407.794 76.6383 407.989 76.8129 408.14 77.0242C408.297 77.2336 408.406 77.4755 408.46 77.7328C411.29 91.2709 413.029 105.021 413.658 118.847C413.679 119.256 413.566 119.661 413.337 119.997C413.107 120.334 412.774 120.583 412.39 120.706C397.64 125.503 382.549 129.142 367.251 131.592H366.966C366.483 131.594 366.019 131.402 365.675 131.057C365.469 130.854 365.316 130.603 365.229 130.325C365.134 130.05 365.107 129.755 365.149 129.466C366.292 120.811 367.331 110.959 368.12 100.178L366.018 100.05L364.452 99.9339C364.384 100.794 364.327 101.653 364.258 102.536C364.217 102.975 364.027 103.386 363.721 103.698C363.415 104.008 363.01 104.197 362.579 104.232C356.787 104.674 351.063 104.848 345.567 104.848C332.986 104.816 320.42 103.962 307.946 102.292C307.65 102.246 307.368 102.131 307.124 101.955C306.879 101.773 306.683 101.533 306.552 101.255C306.42 100.978 306.358 100.671 306.37 100.364C306.384 100.057 306.471 99.7585 306.621 99.4924C308.266 96.7507 309.637 94.3575 310.62 92.6614C309.74 92.4871 308.86 92.3244 307.992 92.1386C305.76 95.8639 303.475 99.5582 301.137 103.222C298.555 107.241 295.889 111.218 293.14 115.153C290.387 119.08 287.576 122.96 284.64 126.77C282.949 128.92 281.213 131.034 279.453 133.137C281.292 133.462 283.132 133.764 284.994 134.043C288.856 134.601 292.729 135.089 296.613 135.484C304.382 136.262 312.208 136.715 320.033 136.878C327.859 137.04 335.697 136.878 343.522 136.459C351.348 136.041 359.209 135.228 366.943 134.159L372.77 133.334L378.562 132.358C380.504 132.056 382.423 131.65 384.343 131.278L387.233 130.709L388.684 130.418L390.112 130.105L395.824 128.803C396.784 128.594 397.732 128.339 398.681 128.095L401.537 127.363C405.353 126.433 409.1 125.26 412.87 124.191C427.38 119.737 441.524 114.135 455.175 107.439L438.039 62.3745L437.456 62.7463ZM361.265 131.069C361.206 131.484 361.008 131.865 360.705 132.149C360.393 132.447 359.99 132.628 359.563 132.66C348.892 133.625 339.204 133.985 330.658 133.985C305.433 133.985 290.409 130.813 290.204 130.767C289.888 130.699 289.597 130.546 289.358 130.325C289.117 130.107 288.939 129.826 288.844 129.512C288.759 129.197 288.759 128.863 288.844 128.548C288.911 128.227 289.061 127.93 289.278 127.688C292.58 123.994 295.059 119.44 297.687 114.63C299.172 111.912 300.692 109.1 302.405 106.393C302.6 106.088 302.877 105.847 303.203 105.698C303.53 105.55 303.891 105.501 304.245 105.557C317.885 107.563 331.648 108.58 345.43 108.601C350.994 108.601 356.478 108.415 361.733 108.043C361.998 108.024 362.263 108.063 362.51 108.159C362.764 108.258 362.992 108.414 363.178 108.615C363.364 108.816 363.503 109.058 363.584 109.321C363.675 109.573 363.71 109.843 363.687 110.111C362.99 117.662 362.179 124.726 361.265 131.069ZM448.892 106.405C439.272 110.831 429.47 114.804 419.702 118.231C419.434 118.323 419.148 118.35 418.868 118.313C418.589 118.277 418.322 118.173 418.091 118.011C417.853 117.849 417.653 117.635 417.508 117.383C417.369 117.135 417.291 116.856 417.28 116.57C416 94.2994 413.544 81.6131 412.55 77.1868C412.505 76.949 412.505 76.7044 412.55 76.4665C412.587 76.2231 412.673 75.9898 412.801 75.7811C412.931 75.5735 413.098 75.3923 413.293 75.2466C413.488 75.1055 413.71 75.0066 413.944 74.9562C421.087 73.1568 428.016 70.5742 434.611 67.2538C434.844 67.1278 435.102 67.0564 435.365 67.0447C435.626 67.0351 435.886 67.0786 436.131 67.1725C436.371 67.2685 436.589 67.415 436.77 67.6024C436.952 67.7956 437.092 68.025 437.182 68.2761L449.886 104.07C450.051 104.507 450.051 104.992 449.886 105.429C449.687 105.87 449.332 106.218 448.892 106.405Z" fill="white"/>
<path d="M314.481 93.3816C313.738 94.6828 312.642 96.6112 311.259 98.9812C327.681 101.058 344.253 101.614 360.774 100.643C360.774 100.317 360.831 99.992 360.854 99.6667C355.438 99.2252 350.031 98.683 344.631 98.0402C334.546 96.8475 324.497 95.2946 314.481 93.3816Z" fill="white"/>
<path d="M304.873 109.402C303.468 111.726 302.177 114.049 300.909 116.373C298.898 120.291 296.607 124.053 294.054 127.63C302.051 128.931 325.06 131.87 357.826 129.036C358.546 123.761 359.197 117.999 359.803 111.865C355.13 112.156 350.297 112.295 345.408 112.295C331.847 112.278 318.303 111.311 304.873 109.402Z" fill="white"/>
<path d="M411.145 51.2681L408.974 50.9195L406.804 50.5246L402.462 49.7346L398.144 48.84C395.265 48.2708 392.431 47.5621 389.541 46.9116L385.28 45.8427L383.132 45.3083L381.018 44.7275L376.768 43.5657L372.541 42.3343C371.124 41.9276 369.731 41.4861 368.325 41.0563C366.92 40.6264 365.515 40.185 364.133 39.7319C358.546 37.9195 353.005 35.9678 347.51 33.9231C342.285 31.9481 337.106 29.8686 331.972 27.6845C331.486 28.8114 330.936 29.9091 330.327 30.9723C333.739 32.3199 337.323 33.6753 341.078 35.0384C341.34 35.1348 341.578 35.2896 341.774 35.4915C341.97 35.6946 342.118 35.9403 342.207 36.2099C342.296 36.4795 342.324 36.7661 342.289 37.0482C342.254 37.3284 342.152 37.5957 341.992 37.8266C331.548 53.8166 319.238 68.4607 305.33 81.4388C305.11 81.6428 304.843 81.7867 304.553 81.857C304.268 81.9323 303.969 81.9323 303.685 81.857C283.897 77.1287 263.31 68.706 239.513 58.9473L236.199 57.5881C235.949 57.4828 235.723 57.3244 235.537 57.1233C235.354 56.924 235.218 56.6859 235.137 56.4263C235.048 56.1652 235.021 55.8868 235.057 55.6131C235.095 55.3408 235.188 55.0795 235.331 54.8463C236.097 53.6845 254.148 25.4888 283.737 9.18945C284.03 9.03574 284.356 8.95981 284.686 8.96871C285.01 8.98339 285.325 9.08347 285.6 9.25915C285.714 9.32885 320.136 26.9758 331.995 32.8427C332.292 32.3664 334.28 29.5666 334.623 28.7882C332.418 27.6264 301.605 13.395 299.423 12.2332C296.826 10.8624 294.252 9.44894 291.7 7.99288C290.421 7.27259 289.141 6.54067 287.873 5.79715L285.977 4.6354L285.028 4.05452L284.72 3.88023C284.206 4.25199 283.714 4.5889 283.212 4.89095L281.144 6.0527C280.378 6.52902 279.602 6.91243 278.859 7.38875L276.574 8.78286C273.615 10.6998 270.702 12.6979 267.914 14.8472C262.306 19.1664 256.986 23.8586 251.988 28.8928C246.976 33.9233 242.217 39.2083 237.73 44.7275C235.491 47.4769 233.317 50.2845 231.207 53.1502C230.156 54.5791 229.116 56.0196 228.111 57.4718L227.757 57.983C232.738 60.4227 237.765 62.8043 242.894 64.9535C246.105 66.3941 249.441 67.6836 252.719 69.0196C254.353 69.6818 256.021 70.286 257.678 70.9249C259.334 71.5639 260.979 72.2029 262.659 72.7953L267.674 74.5729C269.342 75.1654 271.033 75.7346 272.713 76.269L275.237 77.1171L277.774 77.9071L282.835 79.4406C289.636 81.462 296.491 83.3285 303.399 85.0402C317.2 88.3976 331.15 91.1394 345.225 93.1724C352.251 94.1715 359.311 95.0313 366.395 95.6819C369.921 96.0149 373.459 96.2937 377.008 96.5183C380.298 96.7274 383.612 96.8901 386.879 96.9598C388.318 95.4808 389.658 93.905 390.889 92.243C392.26 90.3726 393.597 88.4209 394.842 86.4343C396.087 84.4477 397.275 82.3798 398.429 80.3003C399.583 78.2207 400.714 76.1064 401.742 73.9804C403.867 69.7167 405.867 65.3718 407.752 60.9804C409.123 57.7739 410.459 54.5326 411.705 51.2913L411.145 51.2681ZM341.912 88.3163C341.743 88.5228 341.533 88.6894 341.295 88.8043C341.056 88.9086 340.8 88.9676 340.541 88.9785H340.278C331.138 87.6309 321.804 85.9116 312.425 83.8669C312.1 83.7926 311.8 83.6323 311.556 83.4021C311.317 83.1701 311.144 82.8773 311.054 82.5541C310.965 82.227 310.965 81.8814 311.053 81.5542C311.142 81.227 311.316 80.9302 311.556 80.6952C318.346 74.0989 324.722 67.0759 330.647 59.6676C330.888 59.3697 331.214 59.1551 331.581 59.0532C331.947 58.9512 332.335 58.967 332.692 59.0983C335.674 60.2601 343.671 63.0831 353.702 66.0688C353.966 66.1458 354.209 66.2851 354.41 66.4754C354.617 66.6586 354.778 66.8897 354.879 67.1492C354.98 67.4034 355.027 67.6768 355.016 67.9509C354.998 68.2318 354.92 68.5053 354.787 68.7525C351.127 75.6813 346.815 82.2332 341.912 88.3163ZM395.767 76.8034C395.128 77.9651 394.499 79.1966 393.837 80.5326C391.894 84.3548 389.712 88.6648 386.73 91.941C386.572 92.1262 386.377 92.2765 386.159 92.3825C385.935 92.4817 385.695 92.5369 385.451 92.5451C385.314 92.5451 384.366 92.5451 382.652 92.5451C371.35 92.4269 360.065 91.6238 348.858 90.1403C348.535 90.1025 348.227 89.9782 347.967 89.7801C347.711 89.5791 347.511 89.3153 347.384 89.0134C347.257 88.7095 347.214 88.3762 347.258 88.0491C347.293 87.7213 347.42 87.4106 347.624 87.1546C351.825 81.4576 355.583 75.4371 358.866 69.1474C359.057 68.7681 359.372 68.4683 359.757 68.2994C360.139 68.1299 360.566 68.0971 360.968 68.2064C371.922 71.0612 383.086 73.0039 394.351 74.0152C394.654 74.0474 394.944 74.1552 395.196 74.3289C395.449 74.5046 395.657 74.7397 395.802 75.0143C395.939 75.2875 396.01 75.5903 396.007 75.8972C396.002 76.2147 395.919 76.526 395.767 76.8034ZM404.85 56.798C404.85 56.798 402.816 61.5496 398.692 70.5881C398.543 70.9101 398.307 71.1825 398.012 71.3738C397.717 71.565 397.374 71.6672 397.024 71.6685H396.91C387.77 71.0876 370.793 69.9956 336.359 56.4263C336.095 56.3174 335.857 56.1508 335.662 55.9383C335.456 55.718 335.303 55.4514 335.217 55.16C335.148 54.8777 335.148 54.5826 335.217 54.3003C335.273 54.016 335.394 53.7493 335.571 53.5219C340.472 47.0394 344.048 41.6604 346.184 38.2797C346.408 37.9338 346.737 37.6724 347.121 37.5359C347.505 37.3994 347.923 37.3954 348.309 37.5246C351.737 38.6863 355.164 39.848 358.797 41.1841C371.936 45.8311 386.822 51.1287 403.513 54.1957C403.786 54.2465 404.045 54.3583 404.27 54.5231C404.495 54.6878 404.681 54.9014 404.816 55.1483C404.951 55.3978 405.025 55.6767 405.033 55.9616C405.025 56.2568 404.943 56.545 404.793 56.798H404.85Z" fill="white"/>
<path d="M400.474 57.4835C384.423 54.3119 370.165 49.2467 357.495 44.7042C354.353 43.5424 351.36 42.5201 348.355 41.5094C346.39 44.5648 343.534 48.8052 339.821 53.8007C370.667 65.7552 386.776 67.2422 395.802 67.8346C398.052 62.9785 399.572 59.4933 400.474 57.4835Z" fill="white"/>
<path d="M350.503 69.0197C342.506 66.5567 336.051 64.2681 332.692 63.0599C327.622 69.2991 322.238 75.2669 316.56 80.9392C324.363 82.5773 332.166 83.983 339.775 85.1448C343.787 80.0832 347.375 74.6893 350.503 69.0197Z" fill="white"/>
<path d="M352.354 86.8177C363.023 88.1669 373.763 88.8459 384.514 88.8507C386.881 85.7481 388.903 82.3898 390.546 78.8365L391.232 77.4888C381.168 76.491 371.19 74.7398 361.379 72.2493C358.655 77.2815 355.641 82.146 352.354 86.8177Z" fill="white"/>
<path d="M459.345 107.811L442.951 56.5773V56.4611C442.831 56.0832 442.641 55.7322 442.391 55.4271C441.861 54.7776 441.1 54.3679 440.273 54.2874C439.447 54.2068 438.623 54.462 437.981 54.9973C437.751 55.1879 437.51 55.3663 437.262 55.5317L436.405 56.1242C435.811 56.5076 435.262 56.8794 434.6 57.286C433.377 58.0295 432.12 58.7498 430.841 59.4352C428.282 60.8409 425.643 62.1073 422.969 63.3155C420.296 64.5237 417.565 65.639 414.824 66.8007L410.619 68.2877L410.277 68.4155C411.111 66.7542 411.945 65.0813 412.756 63.3852C414.869 58.9938 416.891 54.5907 418.777 50.025C418.853 49.8106 418.906 49.5887 418.936 49.3628C418.996 48.9556 418.975 48.5404 418.875 48.1415C418.775 47.7426 418.598 47.3679 418.354 47.0393C418.111 46.7127 417.808 46.4366 417.463 46.2261C417.112 46.0178 416.723 45.8834 416.32 45.8311L412.047 45.227L409.934 44.9249L407.797 44.5764L403.536 43.8678L399.286 43.0545C396.453 42.555 393.642 41.8928 390.82 41.3235L386.593 40.336L384.491 39.8713L382.389 39.3369L378.185 38.2797L374.003 37.1179C372.632 36.7462 371.227 36.3396 369.833 35.9562C368.44 35.5728 367.057 35.1546 365.675 34.7247C360.145 33.0402 354.661 31.2395 349.178 29.2877C343.945 27.4173 333.583 23.3396 328.419 21.2717C327.951 22.7471 328.99 24.4433 328.419 25.849C333.56 28.0215 342.334 31.9598 347.544 33.9813C353.051 36.0259 358.58 37.9777 364.167 39.79C365.538 40.2547 366.966 40.6729 368.36 41.1144C369.753 41.5558 371.159 41.9857 372.575 42.3923L376.802 43.6354L381.052 44.7972L383.177 45.378L385.314 45.9124L389.587 46.9928C392.454 47.6318 395.299 48.3521 398.189 48.9097L402.496 49.8043L406.838 50.6059L409.008 51.0009L411.191 51.3494L411.75 51.4423C410.505 54.6836 409.168 57.9249 407.797 61.1314C405.912 65.5112 403.913 69.8561 401.788 74.1198C400.726 76.2574 399.617 78.3602 398.475 80.4513C397.332 82.5425 396.19 84.5755 394.899 86.5737C393.608 88.5719 392.328 90.5237 390.935 92.3825C389.701 94.0458 388.361 95.6252 386.925 97.1108C383.669 97.0411 380.344 96.8784 377.054 96.6693C373.512 96.437 369.974 96.1582 366.44 95.8329C359.368 95.1823 352.308 94.3226 345.27 93.3119C331.207 91.3021 317.257 88.5603 303.456 85.1796C296.556 83.4757 289.701 81.6092 282.892 79.58L277.831 78L275.294 77.21L272.77 76.3619C271.09 75.8043 269.399 75.2001 267.72 74.6657L262.693 72.8883C261.014 72.3074 259.357 71.6685 257.701 71.0179C256.044 70.3673 254.387 69.7748 252.742 69.1126C249.463 67.7766 246.162 66.4871 242.928 65.0465C237.81 62.8856 232.795 60.504 227.779 58.076L228.134 57.5648C229.139 56.1126 230.179 54.672 231.23 53.243C233.347 50.3851 235.525 47.5776 237.765 44.8203C242.245 39.2984 247 34.0133 252.011 28.9857C257.012 23.9542 262.332 19.2623 267.937 14.9401C270.736 12.7793 273.649 10.781 276.608 8.87575L278.893 7.4817C279.636 7.017 280.413 6.59874 281.178 6.14566L283.257 4.98391C283.76 4.68185 284.251 4.34495 284.766 3.97319L285.063 4.14748L286.011 4.72836L287.919 5.89011C289.175 6.63363 290.455 7.36548 291.735 8.08577C294.294 9.53796 296.876 10.9437 299.458 12.3262C301.663 13.4879 330.91 27.429 334.188 28.4397C334.558 27.1331 334.855 25.8067 335.08 24.4665C332.977 23.4442 303.399 9.77035 301.32 8.71316C298.738 7.40038 296.167 6.04114 293.608 4.65866L289.804 2.55582L287.919 1.4754L287.005 0.941037L286.548 0.662228L286.308 0.522753H286.251L285.942 0.360162C285.719 0.266134 285.485 0.199774 285.245 0.162613C284.217 0.511138 283.155 0.917751 282.115 1.32436L281.338 1.67295L280.95 1.84717L280.641 2.00983L279.419 2.62559C278.608 3.04382 277.774 3.42715 276.985 3.88023L274.586 5.20465C271.422 7.04021 268.303 8.94549 265.309 11.0134C259.305 15.1715 253.58 19.7318 248.172 24.664C242.758 29.5812 237.595 34.7771 232.703 40.2315C230.259 42.95 227.875 45.7304 225.552 48.5728C224.386 50.0057 223.244 51.4462 222.124 52.8945L220.445 55.1019C219.885 55.857 219.359 56.5773 218.777 57.4254L218.708 57.5415C218.602 57.7053 218.507 57.8761 218.423 58.0527C218.213 58.5251 218.093 59.0336 218.068 59.5514C218.056 60.0694 218.137 60.5852 218.308 61.0733C218.673 62.0525 219.398 62.8486 220.331 63.2922C226.9 66.3592 233.492 69.3566 240.232 72.017C243.568 73.4227 246.973 74.6309 250.343 75.9205C252.045 76.5478 253.77 77.0822 255.45 77.7328C257.129 78.3834 258.877 78.8945 260.568 79.487L265.721 81.1832C267.434 81.7292 269.148 82.2404 270.885 82.7748L273.467 83.5648L276.071 84.3083L281.27 85.7837C288.223 87.6425 295.215 89.3542 302.245 90.9187L304.176 91.3137C302.04 94.4504 299.835 97.5639 297.607 100.608C294.834 104.426 291.997 108.19 289.095 111.9C286.194 115.618 283.2 119.231 280.127 122.774C277.054 126.317 273.878 129.744 270.576 132.893L270.496 132.986C270.071 133.432 269.772 133.985 269.628 134.589C269.493 135.196 269.512 135.828 269.685 136.424C269.874 137.008 270.212 137.53 270.663 137.938C271.114 138.346 271.664 138.625 272.256 138.748C273.329 138.98 274.289 139.166 275.306 139.34C276.323 139.515 277.294 139.689 278.288 139.852C280.276 140.177 282.264 140.456 284.251 140.723C288.227 141.234 292.249 141.664 296.179 141.989C304.176 142.663 312.173 142.977 320.17 143C328.168 143.023 336.165 142.733 344.094 142.152C352.022 141.571 359.974 140.642 367.868 139.457L373.775 138.527L379.659 137.366C381.624 137.029 383.566 136.587 385.508 136.204L388.444 135.576L389.906 135.263L391.357 134.903L397.161 133.508C398.144 133.288 399.092 133.009 400.063 132.742L402.942 131.94C406.803 130.941 410.596 129.617 414.367 128.525C429.542 123.583 444.297 117.398 458.489 110.029C458.878 109.83 459.186 109.496 459.357 109.088C459.493 108.673 459.489 108.223 459.345 107.811ZM412.904 124.226C409.134 125.307 405.375 126.48 401.56 127.398L398.715 128.13C397.755 128.374 396.807 128.641 395.847 128.838L390.135 130.139L388.695 130.465L387.256 130.744L384.365 131.313C382.446 131.696 380.527 132.091 378.585 132.405L372.781 133.369L366.966 134.206C359.186 135.228 351.36 136.006 343.568 136.448C335.777 136.889 327.905 137.029 320.079 136.878C312.253 136.727 304.427 136.262 296.659 135.472C292.767 135.077 288.89 134.597 285.028 134.031C283.2 133.752 281.35 133.45 279.499 133.125C281.27 131.034 283.006 128.908 284.686 126.759C287.622 122.948 290.398 119.068 293.185 115.141C295.973 111.214 298.578 107.206 301.183 103.198C303.525 99.5388 305.821 95.8677 308.037 92.1269L310.665 92.6497L314.481 93.3816C324.481 95.2791 334.531 96.8281 344.631 98.0286C350.023 98.656 355.438 99.1903 360.842 99.6434C362.065 99.748 363.287 99.8293 364.521 99.9107L366.086 100.027C366.783 100.085 367.48 100.108 368.177 100.155L371.844 100.375L376.848 100.608C380.447 100.735 384.011 100.828 387.667 100.794H387.77C388.195 100.794 388.604 100.627 388.913 100.329C390.75 98.6233 392.454 96.7743 394.008 94.7989C395.573 92.882 397.035 90.8955 398.429 88.874C399.823 86.8526 401.125 84.7846 402.394 82.6935C402.702 82.1939 402.988 81.6943 403.285 81.1948C404.233 79.5916 405.17 77.9768 406.072 76.3619C406.632 75.3628 407.215 74.3521 407.706 73.3414L411.842 72.1796L416.172 70.9017C419.051 70.0071 421.884 69.0893 424.774 68.0554C427.665 67.0214 430.487 65.9294 433.274 64.698C434.68 64.0822 436.073 63.4317 437.467 62.7346L438.118 62.3976L455.255 107.45C441.595 114.168 427.434 119.778 412.904 124.226Z" fill="black"/>
<path d="M329.504 34.6666C332.102 35.689 334.798 36.7152 337.593 37.7453C327.782 52.4365 316.361 65.9454 303.548 78.0116C284.309 73.3646 264.144 65.0464 240.849 55.4968L239.65 54.9973C244.22 48.4683 260.568 26.5111 284.526 13.0116C286.628 14.3244 317.383 28.8114 328.179 34.0974L328.716 34.3065L329.493 34.6899L329.504 34.6666Z" fill="white"/>
<path d="M331.435 31.5299C330.795 32.5755 330.167 33.6211 329.539 34.6667L328.728 34.3414L328.214 34.0974C328.99 33.1122 329.697 32.0718 330.327 30.9839L331.435 31.5299Z" fill="#8B8FA2"/>
<path d="M341.775 35.4915C341.972 35.6931 342.12 35.9389 342.207 36.2092C342.295 36.4795 342.319 36.7668 342.277 37.0482C342.241 37.3262 342.143 37.5924 341.992 37.8266C331.554 53.8211 319.243 68.4659 305.33 81.4387C305.106 81.6369 304.84 81.7799 304.552 81.8565C304.265 81.933 303.964 81.9412 303.673 81.8802C283.886 77.1519 263.322 68.7176 239.513 58.9589L236.188 57.5996C235.939 57.4914 235.713 57.3334 235.525 57.1349C235.343 56.9356 235.206 56.6975 235.126 56.4378C235.046 56.1748 235.023 55.8976 235.057 55.6247C235.089 55.3511 235.183 55.0887 235.331 54.8579C236.085 53.6961 254.125 25.5004 283.737 9.20104C284.025 9.0456 284.349 8.97328 284.674 8.99194C285.002 9.00461 285.321 9.10477 285.6 9.28237C285.714 9.35208 317.589 24.722 330.327 30.9839C329.697 32.0717 328.99 33.1122 328.213 34.0974C317.417 28.8114 286.662 14.3476 284.56 13.0116C260.568 26.5111 244.208 48.4682 239.684 54.9973L240.884 55.4968C264.178 65.0464 284.297 73.3065 303.582 78.0116C316.396 65.9417 327.817 52.4289 337.627 37.7337C334.832 36.6958 332.136 35.6696 329.539 34.655C330.167 33.6094 330.795 32.5639 331.435 31.5183L330.293 30.9723C333.705 32.3199 337.288 33.6753 341.043 35.0384C341.318 35.13 341.568 35.2851 341.775 35.4915Z" fill="#8B8FA2"/>
</g>
<defs>
<clipPath id="clip0_2808_10304">
<rect width="210" height="143" fill="white" transform="translate(0 112)"/>
</clipPath>
<clipPath id="clip1_2808_10304">
<rect width="142" height="143" fill="white" transform="translate(218)"/>
</clipPath>
</defs>
</svg>
