<svg width="230" height="308" viewBox="0 0 230 308" fill="none" xmlns="http://www.w3.org/2000/svg">
<path d="M179.988 285.532V285.398L179.891 285.003L179.696 284.208L178.904 281.031L177.327 274.667L174.203 261.969L171.121 249.23C167.113 232.489 163.172 215.731 159.519 198.933L151.9 198.481L145.426 198.163L152.999 232.201C153.113 232.723 153.018 233.268 152.736 233.721C152.454 234.175 152.006 234.5 151.487 234.629C150.969 234.758 150.42 234.68 149.958 234.411C149.496 234.143 149.157 233.706 149.012 233.192L139.333 197.85L136.553 197.711C140.848 214.176 145.019 230.67 149.064 247.193L152.183 259.921L155.265 272.66L156.036 275.847L156.416 277.438L156.611 278.234L156.704 278.608C156.701 278.634 156.703 278.66 156.71 278.684C156.717 278.709 156.729 278.732 156.745 278.752C156.883 279.12 157.157 279.421 157.51 279.594L157.644 279.655L157.993 279.784L158.759 280.066L160.3 280.636L172.6 285.183L175.683 286.322L177.224 286.892L177.995 287.174C178.028 287.194 178.065 287.204 178.103 287.205H178.18C178.226 287.205 178.272 287.251 178.319 287.241C178.489 287.269 178.662 287.269 178.832 287.241C179.013 287.191 179.186 287.117 179.346 287.02C179.505 286.909 179.644 286.772 179.757 286.615C179.864 286.46 179.939 286.286 179.978 286.102C180.019 285.919 180.019 285.73 179.978 285.547L179.988 285.532ZM167.658 269.396C167.168 269.486 166.662 269.396 166.234 269.142C165.806 268.888 165.485 268.488 165.33 268.015C164 263.955 162.802 259.865 161.652 255.764C161.066 253.711 160.531 251.658 159.966 249.605L158.358 243.446L156.817 237.246C156.303 235.193 155.82 233.104 155.358 231.026C154.407 226.869 153.503 222.706 152.732 218.508C152.596 217.98 152.675 217.419 152.953 216.949C153.23 216.48 153.683 216.139 154.212 216.003C154.741 215.867 155.302 215.946 155.772 216.224C156.242 216.501 156.583 216.953 156.719 217.481C158.05 221.536 159.242 225.627 160.393 229.732C160.978 231.785 161.518 233.838 162.078 235.891L163.691 242.05L165.233 248.25C165.746 250.303 166.26 252.392 166.697 254.471C167.642 258.623 168.546 262.79 169.317 266.989C169.42 267.523 169.306 268.076 169 268.526C168.695 268.976 168.223 269.287 167.688 269.391L167.658 269.396Z" fill="#C39876"/>
<path d="M152.018 193.652L167.432 193.893L171.285 193.965L173.186 194.001C173.442 193.999 173.695 193.941 173.926 193.831C174.154 193.728 174.36 193.579 174.528 193.394C174.697 193.209 174.826 192.991 174.907 192.754C174.944 192.637 174.968 192.516 174.979 192.394V192.168V191.691L175.077 189.766C175.09 189.291 174.917 188.828 174.594 188.478C174.433 188.303 174.242 188.158 174.028 188.052C173.976 188.025 173.921 188.002 173.864 187.986C173.809 187.96 173.75 187.943 173.689 187.934C173.632 187.912 173.571 187.899 173.51 187.898H173.191L165.484 187.477C160.346 187.2 155.209 186.872 150.071 186.574C144.933 186.276 139.795 185.994 134.657 185.763C132.088 185.645 129.519 185.527 126.951 185.44C124.382 185.353 121.813 185.245 119.244 185.178L111.537 184.957L103.83 184.798L88.4169 184.598L73.0034 184.393L69.1552 184.321L67.285 184.285C67.0664 184.291 66.8513 184.342 66.653 184.434C66.2613 184.623 65.9577 184.956 65.8053 185.363C65.7745 185.466 65.754 185.568 65.7334 185.671C65.7226 185.725 65.7226 185.781 65.7334 185.835V186.292L65.6769 188.216V188.576C65.6717 188.629 65.6717 188.682 65.6769 188.735C65.6817 188.785 65.692 188.835 65.7077 188.884C65.7159 188.935 65.7297 188.985 65.7488 189.033C65.82 189.223 65.9283 189.397 66.0673 189.546C66.2106 189.705 66.3856 189.833 66.5811 189.92C66.6745 189.96 66.7707 189.992 66.8688 190.018C66.9202 190.018 66.9716 190.049 67.023 190.049H67.285C69.854 190.146 72.4229 190.249 74.9918 190.387C80.1296 190.634 85.2674 190.978 90.4053 191.311C94.9985 191.599 99.5917 191.912 104.18 192.168L105.793 192.261C108.362 192.399 110.931 192.533 113.5 192.63C115.73 192.728 117.949 192.82 120.179 192.887L121.207 192.923C126.344 193.101 131.482 193.248 136.62 193.364L152.018 193.652Z" fill="#C39876"/>
<path d="M126.966 42.1945L139.441 42.4613C143.037 42.5024 146.634 42.5691 150.199 42.5948L150.369 38.3041C150.392 37.7045 150.177 37.1201 149.769 36.6794C149.362 36.2386 148.796 35.9775 148.196 35.9535H148.154L140.777 35.7944L120.909 35.3632L111.059 35.1528H111.008C110.43 35.1531 109.875 35.3737 109.455 35.7696C109.034 36.1655 108.781 36.7068 108.747 37.2827L108.49 41.5991L114.497 41.8198L126.966 42.1945Z" fill="#C39876"/>
<path d="M137.684 218.467L133.059 222.214L135.115 238.483C135.201 239.021 135.07 239.571 134.751 240.012C134.431 240.454 133.95 240.75 133.411 240.836C132.873 240.923 132.323 240.792 131.881 240.473C131.439 240.154 131.142 239.673 131.056 239.135L128.487 225.904L126.385 227.608C126.812 230.605 127.228 233.607 127.685 236.605L129.18 246.721C129.432 248.404 129.694 250.093 129.895 251.781L130.239 254.312L130.326 254.948L130.367 255.261C130.382 255.303 130.393 255.346 130.398 255.389C130.455 255.647 130.569 255.889 130.73 256.097C130.892 256.306 131.098 256.476 131.333 256.595C131.495 256.677 131.668 256.732 131.847 256.76L132.114 256.791H132.741L137.879 256.914L143.017 257.104C144.106 257.16 145.2 257.211 146.289 257.273L144.265 248.348C142.025 238.401 139.831 228.441 137.684 218.467Z" fill="#C39876"/>
<path d="M126.822 17.4101C126.842 16.8656 127.077 16.3513 127.477 15.9802C127.876 15.6092 128.407 15.4118 128.952 15.4315C129.497 15.4513 130.012 15.6865 130.383 16.0855C130.755 16.4844 130.952 17.0144 130.932 17.5589L131.164 31.478L138.778 31.6422L139.384 8.685C139.408 7.80509 139.08 6.95186 138.474 6.31283C137.869 5.6738 137.033 5.30126 136.152 5.27709L127.336 5.12311C126.467 5.10889 125.626 5.43391 124.993 6.02908C124.36 6.62426 123.984 7.44266 123.945 8.31034L123.051 31.2984L125.579 31.3548L126.822 17.4101Z" fill="#C39876"/>
<path d="M94.1405 203.87C94.0568 204.127 93.9234 204.364 93.7478 204.569C93.5723 204.774 93.3581 204.943 93.1174 205.065C92.8767 205.187 92.6142 205.261 92.345 205.282C92.0758 205.303 91.8052 205.27 91.5485 205.187C91.2917 205.103 91.054 204.97 90.8488 204.795C90.6437 204.619 90.4751 204.405 90.3527 204.165C90.2303 203.924 90.1566 203.662 90.1356 203.393C90.1147 203.124 90.1469 202.854 90.2306 202.597L91.7719 196.628H90.2306C87.3894 196.628 84.5482 196.628 81.7069 196.593C79.4103 204.466 76.9699 212.282 74.514 220.099C73.2141 224.138 71.945 228.188 70.6297 232.222L66.6839 244.293C63.9814 252.33 61.3354 260.393 58.5558 268.415L56.5007 274.436L55.9869 275.939L55.73 276.689L55.6992 276.786C55.7043 276.801 55.7043 276.818 55.6992 276.833C55.6992 276.863 55.6684 276.894 55.6992 276.925C55.6752 277.146 55.7279 277.369 55.8486 277.555C55.9692 277.742 56.1505 277.882 56.362 277.951L56.4442 277.977H56.7988L58.3863 277.828L64.7264 277.233L68.4102 276.889L81.188 240.495C81.3695 239.995 81.7378 239.586 82.2156 239.352C82.6933 239.118 83.2433 239.078 83.7498 239.241C84.2562 239.404 84.6797 239.757 84.9311 240.225C85.1826 240.693 85.2423 241.241 85.0979 241.753L74.889 276.278L77.1548 276.063C77.3992 276.019 77.6208 275.892 77.7816 275.703C77.8593 275.605 77.92 275.494 77.9614 275.375L78.4084 273.835L80.2015 267.733L83.798 255.528L87.4561 243.338C92.1675 227.726 96.9457 212.133 102.001 196.634L97.0279 196.603L94.1405 203.87ZM84.6663 220.017C84.096 222.583 83.387 225.149 82.6112 227.664C81.8354 230.179 81.0287 232.684 80.1604 235.168C79.2922 237.652 78.4084 240.131 77.4528 242.589C76.4972 245.048 75.521 247.491 74.4215 249.893C74.3341 250.148 74.1973 250.383 74.0188 250.585C73.8404 250.788 73.6238 250.953 73.3814 251.071C73.1391 251.19 72.8757 251.26 72.6063 251.277C72.3369 251.294 72.0668 251.258 71.8115 251.171C71.5561 251.083 71.3204 250.947 71.1179 250.768C70.9154 250.59 70.75 250.374 70.6313 250.132C70.5125 249.889 70.4425 249.626 70.4255 249.357C70.4085 249.088 70.4448 248.818 70.5322 248.563C71.1333 245.997 71.8577 243.431 72.5873 240.931C73.3169 238.432 74.1287 235.907 74.9918 233.412C75.855 230.918 76.7181 228.439 77.6583 225.981C78.5985 223.522 79.6004 221.079 80.741 218.688C80.9175 218.171 81.2921 217.746 81.7826 217.505C82.273 217.264 82.839 217.228 83.3562 217.404C83.8733 217.581 84.2991 217.955 84.54 218.445C84.7809 218.935 84.8171 219.5 84.6406 220.017H84.6663Z" fill="#C39876"/>
<path d="M108.578 117.072C108.545 117.009 108.501 116.951 108.449 116.902C108.5 116.953 108.543 117.01 108.578 117.072Z" fill="white"/>
<path d="M152.167 46.9214H151.802C147.651 46.7212 143.494 46.5981 139.338 46.4082L126.868 46.0386L114.399 45.7717C111.717 45.7409 109.035 45.6896 106.353 45.6588C104.873 45.6383 103.397 45.6263 101.924 45.6229C94.572 45.5665 87.2146 45.5665 79.8316 45.7102L74.2313 178.475L88.7046 179.337L104.087 180.241L111.794 180.631L119.501 180.959C122.07 181.077 124.639 181.165 127.207 181.252C129.776 181.339 132.345 181.411 134.914 181.478C140.052 181.611 145.19 181.673 150.328 181.765C155.466 181.857 160.603 181.873 165.741 181.965L170.442 182.042L173.777 48.1429C166.568 47.6194 159.37 47.2396 152.167 46.9214ZM160.855 132.042L160.819 132.438V132.494C160.703 133.502 160.531 134.502 160.305 135.491C160.173 136.193 160.001 136.887 159.792 137.57C159.735 137.765 159.679 137.95 159.627 138.134C159.35 138.976 159.067 139.71 158.815 140.362L158.779 140.449C158.705 140.642 158.574 140.808 158.403 140.925C158.233 141.042 158.031 141.106 157.824 141.106C157.727 141.105 157.63 141.091 157.536 141.065C157.341 141.537 157.13 142.015 156.904 142.502C157.064 142.646 157.175 142.836 157.221 143.046C157.267 143.256 157.246 143.475 157.161 143.672C156.581 145.012 155.911 146.312 155.157 147.563C155.116 147.635 155.064 147.701 155.003 147.758L154.808 147.958C154.647 148.139 154.476 148.31 154.294 148.471C154.107 148.633 153.868 148.722 153.621 148.723C153.46 148.724 153.301 148.685 153.159 148.61L152.825 149.041C152.563 149.4 152.265 149.734 151.982 150.067L151.859 150.206L150.939 151.232L150.893 151.284L150.415 151.761C149.901 152.274 149.459 152.726 148.977 153.172L148.427 153.655C147.959 154.071 147.517 154.456 147.065 154.825L145.894 155.698L145.159 156.236L143.32 157.581C143.032 157.781 142.76 157.961 142.503 158.13C142.478 158.283 142.419 158.429 142.33 158.556C142.241 158.683 142.125 158.789 141.989 158.864C141.211 159.313 140.394 159.691 139.549 159.993L139.179 160.137C139.144 160.277 139.081 160.409 138.992 160.523C138.904 160.637 138.792 160.731 138.665 160.799C135.271 162.519 131.54 163.473 127.737 163.596C127.223 163.596 126.74 163.627 126.231 163.627C123.298 163.597 120.374 163.293 117.497 162.719C117.266 162.72 117.036 162.701 116.809 162.662C116.745 162.656 116.683 162.642 116.624 162.621C111.886 161.1 107.415 158.849 103.373 155.949C100.29 153.716 98.1942 151.52 97.7215 150.067C97.6656 149.902 97.6529 149.724 97.6848 149.552C97.7167 149.38 97.7922 149.219 97.9038 149.085C98.0155 148.95 98.1598 148.846 98.323 148.783C98.4863 148.719 98.663 148.699 98.8364 148.723C99.196 148.769 99.6431 148.99 100.933 149.652C101.611 150.001 102.376 150.391 102.751 150.534C102.842 150.565 102.927 150.61 103.003 150.668L103.409 150.965C104.221 151.561 104.863 152.033 105.624 152.505C106.716 153.185 107.866 153.768 109.061 154.245L113.12 155.523C114.497 155.923 116.305 156.421 117.888 156.709C118.494 156.832 119.059 156.909 119.557 156.976L119.917 157.022H120.112C120.21 156.85 120.356 156.71 120.532 156.619C120.708 156.528 120.907 156.489 121.104 156.508C123.005 156.673 124.459 156.724 125.625 156.765C126.344 156.791 126.966 156.811 127.511 156.857C128.425 156.888 129.129 156.97 129.746 157.042L130.568 157.135C131.514 157.259 132.474 157.226 133.409 157.037C135.445 156.576 137.382 155.754 139.127 154.609C139.4 154.389 139.708 154.178 140.026 153.958C140.258 153.804 140.499 153.639 140.746 153.444C140.992 153.249 141.388 152.972 141.732 152.736L142.246 152.392L142.549 152.156L142.719 152.018C142.924 151.848 143.155 151.674 143.381 151.504C143.839 151.145 144.275 150.806 144.666 150.442L145.647 149.59C145.842 149.421 146.017 149.241 146.192 149.077L146.454 148.82L146.819 148.471C146.763 148.335 146.738 148.188 146.744 148.041C146.75 147.894 146.788 147.75 146.855 147.619C147.019 147.296 147.204 146.972 147.399 146.665C147.461 146.562 147.548 146.428 147.646 146.28C147.805 146.044 147.985 145.766 148.196 145.402C148.239 145.331 148.289 145.264 148.344 145.202L149.007 144.494C149.896 143.539 150.276 143.133 150.713 142.954C150.876 142.888 151.051 142.856 151.227 142.861L151.674 142.092L151.756 141.948C152.142 140.983 152.409 139.975 152.552 138.945L152.588 138.694C152.615 138.548 152.634 138.401 152.645 138.253L152.737 137.144C152.768 136.769 152.794 136.415 152.799 136.046C152.794 135.981 152.794 135.915 152.799 135.851C153 134.848 153.132 133.833 153.195 132.812C153.2 132.75 153.21 132.688 153.225 132.627C153.41 131.893 153.631 131.021 154.253 130.785C154.136 130.398 154.045 130.003 153.981 129.604C153.929 129.225 153.888 128.799 153.837 128.203C153.785 127.69 153.729 127.059 153.647 126.279C153.463 124.796 153.162 123.331 152.748 121.896C152.33 120.423 151.829 118.975 151.247 117.559L151.17 117.369C151.073 117.122 150.97 116.881 150.872 116.645C150.642 116.678 150.408 116.632 150.207 116.515C150.006 116.397 149.851 116.215 149.768 115.998C149.655 115.701 149.475 115.254 149.28 114.844C149.084 114.433 148.863 114.048 148.689 113.735C148.59 113.558 148.547 113.356 148.563 113.154C148.58 112.952 148.656 112.76 148.781 112.601C148.955 112.395 149.198 112.258 149.465 112.216C148.73 110.938 148.021 109.721 147.214 108.495C146.901 108.033 146.567 107.561 146.233 107.083C145.899 106.606 145.539 106.19 145.164 105.723L145.108 105.662C144.743 105.251 144.363 104.825 143.967 104.43L143.135 103.665L142.826 103.378L142.39 103.003C142.117 102.821 141.821 102.675 141.511 102.567C141.131 102.432 140.764 102.26 140.417 102.054C140.239 101.953 140.094 101.802 140.003 101.619C139.911 101.436 139.877 101.23 139.903 101.027C140.031 100.358 140.239 99.7062 140.525 99.0872C140.71 98.6458 140.931 98.1171 141.203 97.4858C141.352 97.106 141.542 96.6339 141.773 96.0796C141.804 95.9991 141.846 95.9232 141.897 95.8537L142.076 95.6125C142.918 94.5565 143.681 93.4397 144.358 92.2713C145.509 90.0733 146.521 87.8055 147.389 85.4812C147.462 85.2973 147.587 85.1384 147.748 85.0237C147.909 84.909 148.1 84.8433 148.298 84.8345L148.401 84.6446C148.54 84.3663 148.7 84.0987 148.879 83.8439C148.708 83.8066 148.549 83.7262 148.418 83.6103C148.286 83.4944 148.187 83.3469 148.129 83.1818L147.615 81.7242C147.53 81.4692 147.548 81.1909 147.666 80.9492C148.555 79.1221 149.403 75.437 149.721 72.296C149.644 72.2199 149.58 72.1314 149.531 72.0343C149.4 71.6946 149.349 71.3293 149.382 70.9667V70.2636C149.382 70.1386 149.399 70.0141 149.434 69.894C149.511 69.6774 149.634 69.4797 149.793 69.3141C149.758 68.9931 149.668 68.6805 149.526 68.3902C149.491 68.3264 149.451 68.2647 149.408 68.2055L149.362 68.1542L149.249 68.0977H149.064C148.746 68.143 148.439 68.2474 148.16 68.4056C148.095 68.4413 148.026 68.4689 147.954 68.4878C147.413 68.6668 146.896 68.9097 146.413 69.2114C144.697 70.97 143.259 72.9793 142.148 75.1702C141.732 75.9452 141.321 76.7715 140.92 77.6388C140.751 78.0084 140.592 78.3779 140.407 78.7526C139.924 79.8663 139.451 81.0878 138.953 82.4941C138.075 85.0186 137.334 87.5885 136.733 90.1927C136.461 91.327 136.219 92.5639 135.911 94.0933L135.397 97.0804C135.32 97.5577 135.248 98.0504 135.176 98.5534C135.068 99.2668 134.961 99.9905 134.842 100.668C134.82 100.811 134.767 100.948 134.686 101.069C134.605 101.189 134.499 101.291 134.375 101.366C134.252 101.442 134.114 101.492 133.971 101.511C133.827 101.531 133.681 101.52 133.542 101.479L131.487 100.889L131.004 100.755C130.753 100.678 130.491 100.611 130.239 100.555L129.853 100.463L127.845 100.006L126.94 99.8827C126.632 99.8416 126.344 99.8006 126.057 99.78C125.543 99.8467 124.89 99.9032 124.125 99.9699C123.154 100.047 122.07 100.139 120.873 100.288C120.256 100.36 119.722 100.437 119.228 100.519C118.617 100.606 118.047 100.719 117.569 100.817C117.168 100.894 116.793 100.981 116.428 101.068L115.992 101.171C115.807 101.212 115.622 101.268 115.442 101.32L115.288 101.361L114.173 101.664C113.948 101.726 113.709 101.709 113.495 101.617C113.171 101.73 112.837 101.838 112.467 101.946C112.097 102.054 111.691 102.192 111.275 102.336C110.309 102.649 109.22 102.993 107.971 103.362C107.71 103.439 107.429 103.408 107.19 103.277C106.951 103.146 106.774 102.926 106.697 102.664C106.671 102.573 106.657 102.478 106.656 102.382C106.656 101.356 106.656 100.288 106.692 99.2463C106.692 98.4251 106.728 97.609 106.733 96.8289V93.5903C106.615 93.4334 106.542 93.247 106.523 93.0514C106.415 91.7889 106.302 90.7829 106.189 89.8129C106.009 88.2732 105.844 86.795 105.716 84.4444C105.705 84.173 105.802 83.9082 105.986 83.7081C106.17 83.508 106.426 83.3889 106.697 83.3769C106.813 83.3721 106.93 83.386 107.041 83.4179V82.2118C106.994 80.9701 106.847 79.7343 106.6 78.5165C106.548 78.2958 106.497 78.0854 106.44 77.8647C106.384 77.644 106.363 77.5516 106.317 77.3514C106.184 77.3202 106.058 77.2626 105.947 77.1821C105.831 77.1027 105.732 77.0002 105.657 76.881C105.582 76.7618 105.532 76.6284 105.51 76.4892C105.099 73.8152 104.832 71.8444 104.616 70.2584C104.442 68.9702 104.303 67.9489 104.144 66.948C104.019 66.0943 103.809 65.2552 103.517 64.4434C103.471 64.4692 103.423 64.4898 103.373 64.505C103.204 64.5461 103.028 64.5461 102.859 64.505C102.81 64.6445 102.732 64.7717 102.629 64.878C102.526 64.9843 102.401 65.0672 102.263 65.1209C101.843 65.6068 101.543 66.1855 101.39 66.8095C101.032 68.1236 100.818 69.4729 100.753 70.8333C100.753 71.3465 100.707 71.7879 100.691 72.1882C100.692 72.7037 100.652 73.2185 100.573 73.728C100.535 73.9814 100.407 74.2129 100.213 74.3805C100.019 74.5481 99.7712 74.6407 99.5146 74.6415C99.4632 75.3447 99.417 76.0735 99.381 76.8382C99.2063 80.6596 99.2526 84.4879 99.5198 88.304L100.105 90.3569C100.15 90.5111 100.158 90.6735 100.129 90.8313C100.099 90.9891 100.033 91.1377 99.9359 91.2654C99.8993 91.4535 99.8753 91.6438 99.864 91.8351C100.378 92.1584 100.594 93.0617 100.835 94.196V94.3294L101.549 102.351C101.585 102.782 101.626 103.198 101.667 103.619L101.785 104.8V104.918C101.802 105.099 101.772 105.282 101.698 105.449C101.625 105.616 101.51 105.762 101.364 105.872L100.676 106.457L100.342 106.75C100.141 106.924 99.9565 107.083 99.7767 107.263L99.7252 107.314C99.4837 107.535 99.2475 107.792 99.0008 108.064L98.8929 108.182C97.8191 109.477 96.8566 110.861 96.0157 112.318C95.317 113.509 94.6028 114.823 93.8938 116.219C93.8084 116.388 93.6778 116.531 93.5164 116.63C93.3549 116.73 93.169 116.783 92.9793 116.784C92.8437 116.783 92.7094 116.757 92.5837 116.707C92.3449 116.607 92.1525 116.421 92.0449 116.186C91.9373 115.951 91.9224 115.685 92.0031 115.439C92.5897 113.747 93.2759 112.092 94.0582 110.481C94.8296 108.809 95.687 107.178 96.6272 105.595L96.658 105.549C96.7677 105.39 96.8878 105.24 97.0176 105.097L97.4492 104.61L97.7369 104.322L98.0092 104.055L97.8191 102.788C97.7369 102.274 97.6599 101.73 97.5828 101.197C97.331 99.4618 97.069 97.6398 96.8789 95.7819C96.4473 92.025 96.1288 88.3348 95.9284 84.8088C95.6921 80.5438 95.6458 77.0589 95.7743 73.846C95.8402 72.0322 96.0013 70.2231 96.2572 68.4262C96.3291 67.9129 96.4062 67.4767 96.4936 67.061C96.5809 66.6452 96.6426 66.3527 96.7299 65.9985L96.7864 65.7522C96.8583 65.4391 96.956 65.1363 97.0484 64.8386L97.1717 64.4434L97.2026 64.3511L97.3413 63.9918C97.4545 63.6637 97.5883 63.3432 97.742 63.032C97.8175 62.8928 97.9227 62.7719 98.0503 62.6779C98.1068 62.6214 98.2507 62.4623 98.3535 62.3443C98.7233 61.9089 99.1327 61.5086 99.5763 61.1484L99.6225 61.1125C99.9852 60.8253 100.403 60.6156 100.85 60.4966C101.02 60.4658 101.194 60.4658 101.364 60.4966L101.441 60.4658C101.609 60.4054 101.781 60.3574 101.955 60.3221C102.622 60.1379 103.331 60.1831 103.969 60.4504C104.537 60.7169 105.02 61.1341 105.367 61.6565C105.603 62.0019 105.777 62.3857 105.88 62.7908C106.545 63.9238 107.078 65.1293 107.468 66.3835C107.904 67.7223 108.264 69.0845 108.547 70.4637C109.126 73.2496 109.555 76.0645 109.831 78.8963C110.397 84.3777 110.602 89.6281 110.715 93.5903V93.6263C111.04 94.0038 111.222 94.4834 111.229 94.9812C111.285 95.4124 111.337 96.0077 111.373 96.6903V97.3678C111.83 97.2292 112.298 97.0958 112.75 96.9726L113.366 96.7981C113.88 96.6595 114.301 96.5364 114.62 96.4234C114.711 96.3924 114.806 96.3734 114.902 96.367C115.73 96.3105 116.783 96.1771 117.898 96.0334L119.588 95.8229L120.164 95.7562C120.24 95.549 120.378 95.37 120.559 95.243C120.806 95.0787 121.556 94.5706 124.639 94.7297C124.921 94.7297 125.235 94.7657 125.533 94.7965L125.974 94.8427H126.134C126.581 94.8786 127.017 94.9299 127.454 95.0069L128.8 95.2173H128.877C129.093 95.2686 129.309 95.3097 129.53 95.3559C129.411 95.2646 129.313 95.1484 129.244 95.0154C129.175 94.8823 129.136 94.7358 129.129 94.586C129.11 94.3443 129.149 94.1017 129.242 93.8778C129.268 93.8264 129.297 93.7767 129.329 93.7289L129.797 91.7991C129.905 91.3475 130.028 90.8958 130.151 90.4493L130.249 90.09C130.598 88.8004 131.041 87.5379 131.575 86.3126C131.377 86.1401 131.242 85.9074 131.189 85.6505C131.076 85.0603 131.287 83.962 131.811 82.3709C131.811 82.3401 131.811 82.3042 131.852 82.2734C132.258 81.365 132.664 80.4309 133.085 79.4711C134.406 76.2775 135.916 73.1651 137.606 70.1507C138.83 67.9927 140.356 66.0207 142.138 64.2946C143.164 63.3403 144.339 62.5602 145.616 61.985C146.356 61.6619 147.138 61.4458 147.939 61.3435C148.28 61.3026 148.623 61.2871 148.966 61.2973H149.218C149.393 61.2973 149.562 61.3332 149.732 61.364L150.025 61.4102C150.256 61.4394 150.483 61.4928 150.703 61.5693C150.953 61.6621 151.157 61.8484 151.272 62.0888C151.387 62.3292 151.404 62.6048 151.319 62.8575H151.381C151.557 62.9265 151.729 63.0071 151.895 63.0987C152.746 63.5878 153.433 64.3184 153.868 65.1979C154.226 65.8978 154.478 66.6467 154.618 67.4202C154.845 68.7074 154.904 70.0186 154.793 71.3209C154.681 72.8136 154.432 74.2929 154.048 75.7398C154.174 75.7496 154.298 75.7755 154.417 75.8168C155.06 76.0786 155.671 76.3301 154.5 81.2212C153.769 84.1678 152.872 87.0705 151.813 89.9155L151.689 90.2543C151.314 91.2808 150.749 92.7692 150.215 94.0215C149.68 95.2738 149.305 96.0436 148.884 96.4337C148.555 97.4602 148.196 98.4251 147.8 99.3643L147.481 100.098C148.057 100.73 148.581 101.407 149.09 102.059L149.269 102.285C150.138 103.445 150.991 104.707 151.926 106.226C152.138 106.153 152.369 106.152 152.582 106.222C152.796 106.293 152.98 106.431 153.107 106.616C154.215 108.256 155.208 109.971 156.077 111.749C156.688 113.099 156.868 113.602 156.884 113.997C156.899 114.157 156.878 114.319 156.822 114.47C156.766 114.621 156.676 114.758 156.56 114.869C156.791 115.336 157.017 115.809 157.243 116.27C157.885 116.224 158.348 116.84 158.559 117.133C158.609 117.201 158.65 117.275 158.682 117.353C160.191 121.138 160.958 125.177 160.942 129.25C160.981 130.182 160.952 131.115 160.855 132.042ZM114.774 121.567C114.812 122.535 114.557 123.491 114.044 124.313C113.546 125.114 112.835 125.761 111.989 126.181C111.266 126.527 110.474 126.703 109.672 126.694C108.592 126.689 107.537 126.37 106.636 125.776C106.392 125.707 106.169 125.578 105.988 125.401C105.965 125.38 105.942 125.358 105.921 125.334L105.875 125.283H105.85C105.587 125.179 105.36 125.001 105.197 124.77C104.466 123.804 104.088 122.618 104.123 121.408C104.15 120.225 104.607 119.092 105.408 118.221C105.844 117.735 106.353 117.321 106.918 116.994C107.021 116.87 107.149 116.769 107.293 116.696C107.375 116.659 107.462 116.632 107.55 116.614C107.759 116.507 107.985 116.435 108.218 116.404C108.333 116.394 108.45 116.403 108.562 116.43C108.69 116.409 108.82 116.409 108.948 116.43C109.117 116.43 109.271 116.399 109.41 116.394C109.524 116.397 109.638 116.387 109.749 116.363C109.972 116.327 110.201 116.363 110.402 116.465H110.602C110.743 116.454 110.885 116.471 111.018 116.517H111.183L111.799 116.717L111.928 116.763L112.061 116.814C112.501 117.027 112.902 117.312 113.248 117.656C113.462 117.845 113.648 118.065 113.798 118.308C113.955 118.5 114.083 118.715 114.178 118.944C114.204 119.017 114.238 119.086 114.281 119.15C114.363 119.275 114.416 119.417 114.437 119.565C114.459 119.713 114.447 119.864 114.404 120.007C114.366 120.145 114.298 120.273 114.204 120.382V120.618C114.38 120.705 114.527 120.841 114.628 121.009C114.729 121.177 114.78 121.371 114.774 121.567ZM129.838 121.054C129.846 120.958 129.865 120.863 129.895 120.772C129.911 120.71 129.931 120.65 129.956 120.592C130.08 120.32 130.224 120.057 130.388 119.807C130.397 119.625 130.451 119.448 130.547 119.293C131.056 118.472 131.763 117.791 132.602 117.312C132.669 117.276 132.74 117.247 132.813 117.225C133.108 117.133 133.411 117.066 133.717 117.025C133.795 116.964 133.879 116.912 133.969 116.871C134.387 116.711 134.842 116.677 135.279 116.773C135.478 116.625 135.725 116.554 135.973 116.573C137.198 116.669 138.364 117.139 139.312 117.921C140.26 118.702 140.944 119.757 141.27 120.941C141.373 121.531 141.3 122.138 141.059 122.686C141.03 122.77 140.992 122.851 140.946 122.927C140.842 123.09 140.722 123.241 140.586 123.379C140.549 123.422 140.505 123.46 140.458 123.492C140.405 123.539 140.348 123.581 140.288 123.62C140.259 123.644 140.226 123.663 140.191 123.676C140.101 123.743 140 123.791 139.893 123.82C139.923 123.931 139.939 124.044 139.939 124.159C139.939 125.144 139.312 125.699 138.074 125.781H137.94C137.982 125.963 137.971 126.153 137.91 126.33C137.863 126.467 137.787 126.593 137.688 126.7C137.589 126.806 137.468 126.89 137.334 126.946C136.756 127.146 136.148 127.244 135.536 127.233H135.392H135.202C134.873 127.294 134.54 127.327 134.205 127.331H133.953C132.726 127.093 131.629 126.414 130.871 125.422C130.07 124.372 129.672 123.07 129.751 121.752C129.757 121.656 129.776 121.561 129.807 121.47L129.848 121.352C129.833 121.246 129.833 121.139 129.848 121.033L129.838 121.054ZM130.059 135.537C130.319 135.594 130.584 135.629 130.85 135.64C131.126 135.651 131.401 135.62 131.667 135.548C132.133 135.472 132.555 135.229 132.854 134.865C132.905 134.804 132.957 134.742 133.013 134.686C133.794 133.951 134.484 133.125 135.068 132.227C135.125 132.041 135.232 131.875 135.377 131.745C135.498 131.515 135.675 131.319 135.89 131.175C136.048 131.052 136.235 130.974 136.434 130.95C136.632 130.925 136.833 130.955 137.016 131.036C137.258 131.22 137.448 131.464 137.566 131.745C137.684 132.025 137.726 132.331 137.689 132.633C137.658 132.761 137.637 132.891 137.627 133.023C137.489 133.713 137.406 134.413 137.38 135.117L137.329 135.363C137.295 135.531 137.219 135.688 137.108 135.82C137.061 135.88 137.018 135.943 136.98 136.01C136.964 136.042 136.947 136.072 136.928 136.102C136.882 136.185 136.841 136.271 136.805 136.359L136.738 136.528C136.688 136.672 136.63 136.812 136.563 136.949C136.545 137.086 136.496 137.218 136.42 137.334C135.831 138.273 135 139.037 134.015 139.546C133.025 140.061 131.912 140.29 130.799 140.208C130.649 140.233 130.498 140.245 130.347 140.244C130.145 140.244 129.943 140.223 129.746 140.182L129.55 140.152C129.404 140.127 129.257 140.109 129.109 140.1C128.949 140.094 128.792 140.05 128.652 139.972C128.512 139.895 128.392 139.786 128.302 139.654L128.153 139.607L127.994 139.561C127.794 139.508 127.615 139.395 127.48 139.238C126.903 138.955 126.35 138.627 125.825 138.258C125.671 138.214 125.528 138.135 125.409 138.027C125.278 137.904 125.159 137.768 125.055 137.621L125.003 137.596C124.867 137.63 124.725 137.637 124.587 137.615C124.448 137.593 124.315 137.543 124.197 137.467L123.549 137.057C123.378 137.07 123.206 137.041 123.049 136.971C122.892 136.901 122.755 136.793 122.65 136.656L122.568 136.554L122.342 136.256C122.275 136.153 122.198 136.051 122.111 135.938L122.013 135.804L121.823 135.917L121.402 136.174C121.181 136.307 120.96 136.436 120.754 136.579C120.059 137.011 119.401 137.501 118.787 138.042L118.581 138.242L118.319 138.489C118.145 138.679 117.934 138.832 117.699 138.938C117.464 139.044 117.21 139.1 116.952 139.104C116.729 139.13 116.503 139.13 116.279 139.104C115.762 139.591 115.1 139.897 114.394 139.977C113.378 140.094 112.351 139.916 111.434 139.464C111.272 139.385 111.134 139.264 111.034 139.115C110.887 139.036 110.76 138.928 110.659 138.797C110.62 138.751 110.587 138.701 110.561 138.648C110.37 138.539 110.188 138.415 110.016 138.278C109.879 138.236 109.752 138.168 109.641 138.078L109.544 138.042L109.467 138.011C109.268 137.956 109.084 137.856 108.931 137.718C108.777 137.58 108.658 137.408 108.583 137.216C108.448 137.075 108.341 136.912 108.264 136.733C108.199 136.571 108.176 136.394 108.198 136.22C108.203 136.165 108.19 136.109 108.162 136.061V135.953L108.115 135.907L107.956 135.738C107.685 135.49 107.468 135.19 107.319 134.855L107.278 134.778C107.209 134.675 107.156 134.562 107.119 134.444L107.077 134.29C107.042 134.132 107.042 133.967 107.077 133.808C107.015 133.619 106.995 133.418 107.021 133.221C107.047 133.024 107.117 132.835 107.227 132.668L107.298 132.571V132.545C107.293 132.479 107.293 132.412 107.298 132.345C107.247 132.215 107.222 132.075 107.227 131.935C107.23 131.762 107.271 131.592 107.347 131.436C107.424 131.281 107.533 131.145 107.668 131.036C108.124 130.944 108.578 130.845 109.03 130.739C109.185 130.707 109.346 130.712 109.499 130.753C109.653 130.794 109.795 130.87 109.914 130.975C110.005 131.002 110.093 131.04 110.176 131.088C110.381 131.214 110.538 131.406 110.623 131.632C110.66 131.682 110.691 131.738 110.715 131.796C110.644 131.981 110.618 132.18 110.64 132.376C110.663 132.573 110.733 132.761 110.843 132.925C110.907 132.964 110.974 132.996 111.044 133.023L111.152 133.069C111.275 133.132 111.384 133.22 111.472 133.327C111.561 133.434 111.626 133.557 111.666 133.69C111.663 133.709 111.665 133.728 111.671 133.746C111.677 133.763 111.688 133.779 111.702 133.792C111.783 133.914 111.835 134.053 111.856 134.198C111.856 134.234 111.886 134.265 111.897 134.295C111.918 134.345 111.931 134.396 111.938 134.449C111.954 134.48 111.966 134.513 111.974 134.547V134.629C112.069 134.638 112.162 134.66 112.251 134.696C112.657 134.85 113.731 134.614 114.373 134.47C114.634 134.418 114.9 134.404 115.164 134.429H115.283C115.566 134.115 115.942 133.899 116.356 133.813L116.469 133.787C116.603 133.707 116.752 133.653 116.906 133.628L116.978 133.562L117.107 133.454C117.23 133.366 117.363 133.284 117.502 133.202H117.538C117.569 133.128 117.606 133.058 117.651 132.992C117.763 132.841 117.905 132.715 118.067 132.622C118.23 132.528 118.41 132.469 118.597 132.448V132.391C118.632 132.33 118.663 132.263 118.694 132.196C118.761 132.062 118.853 131.941 118.966 131.842C119.188 131.66 119.428 131.5 119.681 131.365L120.03 131.154L120.076 131.124C120.235 131.031 120.39 130.939 120.544 130.836L121.535 130.241L121.982 129.969L122.198 129.835H122.229C122.369 129.729 122.531 129.655 122.704 129.618C122.876 129.582 123.054 129.584 123.226 129.625C123.479 129.694 123.696 129.858 123.832 130.082L123.878 130.148L123.96 130.287L124.001 130.328C124.082 130.414 124.149 130.51 124.202 130.616C124.238 130.662 124.33 130.785 124.567 131.052L124.834 131.339L125.229 131.745L125.589 132.094C125.712 132.196 125.831 132.294 125.949 132.381C126.185 132.564 126.41 132.761 126.622 132.971C126.681 133.006 126.738 133.046 126.791 133.089C126.994 133.271 127.177 133.474 127.336 133.695C127.406 133.791 127.483 133.882 127.567 133.967L127.973 134.26C128.451 134.634 128.967 134.956 129.514 135.219C129.724 135.27 129.914 135.383 130.059 135.543V135.537Z" fill="white"/>
<path d="M166.692 254.486C166.229 252.433 165.716 250.339 165.227 248.266L163.686 242.066L162.073 235.907C161.513 233.854 160.973 231.801 160.388 229.748C159.237 225.642 158.045 221.536 156.714 217.497C156.647 217.235 156.528 216.99 156.366 216.774C156.203 216.558 156 216.376 155.767 216.239C155.534 216.102 155.276 216.012 155.009 215.974C154.741 215.936 154.469 215.951 154.207 216.019C153.945 216.086 153.699 216.204 153.483 216.367C153.267 216.529 153.085 216.732 152.948 216.965C152.81 217.197 152.72 217.455 152.682 217.722C152.644 217.99 152.66 218.262 152.727 218.523C153.498 222.722 154.402 226.884 155.353 231.041C155.815 233.094 156.324 235.188 156.812 237.262L158.353 243.462L159.961 249.621C160.526 251.673 161.061 253.726 161.646 255.779C162.797 259.885 163.994 263.991 165.325 268.03C165.461 268.558 165.802 269.01 166.271 269.286C166.741 269.563 167.302 269.642 167.83 269.506C168.358 269.37 168.81 269.03 169.087 268.561C169.364 268.091 169.443 267.531 169.307 267.004C168.541 262.806 167.637 258.664 166.692 254.486Z" fill="black"/>
<path d="M185.512 284.639L185.45 284.31L185.414 284.151V284.044L185.316 283.643L185.111 282.853L184.268 279.676L182.66 273.322L179.403 260.63L176.104 247.942C171.819 231.616 167.473 215.305 162.859 199.061L167.211 199.292L171.059 199.482L173.011 199.58C174.041 199.621 175.069 199.446 176.027 199.066C176.992 198.684 177.867 198.106 178.597 197.37C179.328 196.633 179.898 195.753 180.271 194.786C180.455 194.299 180.591 193.795 180.677 193.282L180.723 192.897L180.759 192.558L180.8 192.081L180.959 190.162C181.08 188.586 180.697 187.013 179.866 185.669C179.035 184.324 177.799 183.277 176.335 182.679C175.853 182.478 175.35 182.33 174.835 182.237C174.732 182.237 174.635 182.201 174.532 182.191L179.747 45.5151V45.1558C179.727 44.4094 179.411 43.7014 178.868 43.1875C178.326 42.6736 177.602 42.3958 176.854 42.4151C169.333 42.6102 161.811 42.641 154.294 42.5948L154.459 38.4427C154.492 37.6078 154.361 36.7746 154.072 35.9904C153.783 35.2063 153.343 34.4867 152.775 33.8728C152.208 33.2589 151.525 32.7627 150.766 32.4126C150.006 32.0624 149.185 31.8652 148.35 31.8321H148.226L142.862 31.7141L143.982 7.75089C144.009 6.77687 143.843 5.80715 143.495 4.89715C143.146 3.98714 142.621 3.15469 141.95 2.44736C141.28 1.74003 140.476 1.1717 139.585 0.774827C138.694 0.377958 137.734 0.160338 136.759 0.134405H136.702L126.899 0.000964841C124.955 -0.0302665 123.075 0.697773 121.659 2.03016C120.244 3.36254 119.405 5.19408 119.321 7.135L118.915 31.2573L111.147 31.0879C109.497 31.0477 107.896 31.6485 106.681 32.7638C105.466 33.879 104.731 35.4218 104.632 37.0672L104.365 41.4656L102.017 41.363C93.7089 40.9986 85.401 40.5675 77.0983 39.9311H76.9441C76.2031 39.9103 75.4841 40.184 74.9448 40.6919C74.4055 41.1999 74.0898 41.9008 74.0669 42.641V42.7641L70.3728 170.304L70.1416 178.26L69.5148 178.229L67.5265 178.136C65.9059 178.097 64.3136 178.565 62.9729 179.475C61.6323 180.386 60.6105 181.693 60.0509 183.212C59.8711 183.712 59.7386 184.228 59.6553 184.752C59.6193 185.014 59.5988 185.265 59.5783 185.548V186.061L59.5063 187.986V188.596C59.5103 189.133 59.5688 189.668 59.681 190.192C59.7349 190.457 59.8052 190.717 59.8917 190.973C60.229 191.996 60.7728 192.939 61.4895 193.744C62.203 194.549 63.0783 195.194 64.0585 195.638C64.554 195.859 65.0703 196.031 65.5998 196.151C65.8611 196.208 66.1252 196.25 66.391 196.279L66.7918 196.315H67.1309C69.6998 196.387 72.2687 196.464 74.8376 196.495C76.0022 196.519 77.1702 196.538 78.3416 196.551C75.4027 203.824 72.5975 211.138 69.8077 218.457C68.3177 222.429 66.7918 226.391 65.3326 230.374L60.9603 242.317C58.9463 247.927 56.9066 253.526 54.8977 259.141L48.0541 279.994C47.8716 280.554 47.8262 281.15 47.9217 281.732C48.0173 282.313 48.251 282.863 48.6033 283.336C48.9555 283.808 49.4161 284.189 49.9463 284.447C50.4765 284.705 51.061 284.833 51.6506 284.819C53.8855 284.747 65.3634 283.91 65.3634 283.91L71.6984 283.284L74.8684 282.971L76.4509 282.812L77.2421 282.735L77.6428 282.694L77.9357 282.658L78.2851 282.612C79.2125 282.447 80.1011 282.111 80.9054 281.621C81.6978 281.123 82.3939 280.487 82.9605 279.743C83.5241 278.993 83.9439 278.145 84.1987 277.243L84.6252 275.703L86.3155 269.545L89.6911 257.278L92.9998 244.991C97.295 228.942 101.518 212.883 105.454 196.747H105.68C108.249 196.782 110.818 196.824 113.387 196.906C114.979 196.947 116.577 196.988 118.17 197.039C119.069 203.655 119.901 210.291 120.739 216.917L122.018 227.064C122.419 230.446 122.84 233.828 123.221 237.216L124.371 247.373C124.567 249.066 124.767 250.76 124.988 252.448L125.306 254.984L125.389 255.615L125.43 255.939L125.517 256.452C125.652 257.124 125.885 257.773 126.211 258.376C126.794 259.413 127.639 260.279 128.661 260.889C129.683 261.498 130.847 261.83 132.037 261.851H137.827L142.965 261.764C144.388 261.723 145.817 261.687 147.24 261.62L150.061 273.994L150.79 277.187L151.155 278.783L151.335 279.583L151.432 280.004C151.489 280.225 151.551 280.441 151.622 280.651C152.222 282.343 153.448 283.742 155.049 284.557C155.25 284.659 155.455 284.747 155.661 284.829L156.082 284.988L158.394 285.85L170.679 290.469L175.303 292.194L176.068 292.481C176.163 292.506 176.255 292.537 176.346 292.574L176.669 292.671C176.881 292.739 177.098 292.792 177.317 292.83C178.216 293.005 179.141 293.005 180.04 292.83C181.377 292.547 182.605 291.883 183.574 290.92C184.544 289.957 185.215 288.735 185.506 287.4C185.689 286.489 185.691 285.551 185.512 284.639ZM123.94 8.28466C123.985 7.42513 124.361 6.61623 124.989 6.02704C125.617 5.43786 126.449 5.11398 127.31 5.1231L136.101 5.30274C136.538 5.31141 136.968 5.40592 137.368 5.58086C137.768 5.75581 138.13 6.00775 138.432 6.32232C138.735 6.63689 138.972 7.0079 139.131 7.41418C139.29 7.82045 139.367 8.25402 139.358 8.69012L138.752 31.6474L131.138 31.4831L130.907 17.5384C130.926 16.9939 130.729 16.4639 130.357 16.0649C129.986 15.666 129.471 15.4307 128.926 15.411C128.381 15.3913 127.85 15.5886 127.451 15.9597C127.052 16.3307 126.816 16.8451 126.796 17.3896L125.527 31.3394L123 31.283L123.94 8.28466ZM108.742 37.2827C108.776 36.7068 109.029 36.1655 109.449 35.7696C109.87 35.3737 110.425 35.1531 111.003 35.1528H111.054L120.903 35.3632L140.771 35.7943L148.149 35.9534C148.751 35.9669 149.322 36.2182 149.738 36.6522C150.154 37.0862 150.381 37.6673 150.369 38.2682V38.3041L150.199 42.5948C146.603 42.5948 143.006 42.5024 139.441 42.4613L126.966 42.1944L114.496 41.8198L108.49 41.5991L108.742 37.2827ZM79.8521 45.7153C87.2095 45.5716 94.5669 45.5716 101.945 45.628C103.419 45.628 104.894 45.628 106.374 45.664C109.056 45.6948 111.738 45.7461 114.419 45.7769L126.889 46.0438L139.358 46.4133C143.515 46.5827 147.671 46.7058 151.823 46.9265H152.188C159.381 47.2447 166.574 47.6245 173.767 48.1378L170.432 182.037L165.731 181.96C160.593 181.868 155.455 181.827 150.317 181.76C145.18 181.693 140.042 181.606 134.904 181.472C132.335 181.406 129.766 181.339 127.197 181.247C124.628 181.154 122.059 181.072 119.49 180.954L111.784 180.626L104.077 180.236L88.7046 179.337L74.2211 178.491L74.6167 169.16L79.8521 45.7153ZM87.4047 243.4L83.7466 255.584L80.1501 267.789L78.357 273.892L77.91 275.431C77.8686 275.55 77.8079 275.661 77.7302 275.76C77.5694 275.949 77.3478 276.076 77.1034 276.119L74.8325 276.34L85.0413 241.814C85.1858 241.303 85.126 240.755 84.8746 240.287C84.6231 239.818 84.1997 239.466 83.6932 239.303C83.1868 239.14 82.6368 239.179 82.159 239.413C81.6812 239.647 81.3129 240.057 81.1315 240.557L68.3588 276.94L64.675 277.284L58.3452 277.88L56.7576 278.028H56.4031H56.3209C56.1093 277.959 55.9281 277.819 55.8075 277.632C55.6868 277.446 55.6341 277.223 55.6581 277.002V276.853C55.6632 276.838 55.6632 276.822 55.6581 276.807L55.6889 276.709L55.9458 275.96L56.4596 274.456L58.5147 268.436C61.2943 260.424 63.9403 252.361 66.6428 244.314L70.5989 232.217C71.9193 228.182 73.1678 224.133 74.4831 220.094C76.9492 212.277 79.3897 204.461 81.676 196.587C84.5172 196.587 87.3585 196.613 90.1997 196.623H91.7411L90.1997 202.592C90.1161 202.849 90.0838 203.119 90.1047 203.388C90.1257 203.657 90.1995 203.919 90.3218 204.16C90.4442 204.4 90.6128 204.614 90.8179 204.789C91.0231 204.965 91.2608 205.098 91.5176 205.182C91.7743 205.265 92.045 205.297 92.3142 205.277C92.5834 205.256 92.8458 205.182 93.0865 205.06C93.3272 204.937 93.5415 204.769 93.717 204.564C93.8925 204.359 94.0259 204.122 94.1096 203.865L96.9971 196.639L101.97 196.67C96.9251 212.185 92.1213 227.787 87.4099 243.4H87.4047ZM121.201 192.913L120.174 192.877C117.944 192.81 115.724 192.718 113.495 192.62C110.926 192.523 108.357 192.389 105.788 192.251L104.175 192.158C99.5865 191.902 94.9933 191.588 90.4001 191.301C85.2623 190.967 80.1245 190.624 74.9866 190.377C72.4177 190.239 69.8488 190.136 67.2799 190.038H67.0589C67.0057 190.043 66.9521 190.033 66.9048 190.008C66.8274 189.972 66.7519 189.933 66.6787 189.89C66.4833 189.802 66.3083 189.674 66.165 189.515C66.0259 189.367 65.9176 189.192 65.8464 189.002C65.8273 188.954 65.8136 188.904 65.8053 188.853C65.7897 188.805 65.7793 188.755 65.7745 188.704C65.7693 188.651 65.7693 188.598 65.7745 188.545V188.196L65.831 186.271V185.65C65.8458 185.546 65.8699 185.443 65.9029 185.342C66.0553 184.935 66.3589 184.602 66.7507 184.413C66.949 184.321 67.164 184.271 67.3826 184.265L69.2528 184.3L73.101 184.372L88.5145 184.578L103.928 184.778L111.635 184.937L119.341 185.158C121.91 185.224 124.479 185.317 127.048 185.419C129.617 185.522 132.186 185.625 134.755 185.743C139.893 185.974 145.031 186.256 150.168 186.554C155.306 186.851 160.444 187.18 165.556 187.457L173.263 187.878H173.582C173.643 187.879 173.704 187.891 173.761 187.914C173.822 187.922 173.881 187.939 173.936 187.965C173.993 187.982 174.048 188.004 174.1 188.032C174.314 188.138 174.505 188.282 174.666 188.458C174.988 188.808 175.162 189.27 175.149 189.746L175.051 191.671V192.148V192.384C175.04 192.506 175.016 192.626 174.979 192.743C174.898 192.98 174.769 193.198 174.6 193.384C174.431 193.569 174.226 193.718 173.998 193.821C173.766 193.931 173.514 193.989 173.258 193.99L171.357 193.954L167.503 193.883L152.09 193.641L136.677 193.344C131.494 193.245 126.337 193.101 121.207 192.913H121.201ZM142.97 257.124L137.833 256.934L132.695 256.811H132.068L131.801 256.78C131.622 256.753 131.448 256.697 131.287 256.616C131.052 256.496 130.846 256.326 130.684 256.118C130.522 255.909 130.409 255.667 130.352 255.41C130.346 255.366 130.336 255.323 130.321 255.282L130.28 254.968L130.193 254.332L129.848 251.802C129.627 250.113 129.386 248.425 129.134 246.741L127.706 236.594C127.249 233.597 126.832 230.595 126.406 227.597L128.507 225.893L131.076 239.125C131.119 239.391 131.214 239.646 131.356 239.876C131.497 240.105 131.683 240.305 131.901 240.463C132.12 240.621 132.368 240.734 132.631 240.797C132.893 240.859 133.165 240.869 133.432 240.826C133.699 240.783 133.954 240.689 134.184 240.547C134.414 240.406 134.613 240.22 134.771 240.002C134.93 239.783 135.043 239.536 135.106 239.274C135.168 239.011 135.178 238.739 135.135 238.473L133.08 222.203L137.704 218.457C139.845 228.424 142.032 238.384 144.265 248.337L146.269 257.273L142.97 257.124ZM179.963 286.158C179.924 286.342 179.848 286.516 179.742 286.671C179.629 286.829 179.49 286.966 179.331 287.077C179.17 287.173 178.998 287.248 178.817 287.297C178.638 287.328 178.456 287.328 178.277 287.297C178.228 287.303 178.179 287.29 178.139 287.262H178.062C178.024 287.261 177.986 287.25 177.954 287.231L177.183 286.948L172.559 285.239L160.259 280.692L158.718 280.122L157.952 279.84L157.603 279.712L157.469 279.65C157.116 279.478 156.842 279.176 156.704 278.809C156.695 278.759 156.681 278.711 156.663 278.665L156.57 278.29L156.375 277.495L155.995 275.904L155.224 272.716L152.141 259.978L149.023 247.249C145.005 230.702 140.848 214.193 136.553 197.722L139.333 197.86L149.018 233.228C149.162 233.742 149.501 234.179 149.963 234.447C150.425 234.716 150.974 234.794 151.492 234.665C152.011 234.536 152.459 234.21 152.741 233.757C153.023 233.304 153.118 232.759 153.005 232.237L145.37 198.178L151.843 198.497L159.478 198.897C163.131 215.721 167.072 232.478 171.079 249.195L174.162 261.933L177.286 274.656L178.863 281.021L179.654 284.198L179.85 284.993L179.947 285.388V285.594C180.005 285.776 180.021 285.969 179.994 286.158H179.963Z" fill="black"/>
<path d="M83.5668 217.702C83.0755 217.468 82.5112 217.438 81.9978 217.619C81.4843 217.8 81.0638 218.177 80.8283 218.667C79.6929 221.059 78.7013 223.502 77.7456 225.96C76.79 228.419 75.9165 230.898 75.0791 233.392C74.2416 235.886 73.4247 238.386 72.6746 240.911C71.9245 243.436 71.1949 245.971 70.6195 248.543C70.443 249.058 70.4786 249.622 70.7186 250.111C70.9585 250.6 71.383 250.974 71.8988 251.15C72.4145 251.326 72.9793 251.291 73.4687 251.051C73.9582 250.811 74.3323 250.387 74.5088 249.872C75.6083 247.47 76.5639 245.022 77.5401 242.569C78.5163 240.115 79.3846 237.636 80.2478 235.147C81.1109 232.658 81.933 230.164 82.6985 227.644C83.464 225.124 84.1679 222.583 84.7536 219.996C84.8486 219.536 84.7825 219.057 84.5665 218.639C84.3505 218.222 83.9976 217.891 83.5668 217.702Z" fill="black"/>
<path d="M92.5837 116.748C92.7095 116.798 92.8437 116.824 92.9793 116.825C93.1691 116.824 93.355 116.771 93.5164 116.671C93.6778 116.572 93.8085 116.429 93.8939 116.26C94.6029 114.864 95.317 113.55 96.0158 112.36C96.8549 110.901 97.8174 109.517 98.893 108.223L99.0009 108.105C99.2475 107.833 99.4838 107.592 99.7253 107.355C99.7449 107.341 99.7623 107.324 99.7767 107.304C99.9565 107.124 100.141 106.965 100.342 106.791L100.676 106.498L101.354 105.903C101.499 105.792 101.614 105.647 101.688 105.48C101.762 105.313 101.792 105.13 101.775 104.948V104.861L101.657 103.681C101.616 103.26 101.575 102.844 101.539 102.413L100.881 94.4269V94.2934C100.64 93.1592 100.445 92.2405 99.9103 91.9326C99.9216 91.7413 99.9456 91.5509 99.9822 91.3628C100.08 91.2352 100.146 91.0865 100.175 90.9288C100.205 90.771 100.197 90.6085 100.152 90.4544L99.566 88.4015C99.2989 84.5854 99.2526 80.7571 99.4273 76.9357C99.4633 76.1709 99.5095 75.4421 99.5609 74.739C99.8175 74.7382 100.065 74.6456 100.259 74.478C100.454 74.3104 100.581 74.0789 100.619 73.8254C100.7 73.3075 100.739 72.7841 100.737 72.26C100.737 71.8597 100.773 71.3927 100.799 70.9051C100.864 69.5447 101.078 68.1954 101.436 66.8813C101.59 66.2573 101.889 65.6786 102.31 65.1927C102.448 65.139 102.572 65.0561 102.675 64.9499C102.778 64.8436 102.857 64.7163 102.906 64.5768C103.074 64.618 103.251 64.618 103.419 64.5768C103.469 64.5616 103.518 64.541 103.563 64.5152C103.856 65.327 104.066 66.1661 104.19 67.0199C104.349 68.0207 104.488 69.042 104.663 70.3303C104.879 71.9162 105.146 73.887 105.557 76.561C105.578 76.7002 105.628 76.8336 105.703 76.9528C105.778 77.072 105.877 77.1745 105.993 77.2539C106.104 77.3344 106.23 77.392 106.363 77.4232C106.41 77.6029 106.451 77.762 106.487 77.9365C106.523 78.111 106.595 78.3676 106.646 78.5883C106.893 79.8061 107.041 81.0419 107.088 82.2836V83.4897C106.828 83.4113 106.547 83.4392 106.307 83.5671C106.067 83.695 105.888 83.9127 105.809 84.1723C105.773 84.2834 105.757 84.3998 105.762 84.5162C105.891 86.8669 106.055 88.3347 106.235 89.8847C106.348 90.8547 106.461 91.8607 106.569 93.1233C106.588 93.3188 106.661 93.5052 106.78 93.6622V96.9161C106.78 97.6962 106.78 98.5123 106.738 99.3335C106.738 100.36 106.697 101.453 106.702 102.469C106.702 102.742 106.811 103.003 107.003 103.195C107.196 103.388 107.458 103.496 107.73 103.496C107.826 103.495 107.921 103.482 108.013 103.455C109.246 103.096 110.35 102.752 111.316 102.428C111.732 102.285 112.128 102.161 112.508 102.038L113.536 101.71C113.75 101.802 113.989 101.818 114.214 101.756L115.329 101.453L115.483 101.412C115.663 101.361 115.848 101.304 116.033 101.263L116.47 101.161C116.834 101.073 117.209 100.986 117.61 100.909C118.088 100.812 118.638 100.699 119.27 100.611C119.783 100.529 120.297 100.452 120.914 100.38C122.095 100.232 123.195 100.139 124.166 100.062C124.931 99.9956 125.599 99.9391 126.098 99.8724C126.394 99.8875 126.689 99.9217 126.981 99.975L127.886 100.098L129.895 100.555L130.28 100.647C130.542 100.704 130.794 100.771 131.046 100.848L131.528 100.981L133.584 101.571C133.722 101.612 133.868 101.623 134.012 101.604C134.155 101.584 134.293 101.535 134.416 101.458C134.54 101.383 134.646 101.281 134.727 101.161C134.808 101.04 134.861 100.904 134.883 100.76C135.002 100.083 135.11 99.3591 135.217 98.6457C135.289 98.1325 135.361 97.65 135.438 97.1727L135.952 94.1857C136.24 92.6459 136.502 91.4193 136.774 90.285C137.375 87.6809 138.116 85.111 138.994 82.5864C139.508 81.1802 139.965 79.9587 140.448 78.8449C140.607 78.4703 140.766 78.1007 140.961 77.7312C141.362 76.8638 141.773 76.0375 142.189 75.2625C143.3 73.0716 144.738 71.0624 146.454 69.3038C146.937 69.0021 147.454 68.7591 147.995 68.5801C148.067 68.5613 148.136 68.5337 148.201 68.498C148.48 68.3398 148.787 68.2353 149.105 68.19H149.29L149.403 68.2465L149.449 68.2978C149.492 68.357 149.532 68.4187 149.567 68.4826C149.709 68.7729 149.799 69.0854 149.835 69.4064C149.675 69.5721 149.552 69.7698 149.475 69.9864C149.44 70.1065 149.423 70.2309 149.424 70.3559V71.0437C149.39 71.4062 149.441 71.7716 149.573 72.1112C149.621 72.2084 149.685 72.2968 149.763 72.373C149.444 75.514 148.596 79.1991 147.707 81.0262C147.589 81.2678 147.571 81.5461 147.656 81.8012L148.17 83.2588C148.228 83.4239 148.327 83.5714 148.459 83.6872C148.59 83.8031 148.749 83.8835 148.92 83.9209C148.741 84.1757 148.582 84.4433 148.442 84.7215L148.339 84.9114C148.142 84.9202 147.951 84.9859 147.789 85.1006C147.628 85.2154 147.503 85.3742 147.43 85.5581C146.562 87.8824 145.55 90.1502 144.399 92.3483C143.722 93.5166 142.959 94.6334 142.118 95.6895L141.938 95.9307C141.887 96.0001 141.845 96.0761 141.814 96.1565C141.583 96.7108 141.393 97.183 141.244 97.5628C140.972 98.1941 140.73 98.7227 140.566 99.1641C140.28 99.7831 140.072 100.435 139.944 101.104C139.918 101.307 139.953 101.513 140.044 101.696C140.136 101.879 140.28 102.03 140.458 102.131C140.805 102.337 141.172 102.509 141.552 102.644C141.862 102.752 142.158 102.898 142.431 103.08L142.868 103.455L143.176 103.742L143.983 104.512C144.378 104.907 144.758 105.333 145.123 105.744L145.18 105.805C145.555 106.272 145.92 106.734 146.248 107.166C146.577 107.597 146.916 108.115 147.23 108.577C148.036 109.804 148.771 111.02 149.48 112.298C149.213 112.34 148.971 112.477 148.797 112.683C148.671 112.842 148.595 113.034 148.579 113.236C148.562 113.438 148.606 113.64 148.704 113.817C148.879 114.13 149.095 114.531 149.295 114.926C149.486 115.302 149.658 115.687 149.809 116.081C149.893 116.297 150.047 116.479 150.248 116.597C150.449 116.714 150.683 116.76 150.913 116.727C151.011 116.963 151.114 117.205 151.212 117.451L151.289 117.641C151.87 119.057 152.371 120.505 152.789 121.978C153.204 123.413 153.504 124.878 153.688 126.361C153.77 127.141 153.827 127.772 153.878 128.285C153.929 128.881 153.971 129.312 154.022 129.687C154.086 130.086 154.177 130.48 154.294 130.867C153.667 131.103 153.446 131.976 153.267 132.709C153.251 132.77 153.241 132.832 153.236 132.894C153.174 133.915 153.041 134.93 152.84 135.933C152.835 135.998 152.835 136.063 152.84 136.128C152.84 136.497 152.809 136.851 152.779 137.226L152.686 138.335C152.675 138.483 152.656 138.63 152.63 138.776L152.594 139.027C152.45 140.057 152.183 141.065 151.797 142.03L151.715 142.174L151.268 142.944C151.092 142.938 150.917 142.97 150.754 143.036C150.318 143.216 149.937 143.621 149.048 144.576L148.386 145.284C148.329 145.345 148.279 145.412 148.237 145.484C148.026 145.859 147.846 146.126 147.687 146.362C147.589 146.511 147.502 146.644 147.44 146.747C147.243 147.055 147.061 147.374 146.896 147.701C146.829 147.832 146.791 147.976 146.785 148.123C146.779 148.27 146.804 148.417 146.86 148.553L146.495 148.902L146.233 149.159C146.058 149.328 145.884 149.508 145.688 149.672L144.707 150.524C144.317 150.888 143.88 151.227 143.423 151.586L142.76 152.1L142.59 152.238L142.282 152.413L141.768 152.757C141.424 152.993 141.09 153.234 140.782 153.465C140.473 153.696 140.268 153.814 140.062 153.978C139.744 154.199 139.436 154.409 139.163 154.63C137.41 155.769 135.466 156.582 133.424 157.032C132.489 157.221 131.529 157.254 130.583 157.129L129.761 157.037C129.145 156.965 128.441 156.883 127.526 156.852C126.982 156.806 126.36 156.786 125.641 156.76C124.474 156.719 123.02 156.668 121.119 156.503C120.922 156.484 120.723 156.523 120.548 156.614C120.372 156.705 120.226 156.845 120.128 157.017H119.932L119.573 156.97C119.059 156.904 118.509 156.827 117.903 156.703C116.32 156.416 114.512 155.918 113.135 155.518L109.076 154.24C107.881 153.762 106.731 153.18 105.639 152.5C104.879 152.023 104.236 151.551 103.425 150.96L103.019 150.663C102.942 150.605 102.857 150.56 102.767 150.529C102.145 150.268 101.538 149.973 100.948 149.646C99.6585 148.984 99.2115 148.764 98.8519 148.717C98.5821 148.681 98.3089 148.753 98.0921 148.917C97.8754 149.082 97.7329 149.326 97.6959 149.595C97.6707 149.752 97.6848 149.912 97.7369 150.062C98.2507 151.515 100.347 153.711 103.389 155.944C107.43 158.844 111.901 161.095 116.639 162.616C116.699 162.637 116.761 162.651 116.824 162.657C117.051 162.696 117.282 162.715 117.512 162.714C120.389 163.288 123.313 163.592 126.247 163.622C126.761 163.622 127.274 163.622 127.752 163.591C131.556 163.469 135.286 162.514 138.68 160.794C138.808 160.726 138.919 160.632 139.008 160.518C139.096 160.404 139.16 160.272 139.194 160.132L139.564 159.988C140.41 159.685 141.226 159.308 142.004 158.859C142.14 158.783 142.257 158.678 142.346 158.551C142.435 158.424 142.494 158.278 142.518 158.125L143.335 157.576L145.175 156.231L145.909 155.692L147.081 154.82C147.533 154.45 147.975 154.065 148.442 153.65L148.992 153.167C149.475 152.721 149.937 152.254 150.431 151.756L150.908 151.279L150.955 151.227L151.874 150.201L151.998 150.062C152.298 149.737 152.58 149.394 152.84 149.036L153.174 148.605C153.317 148.68 153.475 148.719 153.637 148.717C153.884 148.717 154.123 148.628 154.31 148.466C154.491 148.305 154.663 148.134 154.823 147.953L155.019 147.753C155.08 147.696 155.132 147.63 155.173 147.558C155.927 146.307 156.596 145.007 157.177 143.667C157.262 143.47 157.283 143.251 157.237 143.041C157.191 142.831 157.08 142.641 156.92 142.497C157.146 142.009 157.356 141.532 157.552 141.06C157.645 141.086 157.742 141.1 157.839 141.101C158.046 141.1 158.248 141.037 158.419 140.92C158.589 140.803 158.72 140.637 158.795 140.444L158.831 140.357C159.083 139.705 159.345 138.971 159.643 138.129C159.694 137.945 159.751 137.76 159.807 137.565C160.017 136.882 160.188 136.188 160.321 135.486C160.552 134.516 160.681 133.546 160.835 132.489V132.432L160.871 132.037C160.943 131.144 161.02 130.22 161.009 129.302C161.025 125.228 160.258 121.189 158.749 117.405C158.717 117.326 158.675 117.252 158.625 117.184C158.415 116.891 157.952 116.276 157.31 116.322C157.084 115.86 156.858 115.388 156.627 114.921C156.743 114.809 156.833 114.673 156.889 114.521C156.945 114.37 156.966 114.208 156.95 114.048C156.95 113.653 156.755 113.15 156.144 111.8C155.275 110.022 154.282 108.307 153.174 106.668C153.047 106.482 152.863 106.344 152.649 106.274C152.436 106.203 152.205 106.205 151.992 106.278C151.057 104.738 150.204 103.496 149.336 102.336L149.156 102.11C148.643 101.458 148.129 100.781 147.548 100.15L147.867 99.4156C148.262 98.4764 148.622 97.4961 148.951 96.485C149.372 96.0949 149.742 95.3148 150.282 94.0728C150.821 92.8307 151.381 91.3064 151.756 90.3056L151.879 89.9668C152.955 87.1124 153.867 84.1993 154.613 81.2417C155.784 76.3454 155.173 76.1093 154.531 75.8373C154.411 75.796 154.287 75.7701 154.161 75.7603C154.545 74.3134 154.794 72.8341 154.906 71.3413C155.017 70.0391 154.958 68.7278 154.731 67.4407C154.591 66.6672 154.339 65.9183 153.981 65.2184C153.546 64.3389 152.859 63.6083 152.008 63.1192C151.842 63.0275 151.67 62.947 151.494 62.878H151.432C151.517 62.6253 151.5 62.3497 151.385 62.1093C151.27 61.8689 151.066 61.6826 150.816 61.5898C150.596 61.5133 150.369 61.4599 150.138 61.4307L149.845 61.3845C149.675 61.3537 149.506 61.3332 149.331 61.3178H149.079C148.736 61.3076 148.393 61.3231 148.052 61.3639C147.251 61.4663 146.469 61.6824 145.729 62.0055C144.452 62.5806 143.277 63.3608 142.251 64.3151C140.469 66.0411 138.943 68.0132 137.72 70.1711C136.029 73.1856 134.519 76.2979 133.198 79.4916C132.777 80.4514 132.371 81.3855 131.965 82.2939C131.965 82.3247 131.965 82.3606 131.924 82.3914C131.41 83.9824 131.189 85.0808 131.302 85.671C131.355 85.9279 131.49 86.1606 131.688 86.3331C131.155 87.5584 130.711 88.8209 130.362 90.1105L130.265 90.4698C130.141 90.9163 130.018 91.368 129.91 91.8196L129.443 93.7494C129.41 93.7972 129.381 93.8469 129.355 93.8983C129.262 94.1222 129.223 94.3648 129.242 94.6065C129.249 94.7563 129.288 94.9028 129.357 95.0358C129.426 95.1688 129.524 95.2851 129.643 95.3764C129.422 95.3302 129.206 95.2891 128.99 95.2378H128.913L127.567 95.0274C127.13 94.9504 126.689 94.8991 126.247 94.8631H126.088L125.646 94.817C125.348 94.7862 125.034 94.7554 124.752 94.7502C121.669 94.6065 120.919 95.1146 120.672 95.2635C120.491 95.3905 120.353 95.5695 120.277 95.7767L119.701 95.8434L118.011 96.0539C116.896 96.1976 115.843 96.331 115.015 96.3875C114.919 96.3939 114.824 96.4129 114.733 96.4439C114.414 96.5568 113.983 96.68 113.479 96.8186L112.863 96.9931C112.411 97.1163 111.943 97.2497 111.486 97.3883V96.7057C111.45 96.0025 111.398 95.4277 111.342 94.9966C111.335 94.4988 111.153 94.0192 110.828 93.6416V93.6262C110.715 89.664 110.51 84.3879 109.944 78.9322C109.665 76.1007 109.237 73.2859 108.66 70.4996C108.378 69.1118 108.018 67.741 107.581 66.3937C107.191 65.1395 106.658 63.9341 105.993 62.801C105.89 62.396 105.716 62.0121 105.48 61.6668C105.133 61.1444 104.65 60.7271 104.082 60.4606C103.444 60.1934 102.735 60.1482 102.068 60.3323C101.894 60.3676 101.722 60.4156 101.554 60.476L101.477 60.5068C101.307 60.476 101.133 60.476 100.964 60.5068C100.516 60.6259 100.098 60.8355 99.7356 61.1227L99.6893 61.1587C99.2458 61.5188 98.8364 61.9191 98.4665 62.3545C98.3638 62.4726 98.2199 62.6317 98.1634 62.6881C98.0359 62.7821 97.9306 62.903 97.8552 63.0422C97.7014 63.3534 97.5676 63.6739 97.4544 64.002L97.3157 64.3613L97.2848 64.4537L97.1615 64.8488C97.069 65.1465 96.9714 65.4493 96.8995 65.7624L96.843 66.0088C96.7556 66.3629 96.6632 66.7324 96.6066 67.0712C96.5501 67.4099 96.4423 67.9386 96.3703 68.4364C96.1041 70.2345 95.9326 72.0453 95.8565 73.8613C95.7281 77.0742 95.7743 80.5335 96.0106 84.8242C96.211 88.3501 96.5244 92.0403 96.9611 95.7972C97.1769 97.6552 97.4133 99.4772 97.665 101.212C97.7421 101.725 97.8192 102.274 97.9014 102.803L98.0915 104.071L97.8192 104.338C97.7215 104.43 97.624 104.527 97.5315 104.625L97.0999 105.113C96.9701 105.255 96.8499 105.406 96.7402 105.564L96.7094 105.61C95.7692 107.194 94.9118 108.825 94.1405 110.496C93.356 112.106 92.6697 113.762 92.0853 115.454C91.9916 115.693 91.9908 115.958 92.0831 116.198C92.1753 116.437 92.3539 116.633 92.5837 116.748ZM130.28 94.2575L132.921 92.7178L131.991 97.0598L129.936 96.8545L130.28 94.2575Z" fill="#90D35B"/>
<path d="M129.746 121.783C129.667 123.1 130.065 124.402 130.866 125.452C131.624 126.445 132.721 127.124 133.948 127.362H134.2C134.535 127.357 134.868 127.325 135.197 127.264L135.387 127.238H135.531C136.142 127.249 136.751 127.151 137.329 126.951C137.463 126.895 137.584 126.811 137.683 126.705C137.782 126.599 137.858 126.473 137.904 126.335C137.966 126.159 137.977 125.968 137.935 125.786H138.1C139.338 125.694 139.965 125.149 139.965 124.164C139.965 124.05 139.949 123.936 139.919 123.825C140.026 123.796 140.127 123.748 140.217 123.682C140.252 123.668 140.285 123.649 140.314 123.625C140.374 123.587 140.43 123.544 140.484 123.497C140.531 123.465 140.574 123.427 140.612 123.384C140.747 123.246 140.868 123.095 140.972 122.932C141.018 122.856 141.056 122.775 141.085 122.691C141.326 122.143 141.399 121.536 141.295 120.946C140.969 119.762 140.286 118.708 139.338 117.926C138.39 117.144 137.224 116.674 135.998 116.578C135.751 116.559 135.504 116.63 135.305 116.779C134.868 116.682 134.412 116.716 133.995 116.876C133.905 116.917 133.821 116.969 133.743 117.03C133.436 117.072 133.134 117.139 132.839 117.23C132.765 117.252 132.695 117.281 132.628 117.317C131.788 117.796 131.082 118.477 130.573 119.299C130.477 119.453 130.422 119.63 130.414 119.812C130.25 120.062 130.105 120.325 129.982 120.597C129.957 120.655 129.936 120.715 129.92 120.777C129.908 120.872 129.89 120.966 129.864 121.059C129.848 121.166 129.848 121.275 129.864 121.382L129.823 121.5C129.787 121.591 129.761 121.686 129.746 121.783Z" fill="#90D35B"/>
<path d="M128.045 134.213L127.639 133.921C127.555 133.836 127.478 133.745 127.408 133.649C127.249 133.428 127.066 133.225 126.863 133.043C126.811 132.998 126.754 132.958 126.694 132.925C126.482 132.715 126.257 132.518 126.021 132.335C125.903 132.248 125.784 132.15 125.661 132.047L125.301 131.698L124.906 131.293L124.639 131.006C124.402 130.739 124.31 130.616 124.274 130.569C124.221 130.464 124.154 130.367 124.073 130.282L124.032 130.241L123.95 130.102L123.904 130.036C123.768 129.812 123.551 129.648 123.298 129.579C123.126 129.538 122.948 129.536 122.776 129.572C122.603 129.609 122.441 129.683 122.301 129.789H122.27L122.054 129.923L121.607 130.195L120.631 130.805C120.477 130.908 120.323 131 120.164 131.093L120.117 131.124L119.768 131.334C119.515 131.47 119.276 131.63 119.054 131.811C118.941 131.91 118.848 132.031 118.782 132.165C118.751 132.232 118.72 132.299 118.684 132.361V132.417C118.497 132.438 118.317 132.498 118.155 132.591C117.992 132.685 117.85 132.811 117.739 132.961C117.694 133.027 117.656 133.098 117.626 133.171H117.59C117.451 133.254 117.317 133.336 117.194 133.423L117.065 133.531L116.994 133.597C116.839 133.622 116.691 133.676 116.557 133.757L116.444 133.782C116.029 133.868 115.653 134.084 115.37 134.398H115.252C114.988 134.373 114.721 134.387 114.461 134.439C113.818 134.583 112.745 134.819 112.339 134.665C112.25 134.63 112.156 134.607 112.061 134.598V134.516C112.054 134.482 112.042 134.449 112.025 134.419C112.019 134.366 112.005 134.314 111.984 134.265C111.986 134.246 111.984 134.228 111.976 134.21C111.969 134.193 111.958 134.178 111.943 134.167C111.923 134.022 111.87 133.884 111.789 133.762C111.791 133.743 111.789 133.724 111.782 133.706C111.776 133.689 111.766 133.672 111.753 133.659C111.714 133.526 111.648 133.403 111.56 133.296C111.471 133.189 111.362 133.102 111.239 133.038L111.131 132.992C111.041 132.98 110.953 132.956 110.869 132.92C110.758 132.756 110.689 132.568 110.666 132.371C110.644 132.175 110.669 131.975 110.741 131.791C110.717 131.732 110.686 131.677 110.648 131.627C110.564 131.401 110.407 131.209 110.201 131.083C110.119 131.035 110.031 130.997 109.939 130.97C109.82 130.865 109.679 130.789 109.525 130.748C109.372 130.707 109.211 130.702 109.056 130.734C108.603 130.84 108.149 130.939 107.694 131.031C107.559 131.139 107.449 131.276 107.373 131.431C107.297 131.586 107.256 131.757 107.252 131.929C107.248 132.07 107.272 132.209 107.324 132.34C107.319 132.407 107.319 132.474 107.324 132.54V132.566L107.252 132.663C107.143 132.83 107.073 133.019 107.047 133.216C107.021 133.413 107.04 133.614 107.103 133.803C107.067 133.962 107.067 134.126 107.103 134.285L107.144 134.439C107.182 134.557 107.235 134.67 107.304 134.773L107.345 134.85C107.494 135.185 107.711 135.485 107.982 135.733L108.141 135.902L108.187 135.948V136.056C108.182 136.111 108.195 136.167 108.223 136.215C108.201 136.389 108.224 136.566 108.29 136.728C108.366 136.907 108.474 137.07 108.609 137.211C108.684 137.403 108.803 137.574 108.957 137.713C109.11 137.851 109.293 137.951 109.492 138.006L109.569 138.037L109.667 138.073C109.778 138.163 109.905 138.231 110.042 138.273C110.214 138.41 110.396 138.534 110.587 138.643C110.613 138.696 110.646 138.746 110.684 138.791C110.785 138.923 110.913 139.031 111.059 139.11C111.16 139.259 111.298 139.379 111.46 139.459C112.377 139.911 113.404 140.089 114.42 139.972C115.126 139.892 115.787 139.586 116.305 139.099C116.529 139.125 116.755 139.125 116.978 139.099C117.236 139.095 117.49 139.038 117.725 138.933C117.96 138.827 118.171 138.674 118.345 138.483L118.607 138.237L118.812 138.037C119.426 137.495 120.085 137.006 120.78 136.574C120.986 136.431 121.207 136.302 121.427 136.169L121.849 135.912L122.039 135.799L122.136 135.933C122.224 136.046 122.301 136.148 122.368 136.251L122.594 136.549L122.676 136.651C122.78 136.788 122.917 136.896 123.074 136.966C123.232 137.036 123.404 137.065 123.575 137.052L124.222 137.462C124.341 137.537 124.474 137.588 124.612 137.61C124.751 137.632 124.893 137.625 125.029 137.59H125.081C125.185 137.737 125.303 137.873 125.435 137.996C125.554 138.104 125.696 138.183 125.851 138.227C126.376 138.597 126.929 138.924 127.506 139.207C127.64 139.364 127.819 139.477 128.019 139.53L128.179 139.577L128.328 139.623C128.418 139.755 128.538 139.864 128.678 139.942C128.818 140.019 128.974 140.063 129.134 140.069C129.282 140.079 129.43 140.096 129.576 140.121L129.771 140.152C129.969 140.192 130.171 140.213 130.372 140.213C130.524 140.214 130.675 140.202 130.825 140.177C131.937 140.259 133.051 140.03 134.041 139.515C135.026 139.006 135.857 138.242 136.445 137.303C136.522 137.187 136.571 137.056 136.589 136.918C136.656 136.781 136.714 136.641 136.764 136.497L136.831 136.328C136.867 136.24 136.908 136.154 136.954 136.071C136.973 136.042 136.99 136.011 137.005 135.979C137.043 135.912 137.086 135.849 137.134 135.789C137.245 135.658 137.321 135.501 137.355 135.332L137.406 135.086C137.432 134.382 137.514 133.682 137.653 132.992C137.663 132.86 137.684 132.73 137.714 132.602C137.752 132.3 137.71 131.994 137.592 131.714C137.473 131.434 137.284 131.189 137.041 131.006C136.859 130.924 136.658 130.894 136.46 130.919C136.261 130.943 136.073 131.021 135.916 131.144C135.7 131.289 135.524 131.484 135.402 131.714C135.258 131.844 135.151 132.011 135.094 132.196C134.51 133.095 133.82 133.92 133.039 134.655C132.982 134.711 132.931 134.773 132.88 134.834C132.581 135.199 132.159 135.441 131.693 135.517C131.427 135.589 131.151 135.62 130.876 135.609C130.61 135.598 130.345 135.564 130.085 135.507C129.965 135.342 129.801 135.213 129.612 135.137C129.057 134.888 128.532 134.578 128.045 134.213Z" fill="#90D35B"/>
<path d="M114.394 120.089C114.437 119.946 114.448 119.795 114.427 119.647C114.406 119.499 114.352 119.357 114.27 119.232C114.228 119.168 114.194 119.099 114.168 119.027C114.073 118.797 113.945 118.582 113.787 118.39C113.639 118.146 113.454 117.926 113.238 117.738C112.892 117.394 112.49 117.11 112.051 116.897L111.917 116.845L111.789 116.799L111.172 116.599H111.008C110.874 116.553 110.733 116.536 110.592 116.548H110.391C110.19 116.445 109.962 116.409 109.739 116.445C109.625 116.44 109.511 116.45 109.4 116.476C109.287 116.507 109.107 116.476 108.937 116.512C108.81 116.491 108.68 116.491 108.552 116.512C108.438 116.494 108.322 116.494 108.208 116.512C107.975 116.543 107.749 116.614 107.54 116.722C107.451 116.739 107.365 116.767 107.283 116.804C107.139 116.877 107.011 116.978 106.908 117.102C106.343 117.429 105.833 117.843 105.397 118.329C104.596 119.2 104.14 120.333 104.113 121.516C104.077 122.726 104.456 123.912 105.187 124.877C105.35 125.108 105.576 125.287 105.839 125.391L105.885 125.442L105.952 125.509C106.133 125.686 106.356 125.815 106.6 125.883C107.501 126.478 108.556 126.797 109.636 126.802C110.438 126.811 111.23 126.635 111.953 126.289C112.799 125.869 113.51 125.222 114.008 124.421C114.521 123.599 114.776 122.642 114.738 121.675C114.73 121.484 114.669 121.3 114.562 121.142C114.455 120.985 114.306 120.86 114.132 120.782V120.546C114.259 120.42 114.349 120.262 114.394 120.089ZM108.593 117.097C108.558 117.035 108.515 116.978 108.465 116.927C108.514 116.969 108.557 117.017 108.593 117.071V117.097Z" fill="#90D35B"/>
<path d="M132.921 92.7178L130.285 94.2576L129.967 96.8546L131.996 97.0599L132.921 92.7178Z" fill="#90D35B"/>
<path d="M212.346 262.996C222.096 262.996 230 261.339 230 259.295C230 257.251 222.096 255.595 212.346 255.595C202.597 255.595 194.693 257.251 194.693 259.295C194.693 261.339 202.597 262.996 212.346 262.996Z" fill="#90D35B"/>
<path d="M13.8773 293.379C21.5415 293.379 27.7546 292.077 27.7546 290.469C27.7546 288.862 21.5415 287.559 13.8773 287.559C6.21307 287.559 0 288.862 0 290.469C0 292.077 6.21307 293.379 13.8773 293.379Z" fill="#90D35B"/>
<path d="M203.083 298.722C207.444 298.722 210.98 297.73 210.98 296.505C210.98 295.28 207.444 294.288 203.083 294.288C198.722 294.288 195.186 295.28 195.186 296.505C195.186 297.73 198.722 298.722 203.083 298.722Z" fill="#90D35B"/>
<path d="M208.395 300.082C210.575 300.082 212.341 299.586 212.341 298.974C212.341 298.361 210.575 297.865 208.395 297.865C206.216 297.865 204.45 298.361 204.45 298.974C204.45 299.586 206.216 300.082 208.395 300.082Z" fill="#90D35B"/>
<path d="M89.8812 301.755C102.664 301.755 113.027 299.405 113.027 296.505C113.027 293.605 102.664 291.255 89.8812 291.255C77.0981 291.255 66.7353 293.605 66.7353 296.505C66.7353 299.405 77.0981 301.755 89.8812 301.755Z" fill="#90D35B"/>
<path d="M134.436 297.86C138.92 297.86 142.554 296.686 142.554 295.237C142.554 293.789 138.92 292.615 134.436 292.615C129.953 292.615 126.319 293.789 126.319 295.237C126.319 296.686 129.953 297.86 134.436 297.86Z" fill="#90D35B"/>
<path d="M75.0945 305.328C79.5778 305.328 83.2123 304.153 83.2123 302.705C83.2123 301.257 79.5778 300.082 75.0945 300.082C70.6112 300.082 66.9767 301.257 66.9767 302.705C66.9767 304.153 70.6112 305.328 75.0945 305.328Z" fill="#90D35B"/>
<path d="M125.712 307.925C127.954 307.925 129.771 307.336 129.771 306.611C129.771 305.885 127.954 305.297 125.712 305.297C123.471 305.297 121.654 305.885 121.654 306.611C121.654 307.336 123.471 307.925 125.712 307.925Z" fill="#90D35B"/>
<path d="M116.747 277.628C118.989 277.628 120.806 277.04 120.806 276.314C120.806 275.589 118.989 275 116.747 275C114.505 275 112.688 275.589 112.688 276.314C112.688 277.04 114.505 277.628 116.747 277.628Z" fill="#90D35B"/>
</svg>
