<svg xmlns="http://www.w3.org/2000/svg" viewBox="0 0 1017.23 1440.89">
    <g id="merged">
        <path d="M490.19 714.31s-.11-.16-.27-.25c.14.21.27.29.27.25Z" style="fill:none"/>
        <path class="cls-2" d="M490.65 1197.6a4 4 0 0 0 2.8 1.14 4.3 4.3 0 0 0 .62 0 660.08 660.08 0 0 0 98.39-23.33 4 4 0 0 0 2.78-4c-2.16-41.86-8-73.18-11.33-88.12a4 4 0 0 0-5.21-2.92h-.09l-.06.12c-2 3.48-4 6.93-6.06 10.36 1.31-.42 2.81-.91 4.54-1.49a547.15 547.15 0 0 1 10.06 79.35 652.46 652.46 0 0 1-89 21.26c2.3-17.44 4.24-36.94 5.8-58.08q-4-.21-8-.47c-1.71 23.12-3.88 44.23-6.47 62.8a4 4 0 0 0 1.23 3.38ZM644 1060.7a4 4 0 0 0-3.29.16c-.23.12-22.6 11.52-45 16.51a4 4 0 0 0-3 4.8c2.17 9.48 7.53 36.68 10.3 84.41a4 4 0 0 0 5.3 3.55c21.26-7.33 42.66-15.85 63.61-25.34a4 4 0 0 0 2.11-5l-27.7-76.73a4 4 0 0 0-2.33-2.36Zm-33.36 100.13c-2.55-39.9-6.87-64.9-9.32-76.57a225.42 225.42 0 0 0 39-14.29l24.93 69a713 713 0 0 1-54.59 21.86ZM361.71 1133.74a4 4 0 0 0 3.08 2.24 640.74 640.74 0 0 0 82 5.48c12 0 24.45-.38 37.07-1.32a4 4 0 0 0 3.69-3.68c.15-1.9.29-3.75.43-5.59-2.66-.18-5.32-.36-8-.58-.05.7-.1 1.4-.16 2.11-43 2.87-84-.66-107.92-3.58 3-5 5.41-9.15 7-12-2.77-.51-5.55-1-8.32-1.58-2.13 3.68-5.12 8.76-8.71 14.64a4 4 0 0 0-.16 3.86ZM481.91 1148.29c-11.45.79-23.4 1.2-35.53 1.2a631.47 631.47 0 0 1-89.77-6.56 4 4 0 0 0-4 1.79c-3.75 5.82-7.07 11.83-10.29 17.65-5.72 10.35-11.13 20.13-18.34 28a4 4 0 0 0 2.12 6.6c.44.1 33.23 6.91 88.19 6.91 18.59 0 39.72-.78 63-2.86a4 4 0 0 0 3.6-3.41c2-13.58 3.76-28.72 5.26-45a4 4 0 0 0-4.26-4.36Zm-8.46 45.08c-71.4 6.08-121.65-.22-139-3 5.61-7.34 10.15-15.54 14.9-24.13 2.75-5 5.58-10.08 8.64-15a643.33 643.33 0 0 0 88.38 6.27c10.66 0 21.2-.31 31.39-.92a931.924 931.924 0 0 1-4.31 36.78ZM424 1035a4 4 0 0 0 2.41 2.65c75.07 29.1 112.1 31.43 132 32.69h.25a4 4 0 0 0 3.63-2.32c9-19.38 13.4-29.47 13.44-29.57a4 4 0 0 0-3-5.54c-36.37-6.58-68.83-17.9-97.47-27.89-7.92-2.76-15.41-5.37-22.85-7.85a4 4 0 0 0-4.63 1.63c-4.66 7.23-12.45 18.77-23.15 32.67a4 4 0 0 0-.63 3.53Zm28.86-29.25c6.44 2.17 13 4.45 19.81 6.84 27.62 9.62 58.74 20.48 93.69 27.27-2 4.38-5.34 11.86-10.18 22.32-19.59-1.28-54.58-4.47-121.92-30.08 8.1-10.72 14.34-19.82 18.62-26.36ZM467.07 1060.75a4 4 0 0 0-2.56-2.31 928.368 928.368 0 0 1-45.8-15 4 4 0 0 0-4.46 1.22 493.56 493.56 0 0 1-41.73 45.05 4 4 0 0 0 1.91 6.81c20.43 4.37 40.85 8.06 60.7 10.94a3.66 3.66 0 0 0 .57 0 4 4 0 0 0 3-1.4c12.45-14.52 23-32.47 28.14-41.88a4 4 0 0 0 .23-3.43Zm-33 38.44c-16.59-2.46-33.57-5.48-50.6-9a506.22 506.22 0 0 0 35.16-38.33c7.31 2.6 21.43 7.49 38.81 12.78-5.24 9.23-13.66 22.89-23.36 34.55ZM311.93 936.44c-64.55 34.93-103.86 95.31-105.51 97.86a4 4 0 0 0 1.87 5.87l7.24 2.92c51.9 20.92 96.73 39 139.86 49.12a4.06 4.06 0 0 0 3.6-.93c38.82-35 66.73-73.61 79.91-93.48a4 4 0 0 0 .47-3.48 4 4 0 0 0-2.46-2.5q-14-5-26.55-9.92l-.5.91c-1.12 2.08-2.37 4.07-3.6 6.07q11 4.35 23.13 8.74c-13.71 20.17-39.42 54.58-74.21 86.31-41.93-10.08-85.89-27.8-136.66-48.26l-2.62-1.06c9.86-14 45.61-61.07 97.82-90 4.91 3 18.62 10.95 39.9 21.26l2.73-4.73 1.24-2.24c-26.7-12.9-41.36-22.13-41.61-22.29a4 4 0 0 0-4.05-.17Z"/>
        <path class="cls-2" fill="#8b8fa2" d="M553 1075.38c-20.51-2.1-47.31-5.41-72.77-12.44a4 4 0 0 0-4.6 2 292.14 292.14 0 0 1-24.5 38.6 4 4 0 0 0 2.69 6.41c37.09 4.55 62.65 5.16 73.68 5.16 3.72 0 5.79-.06 6.09-.08a3.94 3.94 0 0 0 2.8-1.29c6.46-7 11.25-16.28 15.48-24.46 1.45-2.81 2.82-5.47 4.21-8a4 4 0 0 0-3.08-5.93Zm-8.24 10.21c-3.92 7.57-8 15.38-13.15 21.47-6.52.1-31.57.12-70-4.26a310.87 310.87 0 0 0 19.55-31.32c22.67 6 46 9.16 65.07 11.23ZM797.91 1006.19c-.85-4.46-1.91-8.94-3.15-13.33a3.5 3.5 0 0 0-3.3-2.55c-41.05-.84-65.49 7.62-66.51 8a3.5 3.5 0 0 0-2.25 4.06 38.17 38.17 0 0 1 .93 8.28 5.54 5.54 0 0 0 5.54 5.57 5.67 5.67 0 0 0 .91-.07 336.85 336.85 0 0 1 64.92-4.35 3.46 3.46 0 0 0 3-1.48 3.5 3.5 0 0 0 .39-3.31 4.24 4.24 0 0 0-.48-.82ZM730.6 1009a45.54 45.54 0 0 0-.48-4.93c7.26-2.07 28-7.08 58.59-6.75.65 2.45 1.23 4.93 1.75 7.41a346.79 346.79 0 0 0-59.86 4.27ZM724.44 992.3c5.91-1.91 27.85-8.14 62.5-8.14h.2a3.5 3.5 0 0 0 3.42-4.21c-.88-4.26-3.44-9.3-5.13-12.63-.48-1-1.07-2.12-1.26-2.58a3.5 3.5 0 0 0-3.65-2.79 341.38 341.38 0 0 0-63.22 10.38 3.49 3.49 0 0 0-2.22 4.83c1.34 2.91 3.84 9.28 4.94 12.84a3.48 3.48 0 0 0 3.34 2.47 3.34 3.34 0 0 0 1.08-.17Zm54.06-23.19.69 1.38c.95 1.86 2.19 4.31 3.16 6.71-28.46.44-48.1 5-56.75 7.44-.77-2.13-1.68-4.51-2.53-6.59a341.3 341.3 0 0 1 55.43-8.94ZM862.23 973.56c-17-8.09-38.64-12.19-64.42-12.19a3.67 3.67 0 0 0-3.13 1.64 3.51 3.51 0 0 0-.19 3.38c2.92 6.08 12.17 38.16 12.6 42.55a3.48 3.48 0 0 0 .45 2.27 3.53 3.53 0 0 0 3 1.71c35.53.19 57.45 8.53 57.67 8.61a3.49 3.49 0 0 0 1.27.24 3.43 3.43 0 0 0 1.88-.55 3.48 3.48 0 0 0 1.61-2.73c1.58-25.84-8.82-42.91-9.26-43.62a3.57 3.57 0 0 0-1.48-1.31ZM813.65 1006c-.6-3.15-2-8.5-4.71-17.93-1.85-6.4-4.26-14.23-6.15-19.6 22 .48 40.67 4.17 55.44 11a73.81 73.81 0 0 1 7.89 34.05c-8.12-2.52-26.43-7.1-52.47-7.52Z"/>
        <path class="cls-3" fill="#fcec57" d="M864.54 413.45c2.78-6.7 7.35-15 14.29-20.56a57.29 57.29 0 0 1-18-13.05c-2.71 5-7.88 12-17.48 18.42 6.98 2.39 15.85 6.91 21.19 15.19ZM420.21 265.24c2.79-6.7 7.36-15 14.29-20.56a57.48 57.48 0 0 1-18-13.05c-2.71 5-7.89 12-17.49 18.42 6.99 2.39 15.87 6.95 21.2 15.19ZM608.91 239.93c3.38-5 9.14-11.15 18.87-16.83-4.27-3.2-9.72-9.06-15.88-19.72-3.14 6.67-8.76 15.66-17.85 21.06 4.85 3.29 11.05 8.5 14.86 15.49ZM661.66 178.26c3.88-5.39 10.24-13 18-17.69-5.73-3.72-13.39-10-17.61-18.87-3.64 5.81-9.5 13-18.15 17.87 5.39 3.86 12.91 10.27 17.76 18.69ZM848.52 173.47a68.12 68.12 0 0 0-34.35-10.11c-1.76 0-3.52 0-5.28.15 1.34.49 2.67 1 4 1.61a63.29 63.29 0 0 1 31.87 32.46 65.25 65.25 0 0 1 4.3 14.93 64.07 64.07 0 0 1-2.62 30.74 63.35 63.35 0 0 1-16.91 25.81 62.71 62.71 0 0 1-27 14.8 64.23 64.23 0 0 1-30.69.2c-.94-.24-1.86-.5-2.78-.78a68.41 68.41 0 0 0 8.61 6.15 68.16 68.16 0 0 0 34 9.84 64.84 64.84 0 0 0 17.63-1.92 67.91 67.91 0 0 0 41.68-30.53 66.46 66.46 0 0 0 4-7.82c.31-.66.6-1.34.85-2l.8-2.05c.44-1.4 1-2.77 1.34-4.19a69.56 69.56 0 0 0 1.93-8.58c.16-1.46.43-2.91.5-4.38l.18-2.19.07-2.21a68.34 68.34 0 0 0-32.12-59.91Z"/>
        <path class="cls-4" fill="#f7c1c7" d="M464.87 365.43c-7.17-2.82-14.42-5.38-21.76-7.63s-14.73-4.31-22.19-6.08a412.49 412.49 0 0 0-45.18-8.17q-11.39-1.44-22.86-2.27-5.75-.42-11.52-.67c-1.93-.09-3.86-.15-5.81-.2l-2.94-.05H329a11.75 11.75 0 1 0 1 23.48h.33l2.51-.11 2.67-.08c1.78-.05 3.59-.07 5.39-.08 3.61 0 7.24 0 10.87.1q10.89.27 21.8 1.1a393.64 393.64 0 0 1 43.3 5.69q10.73 2 21.27 4.74c7 1.78 14 3.86 20.85 6.19s13.6 4.95 20.22 7.82l.23.1q9-4.41 18.3-8.18c-3.87-2.22-7.78-4.35-11.76-6.32-6.91-3.41-13.93-6.61-21.11-9.38Z"/>
        <path class="cls-5" fill="#e36359" d="M690.24 421.6a91.44 91.44 0 0 0-10.5-13.47A101.27 101.27 0 0 0 656.63 390a121.81 121.81 0 0 0-31-12.42c-169.7 62.32-226.54 167.57-240.26 199.24a110 110 0 0 0 7.32 17.11 91.53 91.53 0 0 0 19 24.85C514.31 453.53 655 426 690.24 421.6Zm-149.19 28.49 2-3.1 23.63-36.22a4.23 4.23 0 0 1 7.32 4.33l-14.43 26.58 39.92-15.1a4.23 4.23 0 0 1 3.24 7.81l-50.68 23-3.36 1.52a6 6 0 0 1-7.56-8.8ZM475 525.82a4.25 4.25 0 0 1-.79-5.75l25.95-36.45-43.47 13.57a4.23 4.23 0 0 1-2.76-8l56.63-21.5 3.23-1.23a6.11 6.11 0 0 1 6.92 9.55l-2.17 2.69-37.59 46.49a4.24 4.24 0 0 1-5.95.63Z"/>
        <path class="cls-6" fill="#fff" d="M647 1051.2c-3 1.5-6.09 2.89-9.15 4.21-6.12 2.65-12.3 5-18.52 7.2s-12.47 4.19-18.75 6.11l-9.44 2.73-9 2.41q-1.75 3.26-3.57 6.48h.09a4 4 0 0 1 5.21 2.92c3.3 14.94 9.17 46.26 11.33 88.12a4 4 0 0 1-2.78 4 660.08 660.08 0 0 1-98.39 23.33 4.3 4.3 0 0 1-.62 0 4 4 0 0 1-2.8-1.14 4 4 0 0 1-1.16-3.41c2.59-18.57 4.76-39.68 6.47-62.8-1.52-.09-3-.16-4.57-.27-1.14-.07-2.28-.17-3.41-.25-.14 1.84-.28 3.69-.43 5.59a4 4 0 0 1-3.69 3.68c-12.62.94-25.1 1.32-37.07 1.32a640.74 640.74 0 0 1-82-5.48 4 4 0 0 1-2.89-6c3.59-5.88 6.58-11 8.71-14.64-1.91-.37-3.82-.73-5.72-1.12-4.87 8-9.86 15.91-15 23.75q-8.45 12.93-17.37 25.58c-6 8.41-12.13 16.72-18.54 24.89q-5.5 6.91-11.3 13.65 6 1.05 12.07 1.94 12.62 1.82 25.33 3.09c16.95 1.68 34 2.64 51.06 3s34.14 0 51.19-.91 34.07-2.61 51-4.82l12.69-1.77 12.64-2.09c4.23-.65 8.41-1.51 12.61-2.32l6.29-1.22 3.15-.61 3.13-.69 12.51-2.79c2.09-.43 4.16-1 6.23-1.51l6.22-1.57c8.32-2 16.49-4.5 24.72-6.8a630.72 630.72 0 0 0 92.2-35.89l-37.32-96.58Zm-166.09 146.45a4 4 0 0 1-3.6 3.41c-23.26 2.08-44.39 2.86-63 2.86-55 0-87.75-6.81-88.19-6.91a4 4 0 0 1-2.12-6.6c7.21-7.91 12.62-17.69 18.34-28 3.22-5.82 6.54-11.83 10.29-17.65a4 4 0 0 1 4-1.79 631.47 631.47 0 0 0 89.77 6.56c12.13 0 24.08-.41 35.53-1.2a4 4 0 0 1 4.26 4.36c-1.52 16.24-3.29 31.38-5.28 44.96Zm191-52.86c-20.95 9.49-42.35 18-63.61 25.34a4 4 0 0 1-5.3-3.55c-2.77-47.73-8.13-74.93-10.3-84.41a4 4 0 0 1 3-4.8c22.4-5 44.77-16.39 45-16.51a4 4 0 0 1 5.59 2.2l27.7 76.73a4 4 0 0 1-2.08 5Z"/>
        <path class="cls-6" fill="#fff" d="M378.93 1116.87c-1.6 2.8-4 6.94-7 12 24 2.92 64.92 6.45 107.92 3.58.06-.71.11-1.41.16-2.11-11.8-.93-23.59-2.11-35.35-3.47q-33.01-3.87-65.73-10ZM358 1151.22c-3.06 4.94-5.89 10-8.64 15-4.75 8.59-9.29 16.79-14.9 24.13 17.34 2.78 67.59 9.08 139 3 1.59-11.31 3-23.65 4.32-36.8-10.19.61-20.73.92-31.39.92a643.33 643.33 0 0 1-88.39-6.25ZM561.89 1107.29c-3 4.34-6.21 8.6-9.62 12.71a103.69 103.69 0 0 1-11.19 11.71 3.65 3.65 0 0 1-2.51 1h-.16c-8 .07-15.73-.12-23.57-.41-3.64-.14-7.27-.31-10.9-.49-1.56 21.14-3.5 40.64-5.8 58.08a652.46 652.46 0 0 0 89-21.26 547.15 547.15 0 0 0-10.14-79.3c-1.73.58-3.23 1.07-4.54 1.49-.65 1.08-1.28 2.16-1.94 3.23-2.74 4.47-5.62 8.95-8.63 13.24ZM601.34 1084.26c2.45 11.67 6.77 36.67 9.32 76.57 18.25-6.44 36.57-13.77 54.57-21.81l-24.93-69a225.42 225.42 0 0 1-38.96 14.24ZM879.86 1003.42a81.29 81.29 0 0 0-4-19.13 50.35 50.35 0 0 0-8.92-16l-1.62-.69c-.81-.33-1.64-.64-2.46-1-1.66-.62-3.34-1.22-5-1.78-3.38-1.13-6.83-2.11-10.3-3a198.59 198.59 0 0 0-21.11-4.23 227.33 227.33 0 0 0-43-2c-1.79 0-3.58.22-5.38.33s-3.58.23-5.37.43l-5.36.54-5.34.69c-1.78.21-3.55.5-5.32.8l-5.32.88-5.28 1-2.64.52-2.63.6a280.59 280.59 0 0 0-35 10.39l.52 1.41c.93 2.61 1.8 5.22 2.63 7.86q2.49 7.89 4.32 16a143.85 143.85 0 0 1 2.72 16.53c.27 2.8.45 5.62.5 8.48v2.19l4.88-.75q5.53-.81 11.08-1.48 11.08-1.35 22.22-2.24c14.84-1.17 29.75-1.77 44.72-1.51a278.23 278.23 0 0 1 45 4.1 156 156 0 0 1 22.33 5.72 104.13 104.13 0 0 1 12.47 5.21.68.68 0 0 0 0-.14c.44-3.29.76-6.61 1-9.93a124.14 124.14 0 0 0-.34-19.8ZM720 990c-1.1-3.56-3.6-9.93-4.94-12.84a3.49 3.49 0 0 1 2.22-4.83A341.38 341.38 0 0 1 780.52 962a3.5 3.5 0 0 1 3.65 2.79c.19.46.78 1.63 1.26 2.58 1.69 3.33 4.25 8.37 5.13 12.63a3.5 3.5 0 0 1-3.42 4.21h-.2c-34.65 0-56.59 6.23-62.5 8.14a3.34 3.34 0 0 1-1.08.17A3.48 3.48 0 0 1 720 990Zm78 20.32a3.46 3.46 0 0 1-3 1.48 336.85 336.85 0 0 0-64.88 4.33 5.67 5.67 0 0 1-.91.07 5.54 5.54 0 0 1-5.54-5.57 38.17 38.17 0 0 0-.93-8.28 3.5 3.5 0 0 1 2.25-4.06c1-.36 25.46-8.82 66.51-8a3.5 3.5 0 0 1 3.3 2.55c1.24 4.39 2.3 8.87 3.15 13.33a4.24 4.24 0 0 1 .43.82 3.5 3.5 0 0 1-.38 3.33Zm75 8.17a3.48 3.48 0 0 1-1.61 2.73 3.43 3.43 0 0 1-1.88.55 3.49 3.49 0 0 1-1.27-.24c-.22-.08-22.14-8.42-57.67-8.61a3.53 3.53 0 0 1-3-1.71 3.48 3.48 0 0 1-.45-2.27c-.43-4.39-9.68-36.47-12.6-42.55a3.51 3.51 0 0 1 .19-3.38 3.67 3.67 0 0 1 3.13-1.64c25.78 0 47.46 4.1 64.42 12.19a3.57 3.57 0 0 1 1.47 1.31c.41.71 10.81 17.78 9.27 43.62Z"/>
        <path class="cls-6" fill="#fff" d="M782.35 977.2c-1-2.4-2.21-4.85-3.16-6.71l-.69-1.38a341.3 341.3 0 0 0-55.43 8.94c.85 2.08 1.76 4.46 2.53 6.59 8.65-2.46 28.29-7 56.75-7.44ZM802.79 968.43c1.89 5.37 4.3 13.2 6.15 19.6 2.74 9.43 4.11 14.78 4.71 17.93 26 .46 44.38 5 52.47 7.5a73.81 73.81 0 0 0-7.89-34.05c-14.77-6.81-33.4-10.5-55.44-10.98ZM730.12 1004a45.54 45.54 0 0 1 .48 4.93 346.79 346.79 0 0 1 59.86-4.27c-.52-2.48-1.1-5-1.75-7.41-30.6-.31-51.33 4.75-58.59 6.75ZM354.8 1099.2c30.08 7.19 60.51 13.06 91.17 17.39 15.33 2.16 30.72 4 46.14 5.4q11.56 1.07 23.15 1.79c7.17.45 14.4.8 21.5.94a99.05 99.05 0 0 0 8.74-10.12c3-4 5.91-8.18 8.64-12.47s5.3-8.69 7.81-13.14 4.89-9 7.21-13.56c4.64-9.14 9-18.45 13.1-27.86 3-6.86 5.9-13.82 8.63-20.76l-1.24-.2-4.75-.74-4.73-.85-9.45-1.71-9.41-1.92c-6.29-1.21-12.5-2.74-18.75-4.12l-9.31-2.3-4.66-1.15-4.63-1.24-9.26-2.48-9.21-2.65c-3.08-.87-6.13-1.8-9.18-2.74s-6.12-1.86-9.15-2.84c-12.17-3.88-24.24-8.06-36.22-12.44q-18.68-6.93-37-14.65l-.57 1.28c-1 2-1.91 3.93-3 5.84q12.54 4.94 26.55 9.92a4 4 0 0 1 2.46 2.5 4 4 0 0 1-.47 3.48c-13.18 19.87-41.09 58.43-79.91 93.48a4.06 4.06 0 0 1-3.6.93c-43.13-10.14-88-28.2-139.86-49.12l-7.24-2.92a4 4 0 0 1-1.87-5.87c1.65-2.55 41-62.93 105.51-97.86a4 4 0 0 1 4.05.14c.25.16 14.91 9.39 41.61 22.29 1.47-2.68 2.83-5.34 4.05-8q-7.81-3.87-15.53-7.91-8.48-4.42-16.84-9.08-4.18-2.33-8.33-4.72l-4.15-2.42-2.06-1.23-.66-.39c-1.12.8-2.19 1.54-3.29 2.18l-4.52 2.52c-1.66 1-3.35 1.83-5 2.85l-4.9 3c-6.45 4.11-12.8 8.38-18.89 13a346.93 346.93 0 0 0-34.71 30.1 449.3 449.3 0 0 0-31.06 33.94q-7.33 8.87-14.23 18.06-3.45 4.59-6.76 9.26l-.76 1.1c10.86 5.23 21.8 10.32 33 15 7 3.1 14.25 5.85 21.4 8.73 3.58 1.42 7.21 2.72 10.81 4.09s7.21 2.73 10.87 4l10.92 3.82c3.65 1.25 7.32 2.42 11 3.63l5.5 1.81 5.53 1.7 11.01 3.29q22.26 6.5 44.8 12Zm201.2-17.89c-1.39 2.48-2.76 5.14-4.21 8-4.23 8.18-9 17.44-15.48 24.46a3.94 3.94 0 0 1-2.8 1.29c-.3 0-2.37.08-6.09.08-11 0-36.59-.61-73.68-5.16a4 4 0 0 1-2.69-6.41 292.14 292.14 0 0 0 24.5-38.6 4 4 0 0 1 4.6-2c25.46 7 52.26 10.34 72.77 12.44a4 4 0 0 1 3.08 5.93Zm-131.3-49.84c10.7-13.9 18.49-25.44 23.15-32.67a4 4 0 0 1 4.63-1.63c7.44 2.48 14.93 5.09 22.85 7.85 28.64 10 61.1 21.31 97.47 27.89a4 4 0 0 1 3 5.54c0 .1-4.45 10.19-13.44 29.57a4 4 0 0 1-3.63 2.32h-.25c-19.9-1.26-56.93-3.59-132-32.69a4 4 0 0 1-1.73-6.17Zm-52.18 58.2a493.56 493.56 0 0 0 41.73-45.05 4 4 0 0 1 4.46-1.22c6.49 2.35 23.94 8.52 45.8 15a4 4 0 0 1 2.37 5.75c-5.17 9.41-15.69 27.36-28.14 41.88a4 4 0 0 1-3 1.4 3.66 3.66 0 0 1-.57 0c-19.85-2.88-40.27-6.57-60.7-10.94a4 4 0 0 1-1.91-6.81Z"/>
        <path class="cls-6" fill="#fff" d="M350.81 970.85c.16-.35.34-.69.53-1l.53-1 .9-1.56.85-1.48c-21.28-10.31-35-18.3-39.9-21.26-52.21 29-88 76.07-97.82 90l2.62 1.06c50.77 20.46 94.73 38.18 136.66 48.26 34.79-31.73 60.5-66.14 74.21-86.31q-12.13-4.36-23.13-8.74l-.27.44c-1.33 2.14-2.78 4.18-4.21 6.26a45.92 45.92 0 0 1-5.45 6.29 34.51 34.51 0 0 1-7 5.23 28.75 28.75 0 0 1-8.64 3.11 26.62 26.62 0 0 1-18.14-3.2 29.4 29.4 0 0 1-12.06-13.47 26.92 26.92 0 0 1-1.35-18.33 24.72 24.72 0 0 1 1.67-4.3ZM566.38 1039.85c-35-6.79-66.07-17.65-93.69-27.27-6.85-2.39-13.37-4.67-19.81-6.84-4.28 6.54-10.52 15.64-18.6 26.35 67.34 25.61 102.33 28.8 121.92 30.08 4.8-10.46 8.22-17.94 10.18-22.32ZM457.45 1064.66a901.91 901.91 0 0 1-38.81-12.78 506.22 506.22 0 0 1-35.16 38.33c17 3.5 34 6.52 50.6 9 9.7-11.68 18.12-25.34 23.37-34.55ZM461.59 1102.8c38.41 4.38 63.46 4.36 70 4.26 5.19-6.09 9.23-13.9 13.15-21.47l1.49-2.88c-19.05-2.07-42.4-5.25-65.07-11.23a310.87 310.87 0 0 1-19.57 31.32Z"/>
        <path class="cls-6" fill="#fff" d="m718.64 848.69 3.4-.38a15.68 15.68 0 0 0 2.47-.5 17.48 17.48 0 0 0 8.47-5.06 9.37 9.37 0 0 0 1.25-1.74 7.46 7.46 0 0 0 .76-1.79 8 8 0 0 0 .14-3.76 14.45 14.45 0 0 0-1.74-4.28 12.05 12.05 0 0 0-.71-1.1l-.38-.55a.48.48 0 0 0-.13-.16l-.09-.11a4.45 4.45 0 0 0-1.06-.94 13.61 13.61 0 0 0-4.4-1.54 38.47 38.47 0 0 0-5.81-.66 92.49 92.49 0 0 0-12.76.56c-3.44.35-7 .85-10.42 1.41-.88.13-1.75.28-2.62.42a3.88 3.88 0 0 1-1.41.27 3.85 3.85 0 0 1-3.52-5.38l.28-.63c.31-.7.61-1.42.92-2.15.92-2.18 1.82-4.44 2.69-6.66 1.16-3 2.25-6 3.3-9s2-6.06 2.93-9.11 1.76-6.1 2.55-9.16a151.06 151.06 0 0 0 3.46-18.45c.23-1.54.28-3.07.45-4.6s.19-3.06.27-4.58a79.06 79.06 0 0 0-.24-9 50.56 50.56 0 0 0-4.08-16.67l-.88-1.88c-.32-.61-.7-1.18-1-1.78a35.2 35.2 0 0 0-2.34-3.52c-.79-1.21-1.76-2.2-2.63-3.3a14.47 14.47 0 0 0-1.41-1.51l-1.43-1.47a35.4 35.4 0 0 0-6.42-4.65 30.63 30.63 0 0 0-7.36-2.81 38.9 38.9 0 0 0-8.27-.87c-1.15 0-2.31 0-3.49.15a268.51 268.51 0 0 1-7.76 50.16 248.35 248.35 0 0 1-9 28.28c-1.8 4.6-3.67 9.16-5.77 13.62s-4.28 8.87-6.63 13.18a2.79 2.79 0 0 1-5.11-2.18c1.47-4.59 3-9.15 4.31-13.75s2.59-9.21 3.8-13.82c2.32-9.26 4.31-18.56 5.85-27.92a344.61 344.61 0 0 0 4.65-56.51 413 413 0 0 0-4-56.52q-1.78-13.07-4.34-26c-.12-.66-.26-1.33-.39-2-.94-4.65-1.93-9.29-3-13.91-.52-2.31-1.08-4.62-1.67-6.91l-.88-3.43-.9-3.32a5.9 5.9 0 0 1 1.45-5.62l.2-.21L648.53 574q5.22-5.4 10.33-10.86a296.94 296.94 0 0 0 19.45-22.49A162.09 162.09 0 0 0 694 515.9a102.23 102.23 0 0 0 9.41-27.09c.43-2.34.75-4.68 1-7s.34-4.76.36-7.19a103.24 103.24 0 0 0-.79-14.5 95.14 95.14 0 0 0-7.9-27.87 90.47 90.47 0 0 0-5.84-10.61C655 426 514.31 453.53 411.73 618.78c1.81 1.63 3.69 3.18 5.64 4.63a73.73 73.73 0 0 0 16.44 9.35 85.08 85.08 0 0 0 18.59 5 128.94 128.94 0 0 0 19.85 1.45 195.49 195.49 0 0 0 20.31-1.08 318.24 318.24 0 0 0 40.75-7.24c13.5-3.26 27-7.18 40.19-11.64h.07a3.29 3.29 0 0 1 2.64 6c-3.22 1.77-6.41 3.32-9.66 4.88s-6.52 3-9.82 4.39q-9.91 4.2-20.14 7.68a252.32 252.32 0 0 1-42.12 10.57q-5.06.78-10.17 1.31a81.43 81.43 0 0 0-9.08 4.49 75.55 75.55 0 0 0-13.1 9.43 58.23 58.23 0 0 0-17 26.07 52.86 52.86 0 0 0-2.2 15.27 62.9 62.9 0 0 0 2 15.46 41.27 41.27 0 0 0 6.08 13.51 30.31 30.31 0 0 0 10.5 9.26c8.36 4.46 19.11 5.32 29 3.56 1.22-.22 2.43-.5 3.57-.82.57-.16 1.13-.33 1.64-.51s1.15-.41 1.72-.64a40.07 40.07 0 0 0 6.51-3.28c4.05-2.51 7.41-5.85 8.87-9.13a11 11 0 0 0 .79-2.41 9.71 9.71 0 0 0 .22-2.41v-.63c0-.21-.07-.42-.08-.63s-.09-.44-.12-.66a4.47 4.47 0 0 0-.17-.74 25.2 25.2 0 0 0-1-3 10.8 10.8 0 0 0-2.83-4.2 7.17 7.17 0 0 0-4.42-1.63 18.56 18.56 0 0 0-6.48 1 34.11 34.11 0 0 0-3.48 1.35l-1.32.57a12.86 12.86 0 0 1-1.78.56 9.9 9.9 0 0 1-4.52.05 8.88 8.88 0 0 1-4.21-2.35 10.72 10.72 0 0 1-2.19-3.13 17.21 17.21 0 0 1-1.48-5.62 30 30 0 0 1 .72-10 4 4 0 0 1 7.9 1.2v.14a24.18 24.18 0 0 0 .51 7.17 8.89 8.89 0 0 0 .84 2.28l.63-.37a45.25 45.25 0 0 1 4.34-2.22 30 30 0 0 1 10.24-2.68 21.33 21.33 0 0 1 6 .44 18.94 18.94 0 0 1 5.91 2.41 20.74 20.74 0 0 1 4.77 4.07 25.85 25.85 0 0 1 3.28 4.82 33.64 33.64 0 0 1 2.11 5c.27.78.56 1.82.78 2.77a22.59 22.59 0 0 1 .46 3 23.48 23.48 0 0 1-.23 6.1 25.19 25.19 0 0 1-1.81 5.77 30.28 30.28 0 0 1-6.48 9.08 43.63 43.63 0 0 1-8.15 6.28 54.13 54.13 0 0 1-8.9 4.33c-.77.3-1.52.55-2.33.83s-1.66.51-2.48.73c-1.63.43-3.23.76-4.83 1a65.5 65.5 0 0 1-19.22.4 52.06 52.06 0 0 1-18.8-6.02 43.11 43.11 0 0 1-9.17-6.91c-.54-.52-1.07-1.07-1.58-1.62q-1.54 1.25-3 2.58a90.9 90.9 0 0 0-7 7.07c-2.16 2.49-4.25 5.05-6.15 7.74s-3.67 5.49-5.34 8.33a116.2 116.2 0 0 0-7.49 15.63 138.3 138.3 0 0 0-6.39 21.48 198.71 198.71 0 0 0-3.13 19.89 117.72 117.72 0 0 0-.47 19.75 151.82 151.82 0 0 0 2.83 19.94c1.14 6 2.43 12.19 3.26 18.48.1.85.21 1.7.3 2.55l.16 1.49a3.6 3.6 0 0 1-3.19 4 3.64 3.64 0 0 1-3.14-1.26c-.34-.2-.87-.51-1.33-.75s-1-.5-1.45-.74c-1-.47-2-.9-3-1.27a24.6 24.6 0 0 0-5.92-1.46 10 10 0 0 0-4.89.58 6.93 6.93 0 0 0-3.18 2.83 16.77 16.77 0 0 0-1.95 5.12c-.22 1-.39 2-.53 3.06l-.48 3.62q-.94 7.21-2.08 14.48c-.8 4.84-1.66 9.7-2.81 14.6a101.88 101.88 0 0 1-4.49 14.65 126.24 126.24 0 0 1-6.58 13.68l-3.54 6.41-.89 1.59c-.17.3-.23.43-.35.65s-.2.38-.29.58a14.66 14.66 0 0 0-.06 12.4 17.07 17.07 0 0 0 7 7.74 14.55 14.55 0 0 0 9.8 1.83 19.85 19.85 0 0 0 9.63-5 34.15 34.15 0 0 0 4.16-4.53l2.07-2.79c.68-.93 1.41-1.84 2-2.81 2.68-3.78 5.08-7.72 7.36-11.72a105.15 105.15 0 0 0 5.78-12.43c.82-2.12 1.52-4.27 2.13-6.43q.24-.87.45-1.74a46.82 46.82 0 0 1-9.15-5.53 47.83 47.83 0 0 1-4.92-4.51c-.77-.79-1.48-1.66-2.18-2.53-.35-.44-.69-.88-1-1.35-.17-.23-.33-.46-.5-.71l-.53-.82a3.85 3.85 0 0 1 5.06-5.49l1.4.76c.06 0 .24.22.39.35l.47.42 1 .84c.69.56 1.4 1.1 2.12 1.61a42.28 42.28 0 0 0 4.5 2.82 39.35 39.35 0 0 0 9.14 3.61l.51.14a41.83 41.83 0 0 0 20.25-.36c13.47-3.46 26.21-12 37.54-21.89a142.92 142.92 0 0 0 15.73-16.24c2.46-2.89 4.72-5.94 7-9s4.39-6.24 6.38-9.51 4-6.53 5.81-9.93 3.56-6.81 5.23-10.29 3.16-7 4.63-10.62c.71-1.8 1.39-3.6 2.06-5.41s1.3-3.69 1.84-5.36l.06-.17a4 4 0 0 1 7.78 1.75c-.29 2.22-.67 4.16-1.09 6.21s-.92 4-1.42 6c-1 4-2.26 7.9-3.61 11.78s-2.88 7.7-4.54 11.47c-1.26 2.87-2.59 5.71-4 8.5a220.27 220.27 0 0 0 26.98-2.17c5.66-.77 11.26-1.88 16.82-3.14s11-2.88 16.44-4.68A159.44 159.44 0 0 0 609.15 863a130.94 130.94 0 0 0 14-9.63c2.22-1.75 4.37-3.57 6.42-5.47 1-.95 2-1.92 3-2.9.47-.5 1-1 1.42-1.49.28-.3.57-.62.83-.92l.44-.52a4 4 0 0 1 6.65 4.38v.08l-.3.6c-1 2.12-1.66 3.73-2.26 5.29-.79 2-1.48 4.06-2.07 6.09a43.9 43.9 0 0 0-1.34 6.05 21.67 21.67 0 0 0-.17 5.58c.07.41.09.81.19 1.23l.32 1.24.43 1.15c.15.38.36.71.53 1.07a8.68 8.68 0 0 0 2.88 3.16 6.69 6.69 0 0 0 7.3-.08l5.87-3.57c2-1.22 4-2.33 6-3.49q6.06-3.43 12.31-6.57t12.75-5.9c4.36-1.77 8.75-3.49 13.29-4.92a124.36 124.36 0 0 1 13.9-3.63c2.31-.48 4.71-.83 7.1-1.14ZM616.43 557.55c0 .61-.06 1.22-.13 1.82s-.13 1.22-.21 1.82c-.23 1.21-.41 2.42-.74 3.61a34.56 34.56 0 0 1-2.53 7 30.12 30.12 0 0 1-4.14 6.48 24.65 24.65 0 0 1-6.27 5.43 18.23 18.23 0 0 1-8.95 2.66 17.24 17.24 0 0 1-9.32-2.52 22.17 22.17 0 0 1-6.27-5.71l-.61-.78-.53-.8-1-1.6c-.57-1.07-1.22-2.15-1.68-3.23a51.54 51.54 0 0 1-2.48-6.51c-.69-2.15-1.2-4.35-1.69-6.45l-1.36-5.77c-.44-1.93-1-3.83-1.44-5.75s-1.09-3.78-1.62-5.68-1.19-3.74-1.77-5.62-1.29-3.69-2-5.51a107.51 107.51 0 0 0-4.69-10.66c-.87-1.7-1.78-3.39-2.78-5-.38-.65-.79-1.26-1.2-1.87a41.85 41.85 0 0 1-3.51 2.84A37.44 37.44 0 0 1 542 520a39.21 39.21 0 0 1-8.2 2.45 40.12 40.12 0 0 1-8.38.68 36.56 36.56 0 0 1-4.17-.31c-.69-.09-1.39-.19-2.09-.33l-1.05-.22c-.38-.08-.67-.16-1.17-.29a4.14 4.14 0 0 1 .24-8.06l1.32-.25a6 6 0 0 1 .68 0h.81c.54 0 1.09 0 1.64-.09 1.1-.09 2.21-.18 3.3-.35s2.18-.34 3.25-.56 2.12-.51 3.16-.8a40.25 40.25 0 0 0 6-2.3 34.88 34.88 0 0 0 5.32-3.28 34.13 34.13 0 0 0 4.66-4.19 13.29 13.29 0 0 0 1.06-1.18c.34-.41.7-.79 1-1.21.63-.87 1.34-1.68 1.92-2.61a80.69 80.69 0 0 0 6.65-11.87 3.39 3.39 0 0 1 3-2.83l1.68-.2c.37 0 1-.05 1.49-.1l1.61-.13a57.3 57.3 0 0 0 3.21-.37 54.38 54.38 0 0 0 6.25-1.21 37.72 37.72 0 0 0 6.1-2.08 27.91 27.91 0 0 0 4.77-2.67 25.48 25.48 0 0 0 4.2-3.68 28.46 28.46 0 0 0 3.24-4.64 44.94 44.94 0 0 0 3.92-11.73v-.1a4.26 4.26 0 0 1 8.43.57 35.58 35.58 0 0 1-2.52 15.87 32.63 32.63 0 0 1-4.37 7.36 31.57 31.57 0 0 1-6.33 5.84c-.39.28-.79.54-1.2.8q5.16 7.81 9.65 16.16c2 3.71 3.8 7.49 5.47 11.38.87 1.92 1.63 3.91 2.41 5.88s1.46 4 2.11 6 1.29 4.07 1.82 6.15 1.06 4.16 1.53 6.26a109.8 109.8 0 0 1 1.87 12.81l.14 1.62.07.81v2.72ZM210.37 558.68a268.88 268.88 0 0 0 35.09-18c11.43-6.76 22.61-14.09 33.69-21.59a375.31 375.31 0 0 1 34.65-21.31c6-3.2 12.07-6.25 18.26-9.05s12.51-5.38 18.92-7.68 12.95-4.29 19.6-6c3.32-.81 6.68-1.54 10.07-2.16 1.71-.3 3.41-.58 5.14-.8.75-.11 1.52-.2 2.29-.27h.32c.91-.09 1.72-.16 2.77-.2a3.47 3.47 0 0 1 3.61 3.32 3.51 3.51 0 0 1-.48 1.93l-.09.14c-.44.73-.87 1.47-1.28 2.22a110 110 0 0 0-12.46 36.16 129.86 129.86 0 0 0-.14 40.61c.07.42.13.84.21 1.26a124.71 124.71 0 0 0 4.83 19.51c13.72-31.62 70.56-136.87 240.23-199.17a151.45 151.45 0 0 0-25.77-4.16 183.54 183.54 0 0 0-34.84.63c.44 7.4-2.21 26.34-36.19 43.23-30.06 14.95-59.3 2.7-70.48-3.25l-.78.5q-6.33 4.11-12.43 8.56c-2 1.48-4 3-6 4.53l-2.92 2.36c-.94.76-1.94 1.6-2.76 2.31a5.94 5.94 0 0 1-4.53 1.44h-.11c-52.71-5.82-106.35-2.86-157.5 10.08a418.21 418.21 0 0 0-74.39 26.41 133.09 133.09 0 0 0-16.53 9.29 146.26 146.26 0 0 0-15.29 11.4 108.14 108.14 0 0 0-13.18 13.3 62 62 0 0 0-9.39 15.07 31.56 31.56 0 0 0-2.68 15.7 29.82 29.82 0 0 0 6 14.67c.82 1.12 1.76 2.3 2.72 3.38s2 2.13 3 3.12a39.75 39.75 0 0 0 6.71 5.08 36.31 36.31 0 0 0 16 4.91 60.06 60.06 0 0 0 18-1.6 122.29 122.29 0 0 0 18.11-5.88Zm64.42-93a11.86 11.86 0 0 1 1.17-.61l.35-.16c1-.43 1.69-.72 2.49-1.05s1.57-.61 2.34-.91c1.54-.61 3.08-1.17 4.61-1.7 3.07-1.13 6.14-2.08 9.21-3.1 6.15-1.88 12.32-3.63 18.53-5.13a311.39 311.39 0 0 1 37.51-6.79c1.58-.2 3.15-.43 4.73-.59l4.74-.42 4.73-.42c1.58-.14 3.15-.3 4.74-.34l9.48-.44 2.37-.11h14.22c.78 0 1.57.07 2.36.1l9.45.46c3.14.08 6.28.45 9.4.76-2.11 2.22-4.25 4.68-6.38 7.39-.65.84-1.28 1.67-1.9 2.49l-1.26.08-9.09.46c-.76 0-1.52.06-2.27.12l-2.27.23-4.53.45-4.51.45-2.26.23-2.25.32-9 1.31c-1.5.19-3 .49-4.47.77l-4.45.85-4.44.84c-1.48.29-2.95.66-4.42 1a295.23 295.23 0 0 0-34.66 9.9c-5.66 2-11.22 4.16-16.7 6.45-2.71 1.2-5.45 2.35-8.08 3.63-1.34.62-2.65 1.26-3.93 1.91-.64.32-1.3.64-1.9 1s-1.28.67-1.7.92a11.77 11.77 0 1 1-12-20.25Z"/>
        <path class="cls-6" fill="#fff" d="M703.27 573.75a17.83 17.83 0 0 0 .25 5 23.87 23.87 0 0 0 .64 2.66c.13.44.27.89.42 1.32l.24.64a4.74 4.74 0 0 1 .18.52l-.06 4.57-.68.89c-.22.29-.43.56-.65.82-.44.54-.87 1.07-1.32 1.58-.88 1.05-1.81 2-2.73 3s-1.88 1.94-2.84 2.89-2 1.86-3 2.76a97.05 97.05 0 0 1-12.86 9.78c-2.24 1.51-4.64 2.76-7 4.1-2.45 1.16-4.83 2.46-7.37 3.41a68.27 68.27 0 0 1-8.44 3c2.1 7.56 3.84 15.22 5.26 22.93q2.32 12.79 3.46 25.79A189.88 189.88 0 0 0 698.08 645c1.46-1.52 3-3 4.4-4.55s2.83-3.11 4.16-4.73 2.71-3.2 3.93-4.89l1.89-2.5 1.77-2.57c1.22-1.69 2.26-3.49 3.37-5.24.55-.88 1-1.8 1.54-2.7s1-1.79 1.46-2.72a90 90 0 0 0 5-11.26 72.73 72.73 0 0 0 4.54-23.62 40.86 40.86 0 0 0-.27-5.71 12.75 12.75 0 0 0-.18-1.32l-.11-.63-.13-.56a6.77 6.77 0 0 0-.25-.88l-.46-1.12a21 21 0 0 0-2.55-4.22 15 15 0 0 0-3.31-3.11 8.85 8.85 0 0 0-3.55-1.47 9.55 9.55 0 0 0-3.78.13 17.89 17.89 0 0 0-4.29 1.81 20.85 20.85 0 0 0-4 2.88 11.84 11.84 0 0 0-3.94 7.69ZM603.61 553.68v-.71l-.1-1.43a111.71 111.71 0 0 0-3.93-22.72 165.59 165.59 0 0 0-8.09-22.09c-2.57-5.75-5.41-11.42-8.4-17.05a40.8 40.8 0 0 1-5.89 1.32 44.7 44.7 0 0 1-7.89.51c-1.3 0-2.6-.12-3.9-.27a44.85 44.85 0 0 1-4.57 11.76 35.51 35.51 0 0 1-2 3.14l.7.75c.75.84 1.49 1.69 2.16 2.56 1.37 1.74 2.61 3.53 3.79 5.34a104.92 104.92 0 0 1 6.19 11.27 157.11 157.11 0 0 1 8.73 23.75l1.61 6.08c.51 1.85 1 3.61 1.57 5.32a38.88 38.88 0 0 0 2 4.86c.36.78.81 1.42 1.18 2.16l.64 1 .32.48.34.42a9.47 9.47 0 0 0 2.69 2.48 4.18 4.18 0 0 0 2.3.63 5.77 5.77 0 0 0 2.6-.86 11.55 11.55 0 0 0 2.92-2.53 17.44 17.44 0 0 0 2.45-3.78 21.52 21.52 0 0 0 1.66-4.47c.23-.77.34-1.58.51-2.38s.26-1.61.28-2.43l.08-1.23v-1.86Z"/>
        <path class="cls-4" fill="#f7c1c7" d="M417.26 445.21c-3.12-.31-6.26-.68-9.4-.76l-9.45-.46c-.79 0-1.58-.09-2.36-.1h-14.22l-2.37.11-9.48.44c-1.59 0-3.16.2-4.74.34l-4.73.42-4.74.42c-1.58.16-3.15.39-4.73.59a311.39 311.39 0 0 0-37.55 6.83c-6.21 1.5-12.38 3.25-18.53 5.13-3.07 1-6.14 2-9.21 3.1-1.53.53-3.07 1.09-4.61 1.7-.77.3-1.54.58-2.34.91s-1.53.62-2.49 1.05l-.35.16A11.78 11.78 0 1 0 286.81 486c.42-.25 1.1-.6 1.7-.92s1.26-.65 1.9-1c1.28-.65 2.59-1.29 3.93-1.91 2.63-1.28 5.37-2.43 8.08-3.63 5.48-2.29 11-4.48 16.7-6.45a295.23 295.23 0 0 1 34.66-9.9c1.47-.33 2.94-.7 4.42-1l4.44-.84 4.45-.85c1.49-.28 3-.58 4.47-.77l9-1.31 2.25-.32 2.26-.23 4.51-.45 4.53-.45 2.27-.23c.75-.06 1.51-.08 2.27-.12l9.09-.46 1.26-.08c.62-.82 1.25-1.65 1.9-2.49 2.1-2.7 4.25-5.16 6.36-7.38Z"/>
        <path class="cls-5" fill="#e36359" d="M377.33 596.52c-19.61 5.4-69.18 23.26-91.57 70 0 0 64-6.08 90.44-40.45-.72 1.33-30.48 56.26-12.68 99.91 0 0 34.62-43.58 30.35-102.31a100.28 100.28 0 0 1-14.71-23q-.96-2.06-1.83-4.15Z"/>
        <path d="m694.58 1147.72-35.74-109.81-.08-.26a6.68 6.68 0 0 0-1.22-2.21 6.82 6.82 0 0 0-9.6-.91c-.32.26-1 .76-1.58 1.15l-1.87 1.25q-1.92 1.24-3.92 2.43-4 2.4-8.2 4.61c-5.57 3-11.32 5.71-17.16 8.31s-11.77 5-17.74 7.4l-9 3.41-.75.27q2.74-5.35 5.41-10.77c4.6-9.43 9-18.86 13.11-28.64v-.05a6.9 6.9 0 0 0 .36-1.44 6.65 6.65 0 0 0-5.67-7.51l-9.32-1.3-4.61-.65-4.65-.75-9.29-1.52-9.26-1.72c-6.19-1.08-12.32-2.48-18.47-3.73l-9.2-2.1-4.59-1-4.58-1.14-9.16-2.28-9.11-2.46c-3-.79-6.07-1.66-9.09-2.54s-6.06-1.72-9.07-2.64c-12.06-3.61-24-7.53-35.95-11.66q-18.65-6.55-37-13.89v-.09c.42-1.21.78-2.44 1.12-3.67a65.51 65.51 0 0 0 1.69-7.55l.11-.74a44.61 44.61 0 0 0 7.61 1.18 53.2 53.2 0 0 0 13.54-.82 65.72 65.72 0 0 0 12.75-3.74l1.53-.61 1.48-.68 2.95-1.37c1.89-1 3.85-2 5.66-3.1s3.68-2.2 5.4-3.42l2.63-1.8 2.53-1.89c.83-.63 1.68-1.25 2.51-1.91l2.44-2c1.65-1.3 3.19-2.73 4.75-4.13a137.66 137.66 0 0 0 16.94-18.47c2.56-3.29 4.92-6.72 7.17-10.2 1.1-1.76 2.19-3.53 3.24-5.31a228.34 228.34 0 0 0 32.5-2.23c5.88-.8 11.72-2 17.52-3.27s11.52-3 17.18-4.89a167.73 167.73 0 0 0 32.47-15 140.16 140.16 0 0 0 14.1-9.67c-.25.91-.46 1.84-.66 2.78a29.87 29.87 0 0 0-.62 8c.07.72.11 1.46.23 2.16l.44 2.1c.2.69.43 1.39.66 2.08s.58 1.37.87 2a19.08 19.08 0 0 0 5.93 7.1 17.15 17.15 0 0 0 9.2 3.09 17.72 17.72 0 0 0 9.36-2.34l5.94-3.31c1.95-1.11 3.94-2.13 5.9-3.2 4-2.1 7.94-4.11 12-6s8.11-3.62 12.2-5.3 8.23-3.12 12.4-4.37a114.82 114.82 0 0 1 12.54-2.98c2.11-.41 4.22-.71 6.34-1l3.39-.37a28.12 28.12 0 0 0 4.24-.82 29.86 29.86 0 0 0 14.63-8.81 21.12 21.12 0 0 0 2.73-3.8 20.06 20.06 0 0 0 1.93-4.47 20.26 20.26 0 0 0 .39-9.77 25.1 25.1 0 0 0-3.43-8.3q-.56-.91-1.17-1.74l-.61-.84c-.08-.12-.26-.33-.41-.51l-.47-.53a16.94 16.94 0 0 0-4.23-3.34 25.74 25.74 0 0 0-8.52-2.7 44.26 44.26 0 0 0-7.81-.35 77.45 77.45 0 0 0-14.42 2c-1.34.32-2.67.64-4 1 1.53-2.95 3-5.93 4.34-9a180.22 180.22 0 0 0 7.29-18.76 141.18 141.18 0 0 0 4.82-19.89 92.61 92.61 0 0 0 1.23-20.93 59.88 59.88 0 0 0-4.92-21.31l-1.13-2.54c-.43-.85-.93-1.66-1.39-2.48a46.94 46.94 0 0 0-3-4.67 50.15 50.15 0 0 0-7.52-8.36l-2.27-1.8-1.15-.88-1.24-.78c-.83-.51-1.64-1-2.5-1.52s-1.77-.86-2.65-1.28a36.52 36.52 0 0 0-11.31-3 38.46 38.46 0 0 0-11.28.72c-.61.12-1.21.26-1.81.42q.33-11.24-.27-22.47A181.89 181.89 0 0 0 705.57 653c1.65-1.57 3.31-3.11 4.94-4.71s3.2-3.25 4.72-5 3.06-3.4 4.46-5.23l2.14-2.69 2-2.78a104.54 104.54 0 0 0 13.31-24.38 90.27 90.27 0 0 0 4-13.52 72.73 72.73 0 0 0 1.69-14.21 54.83 54.83 0 0 0-.31-7.41c-.07-.63-.15-1.27-.27-1.94l-.17-1-.23-1a18.4 18.4 0 0 0-.66-2.27l-.76-1.93a34.33 34.33 0 0 0-4.2-7 28.1 28.1 0 0 0-6.22-5.86 21.59 21.59 0 0 0-8.51-3.5c-.79-.11-1.58-.23-2.36-.3s-1.57 0-2.36 0a12.46 12.46 0 0 0-2.3.26c-.74.14-1.52.25-2.23.45a28.17 28.17 0 0 0-7.68 3.53 29.86 29.86 0 0 0-6.26 5.25 23.49 23.49 0 0 0-4.5 7.45 21.48 21.48 0 0 0-1.26 8.59 25.56 25.56 0 0 0 1.8 7.89 31.14 31.14 0 0 0 1.7 3.48c.18.32.37.63.57.94-.15.19-.31.38-.47.56-.79.93-1.63 1.83-2.47 2.74s-1.72 1.78-2.6 2.65-1.79 1.71-2.72 2.54a87.36 87.36 0 0 1-11.83 9c-2.05 1.4-4.25 2.53-6.39 3.76-2.24 1.05-4.41 2.25-6.72 3.1a61.25 61.25 0 0 1-7.63 2.71q-1.94-6.26-4.27-12.38c-.9-2.32-1.83-4.62-2.8-6.92-.43-1-.9-2-1.37-3.07 1.16-.7 2.29-1.42 3.43-2.17 2.21-1.46 4.37-3 6.47-4.6a151.79 151.79 0 0 0 12.11-10.25 183 183 0 0 0 21-23.9 159 159 0 0 0 16.68-27.55 111.29 111.29 0 0 0 9.57-31.31c.38-2.74.63-5.5.78-8.27s.14-5.49 0-8.2a117.28 117.28 0 0 0-1.61-16.19 106 106 0 0 0-29.21-56.89c-.47-.48-1-.95-1.43-1.42a109.55 109.55 0 0 0-10.44-9c13.67-19.57 16.14-33.87 16.24-34.5a4.23 4.23 0 0 0-8.35-1.36c0 .14-2.24 13-14.8 31q-2.76-1.78-5.61-3.42c5.74-22.16-.61-43.52-.89-44.44a4.23 4.23 0 0 0-8.09 2.47c.06.19 5.56 18.68 1.27 37.87q-3.87-1.87-7.84-3.5a137.72 137.72 0 0 0-15-5.19 166.44 166.44 0 0 0-31.13-5.67 207.57 207.57 0 0 0-31.54-.26 212.83 212.83 0 0 0-31.18 4.54q-9.51 2.1-18.8 5c-28.17-15.93-139.7-74-253.66-64.75-131.85 10.67-121.18 56-119.77 68.46s7.2 55.3 136.39 23.15c99.78-24.83 156.4-8.72 177-.1-2.57 1.52-5.13 3.06-7.65 4.65q-6.66 4.17-13.1 8.69c-2.14 1.51-4.27 3.05-6.38 4.64l-3.15 2.41-1.07.85a482.82 482.82 0 0 0-78.94-3.34c-13.61.58-27.22 1.73-40.74 3.56s-27 4.32-40.28 7.43q-10 2.37-19.84 5.21t-19.56 6.19c-13 4.41-25.6 9.65-38.05 15.27a155.22 155.22 0 0 0-35.54 23 122.82 122.82 0 0 0-15.1 15.31 77 77 0 0 0-11.71 19.06 52.31 52.31 0 0 0-3.27 11.35 48.91 48.91 0 0 0-.58 6.07 43.81 43.81 0 0 0 .29 6.16 42.24 42.24 0 0 0 3.27 11.82 48.78 48.78 0 0 0 6.1 10.2c1.21 1.54 2.4 3 3.71 4.35s2.67 2.73 4.09 4a53.41 53.41 0 0 0 9.52 6.77 49.79 49.79 0 0 0 22.52 6 72.85 72.85 0 0 0 21.91-2.85 127.33 127.33 0 0 0 19.8-7.43 282.44 282.44 0 0 0 35.61-20.48c11.31-7.51 22.29-15.37 33.14-23.35 2.72-2 5.39-3.93 8.08-5.89s5.44-3.8 8.23-5.6 5.57-3.6 8.38-5.37 5.69-3.41 8.59-5q8.64-4.9 17.66-9.12t18.34-7.58c3.1-1.14 6.24-2.16 9.39-3.14s6.34-1.8 9.54-2.57 6.41-1.41 9.64-1.91c.95-.15 1.91-.29 2.86-.41a131.07 131.07 0 0 0-13.15 34.35 143.82 143.82 0 0 0-3.5 41.87c-20.38 3.41-31.34-3.55-31.88-3.9a4.23 4.23 0 0 0-4.72 7c.48.32 9.49 6.26 25.84 6.26a74.25 74.25 0 0 0 11.56-.94q.72 5.84 2 11.62a57.25 57.25 0 0 1-26.59 6.34 52.26 52.26 0 0 1-11.48-1.15 4.23 4.23 0 0 0-2.13 8.18 57.91 57.91 0 0 0 13.73 1.48 65.38 65.38 0 0 0 28.6-6.44 113.68 113.68 0 0 0 4.42 12.53q.87 2.09 1.83 4.14a100.28 100.28 0 0 0 14.71 23 88.87 88.87 0 0 0 13.53 12.89 84.63 84.63 0 0 0 20.3 11.57 93.92 93.92 0 0 0 22.37 5.69 128.58 128.58 0 0 0 13.36 1.08 83.59 83.59 0 0 0-7.77 5.65 72.94 72.94 0 0 0-12.73 13.4 63 63 0 0 0-12.05 35.23 74.65 74.65 0 0 0 1.8 18.67 54.64 54.64 0 0 0 6.1 15.65c-1.2.7-2.38 1.44-3.54 2.2a80.35 80.35 0 0 0-8.9 6.89 88.11 88.11 0 0 0-7 7c-11.46-13.23-38.59-34.11-81.55-6-58.71 38.46-39.22 90.07-8.46 106.79 25.25 13.73 39 12.59 50.15 13.66 4.51.43 11.1-1.36 15.76-2.91.52 1.71 1.05 3.41 1.6 5.08 1.22 3.59 2.47 7.11 3.72 10.6a30.38 30.38 0 0 0-5.48-1.46 19.18 19.18 0 0 0-9.41.68 16.46 16.46 0 0 0-7.92 6.12 26.19 26.19 0 0 0-3.71 8.14 40.07 40.07 0 0 0-.88 4l-.62 3.55q-1.2 7.13-2.58 14.13a167.81 167.81 0 0 1-5 20.42q-7.46-3.56-14.85-7.25-8.46-4.23-16.8-8.68-4.17-2.24-8.3-4.51l-4.11-2.31-2-1.16-1-.59-.51-.29-.12-.08a5.56 5.56 0 0 0-.69-.35 5.71 5.71 0 0 0-1.52-.44c-2.23.77-4.54 1.63-6.81 2.6l-1.7.74-.84.39-.68.33-2.66 1.33c-1.77.9-3.58 1.73-5.31 2.7l-5.23 2.84c-6.89 3.92-13.69 8-20.22 12.51a359.35 359.35 0 0 0-37.35 29.27 463.32 463.32 0 0 0-33.71 33.36q-8 8.75-15.6 17.89-3.79 4.58-7.48 9.26-1.85 2.34-3.66 4.73c-1.22 1.62-2.38 3.16-3.64 4.93l-.16.24a9.06 9.06 0 0 0-.61 1.1 8.47 8.47 0 0 0 4.16 11.24c14.31 6.58 28.69 13 43.36 18.7 7.28 3 14.7 5.6 22.06 8.37 3.69 1.35 7.42 2.59 11.12 3.89s7.42 2.59 11.17 3.76l11.21 3.62c3.74 1.17 7.51 2.27 11.26 3.41l5.64 1.7 5.67 1.59 11.33 3.16q22.74 6 45.72 11c1.4.3 2.8.58 4.21.87-4.66 6.71-9.46 13.38-14.31 20q-9.09 12.29-18.57 24.22t-19.53 23.3c-6.72 7.52-13.63 14.84-20.82 21.7l-.19.19a7.45 7.45 0 0 0 3.84 12.46c2.34.49 4.44.89 6.64 1.27s4.34.75 6.51 1.1c4.33.68 8.67 1.29 13 1.86q13 1.65 26 2.72c17.38 1.43 34.79 2.11 52.19 2.16s34.79-.58 52.14-1.81 34.63-3.25 51.82-5.79l12.88-2 12.82-2.35c4.28-.73 8.52-1.68 12.77-2.57l6.38-1.35 3.19-.67 3.16-.76 12.67-3c2.12-.48 4.21-1.08 6.31-1.65l6.28-1.7c8.42-2.16 16.68-4.86 25-7.33a640.45 640.45 0 0 0 96.18-39.65 4 4 0 0 0 2-4.77Zm-28-529.95c2.54-.95 4.92-2.25 7.37-3.41 2.35-1.34 4.75-2.59 7-4.1a97.05 97.05 0 0 0 12.86-9.78c1-.9 2-1.84 3-2.76s1.91-1.91 2.84-2.89 1.85-2 2.73-3c.45-.51.88-1 1.32-1.58.22-.26.43-.53.65-.82l.68-.89.06-4.57a4.74 4.74 0 0 0-.18-.52l-.24-.64c-.15-.43-.29-.88-.42-1.32a23.87 23.87 0 0 1-.64-2.66 17.83 17.83 0 0 1-.25-5 11.84 11.84 0 0 1 3.94-7.69 20.85 20.85 0 0 1 4-2.88 17.89 17.89 0 0 1 4.29-1.81 9.55 9.55 0 0 1 3.78-.13 8.85 8.85 0 0 1 3.55 1.47 15 15 0 0 1 3.31 3.11 21 21 0 0 1 2.55 4.22l.46 1.12a6.77 6.77 0 0 1 .25.88l.13.56.11.63a12.75 12.75 0 0 1 .18 1.32 40.86 40.86 0 0 1 .27 5.71 72.73 72.73 0 0 1-4.54 23.62 90 90 0 0 1-5 11.26c-.44.93-1 1.82-1.46 2.72s-1 1.82-1.54 2.7c-1.11 1.75-2.15 3.55-3.37 5.24l-1.77 2.57-1.89 2.5c-1.22 1.69-2.61 3.26-3.93 4.89s-2.78 3.15-4.16 4.73-2.94 3-4.4 4.55a189.88 189.88 0 0 1-31.25 24.45q-1.12-13-3.46-25.79c-1.42-7.71-3.16-15.37-5.26-22.93a68.27 68.27 0 0 0 8.4-3.08ZM459 381.38c-6.86-2.33-13.8-4.41-20.85-6.19s-14.12-3.4-21.27-4.74a393.64 393.64 0 0 0-43.3-5.69q-10.9-.84-21.8-1.1c-3.63-.09-7.26-.13-10.87-.1-1.8 0-3.61 0-5.39.08l-2.67.08-2.51.11H330a11.75 11.75 0 1 1-1-23.47h3.65l2.94.05c1.95 0 3.88.11 5.81.2q5.77.24 11.52.67 11.47.83 22.86 2.27a412.49 412.49 0 0 1 45.18 8.17q11.19 2.65 22.19 6.08c7.34 2.25 14.59 4.81 21.76 7.63s14.2 6 21.13 9.37c4 2 7.89 4.1 11.76 6.32q-9.3 3.76-18.3 8.18l-.23-.1c-6.66-2.87-13.38-5.55-20.27-7.82ZM445.15 694.1a58.23 58.23 0 0 1 17-26.07 75.55 75.55 0 0 1 13.08-9.51 81.43 81.43 0 0 1 9.08-4.49q5.11-.53 10.17-1.31a252.32 252.32 0 0 0 42.12-10.57q10.21-3.48 20.14-7.68c3.3-1.42 6.57-2.87 9.82-4.39s6.44-3.11 9.66-4.88a3.29 3.29 0 0 0-2.64-6h-.07a469.182 469.182 0 0 1-40.19 11.64 318.24 318.24 0 0 1-40.75 7.24 195.49 195.49 0 0 1-20.31 1.08 128.94 128.94 0 0 1-19.85-1.45 85.08 85.08 0 0 1-18.59-5 73.73 73.73 0 0 1-16.44-9.35c-1.95-1.45-3.83-3-5.64-4.63a91.53 91.53 0 0 1-19-24.85 110 110 0 0 1-7.32-17.11 124.71 124.71 0 0 1-4.83-19.51c-.08-.42-.14-.84-.21-1.26a129.86 129.86 0 0 1 .14-40.61 110 110 0 0 1 12.46-36.16c.41-.75.84-1.49 1.28-2.22l.09-.14a3.51 3.51 0 0 0 .48-1.93 3.47 3.47 0 0 0-3.61-3.32c-1.05 0-1.86.11-2.77.2h-.32c-.77.07-1.54.16-2.29.27-1.73.22-3.43.5-5.14.8-3.39.62-6.75 1.35-10.07 2.16q-10 2.5-19.6 6c-6.41 2.3-12.72 4.89-18.92 7.68s-12.27 5.85-18.26 9.05a375.31 375.31 0 0 0-34.65 21.31c-11.08 7.5-22.26 14.83-33.69 21.59a268.88 268.88 0 0 1-35.09 18 122.29 122.29 0 0 1-18.16 5.89 60.06 60.06 0 0 1-18 1.6 36.31 36.31 0 0 1-16-4.91 39.75 39.75 0 0 1-6.71-5.08c-1-1-2-2-3-3.12s-1.9-2.26-2.72-3.38a29.82 29.82 0 0 1-6-14.67 31.56 31.56 0 0 1 2.68-15.76 62 62 0 0 1 9.39-15.07 108.14 108.14 0 0 1 13.18-13.3 146.26 146.26 0 0 1 15.29-11.4 133.09 133.09 0 0 1 16.53-9.29 418.21 418.21 0 0 1 74.39-26.41c51.15-12.94 104.79-15.9 157.5-10.08h.11a5.94 5.94 0 0 0 4.53-1.44c.82-.71 1.82-1.55 2.76-2.31l2.92-2.33c2-1.54 4-3.05 6-4.53q6.09-4.44 12.43-8.56l.78-.5c11.18 5.95 40.42 18.2 70.48 3.25 34-16.89 36.63-35.83 36.19-43.23a183.54 183.54 0 0 1 34.84-.63 151.45 151.45 0 0 1 25.77 4.16 121.81 121.81 0 0 1 31 12.42 101.27 101.27 0 0 1 23.11 18.11 91.44 91.44 0 0 1 10.5 13.47 90.47 90.47 0 0 1 5.84 10.61 95.14 95.14 0 0 1 7.9 27.87 103.24 103.24 0 0 1 .79 14.5c0 2.43-.17 4.87-.36 7.19s-.56 4.7-1 7A102.23 102.23 0 0 1 694 515.9a162.09 162.09 0 0 1-15.7 24.76 296.94 296.94 0 0 1-19.45 22.49q-5.1 5.46-10.33 10.86l-10.4 10.79-.2.21a5.9 5.9 0 0 0-1.45 5.62l.9 3.32.88 3.43c.59 2.29 1.15 4.6 1.67 6.91 1.09 4.62 2.08 9.26 3 13.91.13.66.27 1.33.39 2q2.55 13 4.34 26a413 413 0 0 1 4 56.52 344.61 344.61 0 0 1-4.65 56.51c-1.54 9.36-3.53 18.66-5.85 27.92-1.21 4.61-2.43 9.23-3.8 13.82s-2.84 9.16-4.31 13.75a2.79 2.79 0 0 0 5.11 2.18c2.35-4.31 4.59-8.7 6.63-13.18s4-9 5.77-13.62a248.35 248.35 0 0 0 9-28.28 268.51 268.51 0 0 0 7.76-50.16c1.18-.1 2.34-.15 3.49-.15a38.9 38.9 0 0 1 8.27.87 30.63 30.63 0 0 1 7.36 2.81 35.4 35.4 0 0 1 6.42 4.65l1.43 1.47a14.47 14.47 0 0 1 1.41 1.51c.87 1.1 1.84 2.09 2.63 3.3a35.2 35.2 0 0 1 2.34 3.52c.34.6.72 1.17 1 1.78l.88 1.88a50.56 50.56 0 0 1 4.08 16.67 79.06 79.06 0 0 1 .24 9c-.08 1.52-.14 3.05-.27 4.58s-.22 3.06-.45 4.6a151.06 151.06 0 0 1-3.46 18.45c-.79 3.06-1.6 6.12-2.55 9.16s-1.88 6.09-2.93 9.11-2.14 6-3.3 9c-.87 2.22-1.77 4.48-2.69 6.66-.31.73-.61 1.45-.92 2.15l-.28.63a3.85 3.85 0 0 0 3.52 5.38 3.88 3.88 0 0 0 1.41-.27c.87-.14 1.74-.29 2.62-.42 3.44-.56 7-1.06 10.42-1.41a92.49 92.49 0 0 1 12.76-.56 38.47 38.47 0 0 1 5.81.66 13.61 13.61 0 0 1 4.4 1.54 4.45 4.45 0 0 1 1.06.94l.09.11a.48.48 0 0 1 .13.16l.38.55a12.05 12.05 0 0 1 .71 1.1 14.45 14.45 0 0 1 1.74 4.28 8 8 0 0 1-.14 3.76 7.46 7.46 0 0 1-.76 1.79 9.37 9.37 0 0 1-1.25 1.74 17.48 17.48 0 0 1-8.47 5.06 15.68 15.68 0 0 1-2.47.5l-3.4.38c-2.39.32-4.79.66-7.16 1.15a124.36 124.36 0 0 0-13.9 3.63c-4.54 1.43-8.93 3.15-13.29 4.92s-8.58 3.8-12.75 5.9-8.27 4.28-12.31 6.57c-2 1.16-4 2.27-6 3.49l-5.87 3.57a6.69 6.69 0 0 1-7.3.08 8.68 8.68 0 0 1-2.88-3.16c-.17-.36-.38-.69-.53-1.07l-.43-1.15-.32-1.24c-.1-.42-.12-.82-.19-1.23a21.67 21.67 0 0 1 .17-5.58 43.9 43.9 0 0 1 1.34-6.05c.59-2 1.28-4.07 2.07-6.09.6-1.56 1.28-3.17 2.26-5.29l.3-.6v-.08a4 4 0 0 0-6.65-4.38l-.44.52c-.26.3-.55.62-.83.92-.46.5-1 1-1.42 1.49-1 1-2 2-3 2.9-2 1.9-4.2 3.72-6.42 5.47a130.94 130.94 0 0 1-14 9.63 159.44 159.44 0 0 1-30.91 14.23q-8.1 2.7-16.44 4.68c-5.56 1.26-11.16 2.37-16.82 3.14a220.27 220.27 0 0 1-26.93 2.11c1.43-2.79 2.76-5.63 4-8.5 1.66-3.77 3.21-7.58 4.54-11.47s2.59-7.8 3.61-11.78c.5-2 1-4 1.42-6s.8-4 1.09-6.21a4 4 0 0 0-7.78-1.75l-.06.17c-.54 1.67-1.18 3.58-1.84 5.36s-1.35 3.61-2.06 5.41c-1.47 3.58-3 7.13-4.63 10.62s-3.4 6.92-5.23 10.29-3.82 6.67-5.81 9.93-4.17 6.41-6.38 9.51-4.54 6.1-7 9A142.92 142.92 0 0 1 476.21 918c-11.33 9.86-24.07 18.43-37.54 21.89a41.83 41.83 0 0 1-20.25.36l-.51-.14a39.35 39.35 0 0 1-9.14-3.61 42.28 42.28 0 0 1-4.5-2.82c-.72-.51-1.43-1-2.12-1.61l-1-.84-.47-.42c-.15-.13-.33-.31-.39-.35l-1.4-.76a3.85 3.85 0 0 0-5.06 5.49l.53.82c.17.25.33.48.5.71.33.47.67.91 1 1.35.7.87 1.41 1.74 2.18 2.53a47.83 47.83 0 0 0 4.92 4.51 46.82 46.82 0 0 0 9.15 5.53q-.21.87-.45 1.74c-.61 2.16-1.31 4.31-2.13 6.43a105.15 105.15 0 0 1-5.78 12.43c-2.28 4-4.68 7.94-7.36 11.72-.63 1-1.36 1.88-2 2.81l-2.07 2.79a34.15 34.15 0 0 1-4.16 4.53 19.85 19.85 0 0 1-9.63 5 14.55 14.55 0 0 1-9.8-1.83 17.07 17.07 0 0 1-7-7.74 14.66 14.66 0 0 1 .06-12.4c.09-.2.19-.39.29-.58s.18-.35.35-.65l.89-1.59 3.54-6.41a126.24 126.24 0 0 0 6.58-13.68 101.88 101.88 0 0 0 4.49-14.65c1.15-4.9 2-9.76 2.81-14.6s1.45-9.67 2.08-14.48l.48-3.62c.14-1 .31-2.07.53-3.06a16.77 16.77 0 0 1 1.95-5.12 6.93 6.93 0 0 1 3.18-2.83 10 10 0 0 1 4.89-.58 24.6 24.6 0 0 1 5.92 1.46c1 .37 2 .8 3 1.27.49.24 1 .48 1.45.74s1 .55 1.33.75a3.64 3.64 0 0 0 3.14 1.26 3.6 3.6 0 0 0 3.19-4l-.16-1.49c-.09-.85-.2-1.7-.3-2.55-.83-6.29-2.12-12.46-3.26-18.48a151.82 151.82 0 0 1-2.83-19.94 117.72 117.72 0 0 1 .47-19.75 198.71 198.71 0 0 1 3.13-19.89 138.3 138.3 0 0 1 6.39-21.48 116.2 116.2 0 0 1 7.49-15.63c1.67-2.84 3.44-5.63 5.34-8.33s4-5.25 6.15-7.74a90.9 90.9 0 0 1 7-7.07q1.48-1.34 3-2.58c.51.55 1 1.1 1.58 1.62a43.11 43.11 0 0 0 9.12 6.96 52.06 52.06 0 0 0 18.75 6.08 65.5 65.5 0 0 0 19.22-.4c1.6-.27 3.2-.6 4.83-1 .82-.22 1.64-.45 2.48-.73s1.56-.53 2.33-.83a54.13 54.13 0 0 0 8.9-4.33 43.63 43.63 0 0 0 8.15-6.28 30.28 30.28 0 0 0 6.48-9.08A25.19 25.19 0 0 0 528 737a23.48 23.48 0 0 0 .27-6.15 22.59 22.59 0 0 0-.46-3c-.22-1-.51-2-.78-2.77a33.64 33.64 0 0 0-2.11-5 25.85 25.85 0 0 0-3.28-4.82 20.74 20.74 0 0 0-4.77-4.07 18.94 18.94 0 0 0-5.91-2.41 21.33 21.33 0 0 0-6-.44 30 30 0 0 0-10.24 2.68 45.25 45.25 0 0 0-4.34 2.22l-.63.37a8.89 8.89 0 0 1-.84-2.28 24.18 24.18 0 0 1-.51-7.17v-.14a4 4 0 0 0-7.9-1.2 30 30 0 0 0-.72 10 17.21 17.21 0 0 0 1.48 5.62 10.72 10.72 0 0 0 2.19 3.13 8.88 8.88 0 0 0 4.15 2.43 9.9 9.9 0 0 0 4.52-.05 12.86 12.86 0 0 0 1.78-.56l1.32-.57a34.11 34.11 0 0 1 3.48-1.35 18.56 18.56 0 0 1 6.48-1 7.17 7.17 0 0 1 4.42 1.53 10.8 10.8 0 0 1 2.83 4.2 25.2 25.2 0 0 1 1 3 4.47 4.47 0 0 1 .17.74c0 .22.1.44.12.66s0 .42.08.63v.63a9.71 9.71 0 0 1-.22 2.41 11 11 0 0 1-.79 2.41c-1.46 3.28-4.82 6.62-8.87 9.13a40.07 40.07 0 0 1-6.51 3.28c-.57.23-1.17.44-1.72.64s-1.07.35-1.64.51c-1.14.32-2.35.6-3.57.82-9.89 1.76-20.64.9-29-3.56a30.31 30.31 0 0 1-10.5-9.26 41.27 41.27 0 0 1-6.08-13.48 62.9 62.9 0 0 1-2-15.46 52.86 52.86 0 0 1 2.25-15.2Zm45 20.21s-.13 0-.27-.25c.2.09.32.21.31.25ZM354.8 1099.2q-22.53-5.49-44.77-12l-11.03-3.39-5.53-1.7-5.5-1.81c-3.67-1.21-7.34-2.38-11-3.63l-10.97-3.82c-3.66-1.24-7.26-2.62-10.87-4s-7.23-2.67-10.81-4.09c-7.15-2.88-14.35-5.63-21.4-8.73-11.15-4.63-22.09-9.72-33-15l.76-1.1q3.3-4.66 6.76-9.26 6.88-9.18 14.23-18.06a449.3 449.3 0 0 1 31.06-33.94 346.93 346.93 0 0 1 34.71-30.1c6.09-4.65 12.44-8.92 18.89-13l4.9-3c1.62-1 3.31-1.89 5-2.85l4.52-2.52c1.1-.64 2.17-1.38 3.29-2.18l.66.39 2.06 1.23 4.15 2.42q4.14 2.4 8.33 4.72 8.37 4.64 16.84 9.08 7.72 4.05 15.53 7.91c-1.22 2.69-2.58 5.35-4.05 8l-1.24 2.24-2.73 4.73-.85 1.48-.9 1.56-.53 1c-.19.33-.37.67-.53 1a24.72 24.72 0 0 0-1.68 4.36 26.92 26.92 0 0 0 1.35 18.33 29.4 29.4 0 0 0 12.09 13.53 26.62 26.62 0 0 0 18.14 3.2 28.75 28.75 0 0 0 8.64-3.11 34.51 34.51 0 0 0 7-5.23 45.92 45.92 0 0 0 5.45-6.29c1.43-2.08 2.88-4.12 4.21-6.26l.27-.44c1.23-2 2.48-4 3.6-6.07l.5-.91c1.06-1.91 2-3.88 3-5.84l.57-1.28q18.36 7.71 37 14.65c12 4.38 24.05 8.56 36.22 12.44 3 1 6.1 1.89 9.15 2.84s6.1 1.87 9.18 2.74l9.21 2.65 9.26 2.48 4.63 1.24 4.66 1.15 9.31 2.3c6.25 1.38 12.46 2.91 18.75 4.12l9.41 1.92 9.45 1.71 4.73.85 4.75.74 1.24.2c-2.73 6.94-5.64 13.9-8.63 20.76-4.11 9.41-8.46 18.72-13.1 27.86q-3.48 6.85-7.21 13.56c-2.51 4.45-5.1 8.84-7.81 13.14s-5.6 8.46-8.64 12.47a99.05 99.05 0 0 1-8.74 10.12c-7.1-.14-14.33-.49-21.5-.94q-11.58-.73-23.15-1.79c-15.42-1.39-30.81-3.24-46.14-5.4-30.64-4.32-61.07-10.19-91.15-17.38Zm238.75 83.8c-8.23 2.3-16.4 4.81-24.72 6.8l-6.22 1.57c-2.07.52-4.14 1.08-6.23 1.51l-12.51 2.79-3.13.69-3.15.61-6.29 1.22c-4.2.81-8.38 1.67-12.61 2.32l-12.64 2.09-12.69 1.77c-16.94 2.21-34 3.86-51 4.82s-34.13 1.24-51.19.91-34.11-1.3-51.06-3q-12.71-1.27-25.33-3.09-6-.9-12.07-1.94 5.81-6.74 11.3-13.65c6.41-8.17 12.56-16.48 18.54-24.89s11.74-17 17.37-25.58c5.12-7.84 10.11-15.71 15-23.75 1.9.39 3.81.75 5.72 1.12 2.77.54 5.55 1.07 8.32 1.58q32.7 6.08 65.72 10c11.76 1.36 23.55 2.54 35.35 3.47 2.66.22 5.32.4 8 .58 1.13.08 2.27.18 3.41.25 1.52.11 3.05.18 4.57.27q4 .25 8 .47c3.63.18 7.26.35 10.9.49 7.84.29 15.61.48 23.57.41h.16a3.65 3.65 0 0 0 2.51-1 103.69 103.69 0 0 0 11.12-11.84c3.41-4.11 6.6-8.37 9.62-12.71s5.89-8.77 8.66-13.24c.66-1.07 1.29-2.15 1.94-3.23 2.06-3.43 4.09-6.88 6.06-10.36l.06-.12q1.82-3.22 3.57-6.48l9-2.41 9.44-2.73c6.28-1.92 12.54-3.88 18.75-6.11s12.4-4.55 18.52-7.2c3.06-1.32 6.11-2.71 9.15-4.21l1.43-.72 37.32 96.58a630.72 630.72 0 0 1-92.24 35.94Z"/>
        <path d="M884.61 980.86a58.87 58.87 0 0 0-12.29-18.63 3.46 3.46 0 0 0-1.05-.79l-.09-.05c-1-.49-1.81-.87-2.7-1.26s-1.76-.75-2.64-1.12c-1.76-.72-3.52-1.4-5.3-2-3.54-1.3-7.13-2.43-10.74-3.48a206.63 206.63 0 0 0-21.93-5.06 237.72 237.72 0 0 0-44.81-3.36c-1.88 0-3.75.13-5.63.18s-3.75.15-5.62.3l-5.61.4-5.6.56c-1.87.17-3.73.42-5.59.67l-5.58.77-5.55.92-2.77.47-2.76.55A294.3 294.3 0 0 0 695 961.94l-.31.12a6.43 6.43 0 0 0-3.43 8.42l.11.25c.49 1 1 2.27 1.55 3.44s1 2.38 1.52 3.58c1 2.4 1.92 4.83 2.82 7.27 1.79 4.89 3.38 9.85 4.74 14.84a130.69 130.69 0 0 1 3.22 15.08c.36 2.52.64 5 .8 7.55.06 1.25.14 2.51.13 3.75v2.81a12.55 12.55 0 0 0 1.54 5 7.36 7.36 0 0 0 3.55 1.15 7.65 7.65 0 0 0 1 0h.45l.3-.05h.33l1.32-.21 2.68-.4 5.39-.72c3.61-.46 7.23-.86 10.86-1.23q10.88-1.11 21.81-1.75c14.55-.86 29.14-1.14 43.63-.6a266.33 266.33 0 0 1 42.88 4.76 142.78 142.78 0 0 1 20.35 5.65 78.91 78.91 0 0 1 18.1 9.17l.57.35a6.73 6.73 0 0 0 2.37.86 6.65 6.65 0 0 0 7.61-5.52c.17-1.07.27-1.91.39-2.85l.29-2.72c.18-1.81.32-3.62.43-5.42.23-3.6.33-7.21.31-10.81a136.76 136.76 0 0 0-1.74-21.63 91.64 91.64 0 0 0-5.96-21.22Zm-4.5 42.42c-.2 3.32-.52 6.64-1 9.93a.68.68 0 0 1 0 .14 104.13 104.13 0 0 0-12.47-5.21 156 156 0 0 0-22.33-5.72 278.23 278.23 0 0 0-45-4.1c-15-.26-29.88.34-44.72 1.51q-11.14.88-22.22 2.24-5.55.67-11.08 1.48l-4.88.75v-2.19c-.05-2.86-.23-5.68-.5-8.48a143.85 143.85 0 0 0-2.72-16.53q-1.83-8.11-4.32-16c-.83-2.64-1.7-5.25-2.63-7.86l-.52-1.41a280.59 280.59 0 0 1 35-10.39l2.63-.6 2.64-.52 5.28-1 5.32-.88c1.77-.3 3.54-.59 5.32-.8l5.34-.69 5.36-.54c1.79-.2 3.58-.32 5.37-.43s3.59-.28 5.38-.33a227.33 227.33 0 0 1 43 2 198.59 198.59 0 0 1 21.11 4.23c3.47.9 6.92 1.88 10.3 3 1.7.56 3.38 1.16 5 1.78.82.32 1.65.63 2.46 1l1.62.69a50.35 50.35 0 0 1 8.92 16 81.29 81.29 0 0 1 4 19.13 124.14 124.14 0 0 1 .34 19.8ZM832.16 403.69c.25 0 25.68 3.51 28.72 22.2a4 4 0 0 0 3.82 3.36h.13a4 4 0 0 0 3.9-3.11c.06-.25 5.87-25 20.92-30.31a4 4 0 0 0-.5-7.68A48.22 48.22 0 0 1 863 369.81a4 4 0 0 0-7.15 1.45c-.14.6-3.67 14.71-24.88 24.85a4 4 0 0 0 1.22 7.58Zm28.69-23.85a57.29 57.29 0 0 0 18 13.05c-6.94 5.54-11.51 13.86-14.29 20.56-5.34-8.28-14.21-12.8-21.17-15.19 9.61-6.38 14.75-13.4 17.46-18.42ZM387.83 255.47c.26 0 25.68 3.51 28.73 22.21a4 4 0 0 0 3.82 3.35h.13a4 4 0 0 0 3.89-3.11c.06-.25 5.87-25 20.92-30.31a4 4 0 0 0-.5-7.69 48.06 48.06 0 0 1-26.17-18.33 4 4 0 0 0-7.15 1.45c-.14.59-3.68 14.7-24.89 24.85a4 4 0 0 0 1.22 7.57Zm28.7-23.84a57.48 57.48 0 0 0 18 13.05c-6.93 5.53-11.5 13.86-14.29 20.56-5.36-8.24-14.24-12.8-21.24-15.19 9.64-6.39 14.82-13.4 17.53-18.42ZM583.57 227.56c.19.09 18.95 9 20.7 23.41a4 4 0 0 0 3.79 3.49h.18a4 4 0 0 0 3.92-3.17c.12-.57 3.3-14.14 26.35-24.75a4.17 4.17 0 0 0 2.4-4.86 3.74 3.74 0 0 0-4.13-2.79c-1.15-.23-9.84-2.77-21.9-26.87a4 4 0 0 0-7.44.74c-.06.22-6.24 22.39-23.29 27.33a4 4 0 0 0-.58 7.47Zm28.33-24.18c6.16 10.66 11.61 16.52 15.88 19.72-9.73 5.68-15.49 11.86-18.87 16.83-3.81-7-10-12.2-14.86-15.49 9.09-5.44 14.71-14.39 17.85-21.06ZM633.6 162.45c.18.1 18.6 10.21 23.64 25.31a4 4 0 0 0 3.39 2.72h.4a4 4 0 0 0 3.47-2c.12-.2 11.63-20.06 25.14-23.66a4 4 0 0 0 .57-7.53c-.22-.09-21.38-9.56-23.16-26.87a4 4 0 0 0-7.74-.94c-.07.19-7.31 19.72-25.08 25.64a4 4 0 0 0-.63 7.32Zm28.45-20.75c4.22 8.88 11.88 15.15 17.61 18.87-7.76 4.69-14.12 12.3-18 17.69-4.85-8.42-12.37-14.83-17.76-18.69 8.65-4.83 14.51-12.06 18.15-17.87ZM893.32 212.25a81.45 81.45 0 0 0-3.48-10.25c-.65-1.68-1.46-3.29-2.22-4.92-.4-.8-.84-1.58-1.26-2.38s-.85-1.58-1.33-2.34a80.79 80.79 0 0 0-70.86-39.8 79.12 79.12 0 0 0-17 2 81.93 81.93 0 0 0-16.17 5.69 5 5 0 0 0 2.17 9.54h.18a56.88 56.88 0 0 1 12.78 1.21 52 52 0 0 1 12 4.18 52.58 52.58 0 0 1 19.36 16.09 55.93 55.93 0 0 1 6.21 11 52.75 52.75 0 0 1 3.41 12.13 52.35 52.35 0 0 1-15.86 45.86 51.62 51.62 0 0 1-10.17 7.45 54.47 54.47 0 0 1-11.66 4.81 52.57 52.57 0 0 1-25.15.72 53.43 53.43 0 0 1-22.82-11.07 5 5 0 0 0-7.83 5.86l.09.19A78.33 78.33 0 0 0 771 299.8a80.28 80.28 0 0 0 81.7 4.2 82.41 82.41 0 0 0 9.19-5.66c1.5-1 2.88-2.17 4.32-3.26s2.77-2.3 4.06-3.57a82.29 82.29 0 0 0 13.67-16.71 83.21 83.21 0 0 0 5.06-9.57c.38-.82.74-1.65 1.06-2.5l1-2.52c.57-1.72 1.23-3.4 1.68-5.16a81.51 81.51 0 0 0 2.33-10.58c.2-1.8.51-3.58.6-5.39l.2-2.7.06-2.7a80.63 80.63 0 0 0-2.61-21.43Zm-12.68 21.13-.07 2.21-.18 2.19c-.07 1.47-.34 2.92-.5 4.38a69.56 69.56 0 0 1-1.93 8.58c-.37 1.42-.9 2.79-1.34 4.19l-.8 2.05c-.25.68-.54 1.36-.85 2a66.46 66.46 0 0 1-4 7.82 67.18 67.18 0 0 1-41.68 30.53 64.84 64.84 0 0 1-17.63 1.92 68.16 68.16 0 0 1-34-9.84 68.41 68.41 0 0 1-8.61-6.15c.92.28 1.84.54 2.78.78a64.23 64.23 0 0 0 30.69-.2 62.71 62.71 0 0 0 27-14.8 63.35 63.35 0 0 0 16.91-25.81 64.07 64.07 0 0 0 2.57-30.72 65.25 65.25 0 0 0-4.3-14.93 63.29 63.29 0 0 0-31.87-32.46 56.55 56.55 0 0 0-4-1.61c1.76-.11 3.52-.18 5.28-.15a68 68 0 0 1 66.47 70ZM229.9 668.26v-.09l-.06.17-.14.58-.31 1.29c-.2.87-.37 1.77-.55 2.66-.37 1.8-.64 3.61-.91 5.42s-.44 3.65-.63 5.47l-.23 2.75-.15 2.76a121.13 121.13 0 0 0 1.08 22.14 103.32 103.32 0 0 0 5.35 21.59 85.72 85.72 0 0 0 4.53 10.18 68.06 68.06 0 0 0 5.89 9.44 4 4 0 0 0 7.12-3.6v-.08c-2-6.65-4.08-13.08-5.7-19.65s-3-13.15-4.12-19.82-1.78-13.44-2.26-20.26l-.31-5.12-.22-5.15-.15-5.18-.06-2.63V667.95a5.07 5.07 0 0 0-.23-1.16 4 4 0 0 0-7.59 2.53 2.81 2.81 0 0 1-.21-.83ZM208 754.4c.56 1 1.12 2 1.7 2.92s1.27 1.87 1.93 2.79a26.46 26.46 0 0 0 2.11 2.66c.75.86 1.51 1.7 2.31 2.49a4.07 4.07 0 0 0 6.71-4.23l-.09-.26c-1.34-3.84-2.85-7.4-4.09-11.14s-2.51-7.41-3.6-11.21-2.19-7.61-3.24-11.47l-1.6-5.82c-.58-1.92-1.09-4-1.72-5.77l-.12-.35a4.07 4.07 0 0 0-7.87.69 45 45 0 0 0-.51 6.74 66 66 0 0 0 .34 6.61 70.47 70.47 0 0 0 2.63 13A64.52 64.52 0 0 0 208 754.4ZM584.14 583.83a17.24 17.24 0 0 0 9.32 2.52 18.23 18.23 0 0 0 8.95-2.66 24.65 24.65 0 0 0 6.27-5.43 30.12 30.12 0 0 0 4.14-6.48 34.56 34.56 0 0 0 2.53-7c.33-1.19.51-2.4.74-3.61.08-.6.14-1.21.21-1.82s.12-1.21.13-1.82l.07-1.83v-2.72l-.07-.81-.14-1.62a109.8 109.8 0 0 0-1.87-12.81c-.47-2.1-.93-4.2-1.53-6.26s-1.18-4.11-1.82-6.15-1.37-4-2.11-6-1.54-4-2.41-5.88c-1.67-3.89-3.52-7.67-5.47-11.38q-4.47-8.34-9.65-16.16c.41-.26.81-.52 1.2-.8a31.57 31.57 0 0 0 6.33-5.84 32.63 32.63 0 0 0 4.37-7.36 35.58 35.58 0 0 0 2.43-15.91 4.26 4.26 0 0 0-8.43-.57v.1a44.94 44.94 0 0 1-3.92 11.73 28.46 28.46 0 0 1-3.24 4.64 25.48 25.48 0 0 1-4.2 3.68 27.91 27.91 0 0 1-4.77 2.67 37.72 37.72 0 0 1-6.1 2.08 54.38 54.38 0 0 1-6.25 1.21 57.3 57.3 0 0 1-3.21.37l-1.61.13c-.51.05-1.12.06-1.49.1l-1.68.2a3.39 3.39 0 0 0-3 2.83 80.69 80.69 0 0 1-6.65 11.87c-.58.93-1.29 1.74-1.92 2.61-.34.42-.7.8-1 1.21a13.29 13.29 0 0 1-1.06 1.18 34.13 34.13 0 0 1-4.66 4.19 34.88 34.88 0 0 1-5.32 3.28 40.25 40.25 0 0 1-6 2.3c-1 .29-2.09.56-3.16.8s-2.15.41-3.25.56-2.2.26-3.3.35c-.55.05-1.1.06-1.64.09h-.81a6 6 0 0 0-.68 0l-1.32.25a4.14 4.14 0 0 0-.24 8.06c.5.13.79.21 1.17.29l1.05.22c.7.14 1.4.24 2.09.33a36.56 36.56 0 0 0 4.17.31 40.12 40.12 0 0 0 8.38-.68A39.21 39.21 0 0 0 542 520a37.44 37.44 0 0 0 7.56-4.24A41.85 41.85 0 0 0 553 513c.41.61.82 1.22 1.2 1.87 1 1.57 1.91 3.26 2.78 5a107.51 107.51 0 0 1 4.69 10.62c.71 1.82 1.35 3.67 2 5.51s1.21 3.73 1.77 5.62 1.14 3.76 1.62 5.68 1 3.82 1.44 5.75l1.32 5.79c.49 2.1 1 4.3 1.69 6.45a51.54 51.54 0 0 0 2.48 6.51c.46 1.08 1.11 2.16 1.68 3.23l1 1.6.53.8.61.78a22.17 22.17 0 0 0 6.33 5.62Zm-12.41-57.74a104.92 104.92 0 0 0-6.19-11.27c-1.18-1.81-2.42-3.6-3.79-5.34-.67-.87-1.41-1.72-2.16-2.56l-.7-.75a35.51 35.51 0 0 0 2-3.14 44.85 44.85 0 0 0 4.52-11.78c1.3.15 2.6.22 3.9.27a44.7 44.7 0 0 0 7.89-.51 40.8 40.8 0 0 0 5.85-1.34c3 5.63 5.83 11.3 8.4 17.05a165.59 165.59 0 0 1 8.09 22.09 111.71 111.71 0 0 1 3.93 22.72l.1 1.43V555.53l-.08 1.23c0 .82-.2 1.62-.28 2.43s-.28 1.61-.51 2.38a21.52 21.52 0 0 1-1.66 4.47 17.44 17.44 0 0 1-2.45 3.78 11.55 11.55 0 0 1-2.92 2.53 5.77 5.77 0 0 1-2.6.86 4.18 4.18 0 0 1-2.3-.63 9.47 9.47 0 0 1-2.69-2.48l-.34-.42-.32-.48-.64-1c-.37-.74-.82-1.38-1.18-2.16a38.88 38.88 0 0 1-2-4.86c-.61-1.71-1.06-3.47-1.57-5.32l-1.61-6.08a157.11 157.11 0 0 0-8.69-23.69ZM548.61 458.89l3.36-1.52 50.68-23a4.23 4.23 0 0 0-3.24-7.81l-39.92 15.1L574 415.1a4.23 4.23 0 0 0-7.26-4.33L543.07 447l-2 3.1a6 6 0 0 0 7.56 8.8ZM520.67 476a6.11 6.11 0 0 0-6.92-9.55l-3.23 1.23-56.63 21.5a4.23 4.23 0 0 0 2.76 8l43.47-13.57-25.95 36.45a4.23 4.23 0 0 0 6.74 5.12l37.59-46.48Z"/>
    </g>
</svg>
