<svg xmlns="http://www.w3.org/2000/svg" viewBox="0 0 900.77 857.87">
    <g id="merged">
        <path class="cls-1" fill="none" d="m517.56 418.33-2.87 1.51 2.87-1.5v-.01zM364.34 690.54a169.54 169.54 0 0 0 21.82 10.35 187.16 187.16 0 0 1-21.74-10.41ZM179 418.86c0 .37-.06.75-.08 1.12l1.36-1.23Z"/>
        <path class="cls-2" fill="#c39876" d="M741.53 700.35v-.26l-.19-.77-.38-1.55-1.54-6.19-3.07-12.4-6.08-24.79-6-24.82c-7.8-32.62-15.47-65.27-22.58-98.05l-14.86-.78-12.6-.62L689 596.48a4 4 0 0 1-7.76 1.93l-18.84-68.86-5.41-.27q12.54 48.12 24.35 96.41l6.07 24.8 6 24.82 1.5 6.21.74 3.1.38 1.55.18.73c0 .09 0 .19.08.28a3 3 0 0 0 1.49 1.64l.26.12.68.25 1.49.55 3 1.11 23.94 8.86 6 2.22 3 1.11 1.5.55a.43.43 0 0 0 .21.06h.15c.09 0 .18.09.27.07a3.08 3.08 0 0 0 1.05 0 4.07 4.07 0 0 0 1-.43 3.53 3.53 0 0 0 .8-.79 3 3 0 0 0 .43-1 2.45 2.45 0 0 0 0-1.08Zm-24-31.44a4 4 0 0 1-4.53-2.69c-2.59-7.91-4.92-15.88-7.16-23.87-1.14-4-2.18-8-3.28-12l-3.13-12-3-12.08c-.95-4-1.94-8.07-2.84-12.12-1.85-8.1-3.61-16.21-5.11-24.39a4 4 0 0 1 7.76-2c2.59 7.9 4.91 15.87 7.15 23.87 1.14 4 2.19 8 3.28 12l3.14 12 3 12.08c1 4 2 8.07 2.85 12.12 1.84 8.09 3.6 16.21 5.1 24.39a4 4 0 0 1-3.23 4.69ZM687.09 521.33l30 .47 7.5.14 3.7.07a3.49 3.49 0 0 0 1.44-.33 3.59 3.59 0 0 0 1.91-2.1 4.13 4.13 0 0 0 .14-.7v-.46l.05-.93.19-3.75a3.57 3.57 0 0 0-.94-2.51 3.84 3.84 0 0 0-1.1-.83 1.44 1.44 0 0 0-.32-.13 1 1 0 0 0-.34-.1 1 1 0 0 0-.35-.07h-.62l-15-.82c-10-.54-20-1.18-29.95-1.76s-20-1.13-30-1.58c-5-.23-10-.46-15-.63s-10-.38-15-.51l-15-.43-15-.31-30-.39-30-.4-7.49-.14-3.64-.07a3 3 0 0 0-1.23.29 3.22 3.22 0 0 0-1.65 1.81c-.06.2-.1.4-.14.6s0 .21 0 .32v.89l-.11 3.75v.68a1.62 1.62 0 0 0 0 .31.94.94 0 0 0 .06.29 1 1 0 0 0 .08.29 2.91 2.91 0 0 0 .62 1 3.14 3.14 0 0 0 1 .73 5.27 5.27 0 0 0 .56.19c.1 0 .2.06.3.06h.24a1.24 1.24 0 0 0 .27 0c5 .19 10 .39 15 .66 10 .48 20 1.15 30 1.8 8.94.56 17.88 1.17 26.81 1.67l3.14.18c5 .27 10 .53 15 .72 4.34.19 8.66.37 13 .5l2 .07q15 .52 30 .86ZM638.33 226.23l24.28.52c7 .08 13.95.21 20.94.26l.33-8.36a4.41 4.41 0 0 0-4.31-4.58l-14.36-.31-38.67-.84-19.17-.41h-.1a4.4 4.4 0 0 0-4.4 4.15l-.5 8.41 11.69.43ZM659.19 569.68l-9 7.3 4 31.7a4 4 0 0 1-7.9 1.27l-5-25.78-4.09 3.32c.83 5.84 1.64 11.69 2.53 17.53l2.91 19.71c.49 3.28 1 6.57 1.39 9.86l.67 4.93.17 1.24.08.61a2.27 2.27 0 0 1 .06.25 3.46 3.46 0 0 0 1.82 2.35 3.62 3.62 0 0 0 1 .32 4.35 4.35 0 0 0 .52.06h1.22l10 .24 10 .37c2.12.11 4.25.21 6.37.33L672 627.9q-6.55-29.08-12.81-58.22ZM638.05 177.94a4 4 0 0 1 8 .29l.45 27.12 14.82.32 1.18-44.73a6.47 6.47 0 0 0-6.34-6.64L639 154a6.49 6.49 0 0 0-6.6 6.21L630.66 205l4.92.11ZM574.44 541.24a4 4 0 0 1-7.61-2.48l3-11.63h-3c-5.53 0-11.06 0-16.59-.07-4.47 15.34-9.22 30.57-14 45.8-2.53 7.87-5 15.76-7.56 23.62L521 620c-5.26 15.66-10.41 31.37-15.82 47l-4 11.73-1 2.93-.5 1.46-.06.19a.29.29 0 0 1 0 .09c0 .06-.06.12 0 .18a1.73 1.73 0 0 0 .29 1.25 1.8 1.8 0 0 0 1 .77l.16.05a.43.43 0 0 1 .16 0h.53l3.09-.29 12.34-1.16 7.17-.67 24.87-70.91a4 4 0 0 1 7.61 2.45l-19.87 67.27 4.41-.42a2.17 2.17 0 0 0 1.22-.7 2.66 2.66 0 0 0 .35-.64l.87-3 3.49-11.89 7-23.78 7.12-23.75c9.17-30.42 18.47-60.8 28.31-91l-9.68-.06ZM556 572.7c-1.11 5-2.49 10-4 14.9s-3.08 9.78-4.77 14.62-3.41 9.67-5.27 14.46-3.76 9.55-5.9 14.23a4 4 0 0 1-7.57-2.59c1.17-5 2.58-10 4.05-14.87s3-9.79 4.68-14.65 3.36-9.69 5.19-14.48 3.78-9.55 6-14.21a4 4 0 0 1 7.59 2.59Z"/>
        <path d="M529.14 464.36a22.91 22.91 0 0 0 7.91-4.15 25.47 25.47 0 0 0 2.43-2.23 38.42 38.42 0 0 0 7-10.83c.52-1.13 1-2.29 1.43-3.47.18-.49.36-1 .52-1.47s.39-1.13.56-1.7c-2.67 2.25-6.9 5.31-11.4 6.55a11.92 11.92 0 0 1-8.61-.49 10.65 10.65 0 0 1-1.44-.85c-10.15-7.08-.58-15.51-.58-15.51-11.63-.23-11.36-6.81-9.42-11.87l-2.87 1.5c-1 .52-1.88 1.11-2.82 1.66l-1.4.85-1.23.84a23.2 23.2 0 0 0-7.54 8.69 25.29 25.29 0 0 0-2.43 11.59 35.08 35.08 0 0 0 .64 6.26c.2 1 .43 2.06.71 3.07a3.92 3.92 0 0 1 3.46-1c.91.18 1.57.36 2.33.57s1.47.44 2.19.69A29.41 29.41 0 0 1 513 455a17.45 17.45 0 0 1 4.23 3.11 11.56 11.56 0 0 1 3.09 5.43 4 4 0 0 1 0 1.88h2.69a26.55 26.55 0 0 0 5.54-.84Z" style="fill:#9b7256"/>
        <path class="cls-4" fill="#414758" d="M509.12 462a20.63 20.63 0 0 0-3.12-1.4q-.69-.25-1.41-.45l-.94.94 7.51 4.91c.29-.58.57-1.16.85-1.73a4.13 4.13 0 0 0-.49-.59 9.78 9.78 0 0 0-2.4-1.68ZM481.71 483.47c4.66 1.56 10.58 4.44 14.82 9.66q1.37-2.42 2.74-4.82c1.2-2.1 2.34-4.22 3.51-6.33s2.31-4.23 3.42-6.37 2.25-4.26 3.32-6.41c.55-1.06 1.09-2.13 1.61-3.2l-7.51-4.91c-7.4 7.37-14.73 14.81-21.91 22.38Z"/>
        <path class="cls-5" fill="#90d35b" d="M539.11 740.17c-8.25 0-14.94 3.83-14.94 8.55s6.69 8.56 14.94 8.56 14.94-3.83 14.94-8.56-6.69-8.55-14.94-8.55ZM527 430.21s-9.57 8.43.58 15.51a10.65 10.65 0 0 0 1.44.85 11.92 11.92 0 0 0 8.61.49c4.5-1.24 8.73-4.3 11.4-6.55.17-.51.33-1 .48-1.55s.31-1 .45-1.57c.29-1.06.57-2.12.82-3.18a143.42 143.42 0 0 0 3.31-27.92q.1-3.56.07-7.14a48.54 48.54 0 0 1-7 5.58 62.44 62.44 0 0 1-7.88 4.33c-1.94.92-3.88 1.74-5.77 2.51L530 413c-3.23 1.3-6.36 2.55-9.36 3.92-1 .48-2 .93-3 1.43h-.05c-1.97 5.05-2.24 11.65 9.41 11.86ZM476.43 718.21c-16.92 0-30.64 6.12-30.64 13.66s13.72 13.66 30.64 13.66 30.64-6.11 30.64-13.66-13.72-13.66-30.64-13.66Z"/>
        <path class="cls-6" fill="#8b8fa2" d="M475.52 490.05c-1.81 1.95-3.61 3.92-5.4 5.89-4.94 5.46-9.81 11-14.55 16.58a16.56 16.56 0 0 1 5.19 3.52 20.73 20.73 0 0 1 4.08 6c.22.51.46 1 .65 1.51.1.27.19.47.3.79s.21.64.31 1a15.58 15.58 0 0 1 .59 4.15 16.94 16.94 0 0 1-1.87 7.67 21.4 21.4 0 0 1-1.84 3l2.37 1.68q10-14 19.11-28.62c1.28-2 2.6-4.07 3.84-6.13l3.72-6.21c-3.76-7.33-12.54-9.98-16.5-10.83Z"/>
        <path class="cls-6" fill="#8b8fa2" d="M460.88 542.67a42.68 42.68 0 0 1-9.38 7.33 80.14 80.14 0 0 1-9.94 5 137.1 137.1 0 0 1-20.42 6.6l-2.57.61q-5.06 8-9.65 16.31c-.89 1.61-1.77 3.23-2.62 4.86-.36 3.36-.9 7.18-1.67 11.5a4.07 4.07 0 0 1 2.28.56c1.25.75 2.25 1.43 3.33 2.19s2.06 1.54 3.06 2.35q1.13.94 2.22 1.92l.5-.49c.85-.86 1.65-1.75 2.47-2.62l4.91-5.27 4.91-5.26c1.65-1.76 3.15-3.63 4.73-5.44l4.71-5.47c1.55-1.83 3.19-3.59 4.65-5.5l9-11.27q7.15-9.26 13.94-18.79l-2.34-1.67a26.9 26.9 0 0 1-2.12 2.55Z"/>
        <path class="cls-7" fill="#e36359" d="M427 324.87c-.82-.77-1.66-1.53-2.51-2.27a95.29 95.29 0 0 0-9.16-7.06 105.07 105.07 0 0 0-11.78-6.93c-4.81 1-12.33 2.78-21.92 5.38l2.33.92a4 4 0 0 1-1.46 7.73 3.94 3.94 0 0 1-1.46-.28l-12.14-4.76c-32.27 9.6-79.69 26.91-127 55.72a55.21 55.21 0 0 0-2.77 5.5 4 4 0 0 1-3.67 2.4 4 4 0 0 1-3.33-1.79 415.64 415.64 0 0 0-41.28 30.2 4 4 0 0 1 .13 7.93c-.44.07-4.59.67-10.68 1.18l-1.41 1.26a84.54 84.54 0 0 0 0 11.14c2.51-1.22 3.94-2 4-2.07a4 4 0 0 1 4 6.92c-.28.16-2.86 1.65-7.13 3.6a71.05 71.05 0 0 0 4 15c20.24-19.15 107.89-94.53 254.39-117.31A96.5 96.5 0 0 0 427 324.87Zm-130.79 45.36c-30.82 3.25-52.91 27-53.13 27.2a4 4 0 0 1-5.9-5.41c1-1.07 24.39-26.18 58.19-29.74a4 4 0 1 1 .84 8ZM390 337.7c-33.74 0-48.63 15.55-48.77 15.71a4 4 0 0 1-5.86-5.46c.7-.74 17.45-18.25 54.63-18.25a4 4 0 0 1 0 8Z"/>
        <path class="cls-6" fill="#8b8fa2" d="M410.24 597.64c-1.08-.76-2.08-1.44-3.33-2.19a4.07 4.07 0 0 0-2.28-.56c-.46 2.54-1 5.25-1.62 8.14l1.05 1.28c.73.88 1.43 1.79 2.13 2.69s1.2 1.57 1.78 2.37l5.49-5.43 2.06-2q-1.09-1-2.22-1.92c-1-.84-2.02-1.62-3.06-2.38Z"/>
        <path class="cls-6" fill="#8b8fa2" d="M404.06 604.31 403 603q-1.42 6.56-3.53 14.41 1.89-1.68 3.75-3.39l4.74-4.68c-.58-.8-1.17-1.59-1.78-2.37s-1.39-1.78-2.12-2.66Z"/>
        <path class="cls-6" fill="#8b8fa2" d="m402 601.74-.22-.27a4 4 0 0 1 .55-5.67 4 4 0 0 1 2.35-.91c.77-4.32 1.31-8.14 1.67-11.5a295.2 295.2 0 0 0-14.66 32.68 4 4 0 0 0 2.94 4.2 4.17 4.17 0 0 0 1 .13 3.64 3.64 0 0 0 .57 0q1.65-1.46 3.29-2.92 2.11-7.9 3.51-14.48Z"/>
        <path class="cls-6" fill="#8b8fa2" d="m401.73 601.47.22.27L403 603c.63-2.89 1.16-5.6 1.62-8.14a4 4 0 0 0-2.35.91 4 4 0 0 0-.54 5.7ZM394.58 620.27a4 4 0 0 1-2.94-4.2q-1.75 4.57-3.38 9.22c-.34 1-.64 1.93-.89 2.85l.09-.06.42-.32.62-.55 1.34-1.19 2.68-2.39 3.67-3.27a3.64 3.64 0 0 1-.57 0 4.17 4.17 0 0 1-1.04-.09Z"/>
        <path class="cls-8" fill="#fff" d="M602.54 372.12a1.43 1.43 0 0 0-.25-.33 2 2 0 0 1 .25.33Z"/>
        <path class="cls-8" fill="#fff" d="M687.38 235.44h-.71c-8.08-.39-16.17-.63-24.26-1l-24.27-.72-24.27-.52c-5.22-.06-10.44-.16-15.66-.22q-4.32-.06-8.62-.07c-14.31-.11-28.63-.11-43 .17l-6.78 160.72a36.6 36.6 0 0 0 8.07-8.37l1.64-2.51 1.43-2.72c.23-.46.5-.88.7-1.36l.5-1.19.11-.27 1.22-2.89a7.41 7.41 0 0 1 14.18 2.05v.1c.08 1.25.12 2.34.16 3.48v.44l.08 3.8v7.58q-.16 7.56-.8 15.12a155.82 155.82 0 0 1-5.37 30.09 82.23 82.23 0 0 1-5.8 14.62 47.91 47.91 0 0 1-9.72 13.14 33.62 33.62 0 0 1-9.65 6.31l-.87 20.54 28.19 1.65 29.94 1.76 15 .76 15 .64c5 .23 10 .4 15 .57s10 .31 15 .44c10 .26 20 .38 30 .56s20 .21 30 .39l9.15.15 6.49-260.89c-14.05-.99-28.06-1.73-42.08-2.35Zm16.91 165.85-.07.77v.11c-.28 2.06-.53 3.95-1 5.84a40 40 0 0 1-1 4.05c-.11.38-.22.74-.32 1.1-.54 1.64-1.09 3.07-1.58 4.34l-.07.17a2 2 0 0 1-1.86 1.28 2.16 2.16 0 0 1-.56-.08c-.38.92-.79 1.85-1.23 2.8a2 2 0 0 1 .5 2.28 65 65 0 0 1-3.9 7.58 1.57 1.57 0 0 1-.3.38l-.38.39a14.32 14.32 0 0 1-1 1 2 2 0 0 1-1.31.49 2 2 0 0 1-.9-.22l-.65.84c-.51.7-1.09 1.35-1.64 2l-.24.27-1.79 2-.09.1-.93.93c-1 1-1.86 1.88-2.8 2.75l-1.07.94c-.91.81-1.77 1.56-2.65 2.28l-2.28 1.7-1.43 1.05-3.58 2.62c-.56.39-1.09.74-1.59 1.07a2 2 0 0 1-1 1.43 29.58 29.58 0 0 1-4.75 2.2l-.72.28a2 2 0 0 1-1 1.29 50.83 50.83 0 0 1-21.27 5.45c-1 0-1.94.06-2.93.06a91.46 91.46 0 0 1-17-1.77 8.06 8.06 0 0 1-1.34-.11 1.55 1.55 0 0 1-.36-.08 92.91 92.91 0 0 1-25.79-13c-6-4.35-10.08-8.63-11-11.46a2 2 0 0 1 2.17-2.62c.7.09 1.57.52 4.08 1.81 1.32.68 2.81 1.44 3.54 1.72a1.77 1.77 0 0 1 .49.26l.79.58c1.58 1.16 2.83 2.08 4.31 3a43.06 43.06 0 0 0 6.69 3.39l7.9 2.49c2.68.78 6.2 1.75 9.28 2.31 1.18.24 2.28.39 3.25.52l.7.09h.38a2 2 0 0 1 1.93-1c3.7.32 6.53.42 8.8.5 1.4.05 2.61.09 3.67.18 1.78.06 3.15.22 4.35.36l1.6.18a16.94 16.94 0 0 0 5.53-.19 34.1 34.1 0 0 0 11.13-4.73c.53-.43 1.13-.84 1.75-1.27.45-.3.92-.62 1.4-1s1.25-.92 1.92-1.38l1-.67.59-.46.33-.27c.4-.33.85-.67 1.29-1 .89-.7 1.74-1.36 2.5-2.07l1.91-1.66c.38-.33.72-.68 1.06-1l.51-.5.71-.68a2 2 0 0 1 .07-1.66 20.9 20.9 0 0 1 1.06-1.86c.12-.2.29-.46.48-.75.31-.46.66-1 1.07-1.71a2.19 2.19 0 0 1 .29-.39l1.29-1.38c1.73-1.86 2.47-2.65 3.32-3a2.26 2.26 0 0 1 1-.18l.87-1.5.16-.28a25.88 25.88 0 0 0 1.55-5.85l.07-.49a8.43 8.43 0 0 0 .11-.86l.18-2.16c.06-.73.11-1.42.12-2.14a1.58 1.58 0 0 1 0-.38 44.1 44.1 0 0 0 .77-5.92 2.25 2.25 0 0 1 .06-.36c.36-1.43.79-3.13 2-3.59a17.3 17.3 0 0 1-.53-2.3c-.1-.74-.18-1.57-.28-2.73-.1-1-.21-2.23-.37-3.75a55.82 55.82 0 0 0-1.75-8.54 81.05 81.05 0 0 0-2.92-8.45l-.15-.37c-.19-.48-.39-.95-.58-1.41a2 2 0 0 1-2.15-1.26c-.22-.58-.57-1.45-.95-2.25s-.81-1.55-1.15-2.16a2 2 0 0 1 .18-2.21 2.11 2.11 0 0 1 1.33-.75c-1.43-2.49-2.81-4.86-4.38-7.25-.61-.9-1.26-1.82-1.91-2.75s-1.35-1.74-2.08-2.65l-.11-.12c-.71-.8-1.45-1.63-2.22-2.4L669.8 346l-.6-.56-.85-.73a7.27 7.27 0 0 0-1.71-.85 12.11 12.11 0 0 1-2.13-1 2 2 0 0 1-1-2 16 16 0 0 1 1.21-3.78c.36-.86.79-1.89 1.32-3.12.29-.74.66-1.66 1.11-2.74a1.7 1.7 0 0 1 .24-.44l.35-.47a54.09 54.09 0 0 0 4.44-6.51 115.79 115.79 0 0 0 5.9-13.23 2 2 0 0 1 1.77-1.26l.2-.37a11.88 11.88 0 0 1 .93-1.56 2 2 0 0 1-1.46-1.29l-.95-2.84a2 2 0 0 1 .1-1.51c1.73-3.56 3.38-10.74 4-16.86a1.85 1.85 0 0 1-.37-.51 4.53 4.53 0 0 1-.29-2.08v-1.37a2.2 2.2 0 0 1 .1-.72 2.92 2.92 0 0 1 .7-1.13 5.63 5.63 0 0 0-.52-1.8 3.89 3.89 0 0 0-.23-.36l-.09-.1-.22-.11h-.36a4.89 4.89 0 0 0-1.76.6 2 2 0 0 1-.4.16 13.34 13.34 0 0 0-3 1.41 46.87 46.87 0 0 0-8.3 11.61c-.81 1.51-1.61 3.12-2.39 4.81-.33.72-.64 1.44-.95 2.17-.94 2.17-1.86 4.55-2.83 7.29a145 145 0 0 0-4.32 15c-.53 2.21-1 4.62-1.6 7.6l-1 5.82c-.15.93-.29 1.89-.43 2.87-.21 1.39-.42 2.8-.65 4.12a2 2 0 0 1-.91 1.36 2 2 0 0 1-1.62.22l-4-1.15-.94-.26a13.9 13.9 0 0 0-1.49-.39l-.75-.18-3.91-.89-1.76-.24c-.6-.08-1.16-.16-1.72-.2-1 .13-2.27.24-3.76.37-1.89.15-4 .33-6.33.62-1.2.14-2.24.29-3.2.45-1.19.17-2.3.39-3.23.58-.78.15-1.51.32-2.22.49l-.85.2c-.36.08-.72.19-1.07.29l-.3.08-2.17.59a2 2 0 0 1-1.32-.09c-.63.22-1.28.43-2 .64s-1.51.48-2.32.76c-1.88.61-4 1.28-6.43 2a2 2 0 0 1-2.56-1.91c0-2 0-4.08.07-6.11 0-1.6.07-3.19.08-4.71V326.37a2.08 2.08 0 0 1-.41-1.05c-.21-2.46-.43-4.42-.65-6.31-.35-3-.67-5.88-.92-10.46a2 2 0 0 1 2.58-2v-2.35a45.22 45.22 0 0 0-.86-7.2c-.1-.43-.2-.84-.31-1.27s-.15-.61-.24-1a2 2 0 0 1-.72-.33 2 2 0 0 1-.85-1.35c-.8-5.21-1.32-9.05-1.74-12.14-.34-2.51-.61-4.5-.92-6.45a25.44 25.44 0 0 0-1.22-4.88 2.36 2.36 0 0 1-.28.12 2.08 2.08 0 0 1-1 0 2 2 0 0 1-1.16 1.2 7.75 7.75 0 0 0-1.7 3.29 36.23 36.23 0 0 0-1.24 7.84c0 .95-.09 1.86-.12 2.64a20.34 20.34 0 0 1-.23 3.05 2.1 2.1 0 0 1-2.06 1.78c-.1 1.37-.19 2.79-.26 4.28a191 191 0 0 0 .27 22.34l1.14 4a2 2 0 0 1-.33 1.77 7.74 7.74 0 0 0-.14 1.11c1 .63 1.42 2.39 1.89 4.6v.26l1.27 15.61c.07.84.15 1.65.23 2.47l.23 2.3v.17a2.12 2.12 0 0 1-.82 1.86l-1.32 1.16-.65.57c-.39.34-.75.65-1.1 1a.94.94 0 0 1-.1.1c-.47.43-.93.93-1.41 1.46l-.21.23a57 57 0 0 0-5.6 8.06c-1.36 2.32-2.75 4.88-4.13 7.6a2 2 0 0 1-1.78 1.1 2.07 2.07 0 0 1-.77-.15 2 2 0 0 1-1.13-2.47 85.86 85.86 0 0 1 4-9.66 101.54 101.54 0 0 1 5-9.52l.06-.09a7.51 7.51 0 0 1 .7-.88l.84-.95a7.4 7.4 0 0 1 .56-.56l.53-.52-.37-2.47c-.16-1-.31-2.06-.46-3.1-.49-3.38-1-6.93-1.37-10.55-.84-7.32-1.46-14.51-1.85-21.38-.46-8.31-.55-15.1-.3-21.36a98.84 98.84 0 0 1 .94-10.56c.14-1 .29-1.85.46-2.66.11-.66.29-1.38.46-2.07l.11-.48c.14-.61.33-1.2.51-1.78l.24-.77.06-.18.27-.7a15.22 15.22 0 0 1 .78-1.87 2 2 0 0 1 .6-.69c.11-.11.39-.42.59-.65a17.63 17.63 0 0 1 2.38-2.33l.09-.07a6.53 6.53 0 0 1 2.39-1.2 2.5 2.5 0 0 1 1 0l.15-.06a6.28 6.28 0 0 1 1-.28 5.94 5.94 0 0 1 3.92.25 6.69 6.69 0 0 1 2.72 2.35 7 7 0 0 1 1 2.21 33.42 33.42 0 0 1 3.09 6.95 74.41 74.41 0 0 1 2.1 7.95 157.76 157.76 0 0 1 2.5 16.43c1.1 10.68 1.5 20.91 1.72 28.63v.07a4.16 4.16 0 0 1 1 2.64c.11.84.21 2 .28 3.33V333.67c.89-.27 1.8-.53 2.68-.77l1.2-.34c1-.27 1.82-.51 2.44-.73a2.07 2.07 0 0 1 .55-.11c1.61-.11 3.66-.37 5.83-.65l3.29-.41 1.12-.13a2 2 0 0 1 .77-1c.48-.32 1.94-1.31 7.94-1 .55 0 1.16.07 1.74.13l.86.09h.31a25.72 25.72 0 0 1 2.57.32l2.62.41h.15c.42.1.84.18 1.27.27a2 2 0 0 1-.78-1.5 2.88 2.88 0 0 1 .22-1.38 1.69 1.69 0 0 1 .17-.29l.91-3.76c.21-.88.45-1.76.69-2.63l.19-.7a51.67 51.67 0 0 1 2.58-7.36 2.28 2.28 0 0 1-.75-1.29c-.22-1.15.19-3.29 1.21-6.39a1.54 1.54 0 0 1 .08-.19c.79-1.77 1.58-3.59 2.4-5.46a167.41 167.41 0 0 1 8.8-18.16 50.4 50.4 0 0 1 8.82-11.41 24.73 24.73 0 0 1 6.77-4.5 16.22 16.22 0 0 1 4.52-1.25 12.92 12.92 0 0 1 2-.09h.49a8.89 8.89 0 0 1 1 .13l.57.09a6 6 0 0 1 1.32.31 2 2 0 0 1 1.2 2.51l.12.05a7.78 7.78 0 0 1 1 .47 9.66 9.66 0 0 1 3.84 4.09 15.64 15.64 0 0 1 1.46 4.33 29.75 29.75 0 0 1 .34 7.6 47.68 47.68 0 0 1-1.45 8.61 2.72 2.72 0 0 1 .72.15c1.25.51 2.44 1 .16 10.53a157.88 157.88 0 0 1-5.23 16.94l-.24.66c-.73 2-1.83 4.9-2.87 7.34s-1.77 3.94-2.59 4.7c-.64 2-1.34 3.88-2.11 5.71l-.62 1.43c1.12 1.23 2.14 2.55 3.13 3.82l.35.44c1.69 2.26 3.35 4.72 5.17 7.68a2 2 0 0 1 2.3.76 84.51 84.51 0 0 1 5.78 10c1.19 2.63 1.54 3.61 1.57 4.38a2.13 2.13 0 0 1-.63 1.7c.45.91.89 1.83 1.33 2.73 1.25-.09 2.15 1.11 2.56 1.68a2 2 0 0 1 .24.43 62.15 62.15 0 0 1 4.4 23.18c.12 1.91-.03 3.71-.17 5.45Zm-89.69-20.41a9.46 9.46 0 0 1-1.42 5.35 9.9 9.9 0 0 1-4 3.64 10.25 10.25 0 0 1-4.51 1 10.8 10.8 0 0 1-5.91-1.79 2.94 2.94 0 0 1-1.26-.73 1.59 1.59 0 0 1-.13-.13l-.09-.1h-.05a2.9 2.9 0 0 1-1.27-1 10.28 10.28 0 0 1-2.09-6.55 9.41 9.41 0 0 1 2.5-6.21 11.9 11.9 0 0 1 2.94-2.39 2.09 2.09 0 0 1 .73-.58 1.82 1.82 0 0 1 .5-.16 3.76 3.76 0 0 1 1.3-.41 2.12 2.12 0 0 1 .67.05 2.1 2.1 0 0 1 .75 0c.33 0 .63-.06.9-.07s.44 0 .66-.06a2 2 0 0 1 1.27.2h.39a1.87 1.87 0 0 1 .81.1h.32l1.2.39.25.09a1.39 1.39 0 0 1 .26.1 8.57 8.57 0 0 1 2.31 1.64 5.33 5.33 0 0 1 1.07 1.27 5 5 0 0 1 .74 1.24 1.66 1.66 0 0 0 .2.4 2 2 0 0 1 .24 1.67 2 2 0 0 1-.39.73v.46a2 2 0 0 1 1.11 1.85Zm29.32-1c0-.19.07-.37.11-.55a2.06 2.06 0 0 1 .12-.35 10.62 10.62 0 0 1 .84-1.53 2 2 0 0 1 .31-1 11.23 11.23 0 0 1 4-3.86 1.62 1.62 0 0 1 .41-.17 10.87 10.87 0 0 1 1.76-.39 2.22 2.22 0 0 1 .49-.3 4.38 4.38 0 0 1 2.55-.19 2 2 0 0 1 1.35-.39 11.63 11.63 0 0 1 10.31 8.51 6 6 0 0 1-.41 3.4 2.86 2.86 0 0 1-.22.47 6.56 6.56 0 0 1-.7.88 1.71 1.71 0 0 1-.25.22 4.08 4.08 0 0 1-.33.25 1.18 1.18 0 0 1-.19.11 2 2 0 0 1-.58.28 2.8 2.8 0 0 1 .09.66c0 1.92-1.22 3-3.63 3.16h-.26a2 2 0 0 1-.06 1.07 2 2 0 0 1-1.12 1.2 10.07 10.07 0 0 1-3.5.56h-.28l-.37.05a11.57 11.57 0 0 1-1.94.19h-.49a9.94 9.94 0 0 1-6-3.72 10.71 10.71 0 0 1-2.18-7.15 2.07 2.07 0 0 1 .11-.55l.08-.23a1.9 1.9 0 0 1-.02-.62Zm.43 28.22a9.71 9.71 0 0 0 1.54.2 5.51 5.51 0 0 0 1.59-.18 3.78 3.78 0 0 0 2.31-1.33 2.51 2.51 0 0 1 .31-.35 26.75 26.75 0 0 0 4-4.79 2 2 0 0 1 .6-.94 3 3 0 0 1 1-1.11 2.12 2.12 0 0 1 2.19-.27 3.39 3.39 0 0 1 1.31 3.11 4.64 4.64 0 0 0-.12.76 25.41 25.41 0 0 0-.48 4.08l-.1.48a2.05 2.05 0 0 1-.43.89 1.85 1.85 0 0 0-.25.37 1.62 1.62 0 0 1-.1.18 3.39 3.39 0 0 0-.24.5l-.13.33a8.5 8.5 0 0 1-.34.82 1.9 1.9 0 0 1-.28.75 12.17 12.17 0 0 1-4.68 4.31 11.78 11.78 0 0 1-6.26 1.29 5.14 5.14 0 0 1-.88.07 6 6 0 0 1-1.17-.12l-.38-.06a7.79 7.79 0 0 0-.86-.1 2 2 0 0 1-1.57-.87l-.29-.09-.31-.09a2 2 0 0 1-1-.63 23.41 23.41 0 0 1-3.22-1.91 2 2 0 0 1-.81-.45 4.89 4.89 0 0 1-.69-.79l-.1-.05a2 2 0 0 1-1.57-.25l-1.26-.8a2 2 0 0 1-1.75-.78l-.16-.2-.44-.58c-.13-.2-.28-.4-.45-.62l-.19-.26-.37.22-.82.5c-.43.26-.86.51-1.26.79a27.82 27.82 0 0 0-3.83 2.85l-.4.39-.51.48a3.74 3.74 0 0 1-2.66 1.2 6.23 6.23 0 0 1-1.31 0 6.45 6.45 0 0 1-3.67 1.7 10.31 10.31 0 0 1-5.76-1 2.06 2.06 0 0 1-.78-.68 2.43 2.43 0 0 1-.73-.62 1.32 1.32 0 0 1-.19-.29 8.16 8.16 0 0 1-1.06-.72 2.06 2.06 0 0 1-.73-.39l-.19-.07-.15-.06a2.57 2.57 0 0 1-1.72-1.55 2.87 2.87 0 0 1-.62-.94 1.89 1.89 0 0 1-.13-1c0-.1 0-.21-.07-.31a1.55 1.55 0 0 1 0-.21l-.09-.09-.31-.33a5.17 5.17 0 0 1-1.24-1.72l-.08-.15a2.29 2.29 0 0 1-.31-.65l-.08-.3a2.14 2.14 0 0 1 0-.94 2.56 2.56 0 0 1 .29-2.22l.14-.19a.43.43 0 0 0 0-.05 1.7 1.7 0 0 1 0-.39 2 2 0 0 1-.14-.8 2.27 2.27 0 0 1 .86-1.75 2.45 2.45 0 0 1 2-.43 2.29 2.29 0 0 1 .65-.15 2 2 0 0 1 1.72.46 1.92 1.92 0 0 1 .51.22 2.15 2.15 0 0 1 .87 1.06 1.65 1.65 0 0 1 .18.32 2.36 2.36 0 0 0 .25 2.2 2.18 2.18 0 0 0 .39.19l.21.09a2 2 0 0 1 1 1.21c0 .07 0 .14.07.2a2.07 2.07 0 0 1 .3.79c0 .07.06.13.08.19a1.67 1.67 0 0 1 .08.3 1.07 1.07 0 0 1 .07.19v.16a1.94 1.94 0 0 1 .54.13c.79.3 2.88-.16 4.13-.44a4.93 4.93 0 0 1 1.54-.08h.23a3.8 3.8 0 0 1 2.09-1.2l.22-.05a2.18 2.18 0 0 1 .85-.31l.14-.13.25-.21c.24-.17.5-.33.77-.49h.07a1.81 1.81 0 0 1 .22-.41 2.62 2.62 0 0 1 1.84-1.06 1.17 1.17 0 0 0 0-.11c.07-.12.13-.25.19-.38a2 2 0 0 1 .53-.69 8.2 8.2 0 0 1 1.39-.93l.68-.41.09-.06c.31-.18.61-.36.91-.56l1.93-1.16.87-.53.42-.26h.06a2.28 2.28 0 0 1 1.94-.41 2 2 0 0 1 1.18.89l.09.13.16.27.08.08a2.09 2.09 0 0 1 .39.56c.07.09.25.33.71.85l.52.56.77.79.7.68c.24.2.47.39.7.56a13.78 13.78 0 0 1 1.31 1.15 1.94 1.94 0 0 1 .33.23 7.62 7.62 0 0 1 1.06 1.18 4 4 0 0 0 .45.53l.79.57a16.13 16.13 0 0 0 3 1.87 2.05 2.05 0 0 1 1.06.63Z"/>
        <path class="cls-1" fill="none" d="M699.92 372.35c-.41-.57-1.31-1.77-2.56-1.68-.44-.9-.88-1.82-1.33-2.73a2.13 2.13 0 0 0 .63-1.7c0-.77-.38-1.75-1.57-4.38a84.51 84.51 0 0 0-5.78-10 2 2 0 0 0-2.3-.76c-1.82-3-3.48-5.42-5.17-7.68l-.35-.44c-1-1.27-2-2.59-3.13-3.82l.62-1.43c.77-1.83 1.47-3.74 2.11-5.71.82-.76 1.54-2.28 2.59-4.7s2.14-5.39 2.87-7.34l.24-.66a157.88 157.88 0 0 0 5.21-16.96c2.28-9.54 1.09-10-.16-10.53a2.72 2.72 0 0 0-.72-.15 47.68 47.68 0 0 0 1.45-8.61 29.75 29.75 0 0 0-.34-7.6 15.64 15.64 0 0 0-1.46-4.33 9.66 9.66 0 0 0-3.84-4.09 7.78 7.78 0 0 0-1-.47l-.12-.05a2 2 0 0 0-1.2-2.51 6 6 0 0 0-1.32-.31l-.57-.09a8.89 8.89 0 0 0-1-.13h-.49a12.92 12.92 0 0 0-2 .09 16.22 16.22 0 0 0-4.52 1.25 24.73 24.73 0 0 0-6.77 4.5 50.4 50.4 0 0 0-8.82 11.41 167.41 167.41 0 0 0-8.8 18.16c-.82 1.87-1.61 3.69-2.4 5.46a1.54 1.54 0 0 0-.08.19c-1 3.1-1.43 5.24-1.21 6.39a2.28 2.28 0 0 0 .75 1.29 51.67 51.67 0 0 0-2.58 7.36l-.19.7a78.1 78.1 0 0 0-.69 2.63l-.91 3.76a1.69 1.69 0 0 0-.17.29 2.88 2.88 0 0 0-.22 1.38 2 2 0 0 0 .78 1.5c-.43-.09-.85-.17-1.27-.27h-.15l-2.62-.41a25.72 25.72 0 0 0-2.57-.32h-.31l-.86-.09c-.58-.06-1.19-.12-1.74-.13-6-.28-7.46.71-7.94 1a2 2 0 0 0-.77 1l-1.12.13-3.29.41c-2.17.28-4.22.54-5.83.65a2.07 2.07 0 0 0-.55.11c-.62.22-1.46.46-2.44.73l-1.2.34c-.88.24-1.79.5-2.68.77V332.45c-.07-1.37-.17-2.49-.28-3.33a4.16 4.16 0 0 0-1-2.64v-.07c-.22-7.72-.62-17.95-1.72-28.63a157.76 157.76 0 0 0-2.5-16.43 74.41 74.41 0 0 0-2.1-7.95 33.42 33.42 0 0 0-3.09-6.95 7 7 0 0 0-1-2.21 6.69 6.69 0 0 0-2.72-2.35 5.94 5.94 0 0 0-3.92-.25 6.28 6.28 0 0 0-1 .28l-.15.06a2.5 2.5 0 0 0-1 0 6.53 6.53 0 0 0-2.39 1.2l-.09.07a17.63 17.63 0 0 0-2.38 2.33c-.2.23-.48.54-.59.65a2 2 0 0 0-.6.69 15.22 15.22 0 0 0-.78 1.87l-.27.7-.06.18-.24.77c-.18.58-.37 1.17-.51 1.78l-.11.48c-.17.69-.35 1.41-.46 2.07-.17.81-.32 1.69-.46 2.66A98.84 98.84 0 0 0 577.6 288c-.25 6.26-.16 13 .3 21.36.39 6.87 1 14.06 1.85 21.38.42 3.62.88 7.17 1.37 10.55.15 1 .3 2.07.46 3.1l.37 2.47-.53.52a7.4 7.4 0 0 0-.56.56l-.84.95a7.51 7.51 0 0 0-.7.88l-.06.09a101.54 101.54 0 0 0-5 9.52 85.86 85.86 0 0 0-4 9.66 2 2 0 0 0 1.13 2.47 2.07 2.07 0 0 0 .77.15 2 2 0 0 0 1.78-1.1c1.38-2.72 2.77-5.28 4.13-7.6a57 57 0 0 1 5.6-8.06l.21-.23c.48-.53.94-1 1.41-1.46a.94.94 0 0 0 .1-.1c.35-.35.71-.66 1.1-1l.65-.57 1.32-1.16a2.12 2.12 0 0 0 .82-1.86v-.17l-.23-2.3c-.08-.82-.16-1.63-.23-2.47L587.56 328v-.26c-.47-2.21-.85-4-1.89-4.6a7.74 7.74 0 0 1 .14-1.11 2 2 0 0 0 .33-1.77l-1.14-4a191 191 0 0 1-.27-22.34c.07-1.49.16-2.91.26-4.28a2.1 2.1 0 0 0 2.06-1.78 20.34 20.34 0 0 0 .23-3.05c0-.78.07-1.69.12-2.64a36.23 36.23 0 0 1 1.24-7.84 7.75 7.75 0 0 1 1.7-3.29 2 2 0 0 0 1.16-1.2 2.08 2.08 0 0 0 1 0 2.36 2.36 0 0 0 .28-.12 25.44 25.44 0 0 1 1.22 4.88c.31 1.95.58 3.94.92 6.45.42 3.09.94 6.93 1.74 12.14a2 2 0 0 0 .85 1.35 2 2 0 0 0 .72.33c.09.35.17.66.24 1s.21.84.31 1.27a45.22 45.22 0 0 1 .86 7.2v2.35a2 2 0 0 0-2.58 2c.25 4.58.57 7.44.92 10.46.22 1.89.44 3.85.65 6.31a2.08 2.08 0 0 0 .41 1.05v6.34c0 1.52 0 3.11-.08 4.71 0 2-.08 4.13-.07 6.11a2 2 0 0 0 2.56 1.91c2.4-.7 4.55-1.37 6.43-2 .81-.28 1.58-.52 2.32-.76s1.32-.42 2-.64a2 2 0 0 0 1.32.09l2.17-.59.3-.08c.35-.1.71-.21 1.07-.29l.85-.2c.71-.17 1.44-.34 2.22-.49.93-.19 2-.41 3.23-.58 1-.16 2-.31 3.2-.45 2.3-.29 4.44-.47 6.33-.62 1.49-.13 2.79-.24 3.76-.37.56 0 1.12.12 1.72.2l1.76.24 3.91.89.75.18a13.9 13.9 0 0 1 1.49.39l.94.26 4 1.15a2 2 0 0 0 1.62-.22 2 2 0 0 0 .91-1.36c.23-1.32.44-2.73.65-4.12.14-1 .28-1.94.43-2.87l1-5.82c.56-3 1.07-5.39 1.6-7.6a145 145 0 0 1 4.32-15c1-2.74 1.89-5.12 2.83-7.29.31-.73.62-1.45.95-2.17.78-1.69 1.58-3.3 2.39-4.81a46.87 46.87 0 0 1 8.3-11.61 13.34 13.34 0 0 1 3-1.41 2 2 0 0 0 .4-.16 4.89 4.89 0 0 1 1.76-.6h.36l.22.11.09.1a3.89 3.89 0 0 1 .23.36 5.63 5.63 0 0 1 .52 1.8 2.92 2.92 0 0 0-.7 1.13 2.2 2.2 0 0 0-.1.72v1.37a4.53 4.53 0 0 0 .29 2.08 1.85 1.85 0 0 0 .37.51c-.62 6.12-2.27 13.3-4 16.86a2 2 0 0 0-.1 1.51l.95 2.84a2 2 0 0 0 1.46 1.29 11.88 11.88 0 0 0-.93 1.56l-.2.37a2 2 0 0 0-1.77 1.26 115.79 115.79 0 0 1-5.9 13.23 54.09 54.09 0 0 1-4.44 6.51l-.35.47a1.7 1.7 0 0 0-.24.44c-.45 1.08-.82 2-1.11 2.74-.53 1.23-1 2.26-1.32 3.12a16 16 0 0 0-1.21 3.78 2 2 0 0 0 1 2 12.11 12.11 0 0 0 2.13 1 7.27 7.27 0 0 1 1.71.85l.85.73.6.56 1.57 1.5c.77.77 1.51 1.6 2.22 2.4l.11.12c.73.91 1.44 1.81 2.08 2.65s1.3 1.85 1.91 2.75c1.57 2.39 2.95 4.76 4.38 7.25a2.11 2.11 0 0 0-1.33.75 2 2 0 0 0-.18 2.21c.34.61.76 1.39 1.15 2.16s.73 1.67.95 2.25a2 2 0 0 0 2.15 1.26c.19.46.39.93.58 1.41l.15.37a81.05 81.05 0 0 1 2.92 8.45 55.82 55.82 0 0 1 1.75 8.54c.16 1.52.27 2.75.37 3.75.1 1.16.18 2 .28 2.73a17.3 17.3 0 0 0 .53 2.3c-1.22.46-1.65 2.16-2 3.59a2.25 2.25 0 0 0-.06.36 44.1 44.1 0 0 1-.77 5.92 1.58 1.58 0 0 0 0 .38c0 .72-.06 1.41-.12 2.14l-.18 2.16a8.43 8.43 0 0 1-.11.86l-.07.49a25.88 25.88 0 0 1-1.55 5.85l-.16.28-.87 1.5a2.26 2.26 0 0 0-1 .18c-.85.35-1.59 1.14-3.32 3l-1.29 1.38a2.19 2.19 0 0 0-.29.39c-.41.73-.76 1.25-1.07 1.71-.19.29-.36.55-.48.75a20.9 20.9 0 0 0-1.06 1.86 2 2 0 0 0-.07 1.66l-.71.68-.51.5c-.34.33-.68.68-1.06 1l-1.91 1.66c-.76.71-1.61 1.37-2.5 2.07-.44.35-.89.69-1.29 1l-.33.27-.6.34-1 .67c-.67.46-1.32.93-1.92 1.38s-1 .68-1.4 1c-.62.43-1.22.84-1.75 1.27a34.1 34.1 0 0 1-11.17 4.68 16.94 16.94 0 0 1-5.53.19l-1.6-.18c-1.2-.14-2.57-.3-4.35-.36-1.06-.09-2.27-.13-3.67-.18-2.27-.08-5.1-.18-8.8-.5a2 2 0 0 0-1.93 1h-.38l-.7-.09c-1-.13-2.07-.28-3.25-.52-3.08-.56-6.6-1.53-9.28-2.31l-7.9-2.49a43.06 43.06 0 0 1-6.69-3.39c-1.48-.93-2.73-1.85-4.31-3l-.79-.58a1.77 1.77 0 0 0-.49-.26c-.73-.28-2.22-1-3.54-1.72-2.51-1.29-3.38-1.72-4.08-1.81a2 2 0 0 0-2.17 2.62c1 2.83 5.08 7.11 11 11.46a92.91 92.91 0 0 0 25.79 13 1.55 1.55 0 0 0 .36.08 8.06 8.06 0 0 0 1.34.11 91.46 91.46 0 0 0 17 1.77c1 0 2 0 2.93-.06a50.83 50.83 0 0 0 21.27-5.45 2 2 0 0 0 1-1.29l.72-.28a29.58 29.58 0 0 0 4.75-2.2 2 2 0 0 0 1-1.43c.5-.33 1-.68 1.59-1.07l3.58-2.62 1.43-1.05 2.28-1.7c.88-.72 1.74-1.47 2.65-2.28l1.07-.94c.94-.87 1.84-1.78 2.8-2.75l.93-.93.09-.1 1.79-2 .24-.27c.55-.62 1.13-1.27 1.64-2l.65-.84a2 2 0 0 0 .9.22 2 2 0 0 0 1.31-.49 14.32 14.32 0 0 0 1-1l.38-.39a1.57 1.57 0 0 0 .3-.38 65 65 0 0 0 3.9-7.58 2 2 0 0 0-.5-2.28c.44-.95.85-1.88 1.23-2.8a2.16 2.16 0 0 0 .56.08 2 2 0 0 0 1.86-1.28l.07-.17c.49-1.27 1-2.7 1.58-4.34.1-.36.21-.72.32-1.1a40 40 0 0 0 1-4.05c.45-1.89.7-3.78 1-5.84v-.11l.07-.77c.14-1.74.29-3.54.27-5.33a62.15 62.15 0 0 0-4.4-23.18 2 2 0 0 0-.13-.44Z"/>
        <path class="cls-1" fill="none" d="M613.83 378a2 2 0 0 0-.24-1.67 1.66 1.66 0 0 1-.2-.4 5 5 0 0 0-.74-1.24 5.33 5.33 0 0 0-1.07-1.27 8.57 8.57 0 0 0-2.31-1.64 1.39 1.39 0 0 0-.26-.1l-.25-.09-1.2-.39h-.32a1.87 1.87 0 0 0-.81-.1h-.39a2 2 0 0 0-1.27-.2c-.22 0-.44 0-.66.06s-.57 0-.9.07a2.1 2.1 0 0 0-.75 0 2.12 2.12 0 0 0-.67-.05 3.76 3.76 0 0 0-1.3.41 1.82 1.82 0 0 0-.5.16 2.09 2.09 0 0 0-.73.58 11.9 11.9 0 0 0-2.94 2.39 9.41 9.41 0 0 0-2.5 6.21 10.28 10.28 0 0 0 2.09 6.55 2.9 2.9 0 0 0 1.27 1h.05l.09.1a1.59 1.59 0 0 0 .13.13 2.94 2.94 0 0 0 1.26.73 10.8 10.8 0 0 0 5.91 1.79 10.25 10.25 0 0 0 4.51-1 9.9 9.9 0 0 0 4-3.64 9.46 9.46 0 0 0 1.42-5.35 2 2 0 0 0-1.18-1.74v-.46a2 2 0 0 0 .46-.84ZM640.43 405.52l-.79-.57a4 4 0 0 1-.45-.53 7.62 7.62 0 0 0-1.06-1.18 1.94 1.94 0 0 0-.33-.23 13.78 13.78 0 0 0-1.31-1.15c-.23-.17-.46-.36-.7-.56l-.7-.68-.77-.79-.52-.56c-.46-.52-.64-.76-.71-.85a2.09 2.09 0 0 0-.39-.56l-.08-.08-.16-.27-.09-.13a2 2 0 0 0-1.18-.89 2.28 2.28 0 0 0-1.94.41h-.06l-.42.26-.87.53-1.9 1.19c-.3.2-.6.38-.91.56l-.09.06-.68.41a8.2 8.2 0 0 0-1.39.93 2 2 0 0 0-.53.69c-.06.13-.12.26-.19.38a1.17 1.17 0 0 1 0 .11 2.62 2.62 0 0 0-1.84 1.06 1.81 1.81 0 0 0-.22.41h-.07c-.27.16-.53.32-.77.49l-.25.21-.14.13a2.18 2.18 0 0 0-.85.31l-.22.05a3.8 3.8 0 0 0-2.09 1.2h-.23a4.93 4.93 0 0 0-1.54.08c-1.25.28-3.34.74-4.13.44a1.94 1.94 0 0 0-.54-.13v-.16a1.07 1.07 0 0 0-.07-.19 1.67 1.67 0 0 0-.08-.3c0-.06 0-.12-.08-.19a2.07 2.07 0 0 0-.3-.79c0-.06 0-.13-.07-.2a2 2 0 0 0-1-1.21l-.21-.09a2.18 2.18 0 0 1-.51-.14 2.36 2.36 0 0 1-.25-2.2 1.65 1.65 0 0 0-.18-.32 2.15 2.15 0 0 0-.87-1.06 1.92 1.92 0 0 0-.51-.22 2 2 0 0 0-1.72-.46 2.29 2.29 0 0 0-.65.15 2.45 2.45 0 0 0-2 .43 2.27 2.27 0 0 0-.86 1.75 2 2 0 0 0 .14.8 1.7 1.7 0 0 0 0 .39.43.43 0 0 1 0 .05l-.14.19a2.56 2.56 0 0 0-.29 2.22 2.14 2.14 0 0 0 0 .94l.08.3a2.29 2.29 0 0 0 .31.65l.08.15a5.17 5.17 0 0 0 1.24 1.72l.31.33.09.09a1.55 1.55 0 0 0 0 .21c0 .1 0 .21.07.31a1.89 1.89 0 0 0 .13 1 2.87 2.87 0 0 0 .62.94 2.57 2.57 0 0 0 1.72 1.55l.15.06.19.07a2.06 2.06 0 0 0 .73.39 8.16 8.16 0 0 0 1.06.72 1.32 1.32 0 0 0 .19.29 2.43 2.43 0 0 0 .73.62 2.06 2.06 0 0 0 .78.68 10.31 10.31 0 0 0 5.76 1 6.45 6.45 0 0 0 3.67-1.7 6.23 6.23 0 0 0 1.31 0 3.74 3.74 0 0 0 2.66-1.2l.51-.48.4-.39a27.82 27.82 0 0 1 3.83-2.85c.4-.28.83-.53 1.26-.79l.82-.5.37-.22.19.26c.17.22.32.42.45.62l.44.58.16.2a2 2 0 0 0 1.75.78l1.26.8a2 2 0 0 0 1.57.25l.1.05a4.89 4.89 0 0 0 .69.79 2 2 0 0 0 .81.45 23.41 23.41 0 0 0 3.22 1.91 2 2 0 0 0 1 .63l.31.09.29.09a2 2 0 0 0 1.57.87 7.79 7.79 0 0 1 .86.1l.38.06a6 6 0 0 0 1.17.12 5.14 5.14 0 0 0 .88-.07 11.78 11.78 0 0 0 6.26-1.29 12.17 12.17 0 0 0 4.68-4.31 1.9 1.9 0 0 0 .28-.75 8.5 8.5 0 0 0 .34-.82l.13-.33a3.39 3.39 0 0 1 .24-.5 1.62 1.62 0 0 0 .1-.18 1.85 1.85 0 0 1 .25-.37 2.05 2.05 0 0 0 .43-.89l.1-.48a25.41 25.41 0 0 1 .48-4.08 4.64 4.64 0 0 1 .12-.76 3.39 3.39 0 0 0-1.31-3.11 2.12 2.12 0 0 0-2.19.27 3 3 0 0 0-1 1.11 2 2 0 0 0-.6.94 26.75 26.75 0 0 1-4 4.79 2.51 2.51 0 0 0-.31.35 3.78 3.78 0 0 1-2.31 1.33 5.51 5.51 0 0 1-1.59.18 9.71 9.71 0 0 1-1.54-.2 2.05 2.05 0 0 0-.92-.72 16.13 16.13 0 0 1-3.05-1.85ZM643.74 381.3a10.71 10.71 0 0 0 2.18 7.15 9.94 9.94 0 0 0 6 3.72h.49a11.57 11.57 0 0 0 1.94-.19l.37-.05h.28a10.07 10.07 0 0 0 3.5-.56 2 2 0 0 0 1.12-1.2 2 2 0 0 0 .06-1.07h.32c2.41-.18 3.63-1.24 3.63-3.16a2.8 2.8 0 0 0-.09-.66 2 2 0 0 0 .58-.28 1.18 1.18 0 0 0 .19-.11 4.08 4.08 0 0 0 .33-.25 1.71 1.71 0 0 0 .25-.22 6.56 6.56 0 0 0 .7-.88 2.86 2.86 0 0 0 .22-.47 6 6 0 0 0 .41-3.4 11.63 11.63 0 0 0-10.31-8.51 2 2 0 0 0-1.35.39 4.38 4.38 0 0 0-2.55.19 2.22 2.22 0 0 0-.49.3 10.87 10.87 0 0 0-1.76.39 1.62 1.62 0 0 0-.41.17 11.23 11.23 0 0 0-4 3.86 2 2 0 0 0-.31 1 10.62 10.62 0 0 0-.84 1.53 2.06 2.06 0 0 0-.12.35c0 .18-.08.36-.11.55a1.9 1.9 0 0 0 0 .63l-.08.23a2.07 2.07 0 0 0-.15.55Z"/>
        <path class="cls-8" fill="#fff" d="m414.53 619.53-3.23 3.14c-3.65 3.34-7.42 6.54-11.12 9.82l-2.79 2.44-1.4 1.22-.35.31c-.13.11-.18.17-.41.35-.39.32-.7.54-1 .77a27.48 27.48 0 0 1-4 2.35 15.5 15.5 0 0 1-5.61 1.58h-1c-.35 0-.77-.06-1.16-.12a11.86 11.86 0 0 1-1.31-.31 12.71 12.71 0 0 1-1.38-.59 8.33 8.33 0 0 1-2.41-2 8.79 8.79 0 0 1-1.35-2.31 10 10 0 0 1-.58-2 14.38 14.38 0 0 1-.17-1.66v-1.44c0-.44.06-.87.1-1.29a40.88 40.88 0 0 1 2.14-8.31 312.52 312.52 0 0 1 21.46-47.17 45.56 45.56 0 0 0-.44-8.45c-6.27.86-12.56 1.46-18.84 1.87a4 4 0 0 1-.95-7.94l2.25-.39c10.52-1.82 21-3.87 31.16-6.55 2.08-.54 4.16-1.12 6.22-1.72l1.49-.44c2.79-.83 5.54-1.74 8.25-2.71q4.54-1.63 8.87-3.55a69.71 69.71 0 0 0 8.41-4.44 33 33 0 0 0 6.77-5.38 12 12 0 0 0 2-2.82 5 5 0 0 0 .58-2.25 3.47 3.47 0 0 0-.15-.94l-.08-.25-.16-.42c-.11-.31-.24-.59-.36-.87a8.71 8.71 0 0 0-1.65-2.56 4.79 4.79 0 0 0-2-1.26 11.45 11.45 0 0 0-3.18-.5H447a37.61 37.61 0 0 0-6.74.54c-.77.11-1.55.24-2.33.38-1.64.28-3.31.58-5 .89-5.05.91-10.3 1.86-15.63 2.38a90.7 90.7 0 0 1-21.53-.15 4 4 0 0 1-1.24-.38v.09a4 4 0 0 1-2.25-2.37c-1.62-4.59-4.14-10.54-6.7-16.28a3.94 3.94 0 0 1-.88-1.53 4.36 4.36 0 0 1-.16-.8c-4.15-9.17-8.1-17.2-8.16-17.34a7.48 7.48 0 0 0-.72-1.94 4.36 4.36 0 0 1 1.74-5.06c8.43-5.49 16.82-10.73 24.9-16.33.27-.18.53-.36.8-.56 1.76-1.2 3.49-2.44 5.2-3.7q3-2.15 5.86-4.4c3.84-3 7.48-6.16 11-9.55l2.55-2.54 1.28-1.27 1.2-1.32 2.4-2.65 2.28-2.74 1.15-1.38 1.06-1.42 2.14-2.86 2-3 1-1.49.9-1.53 1.8-3.06 1.61-3.15.81-1.58c.26-.53.47-1.08.71-1.61l1.44-3.23c.43-1.09.81-2.2 1.23-3.3l.61-1.65c.19-.55.33-1.12.5-1.68l1-3.37c.28-1.13.5-2.27.76-3.41l.37-1.71c.12-.57.17-1.15.26-1.72l.5-3.46c.1-1.15.15-2.31.23-3.47l.11-1.73v-1.74l-.05-3.47c-.07-1.16-.22-2.31-.33-3.46a62.67 62.67 0 0 0-1.1-6.95l-.37-1.84-.38-1.72c-.26-1.14-.56-2.29-.88-3.42s-.67-2.26-1-3.38l-.58-1.68-.26-.74c-.09-.24-.23-.51-.34-.77-.48-1.06-.89-2.1-1.42-3.17s-1-2.15-1.6-3.2-1.11-2.1-1.71-3.14-1.19-2.07-1.83-3.08q-2.3-3.74-5-7.26C291.65 360.06 204 435.44 183.78 454.6a58.28 58.28 0 0 0 4.06 8.42 75.33 75.33 0 0 0 9.46 12.83c.46.49.87 1 1.36 1.46s1 .94 1.41 1.41c.92 1 1.91 1.83 2.89 2.71s2 1.71 3.07 2.54l1.58 1.25 1.68 1.17a93.81 93.81 0 0 0 14.27 8.26 101.27 101.27 0 0 0 15.71 5.89 140 140 0 0 0 33.9 5.24c11.58.45 23.26-.58 35-2a4.4 4.4 0 0 1 1.64 8.62 176.66 176.66 0 0 1-36.59 5.25c-.78 0-1.55 0-2.33.06l-.2.74c-.37 1.26-.74 2.52-1.17 3.74s-.87 2.43-1.34 3.62-1 2.37-1.46 3.55-1 2.33-1.56 3.48-1.08 2.3-1.66 3.42l-1.73 3.39-1.82 3.32c-1.19 2.23-2.53 4.35-3.81 6.53s-2.69 4.24-4 6.36l-4.21 6.23-4.42 6.08-8.9 11.67a124.52 124.52 0 0 0-7.68 11.74 108.26 108.26 0 0 0-6.21 12.42c-.42 1.07-.91 2.12-1.27 3.2l-1.16 3.24c-.65 2.18-1.36 4.35-1.83 6.56a67 67 0 0 0-1.83 13.27 55.14 55.14 0 0 0 1.13 13.05 51.7 51.7 0 0 0 11.91 23.11 83.45 83.45 0 0 0 21.43 17.09 176.63 176.63 0 0 0 25.91 12 4 4 0 0 1-2.4 7.63c-4.64-1.16-9.25-2.53-13.8-4.15 0 .5.07 1 .14 1.5a15.2 15.2 0 0 0 1.17 4 16.68 16.68 0 0 0 5.37 6.57 41.43 41.43 0 0 0 8.5 4.48c3.24 1.34 6.51 2.64 9.86 3.8 6.67 2.38 13.47 4.52 20.32 6.33a198.64 198.64 0 0 0 20.64 4.48c3.44.56 6.85.92 10.21 1.16l2.48.07h2.34a20.3 20.3 0 0 0 4.15-.62 10.34 10.34 0 0 0 3.17-1.39 5 5 0 0 0 1.65-1.77 3.76 3.76 0 0 0 .38-2.13 6.75 6.75 0 0 0-1-2.75A11 11 0 0 0 346 720a16.08 16.08 0 0 0-1.57-1.23c-.3-.19-.52-.38-.89-.58l-1.05-.62a78.23 78.23 0 0 0-9.08-4.48c-6.35-2.71-13.15-5-19.81-7.14a3.91 3.91 0 0 1-3.28-3.86 4.44 4.44 0 0 1 .05-.62 3.9 3.9 0 0 1 1.69-2.62l.59-.4 2-1.3c4.2-2.79 8.32-5.58 12.14-8.62 2.2-1.75 4.36-3.53 6.33-5.44a63.57 63.57 0 0 0 5.58-5.83 38 38 0 0 0 7.38-13 28 28 0 0 0 .56-14 46.12 46.12 0 0 0-5.86-14.16 92.1 92.1 0 0 0-9.9-13.21 160.09 160.09 0 0 0-12.08-12.08c-2.12-1.95-4.34-3.8-6.55-5.67s-4.53-3.7-6.71-5.38l-.12-.09a4 4 0 0 1 4.19-6.8c2.9 1.4 5.51 2.88 8.17 4.47s5.19 3.29 7.72 5 5 3.67 7.38 5.62 4.74 4 7 6.22a86.36 86.36 0 0 1 12.35 14.63 55 55 0 0 1 8.08 18.49 39.49 39.49 0 0 1-1.08 21.21 46.45 46.45 0 0 1-10.94 17.36 60.88 60.88 0 0 1-5.26 4.82 74.41 74.41 0 0 0 10.39-4.69c15.34-8.38 22.31-17.95 22.41-18.11 1.15-1.88 3.52-3.8 5.4-2.65a4 4 0 0 1 1.34 5.49c-.4.67-5.05 11.08-18.15 19.72a187.16 187.16 0 0 0 21.74 10.41c2.23.86 4.46 1.69 6.7 2.39 1.12.34 2.24.71 3.36 1s2.21.59 3.45.85a131.07 131.07 0 0 0 14.11 2.67 46.84 46.84 0 0 0 6.54.38 13.4 13.4 0 0 0 4.95-.91 3.3 3.3 0 0 0 1.89-1.92l.16-.41c0-.16.08-.31.13-.47 0-.32.15-.65.16-1a5.85 5.85 0 0 0-.05-1.82 8.08 8.08 0 0 0-.66-2 13.21 13.21 0 0 0-1.35-2.14 26 26 0 0 0-4.3-4.29 55.34 55.34 0 0 0-5.52-3.92c-1-.6-2-1.2-3-1.79l-2.44-1.36c-.84.62-1.69 1.23-2.54 1.82-2.15 1.35-4.26 2.74-6.44 4s-4.43 2.34-6.66 3.45a4 4 0 0 1-4.27-6.75l.1-.08c7.4-5.85 14.56-11.81 20.1-18.71l2.05-2.57c.68-.85 1.22-1.78 1.84-2.66l.9-1.33c.3-.44.52-.92.79-1.37.5-.93 1.05-1.83 1.52-2.76a38.45 38.45 0 0 0 3.58-11.52c1.12-7.85-.79-16-4.45-23.76-.71-1.41-1.47-2.88-2.28-4.35Zm-50.27-196.62a21.06 21.06 0 0 1-2.32 9.15 16.64 16.64 0 0 1-3.13 4.21 16.22 16.22 0 0 1-4.49 3 19 19 0 0 1-4.84 1.35 19.22 19.22 0 0 1-5 0A15.78 15.78 0 0 1 335 436a14.83 14.83 0 0 1-3-4.66 12.4 12.4 0 0 1-.42-1.26c-.13-.41-.27-.91-.32-1.1l-.42-1.57c-.61-2.12-1.31-4.29-2.07-6.48-2.83-8-6.15-16-9.42-24q-1 .38-1.95.66a23.11 23.11 0 0 1-6.37.85 24.55 24.55 0 0 1-6.16-.85 29.11 29.11 0 0 1-5.59-2.14 30.749 30.749 0 0 1-3.78-2.32c-.41-.3-.75-.57-1.27-1a3.56 3.56 0 0 1 3.75-6l.46.21.91.42 1 .46c.7.29 1.41.56 2.12.8a28.11 28.11 0 0 0 4.26 1.1 17.31 17.31 0 0 0 8-.42 14 14 0 0 0 3.56-1.64 18.29 18.29 0 0 0 3.26-2.54 62.91 62.91 0 0 0 6.33-6.78c1-1.3 2.49-2.73 6.18-1.8a14.1 14.1 0 0 0 1.84.29 26.12 26.12 0 0 0 3.61.2 15.19 15.19 0 0 0 6.36-1.41 10.86 10.86 0 0 0 2.65-1.7 16 16 0 0 0 1.23-1.12c.36-.44.78-.82 1.13-1.31a34.24 34.24 0 0 0 3.9-6.57v-.08a3.53 3.53 0 0 1 6.68 2 25.61 25.61 0 0 1-3.37 9.54 20.68 20.68 0 0 1-5.06 5.75c1.66 3.83 3.21 7.71 4.7 11.65a128.75 128.75 0 0 1 4.49 14.13 62.56 62.56 0 0 1 1.42 7.6c.16 1.3.27 2.61.34 3.9 0 .65.07 1.3.08 1.93s.22 1.33.2 2.17Z"/>
        <path class="cls-8" fill="#fff" d="M420.5 473.89c-2.64-.2-5.29-.36-7.94-.52a139.73 139.73 0 0 1-27.62 14.18c1.32 2.75 3.43 7.17 5.7 12.15a95.35 95.35 0 0 1 25.55-6.7c2.55-.3 5.11-.58 7.67-.69 1.28-.07 2.57-.11 3.85-.13s2.39 0 3.44-.1a24.27 24.27 0 0 0 5.73-1 10.12 10.12 0 0 0 2.08-.92 5.57 5.57 0 0 0 1.29-1.1 6.36 6.36 0 0 0 1.19-3.57l.05-.68v-.66a6.63 6.63 0 0 0-.05-1 6.74 6.74 0 0 0-.5-1.9 7.94 7.94 0 0 0-2.67-3.22 17.51 17.51 0 0 0-4.83-2.33 33.26 33.26 0 0 0-6.1-1.24c-1.1-.13-2.14-.19-3.32-.28ZM231.74 375.64a64.55 64.55 0 0 1 9.88-15.88 4 4 0 1 1 6 5.33 55.34 55.34 0 0 0-5.72 8.23c47.35-28.81 94.77-46.12 127-55.72l-2.83-1.11A4 4 0 0 1 369 309l12.6 5c9.59-2.6 17.11-4.34 21.92-5.38-1.15-.58-2.31-1.13-3.48-1.67a170.92 170.92 0 0 0-34.7-8.41c-1.38-.19-2.77-.36-4.16-.51-2 5.5-9.26 16-36 21-28.61 5.31-46.31-4.15-52.94-8.78q-6.06 2.56-11.86 5.68a4.18 4.18 0 0 1-2.59.48 4 4 0 0 1-4-1.56l-.09-.12c-1.34-1.84-2.93-3.82-4.45-5.72s-3.14-3.8-4.82-5.64c-3.24-3.74-6.62-7.38-10-11l-5.3-5.37c-1.73-1.78-3.57-3.47-5.35-5.21-3.53-3.5-7.25-6.82-10.93-10.17a546.72 546.72 0 0 0-46.6-37.44c-4-2.92-8.06-5.88-12.23-8.62l-12.4-8.38c-8.46-5.31-16.75-10.84-25.45-15.81l-6.45-3.82-3.23-1.9-1.61-1c-.36-.22-.86-.48-1.34-.72a51.6 51.6 0 0 0-12.63-4.4 35.2 35.2 0 0 0-12.69-.45 24.73 24.73 0 0 0-10.93 4.66 29.67 29.67 0 0 0-4.47 4.24 26.16 26.16 0 0 0-3.38 5.02 16.24 16.24 0 0 0-1.64 10.6c1.34 7.35 7.54 14.78 14.7 19.59.89.61 1.8 1.15 2.71 1.66l3.31 1.79 6.67 3.65q6.66 3.67 13.25 7.44 13.22 7.5 26.18 15.41c8.63 5.3 17.23 10.65 25.71 16.2 4.23 2.8 8.47 5.57 12.64 8.46l6.28 4.29 6.21 4.4c2.06 1.48 4.13 2.94 6.18 4.44l6.09 4.58c4.09 3 8.06 6.19 12.05 9.34l3 2.36 2.94 2.45 5.85 4.92c2 1.61 3.8 3.39 5.7 5.1l5.64 5.16a4 4 0 0 1-1.69 6.82A109.07 109.07 0 0 0 198.15 367a122.22 122.22 0 0 0-8.69 15.08 125.85 125.85 0 0 0-6.34 16.09 118 118 0 0 0-3.1 12.56c5.78-.5 9.64-1.05 9.74-1.07a4 4 0 0 1 1 0 415.64 415.64 0 0 1 41.28-30.2 4 4 0 0 1-.3-3.82Zm-84.29-111.39c-17.62-11.1-5.36-22.21-5.36-22.21s7.27-10.34 25.66 1.92 78.89 73.53 78.89 73.53l-16.08 10.72c-11.88-13.79-65.49-52.85-83.11-63.96ZM353.6 416.11a65.39 65.39 0 0 0-1-6.52c-.91-4.38-2.16-8.87-3.51-13.37-1.08-3.67-2.24-7.34-3.38-11l-.84.19a22.5 22.5 0 0 1-5.46.38 26.23 26.23 0 0 1-5.2-.82c-.47-.14-.94-.27-1.4-.43a30.74 30.74 0 0 1-4.69 6.48 21.54 21.54 0 0 1-1.68 1.63 224.68 224.68 0 0 1 11.82 24.79c.93 2.28 1.77 4.63 2.54 7.08l.55 1.88c.11.39.15.46.2.62a2.73 2.73 0 0 0 .16.43 4.11 4.11 0 0 0 .9 1.32 5.31 5.31 0 0 0 3.19 1.43 9.31 9.31 0 0 0 2.17 0 10.35 10.35 0 0 0 2-.56 6 6 0 0 0 1.45-.95 5.82 5.82 0 0 0 1.12-1.51 11.3 11.3 0 0 0 1.19-4.61v-3.15c.04-1.16-.02-2.24-.13-3.31Z"/>
        <path class="cls-9" fill="#f7c1c7" d="M318.54 290.61c.31.55.6 1.08.87 1.6l18-1.53s-.17-.46-.51-1.32a195.187 195.187 0 0 0-18.36 1.25Z"/>
        <path class="cls-9" fill="#f7c1c7" d="M328.92 289.69c2.65-.17 5.32-.27 8-.33-3.7-9.42-27.21-67.16-62.3-104 0 0-13-16.47-28.34-5.74s4.59 27.19 4.59 27.19 53.55 58.67 67.69 83.8c3.44-.4 6.9-.71 10.36-.92ZM167.75 244c-18.39-12.3-25.66-2-25.66-2s-12.26 11.11 5.36 22.21 71.23 50.17 83.11 64l16.08-10.72s-60.51-61.28-78.89-73.49Z"/>
        <path class="cls-7" fill="#e36359" d="M168.05 451.27c-.45-2.23-.81-4.46-1.1-6.7a113.29 113.29 0 0 1-23.68 5.19h-.42a4 4 0 0 1-.41-8 106.36 106.36 0 0 0 23.83-5.48c-.05-1-.08-2.08-.08-3.12-13.42-3.85-49.9-9.82-86.14 23.68 0 0 30.63 16.09 74.68 1.15 0 0-36.39 32.17-5.75 82.34 0 0 25.22-20.8 27.31-66.14-.76-1.38-1.46-2.79-2.12-4.22a84.27 84.27 0 0 1-6.12-18.7Z"/>
        <path d="M390 329.7c-37.18 0-53.93 17.51-54.63 18.25a4 4 0 0 0 5.86 5.46c.14-.16 15-15.71 48.77-15.71a4 4 0 0 0 0-8ZM363.81 311.3a4 4 0 0 0 2.26 5.19l2.83 1.11 12.1 4.76a3.94 3.94 0 0 0 1.46.28 4 4 0 0 0 1.46-7.73l-2.32-.91-12.6-5a4 4 0 0 0-5.19 2.3ZM364.16 418.9c-.07-1.29-.18-2.6-.34-3.9a62.56 62.56 0 0 0-1.42-7.6 128.75 128.75 0 0 0-4.49-14.13c-1.49-3.94-3-7.82-4.7-11.65a20.68 20.68 0 0 0 5.06-5.75 25.61 25.61 0 0 0 3.37-9.54 3.53 3.53 0 0 0-6.68-2v.08A34.24 34.24 0 0 1 351 371c-.35.49-.77.87-1.13 1.31a16 16 0 0 1-1.23 1.12 10.86 10.86 0 0 1-2.65 1.7 15.19 15.19 0 0 1-6.36 1.41 26.12 26.12 0 0 1-3.61-.2 14.1 14.1 0 0 1-1.84-.29c-3.69-.93-5.17.5-6.18 1.8a62.91 62.91 0 0 1-6.33 6.78 18.29 18.29 0 0 1-3.26 2.54 14 14 0 0 1-3.56 1.64 17.31 17.31 0 0 1-8 .42 28.11 28.11 0 0 1-4.26-1.1c-.71-.24-1.42-.51-2.12-.8l-1-.46-.91-.42-.46-.21a3.56 3.56 0 0 0-3.75 6c.52.42.85.68 1.27 1s.81.57 1.23.84c.82.54 1.68 1 2.55 1.48a29.11 29.11 0 0 0 5.59 2.14 24.55 24.55 0 0 0 6.16.85 23.11 23.11 0 0 0 6.37-.85q1-.28 1.95-.66c3.27 8 6.59 16 9.42 24 .76 2.19 1.46 4.36 2.07 6.48l.42 1.57c0 .19.19.69.32 1.1a12.4 12.4 0 0 0 .42 1.26 14.83 14.83 0 0 0 3 4.66 15.78 15.78 0 0 0 9.47 4.66 19.22 19.22 0 0 0 5 0 19 19 0 0 0 4.84-1.35 16.22 16.22 0 0 0 4.49-3 16.64 16.64 0 0 0 3.13-4.21 21.06 21.06 0 0 0 2.32-9.15v-2.08c0-.64-.18-1.43-.21-2.08Zm-10.36 3.6a11.3 11.3 0 0 1-1.19 4.61 5.82 5.82 0 0 1-1.12 1.51 6 6 0 0 1-1.45.95 10.35 10.35 0 0 1-2 .56 9.31 9.31 0 0 1-2.17 0 5.31 5.31 0 0 1-3.19-1.43 4.11 4.11 0 0 1-.9-1.32 2.73 2.73 0 0 1-.16-.43c-.05-.16-.09-.23-.2-.62l-.55-1.88c-.77-2.45-1.61-4.8-2.54-7.08a224.68 224.68 0 0 0-11.82-24.79 21.54 21.54 0 0 0 1.68-1.63 30.74 30.74 0 0 0 4.69-6.48c.46.16.93.29 1.4.43a26.23 26.23 0 0 0 5.2.82 22.5 22.5 0 0 0 5.46-.38l.84-.19c1.14 3.69 2.3 7.36 3.38 11 1.35 4.5 2.6 9 3.51 13.37a65.39 65.39 0 0 1 1 6.52c.11 1.07.17 2.15.2 3.24v1.65c0 .56-.04 1.22-.07 1.57ZM295.37 362.28c-33.8 3.56-57.2 28.67-58.19 29.74a4 4 0 0 0 5.9 5.41c.22-.24 22.31-23.95 53.13-27.2a4 4 0 1 0-.84-8ZM247.26 359.44a4 4 0 0 0-5.64.32 64.55 64.55 0 0 0-9.88 15.88 4 4 0 0 0 2.07 5.26 3.92 3.92 0 0 0 1.6.33 4 4 0 0 0 3.67-2.4 55.21 55.21 0 0 1 2.77-5.5 55.34 55.34 0 0 1 5.72-8.23 4 4 0 0 0-.31-5.66ZM715.65 639.86c-.9-4.05-1.9-8.08-2.85-12.12l-3-12.08-3.14-12c-1.09-4-2.14-8-3.28-12-2.24-8-4.56-16-7.15-23.87a4 4 0 0 0-7.76 2c1.5 8.18 3.26 16.29 5.11 24.39.9 4 1.89 8.08 2.84 12.12l3 12.08 3.13 12c1.1 4 2.14 8 3.28 12 2.24 8 4.57 16 7.16 23.87a4 4 0 0 0 7.75-2c-1.49-8.18-3.25-16.25-5.09-24.39Z"/>
        <path d="m752.28 698.61-.12-.64-.07-.31-.05-.21-.19-.78-.4-1.54-1.56-6.19-3.13-12.38-6.34-24.73-6.42-24.72c-8.34-31.81-16.8-63.59-25.78-95.24l8.47.45 7.49.37 3.8.19a14.45 14.45 0 0 0 5.87-1 14.7 14.7 0 0 0 8.26-8.34 16.47 16.47 0 0 0 .79-2.93l.09-.75.07-.66.08-.93.31-3.74a14.92 14.92 0 0 0-.81-6 14.65 14.65 0 0 0-8.22-8.58 12.31 12.31 0 0 0-1.44-.51 11 11 0 0 0-1.48-.35c-.2 0-.39-.07-.59-.09l10.15-266.3v-.7a5.49 5.49 0 0 0-5.63-5.34c-14.64.38-29.28.44-43.91.35l.32-8.09a12.4 12.4 0 0 0-12.13-12.89l-10.44-.23 2.18-46.69a14.46 14.46 0 0 0-14.17-14.85L638.2 144a14.52 14.52 0 0 0-14.75 13.9l-.79 47-15.12-.33a12.39 12.39 0 0 0-12.65 11.67l-.52 8.57-4.57-.2c-16.17-.71-32.34-1.55-48.5-2.79h-.3a5.44 5.44 0 0 0-5.6 5.29v.24l-5 172.17c-4.66 2.33-9.77 4.53-14.81 7.23-1.09.6-2.18 1.16-3.26 1.79l-3.22 1.94c-1.07.66-2.09 1.41-3.13 2.11l-1.56 1.08-1.6 1.25a36.92 36.92 0 0 0-5.77 5.88 31.39 31.39 0 0 0-4.18 7.2 34.67 34.67 0 0 0-2.42 15.94 43.83 43.83 0 0 0 1.26 7.71c.32 1.25.68 2.49 1.11 3.71.21.61.43 1.22.67 1.83s.45 1.1.76 1.77c-8 7.71-16 15.52-23.79 23.5q-3.56 3.63-7.05 7.31c-6.55 7-13 14.08-19.24 21.36a69.75 69.75 0 0 0-8.36 1.31c-3.5.73-6.82 1.59-10.12 2.34s-6.54 1.48-9.8 2.06a118.69 118.69 0 0 1-17.11 1.93c-1.29-3.4-2.89-7.23-4.57-11.07a119.47 119.47 0 0 1 23.05-3.77c2.33-.15 4.67-.23 7-.25h3.5c1.16 0 2.52.05 3.91 0a39.61 39.61 0 0 0 4.27-.35 26.11 26.11 0 0 0 4.48-1 21.53 21.53 0 0 0 4.64-2 17.41 17.41 0 0 0 4.29-3.63 16.56 16.56 0 0 0 2.83-5 21.08 21.08 0 0 0 1.1-5c0-.39.07-.78.09-1.16s0-.69 0-1.17a17.09 17.09 0 0 0-.16-2.67 18.81 18.81 0 0 0-1.44-5.16 19.73 19.73 0 0 0-6.6-8 26.88 26.88 0 0 0-8.39-3.95 43.76 43.76 0 0 0-8.33-1.46c-.62-.05-1.26-.1-1.89-.13q3.93-3.27 7.67-6.76a110.63 110.63 0 0 0 20.17-25l2-3.52c.62-1.2 1.21-2.42 1.82-3.63 1.28-2.39 2.21-5 3.28-7.46.47-1.27.89-2.57 1.34-3.86l.66-1.93c.21-.65.36-1.32.55-2l1.06-4c.3-1.34.53-2.69.8-4l.39-2c.12-.67.17-1.36.26-2l.48-4.09c.1-1.38.13-2.75.19-4.13l.08-2.06c0-.69 0-1.38-.06-2.07l-.17-4.12c-.11-1.38-.32-2.74-.47-4.11a75.31 75.31 0 0 0-1.48-8l-.42-1.89-.48-2c-.34-1.31-.71-2.62-1.12-3.92s-.83-2.58-1.28-3.86l-.71-1.9-.41-1c-.14-.35-.29-.64-.44-1-.6-1.24-1.17-2.53-1.8-3.72s-1.24-2.39-1.92-3.55c-1.32-2.34-2.77-4.6-4.28-6.82a102.47 102.47 0 0 0-16.1-18.15 69.31 69.31 0 0 1 21.93-15.17 4 4 0 1 0-3.25-7.31 76.3 76.3 0 0 0-24.84 17.35q-3.33-2.57-6.81-4.91c2.45-4.16 7.9-12.14 18.46-22.53a4 4 0 1 0-5.61-5.7c-10.93 10.76-16.78 19.17-19.62 24a128.89 128.89 0 0 0-13.19-6.74h-.07l-.26-.1a187.66 187.66 0 0 0-36.61-8.31q-7.26-.92-14.59-1.27c-1.29-4.13-8.25-25.35-23.79-54.2-15.67-29.07-43.36-71.58-86.35-109l-.19-.15c-12.49-9.63-41-22.81-59.67-3.85-7.49 7.62-11.06 16.11-10.62 25.25.79 16.55 14.4 29.21 18.56 32.7.83.7 2.07 1.72 3.67 3 46.16 37.62 82.22 74.66 107.23 110.17-2.9.62-5.79 1.32-8.65 2.09a255.8 255.8 0 0 0-33.61 11.74c-.84-1.19-1.68-2.34-2.54-3.52-1.57-2-3.09-4.12-4.72-6.09-3.19-4-6.55-7.86-9.92-11.69l-5.11-5.78c-1.71-1.89-3.53-3.68-5.28-5.53-3.51-3.71-7.18-7.23-10.83-10.8a499.83 499.83 0 0 0-46.66-39.34c-4.07-3.06-8.11-6.15-12.31-9s-8.31-5.86-12.51-8.73c-8.55-5.5-17-11.23-25.71-16.36l-6.51-3.95-3.25-2-1.63-1c-.73-.43-1.35-.75-2-1.08a64 64 0 0 0-15.8-5.58 48.16 48.16 0 0 0-17.35-.6 37.76 37.76 0 0 0-16.61 7 43 43 0 0 0-6.55 6.17 38.59 38.59 0 0 0-5.1 7.53 30 30 0 0 0-2.94 9.1 29.12 29.12 0 0 0 .18 9.64 38.07 38.07 0 0 0 7.71 16.27 53.8 53.8 0 0 0 12.57 11.58 42.27 42.27 0 0 0 3.79 2.25l3.36 1.76 6.62 3.53q6.63 3.56 13.19 7.2c8.78 4.84 17.46 9.85 26.14 14.86s17.24 10.21 25.74 15.51c4.25 2.64 8.51 5.26 12.7 8l6.31 4.06 6.24 4.17 6.24 4.15 6.16 4.27c4.14 2.8 8.14 5.78 12.18 8.72l3 2.21 3 2.29 5.9 4.58c2 1.49 3.87 3.12 5.8 4.69l1.61 1.33a216.38 216.38 0 0 0-22.08 24.84 131.79 131.79 0 0 0-10.05 15.65 137.68 137.68 0 0 0-7.93 16.95 128.59 128.59 0 0 0-5 16.65c-8 .25-17.09 0-24.82-1.48a4 4 0 0 0-1.52 7.86 115.11 115.11 0 0 0 21.13 1.72H167a98.34 98.34 0 0 0-.79 12.52v1.22c0 1 0 2.08.08 3.12a106.36 106.36 0 0 1-23.83 5.48 4 4 0 0 0 .41 8h.42a113.29 113.29 0 0 0 23.71-5.29c.29 2.24.65 4.47 1.1 6.7a84.27 84.27 0 0 0 6.07 18.73c.66 1.43 1.36 2.84 2.12 4.22a69.16 69.16 0 0 0 8.71 12.59 47.44 47.44 0 0 0 3.43 3.66c1.15 1.2 2.44 2.31 3.7 3.43a45.79 45.79 0 0 0 3.93 3.11l2 1.48 2 1.35a99.74 99.74 0 0 0 17.28 9.16 116.53 116.53 0 0 0 18.38 5.63 140.69 140.69 0 0 0 26.28 3.02c-.19.46-.39.92-.6 1.37-.93 2.13-2 4.25-3.06 6.35-2.23 4.17-4.57 8.32-7.19 12.33-.62 1-1.29 2-2 3l-2 3-4.15 5.89-4.33 5.77-4.45 5.7c-1.44 1.78-2.87 3.51-4.34 5.27-9.65-6.41-37.22-19.37-69.47 13.5-38.85 39.59 16 99.56 50.11 83.89a65.54 65.54 0 0 0 8.19 10.76l2.81 2.86c1 .91 2 1.76 3 2.64l1.5 1.31c.49.44 1 .81 1.55 1.21l3.15 2.37c1 .8 2.17 1.45 3.25 2.17s2.18 1.43 3.3 2.08l3.39 1.88c1.13.62 2.24 1.28 3.41 1.8 2.24 1.1 4.51 2.14 6.79 3.11 0 .14 0 .27-.08.42-.06.56-.15 1.12-.18 1.67a24.23 24.23 0 0 0 0 3.3 22.31 22.31 0 0 0 1.41 6.48 25.83 25.83 0 0 0 7.6 10.59 34.42 34.42 0 0 0 5.19 3.63l1.34.78c.45.25.85.43 1.28.65l2.54 1.25c3.4 1.57 6.81 3.08 10.26 4.44A221.52 221.52 0 0 0 323 741.47a107.84 107.84 0 0 0 11.38 1.39l3 .1h3.09a32.1 32.1 0 0 0 6.59-1 21.72 21.72 0 0 0 6.73-3 17.5 17.5 0 0 0 3.1-2.66 16.16 16.16 0 0 0 2.41-3.58 15.43 15.43 0 0 0 1.44-8.45 17.92 17.92 0 0 0-2.59-7.44 22.36 22.36 0 0 0-4.75-5.43 26.74 26.74 0 0 0-2.78-2c-.47-.28-1-.62-1.42-.85l-1.32-.71a81.93 81.93 0 0 0-10.71-4.51c-1.55-.52-3.09-1-4.64-1.46 8.79-1.67 17.63-3.57 23.94-6.76.1.1.21.19.32.28 2.11 1.65 2.79 2.33 4.93 3.79s4.26 2.89 6.46 4.25a131.77 131.77 0 0 0 13.69 7.48c1.19.56 2.37 1.14 3.6 1.62s2.44 1 3.71 1.48 2.51.94 3.82 1.33 2.6.82 3.81 1.15a135.89 135.89 0 0 0 15.37 3.42 50.32 50.32 0 0 0 8.48.6 25.24 25.24 0 0 0 9.74-1.91 16.27 16.27 0 0 0 5-3.4 15.54 15.54 0 0 0 3.37-5.16 18 18 0 0 0 1.27-5.47 18.26 18.26 0 0 0-.44-5.66 20.82 20.82 0 0 0-2.06-5 25.22 25.22 0 0 0-3-4 33.18 33.18 0 0 0-7-5.62 48.3 48.3 0 0 0-7.49-3.65c-.66-.26-1.33-.5-2-.73l.25-.22c.49-.43.92-.94 1.38-1.4l2.73-2.86c.9-1 1.68-2.07 2.53-3.1l1.24-1.58c.42-.53.76-1.13 1.14-1.69.73-1.15 1.49-2.28 2.18-3.46a48 48 0 0 0 5.55-15.78 45.26 45.26 0 0 0-.51-16.86 52.42 52.42 0 0 0-6-15.17 61.71 61.71 0 0 0-4.87-7.16 443.75 443.75 0 0 0 37-43 541.13 541.13 0 0 0 32.71-49.07c1.24-2.12 2.51-4.22 3.71-6.37l3.57-6.44c.37-.64.73-1.29 1.08-1.94 2-3.65 3.92-7.37 5.87-11.05 1.14-2.18 2.19-4.4 3.29-6.6s2.16-4.41 3.19-6.64c1-2.08 2-4.15 2.89-6.25a45.79 45.79 0 0 0 6.13.55 34.68 34.68 0 0 0 5.17-.32l-.52 17.85-1.22-.06-3.87-.18a15.1 15.1 0 0 0-14.55 9.89 15.84 15.84 0 0 0-.77 3c-.07.51-.11 1-.15 1.55v1l-.14 3.75v1.19a15.32 15.32 0 0 0 .34 3.11 11.78 11.78 0 0 0 .41 1.52 15.28 15.28 0 0 0 3.11 5.4 14.94 14.94 0 0 0 5 3.69 16.54 16.54 0 0 0 3 1c.51.09 1 .21 1.54.25l.78.07h.66c5 .14 10 .29 15 .35q3.4.07 6.82.11c-5.72 14.17-11.18 28.42-16.61 42.68-2.9 7.74-5.87 15.46-8.71 23.22l-8.58 23.26c-5.58 15.55-11.28 31.07-16.72 46.68l-4.11 11.69-1 2.92-.52 1.46-.06.18-.1.32-.19.66a11.69 11.69 0 0 0-.31 1.33 14.65 14.65 0 0 0 .06 5.52 15 15 0 0 0 2.07 5.08 14.8 14.8 0 0 0 8.77 6.3c.45.1.91.21 1.36.28s.92.1 1.38.14a10.44 10.44 0 0 0 1.37 0h1.19l3.08-.3 12.34-1.22 12.33-1.22 6.17-.61 3.08-.31 1.54-.15.78-.08.57-.07.68-.09a15 15 0 0 0 5.1-1.93 15.29 15.29 0 0 0 4-3.66 15 15 0 0 0 2.41-4.87l.83-3 3.29-12 6.57-23.9 6.44-23.94c8.36-31.27 16.58-62.56 24.24-94h.44c5 .07 10 .15 15 .31q4.65.11 9.31.26c1.75 12.89 3.37 25.82 5 38.73l2.49 19.77c.78 6.59 1.6 13.18 2.34 19.78l2.24 19.79c.38 3.3.77 6.6 1.2 9.89l.62 4.94.16 1.23.08.63.17 1a13.61 13.61 0 0 0 1.36 3.7 13.27 13.27 0 0 0 11.34 6.77h11.27l10-.17c2.77-.08 5.55-.15 8.32-.28l5.49 24.11 1.42 6.22.71 3.11.35 1.56.19.82a13.07 13.07 0 0 0 .37 1.26 13.63 13.63 0 0 0 6.67 7.61c.39.2.79.37 1.19.53l.82.31 1.5.56 3 1.12 23.91 9 6 2.24 3 1.12 1.49.56c.09 0 .35.12.54.18l.63.19a10.08 10.08 0 0 0 1.26.31 14.1 14.1 0 0 0 5.3 0 13.78 13.78 0 0 0 8.55-5.73 13.82 13.82 0 0 0 2.09-4.85 13.51 13.51 0 0 0 0-5.33ZM632.44 160.16A6.49 6.49 0 0 1 639 154l17.11.35a6.47 6.47 0 0 1 6.34 6.64l-1.18 44.73-14.82-.32-.45-27.17a4 4 0 0 0-8-.29l-2.47 27.18-4.92-.11Zm-29.57 56.5a4.4 4.4 0 0 1 4.4-4.15h.1l19.17.41 38.67.84 14.36.31a4.41 4.41 0 0 1 4.31 4.58l-.33 8.36c-7 0-14-.18-20.94-.26l-24.28-.52-24.27-.73-11.69-.43Zm-56.23 16.43c14.32-.28 28.64-.28 43-.17q4.3 0 8.62.07c5.22.06 10.44.16 15.66.22l24.27.52 24.27.72c8.09.33 16.18.57 24.26 1h.71c14 .62 28 1.36 42 2.36l-6.49 260.89-9.15-.15c-10-.18-20-.26-30-.39s-20-.3-30-.56c-5-.13-10-.26-15-.44s-10-.34-15-.57l-15-.64-15-.76-29.94-1.76-28.19-1.65.87-20.54a33.62 33.62 0 0 0 9.65-6.31 47.91 47.91 0 0 0 9.82-13.15 82.23 82.23 0 0 0 5.8-14.62 155.82 155.82 0 0 0 5.37-30.09q.64-7.56.8-15.12c.05-2.53.06-5.05 0-7.58l-.08-3.8v-.44c0-1.14-.08-2.23-.16-3.48v-.1a7.41 7.41 0 0 0-14.18-2.05l-1.22 2.89-.11.27-.5 1.19c-.2.48-.47.9-.7 1.36l-1.43 2.72-1.64 2.51a36.6 36.6 0 0 1-8.07 8.37ZM427.36 474.47a33.26 33.26 0 0 1 6.1 1.24 17.51 17.51 0 0 1 4.83 2.33 7.94 7.94 0 0 1 2.67 3.22 6.74 6.74 0 0 1 .5 1.9 6.63 6.63 0 0 1 .05 1v.66l-.05.68a6.36 6.36 0 0 1-1.19 3.57 5.57 5.57 0 0 1-1.29 1.1 10.12 10.12 0 0 1-2.08.92 24.27 24.27 0 0 1-5.73 1c-1 .07-2.08.06-3.44.1s-2.57.06-3.85.13c-2.56.11-5.12.39-7.67.69a95.35 95.35 0 0 0-25.55 6.73c-2.27-5-4.38-9.4-5.7-12.15a139.73 139.73 0 0 0 27.62-14.18c2.65.16 5.3.32 7.94.52l3.54.3c1.16.05 2.2.11 3.3.24ZM250.85 206.81s-19.91-16.47-4.59-27.19 28.34 5.74 28.34 5.74c35.09 36.84 58.6 94.58 62.3 104 .34.86.51 1.32.51 1.32l-18 1.53c-.27-.52-.56-1-.87-1.6-14.14-25.13-67.69-83.8-67.69-83.8Zm170.4 440.9a38.45 38.45 0 0 1-3.58 11.52c-.47.93-1 1.83-1.52 2.76-.27.45-.49.93-.79 1.37l-.9 1.33c-.62.88-1.16 1.81-1.84 2.66l-2.05 2.57c-5.54 6.9-12.7 12.86-20.1 18.71l-.1.08a4 4 0 0 0 4.27 6.75q3.36-1.66 6.66-3.46c2.18-1.24 4.29-2.63 6.44-4 .85-.59 1.7-1.2 2.54-1.82l2.44 1.36c1 .59 2 1.19 3 1.79a55.34 55.34 0 0 1 5.52 3.92 26 26 0 0 1 4.3 4.29 13.21 13.21 0 0 1 1.35 2.14 8.08 8.08 0 0 1 .66 2 5.85 5.85 0 0 1 .05 1.82c0 .3-.12.63-.16 1-.05.16-.09.31-.13.47l-.16.41a3.3 3.3 0 0 1-1.89 1.92 13.4 13.4 0 0 1-4.95.91 46.84 46.84 0 0 1-6.54-.38 131.07 131.07 0 0 1-14.11-2.67c-1.24-.26-2.34-.56-3.45-.85s-2.24-.63-3.36-1c-2.24-.7-4.47-1.53-6.7-2.39a169.54 169.54 0 0 1-21.82-10.35l.08-.06c13.1-8.64 17.75-19.05 18.15-19.72a4 4 0 0 0-1.34-5.49c-1.88-1.15-4.25.77-5.4 2.65-.1.16-7.07 9.73-22.41 18.11a74.41 74.41 0 0 1-10.41 4.66 60.88 60.88 0 0 0 5.26-4.82 46.45 46.45 0 0 0 10.94-17.36 39.49 39.49 0 0 0 1.08-21.21 55 55 0 0 0-8.08-18.49 86.36 86.36 0 0 0-12.35-14.63c-2.25-2.19-4.57-4.27-7-6.22s-4.85-3.86-7.38-5.62-5.08-3.48-7.72-5-5.27-3.07-8.17-4.47a4 4 0 0 0-4.19 6.8l.12.09c2.18 1.68 4.51 3.55 6.71 5.38s4.43 3.72 6.55 5.67a160.09 160.09 0 0 1 12.08 12.08 92.1 92.1 0 0 1 9.9 13.21 46.12 46.12 0 0 1 5.86 14.16 28 28 0 0 1-.56 14 38 38 0 0 1-7.38 13 63.57 63.57 0 0 1-5.58 5.83c-2 1.91-4.13 3.69-6.33 5.44-3.82 3-7.94 5.83-12.14 8.62l-2 1.3-.59.4a3.9 3.9 0 0 0-1.69 2.62 4.44 4.44 0 0 0-.05.62 3.91 3.91 0 0 0 3.28 3.86c6.66 2.1 13.46 4.43 19.81 7.14a78.23 78.23 0 0 1 9.08 4.48l1.05.62c.37.2.59.39.89.58a16.08 16.08 0 0 1 1.6 1.2 11 11 0 0 1 2.28 2.8 6.75 6.75 0 0 1 1 2.75 3.76 3.76 0 0 1-.38 2.13 5 5 0 0 1-1.65 1.77 10.34 10.34 0 0 1-3.25 1.35 20.3 20.3 0 0 1-4.15.62h-2.34l-2.48-.07c-3.36-.24-6.77-.6-10.21-1.16a198.64 198.64 0 0 1-20.64-4.48c-6.85-1.81-13.65-4-20.32-6.33-3.35-1.16-6.62-2.46-9.86-3.8a41.43 41.43 0 0 1-8.5-4.48 16.68 16.68 0 0 1-5.37-6.57 15.2 15.2 0 0 1-1.17-4c-.07-.5-.12-1-.14-1.5 4.55 1.62 9.16 3 13.8 4.15a4 4 0 0 0 2.4-7.63 176.63 176.63 0 0 1-25.91-12 83.45 83.45 0 0 1-21.43-17.09 51.7 51.7 0 0 1-11.91-23.11 55.14 55.14 0 0 1-1.13-13.05 67 67 0 0 1 1.82-13.3c.47-2.21 1.18-4.38 1.83-6.56l1.16-3.24c.36-1.08.85-2.13 1.27-3.2a108.26 108.26 0 0 1 6.15-12.46 124.52 124.52 0 0 1 7.68-11.74l8.9-11.67 4.42-6.08 4.21-6.23c1.35-2.12 2.72-4.23 4-6.36s2.62-4.3 3.81-6.53l1.82-3.32 1.73-3.39c.58-1.12 1.12-2.27 1.66-3.42s1.07-2.3 1.56-3.48 1-2.34 1.46-3.55.94-2.39 1.34-3.62.8-2.48 1.17-3.74l.2-.74c.78 0 1.55 0 2.33-.06a176.66 176.66 0 0 0 36.59-5.25 4.4 4.4 0 0 0-1.64-8.62c-11.71 1.46-23.39 2.49-35 2a140 140 0 0 1-33.9-5.24 101.27 101.27 0 0 1-15.71-5.89 93.81 93.81 0 0 1-14.27-8.26l-1.68-1.17L206 484c-1.06-.83-2.13-1.64-3.07-2.54s-2-1.73-2.89-2.71c-.46-.47-.93-1-1.41-1.41s-.9-1-1.36-1.46a75.33 75.33 0 0 1-9.43-12.88 58.28 58.28 0 0 1-4.06-8.42 71.05 71.05 0 0 1-4-15c4.27-1.95 6.85-3.44 7.13-3.6a4 4 0 0 0-4-6.92c-.05 0-1.48.85-4 2.07a84.54 84.54 0 0 1 0-11.14c0-.37 0-.75.08-1.12l1.28-.11c6.09-.51 10.24-1.11 10.68-1.18a4 4 0 1 0-1.17-7.91c-.1 0-4 .57-9.74 1.07a118 118 0 0 1 3.1-12.56 125.85 125.85 0 0 1 6.34-16.09 122.22 122.22 0 0 1 8.67-15.09 109.07 109.07 0 0 1 23.06-25.36 4 4 0 0 0 1.69-6.82l-5.64-5.16c-1.9-1.71-3.74-3.49-5.7-5.1l-5.85-4.92-2.94-2.45-3-2.36c-4-3.15-8-6.34-12.05-9.34l-6.09-4.58c-2-1.5-4.12-3-6.18-4.44l-6.21-4.4-6.24-4.29c-4.17-2.89-8.41-5.66-12.64-8.46-8.48-5.55-17.08-10.9-25.71-16.2s-17.37-10.41-26.18-15.41q-6.6-3.75-13.25-7.44l-6.67-3.65-3.31-1.79c-.91-.51-1.82-1.05-2.71-1.66-7.16-4.81-13.36-12.24-14.7-19.59A16.24 16.24 0 0 1 59.44 203a26.16 26.16 0 0 1 3.38-4.92 29.67 29.67 0 0 1 4.47-4.24 24.73 24.73 0 0 1 10.93-4.66 35.2 35.2 0 0 1 12.69.45 51.6 51.6 0 0 1 12.63 4.4c.48.24 1 .5 1.34.72l1.61 1 3.23 1.9 6.45 3.82c8.7 5 17 10.5 25.45 15.81L154 225.6c4.17 2.74 8.19 5.7 12.23 8.62a546.72 546.72 0 0 1 46.6 37.44c3.68 3.35 7.4 6.67 10.93 10.17 1.78 1.74 3.62 3.43 5.35 5.21l5.21 5.33c3.42 3.61 6.8 7.25 10 11 1.68 1.84 3.21 3.76 4.82 5.64s3.11 3.88 4.45 5.72l.09.12a4 4 0 0 0 4 1.56 4.18 4.18 0 0 0 2.59-.48q5.79-3.12 11.86-5.68c6.63 4.63 24.33 14.09 52.94 8.78 26.77-5 34.05-15.5 36-21 1.39.15 2.78.32 4.16.51a170.92 170.92 0 0 1 34.7 8.41c1.17.54 2.33 1.09 3.48 1.67a105.07 105.07 0 0 1 11.78 6.93 95.29 95.29 0 0 1 9.16 7.06c.85.74 1.69 1.5 2.51 2.27a96.5 96.5 0 0 1 11.18 12.41q2.66 3.53 5 7.26c.64 1 1.22 2.06 1.83 3.08s1.13 2.1 1.71 3.14 1.06 2.14 1.6 3.2.94 2.11 1.42 3.17c.11.26.25.53.34.77l.26.74.58 1.68c.37 1.12.72 2.25 1 3.38s.62 2.28.88 3.42l.38 1.72.37 1.84a62.67 62.67 0 0 1 1.1 6.95c.11 1.15.26 2.3.33 3.46l.05 3.47c0 .58.05 1.16 0 1.74l.01 1.69c-.08 1.16-.13 2.32-.23 3.47l-.5 3.46c-.09.57-.14 1.15-.26 1.72l-.37 1.71c-.26 1.14-.48 2.28-.76 3.41l-1 3.37c-.17.56-.31 1.13-.5 1.68l-.61 1.65c-.42 1.1-.8 2.21-1.23 3.3L448 415c-.24.53-.45 1.08-.71 1.61l-.81 1.58-1.61 3.15-1.8 3.06-.9 1.53-1 1.49-2 3-2.14 2.86-1.03 1.41-1.15 1.38-2.28 2.74-2.4 2.65-1.2 1.32-1.28 1.27-2.55 2.54c-3.53 3.39-7.17 6.53-11 9.55q-2.88 2.25-5.86 4.4c-1.71 1.26-3.44 2.5-5.2 3.7-.27.2-.53.38-.8.56-8.08 5.6-16.47 10.84-24.9 16.33a4.36 4.36 0 0 0-1.74 5.06 7.48 7.48 0 0 1 .72 1.94c.06.14 4 8.17 8.16 17.34a4.36 4.36 0 0 0 .16.8 3.94 3.94 0 0 0 .88 1.53c2.56 5.74 5.08 11.69 6.7 16.28a4 4 0 0 0 2.25 2.37v-.09a4 4 0 0 0 1.24.38 90.7 90.7 0 0 0 21.53.15c5.33-.52 10.58-1.47 15.63-2.38 1.7-.31 3.37-.61 5-.89.78-.14 1.56-.27 2.33-.38a37.61 37.61 0 0 1 6.74-.54h.1a11.45 11.45 0 0 1 3.18.5 4.79 4.79 0 0 1 2 1.26 8.71 8.71 0 0 1 1.65 2.56c.12.28.25.56.36.87l.16.42.08.25a3.47 3.47 0 0 1 .15.94 5 5 0 0 1-.58 2.25 12 12 0 0 1-2 2.82 33 33 0 0 1-6.77 5.38 69.71 69.71 0 0 1-8.41 4.44q-4.32 1.92-8.87 3.55c-2.71 1-5.46 1.88-8.25 2.71l-1.49.44c-2.06.6-4.14 1.18-6.22 1.72-10.19 2.68-20.64 4.73-31.16 6.55l-2.25.39a4 4 0 0 0 .95 7.94c6.28-.41 12.57-1 18.84-1.87a45.56 45.56 0 0 1 .44 8.45 312.52 312.52 0 0 0-21.46 47.17 40.88 40.88 0 0 0-2.14 8.31c0 .42-.07.86-.1 1.29s0 1 0 1.44a14.38 14.38 0 0 0 .17 1.66 10 10 0 0 0 .58 2 8.79 8.79 0 0 0 1.35 2.31 8.33 8.33 0 0 0 2.41 2 12.71 12.71 0 0 0 1.38.59 11.86 11.86 0 0 0 1.31.31c.39.06.77.09 1.16.12s.68 0 1 0a15.5 15.5 0 0 0 5.61-1.58 27.48 27.48 0 0 0 4-2.35c.33-.23.64-.45 1-.77.23-.18.28-.24.41-.35l.35-.31 1.4-1.22 2.79-2.44c3.7-3.28 7.47-6.48 11.12-9.82l3.23-3.14c.81 1.46 1.57 2.94 2.27 4.42 3.73 7.84 5.64 15.95 4.52 23.8ZM492 500.84l-3.72 6.21c-1.24 2.06-2.56 4.08-3.84 6.13q-9.13 14.61-19.11 28.62-6.78 9.54-13.94 18.79l-9 11.27c-1.46 1.91-3.1 3.67-4.65 5.5l-4.74 5.47c-1.58 1.81-3.08 3.68-4.73 5.44l-4.91 5.26-4.91 5.27c-.82.87-1.62 1.76-2.47 2.62l-.5.49-2.06 2-5.42 5.46-4.74 4.68q-1.86 1.71-3.75 3.39-1.64 1.47-3.29 2.92l-3.67 3.27-2.71 2.37-1.34 1.19-.62.55-.42.32-.09.06c.25-.92.55-1.89.89-2.85q1.62-4.63 3.38-9.22a295.2 295.2 0 0 1 14.66-32.68c.85-1.63 1.73-3.25 2.62-4.86q4.57-8.29 9.65-16.31l2.57-.61a137.1 137.1 0 0 0 20.42-6.6 80.14 80.14 0 0 0 9.94-5 42.68 42.68 0 0 0 9.38-7.37 26.9 26.9 0 0 0 2.1-2.55 21.4 21.4 0 0 0 1.84-3 16.94 16.94 0 0 0 1.87-7.67 15.58 15.58 0 0 0-.59-4.15c-.1-.33-.21-.65-.31-1s-.2-.52-.3-.79c-.19-.5-.43-1-.65-1.51a20.73 20.73 0 0 0-4.08-6 16.56 16.56 0 0 0-5.19-3.52c4.74-5.6 9.61-11.12 14.55-16.58 1.79-2 3.59-3.94 5.4-5.89 4 .85 12.74 3.5 16.51 10.77ZM511.13 466c-.52 1.07-1.06 2.14-1.61 3.2-1.07 2.15-2.18 4.28-3.32 6.41s-2.24 4.27-3.42 6.37-2.31 4.23-3.51 6.33q-1.38 2.4-2.74 4.82c-4.24-5.22-10.16-8.1-14.82-9.66 7.18-7.57 14.51-15 21.91-22.38l.94-.94q.72.19 1.41.45a20.63 20.63 0 0 1 3.15 1.38 9.78 9.78 0 0 1 2.37 1.7 4.13 4.13 0 0 1 .49.59c-.28.57-.56 1.15-.85 1.73Zm11.8-.61h-2.69a4 4 0 0 0 0-1.88 11.56 11.56 0 0 0-3.09-5.43A17.45 17.45 0 0 0 513 455a29.41 29.41 0 0 0-4.34-1.91q-1.08-.37-2.19-.69c-.76-.21-1.42-.39-2.33-.57a3.92 3.92 0 0 0-3.46 1c-.28-1-.51-2-.71-3.07a35.08 35.08 0 0 1-.64-6.26 25.29 25.29 0 0 1 2.43-11.59 23.2 23.2 0 0 1 7.54-8.69l1.23-.84 1.4-.85c.94-.55 1.85-1.14 2.82-1.66l2.87-1.51h.05c1-.5 2-.95 3-1.43 3-1.37 6.13-2.62 9.36-3.92l3.45-1.39c1.89-.77 3.83-1.59 5.77-2.51a62.44 62.44 0 0 0 7.88-4.33 48.54 48.54 0 0 0 7-5.58q0 3.59-.07 7.14a143.42 143.42 0 0 1-3.31 27.92 92.82 92.82 0 0 1-.82 3.18c-.14.52-.29 1.05-.45 1.57l-.48 1.55c-.17.55-.36 1.14-.56 1.7s-.34 1-.52 1.47c-.44 1.18-.91 2.34-1.43 3.47a38.42 38.42 0 0 1-7 10.83 25.47 25.47 0 0 1-2.43 2.23 22.91 22.91 0 0 1-7.91 4.15l-.67.19a26.55 26.55 0 0 1-5.55.79Zm38.41 152.87L554.22 642l-7 23.78-3.49 11.89-.87 3a2.66 2.66 0 0 1-.35.64 2.17 2.17 0 0 1-1.22.7l-4.41.42 19.87-67.27a4 4 0 0 0-7.61-2.45l-24.86 70.89-7.17.67-12.34 1.16-3.09.29h-.53a.43.43 0 0 0-.16 0l-.16-.05a1.8 1.8 0 0 1-1-.77 1.73 1.73 0 0 1-.29-1.25v-.18a.29.29 0 0 0 0-.09l.06-.19.5-1.46 1-2.93 4-11.73c5.41-15.61 10.56-31.32 15.82-47l7.7-23.57c2.57-7.86 5-15.75 7.56-23.62 4.8-15.23 9.55-30.46 14-45.8 5.53 0 11.06.05 16.59.07h3l-3 11.63a4 4 0 0 0 7.61 2.48l5.62-14.08 9.68.06c-9.87 30.22-19.17 60.6-28.34 91.02Zm65.78-98.37-2-.07c-4.34-.13-8.66-.31-13-.5-5-.19-10-.45-15-.72l-3.14-.18c-8.93-.5-17.87-1.11-26.81-1.67-10-.65-20-1.32-30-1.8-5-.27-10-.47-15-.66a1.24 1.24 0 0 1-.27 0h-.16c-.1 0-.2 0-.3-.06a5.27 5.27 0 0 1-.44-.23 3.14 3.14 0 0 1-1-.73 2.91 2.91 0 0 1-.62-1 1 1 0 0 1-.08-.29.94.94 0 0 1-.06-.29 1.62 1.62 0 0 1 0-.31v-.68l.11-3.75v-1.21c0-.1.08-.4.14-.6a3.22 3.22 0 0 1 1.65-1.81 3 3 0 0 1 1.23-.29l3.64.07 7.49.14 30 .4 30 .39 15 .31 15 .43c5 .13 10 .31 15 .51s10 .4 15 .63c10 .45 20 1.05 30 1.58s20 1.22 29.95 1.76l15 .82h.62a1 1 0 0 1 .35.07 1 1 0 0 1 .34.1 1.44 1.44 0 0 1 .32.13 3.84 3.84 0 0 1 1.1.83 3.57 3.57 0 0 1 .94 2.51l-.19 3.75-.05.93v.46a4.13 4.13 0 0 1-.14.7 3.59 3.59 0 0 1-1.91 2.1 3.49 3.49 0 0 1-1.44.33l-3.7-.07-7.5-.14-30-.47-30-.58q-15.09-.32-30.07-.84ZM669.49 645l-10-.37-10-.24h-1.22a4.35 4.35 0 0 1-.52-.06 3.62 3.62 0 0 1-1-.32 3.46 3.46 0 0 1-1.82-2.35 2.27 2.27 0 0 0-.06-.25l-.08-.61-.17-1.24-.67-4.93c-.43-3.29-.9-6.58-1.39-9.86L639.78 605c-.89-5.84-1.7-11.69-2.53-17.53l4.09-3.32 5 25.78a4 4 0 0 0 7.9-1.27l-4-31.7 9-7.3q6.25 29.13 12.77 58.22l3.9 17.41c-2.17-.1-4.3-.2-6.42-.29Zm72 56.59a3 3 0 0 1-.43 1 3.53 3.53 0 0 1-.8.79 4.07 4.07 0 0 1-1 .43 3.08 3.08 0 0 1-1.05 0c-.09 0-.18 0-.27-.07h-.15a.43.43 0 0 1-.21-.06l-1.5-.55-3-1.11-6-2.22-23.94-8.86-3-1.11-1.49-.55-.68-.25-.26-.12a3 3 0 0 1-1.49-1.64c0-.09-.06-.19-.08-.28l-.18-.73-.38-1.55-.74-3.1-1.5-6.21-6-24.82-6.07-24.8q-11.73-48.36-24.27-96.5l5.41.27 18.84 68.86a4 4 0 0 0 7.76-1.93l-14.86-66.36 12.6.62 14.86.78c7.11 32.78 14.78 65.43 22.58 98.05l6 24.82 6.08 24.79 3.07 12.4 1.54 6.19.38 1.55.19.77v.4a2.45 2.45 0 0 1 .09 1.08Z"/>
        <path d="M553.83 568.19a4 4 0 0 0-5.36 1.92c-2.21 4.66-4.14 9.42-6 14.21s-3.56 9.62-5.19 14.48-3.22 9.73-4.68 14.65-2.88 9.86-4.05 14.87a4 4 0 0 0 7.57 2.59c2.14-4.68 4-9.45 5.9-14.23s3.59-9.61 5.27-14.46 3.28-9.71 4.77-14.62 2.86-9.86 4-14.9a4 4 0 0 0-2.23-4.51Z"/>
        <path class="cls-5" fill="#90d35b" d="M571.41 371.49a2.07 2.07 0 0 0 .77.15 2 2 0 0 0 1.78-1.1c1.38-2.72 2.77-5.28 4.13-7.6a57 57 0 0 1 5.6-8.06l.21-.23c.48-.53.94-1 1.41-1.46a.94.94 0 0 0 .1-.1c.35-.35.71-.66 1.1-1l.65-.57 1.32-1.16a2.12 2.12 0 0 0 .82-1.86v-.17l-.23-2.3c-.08-.82-.16-1.63-.23-2.47L587.56 328v-.26c-.47-2.21-.85-4-1.89-4.6a7.74 7.74 0 0 1 .14-1.11 2 2 0 0 0 .33-1.77l-1.14-4a191 191 0 0 1-.27-22.34c.07-1.49.16-2.91.26-4.28a2.1 2.1 0 0 0 2.06-1.78 20.34 20.34 0 0 0 .23-3.05c0-.78.07-1.69.12-2.64a36.23 36.23 0 0 1 1.24-7.84 7.75 7.75 0 0 1 1.7-3.29 2 2 0 0 0 1.16-1.2 2.08 2.08 0 0 0 1 0 2.36 2.36 0 0 0 .28-.12 25.44 25.44 0 0 1 1.22 4.88c.31 1.95.58 3.94.92 6.45.42 3.09.94 6.93 1.74 12.14a2 2 0 0 0 .85 1.35 2 2 0 0 0 .72.33c.09.35.17.66.24 1s.21.84.31 1.27a45.22 45.22 0 0 1 .86 7.2v2.35a2 2 0 0 0-2.58 2c.25 4.58.57 7.44.92 10.46.22 1.89.44 3.85.65 6.31a2.08 2.08 0 0 0 .41 1.05v6.34c0 1.52 0 3.11-.08 4.71 0 2-.08 4.13-.07 6.11a2 2 0 0 0 2.56 1.91c2.4-.7 4.55-1.37 6.43-2 .81-.28 1.58-.52 2.32-.76s1.32-.42 2-.64a2 2 0 0 0 1.32.09l2.17-.59.3-.08c.35-.1.71-.21 1.07-.29l.85-.2c.71-.17 1.44-.34 2.22-.49.93-.19 2-.41 3.23-.58 1-.16 2-.31 3.2-.45 2.3-.29 4.44-.47 6.33-.62 1.49-.13 2.79-.24 3.76-.37.56 0 1.12.12 1.72.2l1.76.24 3.91.89.75.18a13.9 13.9 0 0 1 1.49.39l.94.26 4 1.15a2 2 0 0 0 1.62-.22 2 2 0 0 0 .91-1.36c.23-1.32.44-2.73.65-4.12.14-1 .28-1.94.43-2.87l1-5.82c.56-3 1.07-5.39 1.6-7.6a145 145 0 0 1 4.32-15c1-2.74 1.89-5.12 2.83-7.29.31-.73.62-1.45.95-2.17.78-1.69 1.58-3.3 2.39-4.81a46.87 46.87 0 0 1 8.3-11.61 13.34 13.34 0 0 1 3-1.41 2 2 0 0 0 .4-.16 4.89 4.89 0 0 1 1.76-.6h.36l.22.11.09.1a3.89 3.89 0 0 1 .23.36 5.63 5.63 0 0 1 .52 1.8 2.92 2.92 0 0 0-.7 1.13 2.2 2.2 0 0 0-.1.72v1.37a4.53 4.53 0 0 0 .29 2.08 1.85 1.85 0 0 0 .37.51c-.62 6.12-2.27 13.3-4 16.86a2 2 0 0 0-.1 1.51l.95 2.84a2 2 0 0 0 1.46 1.29 11.88 11.88 0 0 0-.93 1.56l-.2.37a2 2 0 0 0-1.77 1.26 115.79 115.79 0 0 1-5.9 13.23 54.09 54.09 0 0 1-4.44 6.51l-.35.47a1.7 1.7 0 0 0-.24.44c-.45 1.08-.82 2-1.11 2.74-.53 1.23-1 2.26-1.32 3.12a16 16 0 0 0-1.21 3.78 2 2 0 0 0 1 2 12.11 12.11 0 0 0 2.13 1 7.27 7.27 0 0 1 1.71.85l.85.73.6.56 1.57 1.5c.77.77 1.51 1.6 2.22 2.4l.11.12c.73.91 1.44 1.81 2.08 2.65s1.3 1.85 1.91 2.75c1.57 2.39 2.95 4.76 4.38 7.25a2.11 2.11 0 0 0-1.33.75 2 2 0 0 0-.18 2.21c.34.61.76 1.39 1.15 2.16s.73 1.67.95 2.25a2 2 0 0 0 2.15 1.26c.19.46.39.93.58 1.41l.15.37a81.05 81.05 0 0 1 2.92 8.45 55.82 55.82 0 0 1 1.75 8.54c.16 1.52.27 2.75.37 3.75.1 1.16.18 2 .28 2.73a17.3 17.3 0 0 0 .53 2.3c-1.22.46-1.65 2.16-2 3.59a2.25 2.25 0 0 0-.06.36 44.1 44.1 0 0 1-.77 5.92 1.58 1.58 0 0 0 0 .38c0 .72-.06 1.41-.12 2.14l-.18 2.16a8.43 8.43 0 0 1-.11.86l-.07.49a25.88 25.88 0 0 1-1.55 5.85l-.16.28-.87 1.5a2.26 2.26 0 0 0-1 .18c-.85.35-1.59 1.14-3.32 3l-1.29 1.38a2.19 2.19 0 0 0-.29.39c-.41.73-.76 1.25-1.07 1.71-.19.29-.36.55-.48.75a20.9 20.9 0 0 0-1.06 1.86 2 2 0 0 0-.07 1.66l-.71.68-.51.5c-.34.33-.68.68-1.06 1l-1.91 1.66c-.76.71-1.61 1.37-2.5 2.07-.44.35-.89.69-1.29 1l-.33.27-.6.34-1 .67c-.67.46-1.32.93-1.92 1.38s-1 .68-1.4 1c-.62.43-1.22.84-1.75 1.27a34.1 34.1 0 0 1-11.17 4.68 16.94 16.94 0 0 1-5.53.19l-1.6-.18c-1.2-.14-2.57-.3-4.35-.36-1.06-.09-2.27-.13-3.67-.18-2.27-.08-5.1-.18-8.8-.5a2 2 0 0 0-1.93 1h-.38l-.7-.09c-1-.13-2.07-.28-3.25-.52-3.08-.56-6.6-1.53-9.28-2.31l-7.9-2.49a43.06 43.06 0 0 1-6.69-3.39c-1.48-.93-2.73-1.85-4.31-3l-.79-.58a1.77 1.77 0 0 0-.49-.26c-.73-.28-2.22-1-3.54-1.72-2.51-1.29-3.38-1.72-4.08-1.81a2 2 0 0 0-2.17 2.62c1 2.83 5.08 7.11 11 11.46a92.91 92.91 0 0 0 25.79 13 1.55 1.55 0 0 0 .36.08 8.06 8.06 0 0 0 1.34.11 91.46 91.46 0 0 0 17 1.77c1 0 2 0 2.93-.06a50.83 50.83 0 0 0 21.27-5.45 2 2 0 0 0 1-1.29l.72-.28a29.58 29.58 0 0 0 4.75-2.2 2 2 0 0 0 1-1.43c.5-.33 1-.68 1.59-1.07l3.58-2.62 1.43-1.05 2.28-1.7c.88-.72 1.74-1.47 2.65-2.28l1.07-.94c.94-.87 1.84-1.78 2.8-2.75l.93-.93.09-.1 1.79-2 .24-.27c.55-.62 1.13-1.27 1.64-2l.65-.84a2 2 0 0 0 .9.22 2 2 0 0 0 1.31-.49 14.32 14.32 0 0 0 1-1l.38-.39a1.57 1.57 0 0 0 .3-.38 65 65 0 0 0 3.9-7.58 2 2 0 0 0-.5-2.28c.44-.95.85-1.88 1.23-2.8a2.16 2.16 0 0 0 .56.08 2 2 0 0 0 1.86-1.28l.07-.17c.49-1.27 1-2.7 1.58-4.34.1-.36.21-.72.32-1.1a40 40 0 0 0 1-4.05c.45-1.89.7-3.78 1-5.84v-.11l.07-.77c.14-1.74.29-3.54.27-5.33a62.15 62.15 0 0 0-4.4-23.18 2 2 0 0 0-.24-.43c-.41-.57-1.31-1.77-2.56-1.68-.44-.9-.88-1.82-1.33-2.73a2.13 2.13 0 0 0 .63-1.7c0-.77-.38-1.75-1.57-4.38a84.51 84.51 0 0 0-5.78-10 2 2 0 0 0-2.3-.76c-1.82-3-3.48-5.42-5.17-7.68l-.35-.44c-1-1.27-2-2.59-3.13-3.82l.62-1.43c.77-1.83 1.47-3.74 2.11-5.71.82-.76 1.54-2.28 2.59-4.7s2.14-5.39 2.87-7.34l.24-.66a157.88 157.88 0 0 0 5.32-16.97c2.28-9.54 1.09-10-.16-10.53a2.72 2.72 0 0 0-.72-.15 47.68 47.68 0 0 0 1.45-8.61 29.75 29.75 0 0 0-.34-7.6 15.64 15.64 0 0 0-1.46-4.33 9.66 9.66 0 0 0-3.84-4.09 7.78 7.78 0 0 0-1-.47l-.12-.05a2 2 0 0 0-1.2-2.51 6 6 0 0 0-1.32-.31l-.57-.09a8.89 8.89 0 0 0-1-.13h-.49a12.92 12.92 0 0 0-2 .09 16.22 16.22 0 0 0-4.52 1.25 24.73 24.73 0 0 0-6.77 4.5 50.4 50.4 0 0 0-8.82 11.41 167.41 167.41 0 0 0-8.8 18.16c-.82 1.87-1.61 3.69-2.4 5.46a1.54 1.54 0 0 0-.08.19c-1 3.1-1.43 5.24-1.21 6.39a2.28 2.28 0 0 0 .75 1.29 51.67 51.67 0 0 0-2.58 7.36l-.19.7a78.1 78.1 0 0 0-.69 2.63l-.91 3.76a1.69 1.69 0 0 0-.17.29 2.88 2.88 0 0 0-.22 1.38 2 2 0 0 0 .78 1.5c-.43-.09-.85-.17-1.27-.27h-.15l-2.62-.41a25.72 25.72 0 0 0-2.57-.32h-.31l-.86-.09c-.58-.06-1.19-.12-1.74-.13-6-.28-7.46.71-7.94 1a2 2 0 0 0-.77 1l-1.12.13-3.29.41c-2.17.28-4.22.54-5.83.65a2.07 2.07 0 0 0-.55.11c-.62.22-1.46.46-2.44.73l-1.2.34c-.88.24-1.79.5-2.68.77V332.45c-.07-1.37-.17-2.49-.28-3.33a4.16 4.16 0 0 0-1-2.64v-.07c-.22-7.72-.62-17.95-1.72-28.63a157.76 157.76 0 0 0-2.5-16.43 74.41 74.41 0 0 0-2.1-7.95 33.42 33.42 0 0 0-3.09-6.95 7 7 0 0 0-1-2.21 6.69 6.69 0 0 0-2.72-2.35 5.94 5.94 0 0 0-3.92-.25 6.28 6.28 0 0 0-1 .28l-.15.06a2.5 2.5 0 0 0-1 0 6.53 6.53 0 0 0-2.39 1.2l-.09.07a17.63 17.63 0 0 0-2.38 2.33c-.2.23-.48.54-.59.65a2 2 0 0 0-.6.69 15.22 15.22 0 0 0-.78 1.87l-.27.7-.06.18-.24.77c-.18.58-.37 1.17-.51 1.78l-.11.48c-.17.69-.35 1.41-.46 2.07-.17.81-.32 1.69-.46 2.66A98.84 98.84 0 0 0 577.6 288c-.25 6.26-.16 13 .3 21.36.39 6.87 1 14.06 1.85 21.38.42 3.62.88 7.17 1.37 10.55.15 1 .3 2.07.46 3.1l.37 2.47-.53.52a7.4 7.4 0 0 0-.56.56l-.84.95a7.51 7.51 0 0 0-.7.88l-.06.09a101.54 101.54 0 0 0-5 9.52 85.86 85.86 0 0 0-4 9.66 2 2 0 0 0 1.15 2.45Zm73.37-43.82 5.14-3-1.81 8.46-4-.4Z"/>
        <path class="cls-5" fill="#90d35b" d="M643.74 381.3a10.71 10.71 0 0 0 2.18 7.15 9.94 9.94 0 0 0 6 3.72h.49a11.57 11.57 0 0 0 1.94-.19l.37-.05h.28a10.07 10.07 0 0 0 3.5-.56 2 2 0 0 0 1.12-1.2 2 2 0 0 0 .06-1.07h.32c2.41-.18 3.63-1.24 3.63-3.16a2.8 2.8 0 0 0-.09-.66 2 2 0 0 0 .58-.28 1.18 1.18 0 0 0 .19-.11 4.08 4.08 0 0 0 .33-.25 1.71 1.71 0 0 0 .25-.22 6.56 6.56 0 0 0 .7-.88 2.86 2.86 0 0 0 .22-.47 6 6 0 0 0 .41-3.4 11.63 11.63 0 0 0-10.31-8.51 2 2 0 0 0-1.35.39 4.38 4.38 0 0 0-2.55.19 2.22 2.22 0 0 0-.49.3 10.87 10.87 0 0 0-1.76.39 1.62 1.62 0 0 0-.41.17 11.23 11.23 0 0 0-4 3.86 2 2 0 0 0-.31 1 10.62 10.62 0 0 0-.84 1.53 2.06 2.06 0 0 0-.12.35c0 .18-.08.36-.11.55a1.9 1.9 0 0 0 0 .63l-.08.23a2.07 2.07 0 0 0-.15.55ZM640.43 405.52l-.79-.57a4 4 0 0 1-.45-.53 7.62 7.62 0 0 0-1.06-1.18 1.94 1.94 0 0 0-.33-.23 13.78 13.78 0 0 0-1.31-1.15c-.23-.17-.46-.36-.7-.56l-.7-.68-.77-.79-.52-.56c-.46-.52-.64-.76-.71-.85a2.09 2.09 0 0 0-.39-.56l-.08-.08-.16-.27-.09-.13a2 2 0 0 0-1.18-.89 2.28 2.28 0 0 0-1.94.41h-.06l-.42.26-.87.53-1.9 1.19c-.3.2-.6.38-.91.56l-.09.06-.68.41a8.2 8.2 0 0 0-1.39.93 2 2 0 0 0-.53.69c-.06.13-.12.26-.19.38a1.17 1.17 0 0 1 0 .11 2.62 2.62 0 0 0-1.84 1.06 1.81 1.81 0 0 0-.22.41h-.07c-.27.16-.53.32-.77.49l-.25.21-.14.13a2.18 2.18 0 0 0-.85.31l-.22.05a3.8 3.8 0 0 0-2.09 1.2h-.23a4.93 4.93 0 0 0-1.54.08c-1.25.28-3.34.74-4.13.44a1.94 1.94 0 0 0-.54-.13v-.16a1.07 1.07 0 0 0-.07-.19 1.67 1.67 0 0 0-.08-.3c0-.06 0-.12-.08-.19a2.07 2.07 0 0 0-.3-.79c0-.06 0-.13-.07-.2a2 2 0 0 0-1-1.21l-.21-.09a2.18 2.18 0 0 1-.51-.14 2.36 2.36 0 0 1-.25-2.2 1.65 1.65 0 0 0-.18-.32 2.15 2.15 0 0 0-.87-1.06 1.92 1.92 0 0 0-.51-.22 2 2 0 0 0-1.72-.46 2.29 2.29 0 0 0-.65.15 2.45 2.45 0 0 0-2 .43 2.27 2.27 0 0 0-.86 1.75 2 2 0 0 0 .14.8 1.7 1.7 0 0 0 0 .39.43.43 0 0 1 0 .05l-.14.19a2.56 2.56 0 0 0-.29 2.22 2.14 2.14 0 0 0 0 .94l.08.3a2.29 2.29 0 0 0 .31.65l.08.15a5.17 5.17 0 0 0 1.24 1.72l.31.33.09.09a1.55 1.55 0 0 0 0 .21c0 .1 0 .21.07.31a1.89 1.89 0 0 0 .13 1 2.87 2.87 0 0 0 .62.94 2.57 2.57 0 0 0 1.72 1.55l.15.06.19.07a2.06 2.06 0 0 0 .73.39 8.16 8.16 0 0 0 1.06.72 1.32 1.32 0 0 0 .19.29 2.43 2.43 0 0 0 .73.62 2.06 2.06 0 0 0 .78.68 10.31 10.31 0 0 0 5.76 1 6.45 6.45 0 0 0 3.67-1.7 6.23 6.23 0 0 0 1.31 0 3.74 3.74 0 0 0 2.66-1.2l.51-.48.4-.39a27.82 27.82 0 0 1 3.83-2.85c.4-.28.83-.53 1.26-.79l.82-.5.37-.22.19.26c.17.22.32.42.45.62l.44.58.16.2a2 2 0 0 0 1.75.78l1.26.8a2 2 0 0 0 1.57.25l.1.05a4.89 4.89 0 0 0 .69.79 2 2 0 0 0 .81.45 23.41 23.41 0 0 0 3.22 1.91 2 2 0 0 0 1 .63l.31.09.29.09a2 2 0 0 0 1.57.87 7.79 7.79 0 0 1 .86.1l.38.06a6 6 0 0 0 1.17.12 5.14 5.14 0 0 0 .88-.07 11.78 11.78 0 0 0 6.26-1.29 12.17 12.17 0 0 0 4.68-4.31 1.9 1.9 0 0 0 .28-.75 8.5 8.5 0 0 0 .34-.82l.13-.33a3.39 3.39 0 0 1 .24-.5 1.62 1.62 0 0 0 .1-.18 1.85 1.85 0 0 1 .25-.37 2.05 2.05 0 0 0 .43-.89l.1-.48a25.41 25.41 0 0 1 .48-4.08 4.64 4.64 0 0 1 .12-.76 3.39 3.39 0 0 0-1.31-3.11 2.12 2.12 0 0 0-2.19.27 3 3 0 0 0-1 1.11 2 2 0 0 0-.6.94 26.75 26.75 0 0 1-4 4.79 2.51 2.51 0 0 0-.31.35 3.78 3.78 0 0 1-2.31 1.33 5.51 5.51 0 0 1-1.59.18 9.71 9.71 0 0 1-1.54-.2 2.05 2.05 0 0 0-.92-.72 16.13 16.13 0 0 1-3.05-1.85ZM613.83 378a2 2 0 0 0-.24-1.67 1.66 1.66 0 0 1-.2-.4 5 5 0 0 0-.74-1.24 5.33 5.33 0 0 0-1.07-1.27 8.57 8.57 0 0 0-2.31-1.64 1.39 1.39 0 0 0-.26-.1l-.25-.09-1.2-.39h-.32a1.87 1.87 0 0 0-.81-.1h-.39a2 2 0 0 0-1.27-.2c-.22 0-.44 0-.66.06s-.57 0-.9.07a2.1 2.1 0 0 0-.75 0 2.12 2.12 0 0 0-.67-.05 3.76 3.76 0 0 0-1.3.41 1.82 1.82 0 0 0-.5.16 2.09 2.09 0 0 0-.73.58 11.9 11.9 0 0 0-2.94 2.39 9.41 9.41 0 0 0-2.5 6.21 10.28 10.28 0 0 0 2.09 6.55 2.9 2.9 0 0 0 1.27 1h.05l.09.1a1.59 1.59 0 0 0 .13.13 2.94 2.94 0 0 0 1.26.73 10.8 10.8 0 0 0 5.91 1.79 10.25 10.25 0 0 0 4.51-1 9.9 9.9 0 0 0 4-3.64 9.46 9.46 0 0 0 1.42-5.35 2 2 0 0 0-1.18-1.74v-.46a2 2 0 0 0 .46-.84Zm-11.29-5.83a2 2 0 0 0-.25-.33 1.43 1.43 0 0 1 .25.28ZM649.91 324.67l-5.13 3-.62 5.06 3.95.4 1.8-8.46z"/>
    </g>
</svg>
