<svg width="286" height="324" viewBox="0 0 286 324" fill="none" xmlns="http://www.w3.org/2000/svg">
<path d="M254.709 179.641C256.105 179.207 257.405 178.533 258.512 177.665C258.945 177.328 259.33 176.99 259.667 176.605C261.063 175.062 262.219 173.279 263.037 171.399C263.278 170.869 263.519 170.29 263.711 169.712C263.807 169.471 263.904 169.23 263.952 168.989C264 168.748 264.144 168.459 264.241 168.17C262.941 169.23 260.919 170.724 258.753 171.303C257.405 171.736 255.912 171.64 254.613 171.062C254.372 170.965 254.131 170.821 253.939 170.628C249.028 167.206 253.65 163.157 253.65 163.157C248.066 163.06 248.162 159.879 249.125 157.421L247.729 158.144C247.247 158.385 246.814 158.674 246.381 158.963L245.707 159.397L245.129 159.783C243.589 160.843 242.337 162.289 241.519 163.976C240.7 165.711 240.315 167.639 240.363 169.567C240.363 170.58 240.459 171.592 240.652 172.604C240.748 173.086 240.845 173.616 240.989 174.098C241.422 173.664 242.048 173.52 242.674 173.616C243.107 173.713 243.444 173.809 243.781 173.905C244.118 174.002 244.503 174.098 244.84 174.243C245.562 174.484 246.284 174.821 246.958 175.159C247.729 175.544 248.403 176.074 248.98 176.653C249.702 177.376 250.232 178.292 250.473 179.256C250.521 179.545 250.521 179.882 250.473 180.171C250.906 180.171 251.339 180.171 251.772 180.171C252.687 180.123 253.554 179.979 254.42 179.786L254.709 179.641Z" fill="#9B7256"/>
<path d="M245.081 178.484C244.6 178.195 244.118 178.002 243.589 177.81C243.348 177.713 243.155 177.665 242.915 177.569L242.481 178.002L246.092 180.364C246.236 180.075 246.381 179.786 246.525 179.545C246.477 179.448 246.381 179.352 246.284 179.256C245.899 178.966 245.514 178.725 245.081 178.484Z" fill="#414758"/>
<path d="M231.891 188.847C234.153 189.619 236.993 190.968 239.015 193.523C239.449 192.752 239.882 191.98 240.315 191.209C240.893 190.197 241.422 189.185 242 188.173C242.578 187.16 243.107 186.148 243.637 185.088C244.166 184.027 244.696 183.015 245.225 182.003C245.466 181.473 245.755 180.991 245.996 180.461L242.385 178.099C238.871 181.617 235.357 185.184 231.891 188.847Z" fill="#414758"/>
<path d="M253.698 163.157C253.698 163.157 249.077 167.206 253.987 170.628C254.228 170.772 254.42 170.917 254.661 171.062C255.961 171.64 257.453 171.736 258.801 171.303C260.967 170.724 262.989 169.23 264.289 168.17C264.385 167.929 264.433 167.688 264.53 167.447C264.626 167.206 264.674 166.965 264.77 166.675C264.915 166.145 265.059 165.663 265.155 165.133C266.118 160.699 266.648 156.216 266.744 151.685C266.792 150.528 266.792 149.372 266.792 148.263C265.733 149.275 264.626 150.143 263.422 150.962C262.219 151.733 260.919 152.456 259.619 153.035C258.705 153.469 257.742 153.854 256.827 154.24L255.142 154.915C253.602 155.541 252.061 156.12 250.617 156.794C250.136 157.035 249.654 157.228 249.173 157.469C248.21 159.879 248.066 163.06 253.698 163.157Z" fill="#90D35B"/>
<path d="M228.906 192.029C228.039 192.993 227.173 193.908 226.306 194.872C223.947 197.523 221.589 200.174 219.326 202.874C220.241 203.259 221.107 203.838 221.829 204.561C222.648 205.38 223.322 206.392 223.803 207.453C223.899 207.694 224.044 207.935 224.092 208.176C224.14 208.32 224.188 208.417 224.236 208.561C224.284 208.706 224.333 208.85 224.381 209.043C224.573 209.718 224.67 210.345 224.67 211.068C224.67 212.369 224.333 213.622 223.755 214.779C223.514 215.261 223.225 215.791 222.888 216.225L224.044 217.044C227.269 212.562 230.302 207.935 233.239 203.259C233.864 202.295 234.49 201.283 235.068 200.319L236.849 197.331C235.068 193.716 230.832 192.414 228.906 192.029Z" fill="#8B8FA2"/>
<path d="M221.877 217.382C220.53 218.78 219.037 219.936 217.352 220.9C215.812 221.816 214.223 222.636 212.586 223.31C209.409 224.612 206.088 225.672 202.766 226.492L201.514 226.781C199.877 229.335 198.337 231.986 196.893 234.637C196.46 235.408 196.026 236.18 195.641 236.999C195.449 238.638 195.208 240.47 194.823 242.542C195.208 242.542 195.593 242.638 195.93 242.831C196.508 243.217 196.989 243.506 197.519 243.892C198.048 244.277 198.53 244.615 199.011 245C199.396 245.289 199.733 245.627 200.07 245.916L200.311 245.675C200.744 245.241 201.081 244.807 201.514 244.422L203.873 241.867L206.232 239.313C207.002 238.445 207.724 237.578 208.495 236.71L210.757 234.059C211.479 233.191 212.298 232.324 212.972 231.408L217.304 225.961C219.615 222.973 221.829 219.985 223.996 216.9L222.888 216.08C222.551 216.562 222.214 216.996 221.877 217.382Z" fill="#8B8FA2"/>
<path d="M205.558 112.402C205.173 112.017 204.74 111.679 204.354 111.294C202.958 110.089 201.466 108.932 199.926 107.871C198.096 106.618 196.219 105.51 194.245 104.546C191.934 105.028 188.324 105.895 183.702 107.148L184.81 107.582C185.821 107.968 186.302 109.076 185.917 110.089C185.628 110.812 184.906 111.342 184.136 111.342C183.895 111.342 183.654 111.294 183.414 111.197L177.589 108.884C162.039 113.511 139.221 121.849 116.451 135.731C115.969 136.599 115.536 137.466 115.103 138.382C114.814 139.105 114.092 139.539 113.322 139.539C112.696 139.539 112.07 139.201 111.733 138.671C104.801 143.106 98.1576 147.974 91.8512 153.228C92.9103 153.372 93.6805 154.288 93.5361 155.348C93.4398 156.216 92.7659 156.891 91.8993 157.035C91.7068 157.084 89.6849 157.373 86.7484 157.614L86.0744 158.24C85.9781 160.024 85.9781 161.807 86.0744 163.591C87.2779 163.012 87.9519 162.627 88 162.578C88.9628 162.096 90.1182 162.434 90.5996 163.398C91.081 164.265 90.7921 165.374 89.9256 165.904C89.7812 166.001 88.5295 166.675 86.5077 167.639C86.8928 170.098 87.5186 172.556 88.4333 174.869C98.1576 165.615 140.376 129.32 210.902 118.331C209.313 116.21 207.532 114.234 205.558 112.402ZM142.591 134.237C127.764 135.779 117.125 147.251 117.028 147.347C116.306 148.118 115.103 148.167 114.284 147.444C113.466 146.721 113.466 145.516 114.188 144.696C114.67 144.166 125.934 132.068 142.206 130.381C143.265 130.284 144.228 131.056 144.324 132.116C144.42 133.225 143.65 134.189 142.591 134.237ZM187.746 118.572C171.523 118.572 164.35 126.043 164.254 126.139C163.532 126.91 162.328 126.959 161.51 126.236C160.74 125.513 160.691 124.308 161.414 123.488C161.751 123.151 169.838 114.716 187.698 114.716C188.757 114.716 189.624 115.583 189.624 116.644C189.624 117.704 188.805 118.572 187.746 118.572Z" fill="#E36359"/>
<path d="M197.47 243.892C196.941 243.506 196.46 243.217 195.882 242.831C195.545 242.639 195.16 242.542 194.775 242.542C194.534 243.747 194.293 245.048 194.004 246.446L194.486 247.073C194.823 247.507 195.16 247.94 195.497 248.374C195.834 248.808 196.074 249.146 196.363 249.531L199.011 246.928L200.022 245.964C199.685 245.627 199.3 245.338 198.963 245.049C198.481 244.615 198 244.229 197.47 243.892Z" fill="#8B8FA2"/>
<path d="M194.534 247.073L194.004 246.446C193.571 248.567 192.993 250.881 192.319 253.387C192.945 252.857 193.523 252.327 194.149 251.748L196.411 249.483C196.123 249.097 195.834 248.712 195.545 248.326C195.256 247.94 194.871 247.507 194.534 247.073Z" fill="#8B8FA2"/>
<path d="M193.523 245.868L193.427 245.723C192.753 244.904 192.849 243.699 193.667 243.024C194.004 242.783 194.39 242.59 194.823 242.59C195.208 240.518 195.449 238.686 195.641 237.047C192.993 242.156 190.635 247.41 188.565 252.809C188.468 253.724 189.094 254.592 189.961 254.833C190.105 254.881 190.298 254.881 190.442 254.881C190.538 254.881 190.635 254.881 190.731 254.881C191.26 254.399 191.79 253.965 192.32 253.483C192.993 250.929 193.571 248.615 194.004 246.494L193.523 245.868Z" fill="#8B8FA2"/>
<path d="M193.379 245.723L193.475 245.868L193.956 246.494C194.245 245.097 194.534 243.795 194.726 242.59C194.293 242.59 193.908 242.783 193.571 243.024C192.849 243.651 192.705 244.856 193.379 245.723Z" fill="#8B8FA2"/>
<path d="M189.961 254.785C189.046 254.544 188.468 253.676 188.565 252.76C187.987 254.206 187.457 255.701 186.928 257.195C186.783 257.677 186.639 258.111 186.495 258.544L186.543 258.496L186.735 258.352L187.024 258.111L187.65 257.532L188.95 256.375L190.731 254.785C190.635 254.785 190.538 254.785 190.442 254.785C190.298 254.833 190.105 254.833 189.961 254.785Z" fill="#8B8FA2"/>
<path d="M199.541 254.399L198 255.893C196.267 257.484 194.438 259.026 192.657 260.617L191.309 261.774L190.635 262.352L190.442 262.497C190.394 262.545 190.346 262.593 190.25 262.641C190.057 262.786 189.913 262.882 189.768 263.027C189.142 263.461 188.516 263.846 187.843 264.136C186.976 264.569 186.061 264.81 185.147 264.907C184.954 264.907 184.858 264.907 184.665 264.907C184.473 264.907 184.28 264.859 184.088 264.859C183.895 264.81 183.654 264.762 183.462 264.714C183.221 264.618 183.029 264.521 182.788 264.425C182.355 264.184 181.969 263.846 181.632 263.461C181.344 263.123 181.151 262.738 180.958 262.352C180.814 262.063 180.718 261.726 180.67 261.388C180.621 261.147 180.621 260.858 180.573 260.569C180.573 260.328 180.573 260.087 180.573 259.894C180.573 259.701 180.621 259.46 180.621 259.267C180.814 257.918 181.151 256.568 181.632 255.267C184.425 247.41 187.891 239.795 191.983 232.517C192.031 231.167 191.983 229.769 191.79 228.42C188.757 228.853 185.724 229.143 182.74 229.335C181.681 229.432 180.766 228.661 180.67 227.6C180.573 226.588 181.295 225.672 182.306 225.528L183.365 225.335C188.42 224.467 193.475 223.455 198.385 222.202C199.396 221.961 200.407 221.672 201.37 221.382L202.092 221.19C203.44 220.804 204.74 220.37 206.039 219.888C207.484 219.358 208.928 218.78 210.324 218.201C211.72 217.575 213.068 216.852 214.368 216.08C215.571 215.357 216.678 214.49 217.641 213.478C218.026 213.092 218.363 212.61 218.604 212.128C218.797 211.791 218.893 211.405 218.893 211.068C218.893 210.923 218.845 210.778 218.845 210.634L218.797 210.537L218.7 210.345C218.652 210.2 218.604 210.055 218.508 209.911C218.315 209.477 218.026 209.043 217.737 208.658C217.449 208.368 217.16 208.176 216.775 208.031C216.293 207.886 215.764 207.79 215.234 207.79H215.186C214.079 207.79 213.02 207.886 211.961 208.031C211.576 208.079 211.239 208.127 210.853 208.224C210.083 208.368 209.265 208.513 208.446 208.658C206.039 209.091 203.488 209.573 200.937 209.814C197.471 210.2 194.004 210.2 190.586 209.718C190.394 209.67 190.153 209.622 190.009 209.525V209.573C189.479 209.381 189.094 208.947 188.95 208.417C188.179 206.199 186.976 203.356 185.724 200.56C185.532 200.367 185.387 200.078 185.291 199.837C185.243 199.692 185.243 199.596 185.195 199.451C183.221 195.017 181.295 191.161 181.247 191.113C181.199 190.775 181.055 190.486 180.91 190.197C180.621 189.281 180.958 188.269 181.729 187.739C185.772 185.088 189.816 182.581 193.716 179.882C193.86 179.786 193.956 179.689 194.101 179.593C194.967 179.015 195.786 178.436 196.604 177.81C197.567 177.135 198.53 176.412 199.444 175.689C201.274 174.243 203.055 172.7 204.74 171.11L205.943 169.905L206.569 169.278L207.147 168.652L208.302 167.398L209.409 166.097L209.939 165.422L210.468 164.747L211.479 163.35L212.442 161.904L212.923 161.181L213.357 160.458L214.223 158.963L214.993 157.469L215.379 156.698C215.523 156.457 215.619 156.168 215.716 155.927L216.39 154.384C216.582 153.854 216.775 153.324 216.967 152.794L217.256 152.023C217.352 151.782 217.4 151.492 217.497 151.203L217.978 149.564C218.123 149.034 218.219 148.456 218.363 147.926L218.556 147.106C218.604 146.817 218.652 146.576 218.7 146.287L218.941 144.6C218.989 144.07 218.989 143.491 219.037 142.913L219.085 142.093C219.085 141.804 219.085 141.515 219.085 141.274V139.587C219.037 139.009 218.989 138.478 218.941 137.9C218.845 136.791 218.652 135.635 218.411 134.526L218.219 133.658L218.026 132.839C217.882 132.309 217.737 131.73 217.593 131.2C217.449 130.67 217.256 130.092 217.112 129.561L216.823 128.742L216.678 128.405C216.63 128.308 216.582 128.164 216.534 128.019C216.293 127.489 216.101 127.007 215.86 126.477C215.619 125.946 215.379 125.464 215.09 124.934C214.801 124.404 214.56 123.922 214.271 123.44C213.983 122.958 213.694 122.428 213.405 121.946C212.683 120.741 211.864 119.584 210.998 118.427C140.376 129.369 98.2057 165.711 88.4814 174.918C89.011 176.315 89.6849 177.665 90.4552 178.966C91.755 181.184 93.2954 183.256 95.0285 185.136C95.2692 185.377 95.4618 185.618 95.7025 185.859C95.9432 186.1 96.1838 186.293 96.3764 186.534C96.8097 187.016 97.2911 187.401 97.7725 187.835C98.2539 188.269 98.7353 188.655 99.2648 189.04L100.035 189.619L100.853 190.197C103.02 191.739 105.33 193.041 107.737 194.198C110.193 195.354 112.696 196.318 115.295 197.041C120.591 198.536 126.079 199.403 131.615 199.548C137.199 199.789 142.832 199.259 148.464 198.584C149.619 198.439 150.678 199.307 150.823 200.464C150.919 201.524 150.293 202.488 149.282 202.729C143.506 204.175 137.632 205.043 131.663 205.235C131.278 205.235 130.941 205.235 130.556 205.284L130.46 205.621C130.267 206.248 130.123 206.826 129.882 207.404C129.641 207.983 129.449 208.561 129.256 209.14C129.064 209.718 128.775 210.296 128.534 210.827C128.293 211.357 128.053 211.935 127.764 212.514C127.475 213.092 127.234 213.622 126.945 214.152L126.127 215.791L125.26 217.382C124.683 218.442 124.057 219.454 123.431 220.515C122.805 221.575 122.131 222.539 121.506 223.6L119.484 226.588L117.365 229.528L113.081 235.168C111.733 236.999 110.53 238.879 109.374 240.807C108.267 242.735 107.256 244.759 106.39 246.784C106.197 247.314 105.956 247.796 105.764 248.326L105.186 249.868C104.897 250.929 104.512 251.941 104.32 253.05C103.79 255.17 103.501 257.291 103.453 259.46C103.405 261.581 103.549 263.702 103.983 265.726C104.897 269.871 106.871 273.679 109.711 276.86C112.696 280.138 116.162 282.934 120.013 285.103C124.009 287.368 128.197 289.296 132.481 290.887C133.492 291.224 134.022 292.333 133.685 293.345C133.348 294.309 132.289 294.887 131.326 294.598C129.112 294.02 126.897 293.393 124.683 292.574C124.683 292.815 124.731 293.056 124.731 293.297C124.827 293.971 125.02 294.598 125.309 295.225C125.886 296.478 126.753 297.586 127.908 298.406C129.16 299.273 130.556 299.996 132 300.575C133.541 301.201 135.129 301.828 136.766 302.406C139.991 303.563 143.265 304.575 146.538 305.443C149.812 306.359 153.134 307.082 156.455 307.612C158.092 307.901 159.777 308.046 161.365 308.19L162.569 308.239C162.762 308.239 162.954 308.239 163.147 308.239H163.676C164.35 308.19 165.024 308.094 165.65 307.949C166.179 307.805 166.709 307.564 167.19 307.275C167.527 307.082 167.816 306.744 167.961 306.407C168.105 306.07 168.201 305.732 168.153 305.395C168.105 304.913 167.913 304.479 167.672 304.045C167.383 303.563 167.046 303.129 166.613 302.744C166.372 302.551 166.131 302.31 165.842 302.165C165.698 302.069 165.602 301.973 165.409 301.876L164.928 301.587C163.532 300.768 162.039 300.045 160.547 299.418C157.466 298.117 154.241 297.008 151.015 295.996C150.101 295.851 149.427 295.08 149.427 294.116C149.427 294.02 149.427 293.923 149.427 293.827C149.523 293.297 149.812 292.863 150.245 292.574L150.534 292.381L151.497 291.754C153.519 290.405 155.492 289.055 157.322 287.609C158.381 286.741 159.44 285.922 160.355 285.006C161.317 284.139 162.184 283.175 163.05 282.211C164.639 280.379 165.842 278.258 166.613 275.945C167.287 273.776 167.383 271.414 166.902 269.197C166.372 266.787 165.409 264.473 164.061 262.352C162.665 260.087 161.077 257.966 159.295 255.99C157.466 253.965 155.541 251.989 153.47 250.158C152.46 249.194 151.4 248.326 150.341 247.41C149.282 246.494 148.175 245.627 147.116 244.808L147.068 244.759C146.201 244.133 145.961 242.928 146.586 242.06C147.164 241.241 148.223 241 149.09 241.482C150.486 242.157 151.737 242.879 153.037 243.651C154.337 244.422 155.541 245.241 156.744 246.061C157.948 246.88 159.151 247.844 160.306 248.76C161.462 249.676 162.569 250.688 163.676 251.748C165.891 253.869 167.913 256.231 169.646 258.785C171.475 261.485 172.775 264.521 173.545 267.702C174.315 271.076 174.123 274.643 173.015 277.921C171.908 281.054 170.127 283.946 167.768 286.308C166.95 287.127 166.131 287.898 165.217 288.621C166.95 287.995 168.635 287.223 170.223 286.356C177.589 282.307 180.958 277.68 181.007 277.632C181.536 276.716 182.692 275.8 183.606 276.33C184.521 276.86 184.81 278.065 184.232 278.981C184.039 279.319 181.825 284.331 175.519 288.477C178.888 290.356 182.403 292.043 185.965 293.489C187.024 293.923 188.131 294.309 189.19 294.646C189.72 294.791 190.249 294.984 190.827 295.128C191.405 295.273 191.886 295.417 192.512 295.514C194.775 296.044 197.037 296.478 199.3 296.815C200.359 296.96 201.418 297.008 202.429 297.008C203.247 297.008 204.066 296.863 204.836 296.574C205.269 296.43 205.606 296.092 205.751 295.658L205.847 295.466C205.847 295.369 205.895 295.321 205.895 295.225C205.895 295.08 205.943 294.887 205.991 294.743C206.039 294.453 206.039 294.164 205.991 293.875C205.943 293.538 205.799 293.2 205.654 292.911C205.462 292.525 205.269 292.188 204.98 291.899C204.355 291.128 203.681 290.453 202.91 289.826C202.044 289.151 201.177 288.525 200.263 287.946C199.781 287.657 199.3 287.368 198.818 287.079L197.663 286.404C197.278 286.693 196.845 286.982 196.46 287.272C195.449 287.898 194.39 288.573 193.379 289.2C192.368 289.826 191.26 290.308 190.153 290.887C189.239 291.417 188.035 291.079 187.554 290.115C187.072 289.248 187.313 288.187 188.131 287.609L188.179 287.561C191.742 284.765 195.208 281.873 197.856 278.547L198.818 277.294C199.155 276.909 199.396 276.427 199.685 275.993L200.118 275.366C200.263 275.173 200.359 274.932 200.503 274.691C200.744 274.258 200.985 273.824 201.225 273.342C202.092 271.607 202.67 269.727 202.958 267.799C203.488 264.039 202.573 260.087 200.792 256.327C200.311 255.845 199.926 255.122 199.541 254.399ZM175.374 159.638C175.326 161.181 174.941 162.675 174.267 164.024C173.882 164.796 173.352 165.47 172.775 166.049C172.149 166.627 171.427 167.157 170.608 167.495C169.886 167.832 169.068 168.025 168.298 168.17C167.479 168.266 166.709 168.266 165.891 168.17C164.158 167.977 162.569 167.206 161.317 165.952C160.692 165.278 160.21 164.555 159.873 163.687C159.777 163.494 159.729 163.301 159.681 163.06C159.632 162.868 159.536 162.627 159.536 162.53L159.344 161.759C159.055 160.747 158.718 159.686 158.333 158.626C156.985 154.77 155.396 150.914 153.807 147.058C153.471 147.203 153.182 147.299 152.845 147.395C151.834 147.685 150.823 147.829 149.764 147.829C148.753 147.829 147.742 147.685 146.779 147.395C145.864 147.154 144.95 146.817 144.083 146.383C143.65 146.142 143.265 145.949 142.88 145.66C142.687 145.516 142.495 145.419 142.302 145.275C142.109 145.13 141.917 144.985 141.676 144.793C140.954 144.214 140.81 143.106 141.387 142.383C141.869 141.756 142.735 141.563 143.457 141.901L143.698 141.997L144.131 142.19L144.613 142.431C144.95 142.575 145.287 142.72 145.624 142.816C146.298 143.057 146.972 143.202 147.694 143.347C148.993 143.588 150.293 143.491 151.545 143.154C152.171 142.961 152.748 142.72 153.278 142.383C153.856 142.045 154.385 141.611 154.867 141.178C155.974 140.165 156.985 139.057 157.899 137.9C158.381 137.273 159.103 136.599 160.884 137.032C161.173 137.081 161.462 137.129 161.751 137.177C162.328 137.225 162.906 137.273 163.484 137.273C164.543 137.273 165.602 137.032 166.565 136.599C167.046 136.406 167.479 136.117 167.816 135.779C168.009 135.586 168.201 135.442 168.394 135.249C168.586 135.056 168.779 134.863 168.923 134.622C169.646 133.658 170.271 132.598 170.801 131.441V131.393C171.186 130.525 172.245 130.188 173.064 130.574C173.737 130.911 174.123 131.586 174.026 132.357C173.786 133.996 173.256 135.538 172.39 136.936C171.764 137.996 170.945 138.96 169.934 139.732C170.753 141.563 171.475 143.443 172.197 145.323C173.064 147.54 173.786 149.805 174.363 152.119C174.652 153.324 174.893 154.529 175.037 155.782C175.134 156.409 175.182 157.035 175.182 157.662C175.182 157.951 175.23 158.289 175.23 158.578C175.23 158.867 175.374 159.253 175.374 159.638Z" fill="white"/>
<path d="M202.429 184.22C201.177 184.124 199.877 184.027 198.626 183.979C194.438 186.727 190.009 189.04 185.339 190.824C185.965 192.173 186.976 194.294 188.083 196.656C192.031 195.017 196.171 193.908 200.359 193.426C201.562 193.282 202.814 193.137 204.066 193.089C204.691 193.041 205.317 193.041 205.943 193.041C206.569 193.041 207.098 193.041 207.58 192.993C208.494 192.944 209.457 192.8 210.324 192.511C210.661 192.414 210.998 192.27 211.335 192.077C211.575 191.932 211.768 191.739 211.961 191.547C212.298 191.065 212.538 190.438 212.538 189.811V189.474C212.538 189.378 212.538 189.233 212.538 189.137C212.538 188.992 212.538 188.799 212.538 188.655C212.49 188.317 212.442 188.028 212.298 187.739C212.009 187.112 211.575 186.582 210.998 186.196C210.276 185.714 209.505 185.329 208.687 185.088C207.724 184.799 206.761 184.606 205.75 184.509C205.221 184.461 204.74 184.413 204.162 184.365L202.429 184.22Z" fill="white"/>
<path d="M111.54 136.888C112.744 134.14 114.333 131.538 116.306 129.224C117.028 128.405 118.232 128.356 119.05 129.079C119.869 129.802 119.917 131.007 119.195 131.827C118.136 133.08 117.221 134.381 116.451 135.779C139.221 121.898 162.088 113.559 177.589 108.932L176.241 108.402C175.23 108.016 174.748 106.907 175.133 105.895C175.519 104.883 176.626 104.401 177.637 104.787L183.702 107.197C188.324 105.943 191.934 105.124 194.245 104.594C193.716 104.305 193.138 104.064 192.56 103.774C187.168 101.846 181.536 100.497 175.856 99.7257C175.182 99.6293 174.508 99.5329 173.834 99.4847C172.871 102.136 169.357 107.197 156.503 109.607C142.735 112.161 134.214 107.63 131.037 105.365C129.112 106.184 127.186 107.1 125.309 108.112C124.923 108.305 124.49 108.402 124.057 108.353C123.335 108.498 122.565 108.209 122.131 107.582L122.083 107.534C121.457 106.666 120.687 105.702 119.965 104.787C119.243 103.871 118.473 102.955 117.654 102.087C116.114 100.304 114.477 98.5207 112.84 96.7855L110.289 94.1827C109.47 93.3151 108.556 92.4957 107.689 91.6763C106.004 89.9893 104.223 88.3987 102.442 86.7599C95.3173 80.3493 87.8074 74.3243 80.0088 68.7331C78.0832 67.3353 76.1094 65.8893 74.1357 64.5879L68.1663 60.5391C64.0744 57.9845 60.0788 55.3335 55.9387 52.9235L52.8578 51.0919L51.3173 50.1761L50.5471 49.6941C50.3545 49.5977 50.1138 49.4531 49.9212 49.3567C47.9956 48.3927 45.9737 47.6697 43.8556 47.2359C41.8337 46.8021 39.7637 46.7057 37.7418 47.0431C35.8162 47.3323 34.035 48.1035 32.4945 49.3085C31.7243 49.9351 31.0022 50.6099 30.3282 51.3329C29.7024 52.0559 29.1247 52.8753 28.6915 53.7429C27.8731 55.2853 27.5843 57.1169 27.9212 58.8521C28.5471 62.3707 31.5317 65.9857 34.9978 68.2993C35.4311 68.5885 35.8643 68.8295 36.2976 69.1187L37.8862 69.9863L41.1116 71.7215C43.2298 72.8783 45.3961 74.0833 47.4661 75.2883C51.7024 77.6983 55.8906 80.1565 60.0788 82.7111C64.2188 85.2657 68.3589 87.8203 72.4508 90.5195C74.4727 91.8691 76.5427 93.2187 78.5164 94.6165L81.5492 96.6891L84.5339 98.8099C85.5449 99.5329 86.5077 100.208 87.5186 100.931L90.4551 103.148C92.4289 104.594 94.3545 106.136 96.2801 107.63L97.7243 108.787L99.1204 109.992L101.961 112.354C102.923 113.125 103.79 113.993 104.705 114.812L107.4 117.319C108.171 118.042 108.219 119.247 107.497 120.066C107.256 120.355 106.919 120.548 106.582 120.644C102.249 124.115 98.4945 128.212 95.4617 132.839C93.8731 135.153 92.477 137.611 91.2735 140.117C90.07 142.624 89.0591 145.226 88.2407 147.877C87.6149 149.854 87.1335 151.878 86.7484 153.951C89.5405 153.71 91.3698 153.469 91.4179 153.42C91.5624 153.42 91.7549 153.42 91.8993 153.42C98.2057 148.167 104.849 143.298 111.781 138.864C111.348 138.141 111.3 137.466 111.54 136.888ZM70.9584 83.1931C62.4858 77.8429 68.3589 72.4927 68.3589 72.4927C68.3589 72.4927 71.8731 67.5281 80.7309 73.4085C89.5886 79.2889 118.713 108.835 118.713 108.835L110.963 113.993C105.282 107.341 79.4792 88.5433 70.9584 83.1931Z" fill="white"/>
<path d="M170.223 156.361C170.127 155.3 169.934 154.24 169.742 153.228C169.309 151.107 168.683 148.938 168.057 146.769C167.527 144.985 166.998 143.25 166.42 141.467L166.035 141.563C165.169 141.708 164.302 141.804 163.387 141.756C162.521 141.708 161.702 141.563 160.884 141.37C160.643 141.322 160.451 141.226 160.21 141.178C159.584 142.334 158.814 143.347 157.948 144.311C157.707 144.6 157.418 144.841 157.129 145.082C159.247 148.938 161.173 152.938 162.81 157.035C163.243 158.144 163.676 159.253 164.013 160.458L164.254 161.373C164.302 161.566 164.302 161.614 164.35 161.663C164.35 161.711 164.398 161.807 164.446 161.855C164.543 162.096 164.687 162.289 164.88 162.482C165.313 162.868 165.843 163.109 166.42 163.157C166.757 163.205 167.094 163.205 167.479 163.157C167.816 163.109 168.153 163.012 168.442 162.868C168.683 162.771 168.923 162.578 169.164 162.386C169.405 162.193 169.549 161.952 169.694 161.663C170.031 160.988 170.223 160.217 170.271 159.445C170.271 159.253 170.271 158.963 170.271 158.722C170.271 158.481 170.271 158.192 170.271 157.951C170.32 157.421 170.271 156.891 170.223 156.361Z" fill="white"/>
<path d="M153.326 95.8697C153.47 96.1107 153.615 96.3999 153.759 96.6409L162.425 95.9179C162.425 95.9179 162.328 95.6769 162.184 95.2913C160.884 95.3395 159.632 95.3877 158.333 95.4359C156.696 95.5323 155.011 95.6769 153.326 95.8697Z" fill="#F7C1C7"/>
<path d="M158.333 95.4359C159.584 95.3395 160.884 95.2913 162.184 95.2913C160.403 90.7605 149.09 62.9009 132.193 45.1634C132.193 45.1634 125.934 37.2104 118.569 42.416C111.203 47.6216 120.783 55.5263 120.783 55.5263C120.783 55.5263 146.538 83.8197 153.374 95.9179C155.011 95.6769 156.696 95.5323 158.333 95.4359Z" fill="#F7C1C7"/>
<path d="M80.7789 73.4085C71.9212 67.4799 68.4069 72.4445 68.4069 72.4445C68.4069 72.4445 62.4857 77.7947 71.0065 83.1449C79.4791 88.4951 105.282 107.341 111.011 113.993L118.761 108.835C118.713 108.835 89.5885 79.2889 80.7789 73.4085Z" fill="#F7C1C7"/>
<path d="M80.9234 173.327C80.7309 172.267 80.5383 171.158 80.3939 170.098C76.6871 171.351 72.884 172.17 68.9847 172.604H68.7921C67.733 172.652 66.8184 171.833 66.7702 170.772C66.7221 169.712 67.5405 168.796 68.5996 168.748C72.4989 168.314 76.3501 167.447 80.0569 166.097C80.0088 165.615 80.0088 165.085 80.0088 164.603C73.558 162.723 55.9869 159.879 38.5602 176.026C38.5602 176.026 53.291 183.786 74.5208 176.556C74.5208 176.556 56.9978 192.077 71.7287 216.225C71.7287 216.225 83.86 206.199 84.8709 184.365C84.4858 183.69 84.1488 183.015 83.86 182.34C82.512 179.448 81.5492 176.412 80.9234 173.327Z" fill="#E36359"/>
<path d="M187.746 114.716C169.838 114.716 161.799 123.151 161.462 123.488C160.74 124.259 160.788 125.513 161.558 126.236C162.328 126.959 163.58 126.91 164.302 126.139C164.35 126.043 171.523 118.572 187.794 118.572C188.853 118.572 189.72 117.704 189.72 116.644C189.72 115.583 188.805 114.716 187.746 114.716Z" fill="black"/>
<path d="M175.133 105.847C174.748 106.859 175.23 107.968 176.241 108.353L177.589 108.884L183.414 111.197C183.654 111.294 183.895 111.342 184.136 111.342C185.195 111.342 186.061 110.474 186.061 109.414C186.061 108.594 185.58 107.92 184.81 107.63L183.702 107.197L177.637 104.787C176.626 104.353 175.519 104.835 175.133 105.847Z" fill="black"/>
<path d="M175.326 157.71C175.278 157.084 175.23 156.457 175.182 155.83C175.037 154.577 174.796 153.372 174.508 152.167C173.93 149.854 173.208 147.588 172.341 145.371C171.619 143.491 170.897 141.611 170.079 139.78C171.042 139.009 171.86 138.093 172.534 136.984C173.352 135.586 173.93 133.996 174.171 132.405C174.315 131.489 173.641 130.622 172.726 130.477C172.004 130.381 171.282 130.766 170.945 131.441V131.489C170.416 132.598 169.79 133.658 169.02 134.671C168.827 134.912 168.635 135.104 168.49 135.297C168.298 135.49 168.105 135.683 167.912 135.827C167.527 136.165 167.094 136.454 166.661 136.647C165.698 137.081 164.639 137.322 163.58 137.322C163.002 137.322 162.425 137.273 161.847 137.225C161.558 137.177 161.269 137.129 160.98 137.081C159.199 136.647 158.477 137.322 157.996 137.948C157.081 139.105 156.022 140.214 154.963 141.226C154.481 141.708 153.952 142.093 153.374 142.431C152.845 142.768 152.267 143.057 151.641 143.202C150.389 143.588 149.09 143.636 147.79 143.395C147.116 143.25 146.394 143.106 145.72 142.865C145.383 142.768 145.046 142.624 144.709 142.479L144.228 142.238L143.794 142.045L143.554 141.949C142.687 141.563 141.676 141.901 141.291 142.768C140.954 143.491 141.147 144.359 141.772 144.841C142.013 145.034 142.206 145.178 142.398 145.323C142.591 145.467 142.783 145.612 142.976 145.708C143.361 145.949 143.794 146.19 144.179 146.431C145.046 146.865 145.961 147.203 146.875 147.444C147.838 147.685 148.849 147.829 149.86 147.877C150.919 147.877 151.93 147.733 152.941 147.444C153.278 147.347 153.567 147.251 153.904 147.106C155.492 150.962 157.081 154.818 158.429 158.674C158.814 159.735 159.151 160.795 159.44 161.807L159.632 162.578C159.632 162.675 159.729 162.916 159.777 163.109C159.825 163.301 159.921 163.494 159.969 163.735C160.306 164.555 160.788 165.326 161.414 166.001C162.617 167.254 164.254 168.025 165.987 168.266C166.805 168.362 167.575 168.362 168.394 168.266C169.212 168.17 169.982 167.929 170.705 167.591C171.523 167.254 172.245 166.724 172.871 166.145C173.497 165.567 173.978 164.892 174.363 164.121C175.085 162.771 175.422 161.229 175.47 159.735C175.47 159.349 175.47 159.06 175.47 158.722C175.47 158.385 175.326 158.048 175.326 157.71ZM170.319 159.445C170.271 160.217 170.079 160.988 169.742 161.663C169.597 161.952 169.405 162.193 169.212 162.386C169.02 162.578 168.779 162.723 168.49 162.868C168.201 163.012 167.864 163.06 167.527 163.157C167.19 163.205 166.853 163.205 166.468 163.157C165.891 163.109 165.361 162.868 164.928 162.482C164.735 162.289 164.591 162.096 164.495 161.855C164.446 161.807 164.446 161.711 164.398 161.663C164.398 161.566 164.35 161.566 164.302 161.373L164.061 160.458C163.676 159.253 163.291 158.144 162.858 157.035C161.221 152.938 159.295 148.938 157.177 145.082C157.466 144.841 157.707 144.552 157.996 144.311C158.862 143.395 159.632 142.334 160.258 141.178C160.499 141.274 160.691 141.322 160.932 141.37C161.751 141.563 162.569 141.708 163.435 141.756C164.302 141.804 165.217 141.756 166.083 141.563L166.468 141.467C166.998 143.25 167.575 145.034 168.105 146.769C168.779 148.938 169.357 151.107 169.79 153.228C169.983 154.288 170.175 155.3 170.271 156.361C170.319 156.891 170.368 157.373 170.368 157.903C170.368 158.144 170.368 158.433 170.368 158.674C170.368 158.915 170.319 159.301 170.319 159.445Z" fill="black"/>
<path d="M142.206 130.429C125.934 132.164 114.67 144.262 114.188 144.744C113.466 145.516 113.514 146.769 114.284 147.492C115.055 148.215 116.306 148.167 117.028 147.395C117.125 147.299 127.764 135.827 142.591 134.285C143.65 134.189 144.42 133.225 144.324 132.164C144.228 131.056 143.265 130.284 142.206 130.429Z" fill="black"/>
<path d="M119.05 129.079C118.28 128.356 117.028 128.453 116.354 129.224C114.429 131.538 112.792 134.092 111.589 136.888C111.155 137.852 111.589 139.009 112.599 139.442C112.84 139.539 113.081 139.587 113.37 139.587C114.14 139.587 114.814 139.153 115.151 138.43C115.536 137.514 115.969 136.647 116.499 135.779C117.317 134.381 118.232 133.032 119.243 131.827C119.869 131.007 119.821 129.754 119.05 129.079Z" fill="black"/>
<path d="M273.435 141.081L273.387 139.25V139.057C273.387 138.527 273.339 137.996 273.291 137.37V137.322C273.05 135.345 271.317 133.948 269.344 134.189C268.092 134.333 266.985 135.153 266.455 136.358L265.877 137.755L265.829 137.9L265.589 138.478C265.492 138.719 265.348 138.912 265.252 139.153L264.578 140.455L263.807 141.66C260.63 147.54 250.665 150.625 248.21 151.926C247.681 152.215 247.151 152.505 246.621 152.794L245.081 153.71C244.551 154.047 244.07 154.384 243.589 154.722L242.818 155.252L242.048 155.83C241.037 156.65 240.074 157.614 239.256 158.674C238.438 159.735 237.764 160.891 237.234 162.145C236.271 164.555 235.838 167.206 236.079 169.808C236.175 171.062 236.368 172.315 236.705 173.52C236.849 174.098 237.042 174.725 237.234 175.303C237.33 175.592 237.427 175.882 237.571 176.171C237.667 176.46 237.812 176.701 237.956 177.038C234.105 180.75 230.254 184.509 226.499 188.365C225.344 189.522 224.236 190.727 223.129 191.884C220 195.258 216.871 198.68 213.886 202.199C212.538 202.343 211.19 202.536 209.842 202.825C208.158 203.163 206.569 203.597 204.98 203.934C203.392 204.271 201.851 204.657 200.263 204.946C197.567 205.476 194.775 205.766 192.031 205.862C191.405 204.223 190.635 202.392 189.816 200.512C193.427 199.548 197.182 198.921 200.888 198.68C201.996 198.632 203.151 198.584 204.258 198.584H205.943C206.521 198.584 207.147 198.584 207.821 198.584C208.495 198.584 209.217 198.487 209.891 198.439C210.613 198.343 211.335 198.198 212.057 197.957C212.827 197.716 213.597 197.379 214.271 196.993C215.042 196.511 215.764 195.933 216.341 195.258C216.919 194.535 217.4 193.716 217.689 192.848C217.978 192.077 218.123 191.257 218.219 190.438C218.219 190.245 218.267 190.052 218.267 189.86C218.267 189.667 218.267 189.522 218.267 189.281C218.267 188.847 218.267 188.414 218.171 187.98C218.074 187.112 217.834 186.293 217.497 185.473C216.823 183.931 215.716 182.581 214.319 181.617C213.116 180.75 211.72 180.123 210.276 179.689C208.976 179.304 207.628 179.111 206.28 178.966C205.991 178.966 205.654 178.918 205.365 178.918C206.617 177.858 207.869 176.797 209.072 175.641C212.875 172.122 216.149 168.073 218.797 163.591L219.759 161.904C220.048 161.325 220.337 160.747 220.626 160.168C221.252 159.012 221.685 157.758 222.214 156.553C222.455 155.927 222.648 155.3 222.84 154.674L223.177 153.758C223.274 153.469 223.37 153.131 223.418 152.794L223.948 150.866C224.092 150.239 224.188 149.564 224.333 148.938L224.525 147.974C224.573 147.636 224.621 147.299 224.67 147.01L224.91 145.034C224.958 144.359 224.958 143.684 225.007 143.057L225.055 142.045C225.055 141.708 225.055 141.37 225.007 141.033L224.91 139.057C224.862 138.382 224.766 137.755 224.67 137.081C224.525 135.779 224.284 134.478 223.948 133.225L223.755 132.309L223.514 131.345C223.37 130.718 223.177 130.092 222.985 129.465C222.792 128.838 222.6 128.212 222.359 127.585L222.022 126.669L221.829 126.187C221.781 125.995 221.685 125.898 221.637 125.705C221.348 125.127 221.059 124.5 220.77 123.922C220.481 123.344 220.193 122.765 219.856 122.235C219.23 121.126 218.508 120.018 217.786 118.957C215.571 115.728 212.972 112.788 210.035 110.233C213.068 107.148 216.63 104.642 220.578 102.907C221.54 102.473 221.974 101.364 221.589 100.352C221.155 99.3883 220.048 98.9545 219.037 99.3401C214.512 101.316 210.468 104.16 207.098 107.727C206.039 106.907 204.932 106.088 203.825 105.365C205.028 103.341 207.628 99.5329 212.731 94.5201C213.501 93.7971 213.549 92.5921 212.827 91.7727C212.105 91.0015 210.902 90.9533 210.083 91.6763L210.035 91.7245C204.788 96.9301 201.947 100.979 200.6 103.292C198.53 102.087 196.411 101.027 194.245 100.063H194.197L194.053 100.015C188.324 98.0869 182.403 96.7373 176.433 96.0143C174.123 95.7251 171.764 95.5323 169.405 95.3877C168.779 93.4115 165.457 83.1449 157.947 69.2633C150.39 55.2371 137.055 34.7522 116.403 16.7254L116.306 16.6772C110.289 12.05 96.5689 5.6876 87.5667 14.7974C83.9562 18.4606 82.2232 22.5576 82.4639 26.9438C82.849 34.8968 89.396 41.0182 91.4179 42.7052C91.8031 43.0426 92.4289 43.5246 93.1991 44.1511C115.44 62.2743 132.77 80.1565 144.805 97.2675C143.409 97.5567 142.013 97.8941 140.665 98.2797C135.129 99.7739 129.737 101.702 124.49 103.919C124.105 103.341 123.672 102.81 123.287 102.232C122.516 101.268 121.794 100.256 121.024 99.2919C119.484 97.3639 117.895 95.4841 116.258 93.6525L113.803 90.8569C112.985 89.9411 112.118 89.0735 111.252 88.2059C109.567 86.4225 107.786 84.7355 106.053 83.0003C98.9759 76.2041 91.4661 69.8899 83.5711 64.0577C81.5974 62.5635 79.6718 61.0693 77.6499 59.7197C75.628 58.3219 73.6543 56.8759 71.6324 55.5263C67.4923 52.8753 63.4486 50.1279 59.2604 47.6215L56.1313 45.7417L54.5908 44.7778L53.8206 44.2958C53.4836 44.103 53.1947 43.9102 52.8578 43.7656C50.4508 42.5606 47.8993 41.6448 45.2516 41.0664C42.5076 40.488 39.6674 40.3434 36.9234 40.7772C34.035 41.2592 31.291 42.416 28.9322 44.1511C27.7768 45.0187 26.7177 46.031 25.803 47.1395C24.8402 48.2481 24.0219 49.4531 23.3479 50.7545C22.6258 52.1523 22.1444 53.5983 21.9518 55.1407C21.7111 56.6831 21.7593 58.2737 22.0481 59.7679C22.6258 62.6599 23.9256 65.3109 25.7549 67.6245C27.4398 69.7935 29.5098 71.6733 31.8206 73.2157C32.3982 73.6013 33.0241 73.9869 33.6499 74.2761L35.2866 75.1437L38.4639 76.8307C40.582 77.9875 42.7002 79.1443 44.8184 80.3011C49.0547 82.6147 53.2429 85.0247 57.3829 87.4829C61.5711 89.8929 65.663 92.3993 69.7549 94.9539C71.7768 96.2071 73.8468 97.5085 75.8687 98.8099L78.9015 100.786L81.8862 102.81L84.8709 104.835L87.8556 106.907C89.8293 108.257 91.7549 109.703 93.7287 111.101L95.1729 112.161L96.6171 113.27L99.4573 115.487C100.42 116.21 101.335 116.981 102.249 117.752L103.02 118.379C99.1685 122.09 95.6061 126.091 92.3807 130.333C90.5995 132.743 88.9628 135.249 87.5667 137.9C86.1225 140.551 84.8228 143.25 83.7637 146.094C82.8009 148.697 81.9825 151.396 81.3567 154.095C77.5055 154.192 73.1247 154.095 69.4179 153.372C68.3588 153.179 67.3479 153.854 67.1553 154.915C66.9628 155.975 67.6367 156.987 68.6958 157.18C72.0656 157.758 75.4354 158.048 78.8534 157.999H80.7308C80.4901 160.024 80.3457 162 80.3457 164.024V164.603C80.3457 165.085 80.3457 165.615 80.3939 166.097C76.6871 167.398 72.8359 168.314 68.9365 168.748C67.8774 168.796 67.0591 169.712 67.1072 170.772C67.1553 171.833 68.07 172.652 69.1291 172.604H69.3217C73.221 172.17 77.0241 171.303 80.7308 170.049C80.8753 171.11 81.0678 172.218 81.2604 173.279C81.8862 176.412 82.849 179.4 84.1969 182.292C84.5339 182.967 84.8709 183.642 85.2079 184.317C86.3632 186.486 87.7593 188.51 89.396 190.39C89.9256 191.016 90.4551 191.595 91.0328 192.173C91.6105 192.752 92.1882 193.282 92.814 193.812C93.4398 194.342 94.0656 194.824 94.6915 195.306L95.6543 196.029L96.6171 196.656C99.2166 198.391 102.009 199.885 104.945 201.09C107.834 202.247 110.77 203.163 113.803 203.789C117.943 204.657 122.179 205.139 126.464 205.235C126.368 205.476 126.271 205.669 126.175 205.91C125.742 206.922 125.212 207.935 124.683 208.947C123.624 210.971 122.468 212.947 121.217 214.875C120.928 215.357 120.591 215.839 120.254 216.321L119.291 217.767L117.269 220.611L115.199 223.407L113.081 226.154C112.407 227.022 111.685 227.841 111.011 228.709C106.389 225.624 93.1028 219.358 77.5536 235.216C58.8271 254.303 85.256 283.223 101.672 275.655C102.827 277.535 104.127 279.27 105.619 280.861L106.967 282.259C107.449 282.693 107.93 283.126 108.411 283.512L109.133 284.139C109.374 284.331 109.615 284.524 109.856 284.717L111.396 285.874C111.877 286.259 112.455 286.597 112.937 286.934C113.466 287.272 113.996 287.609 114.525 287.946L116.162 288.862C116.691 289.151 117.221 289.489 117.799 289.73C118.858 290.26 119.965 290.742 121.072 291.224C121.072 291.272 121.072 291.369 121.024 291.417C120.976 291.706 120.928 291.947 120.928 292.236C120.88 292.766 120.88 293.297 120.928 293.827C120.976 294.887 121.217 295.948 121.602 296.96C122.372 298.936 123.624 300.719 125.26 302.069C126.031 302.744 126.897 303.322 127.764 303.804L128.389 304.19C128.63 304.286 128.775 304.383 129.015 304.527L130.219 305.106C131.856 305.877 133.492 306.6 135.177 307.226C141.821 309.877 148.705 311.902 155.781 313.155C157.611 313.492 159.44 313.685 161.269 313.83L162.713 313.878H164.206C165.265 313.83 166.324 313.685 167.383 313.396C168.538 313.107 169.646 312.625 170.608 311.95C171.138 311.564 171.667 311.131 172.101 310.649C172.582 310.118 172.967 309.54 173.256 308.913C173.882 307.66 174.123 306.214 173.93 304.816C173.786 303.563 173.352 302.31 172.678 301.25C172.053 300.237 171.282 299.37 170.368 298.647C169.934 298.309 169.501 297.972 169.02 297.683C168.779 297.538 168.538 297.394 168.346 297.297L167.72 296.96C166.035 296.092 164.35 295.369 162.569 294.791C161.847 294.55 161.077 294.309 160.354 294.068C164.591 293.248 168.827 292.333 171.86 290.79C171.908 290.838 171.956 290.887 172.004 290.935C173.015 291.754 173.352 292.043 174.363 292.766C175.374 293.489 176.433 294.164 177.492 294.791C179.611 296.14 181.825 297.345 184.088 298.406C184.665 298.695 185.243 298.936 185.821 299.177C186.398 299.418 186.976 299.659 187.602 299.9C188.228 300.141 188.805 300.334 189.431 300.527C190.057 300.719 190.683 300.912 191.26 301.105C193.716 301.78 196.171 302.358 198.674 302.744C200.022 302.937 201.37 303.033 202.766 303.033C204.355 303.033 205.991 302.744 207.435 302.117C208.35 301.732 209.169 301.153 209.842 300.478C210.565 299.755 211.094 298.936 211.479 297.972C211.816 297.153 212.009 296.237 212.105 295.321C212.153 294.405 212.105 293.489 211.912 292.574C211.672 291.754 211.335 290.935 210.902 290.164C210.468 289.489 209.987 288.814 209.457 288.236C208.446 287.175 207.339 286.259 206.088 285.536C204.932 284.862 203.729 284.235 202.477 283.753C202.14 283.608 201.851 283.512 201.514 283.416L201.611 283.319C201.851 283.126 202.044 282.885 202.284 282.644L203.584 281.247C204.018 280.765 204.403 280.234 204.788 279.752L205.365 278.981C205.558 278.74 205.751 278.451 205.895 278.162C206.232 277.583 206.617 277.053 206.954 276.475C208.302 274.113 209.169 271.558 209.602 268.859C210.035 266.16 209.939 263.413 209.361 260.714C208.783 258.159 207.821 255.653 206.473 253.387C205.751 252.182 204.98 251.025 204.114 249.917C210.468 243.41 216.438 236.469 221.926 229.191C227.606 221.623 232.853 213.719 237.667 205.525C238.245 204.512 238.871 203.5 239.449 202.44L241.182 199.355C241.374 199.066 241.519 198.728 241.711 198.439C242.674 196.656 243.589 194.872 244.551 193.137C245.081 192.077 245.611 191.016 246.14 189.956C246.67 188.896 247.199 187.835 247.681 186.775C248.162 185.763 248.643 184.799 249.077 183.786C250.039 183.931 254.902 184.461 258.512 182.822C260.197 182.051 261.786 181.039 263.182 179.786C265.107 177.954 266.696 175.833 267.899 173.472C269.055 171.206 269.969 168.844 270.691 166.434C272.039 161.711 272.906 156.843 273.291 151.926C273.484 149.516 273.628 147.058 273.676 144.648C273.435 143.491 273.435 142.286 273.435 141.081ZM205.751 184.509C206.761 184.606 207.724 184.799 208.687 185.088C209.505 185.329 210.276 185.714 210.998 186.196C211.576 186.582 212.009 187.112 212.298 187.739C212.442 188.028 212.49 188.317 212.538 188.655C212.538 188.799 212.586 188.992 212.538 189.137V189.474V189.811C212.538 190.438 212.346 191.016 211.961 191.547C211.768 191.739 211.576 191.932 211.335 192.077C210.998 192.27 210.661 192.414 210.324 192.511C209.409 192.8 208.495 192.944 207.58 192.993C207.098 193.041 206.569 193.041 205.943 193.041C205.269 193.041 204.691 193.089 204.114 193.089C202.862 193.137 201.659 193.282 200.407 193.426C196.171 193.908 192.031 195.017 188.131 196.656C187.024 194.246 186.013 192.125 185.387 190.824C190.057 189.04 194.534 186.775 198.674 183.979C199.974 184.076 201.225 184.124 202.477 184.22L204.162 184.365C204.691 184.413 205.221 184.461 205.751 184.509ZM120.783 55.4781C120.783 55.4781 111.203 47.5252 118.569 42.3678C125.934 37.2104 132.193 45.1152 132.193 45.1152C149.09 62.8527 160.403 90.7123 162.184 95.2431C162.328 95.6769 162.425 95.8697 162.425 95.8697L153.759 96.5927C153.615 96.3517 153.47 96.1107 153.326 95.8215C146.538 83.7715 120.783 55.4781 120.783 55.4781ZM202.766 267.992C202.477 269.92 201.899 271.799 201.033 273.535C200.792 273.968 200.551 274.402 200.311 274.884C200.166 275.125 200.07 275.318 199.926 275.559L199.492 276.186C199.204 276.619 198.915 277.053 198.626 277.487L197.663 278.74C195.015 282.066 191.549 284.958 187.987 287.754L187.939 287.802C187.072 288.428 186.88 289.633 187.505 290.501C188.083 291.32 189.142 291.561 190.009 291.079C191.068 290.549 192.175 289.971 193.234 289.392C194.293 288.814 195.304 288.139 196.315 287.464C196.748 287.175 197.133 286.886 197.519 286.597L198.674 287.272C199.155 287.561 199.637 287.85 200.118 288.139C201.033 288.718 201.947 289.344 202.766 290.019C203.536 290.646 204.21 291.32 204.836 292.092C205.077 292.429 205.317 292.766 205.51 293.104C205.654 293.393 205.751 293.73 205.847 294.068C205.895 294.357 205.895 294.646 205.847 294.935C205.847 295.08 205.799 295.225 205.751 295.417C205.751 295.514 205.702 295.562 205.702 295.658L205.606 295.851C205.462 296.285 205.125 296.622 204.691 296.767C203.921 297.056 203.103 297.201 202.284 297.201C201.225 297.201 200.166 297.153 199.155 297.008C196.893 296.719 194.582 296.285 192.368 295.707C191.79 295.562 191.26 295.417 190.683 295.321C190.153 295.176 189.624 295.032 189.046 294.839C187.987 294.502 186.88 294.116 185.821 293.682C182.21 292.284 178.696 290.597 175.326 288.718L175.374 288.669C181.681 284.524 183.943 279.511 184.136 279.174C184.665 278.258 184.376 277.101 183.51 276.523C182.595 275.945 181.488 276.909 180.91 277.824C180.862 277.921 177.492 282.5 170.127 286.549C168.538 287.416 166.853 288.187 165.12 288.814C165.987 288.091 166.853 287.32 167.672 286.5C170.031 284.139 171.812 281.295 172.919 278.114C174.026 274.836 174.219 271.269 173.449 267.895C172.726 264.714 171.379 261.677 169.549 258.978C167.816 256.424 165.842 254.062 163.628 251.941C162.569 250.881 161.414 249.869 160.258 248.953C159.103 248.037 157.899 247.073 156.696 246.254C155.492 245.386 154.241 244.567 152.989 243.844C151.737 243.121 150.438 242.349 149.042 241.675C148.127 241.144 146.923 241.53 146.442 242.446C145.961 243.313 146.249 244.374 147.02 244.952L147.068 245C148.127 245.82 149.234 246.687 150.293 247.603C151.352 248.471 152.411 249.387 153.422 250.351C155.444 252.182 157.418 254.11 159.247 256.183C161.028 258.159 162.617 260.28 164.013 262.545C165.313 264.666 166.276 266.931 166.853 269.389C167.335 271.607 167.239 273.968 166.565 276.137C165.794 278.451 164.591 280.572 163.002 282.403C162.184 283.416 161.269 284.331 160.306 285.199C159.344 286.115 158.333 286.982 157.274 287.802C155.444 289.248 153.47 290.597 151.449 291.947L150.486 292.574L150.197 292.766C149.764 293.056 149.475 293.489 149.379 294.02C149.379 294.116 149.379 294.212 149.379 294.309C149.379 295.225 150.053 296.044 150.967 296.189C154.193 297.201 157.466 298.309 160.499 299.611C161.991 300.237 163.484 300.96 164.88 301.78L165.361 302.069C165.554 302.165 165.65 302.262 165.794 302.358C166.083 302.551 166.324 302.744 166.565 302.937C166.998 303.322 167.383 303.756 167.672 304.286C167.912 304.672 168.105 305.154 168.153 305.636C168.201 305.973 168.153 306.359 167.961 306.648C167.768 306.985 167.479 307.275 167.142 307.516C166.661 307.805 166.131 308.046 165.602 308.142C164.928 308.287 164.302 308.431 163.628 308.431H162.521L161.317 308.383C159.681 308.287 158.044 308.094 156.407 307.805C153.037 307.275 149.764 306.552 146.49 305.636C143.217 304.768 139.943 303.708 136.718 302.599C135.129 302.021 133.54 301.394 131.952 300.768C130.508 300.189 129.16 299.466 127.86 298.599C126.753 297.779 125.838 296.671 125.26 295.417C124.972 294.791 124.779 294.164 124.683 293.489C124.635 293.248 124.635 293.007 124.635 292.766C126.801 293.538 129.063 294.212 131.278 294.791C132.289 295.08 133.348 294.502 133.685 293.489C133.974 292.477 133.444 291.465 132.433 291.128C128.149 289.537 123.961 287.609 119.965 285.344C116.114 283.175 112.6 280.379 109.663 277.101C106.823 273.92 104.849 270.112 103.934 265.967C103.501 263.895 103.309 261.774 103.405 259.701C103.501 257.532 103.79 255.412 104.271 253.291C104.512 252.23 104.849 251.17 105.138 250.11L105.716 248.567C105.908 248.037 106.149 247.555 106.341 247.025C107.208 244.952 108.171 242.976 109.278 241C110.385 239.024 111.637 237.144 112.985 235.36L117.269 229.721L119.387 226.781L121.409 223.792C122.035 222.78 122.709 221.768 123.335 220.708C123.961 219.647 124.586 218.635 125.164 217.575L126.031 215.984L126.849 214.345C127.138 213.815 127.379 213.237 127.667 212.706C127.908 212.176 128.197 211.598 128.438 211.019C128.678 210.441 128.919 209.911 129.16 209.332C129.4 208.754 129.593 208.176 129.786 207.597C129.978 207.019 130.171 206.392 130.363 205.814L130.46 205.476C130.845 205.476 131.182 205.476 131.567 205.428C137.488 205.187 143.409 204.368 149.186 202.922C150.293 202.633 150.967 201.476 150.678 200.319C150.389 199.307 149.427 198.632 148.416 198.777C142.783 199.5 137.151 199.982 131.567 199.741C126.031 199.548 120.543 198.728 115.247 197.234C112.648 196.511 110.144 195.547 107.689 194.39C105.282 193.282 102.972 191.932 100.805 190.39L99.9869 189.811L99.2166 189.233C98.6871 188.847 98.2057 188.462 97.7243 188.028C97.291 187.594 96.7615 187.209 96.3282 186.727C96.0875 186.486 95.895 186.245 95.6543 186.052C95.4136 185.859 95.221 185.57 94.9803 185.329C93.2473 183.449 91.7068 181.328 90.4551 179.111C89.6849 177.81 89.0591 176.46 88.4814 175.062C87.5667 172.749 86.9409 170.29 86.5558 167.832C88.6258 166.868 89.8293 166.193 89.9737 166.097C90.8884 165.519 91.1291 164.314 90.5514 163.446C90.0219 162.578 88.9146 162.289 88.0481 162.771C88 162.771 87.326 163.205 86.1225 163.783C86.0262 162 86.0262 160.217 86.1225 158.433C86.1225 158.24 86.1225 158.048 86.1707 157.903L86.7965 157.855C89.733 157.614 91.7068 157.325 91.9475 157.276C93.0066 157.132 93.7768 156.216 93.6324 155.156C93.488 154.095 92.5733 153.324 91.5142 153.469C91.4661 153.469 91.4179 153.469 91.4179 153.469C91.3698 153.469 89.4923 153.758 86.7484 153.999C87.1335 151.974 87.6149 149.95 88.2407 147.926C89.0591 145.275 90.1182 142.672 91.2735 140.165C92.477 137.659 93.8731 135.201 95.4617 132.887C98.4945 128.26 102.249 124.115 106.582 120.644C107.593 120.355 108.219 119.343 107.978 118.283C107.882 117.945 107.689 117.608 107.4 117.367L104.705 114.86C103.79 114.041 102.923 113.173 101.961 112.402L99.1685 110.04L97.7724 108.835L96.3282 107.679C94.4026 106.184 92.477 104.642 90.5033 103.196L87.5667 100.979C86.6039 100.256 85.593 99.5329 84.582 98.8581L81.5974 96.7373L78.6127 94.6647C76.5908 93.2669 74.5689 91.9173 72.547 90.5677C68.4551 87.9167 64.3151 85.3139 60.175 82.7593C56.035 80.2047 51.7987 77.7465 47.5624 75.3365C45.4442 74.1315 43.326 72.9265 41.2079 71.7697L37.9825 70.0345L36.3939 69.1669C35.9606 68.9259 35.5273 68.6367 35.0941 68.3475C31.628 66.0339 28.6433 62.4671 28.0175 58.9003C27.6805 57.1651 27.9694 55.3817 28.7877 53.7911C29.221 52.9235 29.7987 52.1523 30.4245 51.4293C31.0503 50.6581 31.7724 49.9833 32.5908 49.4049C34.1313 48.2481 35.9606 47.4769 37.8381 47.1395C39.8599 46.8503 41.93 46.8985 43.9518 47.3806C46.07 47.8144 48.0919 48.5373 50.0175 49.5013C50.2582 49.5977 50.4989 49.7423 50.6433 49.8387L51.4136 50.3207L52.954 51.2365L56.035 53.0681C60.2232 55.4781 64.2188 58.1291 68.3107 60.6837L74.2801 64.6843C76.302 65.9857 78.2276 67.4317 80.1532 68.8295C87.9519 74.4207 95.4617 80.4457 102.586 86.8563C104.368 88.4951 106.149 90.0857 107.834 91.7727C108.7 92.5921 109.567 93.4115 110.385 94.2791L112.888 96.8337C114.525 98.5689 116.162 100.304 117.702 102.136C118.521 103.003 119.243 103.967 120.013 104.835C120.783 105.702 121.505 106.715 122.179 107.582L122.228 107.63C122.661 108.257 123.431 108.546 124.153 108.402C124.586 108.45 125.02 108.402 125.405 108.161C127.282 107.148 129.16 106.233 131.133 105.413C134.311 107.63 142.832 112.209 156.6 109.655C169.501 107.245 172.967 102.184 173.93 99.5329C174.604 99.6293 175.278 99.6775 175.952 99.7739C181.632 100.545 187.265 101.895 192.656 103.823C193.234 104.064 193.764 104.353 194.341 104.642C196.315 105.654 198.193 106.763 200.022 107.968C201.562 109.028 203.055 110.137 204.451 111.39C204.836 111.727 205.269 112.113 205.654 112.499C207.628 114.33 209.409 116.355 211.046 118.475C211.912 119.632 212.683 120.789 213.453 121.994C213.742 122.476 214.031 123.006 214.319 123.488C214.608 123.97 214.849 124.5 215.138 124.982C215.427 125.464 215.667 125.995 215.908 126.525C216.149 127.055 216.341 127.537 216.582 128.067C216.63 128.212 216.678 128.308 216.727 128.453L216.871 128.79L217.16 129.61C217.352 130.14 217.497 130.67 217.641 131.248C217.786 131.779 217.93 132.357 218.074 132.887L218.267 133.707L218.46 134.574C218.7 135.683 218.893 136.791 218.989 137.948C219.037 138.527 219.133 139.057 219.133 139.635V141.322C219.133 141.611 219.133 141.901 219.133 142.142V142.961C219.085 143.539 219.085 144.07 219.037 144.648L218.797 146.335C218.748 146.624 218.748 146.865 218.652 147.154L218.46 147.974C218.315 148.504 218.219 149.082 218.074 149.613L217.593 151.251C217.497 151.541 217.449 151.782 217.352 152.071L217.063 152.89C216.871 153.42 216.678 153.951 216.486 154.481L215.812 156.023C215.716 156.264 215.571 156.553 215.475 156.794L215.09 157.566L214.319 159.108L213.453 160.602L213.02 161.325L212.538 162.048L211.576 163.494L210.565 164.892L210.083 165.567L209.554 166.242L208.446 167.543L207.291 168.796L206.713 169.423L206.088 170.049L204.884 171.254C203.199 172.893 201.418 174.387 199.589 175.833C198.674 176.556 197.711 177.279 196.748 177.954C195.93 178.581 195.112 179.159 194.245 179.738C194.101 179.834 194.004 179.93 193.86 180.027C189.961 182.726 185.917 185.232 181.873 187.883C181.055 188.414 180.718 189.426 181.055 190.342C181.199 190.631 181.344 190.968 181.392 191.257C181.44 191.306 183.317 195.21 185.339 199.596C185.339 199.741 185.387 199.837 185.435 199.982C185.532 200.271 185.676 200.512 185.869 200.705C187.12 203.452 188.324 206.344 189.094 208.561C189.287 209.091 189.672 209.477 190.153 209.718V209.67C190.346 209.766 190.538 209.814 190.731 209.863C194.149 210.296 197.663 210.345 201.081 209.959C203.632 209.718 206.184 209.236 208.591 208.802C209.409 208.658 210.228 208.513 210.998 208.368C211.383 208.32 211.768 208.224 212.105 208.176C213.164 207.983 214.271 207.886 215.33 207.935H215.379C215.908 207.935 216.39 208.031 216.919 208.176C217.304 208.272 217.593 208.513 217.882 208.802C218.219 209.14 218.508 209.573 218.652 210.055C218.7 210.2 218.748 210.345 218.845 210.489L218.941 210.682L218.989 210.778C219.037 210.923 219.037 211.068 219.085 211.212C219.085 211.598 218.989 211.983 218.797 212.273C218.556 212.755 218.219 213.237 217.834 213.622C216.871 214.634 215.764 215.502 214.56 216.225C213.26 217.044 211.912 217.767 210.516 218.346C209.12 218.972 207.724 219.551 206.232 220.033C204.932 220.515 203.584 220.949 202.284 221.334L201.562 221.527C200.551 221.816 199.589 222.105 198.578 222.346C193.667 223.648 188.661 224.612 183.558 225.479L182.499 225.672C181.44 225.817 180.718 226.829 180.862 227.841C181.007 228.853 181.921 229.576 182.932 229.48C185.965 229.287 188.998 228.998 191.982 228.564C192.175 229.914 192.271 231.263 192.175 232.661C188.131 239.939 184.665 247.555 181.825 255.412C181.344 256.713 181.007 258.062 180.814 259.412C180.814 259.605 180.766 259.846 180.766 260.039C180.766 260.231 180.766 260.521 180.766 260.714C180.766 261.003 180.814 261.244 180.862 261.533C180.91 261.87 181.007 262.208 181.151 262.497C181.295 262.882 181.536 263.268 181.777 263.605C182.114 263.991 182.499 264.328 182.932 264.569C183.125 264.666 183.365 264.762 183.606 264.859C183.799 264.907 184.039 264.955 184.232 265.003C184.425 265.051 184.617 265.051 184.81 265.051C185.002 265.051 185.147 265.051 185.291 265.051C186.254 264.955 187.169 264.714 187.987 264.28C188.661 263.943 189.287 263.557 189.912 263.172C190.057 263.075 190.201 262.931 190.394 262.786C190.49 262.69 190.538 262.69 190.586 262.641L190.731 262.497L191.405 261.919L192.753 260.762C194.534 259.171 196.363 257.629 198.096 256.038L199.637 254.544C200.022 255.267 200.407 255.942 200.744 256.665C202.429 260.328 203.344 264.232 202.766 267.992ZM236.849 197.234L235.068 200.223C234.49 201.235 233.816 202.199 233.239 203.163C230.302 207.838 227.221 212.465 224.044 216.948C221.877 220.033 219.615 223.021 217.352 226.01L213.02 231.456C212.298 232.372 211.527 233.24 210.805 234.107L208.543 236.758C207.772 237.626 207.05 238.542 206.28 239.361L203.921 241.916L201.562 244.47C201.177 244.904 200.792 245.338 200.359 245.723L200.118 245.964L199.107 246.928L196.508 249.579L194.245 251.845C193.667 252.375 193.042 252.953 192.416 253.484C191.886 253.966 191.357 254.448 190.827 254.881L189.046 256.472L187.746 257.629L187.12 258.207L186.832 258.448L186.639 258.593L186.591 258.641C186.687 258.207 186.832 257.725 187.024 257.291C187.554 255.797 188.083 254.303 188.661 252.857C190.683 247.459 193.042 242.205 195.737 237.096C196.123 236.324 196.556 235.553 196.989 234.734C198.433 232.083 200.022 229.432 201.611 226.877L202.862 226.588C206.232 225.769 209.505 224.708 212.683 223.407C214.319 222.732 215.908 221.913 217.449 220.997C219.133 220.033 220.626 218.828 221.974 217.43C222.359 217.044 222.696 216.611 222.985 216.225C223.322 215.791 223.611 215.261 223.851 214.779C224.429 213.622 224.766 212.369 224.766 211.068C224.766 210.393 224.67 209.718 224.477 209.043C224.429 208.899 224.381 208.706 224.333 208.561C224.284 208.417 224.236 208.32 224.188 208.176C224.092 207.935 223.996 207.694 223.899 207.453C223.418 206.392 222.744 205.38 221.926 204.561C221.204 203.838 220.337 203.259 219.422 202.874C221.685 200.174 224.044 197.523 226.403 194.872C227.269 193.908 228.136 192.993 229.002 192.029C230.928 192.462 235.116 193.716 236.945 197.234H236.849ZM246.044 180.412C245.803 180.943 245.514 181.425 245.274 181.955C244.744 182.967 244.214 184.027 243.685 185.04C243.155 186.052 242.626 187.112 242.048 188.124C241.47 189.137 240.941 190.149 240.363 191.161C239.93 191.932 239.497 192.703 239.063 193.475C237.042 190.968 234.153 189.57 231.939 188.799C235.405 185.136 238.919 181.569 242.481 178.002L242.915 177.569C243.155 177.617 243.396 177.713 243.589 177.81C244.118 178.002 244.6 178.195 245.081 178.484C245.514 178.677 245.899 178.966 246.236 179.304C246.333 179.4 246.381 179.497 246.477 179.593C246.333 179.882 246.188 180.123 246.044 180.412ZM266.744 151.685C266.648 156.216 266.118 160.699 265.155 165.133C265.059 165.663 264.915 166.145 264.77 166.675C264.722 166.916 264.626 167.157 264.53 167.447C264.433 167.736 264.385 167.929 264.289 168.17C264.193 168.411 264.096 168.7 264 168.989C263.904 169.278 263.856 169.471 263.759 169.712C263.567 170.29 263.326 170.821 263.085 171.399C262.267 173.327 261.112 175.062 259.716 176.605C259.33 176.99 258.945 177.328 258.56 177.665C257.453 178.581 256.153 179.256 254.757 179.689L254.42 179.786C253.554 180.027 252.639 180.123 251.724 180.171H250.425C250.473 179.882 250.473 179.545 250.425 179.256C250.184 178.243 249.654 177.376 248.932 176.653C248.354 176.074 247.681 175.544 246.958 175.159C246.284 174.773 245.611 174.484 244.888 174.243C244.551 174.146 244.166 174.002 243.829 173.905C243.444 173.809 243.155 173.713 242.722 173.616C242.144 173.52 241.519 173.664 241.037 174.098C240.893 173.616 240.797 173.134 240.7 172.604C240.508 171.592 240.411 170.58 240.411 169.567C240.363 167.639 240.748 165.711 241.567 163.976C242.385 162.289 243.637 160.843 245.177 159.783L245.755 159.397L246.429 159.012C246.862 158.771 247.295 158.481 247.777 158.192L249.173 157.469C249.654 157.228 250.136 156.987 250.617 156.794C252.061 156.12 253.554 155.541 255.142 154.915L256.827 154.24C257.742 153.854 258.656 153.469 259.619 153.035C260.919 152.408 262.219 151.733 263.422 150.962C264.626 150.191 265.733 149.275 266.792 148.263C266.744 149.372 266.744 150.528 266.744 151.685Z" fill="black"/>
</svg>
