<svg width="380" height="411" viewBox="0 0 380 411" fill="none" xmlns="http://www.w3.org/2000/svg">
<g clip-path="url(#clip0_3327_22819)">
<path d="M328.94 0L221.11 217.81L240.15 0H116.02L145.99 205.73L0 16.79V177.15L114.6 264.8L0 242.95V345.37L379.99 344.96V246.4L252.7 273.21L379.99 135.98V17.58L347.46 0H328.94Z" fill="#84A0B9"/>
<path d="M379.99 0H0V406.44H379.99V0Z" fill="url(#paint0_linear_3327_22819)"/>
<path d="M234.9 252.46V252.3C234.9 251.92 234.9 251.53 234.84 251.1C234.84 251.03 234.84 250.96 234.84 250.89C234.747 250.105 234.349 249.389 233.731 248.897C233.113 248.404 232.326 248.176 231.54 248.26C231.012 248.322 230.509 248.522 230.084 248.842C229.658 249.162 229.326 249.589 229.12 250.08L228.63 251.25V251.37L228.43 251.85C228.391 251.95 228.345 252.047 228.29 252.14C228.238 252.23 228.191 252.324 228.15 252.42L227.59 253.51L226.94 254.51C224.8 258.51 218.94 260.91 215.72 262.29C214.93 262.62 214.28 262.89 213.88 263.1L212.55 263.83L211.26 264.6C210.82 264.88 210.42 265.16 210.01 265.44L209.37 265.89L208.72 266.37C207.858 267.074 207.076 267.873 206.39 268.75C205.702 269.643 205.13 270.621 204.69 271.66C203.855 273.691 203.513 275.891 203.69 278.08C203.763 279.128 203.938 280.166 204.21 281.18C204.33 281.67 204.49 282.18 204.65 282.68C204.725 282.928 204.822 283.169 204.94 283.4C204.985 283.546 205.046 283.687 205.12 283.82C205.12 283.92 205.21 284.02 205.26 284.13C202.03 287.24 198.81 290.38 195.66 293.61C195.01 294.26 194.38 294.93 193.76 295.61L192.84 296.61C190.22 299.43 187.6 302.3 185.11 305.24C183.972 305.358 182.84 305.535 181.72 305.77C180.94 305.92 180.18 306.11 179.44 306.28L177.65 306.7L176.24 307.01C175.4 307.2 174.56 307.39 173.7 307.54C171.44 307.99 173.7 307.91 171.44 307.99C170.92 306.62 171.12 302.5 174.22 302.3C175.15 302.3 176.12 302.22 177.04 302.22H180.04C180.431 302.213 180.822 302.186 181.21 302.14H181.77C182.385 302.061 182.991 301.923 183.58 301.73C184.226 301.529 184.85 301.261 185.44 300.93C186.086 300.532 186.669 300.04 187.17 299.47C187.661 298.875 188.043 298.198 188.3 297.47C188.526 296.823 188.674 296.152 188.74 295.47C188.735 295.39 188.735 295.31 188.74 295.23C188.745 295.147 188.745 295.063 188.74 294.98V294.5C188.753 294.135 188.727 293.769 188.66 293.41C188.573 292.687 188.384 291.98 188.1 291.31C187.527 290.01 186.607 288.892 185.44 288.08C184.406 287.361 183.261 286.817 182.05 286.47C180.957 286.167 179.84 285.963 178.71 285.86H178.32H177.94C178.99 284.97 180.04 284.09 181.04 283.12C184.231 280.169 186.977 276.771 189.19 273.03L189.99 271.62L190.72 270.16C191.057 269.51 191.357 268.843 191.62 268.16C191.76 267.81 191.9 267.47 192.05 267.16C192.25 266.63 192.41 266.11 192.57 265.58L192.85 264.82C192.942 264.556 193.013 264.285 193.06 264.01L193.5 262.4C193.56 262.13 193.61 261.86 193.66 261.59C193.71 261.32 193.76 261.04 193.82 260.78L193.98 259.97C193.98 259.69 194.06 259.41 194.1 259.17L194.3 257.51C194.3 257.24 194.3 256.96 194.3 256.69C194.3 256.42 194.3 256.13 194.3 255.86V255.01C194.32 254.727 194.32 254.443 194.3 254.16L194.21 252.51C194.21 252.01 194.11 251.51 194.04 251.04V250.85C193.921 249.763 193.721 248.687 193.44 247.63L193.28 246.86L193.08 246.05C192.96 245.53 192.79 245 192.63 244.48C192.47 243.96 192.31 243.43 192.11 242.9L191.83 242.14L191.67 241.73C191.652 241.658 191.622 241.591 191.58 241.53C191.546 241.467 191.519 241.4 191.5 241.33C191.38 241.09 191.26 240.84 191.14 240.58L190.78 239.84C190.551 239.352 190.294 238.878 190.01 238.42C189.49 237.5 188.88 236.57 188.28 235.68C186.435 232.981 184.254 230.528 181.79 228.38C184.316 225.791 187.313 223.707 190.62 222.24C191.009 222.061 191.314 221.738 191.471 221.339C191.627 220.94 191.623 220.496 191.46 220.1C191.283 219.712 190.962 219.407 190.565 219.25C190.167 219.094 189.725 219.097 189.33 219.26C185.558 220.893 182.156 223.274 179.33 226.26C178.45 225.57 177.52 224.89 176.59 224.26C178.684 220.931 181.191 217.88 184.05 215.18C184.36 214.883 184.542 214.476 184.557 214.046C184.572 213.617 184.419 213.198 184.13 212.88C183.834 212.567 183.427 212.384 182.997 212.369C182.566 212.354 182.147 212.509 181.83 212.8C178.798 215.683 176.144 218.939 173.93 222.49C172.207 221.492 170.431 220.587 168.61 219.78H168.49C163.699 218.169 158.757 217.047 153.74 216.43C151.8 216.19 149.83 216.03 147.85 215.91C145.334 208.337 142.124 201.012 138.26 194.03C129.357 177.424 117.582 162.527 103.48 150.03H103.4C98.4001 146.15 86.8702 140.83 79.3402 148.45C76.3402 151.52 74.8601 154.95 75.0601 158.62C75.3901 165.28 80.8701 170.41 82.5601 171.82L83.3702 172.49L84.0501 173.03C102.67 188.2 117.18 203.18 127.26 217.5C126.09 217.74 124.92 218.03 123.79 218.35C119.174 219.612 114.65 221.189 110.25 223.07C110.09 222.83 109.92 222.6 109.75 222.36C109.58 222.12 109.4 221.9 109.24 221.66L108.24 220.43C107.93 220.01 107.62 219.6 107.3 219.2C106.01 217.58 104.68 216.01 103.3 214.47L101.24 212.13C100.56 211.37 99.8302 210.64 99.1102 209.91C98.1602 208.91 97.1902 207.96 96.2102 207L94.7502 205.56C88.8262 199.872 82.5396 194.574 75.9301 189.7L75.2202 189.16C73.8102 188.09 72.4202 187.03 70.9702 186.06L68.9702 184.7C67.9702 183.97 66.9702 183.25 65.8802 182.55C64.7902 181.85 63.6601 181.12 62.5501 180.39C60.2301 178.87 57.9001 177.39 55.5501 175.94L52.9301 174.36L51.6402 173.55L50.9902 173.15L50.7701 173.02C50.5844 172.903 50.3906 172.799 50.1901 172.71C48.1692 171.694 46.0293 170.935 43.8201 170.45C41.5216 169.939 39.1483 169.857 36.8201 170.21C34.4005 170.614 32.1093 171.58 30.1302 173.03C29.1645 173.761 28.2855 174.6 27.5102 175.53C26.7293 176.449 26.0581 177.456 25.5102 178.53C24.9018 179.673 24.5054 180.916 24.3402 182.2C24.1462 183.485 24.1732 184.794 24.4201 186.07C24.9125 188.48 25.9755 190.736 27.5201 192.65C28.951 194.473 30.6664 196.053 32.6002 197.33C33.086 197.666 33.5976 197.964 34.1302 198.22L35.5002 198.95L38.1601 200.36L43.4802 203.27C47.0302 205.2 50.5402 207.22 54.0002 209.27C57.4602 211.32 60.9402 213.39 64.3602 215.52C66.0602 216.52 67.7902 217.66 69.4802 218.75L72.0201 220.41L74.5201 222.1L77.0201 223.8L79.5201 225.53C80.5201 226.22 81.5201 226.95 82.5201 227.67C83.1501 228.13 83.7801 228.59 84.4201 229.04L85.6302 229.93L86.8402 230.86L89.2202 232.72C90.0302 233.32 90.7901 233.97 91.5601 234.61L92.2001 235.14C88.9811 238.24 86.0056 241.583 83.3001 245.14C81.8028 247.145 80.4654 249.265 79.3001 251.48C78.076 253.688 77.01 255.981 76.1102 258.34C75.3048 260.53 74.6368 262.767 74.1102 265.04C70.7647 265.185 67.4132 264.98 64.1102 264.43C63.9006 264.39 63.685 264.391 63.476 264.435C63.2671 264.479 63.0689 264.563 62.893 264.684C62.7171 264.805 62.5671 264.96 62.4516 265.14C62.3361 265.319 62.2574 265.52 62.2202 265.73C62.1783 265.939 62.1786 266.154 62.221 266.363C62.2635 266.572 62.3473 266.77 62.4675 266.947C62.5877 267.123 62.7418 267.273 62.9209 267.389C63.0999 267.504 63.3003 267.583 63.5102 267.62C66.3159 268.114 69.1616 268.345 72.0102 268.31H73.5802C73.3756 269.969 73.2688 271.639 73.2602 273.31V273.8H72.9802C67.5802 272.22 52.8701 269.8 38.2701 283.36C38.2701 283.36 50.6102 289.86 68.3802 283.81C68.3802 283.81 53.7101 296.81 66.0401 317.02C66.0401 317.02 76.4802 308.58 77.3302 290.3C78.3048 292.123 79.4823 293.831 80.8402 295.39C81.2802 295.91 81.7202 296.39 82.2102 296.88C82.7002 297.37 83.2102 297.81 83.7002 298.25C84.1902 298.69 84.7001 299.1 85.2701 299.5L86.0802 300.11L86.8802 300.63C89.083 302.101 91.4281 303.348 93.8802 304.35C96.28 305.317 98.7593 306.073 101.29 306.61C104.779 307.335 108.327 307.74 111.89 307.82L111.77 308.1L111.65 308.38C111.29 309.23 110.84 310.08 110.4 310.92C109.51 312.62 108.55 314.27 107.5 315.92C107.26 316.32 106.97 316.72 106.69 317.13L105.89 318.34L104.19 320.72L102.46 323.06L100.69 325.36L99.8201 326.43L98.9501 327.5C95.0801 324.92 83.9502 319.67 70.9502 332.95C55.2702 348.95 77.4002 373.14 91.1402 366.8C92.0916 368.363 93.2007 369.824 94.4501 371.16L95.5802 372.33C95.9802 372.7 96.3801 373.06 96.7901 373.38L97.3902 373.91L98.0002 374.39L99.2901 375.39C99.551 375.6 99.825 375.794 100.11 375.97L100.58 376.28L101.91 377.13L103.28 377.89L103.65 378.1C103.972 378.295 104.306 378.469 104.65 378.62C105.53 379.06 106.46 379.47 107.39 379.87C107.409 379.922 107.409 379.978 107.39 380.03C107.39 380.03 107.39 380.09 107.39 380.12C107.355 380.318 107.335 380.519 107.33 380.72C107.29 381.162 107.29 381.608 107.33 382.05C107.378 382.947 107.567 383.832 107.89 384.67C108.53 386.333 109.583 387.806 110.95 388.95C111.598 389.505 112.302 389.991 113.05 390.4L113.57 390.72C113.726 390.782 113.874 390.862 114.01 390.96H114.1L115.1 391.44C116.47 392.09 117.84 392.69 119.25 393.22C124.814 395.472 130.594 397.148 136.5 398.22C138.03 398.5 139.56 398.66 141.09 398.79H142.3H143.55C144.449 398.751 145.341 398.614 146.21 398.38C147.178 398.148 148.093 397.738 148.91 397.17C149.365 396.853 149.784 396.488 150.16 396.08C150.566 395.651 150.903 395.162 151.16 394.63C151.681 393.567 151.876 392.374 151.72 391.2C151.617 390.138 151.275 389.112 150.72 388.2C150.209 387.366 149.556 386.629 148.79 386.02C148.43 385.731 148.053 385.464 147.66 385.22C147.46 385.1 147.26 384.97 147.1 384.89L146.57 384.61C145.185 383.891 143.743 383.286 142.26 382.8C141.96 382.69 141.65 382.59 141.33 382.49L140.41 382.19C143.95 381.5 147.5 380.74 150.04 379.45L150.16 379.57L150.47 379.82C151.09 380.32 151.4 380.58 152.13 381.1C152.86 381.62 153.87 382.27 154.75 382.8C156.528 383.917 158.375 384.919 160.28 385.8C160.76 386.04 161.28 386.25 161.73 386.45C162.18 386.65 162.73 386.85 163.22 387.05C163.71 387.25 164.22 387.42 164.75 387.58L166.28 388.06C168.321 388.64 170.395 389.097 172.49 389.43C173.622 389.599 174.765 389.682 175.91 389.68C177.252 389.688 178.582 389.426 179.82 388.91C180.569 388.586 181.248 388.121 181.82 387.54C182.416 386.941 182.882 386.227 183.19 385.44C183.466 384.728 183.641 383.981 183.71 383.22C183.757 382.45 183.703 381.677 183.55 380.92C183.345 380.224 183.063 379.554 182.71 378.92C182.349 378.353 181.945 377.815 181.5 377.31C180.673 376.426 179.723 375.665 178.68 375.05C177.721 374.472 176.718 373.97 175.68 373.55C175.42 373.439 175.153 373.345 174.88 373.27L174.96 373.19C175.091 373.078 175.214 372.958 175.33 372.83L175.52 372.63L176.61 371.46C176.86 371.18 177.1 370.87 177.32 370.58L177.62 370.2L178.1 369.56C178.272 369.347 178.419 369.116 178.54 368.87L178.99 368.17C179.14 367.94 179.29 367.7 179.43 367.46C180.551 365.486 181.303 363.324 181.65 361.08C182.004 358.814 181.936 356.502 181.45 354.26C180.964 352.104 180.148 350.036 179.03 348.13C178.426 347.122 177.758 346.153 177.03 345.23C182.329 339.726 187.272 333.891 191.83 327.76C196.587 321.425 200.984 314.828 205 308C205.18 307.67 205.38 307.34 205.57 307C205.88 306.48 206.19 306 206.49 305.41L207.94 302.82C208.02 302.7 208.09 302.57 208.16 302.44C208.23 302.31 208.3 302.18 208.38 302.06C208.7 301.47 209.01 300.88 209.32 300.29C209.8 299.39 210.32 298.5 210.76 297.62L212.09 294.95C212.53 294.07 212.98 293.18 213.38 292.29L213.68 291.67C213.98 291.04 214.27 290.43 214.55 289.79C215.35 289.91 219.42 290.35 222.45 288.98C223.875 288.337 225.194 287.481 226.36 286.44C227.986 284.918 229.339 283.129 230.36 281.15C231.313 279.261 232.093 277.29 232.69 275.26C233.822 271.293 234.553 267.223 234.87 263.11C235.03 261.11 235.15 259.04 235.19 257.02C235.022 256.029 234.955 255.024 234.99 254.02L234.9 252.46ZM140.9 215.69H140.17H139.44H138.59C139.59 215.61 140.68 215.57 141.74 215.57L140.9 215.69Z" fill="#15171C"/>
<path d="M298.71 276.55C300.09 276.125 301.378 275.446 302.51 274.55C302.931 274.239 303.319 273.888 303.67 273.5C305.065 271.963 306.203 270.21 307.04 268.31C307.292 267.762 307.515 267.201 307.71 266.63C307.817 266.4 307.897 266.158 307.95 265.91C307.95 265.67 308.15 265.38 308.24 265.09C306.641 266.493 304.773 267.554 302.75 268.21C301.387 268.637 299.915 268.552 298.61 267.97C298.359 267.875 298.131 267.729 297.94 267.54C293.03 264.13 297.65 260.09 297.65 260.09C292.07 260 292.16 256.82 293.13 254.37L291.73 255.09C291.264 255.336 290.813 255.61 290.38 255.91L289.71 256.34L289.13 256.73C287.587 257.79 286.344 259.229 285.52 260.91C284.708 262.652 284.311 264.559 284.36 266.48C284.364 267.487 284.461 268.491 284.65 269.48C284.75 269.96 284.85 270.48 284.99 270.97C285.214 270.762 285.484 270.61 285.777 270.527C286.071 270.443 286.38 270.431 286.68 270.49C287.11 270.58 287.45 270.68 287.78 270.78C288.14 270.867 288.494 270.977 288.84 271.11C289.568 271.365 290.276 271.673 290.96 272.03C291.703 272.415 292.379 272.918 292.96 273.52C293.68 274.234 294.194 275.129 294.45 276.11C294.5 276.411 294.5 276.719 294.45 277.02H295.75C296.643 276.971 297.53 276.844 298.4 276.64L298.71 276.55Z" fill="#9B7256"/>
<path d="M289.08 275.4C288.607 275.126 288.108 274.902 287.59 274.73C287.35 274.63 287.16 274.59 286.92 274.49L286.48 274.92L290.09 277.28C290.24 276.99 290.38 276.7 290.53 276.46C290.462 276.354 290.382 276.256 290.29 276.17C289.906 275.885 289.501 275.627 289.08 275.4Z" fill="#414758"/>
<path d="M275.89 285.73C278.66 286.576 281.133 288.192 283.02 290.39L284.32 288.09C284.89 287.09 285.42 286.09 286 285.09C286.58 284.09 287.11 283.09 287.64 282.02C288.17 280.95 288.7 279.95 289.23 278.94C289.47 278.41 289.76 277.94 290 277.4L286.39 275.05C282.83 278.53 279.36 282.08 275.89 285.73Z" fill="#414758"/>
<path d="M297.7 260.12C297.7 260.12 293.08 264.12 297.99 267.57C298.23 267.71 298.42 267.86 298.66 268C299.965 268.582 301.437 268.667 302.8 268.24C304.823 267.584 306.691 266.523 308.29 265.12C308.39 264.88 308.43 264.64 308.53 264.4C308.63 264.16 308.68 263.92 308.77 263.63C308.92 263.1 309.06 262.63 309.16 262.09C310.118 257.685 310.651 253.197 310.75 248.69C310.75 247.53 310.75 246.38 310.75 245.27C309.707 246.263 308.579 247.163 307.38 247.96C306.167 248.743 304.896 249.435 303.58 250.03C302.67 250.46 301.7 250.85 300.79 251.23L299.1 251.9C297.56 252.53 296.02 253.11 294.58 253.78C294.1 254.02 293.58 254.21 293.13 254.45C292.21 256.85 292.07 260 297.7 260.12Z" fill="#90D35B"/>
<path d="M272.91 288.9C272.04 289.9 271.17 290.78 270.31 291.74C267.95 294.38 265.59 297.03 263.31 299.74C264.244 300.134 265.093 300.704 265.81 301.42C266.646 302.251 267.324 303.226 267.81 304.3C267.932 304.529 268.03 304.77 268.1 305.02C268.1 305.17 268.2 305.26 268.25 305.41C268.305 305.568 268.352 305.728 268.39 305.89C268.582 306.539 268.68 307.213 268.68 307.89C268.667 309.177 268.355 310.444 267.77 311.59C267.529 312.101 267.237 312.587 266.9 313.04L268.06 313.85C271.28 309.38 274.31 304.77 277.25 300.11C277.88 299.11 278.5 298.11 279.08 297.18L280.86 294.18C279.07 290.59 274.83 289.29 272.91 288.9Z" fill="#8B8FA2"/>
<path d="M265.88 314.18C264.546 315.561 263.02 316.743 261.35 317.69C259.823 318.603 258.232 319.405 256.59 320.09C253.398 321.383 250.116 322.443 246.77 323.26L245.52 323.55C243.88 326.1 242.34 328.74 240.89 331.38C240.46 332.15 240.03 332.92 239.64 333.74C239.45 335.37 239.21 337.2 238.82 339.26C239.209 339.26 239.591 339.36 239.93 339.55C240.51 339.93 240.99 340.22 241.52 340.61C242.05 341 242.52 341.33 243.01 341.71C243.5 342.09 243.73 342.34 244.07 342.63L244.31 342.39C244.75 341.95 245.08 341.52 245.52 341.14L247.87 338.59L250.23 336.04C251 335.18 251.73 334.31 252.5 333.45L254.76 330.81C255.48 329.94 256.3 329.08 256.97 328.16L261.31 322.73C263.62 319.73 265.83 316.73 268 313.73L266.89 312.91C266.574 313.35 266.237 313.774 265.88 314.18Z" fill="#8B8FA2"/>
<path d="M249.56 209.52C249.17 209.14 248.74 208.8 248.36 208.42C246.947 207.203 245.468 206.065 243.93 205.01C242.12 203.766 240.222 202.657 238.25 201.69C235.94 202.17 232.33 203.04 227.7 204.29L228.81 204.72C229.048 204.81 229.266 204.946 229.451 205.121C229.636 205.295 229.785 205.505 229.888 205.738C229.991 205.97 230.047 206.221 230.053 206.476C230.058 206.73 230.013 206.983 229.92 207.22C229.775 207.578 229.53 207.886 229.215 208.108C228.899 208.33 228.526 208.456 228.14 208.47C227.892 208.468 227.647 208.417 227.42 208.32L221.59 206.02C200.162 212.323 179.618 221.314 160.45 232.78C159.97 233.65 159.54 234.51 159.1 235.42C158.954 235.769 158.706 236.067 158.388 236.274C158.071 236.481 157.699 236.587 157.32 236.58C157.004 236.575 156.694 236.494 156.417 236.342C156.14 236.19 155.904 235.973 155.73 235.71C148.802 240.129 142.156 244.975 135.83 250.22C136.08 250.247 136.323 250.324 136.544 250.445C136.765 250.567 136.959 250.731 137.116 250.928C137.273 251.125 137.39 251.351 137.459 251.594C137.528 251.836 137.549 252.09 137.52 252.34C137.468 252.761 137.279 253.153 136.983 253.456C136.687 253.76 136.299 253.958 135.88 254.02C135.69 254.02 133.67 254.36 130.73 254.6L130.06 255.22C129.96 256.995 129.96 258.775 130.06 260.55C130.717 260.25 131.358 259.917 131.98 259.55C132.203 259.43 132.448 259.356 132.701 259.332C132.953 259.308 133.208 259.335 133.45 259.41C133.692 259.486 133.916 259.608 134.11 259.771C134.304 259.935 134.464 260.135 134.58 260.36C134.812 260.783 134.872 261.279 134.747 261.745C134.622 262.21 134.322 262.61 133.91 262.86C133.76 262.96 132.51 263.63 130.49 264.59C130.862 267.058 131.509 269.476 132.42 271.8C142.14 262.57 184.36 226.39 254.88 215.43C253.284 213.307 251.504 211.33 249.56 209.52ZM186.56 231.29C171.74 232.83 161.1 244.29 161 244.36C160.642 244.723 160.159 244.935 159.65 244.953C159.14 244.972 158.643 244.795 158.26 244.46C158.07 244.289 157.916 244.081 157.808 243.849C157.7 243.618 157.639 243.367 157.63 243.111C157.621 242.856 157.663 242.601 157.754 242.362C157.845 242.123 157.983 241.905 158.16 241.72C158.64 241.19 169.91 229.13 186.16 227.45C186.67 227.4 187.18 227.553 187.577 227.878C187.974 228.202 188.227 228.67 188.28 229.18C188.31 229.43 188.291 229.684 188.222 229.926C188.153 230.168 188.036 230.394 187.879 230.591C187.722 230.787 187.526 230.95 187.305 231.07C187.084 231.191 186.841 231.265 186.59 231.29H186.56ZM231.72 215.67C215.49 215.67 208.32 223.12 208.23 223.22C207.87 223.584 207.384 223.796 206.873 223.813C206.361 223.83 205.863 223.65 205.48 223.31C205.108 222.959 204.89 222.475 204.873 221.963C204.856 221.452 205.042 220.955 205.39 220.58C205.72 220.24 213.81 211.83 231.67 211.83C232.179 211.833 232.667 212.035 233.028 212.395C233.389 212.754 233.595 213.241 233.6 213.75C233.608 214.25 233.418 214.732 233.071 215.092C232.724 215.452 232.249 215.659 231.75 215.67H231.72Z" fill="#E36359"/>
<path d="M241.47 340.61C240.94 340.22 240.47 339.93 239.88 339.55C239.545 339.36 239.166 339.26 238.78 339.26C238.54 340.46 238.29 341.76 238.01 343.15L238.49 343.78L239.49 345.08C239.83 345.51 240.07 345.85 240.35 346.23L243 343.63L244 342.63C243.67 342.3 243.28 342.01 242.94 341.72C242.483 341.309 241.991 340.937 241.47 340.61Z" fill="#8B8FA2"/>
<path d="M238.54 343.78L238.01 343.15C237.57 345.27 237.01 347.57 236.32 350.07C236.95 349.54 237.52 349.02 238.15 348.44L240.41 346.18L239.55 345.03C239.26 344.64 238.83 344.21 238.54 343.78Z" fill="#8B8FA2"/>
<path d="M237.52 342.58L237.43 342.43C237.268 342.238 237.146 342.016 237.07 341.777C236.994 341.537 236.967 341.285 236.989 341.035C237.011 340.785 237.083 340.542 237.2 340.319C237.317 340.097 237.477 339.9 237.67 339.74C237.999 339.48 238.401 339.329 238.82 339.31C239.21 337.24 239.45 335.42 239.64 333.78C236.992 338.884 234.631 344.132 232.57 349.5C232.535 349.943 232.654 350.384 232.907 350.749C233.161 351.113 233.533 351.379 233.96 351.5C234.117 351.541 234.278 351.558 234.44 351.55H234.73C235.26 351.07 235.79 350.64 236.32 350.16C236.99 347.61 237.57 345.31 238.01 343.16L237.52 342.58Z" fill="#8B8FA2"/>
<path d="M237.38 342.43L237.48 342.58L237.96 343.2C238.25 341.81 238.54 340.51 238.73 339.31C238.307 339.327 237.901 339.478 237.57 339.74C237.208 340.084 236.988 340.551 236.953 341.048C236.918 341.546 237.07 342.039 237.38 342.43Z" fill="#8B8FA2"/>
<path d="M233.96 351.47C233.529 351.356 233.152 351.092 232.897 350.725C232.643 350.359 232.527 349.914 232.57 349.47C231.99 350.91 231.46 352.4 230.93 353.89L230.5 355.24V355.19L230.7 355.04L230.99 354.8L231.61 354.23L232.91 353.07L234.69 351.49H234.4C234.254 351.525 234.102 351.518 233.96 351.47Z" fill="#8B8FA2"/>
<path d="M243.54 351.08L242 352.57C240.27 354.16 238.44 355.7 236.66 357.28L235.31 358.43L234.64 359.01L234.44 359.16C234.385 359.218 234.321 359.265 234.25 359.3C234.08 359.414 233.92 359.541 233.77 359.68C233.167 360.116 232.52 360.488 231.84 360.79C230.996 361.204 230.085 361.465 229.15 361.56H228.67C228.47 361.56 228.28 361.51 228.09 361.51L227.46 361.37C227.22 361.27 227.03 361.17 226.79 361.08C226.35 360.814 225.958 360.476 225.63 360.08C225.363 359.738 225.138 359.365 224.96 358.97C224.812 358.654 224.714 358.316 224.67 357.97C224.67 357.73 224.67 357.44 224.57 357.15V356.48C224.57 356.29 224.57 356.05 224.57 355.86C224.763 354.496 225.098 353.155 225.57 351.86C228.37 344.02 231.833 336.433 235.92 329.18C235.976 327.814 235.913 326.445 235.73 325.09C232.73 325.53 229.67 325.81 226.73 326.01C226.226 326.054 225.725 325.897 225.337 325.573C224.949 325.249 224.705 324.784 224.66 324.28C224.614 323.79 224.759 323.302 225.064 322.916C225.37 322.53 225.812 322.277 226.3 322.21L227.36 322.02C232.36 321.15 237.47 320.14 242.36 318.89C243.36 318.65 244.36 318.37 245.36 318.08L246.08 317.89C247.43 317.5 248.73 317.07 250.08 316.59C251.53 316.06 252.97 315.48 254.37 314.91C255.74 314.276 257.076 313.568 258.37 312.79C259.572 312.078 260.672 311.207 261.64 310.2C262.04 309.803 262.377 309.348 262.64 308.85C262.822 308.526 262.918 308.161 262.92 307.79C262.92 307.65 262.92 307.51 262.92 307.36V307.27L262.82 307.07C262.776 306.919 262.712 306.774 262.63 306.64C262.419 306.197 262.161 305.778 261.86 305.39C261.58 305.107 261.237 304.895 260.86 304.77C260.361 304.614 259.842 304.533 259.32 304.53H259.27C258.189 304.533 257.109 304.614 256.04 304.77C255.666 304.81 255.295 304.873 254.93 304.96L252.53 305.39C250.12 305.82 247.53 306.3 245.02 306.55C241.579 306.947 238.102 306.913 234.67 306.45C234.469 306.413 234.274 306.349 234.09 306.26C233.834 306.168 233.603 306.015 233.419 305.815C233.234 305.615 233.101 305.373 233.03 305.11C232.26 302.9 231.03 300.11 229.81 297.28C229.617 297.071 229.468 296.827 229.37 296.56C229.37 296.41 229.37 296.32 229.28 296.17C227.28 291.75 225.38 287.91 225.33 287.86C225.269 287.539 225.154 287.232 224.99 286.95C224.849 286.507 224.853 286.032 225 285.591C225.148 285.151 225.431 284.769 225.81 284.5C229.81 281.85 233.9 279.36 237.81 276.67C237.95 276.57 238.05 276.47 238.19 276.38C239.06 275.8 239.88 275.22 240.7 274.6C241.52 273.98 242.62 273.21 243.54 272.48C245.37 271.04 247.15 269.48 248.83 267.92L250.03 266.72L250.66 266.09L251.24 265.47L252.39 264.22L253.5 262.92L254.03 262.25L254.56 261.58L255.56 260.18L256.56 258.74L257.04 258.02L257.48 257.3L258.34 255.81L259.11 254.32L259.5 253.55C259.63 253.301 259.743 253.044 259.84 252.78L260.51 251.25L261.09 249.66L261.38 248.89C261.47 248.65 261.52 248.36 261.62 248.07L262.1 246.44C262.24 245.91 262.34 245.34 262.48 244.81L262.68 243.99L262.82 243.17L263.06 241.49C263.11 240.96 263.11 240.39 263.16 239.81V238.99V236.49C263.16 235.92 263.06 235.39 263.01 234.81C262.907 233.68 262.73 232.557 262.48 231.45L262.29 230.58L262.1 229.77C261.95 229.24 261.81 228.66 261.66 228.13C261.51 227.6 261.33 227.03 261.18 226.5L260.89 225.68L260.75 225.35C260.691 225.225 260.644 225.094 260.61 224.96C260.36 224.43 260.17 223.96 259.93 223.42C259.69 222.88 259.45 222.42 259.16 221.89C258.87 221.36 258.63 220.89 258.34 220.4C258.05 219.91 257.77 219.4 257.48 218.91C256.736 217.7 255.932 216.529 255.07 215.4C184.45 226.31 142.28 262.54 132.55 271.72C133.102 273.108 133.771 274.446 134.55 275.72C135.849 277.928 137.381 279.989 139.12 281.87C139.36 282.11 139.55 282.35 139.79 282.59C140.029 282.804 140.256 283.031 140.47 283.27C140.909 283.726 141.373 284.156 141.86 284.56C142.35 285 142.86 285.38 143.36 285.77L144.13 286.34L144.94 286.92C147.119 288.445 149.424 289.784 151.83 290.92C154.266 292.075 156.795 293.022 159.39 293.75C164.705 295.258 170.187 296.098 175.71 296.25C181.344 296.369 186.979 296.035 192.56 295.25C193.119 295.191 193.678 295.354 194.118 295.704C194.558 296.053 194.842 296.562 194.91 297.12C194.972 297.62 194.85 298.125 194.566 298.541C194.283 298.957 193.857 299.255 193.37 299.38C187.602 300.838 181.695 301.676 175.75 301.88C175.383 301.872 175.015 301.888 174.65 301.93L174.55 302.26C174.388 302.863 174.194 303.457 173.97 304.04C173.73 304.62 173.54 305.2 173.35 305.77C173.142 306.343 172.902 306.904 172.63 307.45C172.38 307.98 172.14 308.56 171.86 309.14C171.58 309.72 171.33 310.24 171.04 310.77L170.22 312.4L169.35 313.99C168.77 315.05 168.15 316.06 167.52 317.11C166.89 318.16 166.22 319.11 165.6 320.19L163.6 323.19L161.48 326.12L157.19 331.74C155.84 333.57 154.64 335.44 153.49 337.36C152.373 339.3 151.372 341.303 150.49 343.36C150.3 343.89 150.06 344.36 149.87 344.9L149.29 346.44C148.946 347.481 148.655 348.539 148.42 349.61C147.892 351.701 147.6 353.844 147.55 356C147.488 358.093 147.666 360.187 148.08 362.24C149.002 366.372 150.976 370.195 153.81 373.34C156.783 376.611 160.261 379.386 164.11 381.56C168.108 383.81 172.277 385.739 176.58 387.33C177.064 387.496 177.463 387.847 177.689 388.306C177.916 388.765 177.952 389.295 177.79 389.78C177.62 390.243 177.285 390.626 176.849 390.857C176.413 391.087 175.908 391.149 175.43 391.03C173.21 390.45 171 389.83 168.78 389.03C168.78 389.27 168.83 389.51 168.83 389.75C168.928 390.415 169.124 391.062 169.41 391.67C169.98 392.939 170.877 394.033 172.01 394.84C173.288 395.714 174.66 396.441 176.1 397.01C177.64 397.63 179.23 398.25 180.87 398.83C184.09 399.98 187.37 400.99 190.64 401.83C193.903 402.736 197.215 403.457 200.56 403.99C202.19 404.28 203.88 404.42 205.47 404.57L206.67 404.62H207.78C208.453 404.573 209.121 404.476 209.78 404.33C210.321 404.172 210.839 403.944 211.32 403.65C211.663 403.454 211.933 403.152 212.09 402.79C212.246 402.481 212.312 402.135 212.28 401.79C212.218 401.314 212.055 400.857 211.8 400.45C211.521 399.961 211.163 399.522 210.74 399.15C210.502 398.932 210.245 398.738 209.97 398.57C209.832 398.465 209.689 398.368 209.54 398.28L209.06 397.99C207.646 397.18 206.183 396.459 204.68 395.83C201.6 394.53 198.37 393.43 195.15 392.42C194.703 392.355 194.295 392.129 194.003 391.785C193.71 391.44 193.553 391.002 193.56 390.55V390.26C193.601 390.006 193.696 389.763 193.837 389.548C193.978 389.333 194.163 389.149 194.38 389.01L194.67 388.82L195.67 388.19C197.67 386.85 199.67 385.5 201.49 384.06C202.55 383.19 203.61 382.38 204.49 381.46C205.437 380.583 206.335 379.655 207.18 378.68C208.768 376.852 209.978 374.728 210.74 372.43C211.415 370.249 211.515 367.931 211.03 365.7C210.49 363.278 209.528 360.97 208.19 358.88C206.801 356.625 205.207 354.503 203.43 352.54C201.595 350.494 199.649 348.551 197.6 346.72C196.6 345.72 195.53 344.9 194.47 343.99C193.41 343.08 192.31 342.21 191.25 341.39C191.04 341.246 190.862 341.062 190.724 340.848C190.586 340.634 190.492 340.396 190.448 340.145C190.403 339.895 190.409 339.638 190.464 339.39C190.519 339.142 190.623 338.908 190.77 338.7C191.039 338.308 191.444 338.032 191.907 337.924C192.37 337.817 192.856 337.887 193.27 338.12C194.67 338.8 195.92 339.52 197.27 340.29C198.62 341.06 199.77 341.87 200.98 342.69C202.19 343.51 203.38 344.47 204.54 345.38C205.7 346.29 206.8 347.3 207.91 348.38C210.149 350.498 212.16 352.844 213.91 355.38C215.732 358.082 217.053 361.09 217.81 364.26C218.572 367.641 218.388 371.166 217.28 374.45C216.173 377.592 214.38 380.448 212.03 382.81C211.226 383.629 210.374 384.401 209.48 385.12C211.202 384.496 212.873 383.74 214.48 382.86C218.621 380.708 222.289 377.75 225.27 374.16C225.8 373.25 226.95 372.34 227.87 372.87C228.088 372.999 228.277 373.171 228.427 373.375C228.577 373.579 228.684 373.811 228.742 374.058C228.8 374.305 228.808 374.56 228.764 374.81C228.721 375.059 228.628 375.297 228.49 375.51C226.485 379.385 223.477 382.652 219.78 384.97C223.155 386.853 226.646 388.523 230.23 389.97C231.29 390.4 232.39 390.79 233.45 391.13C233.98 391.27 234.51 391.46 235.09 391.61C235.67 391.76 236.15 391.89 236.77 391.99C239.036 392.523 241.3 392.957 243.56 393.29C244.598 393.422 245.643 393.485 246.69 393.48C247.512 393.483 248.329 393.337 249.1 393.05C249.313 392.978 249.506 392.858 249.664 392.698C249.822 392.538 249.941 392.344 250.01 392.13L250.11 391.94C250.11 391.85 250.11 391.8 250.11 391.7C250.116 391.537 250.147 391.375 250.2 391.22C250.25 390.936 250.25 390.644 250.2 390.36C250.144 390.011 250.033 389.674 249.87 389.36C249.7 388.991 249.471 388.653 249.19 388.36C248.577 387.597 247.883 386.903 247.12 386.29C246.271 385.62 245.386 384.995 244.47 384.42L243.03 383.55L241.87 382.88C241.49 383.17 241.06 383.46 240.67 383.74L237.59 385.67C236.59 386.29 235.47 386.77 234.36 387.35C234.141 387.477 233.898 387.557 233.647 387.587C233.396 387.616 233.141 387.595 232.899 387.522C232.657 387.45 232.431 387.33 232.237 387.168C232.043 387.006 231.884 386.806 231.77 386.58C231.533 386.168 231.46 385.682 231.566 385.219C231.672 384.755 231.948 384.349 232.34 384.08V384.03C235.897 381.407 239.145 378.387 242.02 375.03L243.02 373.78C243.336 373.365 243.627 372.931 243.89 372.48L244.32 371.85C244.46 371.66 244.56 371.42 244.7 371.18C244.95 370.75 245.19 370.32 245.43 369.84C246.29 368.098 246.873 366.232 247.16 364.31C247.493 360.394 246.684 356.465 244.83 353C244.314 352.422 243.88 351.776 243.54 351.08ZM219.38 256.61C219.328 258.133 218.949 259.626 218.27 260.99C217.881 261.73 217.378 262.405 216.78 262.99C216.147 263.596 215.412 264.087 214.61 264.44C213.868 264.752 213.093 264.977 212.3 265.11C211.5 265.21 210.69 265.21 209.89 265.11C208.158 264.919 206.545 264.139 205.32 262.9C204.693 262.249 204.2 261.481 203.87 260.64C203.781 260.442 203.718 260.234 203.68 260.02C203.623 259.846 203.576 259.669 203.54 259.49L203.35 258.72C203.06 257.72 202.72 256.65 202.35 255.59C201.01 251.75 199.42 247.91 197.83 244.06C197.504 244.196 197.17 244.309 196.83 244.4C195.829 244.688 194.792 244.832 193.75 244.83C192.734 244.835 191.723 244.69 190.75 244.4C189.819 244.157 188.914 243.822 188.05 243.4C187.634 243.188 187.233 242.947 186.85 242.68C186.66 242.53 186.47 242.44 186.27 242.29C186.07 242.14 185.89 242.01 185.65 241.81C185.298 241.527 185.07 241.118 185.016 240.669C184.962 240.221 185.085 239.769 185.36 239.41C185.6 239.108 185.935 238.897 186.311 238.809C186.687 238.722 187.081 238.765 187.43 238.93L187.67 239.03L188.1 239.22L188.58 239.46C188.905 239.608 189.239 239.735 189.58 239.84C190.255 240.071 190.947 240.248 191.65 240.37C192.931 240.597 194.247 240.532 195.5 240.18C196.109 240.004 196.691 239.745 197.23 239.41C197.801 239.067 198.333 238.665 198.82 238.21C199.909 237.205 200.912 236.111 201.82 234.94C202.3 234.32 203.02 233.65 204.82 234.08L205.68 234.22C206.26 234.27 206.84 234.32 207.42 234.32C208.482 234.313 209.531 234.084 210.5 233.65C210.964 233.458 211.388 233.179 211.75 232.83C211.94 232.64 212.13 232.49 212.33 232.3C212.529 232.117 212.704 231.908 212.85 231.68C213.59 230.691 214.221 229.625 214.73 228.5C214.923 228.091 215.27 227.775 215.695 227.621C216.121 227.468 216.59 227.489 217 227.68C217.334 227.832 217.611 228.087 217.79 228.407C217.97 228.727 218.044 229.096 218 229.46C217.776 231.078 217.218 232.631 216.36 234.02C215.733 235.101 214.901 236.049 213.91 236.81C214.72 238.63 215.45 240.51 216.17 242.38C217.04 244.59 217.761 246.855 218.33 249.16C218.628 250.362 218.856 251.581 219.01 252.81C219.106 253.429 219.153 254.054 219.15 254.68C219.15 254.97 219.2 255.31 219.2 255.6C219.2 255.89 219.38 256.23 219.38 256.61Z" fill="white"/>
<path d="M246.43 281.12C245.18 281.02 243.88 280.93 242.63 280.88C238.46 283.628 234.004 285.915 229.34 287.7C229.97 289.05 230.98 291.16 232.08 293.52C236.003 291.88 240.137 290.796 244.36 290.3C245.56 290.15 246.82 290.01 248.07 289.96C248.69 289.96 249.32 289.96 249.94 289.96C250.56 289.96 251.1 289.96 251.58 289.96C252.513 289.916 253.437 289.755 254.33 289.48C254.678 289.369 255.013 289.222 255.33 289.04C255.561 288.894 255.77 288.715 255.95 288.51C256.314 288.005 256.516 287.402 256.53 286.78V285.63C256.498 285.316 256.417 285.009 256.29 284.72C256.011 284.094 255.561 283.56 254.99 283.18C254.28 282.698 253.501 282.327 252.68 282.08C251.722 281.786 250.737 281.592 249.74 281.5L248.15 281.35L246.43 281.12Z" fill="white"/>
<path d="M155.54 233.93C156.748 231.164 158.355 228.59 160.31 226.29C160.479 226.099 160.685 225.943 160.915 225.832C161.145 225.721 161.395 225.657 161.651 225.644C161.906 225.631 162.161 225.669 162.401 225.756C162.642 225.843 162.862 225.977 163.05 226.15C163.242 226.319 163.399 226.524 163.51 226.754C163.622 226.983 163.687 227.233 163.701 227.488C163.715 227.744 163.678 227.999 163.592 228.24C163.506 228.48 163.373 228.702 163.2 228.89C162.155 230.109 161.234 231.429 160.45 232.83C179.625 221.375 200.167 212.381 221.59 206.06L220.24 205.54C220.002 205.45 219.784 205.314 219.599 205.139C219.414 204.965 219.265 204.755 219.162 204.522C219.058 204.29 219.002 204.039 218.997 203.784C218.991 203.53 219.037 203.277 219.13 203.04C219.222 202.802 219.36 202.585 219.536 202.4C219.711 202.216 219.922 202.068 220.155 201.965C220.388 201.862 220.639 201.806 220.894 201.8C221.149 201.794 221.402 201.838 221.64 201.93L227.7 204.33C232.33 203.08 235.94 202.27 238.25 201.74C237.72 201.45 237.14 201.21 236.56 200.92C231.146 199.014 225.55 197.674 219.86 196.92C219.18 196.82 218.51 196.72 217.86 196.68C216.86 199.32 213.38 204.36 200.52 206.77C186.76 209.31 178.24 204.77 175.06 202.54C173.13 203.36 171.21 204.27 169.33 205.28C168.945 205.478 168.511 205.561 168.08 205.52C167.718 205.589 167.344 205.553 167.002 205.417C166.66 205.28 166.365 205.049 166.15 204.75V204.7C165.53 203.84 164.76 202.87 164.04 201.96C163.32 201.05 162.54 200.14 161.73 199.27C160.19 197.49 158.55 195.72 156.91 193.99L154.36 191.39C153.54 190.53 152.63 189.71 151.76 188.89C150.08 187.21 148.29 185.62 146.51 183.99C139.373 177.579 131.885 171.569 124.08 165.99C122.15 164.6 120.18 163.15 118.21 161.86L112.21 157.86C108.12 155.31 104.12 152.67 99.98 150.27L96.8999 148.44L95.36 147.53L94.59 147.05L93.96 146.71C92.0419 145.742 90.0042 145.033 87.8999 144.6C85.89 144.153 83.8137 144.088 81.7799 144.41C79.8668 144.69 78.0604 145.466 76.5399 146.66C75.7724 147.277 75.0475 147.945 74.37 148.66C73.7257 149.392 73.1748 150.202 72.73 151.07C71.9039 152.63 71.6324 154.425 71.96 156.16C72.59 159.67 75.5699 163.27 79.0399 165.58C79.4699 165.87 79.91 166.11 80.34 166.39L81.9299 167.26L85.1499 168.99C87.2699 170.14 89.44 171.34 91.51 172.54C95.74 174.95 99.93 177.4 104.12 179.94C108.31 182.48 112.4 185.04 116.49 187.73C118.49 189.07 120.58 190.42 122.56 191.81L125.56 193.88L128.56 195.99L131.56 198.11L134.5 200.32C136.5 201.76 138.4 203.32 140.32 204.79L141.77 205.94L143.16 207.14L146 209.5C147 210.26 147.83 211.13 148.75 211.95L151.44 214.44C151.803 214.798 152.015 215.281 152.033 215.79C152.052 216.299 151.875 216.796 151.54 217.18C151.297 217.46 150.977 217.662 150.62 217.76C146.296 221.203 142.543 225.307 139.5 229.92C137.919 232.224 136.522 234.648 135.32 237.17C134.129 239.672 133.126 242.259 132.32 244.91C131.7 246.894 131.203 248.915 130.83 250.96C133.62 250.72 135.45 250.48 135.5 250.44H135.98C142.287 245.184 148.916 240.328 155.83 235.9C155.625 235.62 155.491 235.294 155.441 234.951C155.39 234.608 155.424 234.257 155.54 233.93ZM114.96 180.4C106.49 175.07 112.36 169.74 112.36 169.74C112.36 169.74 115.87 164.74 124.73 170.65C133.59 176.56 162.73 205.97 162.73 205.97L154.98 211.11C149.28 204.48 123.48 185.74 114.96 180.4Z" fill="white"/>
<path d="M214.22 253.35C214.117 252.299 213.957 251.254 213.74 250.22C213.31 248.11 212.68 245.95 212.06 243.78C211.53 242.01 211 240.28 210.42 238.5L210.04 238.59C209.167 238.757 208.278 238.824 207.39 238.79C206.547 238.733 205.71 238.603 204.89 238.4C204.65 238.35 204.45 238.26 204.21 238.21C203.586 239.338 202.827 240.386 201.95 241.33C201.701 241.612 201.427 241.87 201.13 242.1C203.27 245.947 205.173 249.921 206.83 254C207.29 255.115 207.69 256.253 208.03 257.41L208.28 258.32C208.28 258.52 208.28 258.56 208.37 258.61C208.38 258.683 208.416 258.75 208.47 258.8C208.566 259.039 208.712 259.254 208.9 259.43C209.327 259.814 209.868 260.049 210.44 260.1C210.791 260.15 211.148 260.15 211.5 260.1C211.847 260.061 212.186 259.963 212.5 259.81C212.767 259.689 213.013 259.527 213.23 259.33C213.459 259.133 213.64 258.887 213.76 258.61C214.091 257.917 214.285 257.167 214.33 256.4V254.91C214.342 254.388 214.305 253.865 214.22 253.35Z" fill="white"/>
<path d="M197.33 193C197.47 193.24 197.62 193.53 197.76 193.77L206.43 193.05C206.43 193.05 206.33 192.81 206.19 192.43L202.33 192.57C200.7 192.71 199.01 192.85 197.33 193Z" fill="#F7C1C7"/>
<path d="M202.33 192.61C203.59 192.51 204.89 192.47 206.19 192.47C204.4 187.95 193.09 160.18 176.19 142.47C176.19 142.47 169.94 134.54 162.57 139.73C155.2 144.92 164.78 152.8 164.78 152.8C164.78 152.8 190.54 181.01 197.38 193.07C199.01 192.85 200.7 192.71 202.33 192.61Z" fill="#F7C1C7"/>
<path d="M124.83 170.65C115.97 164.74 112.46 169.65 112.46 169.65C112.46 169.65 106.54 174.98 115.06 180.32C123.58 185.66 149.33 204.44 155.06 211.07L162.81 205.93C162.81 205.93 133.59 176.51 124.83 170.65Z" fill="#F7C1C7"/>
<path d="M124.92 270.26C124.73 269.2 124.54 268.1 124.4 267.04C120.698 268.282 116.872 269.12 112.99 269.54H112.79C112.283 269.559 111.789 269.378 111.414 269.035C111.04 268.693 110.816 268.217 110.79 267.71C110.768 267.202 110.949 266.707 111.292 266.332C111.635 265.957 112.112 265.733 112.62 265.71C116.531 265.283 120.378 264.393 124.08 263.06C124.055 262.564 124.055 262.066 124.08 261.57C117.63 259.7 100.08 256.86 82.6299 272.96C82.6299 272.96 97.3599 280.7 118.63 273.49C118.63 273.49 101.11 288.96 115.84 313.04C115.84 313.04 127.97 303.04 128.98 281.27C128.611 280.622 128.277 279.954 127.98 279.27C126.607 276.398 125.58 273.374 124.92 270.26Z" fill="#E36359"/>
<path d="M231.75 211.83C213.84 211.83 205.75 220.24 205.46 220.58C205.127 220.963 204.953 221.458 204.971 221.965C204.99 222.472 205.2 222.952 205.56 223.31C205.942 223.647 206.438 223.825 206.948 223.808C207.457 223.792 207.94 223.581 208.3 223.22C208.3 223.12 215.52 215.67 231.8 215.67C232.309 215.67 232.797 215.468 233.157 215.108C233.518 214.748 233.72 214.259 233.72 213.75C233.699 213.239 233.484 212.755 233.117 212.397C232.751 212.04 232.262 211.837 231.75 211.83Z" fill="black"/>
<path d="M219.14 203C219.045 203.236 218.999 203.489 219.003 203.743C219.007 203.998 219.062 204.249 219.164 204.481C219.267 204.714 219.415 204.924 219.599 205.099C219.784 205.274 220.002 205.41 220.24 205.5L221.59 206.03L227.42 208.33C227.648 208.427 227.893 208.478 228.14 208.48C228.65 208.477 229.139 208.273 229.498 207.911C229.858 207.549 230.06 207.06 230.06 206.55C230.064 206.161 229.946 205.781 229.721 205.463C229.497 205.145 229.178 204.906 228.81 204.78L227.7 204.34L221.64 201.94C221.408 201.837 221.156 201.783 220.901 201.78C220.647 201.778 220.395 201.829 220.16 201.928C219.926 202.027 219.715 202.174 219.539 202.358C219.364 202.543 219.228 202.761 219.14 203Z" fill="black"/>
<path d="M219.33 254.69L219.18 252.82C219.034 251.59 218.81 250.371 218.51 249.17C217.934 246.866 217.209 244.601 216.34 242.39C215.62 240.52 214.9 238.64 214.08 236.82C215.057 236.041 215.889 235.097 216.54 234.03C217.361 232.624 217.914 231.078 218.17 229.47C218.23 229.024 218.113 228.572 217.844 228.211C217.575 227.85 217.175 227.609 216.73 227.54C216.366 227.501 215.999 227.576 215.68 227.755C215.361 227.935 215.106 228.209 214.95 228.54V228.59C214.418 229.711 213.771 230.773 213.02 231.76C212.83 232 212.64 232.2 212.49 232.39C212.309 232.58 212.115 232.757 211.91 232.92C211.536 233.251 211.115 233.524 210.66 233.73C209.694 234.174 208.644 234.406 207.58 234.41C207 234.41 206.43 234.36 205.85 234.31L204.98 234.17C203.2 233.73 202.48 234.41 201.98 235.03C201.053 236.185 200.051 237.277 198.98 238.3C198.506 238.764 197.975 239.168 197.4 239.5C196.867 239.853 196.279 240.113 195.66 240.27C194.411 240.643 193.09 240.708 191.81 240.46C191.109 240.329 190.418 240.152 189.74 239.93C189.399 239.825 189.065 239.698 188.74 239.55L188.26 239.31L187.83 239.12L187.59 239.02C187.388 238.922 187.168 238.866 186.943 238.855C186.719 238.843 186.494 238.877 186.283 238.953C186.071 239.03 185.877 239.147 185.712 239.3C185.547 239.452 185.413 239.636 185.32 239.84C185.157 240.187 185.116 240.579 185.203 240.953C185.29 241.327 185.5 241.66 185.8 241.9L186.43 242.38C186.61 242.529 186.804 242.66 187.01 242.77C187.39 243.01 187.83 243.25 188.21 243.49C189.074 243.914 189.978 244.249 190.91 244.49C191.894 244.731 192.898 244.875 193.91 244.92C194.952 244.923 195.989 244.778 196.99 244.49C197.33 244.396 197.663 244.282 197.99 244.15C199.57 247.99 201.16 251.84 202.51 255.68C202.9 256.74 203.23 257.8 203.51 258.81L203.7 259.58C203.74 259.756 203.79 259.93 203.85 260.1C203.85 260.3 203.99 260.49 204.04 260.73C204.385 261.564 204.876 262.329 205.49 262.99C206.718 264.233 208.327 265.029 210.06 265.25C210.861 265.34 211.669 265.34 212.47 265.25C213.271 265.146 214.05 264.917 214.78 264.57C215.581 264.224 216.313 263.736 216.94 263.13C217.557 262.562 218.062 261.883 218.43 261.13C219.132 259.778 219.512 258.283 219.54 256.76V255.76C219.47 255.36 219.33 255 219.33 254.69ZM214.33 256.42C214.286 257.188 214.089 257.94 213.75 258.63C213.618 258.9 213.439 259.144 213.22 259.35C213.011 259.553 212.767 259.715 212.5 259.83C212.179 259.964 211.843 260.061 211.5 260.12C211.149 260.17 210.792 260.17 210.44 260.12C209.868 260.069 209.327 259.834 208.9 259.45C208.713 259.274 208.566 259.059 208.47 258.82C208.42 258.82 208.42 258.68 208.37 258.63C208.32 258.58 208.37 258.54 208.27 258.34L208.03 257.43C207.65 256.23 207.26 255.12 206.83 254.02C205.179 249.936 203.282 245.955 201.15 242.1C201.44 241.86 201.68 241.57 201.97 241.33C202.853 240.39 203.612 239.342 204.23 238.21C204.446 238.296 204.671 238.36 204.9 238.4C205.724 238.602 206.564 238.732 207.41 238.79C208.295 238.848 209.184 238.781 210.05 238.59L210.44 238.5C210.97 240.28 211.55 242.05 212.08 243.78C212.75 245.95 213.33 248.11 213.76 250.22C213.95 251.28 214.15 252.29 214.24 253.35C214.24 253.88 214.34 254.35 214.34 254.88V255.65C214.37 255.89 214.32 256.28 214.32 256.42H214.33Z" fill="black"/>
<path d="M186.21 227.49C169.94 229.22 158.67 241.29 158.21 241.77C157.877 242.153 157.703 242.648 157.721 243.155C157.74 243.662 157.95 244.142 158.31 244.5C158.692 244.837 159.188 245.015 159.698 244.998C160.207 244.982 160.69 244.771 161.05 244.41C161.15 244.31 171.79 232.88 186.61 231.34C187.115 231.275 187.577 231.019 187.901 230.625C188.224 230.231 188.385 229.729 188.35 229.22C188.33 228.963 188.259 228.713 188.139 228.484C188.019 228.256 187.854 228.055 187.653 227.893C187.453 227.731 187.222 227.611 186.973 227.542C186.725 227.473 186.465 227.455 186.21 227.49Z" fill="black"/>
<path d="M163.05 226.15C162.865 225.982 162.648 225.852 162.412 225.768C162.176 225.684 161.926 225.648 161.676 225.661C161.426 225.674 161.181 225.736 160.955 225.844C160.73 225.952 160.527 226.104 160.36 226.29C158.41 228.593 156.804 231.167 155.59 233.93C155.486 234.163 155.429 234.414 155.423 234.669C155.417 234.924 155.462 235.177 155.555 235.415C155.649 235.652 155.788 235.868 155.966 236.051C156.143 236.234 156.356 236.38 156.59 236.48C156.834 236.579 157.097 236.627 157.36 236.62C157.737 236.623 158.106 236.515 158.422 236.311C158.738 236.107 158.988 235.814 159.14 235.47C159.524 234.558 159.975 233.675 160.49 232.83C161.293 231.443 162.21 230.126 163.23 228.89C163.544 228.492 163.7 227.991 163.667 227.485C163.633 226.979 163.414 226.504 163.05 226.15Z" fill="black"/>
<path d="M317.44 238.11L317.39 236.29V236.1C317.39 235.57 317.39 235.04 317.29 234.41C317.241 233.944 317.099 233.493 316.873 233.083C316.648 232.672 316.342 232.311 315.976 232.02C315.609 231.728 315.188 231.513 314.737 231.386C314.287 231.259 313.815 231.223 313.35 231.28C312.721 231.358 312.123 231.599 311.616 231.98C311.109 232.36 310.71 232.867 310.46 233.45L309.88 234.84V234.98L309.64 235.56C309.54 235.8 309.4 235.99 309.3 236.23L308.63 237.53L307.86 238.73C304.68 244.59 294.72 247.67 292.26 248.97L290.67 249.83L289.13 250.74C288.6 251.08 288.13 251.42 287.64 251.74L286.87 252.27L286.1 252.85C285.067 253.686 284.132 254.635 283.31 255.68C282.497 256.742 281.825 257.905 281.31 259.14C280.324 261.559 279.927 264.177 280.15 266.78C280.239 268.031 280.45 269.27 280.78 270.48C280.92 271.06 281.11 271.68 281.31 272.26C281.398 272.558 281.509 272.849 281.64 273.13C281.74 273.41 281.88 273.65 282.03 273.99C278.18 277.69 274.33 281.44 270.57 285.28C269.42 286.44 268.31 287.64 267.2 288.79C264.07 292.15 260.94 295.57 257.96 299.07C256.617 299.213 255.282 299.423 253.96 299.7C252.28 300.03 250.69 300.47 249.1 300.8C247.51 301.13 245.97 301.52 244.38 301.8C241.665 302.322 238.913 302.629 236.15 302.72C235.53 301.08 234.76 299.26 233.94 297.38C237.563 296.416 241.27 295.807 245.01 295.56C246.12 295.51 247.27 295.46 248.38 295.46H251.94C252.62 295.46 253.34 295.36 254.01 295.32C254.748 295.228 255.475 295.064 256.18 294.83C256.952 294.58 257.693 294.244 258.39 293.83C259.166 293.365 259.865 292.781 260.46 292.1C261.049 291.386 261.506 290.574 261.81 289.7C262.082 288.924 262.26 288.118 262.34 287.3C262.34 287.11 262.34 286.91 262.34 286.72V286.15C262.357 285.714 262.324 285.278 262.24 284.85C262.141 283.988 261.915 283.146 261.57 282.35C260.887 280.8 259.786 279.471 258.39 278.51C257.171 277.653 255.82 277.001 254.39 276.58C253.08 276.225 251.742 275.984 250.39 275.86C250.1 275.86 249.77 275.81 249.48 275.81C250.73 274.76 251.98 273.7 253.18 272.55C256.99 269.044 260.268 265.002 262.91 260.55L263.91 258.87L264.78 257.14C265.4 255.99 265.84 254.74 266.37 253.54C266.61 252.91 266.8 252.29 266.99 251.66L267.33 250.75C267.442 250.425 267.522 250.09 267.57 249.75L268.1 247.83C268.24 247.2 268.34 246.53 268.48 245.91L268.68 244.91C268.68 244.57 268.77 244.23 268.82 243.91L269.06 241.91C269.11 241.24 269.11 240.57 269.16 239.91V238.91C269.185 238.577 269.185 238.243 269.16 237.91L269.06 235.91C269.06 235.23 268.92 234.61 268.82 233.91C268.682 232.61 268.441 231.322 268.1 230.06L267.91 229.15L267.67 228.15C267.52 227.52 267.33 226.9 267.14 226.27C266.95 225.64 266.75 225.02 266.51 224.4L266.17 223.49L265.98 223.01C265.98 222.81 265.84 222.72 265.79 222.53C265.5 221.95 265.21 221.32 264.92 220.75C264.63 220.18 264.34 219.6 264.01 219.07C263.38 217.96 262.66 216.86 261.94 215.8C259.731 212.587 257.128 209.664 254.19 207.1C257.209 204.02 260.786 201.543 264.73 199.8C265.19 199.582 265.549 199.197 265.735 198.723C265.921 198.249 265.919 197.722 265.73 197.25C265.512 196.79 265.127 196.431 264.653 196.245C264.179 196.059 263.653 196.061 263.18 196.25C258.679 198.206 254.618 201.049 251.24 204.61C250.18 203.8 249.07 202.98 247.97 202.26C250.461 198.29 253.452 194.657 256.87 191.45C257.233 191.092 257.445 190.609 257.464 190.1C257.482 189.591 257.306 189.093 256.97 188.71C256.612 188.344 256.127 188.13 255.615 188.112C255.104 188.093 254.604 188.271 254.22 188.61C250.6 192.04 247.428 195.914 244.78 200.14C242.723 198.954 240.603 197.879 238.43 196.92H238.38L238.23 196.87C232.508 194.942 226.604 193.602 220.61 192.87C218.3 192.58 215.95 192.39 213.61 192.24C210.592 183.241 206.756 174.538 202.15 166.24C191.507 146.46 177.439 128.725 160.6 113.86H160.51C154.51 109.25 140.77 102.86 131.77 111.99C128.16 115.64 126.42 119.73 126.67 124.1C127.05 132.03 133.6 138.1 135.62 139.81C136 140.15 136.62 140.63 137.4 141.25C159.64 159.32 176.97 177.15 189.01 194.25C187.61 194.53 186.21 194.87 184.87 195.25C179.355 196.75 173.948 198.628 168.69 200.87C168.31 200.29 167.87 199.76 167.49 199.19C166.72 198.19 166 197.19 165.23 196.25C163.69 194.33 162.1 192.457 160.46 190.63L158 187.85C157.19 186.93 156.32 186.07 155.45 185.2C153.77 183.42 151.99 181.74 150.25 180.01C143.173 173.237 135.664 166.931 127.77 161.13C125.77 159.64 123.87 158.13 121.85 156.8C119.83 155.47 117.85 153.97 115.85 152.62C111.71 149.98 107.67 147.24 103.48 144.74L100.35 142.87L98.8102 141.87L98.0401 141.39C97.7193 141.191 97.3852 141.014 97.0401 140.86C94.6257 139.649 92.0692 138.745 89.4302 138.17C86.6973 137.57 83.8782 137.472 81.1102 137.88C78.2174 138.359 75.4773 139.51 73.1102 141.24C71.957 142.119 70.907 143.125 69.9802 144.24C69.023 145.342 68.2005 146.554 67.5301 147.85C66.8096 149.213 66.3357 150.692 66.1302 152.22C65.8979 153.751 65.9317 155.31 66.2302 156.83C66.8245 159.699 68.0965 162.383 69.9402 164.66C71.6454 166.835 73.692 168.72 76.0002 170.24C76.5849 170.635 77.1964 170.989 77.8302 171.3L79.4702 172.16L82.6501 173.84L89.0002 177.3C93.2402 179.61 97.4202 182.01 101.56 184.46C105.7 186.91 109.84 189.36 113.94 191.91C115.94 193.16 118.03 194.46 120.05 195.75L123.05 197.75L126.05 199.75L129.05 201.75L132.05 203.82C134.05 205.16 135.95 206.6 137.92 208L139.36 209.05L140.81 210.16L143.65 212.37C144.65 213.09 145.53 213.86 146.44 214.63L147.21 215.25C143.365 218.946 139.807 222.931 136.57 227.17C134.776 229.556 133.168 232.077 131.76 234.71C130.296 237.337 129.026 240.068 127.96 242.88C126.984 245.491 126.179 248.164 125.55 250.88C121.556 251.048 117.555 250.807 113.61 250.16C113.361 250.111 113.104 250.112 112.854 250.163C112.605 250.214 112.368 250.314 112.158 250.457C111.948 250.6 111.768 250.784 111.629 250.997C111.491 251.211 111.396 251.45 111.35 251.7C111.301 251.949 111.302 252.205 111.353 252.454C111.404 252.703 111.505 252.939 111.648 253.148C111.791 253.358 111.975 253.536 112.188 253.674C112.402 253.812 112.64 253.906 112.89 253.95C116.165 254.601 119.492 254.953 122.83 255H124.7C124.454 256.991 124.328 258.994 124.32 261V261.57C124.295 262.066 124.295 262.564 124.32 263.06C120.611 264.37 116.767 265.258 112.86 265.71C112.353 265.733 111.875 265.957 111.532 266.332C111.189 266.707 111.008 267.202 111.03 267.71C111.056 268.217 111.28 268.693 111.655 269.035C112.029 269.378 112.523 269.559 113.03 269.54H113.22C117.138 269.115 120.997 268.263 124.73 267C124.88 268.06 125.07 269.17 125.26 270.22C125.874 273.328 126.861 276.349 128.2 279.22C128.54 279.89 128.87 280.56 129.2 281.22C130.362 283.374 131.768 285.387 133.39 287.22C133.92 287.85 134.45 288.42 135.02 289C135.59 289.58 136.18 290.1 136.81 290.63C137.44 291.16 138.06 291.63 138.68 292.12L139.68 292.84L140.68 293.47C143.303 295.217 146.093 296.697 149.01 297.89C151.876 299.042 154.838 299.942 157.86 300.58C162.031 301.442 166.272 301.924 170.53 302.02C170.43 302.26 170.33 302.45 170.24 302.69C169.8 303.69 169.24 304.69 168.74 305.69C167.74 307.69 166.53 309.69 165.28 311.6C164.99 312.08 164.65 312.6 164.28 313.04L163.28 314.48L161.28 317.32L159.21 320.11L157.09 322.84C156.42 323.71 155.7 324.53 155.02 325.39C150.4 322.32 137.11 316.07 121.57 331.88C102.84 350.88 129.27 379.74 145.68 372.19C146.832 374.052 148.173 375.791 149.68 377.38L151.03 378.78C151.51 379.21 152.03 379.64 152.47 380.03L153.2 380.65L153.92 381.23L155.46 382.38C155.94 382.76 156.52 383.1 157 383.44L158.59 384.44L160.22 385.35C160.751 385.666 161.298 385.953 161.86 386.21C162.92 386.74 164.03 387.21 165.13 387.7C165.149 387.765 165.149 387.835 165.13 387.9C165.072 388.166 165.038 388.437 165.03 388.71C164.98 389.239 164.98 389.771 165.03 390.3C165.089 391.369 165.315 392.421 165.7 393.42C166.47 395.402 167.729 397.156 169.36 398.52C170.137 399.18 170.978 399.759 171.87 400.25L172.49 400.63C172.71 400.724 172.921 400.837 173.12 400.97L174.32 401.54C175.96 402.31 177.59 403.03 179.32 403.66C185.968 406.324 192.871 408.304 199.92 409.57C201.738 409.887 203.57 410.11 205.41 410.24L206.85 410.29H208.35C209.421 410.249 210.485 410.088 211.52 409.81C212.675 409.53 213.77 409.042 214.75 408.37C215.29 407.988 215.789 407.553 216.24 407.07C216.711 406.554 217.102 405.971 217.4 405.34C218.025 404.073 218.258 402.65 218.07 401.25C217.923 399.988 217.496 398.776 216.82 397.7C216.206 396.706 215.425 395.827 214.51 395.1C214.079 394.741 213.629 394.408 213.16 394.1C212.92 393.96 212.68 393.81 212.49 393.72L211.86 393.38C210.204 392.524 208.482 391.802 206.71 391.22L204.5 390.5C208.73 389.68 212.97 388.77 216 387.23L216.15 387.38C217.15 388.19 217.49 388.48 218.5 389.2C219.51 389.92 220.57 390.6 221.63 391.2C223.749 392.544 225.953 393.746 228.23 394.8C228.81 395.09 229.38 395.33 229.96 395.57C230.54 395.81 231.12 396.05 231.74 396.29C232.36 396.53 232.95 396.73 233.57 396.92L235.4 397.49C237.84 398.18 240.317 398.727 242.82 399.13C244.175 399.323 245.542 399.42 246.91 399.42C248.513 399.433 250.102 399.12 251.58 398.5C252.414 398.139 253.176 397.631 253.83 397C254.548 396.292 255.107 395.44 255.47 394.5C255.803 393.654 256.015 392.765 256.1 391.86C256.153 390.942 256.086 390.021 255.9 389.12C255.662 388.284 255.326 387.478 254.9 386.72C254.477 386.036 253.995 385.39 253.46 384.79C252.47 383.738 251.335 382.833 250.09 382.1C248.935 381.416 247.728 380.825 246.48 380.33C246.155 380.194 245.821 380.081 245.48 379.99L245.57 379.89C245.809 379.679 246.036 379.456 246.25 379.22L247.55 377.83C247.98 377.35 248.36 376.83 248.75 376.34L249.33 375.57C249.532 375.314 249.709 375.039 249.86 374.75C250.19 374.18 250.58 373.65 250.92 373.07C252.251 370.72 253.146 368.149 253.56 365.48C253.99 362.782 253.909 360.028 253.32 357.36C252.75 354.786 251.774 352.318 250.43 350.05C249.716 348.851 248.932 347.696 248.08 346.59C254.462 340.113 260.424 333.236 265.93 326C271.619 318.441 276.874 310.565 281.67 302.41C282.25 301.41 282.87 300.41 283.45 299.33L285.18 296.26C285.38 295.97 285.52 295.63 285.71 295.35C286.71 293.57 287.59 291.79 288.55 290.06L290.14 286.89C290.67 285.83 291.2 284.77 291.68 283.72C292.16 282.67 292.68 281.72 293.08 280.72C294.08 280.86 298.9 281.39 302.51 279.72C304.21 278.962 305.785 277.951 307.18 276.72C309.103 274.906 310.699 272.775 311.9 270.42C313.043 268.177 313.977 265.834 314.69 263.42C316.041 258.7 316.912 253.855 317.29 248.96C317.49 246.55 317.63 244.1 317.68 241.7C317.477 240.515 317.396 239.312 317.44 238.11ZM249.75 281.41C250.748 281.502 251.733 281.696 252.69 281.99C253.512 282.237 254.291 282.608 255 283.09C255.571 283.469 256.022 284.004 256.3 284.63C256.428 284.919 256.509 285.226 256.54 285.54C256.565 285.699 256.565 285.861 256.54 286.02V286.69C256.544 287.315 256.34 287.923 255.96 288.42C255.78 288.625 255.571 288.804 255.34 288.95C255.023 289.132 254.688 289.279 254.34 289.39C253.446 289.661 252.523 289.822 251.59 289.87C251.11 289.87 250.59 289.87 249.95 289.87C249.31 289.87 248.7 289.87 248.13 289.87C246.87 289.92 245.67 290.06 244.42 290.21C240.194 290.693 236.059 291.778 232.14 293.43C231.04 291.02 230.02 288.91 229.4 287.61C234.078 285.856 238.537 283.567 242.69 280.79C243.99 280.89 245.24 280.93 246.49 281.03L248.17 281.17L249.75 281.41ZM164.75 152.78C164.75 152.78 155.18 144.85 162.54 139.71C169.9 134.57 176.16 142.44 176.16 142.44C193.06 160.13 204.37 187.9 206.16 192.44C206.224 192.652 206.305 192.86 206.4 193.06L197.73 193.78C197.59 193.54 197.44 193.3 197.3 193.01C190.54 181 164.83 152.78 164.83 152.78H164.75ZM246.75 364.63C246.466 366.554 245.879 368.42 245.01 370.16C244.77 370.59 244.53 371.02 244.29 371.5C244.15 371.74 244.05 371.94 243.91 372.18L243.47 372.8L242.61 374.1L241.61 375.35C238.744 378.712 235.499 381.732 231.94 384.35L231.89 384.4C231.684 384.547 231.508 384.734 231.374 384.949C231.241 385.164 231.151 385.404 231.111 385.655C231.071 385.905 231.082 386.161 231.141 386.407C231.201 386.654 231.31 386.886 231.46 387.09C231.729 387.482 232.135 387.758 232.598 387.866C233.06 387.973 233.546 387.903 233.96 387.67C235.02 387.14 236.13 386.56 237.19 385.99C238.25 385.42 239.26 384.74 240.27 384.07C240.7 383.78 241.09 383.49 241.47 383.2L242.63 383.87L244.07 384.74C244.989 385.312 245.874 385.936 246.72 386.61C247.478 387.228 248.172 387.922 248.79 388.68C249.03 389.002 249.254 389.335 249.46 389.68C249.606 390.001 249.72 390.336 249.8 390.68C249.85 390.964 249.85 391.255 249.8 391.54C249.787 391.703 249.753 391.865 249.7 392.02C249.7 392.12 249.65 392.17 249.65 392.26L249.56 392.46C249.488 392.673 249.368 392.866 249.208 393.024C249.048 393.182 248.854 393.301 248.64 393.37C247.873 393.656 247.06 393.802 246.24 393.8C245.194 393.808 244.148 393.744 243.11 393.61C240.821 393.322 238.553 392.888 236.32 392.31C235.74 392.17 235.21 392.02 234.63 391.93C234.05 391.84 233.63 391.64 233 391.45C231.94 391.11 230.83 390.73 229.77 390.29C226.163 388.888 222.658 387.237 219.28 385.35V385.3C222.978 382.964 225.999 379.699 228.04 375.83C228.286 375.391 228.358 374.876 228.242 374.387C228.125 373.897 227.828 373.47 227.41 373.19C226.5 372.61 225.41 373.57 224.81 374.49C224.81 374.58 221.39 379.15 214.03 383.18C212.425 384.064 210.754 384.819 209.03 385.44C209.9 384.72 210.77 383.95 211.58 383.13C213.943 380.778 215.738 377.919 216.83 374.77C217.944 371.491 218.127 367.967 217.36 364.59C216.625 361.41 215.303 358.394 213.46 355.7C211.737 353.166 209.753 350.82 207.54 348.7C206.472 347.639 205.347 346.638 204.17 345.7C203.01 344.79 201.81 343.83 200.61 343.01C199.41 342.19 198.15 341.33 196.9 340.61C195.65 339.89 194.35 339.12 192.9 338.45C192.679 338.329 192.436 338.253 192.186 338.226C191.935 338.199 191.682 338.222 191.44 338.293C191.198 338.365 190.973 338.484 190.777 338.643C190.582 338.802 190.42 338.998 190.3 339.22C190.079 339.635 190.015 340.116 190.122 340.574C190.229 341.032 190.498 341.436 190.88 341.71C191.94 342.53 193.05 343.39 194.1 344.31C195.15 345.23 196.22 346.09 197.23 347.05C199.284 348.872 201.231 350.812 203.06 352.86C204.835 354.825 206.429 356.947 207.82 359.2C209.182 361.29 210.199 363.586 210.83 366C211.31 368.228 211.21 370.542 210.54 372.72C209.774 375.019 208.561 377.143 206.97 378.97C206.149 379.97 205.249 380.903 204.28 381.76C203.324 382.673 202.323 383.537 201.28 384.35C199.45 385.79 197.47 387.14 195.45 388.48L194.45 389.11L194.16 389.3C193.946 389.442 193.763 389.626 193.622 389.841C193.481 390.056 193.385 390.297 193.34 390.55V390.84C193.341 391.289 193.502 391.724 193.793 392.066C194.084 392.409 194.487 392.637 194.93 392.71C198.15 393.71 201.43 394.83 204.46 396.12C205.966 396.746 207.429 397.471 208.84 398.29L209.32 398.58C209.474 398.662 209.621 398.755 209.76 398.86C210.04 399.06 210.29 399.25 210.53 399.44C210.973 399.822 211.345 400.279 211.63 400.79C211.893 401.193 212.057 401.652 212.11 402.13C212.167 402.475 212.1 402.83 211.92 403.13C211.712 403.475 211.433 403.772 211.1 404C210.625 404.291 210.104 404.501 209.56 404.62C208.906 404.787 208.235 404.884 207.56 404.91H206.45L205.25 404.86C203.604 404.76 201.964 404.567 200.34 404.28C196.995 403.751 193.683 403.03 190.42 402.12C187.15 401.26 183.87 400.2 180.65 399.12C179.06 398.55 177.47 397.92 175.88 397.3C174.447 396.72 173.077 395.996 171.79 395.14C170.673 394.312 169.779 393.219 169.19 391.96C168.903 391.352 168.707 390.705 168.61 390.04C168.59 389.8 168.59 389.56 168.61 389.32C170.77 390.09 173.04 390.76 175.25 391.32C175.742 391.45 176.265 391.389 176.713 391.147C177.16 390.906 177.499 390.502 177.66 390.02C177.732 389.783 177.757 389.534 177.733 389.287C177.709 389.041 177.636 388.801 177.519 388.583C177.402 388.365 177.243 388.171 177.051 388.015C176.859 387.858 176.638 387.741 176.4 387.67C172.1 386.081 167.934 384.151 163.94 381.9C160.079 379.739 156.597 376.963 153.63 373.68C150.798 370.539 148.827 366.719 147.91 362.59C147.467 360.538 147.288 358.437 147.38 356.34C147.471 354.188 147.759 352.049 148.24 349.95C148.48 348.89 148.82 347.83 149.11 346.78L149.69 345.24C149.88 344.71 150.12 344.24 150.31 343.7C151.173 341.645 152.155 339.641 153.25 337.7C154.358 335.745 155.598 333.867 156.96 332.08L161.24 326.46L163.36 323.53L165.36 320.53C165.99 319.53 166.66 318.53 167.29 317.46C167.92 316.39 168.54 315.39 169.12 314.33L169.98 312.75L170.8 311.11C171.09 310.58 171.33 310.01 171.62 309.48C171.91 308.95 172.15 308.37 172.39 307.8C172.63 307.23 172.87 306.69 173.11 306.11C173.35 305.53 173.54 304.96 173.74 304.39C173.94 303.82 174.12 303.18 174.31 302.61L174.41 302.27C174.781 302.278 175.152 302.262 175.52 302.22C181.464 301.992 187.368 301.154 193.14 299.72C193.68 299.572 194.14 299.217 194.419 298.732C194.698 298.247 194.774 297.671 194.63 297.13C194.501 296.645 194.202 296.222 193.787 295.939C193.372 295.656 192.869 295.532 192.37 295.59C186.792 296.399 181.155 296.734 175.52 296.59C170 296.413 164.52 295.574 159.2 294.09C156.605 293.36 154.077 292.413 151.64 291.26C149.227 290.145 146.923 288.806 144.76 287.26L143.94 286.68L143.17 286.11C142.64 285.72 142.17 285.34 141.68 284.91C141.19 284.48 140.68 284.09 140.28 283.61C140.069 283.374 139.846 283.151 139.61 282.94C139.37 282.74 139.17 282.46 138.93 282.22C137.193 280.331 135.677 278.251 134.41 276.02C133.651 274.735 132.983 273.398 132.41 272.02C131.508 269.694 130.864 267.276 130.49 264.81C132.56 263.81 133.76 263.18 133.91 263.08C134.124 262.947 134.309 262.772 134.454 262.566C134.599 262.36 134.701 262.127 134.754 261.881C134.808 261.634 134.811 261.38 134.764 261.132C134.716 260.885 134.62 260.649 134.48 260.44C134.23 260.027 133.831 259.727 133.365 259.603C132.899 259.478 132.403 259.538 131.98 259.77C131.98 259.77 131.26 260.2 130.05 260.77C129.96 258.991 129.96 257.209 130.05 255.43C130.024 255.254 130.024 255.076 130.05 254.9H130.68C133.61 254.66 135.59 254.37 135.83 254.32C136.08 254.294 136.322 254.218 136.542 254.098C136.762 253.977 136.956 253.814 137.113 253.617C137.269 253.421 137.385 253.195 137.453 252.954C137.521 252.712 137.541 252.459 137.51 252.21C137.484 251.96 137.409 251.717 137.288 251.497C137.168 251.276 137.004 251.081 136.808 250.924C136.612 250.767 136.386 250.65 136.145 250.581C135.903 250.512 135.65 250.491 135.4 250.52H135.3C135.3 250.52 133.37 250.81 130.63 251.05C131.018 249.008 131.516 246.988 132.12 245C132.947 242.356 133.949 239.77 135.12 237.26C136.322 234.738 137.719 232.314 139.3 230.01C142.343 225.381 146.095 221.261 150.42 217.8C150.908 217.659 151.325 217.338 151.585 216.902C151.845 216.465 151.929 215.946 151.82 215.45C151.722 215.093 151.52 214.773 151.24 214.53L148.55 212.03C147.63 211.22 146.77 210.35 145.8 209.58L143.01 207.23L141.61 206.03L140.17 204.88C138.24 203.39 136.32 201.88 134.34 200.41L131.41 198.2C130.41 197.48 129.41 196.75 128.41 196.08L125.41 193.97L122.41 191.9C120.41 190.51 118.41 189.16 116.35 187.82C112.26 185.17 108.12 182.58 103.98 180.03C99.8402 177.48 95.6002 175.03 91.3602 172.63C89.2502 171.43 87.1302 170.23 85.0102 169.08L81.7801 167.35L80.2002 166.48C79.7602 166.24 79.3301 165.95 78.9001 165.67C75.4301 163.36 72.4402 159.8 71.8202 156.25C71.4919 154.512 71.7634 152.714 72.5902 151.15C73.0345 150.3 73.5857 149.51 74.2302 148.8C74.8541 148.036 75.581 147.363 76.3902 146.8C77.9433 145.653 79.7398 144.88 81.6402 144.54C83.6739 144.235 85.7468 144.316 87.7502 144.78C89.8564 145.222 91.8965 145.935 93.8202 146.9C94.0374 146.989 94.2452 147.099 94.4402 147.23L95.2202 147.71L96.7602 148.63L99.8402 150.45C104.02 152.86 108.02 155.45 112.11 158.05L118.11 162.05C120.11 163.35 122.11 164.79 123.98 166.19C131.786 171.772 139.278 177.781 146.42 184.19C148.2 185.82 149.98 187.41 151.67 189.09C152.53 189.91 153.4 190.72 154.22 191.59L156.72 194.13C158.36 195.86 159.99 197.59 161.53 199.42C162.35 200.28 163.07 201.25 163.84 202.11C164.61 202.97 165.34 203.98 166.01 204.85L166.06 204.9C166.272 205.199 166.566 205.431 166.907 205.567C167.247 205.704 167.62 205.74 167.98 205.67C168.415 205.73 168.858 205.646 169.24 205.43C171.1 204.414 173.012 203.5 174.97 202.69C178.14 204.9 186.66 209.46 200.43 206.92C213.33 204.51 216.8 199.47 217.76 196.82C218.44 196.92 219.11 196.97 219.76 197.06C225.453 197.814 231.053 199.154 236.47 201.06C237.05 201.3 237.58 201.59 238.15 201.88C240.102 202.879 241.999 203.984 243.83 205.19C245.377 206.233 246.856 207.372 248.26 208.6C248.65 208.94 249.08 209.33 249.47 209.71C251.428 211.559 253.231 213.565 254.86 215.71C255.72 216.86 256.49 218.01 257.26 219.22C257.55 219.7 257.84 220.22 258.13 220.71C258.42 221.2 258.66 221.71 258.95 222.2C259.237 222.694 259.494 223.205 259.72 223.73C259.96 224.26 260.15 224.73 260.39 225.27C260.39 225.41 260.49 225.51 260.54 225.66L260.68 225.99L260.97 226.81C261.159 227.345 261.319 227.889 261.45 228.44C261.6 228.97 261.74 229.55 261.89 230.08L262.08 230.89L262.27 231.76C262.519 232.867 262.696 233.99 262.8 235.12C262.8 235.7 262.95 236.23 262.95 236.8V240C262.95 240.58 262.95 241.1 262.85 241.68L262.61 243.36C262.584 243.637 262.534 243.912 262.46 244.18L262.27 245C262.13 245.52 262.03 246.1 261.89 246.63L261.4 248.26C261.31 248.55 261.26 248.79 261.16 249.08L260.88 249.9C260.68 250.43 260.49 250.95 260.3 251.48L259.83 253C259.74 253.24 259.59 253.53 259.5 253.77L259.11 254.54L258.34 256.08L257.47 257.57L257.04 258.29L256.56 259.01L255.56 260.45L254.56 261.84L254.07 262.51L253.55 263.19L252.44 264.48L251.28 265.73L250.7 266.36L250.08 266.98L248.88 268.18C247.194 269.794 245.425 271.32 243.58 272.75C242.67 273.47 241.7 274.19 240.74 274.86C239.78 275.53 239.1 276.06 238.24 276.64C238.09 276.74 238 276.83 237.85 276.93C233.95 279.62 229.91 282.12 225.85 284.76C225.456 285.015 225.161 285.397 225.014 285.842C224.867 286.288 224.876 286.77 225.04 287.21C225.194 287.499 225.305 287.809 225.37 288.13C225.37 288.13 227.3 292.07 229.37 296.44C229.38 296.572 229.414 296.701 229.47 296.82C229.552 297.092 229.7 297.339 229.9 297.54C231.15 300.28 232.36 303.17 233.13 305.38C233.306 305.876 233.663 306.287 234.13 306.53V306.48C234.314 306.569 234.509 306.633 234.71 306.67C238.144 307.113 241.618 307.147 245.06 306.77C247.61 306.53 250.17 306.05 252.57 305.62L254.98 305.18C255.36 305.18 255.75 305.04 256.09 304.99C257.151 304.791 258.231 304.71 259.31 304.75C259.832 304.761 260.35 304.842 260.85 304.99C261.237 305.1 261.584 305.319 261.85 305.62C262.209 305.965 262.474 306.395 262.62 306.87C262.668 307.021 262.735 307.166 262.82 307.3L262.91 307.49L262.96 307.59C262.96 307.73 262.96 307.87 263.06 308.02C263.064 308.393 262.964 308.761 262.77 309.08C262.51 309.577 262.172 310.029 261.77 310.42C260.799 311.43 259.695 312.305 258.49 313.02C257.215 313.829 255.878 314.535 254.49 315.13C253.094 315.771 251.661 316.332 250.2 316.81C248.9 317.29 247.56 317.73 246.26 318.11L245.53 318.3C244.53 318.59 243.53 318.88 242.53 319.12C237.62 320.42 232.61 321.38 227.53 322.24L226.47 322.43C225.974 322.518 225.529 322.791 225.224 323.193C224.92 323.596 224.78 324.098 224.83 324.6C224.9 325.085 225.154 325.526 225.539 325.829C225.925 326.132 226.412 326.276 226.9 326.23C229.9 326.04 232.97 325.75 235.95 325.32C236.163 326.669 236.23 328.037 236.15 329.4C232.107 336.674 228.656 344.262 225.83 352.09C225.355 353.384 225.02 354.725 224.83 356.09C224.83 356.28 224.83 356.52 224.83 356.71V357.39C224.84 357.662 224.87 357.933 224.92 358.2C224.965 358.546 225.063 358.883 225.21 359.2C225.377 359.59 225.588 359.959 225.84 360.3C226.162 360.698 226.551 361.037 226.99 361.3C227.19 361.4 227.43 361.49 227.67 361.59L228.29 361.73C228.481 361.771 228.676 361.788 228.87 361.78H229.35C230.293 361.708 231.211 361.446 232.05 361.01C232.72 360.68 233.35 360.29 233.97 359.91C234.12 359.81 234.26 359.67 234.46 359.52C234.66 359.37 234.6 359.43 234.65 359.38L234.79 359.24L235.47 358.66L236.81 357.51C238.6 355.92 240.42 354.38 242.16 352.8L243.7 351.31C244.08 352.03 244.47 352.7 244.81 353.42C246.535 356.888 247.216 360.782 246.77 364.63H246.75ZM280.83 294.09L279.05 297.09C278.47 298.09 277.8 299.09 277.22 300.02C274.28 304.69 271.22 309.3 268.03 313.77C265.86 316.84 263.6 319.82 261.33 322.77L257 328.2C256.28 329.11 255.51 329.98 254.79 330.84L252.52 333.49C251.75 334.35 251.03 335.26 250.26 336.08L247.9 338.63L245.54 341.17C245.169 341.613 244.768 342.031 244.34 342.42L244.1 342.66L243.1 343.66L240.5 346.31L238.24 348.57C237.66 349.09 237.03 349.67 236.41 350.2C235.79 350.73 235.35 351.2 234.82 351.59L233.04 353.18L231.74 354.33L231.11 354.91L230.82 355.15L230.63 355.29V355.34C230.731 354.88 230.879 354.431 231.07 354C231.6 352.51 232.07 351 232.7 349.58C234.721 344.194 237.086 338.943 239.78 333.86C240.16 333.09 240.6 332.32 241.03 331.51C242.47 328.87 244.03 326.22 245.65 323.68L246.9 323.39C250.247 322.577 253.529 321.517 256.72 320.22C258.367 319.533 259.961 318.728 261.49 317.81C263.162 316.848 264.687 315.653 266.02 314.26C266.377 313.88 266.711 313.479 267.02 313.06C267.35 312.604 267.638 312.119 267.88 311.61C268.473 310.466 268.788 309.198 268.8 307.91C268.796 307.233 268.699 306.56 268.51 305.91C268.46 305.76 268.41 305.57 268.36 305.43C268.31 305.29 268.27 305.19 268.22 305.04L267.93 304.32C267.444 303.246 266.766 302.27 265.93 301.44C265.211 300.722 264.358 300.151 263.42 299.76C265.69 297.07 268.05 294.42 270.42 291.76C271.29 290.76 272.16 289.89 273.02 288.92C274.95 289.36 279.14 290.61 280.97 294.11L280.83 294.09ZM290.03 277.32C289.78 277.85 289.5 278.32 289.26 278.86C288.73 279.86 288.2 280.93 287.67 281.94C287.14 282.95 286.61 284 286.03 285.01C285.45 286.02 284.92 287.01 284.34 288.01L283.05 290.32C281.146 288.142 278.679 286.53 275.92 285.66C279.39 282 282.92 278.45 286.46 274.89L286.9 274.46C287.133 274.509 287.359 274.59 287.57 274.7C288.088 274.872 288.588 275.096 289.06 275.37C289.495 275.567 289.889 275.846 290.22 276.19C290.31 276.29 290.36 276.38 290.46 276.48C290.33 276.8 290.19 277 290.05 277.32H290.03ZM310.73 248.69C310.631 253.197 310.098 257.685 309.14 262.09C309.04 262.62 308.9 263.09 308.75 263.63C308.686 263.891 308.606 264.148 308.51 264.4C308.41 264.69 308.37 264.88 308.27 265.12C308.17 265.36 308.08 265.65 307.98 265.94C307.88 266.23 307.84 266.42 307.74 266.66C307.55 267.23 307.31 267.76 307.07 268.34C306.242 270.245 305.103 271.998 303.7 273.53C303.31 273.91 302.93 274.25 302.54 274.59C301.414 275.495 300.124 276.175 298.74 276.59L298.4 276.69C297.521 276.918 296.618 277.046 295.71 277.07H294.41C294.45 276.768 294.45 276.462 294.41 276.16C294.167 275.171 293.646 274.273 292.91 273.57C292.324 272.974 291.649 272.471 290.91 272.08C290.254 271.702 289.56 271.394 288.84 271.16C288.5 271.07 288.12 270.92 287.78 270.83C287.44 270.74 287.11 270.64 286.67 270.54C286.372 270.488 286.066 270.504 285.775 270.587C285.484 270.67 285.216 270.818 284.99 271.02C284.848 270.53 284.734 270.033 284.65 269.53C284.461 268.541 284.364 267.537 284.36 266.53C284.306 264.608 284.703 262.7 285.52 260.96C286.344 259.279 287.587 257.84 289.13 256.78L289.71 256.39L290.38 256.01C290.81 255.77 291.25 255.48 291.73 255.19L293.12 254.47C293.61 254.23 294.12 253.99 294.57 253.8C296.01 253.13 297.51 252.55 299.09 251.93L300.78 251.25C301.69 250.87 302.61 250.48 303.57 250.05C304.876 249.439 306.145 248.751 307.37 247.99C308.579 247.202 309.707 246.297 310.74 245.29C310.75 246.38 310.75 247.53 310.75 248.69H310.73Z" fill="black"/>
</g>
<defs>
<linearGradient id="paint0_linear_3327_22819" x1="190" y1="0" x2="190" y2="406.44" gradientUnits="userSpaceOnUse">
<stop stop-color="#4A4156"/>
<stop offset="1" stop-color="#4E4156" stop-opacity="0"/>
</linearGradient>
<clipPath id="clip0_3327_22819">
<rect width="379.99" height="410.38" fill="white"/>
</clipPath>
</defs>
</svg>
