<svg width="24" height="24" viewBox="0 0 24 24" fill="none" xmlns="http://www.w3.org/2000/svg">
<path d="M15.5805 11.1052V5.3684C15.5805 4.75422 15.8133 4.16518 16.2277 3.73089C16.642 3.29659 17.204 3.05261 17.79 3.05261C18.376 3.05261 18.938 3.29659 19.3523 3.73089C19.7667 4.16518 19.9995 4.75422 19.9995 5.3684C19.9995 5.3684 19.9995 15.6042 19.9995 15.9137C20.0088 16.5698 19.8938 17.2213 19.6611 17.8305C19.4285 18.4397 19.0828 18.9945 18.6442 19.4627C18.2055 19.9308 17.6826 20.3031 17.1057 20.558C16.5288 20.8129 15.9093 20.9452 15.2833 20.9474H7.79519C6.60276 20.9454 5.45365 20.4786 4.57145 19.6378C3.68926 18.7969 3.13706 17.6421 3.0223 16.3981C2.90755 15.1541 3.23844 13.9098 3.9506 12.9074C4.66276 11.9049 5.70526 11.216 6.87525 10.9747V5.3684C6.87525 4.75422 7.10803 4.16518 7.52239 3.73089C7.93674 3.29659 8.49873 3.05261 9.08471 3.05261C9.6707 3.05261 10.2327 3.29659 10.647 3.73089C11.0614 4.16518 11.2942 4.75422 11.2942 5.3684V11.1052" stroke="white" stroke-width="1.34211"/>
<path d="M6.13184 15.579H8.81605M12.395 15.579H13.2897H15.0792" stroke="white" stroke-width="1.34211" stroke-linecap="round"/>
</svg>
