<svg width="24" height="8" viewBox="0 0 24 20" fill="none" xmlns="http://www.w3.org/2000/svg">
<path d="M7.99953 1.30602C9.53859 1.06368 11.1057 1.06368 12.6447 1.30602L13.0931 0.385191C13.0931 0.223643 13.2374 0.191324 13.4135 0.223633C14.7219 0.467043 15.9965 0.868448 17.2098 1.41912C17.3391 1.47216 17.4503 1.56196 17.53 1.6776C18.9239 3.72967 19.8635 6.06022 20.285 8.51102C20.5328 9.98884 20.5974 11.492 20.4772 12.9859C20.4736 13.0787 20.4486 13.1693 20.4041 13.2507C20.3596 13.332 20.297 13.4017 20.2211 13.4544C18.7495 14.4938 17.129 15.3001 15.4158 15.8453C15.3844 15.8615 15.3502 15.8709 15.3151 15.873C15.28 15.8752 15.2447 15.8701 15.2116 15.858C15.1786 15.8458 15.1484 15.827 15.1229 15.8025C15.0973 15.7781 15.0772 15.7487 15.0634 15.7161C14.7591 15.1991 14.4225 14.666 14.0862 14.1006L15.8162 13.2605C15.5759 12.9213 15.4477 12.8728 15.1434 13.0021C13.5949 13.7052 11.9162 14.0687 10.218 14.0687C8.51983 14.0687 6.84089 13.7052 5.29242 13.0021C5.05216 12.889 4.95604 13.002 4.68374 13.2605L5.5167 13.6967L6.38172 14.0844L6.23761 14.4075L5.40466 15.7483C5.40466 15.8776 5.24438 15.8776 5.10022 15.7483C3.37942 15.2071 1.7567 14.3888 0.294885 13.3251C0.228318 13.2846 0.172948 13.2279 0.133768 13.1601C0.0945886 13.0924 0.0728284 13.0158 0.0706124 12.9374C-0.173246 10.2506 0.216582 7.54375 1.20801 5.03781C1.68917 3.81937 2.29584 2.65519 3.01802 1.5645C3.08334 1.46867 3.17132 1.39088 3.27417 1.33831C4.50903 0.782261 5.80486 0.375563 7.13451 0.126709C7.29469 0.126709 7.37488 0.126752 7.43895 0.272145L7.99953 1.30602ZM15.5759 8.78562C15.5448 8.5455 15.4967 8.30795 15.4318 8.07481C15.3523 7.76594 15.191 7.48468 14.9653 7.26106C14.7396 7.03744 14.4579 6.87989 14.1503 6.80523C13.8427 6.73057 13.5207 6.7416 13.2188 6.83718C12.9169 6.93276 12.6466 7.10934 12.4365 7.34793C12.0705 7.76452 11.8685 8.30183 11.8685 8.85839C11.8685 9.41496 12.0705 9.95226 12.4365 10.3689C12.6073 10.5528 12.8161 10.6963 13.0483 10.7894C13.2805 10.8825 13.5302 10.9227 13.7796 10.9073C14.029 10.8919 14.2718 10.8212 14.4909 10.7002C14.7101 10.5791 14.9002 10.4108 15.0474 10.2072C15.3741 9.80509 15.5599 9.3053 15.5759 8.78562ZM8.80042 8.78562C8.7587 8.5182 8.69987 8.25381 8.62425 7.99406C8.52198 7.67674 8.33461 7.39412 8.08302 7.17745C7.83143 6.96077 7.52541 6.81846 7.19864 6.76628C6.89523 6.712 6.58273 6.7472 6.29862 6.86755C6.01451 6.98789 5.77085 7.18835 5.59686 7.44485C5.28087 7.86338 5.1206 8.38049 5.14402 8.90602C5.16744 9.43155 5.37298 9.93209 5.72494 10.3203C5.8858 10.5056 6.08406 10.6541 6.30644 10.7559C6.52882 10.8576 6.77027 10.9102 7.01445 10.9102C7.25864 10.9102 7.49989 10.8576 7.72227 10.7559C7.94465 10.6541 8.14291 10.5056 8.30377 10.3203C8.63719 9.88664 8.81261 9.35045 8.80042 8.8018V8.78562Z" fill="white"/>
</svg>
