<svg width="24" height="20" viewBox="0 0 24 24" fill="none" xmlns="http://www.w3.org/2000/svg">
<path d="M22 4.91205C21.2639 5.24665 20.4704 5.46654 19.6482 5.5717C20.4895 5.06501 21.1396 4.26195 21.4455 3.29637C20.652 3.77438 19.7725 4.10899 18.8451 4.30019C18.0899 3.47801 17.0287 3 15.8241 3C13.5774 3 11.7419 4.83556 11.7419 7.10134C11.7419 7.42639 11.7801 7.74187 11.847 8.03824C8.4436 7.86616 5.413 6.23136 3.39579 3.75526C3.04207 4.35755 2.8413 5.06501 2.8413 5.81071C2.8413 7.23518 3.55832 8.49713 4.6673 9.21415C3.98853 9.21415 3.35755 9.02294 2.80306 8.73614C2.80306 8.73614 2.80306 8.73614 2.80306 8.76482C2.80306 10.7533 4.21797 12.4168 6.09178 12.7897C5.74761 12.8853 5.38432 12.9331 5.01147 12.9331C4.75335 12.9331 4.49522 12.9044 4.24665 12.8566C4.76291 14.4723 6.26386 15.6769 8.07075 15.7055C6.67495 16.8145 4.90631 17.4646 2.97514 17.4646C2.6501 17.4646 2.32505 17.4455 2 17.4073C3.81644 18.5736 5.97706 19.2524 8.29063 19.2524C15.8241 19.2524 19.9637 13 19.9637 7.57935C19.9637 7.39771 19.9637 7.22562 19.9541 7.04398C20.7572 6.47036 21.4455 5.74379 22 4.91205Z" fill="white"/>
</svg>
