<svg width="24" height="24" viewBox="0 0 24 24" fill="none" xmlns="http://www.w3.org/2000/svg">
<path fill-rule="evenodd" clip-rule="evenodd" d="M8.61428 3.73659C9.35722 2.93953 10.4105 2.50012 11.6373 2.50012H17.6119C18.8413 2.50012 19.8951 2.93921 20.6378 3.73688C21.375 4.5285 21.7499 5.61247 21.7499 6.81044V12.4397C21.7499 13.6377 21.375 14.7216 20.6377 15.5133C19.8949 16.311 18.8408 16.75 17.6112 16.75H11.6373C10.4076 16.75 9.35387 16.3109 8.61132 15.5131C7.87445 14.7214 7.5 13.6374 7.5 12.4397V6.81044C7.5 5.61163 7.87679 4.52781 8.61428 3.73659ZM9.71154 4.75935C9.27587 5.22676 9 5.92309 9 6.81044V12.4397C9 13.3281 9.27476 14.0243 9.70933 14.4912C10.1382 14.952 10.7781 15.25 11.6373 15.25H17.6112C18.4704 15.25 19.1107 14.952 19.54 14.491C19.9749 14.024 20.2499 13.3279 20.2499 12.4397V6.81044C20.2499 5.92226 19.9749 5.22606 19.5401 4.75907C19.1108 4.29811 18.4707 4.00012 17.6119 4.00012H11.6373C10.7821 4.00012 10.1418 4.29779 9.71154 4.75935Z" fill="#414756"/>
<path d="M5.52024 8H7.72917H8V14L10.8234 16.2947H15.2501V17.5501C15.2501 19.7181 13.8993 21.2501 11.7285 21.2501H5.52024C3.34936 21.2501 2 19.7181 2 17.5501V11.7C2 9.532 3.35653 8 5.52024 8Z" fill="#414756"/>
</svg>
