<svg width="40" height="40" viewBox="0 0 40 40" fill="none" xmlns="http://www.w3.org/2000/svg">
<path fill-rule="evenodd" clip-rule="evenodd" d="M12.7771 36.6667H27.2215C32.872 36.6667 36.6668 32.7032 36.6668 26.8055V13.1946C36.6668 7.2969 32.872 3.33337 27.2232 3.33337H12.7771C7.12832 3.33337 3.3335 7.2969 3.3335 13.1946V26.8055C3.3335 32.7032 7.12832 36.6667 12.7771 36.6667ZM14.1649 18.3334C11.8672 18.3334 10.0002 16.4638 10.0002 14.1667C10.0002 11.8696 11.8672 10 14.1649 10C16.461 10 18.3297 11.8696 18.3297 14.1667C18.3297 16.4638 16.461 18.3334 14.1649 18.3334ZM33.0349 24.89C33.5929 26.321 33.303 28.041 32.7064 29.4582C31.9991 31.1438 30.6449 32.4201 28.9388 32.9773C28.1813 33.225 27.3869 33.3334 26.5941 33.3334H12.5479C11.1502 33.3334 9.91329 32.998 8.89934 32.3736C8.26415 31.9815 8.15186 31.0768 8.6228 30.4902C9.4105 29.5098 10.1881 28.526 10.9725 27.5336C12.4675 25.6347 13.4747 25.0843 14.5943 25.5676C15.0484 25.7672 15.5043 26.0664 15.9736 26.3829C17.2238 27.2326 18.9618 28.4005 21.2512 27.1328C22.8178 26.2554 23.7265 24.7503 24.5178 23.4396L24.531 23.4177C24.587 23.3259 24.6424 23.2342 24.6977 23.1427L24.6981 23.1421L24.6981 23.142C24.964 22.702 25.2264 22.2679 25.5232 21.8679C25.8953 21.3674 27.2746 19.8022 29.0611 20.9168C30.1991 21.6185 31.1561 22.568 32.1801 23.5845C32.5706 23.9732 32.8488 24.4152 33.0349 24.89Z" fill="#777D8C"/>
</svg>
