<svg width="16" height="15" viewBox="0 0 16 15" fill="none" xmlns="http://www.w3.org/2000/svg">
<path d="M10.2313 6.79853L14.7959 6.35853V6.34377C15.3478 5.91339 15.7401 5.30408 15.9085 4.61582C16.0769 3.92757 16.0113 3.20126 15.7226 2.55609C15.4339 1.91093 14.9391 1.38523 14.3195 1.06528C13.6999 0.74532 12.9923 0.650113 12.3128 0.795277L7.72021 1.77583C7.72021 1.76569 7.72021 1.75646 7.72021 1.74723L7.49635 0.496406C7.46452 0.341783 7.37485 0.205978 7.24646 0.117937C7.11807 0.0298954 6.96111 -0.00342438 6.80903 0.0250846C6.65696 0.0535936 6.52179 0.14168 6.43234 0.270559C6.34288 0.399438 6.30622 0.558921 6.33016 0.715025L6.55401 1.96494C6.55756 1.98423 6.56208 2.00332 6.56755 2.02213L1.74751 3.04973C1.29672 3.13918 0.891468 3.3888 0.603534 3.75437C0.315599 4.11994 0.163571 4.57787 0.174383 5.04703C0.185195 5.51618 0.358148 5.96628 0.662604 6.31759C0.967059 6.66891 1.38337 6.89876 1.83777 6.96642C1.097 7.47795 0.536436 8.21896 0.238568 9.08042C-0.0593001 9.94187 -0.0787455 10.8783 0.18309 11.7519C0.444926 12.6255 0.974216 13.3901 1.69309 13.9333C2.41196 14.4765 3.28245 14.7696 4.17648 14.7694H10.6899C12.997 14.7694 14.7941 12.859 14.7941 10.5021C14.7941 10.4099 14.7941 9.21073 14.7941 7.72928L10.2313 6.79853ZM4.7325 10.6866C4.73597 10.7878 4.71947 10.8886 4.68399 10.983C4.64851 11.0775 4.59478 11.1637 4.526 11.2365C4.45722 11.3093 4.37481 11.3672 4.28366 11.4067C4.19252 11.4463 4.09452 11.4666 3.99551 11.4666C3.89649 11.4666 3.79849 11.4463 3.70735 11.4067C3.61621 11.3672 3.53379 11.3093 3.46501 11.2365C3.39623 11.1637 3.3425 11.0775 3.30702 10.983C3.27155 10.8886 3.25505 10.7878 3.25851 10.6866V8.76334C3.2652 8.56814 3.34577 8.38323 3.48325 8.24756C3.62074 8.11189 3.80439 8.03607 3.99551 8.03607C4.18662 8.03607 4.37028 8.11189 4.50776 8.24756C4.64524 8.38323 4.72582 8.56814 4.7325 8.76334V10.6866ZM9.96233 10.6866C9.96233 10.8865 9.88464 11.0782 9.74634 11.2195C9.60804 11.3609 9.42047 11.4403 9.22489 11.4403C9.02931 11.4403 8.84173 11.3609 8.70343 11.2195C8.56513 11.0782 8.48744 10.8865 8.48744 10.6866V8.76334C8.48744 8.56346 8.56513 8.37177 8.70343 8.23043C8.84173 8.0891 9.02931 8.0097 9.22489 8.0097C9.42047 8.0097 9.60804 8.0891 9.74634 8.23043C9.88464 8.37177 9.96233 8.56346 9.96233 8.76334V10.6866Z" fill="white"/>
</svg>
