<svg width="220" height="65" viewBox="0 0 220 65" fill="none" xmlns="http://www.w3.org/2000/svg">
<path d="M77.4348 17.218C79.6395 17.218 81.4118 17.8537 82.7907 19.0823H82.8686V9.87872H88.4974V38.8359H83.2621V36.9716H83.1841C82.0392 38.4002 79.8345 39.4287 77.4348 39.4287C72.04 39.4287 68.1019 34.7073 68.1019 28.3216C68.1019 21.9359 72.04 17.218 77.4348 17.218ZM82.8686 26.818C82.891 26.2334 82.7933 25.6503 82.5817 25.1055C82.37 24.5606 82.049 24.0657 81.6387 23.6516C81.2285 23.2376 80.7378 22.9133 80.1973 22.6992C79.6569 22.4851 79.0785 22.3857 78.4982 22.4073C75.4676 22.4073 73.7343 24.5502 73.7343 28.318C73.7343 32.0073 75.5065 34.2287 78.4982 34.2287C79.0765 34.245 79.652 34.1422 80.1896 33.9267C80.7271 33.7111 81.2154 33.3873 81.6245 32.9751C82.0336 32.563 82.3549 32.071 82.5688 31.5294C82.7828 30.9878 82.8848 30.4079 82.8686 29.8252V26.818Z" fill="white"/>
<path d="M113.352 38.8355H107.11L101.91 29.0748H98.3655V38.8355H92.524V11.0677H103.743C109.57 11.0677 113.153 14.482 113.153 20.0355C113.153 24.1213 111.186 27.0963 107.759 28.407V28.4462L113.352 38.8355ZM103.034 23.7248C105.83 23.7248 107.326 22.4141 107.326 19.9963C107.326 17.5784 105.908 16.4248 103.034 16.4248H98.3513V23.7248H103.034Z" fill="white"/>
<path d="M124.287 17.218C130.072 17.218 134.088 21.7002 134.088 28.3252V29.993H120.111C120.271 32.968 121.845 34.6716 124.404 34.6716C126.449 34.6716 127.988 33.7216 129.444 31.5395L133.418 34.6716C131.412 37.8466 128.381 39.4323 124.404 39.4323C118.538 39.4323 114.444 34.9502 114.444 28.3252C114.444 21.7787 118.538 17.218 124.287 17.218ZM124.326 21.9787C122.001 21.9787 120.31 23.5645 120.111 25.9859H128.618C128.42 23.4466 126.885 21.9787 124.326 21.9787Z" fill="white"/>
<path d="M155.71 17.8144V38.8358H150.276V37.4858H150.198C149.057 38.7143 147.284 39.4286 145.235 39.4286C139.724 39.4286 135.747 34.8286 135.747 28.3215C135.747 21.8143 139.724 17.2144 145.235 17.2144C147.284 17.2144 149.057 17.9286 150.198 19.1572H150.276V17.8108L155.71 17.8144ZM150.077 26.6215C150.077 24.0822 148.387 22.4144 145.905 22.4144C143.07 22.4144 141.379 24.6358 141.379 28.3251C141.379 32.0143 143.07 34.2358 145.866 34.2358C148.387 34.2358 150.077 32.5715 150.077 30.0322V26.6215Z" fill="white"/>
<path d="M167.662 17.218C169.867 17.218 171.639 17.8537 173.018 19.0823H173.096V9.87872H178.728V38.8359H173.489V36.9716H173.411C172.27 38.4002 170.065 39.4287 167.662 39.4287C162.271 39.4287 158.333 34.7073 158.333 28.3216C158.333 21.9359 162.271 17.218 167.662 17.218ZM173.096 26.818C173.118 26.2334 173.02 25.6503 172.809 25.1055C172.597 24.5606 172.276 24.0657 171.866 23.6516C171.456 23.2376 170.965 22.9133 170.425 22.6992C169.884 22.4851 169.306 22.3857 168.725 22.4073C165.695 22.4073 163.961 24.5502 163.961 28.318C163.961 32.0073 165.734 34.2287 168.725 34.2287C169.304 34.245 169.879 34.1422 170.417 33.9267C170.954 33.7111 171.443 33.3873 171.852 32.9751C172.261 32.563 172.582 32.071 172.796 31.5294C173.01 30.9878 173.112 30.4079 173.096 29.8252V26.818Z" fill="white"/>
<path d="M191.18 17.218C196.969 17.218 200.985 21.7002 200.985 28.3252V29.993H187.008C187.164 32.968 188.742 34.6716 191.301 34.6716C193.346 34.6716 194.884 33.7216 196.338 31.5395L200.332 34.6716C198.326 37.8466 195.295 39.4323 191.318 39.4323C185.452 39.4323 181.358 34.9502 181.358 28.3252C181.34 21.7787 185.445 17.218 191.18 17.218ZM191.223 21.9787C188.898 21.9787 187.207 23.5645 187.008 25.9859H195.515C195.317 23.4466 193.782 21.9787 191.223 21.9787Z" fill="white"/>
<path d="M203.618 17.8144H208.892V19.6787H208.97C209.917 18.2501 211.452 17.418 213.458 17.418C214.376 17.4083 215.291 17.5285 216.177 17.7751L215.22 23.1679C214.461 22.9711 213.681 22.8644 212.898 22.8501C210.495 22.8501 209.236 24.4787 209.236 27.5322V38.8358H203.618V17.8144Z" fill="white"/>
<path d="M42.7369 0H11.0059C4.92751 0 0 4.96484 0 11.0893V38.9107C0 45.0352 4.92751 50 11.0059 50H42.7369C48.8153 50 53.7429 45.0352 53.7429 38.9107V11.0893C53.7429 4.96484 48.8153 0 42.7369 0Z" fill="#FCEB54"/>
<path d="M41.8898 13.7536C41.8898 12.7117 41.479 11.7124 40.7478 10.9757C40.0166 10.2389 39.0249 9.82501 37.9908 9.82501C36.9567 9.82501 35.9649 10.2389 35.2337 10.9757C34.5025 11.7124 34.0917 12.7117 34.0917 13.7536V23.1214C33.9216 23.1214 33.7373 23.1214 33.5742 23.1214H26.5276V13.7536C26.5276 12.7117 26.1168 11.7124 25.3856 10.9757C24.6544 10.2389 23.6627 9.82501 22.6286 9.82501C21.5945 9.82501 20.6028 10.2389 19.8715 10.9757C19.1403 11.7124 18.7295 12.7117 18.7295 13.7536V23.2643C16.6649 23.6737 14.8252 24.8424 13.5684 26.5429C12.3117 28.2435 11.7278 30.3543 11.9303 32.4647C12.1328 34.5751 13.1072 36.5341 14.6641 37.9605C16.2209 39.387 18.2487 40.1789 20.353 40.1822H33.5671C34.6719 40.1785 35.765 39.954 36.7831 39.5216C37.8012 39.0893 38.724 38.4577 39.4981 37.6635C40.2722 36.8692 40.8822 35.9281 41.2927 34.8947C41.7033 33.8612 41.9062 32.7559 41.8898 31.6429C41.8898 31.1179 41.8898 13.7536 41.8898 13.7536ZM21.8842 31.6107H18.0596C17.6629 31.6107 17.2824 31.4519 17.0019 31.1693C16.7214 30.8866 16.5638 30.5033 16.5638 30.1036C16.5638 29.7039 16.7214 29.3205 17.0019 29.0379C17.2824 28.7552 17.6629 28.5964 18.0596 28.5964H21.8771C22.2738 28.5964 22.6543 28.7552 22.9348 29.0379C23.2153 29.3205 23.3729 29.7039 23.3729 30.1036C23.3729 30.5033 23.2153 30.8866 22.9348 31.1693C22.6543 31.4519 22.2738 31.6107 21.8771 31.6107H21.8842ZM32.4931 31.6107H28.6685C28.2718 31.6107 27.8914 31.4519 27.6108 31.1693C27.3303 30.8866 27.1727 30.5033 27.1727 30.1036C27.1727 29.7039 27.3303 29.3205 27.6108 29.0379C27.8914 28.7552 28.2718 28.5964 28.6685 28.5964H32.486C32.8828 28.5964 33.2632 28.7552 33.5437 29.0379C33.8243 29.3205 33.9819 29.7039 33.9819 30.1036C33.9819 30.5033 33.8243 30.8866 33.5437 31.1693C33.2632 31.4519 32.8828 31.6107 32.486 31.6107H32.4931Z" fill="black"/>
<path d="M151.49 56H152.53V61H151.485L151.445 60.275C151.298 60.5317 151.1 60.7383 150.85 60.895C150.6 61.0517 150.305 61.13 149.965 61.13C149.598 61.13 149.253 61.0617 148.93 60.925C148.607 60.785 148.322 60.5917 148.075 60.345C147.832 60.0983 147.642 59.815 147.505 59.495C147.368 59.1717 147.3 58.825 147.3 58.455C147.3 58.0983 147.367 57.7633 147.5 57.45C147.633 57.1333 147.818 56.8567 148.055 56.62C148.292 56.3833 148.565 56.1983 148.875 56.065C149.188 55.9283 149.523 55.86 149.88 55.86C150.243 55.86 150.563 55.9433 150.84 56.11C151.12 56.2733 151.352 56.4833 151.535 56.74L151.49 56ZM149.94 60.125C150.233 60.125 150.49 60.0533 150.71 59.91C150.93 59.7633 151.1 59.5667 151.22 59.32C151.343 59.0733 151.405 58.8 151.405 58.5C151.405 58.1967 151.343 57.9217 151.22 57.675C151.097 57.4283 150.925 57.2333 150.705 57.09C150.488 56.9433 150.233 56.87 149.94 56.87C149.65 56.87 149.385 56.9433 149.145 57.09C148.905 57.2367 148.715 57.4333 148.575 57.68C148.435 57.9267 148.365 58.2 148.365 58.5C148.365 58.8033 148.437 59.0783 148.58 59.325C148.727 59.5683 148.918 59.7633 149.155 59.91C149.395 60.0533 149.657 60.125 149.94 60.125ZM153.767 61V53.5H154.807V61H153.767ZM157.243 63.5H156.203V56H157.243V56.735C157.41 56.4783 157.623 56.27 157.883 56.11C158.143 55.95 158.45 55.87 158.803 55.87C159.166 55.87 159.506 55.9383 159.823 56.075C160.143 56.2117 160.423 56.4017 160.663 56.645C160.903 56.885 161.091 57.1633 161.228 57.48C161.365 57.7967 161.433 58.1367 161.433 58.5C161.433 58.8633 161.365 59.205 161.228 59.525C161.091 59.845 160.903 60.1267 160.663 60.37C160.423 60.61 160.143 60.7983 159.823 60.935C159.506 61.0717 159.166 61.14 158.803 61.14C158.45 61.14 158.143 61.06 157.883 60.9C157.623 60.7367 157.41 60.5283 157.243 60.275V63.5ZM158.793 56.875C158.503 56.875 158.248 56.9483 158.028 57.095C157.808 57.2417 157.636 57.4383 157.513 57.685C157.39 57.9283 157.328 58.2 157.328 58.5C157.328 58.8 157.39 59.0733 157.513 59.32C157.636 59.5667 157.808 59.7633 158.028 59.91C158.248 60.0567 158.503 60.13 158.793 60.13C159.08 60.13 159.343 60.0583 159.583 59.915C159.823 59.7683 160.015 59.5717 160.158 59.325C160.301 59.0783 160.373 58.8033 160.373 58.5C160.373 58.2033 160.301 57.9317 160.158 57.685C160.018 57.4383 159.828 57.2417 159.588 57.095C159.348 56.9483 159.083 56.875 158.793 56.875ZM166.88 57.865V61H165.84V58.12C165.84 57.8967 165.785 57.6933 165.675 57.51C165.568 57.3267 165.423 57.1817 165.24 57.075C165.06 56.965 164.856 56.91 164.63 56.91C164.41 56.91 164.208 56.965 164.025 57.075C163.841 57.1817 163.695 57.3267 163.585 57.51C163.475 57.6933 163.42 57.8967 163.42 58.12V61H162.38V53.5H163.42V56.53C163.593 56.3233 163.806 56.16 164.06 56.04C164.313 55.92 164.586 55.86 164.88 55.86C165.25 55.86 165.586 55.95 165.89 56.13C166.193 56.31 166.433 56.5517 166.61 56.855C166.79 57.1583 166.88 57.495 166.88 57.865ZM171.87 56H172.91V61H171.865L171.825 60.275C171.678 60.5317 171.48 60.7383 171.23 60.895C170.98 61.0517 170.685 61.13 170.345 61.13C169.978 61.13 169.633 61.0617 169.31 60.925C168.987 60.785 168.702 60.5917 168.455 60.345C168.212 60.0983 168.022 59.815 167.885 59.495C167.748 59.1717 167.68 58.825 167.68 58.455C167.68 58.0983 167.747 57.7633 167.88 57.45C168.013 57.1333 168.198 56.8567 168.435 56.62C168.672 56.3833 168.945 56.1983 169.255 56.065C169.568 55.9283 169.903 55.86 170.26 55.86C170.623 55.86 170.943 55.9433 171.22 56.11C171.5 56.2733 171.732 56.4833 171.915 56.74L171.87 56ZM170.32 60.125C170.613 60.125 170.87 60.0533 171.09 59.91C171.31 59.7633 171.48 59.5667 171.6 59.32C171.723 59.0733 171.785 58.8 171.785 58.5C171.785 58.1967 171.723 57.9217 171.6 57.675C171.477 57.4283 171.305 57.2333 171.085 57.09C170.868 56.9433 170.613 56.87 170.32 56.87C170.03 56.87 169.765 56.9433 169.525 57.09C169.285 57.2367 169.095 57.4333 168.955 57.68C168.815 57.9267 168.745 58.2 168.745 58.5C168.745 58.8033 168.817 59.0783 168.96 59.325C169.107 59.5683 169.298 59.7633 169.535 59.91C169.775 60.0533 170.037 60.125 170.32 60.125ZM179.57 61H178.235L176.41 55.99H177.52L178.9 59.8L180.285 55.99H181.39L179.57 61ZM184.364 61.13C183.904 61.13 183.484 61.0117 183.104 60.775C182.727 60.5383 182.426 60.2217 182.199 59.825C181.976 59.425 181.864 58.9833 181.864 58.5C181.864 58.1333 181.929 57.7917 182.059 57.475C182.189 57.155 182.367 56.875 182.594 56.635C182.824 56.3917 183.091 56.2017 183.394 56.065C183.697 55.9283 184.021 55.86 184.364 55.86C184.747 55.86 185.099 55.94 185.419 56.1C185.739 56.2567 186.012 56.475 186.239 56.755C186.466 57.0317 186.632 57.3517 186.739 57.715C186.846 58.075 186.877 58.4583 186.834 58.865H182.979C183.022 59.095 183.106 59.3033 183.229 59.49C183.356 59.6733 183.516 59.8183 183.709 59.925C183.906 60.0317 184.124 60.0867 184.364 60.09C184.617 60.09 184.847 60.0267 185.054 59.9C185.264 59.7733 185.436 59.5983 185.569 59.375L186.624 59.62C186.424 60.0633 186.122 60.4267 185.719 60.71C185.316 60.99 184.864 61.13 184.364 61.13ZM182.944 58.07H185.784C185.751 57.83 185.666 57.6133 185.529 57.42C185.396 57.2233 185.227 57.0683 185.024 56.955C184.824 56.8383 184.604 56.78 184.364 56.78C184.127 56.78 183.907 56.8367 183.704 56.95C183.504 57.0633 183.337 57.2183 183.204 57.415C183.074 57.6083 182.987 57.8267 182.944 58.07ZM187.862 61V56H188.902V56.53C189.075 56.3233 189.289 56.16 189.542 56.04C189.795 55.92 190.069 55.86 190.362 55.86C190.549 55.86 190.734 55.885 190.917 55.935L190.502 56.985C190.372 56.935 190.242 56.91 190.112 56.91C189.892 56.91 189.69 56.965 189.507 57.075C189.324 57.1817 189.177 57.3267 189.067 57.51C188.957 57.6933 188.902 57.8967 188.902 58.12V61H187.862ZM193.205 61.095C192.941 61.0783 192.685 61.025 192.435 60.935C192.185 60.845 191.965 60.7233 191.775 60.57C191.588 60.4133 191.448 60.23 191.355 60.02L192.24 59.64C192.283 59.73 192.358 59.8183 192.465 59.905C192.575 59.9917 192.703 60.0633 192.85 60.12C192.996 60.1733 193.15 60.2 193.31 60.2C193.466 60.2 193.611 60.1783 193.745 60.135C193.881 60.0883 193.993 60.0183 194.08 59.925C194.166 59.8317 194.21 59.72 194.21 59.59C194.21 59.4433 194.16 59.33 194.06 59.25C193.963 59.1667 193.841 59.1033 193.695 59.06C193.548 59.0167 193.401 58.975 193.255 58.935C192.928 58.8617 192.628 58.7617 192.355 58.635C192.085 58.505 191.87 58.34 191.71 58.14C191.55 57.9367 191.47 57.6883 191.47 57.395C191.47 57.075 191.556 56.7983 191.73 56.565C191.903 56.3283 192.13 56.1467 192.41 56.02C192.693 55.8933 192.995 55.83 193.315 55.83C193.715 55.83 194.081 55.915 194.415 56.085C194.748 56.255 195.003 56.4883 195.18 56.785L194.355 57.275C194.305 57.175 194.23 57.085 194.13 57.005C194.03 56.925 193.916 56.8617 193.79 56.815C193.663 56.765 193.531 56.7367 193.395 56.73C193.225 56.7233 193.066 56.7433 192.92 56.79C192.776 56.8333 192.661 56.9033 192.575 57C192.488 57.0967 192.445 57.22 192.445 57.37C192.445 57.5167 192.496 57.6267 192.6 57.7C192.703 57.77 192.833 57.8267 192.99 57.87C193.15 57.9133 193.313 57.9617 193.48 58.015C193.776 58.1083 194.055 58.2233 194.315 58.36C194.575 58.4933 194.785 58.6583 194.945 58.855C195.105 59.0517 195.181 59.2917 195.175 59.575C195.175 59.8883 195.08 60.1633 194.89 60.4C194.703 60.6367 194.46 60.8167 194.16 60.94C193.86 61.0633 193.541 61.115 193.205 61.095ZM196.143 56H197.183V61H196.143V56ZM196.673 55.275C196.513 55.275 196.38 55.2233 196.273 55.12C196.166 55.0167 196.113 54.8867 196.113 54.73C196.113 54.5767 196.166 54.4483 196.273 54.345C196.38 54.2383 196.511 54.185 196.668 54.185C196.821 54.185 196.951 54.2383 197.058 54.345C197.165 54.4483 197.218 54.5767 197.218 54.73C197.218 54.8867 197.165 55.0167 197.058 55.12C196.955 55.2233 196.826 55.275 196.673 55.275ZM200.691 61.13C200.231 61.13 199.811 61.0117 199.431 60.775C199.055 60.5383 198.753 60.2217 198.526 59.825C198.303 59.425 198.191 58.9833 198.191 58.5C198.191 58.1333 198.256 57.7917 198.386 57.475C198.516 57.155 198.695 56.875 198.921 56.635C199.151 56.3917 199.418 56.2017 199.721 56.065C200.025 55.9283 200.348 55.86 200.691 55.86C201.151 55.86 201.57 55.9783 201.946 56.215C202.326 56.4517 202.628 56.77 202.851 57.17C203.078 57.57 203.191 58.0133 203.191 58.5C203.191 58.8633 203.126 59.2033 202.996 59.52C202.866 59.8367 202.686 60.1167 202.456 60.36C202.23 60.6 201.965 60.7883 201.661 60.925C201.361 61.0617 201.038 61.13 200.691 61.13ZM200.691 60.09C200.968 60.09 201.216 60.0167 201.436 59.87C201.656 59.7233 201.83 59.53 201.956 59.29C202.086 59.0467 202.151 58.7833 202.151 58.5C202.151 58.21 202.085 57.9433 201.951 57.7C201.821 57.4567 201.646 57.2633 201.426 57.12C201.206 56.9733 200.961 56.9 200.691 56.9C200.418 56.9 200.17 56.9733 199.946 57.12C199.726 57.2667 199.551 57.4617 199.421 57.705C199.295 57.9483 199.231 58.2133 199.231 58.5C199.231 58.7967 199.298 59.065 199.431 59.305C199.565 59.545 199.741 59.7367 199.961 59.88C200.185 60.02 200.428 60.09 200.691 60.09ZM208.699 57.865V61H207.659V58.12C207.659 57.8967 207.604 57.6933 207.494 57.51C207.388 57.3267 207.243 57.1817 207.059 57.075C206.879 56.965 206.676 56.91 206.449 56.91C206.229 56.91 206.028 56.965 205.844 57.075C205.661 57.1817 205.514 57.3267 205.404 57.51C205.294 57.6933 205.239 57.8967 205.239 58.12V61H204.199V56H205.239V56.53C205.413 56.3233 205.626 56.16 205.879 56.04C206.133 55.92 206.406 55.86 206.699 55.86C207.069 55.86 207.406 55.95 207.709 56.13C208.013 56.31 208.253 56.5517 208.429 56.855C208.609 57.1583 208.699 57.495 208.699 57.865Z" fill="#777D8C"/>
<rect x="141.5" y="50.5" width="74" height="14" rx="1.5" stroke="#777D8C"/>
</svg>
