<svg width="133" height="30" viewBox="0 0 133 30" fill="none" xmlns="http://www.w3.org/2000/svg">
<path d="M46.8129 10.3308C48.1457 10.3308 49.2171 10.7123 50.0507 11.4494H50.0979V5.92725H53.5007V23.3015H50.3357V22.183H50.2886C49.5964 23.0401 48.2636 23.6572 46.8129 23.6572C43.5514 23.6572 41.1707 20.8244 41.1707 16.993C41.1707 13.1615 43.5514 10.3308 46.8129 10.3308ZM50.0979 16.0908C50.1114 15.74 50.0523 15.3902 49.9244 15.0633C49.7964 14.7364 49.6024 14.4394 49.3543 14.191C49.1063 13.9426 48.8096 13.748 48.4829 13.6195C48.1562 13.4911 47.8065 13.4314 47.4557 13.4444C45.6236 13.4444 44.5757 14.7301 44.5757 16.9908C44.5757 19.2044 45.6471 20.5372 47.4557 20.5372C47.8053 20.547 48.1533 20.4853 48.4782 20.356C48.8032 20.2267 49.0984 20.0324 49.3457 19.7851C49.593 19.5378 49.7873 19.2426 49.9166 18.9176C50.0459 18.5927 50.1076 18.2447 50.0979 17.8951V16.0908Z" fill="white"/>
<path d="M68.5264 23.3013H64.7529L61.6093 17.4449H59.4664V23.3013H55.935V6.64062H62.7171C66.24 6.64062 68.4064 8.68919 68.4064 12.0213C68.4064 14.4728 67.2171 16.2578 65.145 17.0442V17.0678L68.5264 23.3013ZM62.2886 14.2349C63.9793 14.2349 64.8836 13.4485 64.8836 11.9978C64.8836 10.5471 64.0264 9.85491 62.2886 9.85491H59.4579V14.2349H62.2886Z" fill="white"/>
<path d="M75.1371 10.3308C78.6343 10.3308 81.0621 13.0201 81.0621 16.9951V17.9958H72.6129C72.7093 19.7808 73.6607 20.803 75.2079 20.803C76.4443 20.803 77.3743 20.233 78.255 18.9237L80.6571 20.803C79.4443 22.708 77.6121 23.6594 75.2079 23.6594C71.6614 23.6594 69.1864 20.9701 69.1864 16.9951C69.1864 13.0672 71.6614 10.3308 75.1371 10.3308ZM75.1607 13.1872C73.755 13.1872 72.7329 14.1387 72.6129 15.5915H77.7557C77.6357 14.068 76.7079 13.1872 75.1607 13.1872Z" fill="white"/>
<path d="M94.1336 10.6886V23.3015H90.8486V22.4915H90.8014C90.1114 23.2286 89.04 23.6572 87.8014 23.6572C84.4693 23.6572 82.065 20.8972 82.065 16.9929C82.065 13.0886 84.4693 10.3286 87.8014 10.3286C89.04 10.3286 90.1114 10.7572 90.8014 11.4943H90.8486V10.6865L94.1336 10.6886ZM90.7286 15.9729C90.7286 14.4493 89.7064 13.4486 88.2064 13.4486C86.4921 13.4486 85.47 14.7815 85.47 16.995C85.47 19.2086 86.4921 20.5415 88.1829 20.5415C89.7064 20.5415 90.7286 19.5429 90.7286 18.0193V15.9729Z" fill="white"/>
<path d="M101.359 10.3308C102.692 10.3308 103.764 10.7123 104.597 11.4494H104.644V5.92725H108.049V23.3015H104.882V22.183H104.835C104.145 23.0401 102.812 23.6572 101.359 23.6572C98.1 23.6572 95.7193 20.8244 95.7193 16.993C95.7193 13.1615 98.1 10.3308 101.359 10.3308ZM104.644 16.0908C104.658 15.74 104.599 15.3902 104.471 15.0633C104.343 14.7364 104.149 14.4394 103.901 14.191C103.653 13.9426 103.356 13.748 103.029 13.6195C102.703 13.4911 102.353 13.4314 102.002 13.4444C100.17 13.4444 99.1221 14.7301 99.1221 16.9908C99.1221 19.2044 100.194 20.5372 102.002 20.5372C102.352 20.547 102.7 20.4853 103.025 20.356C103.35 20.2267 103.645 20.0324 103.892 19.7851C104.139 19.5378 104.334 19.2426 104.463 18.9176C104.592 18.5927 104.654 18.2447 104.644 17.8951V16.0908Z" fill="white"/>
<path d="M115.577 10.3308C119.076 10.3308 121.504 13.0201 121.504 16.9951V17.9958H113.055C113.149 19.7808 114.103 20.803 115.65 20.803C116.886 20.803 117.816 20.233 118.695 18.9237L121.11 20.803C119.897 22.708 118.065 23.6594 115.661 23.6594C112.114 23.6594 109.639 20.9701 109.639 16.9951C109.629 13.0672 112.11 10.3308 115.577 10.3308ZM115.603 13.1872C114.197 13.1872 113.175 14.1387 113.055 15.5915H118.198C118.078 14.068 117.15 13.1872 115.603 13.1872Z" fill="white"/>
<path d="M123.096 10.6886H126.285V11.8072H126.332C126.904 10.95 127.832 10.4508 129.045 10.4508C129.6 10.445 130.153 10.5171 130.689 10.665L130.11 13.9008C129.651 13.7826 129.18 13.7186 128.706 13.71C127.254 13.71 126.493 14.6872 126.493 16.5193V23.3015H123.096V10.6886Z" fill="white"/>
<path d="M28.9992 5.36471C28.9992 4.47233 28.6569 3.6165 28.0476 2.98549C27.4382 2.35449 26.6118 2 25.75 2C24.8883 2 24.0618 2.35449 23.4525 2.98549C22.8431 3.6165 22.5008 4.47233 22.5008 5.36471V13.388C22.359 13.388 22.2054 13.388 22.0695 13.388H16.1973V5.36471C16.1973 4.47233 15.855 3.6165 15.2456 2.98549C14.6363 2.35449 13.8099 2 12.9481 2C12.0864 2 11.2599 2.35449 10.6506 2.98549C10.0412 3.6165 9.69889 4.47233 9.69889 5.36471V13.5104C7.97832 13.861 6.44524 14.8619 5.39794 16.3184C4.35065 17.7749 3.86404 19.5827 4.0328 21.3902C4.20156 23.1977 5.01361 24.8755 6.31096 26.0972C7.60831 27.319 9.29817 27.9972 11.0517 28H22.0636C22.9843 27.9969 23.8952 27.8046 24.7436 27.4343C25.592 27.064 26.361 26.5231 27.0061 25.8428C27.6512 25.1626 28.1595 24.3565 28.5017 23.4714C28.8438 22.5863 29.0129 21.6396 28.9992 20.6863C28.9992 20.2367 28.9992 5.36471 28.9992 5.36471ZM12.3278 20.6588H9.14062C8.81002 20.6588 8.49297 20.5228 8.2592 20.2807C8.02543 20.0387 7.8941 19.7103 7.8941 19.368C7.8941 19.0256 8.02543 18.6973 8.2592 18.4552C8.49297 18.2132 8.81002 18.0772 9.14062 18.0772H12.3219C12.6525 18.0772 12.9695 18.2132 13.2033 18.4552C13.4371 18.6973 13.5684 19.0256 13.5684 19.368C13.5684 19.7103 13.4371 20.0387 13.2033 20.2807C12.9695 20.5228 12.6525 20.6588 12.3219 20.6588H12.3278ZM21.1686 20.6588H17.9814C17.6508 20.6588 17.3338 20.5228 17.1 20.2807C16.8663 20.0387 16.7349 19.7103 16.7349 19.368C16.7349 19.0256 16.8663 18.6973 17.1 18.4552C17.3338 18.2132 17.6508 18.0772 17.9814 18.0772H21.1627C21.4933 18.0772 21.8104 18.2132 22.0441 18.4552C22.2779 18.6973 22.4092 19.0256 22.4092 19.368C22.4092 19.7103 22.2779 20.0387 22.0441 20.2807C21.8104 20.5228 21.4933 20.6588 21.1627 20.6588H21.1686Z" fill="white"/>
</svg>
