<svg width="133" height="30" viewBox="0 0 133 30" fill="none" xmlns="http://www.w3.org/2000/svg">
<path d="M46.8129 10.3308C48.1457 10.3308 49.2171 10.7123 50.0507 11.4494H50.0979V5.92725H53.5007V23.3015H50.3357V22.183H50.2886C49.5964 23.0401 48.2636 23.6572 46.8129 23.6572C43.5514 23.6572 41.1707 20.8244 41.1707 16.993C41.1707 13.1615 43.5514 10.3308 46.8129 10.3308ZM50.0979 16.0908C50.1114 15.74 50.0523 15.3902 49.9244 15.0633C49.7964 14.7364 49.6024 14.4394 49.3543 14.191C49.1063 13.9426 48.8096 13.748 48.4829 13.6195C48.1562 13.4911 47.8065 13.4314 47.4557 13.4444C45.6236 13.4444 44.5757 14.7301 44.5757 16.9908C44.5757 19.2044 45.6471 20.5372 47.4557 20.5372C47.8053 20.547 48.1533 20.4853 48.4782 20.356C48.8032 20.2267 49.0984 20.0324 49.3457 19.7851C49.593 19.5378 49.7873 19.2426 49.9166 18.9176C50.0459 18.5927 50.1076 18.2447 50.0979 17.8951V16.0908Z" fill="white"/>
<path d="M68.5264 23.3013H64.7529L61.6093 17.4449H59.4664V23.3013H55.935V6.64062H62.7171C66.24 6.64062 68.4064 8.68919 68.4064 12.0213C68.4064 14.4728 67.2171 16.2578 65.145 17.0442V17.0678L68.5264 23.3013ZM62.2886 14.2349C63.9793 14.2349 64.8836 13.4485 64.8836 11.9978C64.8836 10.5471 64.0264 9.85491 62.2886 9.85491H59.4579V14.2349H62.2886Z" fill="white"/>
<path d="M75.1371 10.3308C78.6343 10.3308 81.0621 13.0201 81.0621 16.9951V17.9958H72.6129C72.7093 19.7808 73.6607 20.803 75.2079 20.803C76.4443 20.803 77.3743 20.233 78.255 18.9237L80.6571 20.803C79.4443 22.708 77.6121 23.6594 75.2079 23.6594C71.6614 23.6594 69.1864 20.9701 69.1864 16.9951C69.1864 13.0672 71.6614 10.3308 75.1371 10.3308ZM75.1607 13.1872C73.755 13.1872 72.7329 14.1387 72.6129 15.5915H77.7557C77.6357 14.068 76.7079 13.1872 75.1607 13.1872Z" fill="white"/>
<path d="M94.1336 10.6886V23.3015H90.8486V22.4915H90.8014C90.1114 23.2286 89.04 23.6572 87.8014 23.6572C84.4693 23.6572 82.065 20.8972 82.065 16.9929C82.065 13.0886 84.4693 10.3286 87.8014 10.3286C89.04 10.3286 90.1114 10.7572 90.8014 11.4943H90.8486V10.6865L94.1336 10.6886ZM90.7286 15.9729C90.7286 14.4493 89.7064 13.4486 88.2064 13.4486C86.4921 13.4486 85.47 14.7815 85.47 16.995C85.47 19.2086 86.4921 20.5415 88.1829 20.5415C89.7064 20.5415 90.7286 19.5429 90.7286 18.0193V15.9729Z" fill="white"/>
<path d="M101.359 10.3308C102.692 10.3308 103.764 10.7123 104.597 11.4494H104.644V5.92725H108.049V23.3015H104.882V22.183H104.835C104.145 23.0401 102.812 23.6572 101.359 23.6572C98.1 23.6572 95.7193 20.8244 95.7193 16.993C95.7193 13.1615 98.1 10.3308 101.359 10.3308ZM104.644 16.0908C104.658 15.74 104.599 15.3902 104.471 15.0633C104.343 14.7364 104.149 14.4394 103.901 14.191C103.653 13.9426 103.356 13.748 103.029 13.6195C102.703 13.4911 102.353 13.4314 102.002 13.4444C100.17 13.4444 99.1221 14.7301 99.1221 16.9908C99.1221 19.2044 100.194 20.5372 102.002 20.5372C102.352 20.547 102.7 20.4853 103.025 20.356C103.35 20.2267 103.645 20.0324 103.892 19.7851C104.139 19.5378 104.334 19.2426 104.463 18.9176C104.592 18.5927 104.654 18.2447 104.644 17.8951V16.0908Z" fill="white"/>
<path d="M115.577 10.3308C119.076 10.3308 121.504 13.0201 121.504 16.9951V17.9958H113.055C113.149 19.7808 114.103 20.803 115.65 20.803C116.886 20.803 117.816 20.233 118.695 18.9237L121.11 20.803C119.897 22.708 118.065 23.6594 115.661 23.6594C112.114 23.6594 109.639 20.9701 109.639 16.9951C109.629 13.0672 112.11 10.3308 115.577 10.3308ZM115.603 13.1872C114.197 13.1872 113.175 14.1387 113.055 15.5915H118.198C118.078 14.068 117.15 13.1872 115.603 13.1872Z" fill="white"/>
<path d="M123.096 10.6886H126.285V11.8072H126.332C126.904 10.95 127.832 10.4508 129.045 10.4508C129.6 10.445 130.153 10.5171 130.689 10.665L130.11 13.9008C129.651 13.7826 129.18 13.7186 128.706 13.71C127.254 13.71 126.493 14.6872 126.493 16.5193V23.3015H123.096V10.6886Z" fill="white"/>
<path d="M25.8364 0H6.65357C2.97891 0 0 2.97891 0 6.65357V23.3464C0 27.0211 2.97891 30 6.65357 30H25.8364C29.5111 30 32.49 27.0211 32.49 23.3464V6.65357C32.49 2.97891 29.5111 0 25.8364 0Z" fill="#FCEB54"/>
<path d="M25.3243 8.25216C25.3243 7.62701 25.0759 7.02746 24.6339 6.58541C24.1918 6.14336 23.5923 5.89502 22.9671 5.89502C22.342 5.89502 21.7424 6.14336 21.3004 6.58541C20.8583 7.02746 20.61 7.62701 20.61 8.25216V13.8729C20.5071 13.8729 20.3957 13.8729 20.2971 13.8729H16.0371V8.25216C16.0371 7.62701 15.7888 7.02746 15.3468 6.58541C14.9047 6.14336 14.3052 5.89502 13.68 5.89502C13.0548 5.89502 12.4553 6.14336 12.0133 6.58541C11.5712 7.02746 11.3229 7.62701 11.3229 8.25216V13.9586C10.0747 14.2042 8.9625 14.9054 8.20273 15.9258C7.44297 16.9461 7.08997 18.2126 7.21239 19.4788C7.33482 20.745 7.92392 21.9204 8.86509 22.7763C9.80625 23.6322 11.0322 24.1073 12.3043 24.1093H20.2929C20.9608 24.1071 21.6216 23.9724 22.2371 23.713C22.8525 23.4536 23.4104 23.0746 23.8784 22.5981C24.3464 22.1215 24.7151 21.5569 24.9633 20.9368C25.2115 20.3167 25.3342 19.6536 25.3243 18.9857C25.3243 18.6707 25.3243 8.25216 25.3243 8.25216ZM13.23 18.9664H10.9179C10.678 18.9664 10.448 18.8712 10.2784 18.7016C10.1088 18.532 10.0136 18.302 10.0136 18.0622C10.0136 17.8223 10.1088 17.5923 10.2784 17.4227C10.448 17.2531 10.678 17.1579 10.9179 17.1579H13.2257C13.4655 17.1579 13.6956 17.2531 13.8651 17.4227C14.0347 17.5923 14.13 17.8223 14.13 18.0622C14.13 18.302 14.0347 18.532 13.8651 18.7016C13.6956 18.8712 13.4655 18.9664 13.2257 18.9664H13.23ZM19.6436 18.9664H17.3314C17.0916 18.9664 16.8616 18.8712 16.692 18.7016C16.5224 18.532 16.4271 18.302 16.4271 18.0622C16.4271 17.8223 16.5224 17.5923 16.692 17.4227C16.8616 17.2531 17.0916 17.1579 17.3314 17.1579H19.6393C19.8791 17.1579 20.1091 17.2531 20.2787 17.4227C20.4483 17.5923 20.5436 17.8223 20.5436 18.0622C20.5436 18.302 20.4483 18.532 20.2787 18.7016C20.1091 18.8712 19.8791 18.9664 19.6393 18.9664H19.6436Z" fill="black"/>
</svg>
