<svg id="Layer_1" data-name="Layer 1" xmlns="http://www.w3.org/2000/svg" viewBox="0 0 298.49 275.62"><defs><style>.cls-1{fill:#fff;}</style></defs><path class="cls-1" d="M271.22,43.88a32.9,32.9,0,0,0-65.79,0v78.26c-1.45-.08-2.9-.13-4.36-.13H142V43.88a32.89,32.89,0,0,0-65.78,0v79.44A71.31,71.31,0,0,0,89.83,264.63H201.07c39.38,0,70.07-31.93,70.07-71.31C271.14,188.92,271.22,43.88,271.22,43.88ZM102.81,192.94H70.69a12.59,12.59,0,1,1,0-25.18h32.12a12.59,12.59,0,1,1,0,25.18Zm89.3,0H160a12.59,12.59,0,1,1,0-25.18h32.12a12.59,12.59,0,0,1,0,25.18Z"/></svg>