<svg width="24" height="24" viewBox="0 0 24 24" fill="none" xmlns="http://www.w3.org/2000/svg">
<path d="M23.5275 12.6239C20.8385 13.184 18.3715 14.5154 16.4292 16.4547C14.4868 18.394 13.1534 20.857 12.5924 23.5418C12.5554 23.6709 12.4779 23.7848 12.3713 23.8667C12.2647 23.9486 12.1345 23.9941 12.0001 23.9967C11.8599 24.012 11.7192 23.9735 11.6064 23.889C11.4936 23.8045 11.4172 23.6804 11.3926 23.5418C10.8316 20.857 9.49815 18.394 7.55578 16.4547C5.61341 14.5154 3.1465 13.184 0.457472 12.6239C0.325684 12.5862 0.209846 12.5066 0.127593 12.3971C0.0453401 12.2876 0.00118046 12.1542 0.00184393 12.0174C-0.00939695 11.8799 0.0310448 11.7432 0.115279 11.6338C0.199512 11.5245 0.321501 11.4504 0.457472 11.426C3.14997 10.8559 5.61791 9.51525 7.55981 7.56778C9.50172 5.62031 10.8335 3.15031 11.3926 0.459541C11.4298 0.327395 11.5093 0.211061 11.619 0.128352C11.7287 0.0456434 11.8626 0.00111581 12.0001 0.00159221C12.1381 -0.00883722 12.275 0.0322415 12.3845 0.116838C12.4939 0.201436 12.568 0.323537 12.5924 0.459541C13.1438 3.15372 14.4731 5.6278 16.4163 7.57655C18.3595 9.5253 20.8315 10.8635 23.5275 11.426C23.6617 11.4565 23.7815 11.5317 23.8674 11.6391C23.9532 11.7466 24 11.8799 24 12.0174C24 12.1548 23.9532 12.2882 23.8674 12.3956C23.7815 12.5031 23.6617 12.5782 23.5275 12.6088V12.6239Z" fill="#07BD74"/>
</svg>
