<svg width="161" height="126" viewBox="0 0 161 126" fill="none" xmlns="http://www.w3.org/2000/svg">
<path d="M82.7448 85.1594C72.1952 82.2541 67.3719 73.676 66.6032 70.7631H47.4447V40.8605C47.4447 39.2067 47.1177 37.5691 46.4822 36.0412C45.8468 34.5133 44.9154 33.125 43.7413 31.9556C42.5672 30.7862 41.1733 29.8586 39.6392 29.2257C38.1051 28.5928 36.461 28.2671 34.8005 28.2671C31.4477 28.2681 28.2326 29.5954 25.8622 31.957C23.4917 34.3186 22.1601 37.5212 22.1601 40.8605V71.2684C15.9196 72.482 10.2968 75.8184 6.25419 80.7064C2.21161 85.5944 0.000700352 91.73 0 98.0628C0.0010192 105.302 2.8893 112.245 8.02955 117.364C13.1698 122.483 20.1411 125.359 27.41 125.359H70.1582C85.2967 125.359 97.0916 113.137 97.0916 98.0628C97.0916 97.5767 97.0916 94.6178 97.0916 87.8503C92.0646 87.2034 87.7948 86.5488 82.7448 85.1594ZM32.3985 97.9135H20.0578C19.4223 97.914 18.7929 97.7897 18.2056 97.5477C17.6183 97.3057 17.0847 96.9507 16.6353 96.5031C16.1859 96.0555 15.8295 95.5241 15.5865 94.9392C15.3435 94.3542 15.2187 93.7273 15.2192 93.0943C15.2192 92.4617 15.3444 91.8352 15.5876 91.2507C15.8308 90.6662 16.1873 90.1352 16.6366 89.688C17.086 89.2408 17.6194 88.8862 18.2065 88.6444C18.7935 88.4027 19.4226 88.2785 20.0578 88.279H32.3985C33.0337 88.2785 33.6628 88.4027 34.2498 88.6444C34.8368 88.8862 35.3703 89.2408 35.8197 89.688C36.269 90.1352 36.6255 90.6662 36.8687 91.2507C37.1119 91.8352 37.2371 92.4617 37.2371 93.0943C37.2376 93.7277 37.1126 94.3549 36.8694 94.94C36.6262 95.5252 36.2695 96.0568 35.8197 96.5045C35.3698 96.9521 34.8358 97.307 34.2481 97.5488C33.6604 97.7906 33.0305 97.9145 32.3946 97.9135H32.3985ZM66.7185 97.9135H54.3741C53.0908 97.9135 51.86 97.4058 50.9526 96.502C50.0452 95.5982 49.5354 94.3725 49.5354 93.0943C49.5365 91.8169 50.0467 90.5921 50.954 89.6891C51.8613 88.7862 53.0914 88.279 54.3741 88.279H66.7185C68.0011 88.279 69.2313 88.7862 70.1386 89.6891C71.0459 90.5921 71.5562 91.8169 71.5572 93.0943C71.5572 93.7275 71.4319 94.3545 71.1885 94.9394C70.9451 95.5244 70.5883 96.0558 70.1386 96.5034C69.6889 96.9509 69.155 97.3058 68.5676 97.5478C67.9801 97.7897 67.3504 97.914 66.7147 97.9135H66.7185Z" fill="white"/>
<path d="M132.351 78.0442L129.303 80.4917L122.746 72.3043C126.085 69.3052 128.917 65.7805 131.128 61.8684C136.531 52.3284 137.943 41.0269 135.055 30.4432C132.166 19.8596 125.213 10.8581 115.72 5.4134C106.214 -0.00943935 94.9538 -1.42675 84.4086 1.47241C73.8633 4.37157 64.8945 11.3504 59.4696 20.878C54.7485 29.2165 53.054 38.94 54.6749 48.3917C56.2958 57.8435 61.1317 66.4389 68.3588 72.7135C75.0533 79.4439 87.9547 82.7249 94.9121 82.7823H95.2321C98.9361 82.7798 102.623 82.2782 106.194 81.2909C110.216 80.1897 114.049 78.4853 117.564 76.2355L124.235 84.5643L121.035 87.1456L149.668 122.901L161 113.796L132.351 78.0442ZM104.514 75.0232C103.251 75.3677 101.97 75.6422 100.677 75.8454C100.677 57.4401 100.677 38.2011 100.677 38.2011C100.677 34.0773 99.0447 30.1224 96.1393 27.2065C93.234 24.2905 89.2934 22.6524 85.1846 22.6524C81.0765 22.6534 77.137 24.292 74.2324 27.2078C71.3279 30.1237 69.6962 34.078 69.6962 38.2011V64.9697C64.7285 59.5184 61.61 52.6272 60.7885 45.2859C59.967 37.9446 61.4848 30.5308 65.1239 24.1094C68.1712 18.7568 72.5764 14.3095 77.8915 11.2198C83.2066 8.13003 89.2422 6.50798 95.3845 6.51855C101.399 6.51868 107.309 8.09383 112.53 11.0883C120.532 15.6777 126.394 23.2652 128.829 32.1863C131.264 41.1074 130.074 50.6337 125.519 58.6753C123.267 62.6573 120.251 66.1521 116.646 68.958C113.041 71.7639 108.917 73.8253 104.514 75.0232Z" fill="white"/>
</svg>
