<svg width="21" height="20" viewBox="0 0 21 20" fill="none" xmlns="http://www.w3.org/2000/svg">
<path d="M16.3169 10.534C16.3081 8.90076 17.037 7.668 18.5122 6.76012C17.6868 5.56297 16.4399 4.90432 14.7934 4.77526C13.2348 4.65065 11.5313 5.69648 10.9078 5.69648C10.2492 5.69648 8.73891 4.81976 7.55347 4.81976C5.10357 4.85981 2.5 6.80018 2.5 10.7477C2.5 11.9137 2.71074 13.1182 3.13223 14.3614C3.69422 15.9947 5.72263 20 7.83886 19.9332C8.94527 19.9065 9.72678 19.1366 11.1669 19.1366C12.563 19.1366 13.2875 19.9332 14.5212 19.9332C16.655 19.9021 18.4902 16.2617 19.0259 14.6239C16.1633 13.2577 16.3169 10.6186 16.3169 10.534ZM13.8319 3.22652C15.0305 1.7846 14.9207 0.47174 14.8856 0C13.8275 0.0623053 12.6026 0.729862 11.9045 1.55318C11.1361 2.43436 10.6839 3.5247 10.7805 4.753C11.9264 4.84201 12.9714 4.24566 13.8319 3.22652Z" fill="white"/>
</svg>
