<svg width="24" height="24" viewBox="0 0 24 24" fill="none" xmlns="http://www.w3.org/2000/svg">
<path fill-rule="evenodd" clip-rule="evenodd" d="M14.0001 3.43735H10.2062C9.05853 3.43735 7.94446 3.65891 7.09819 4.26509C6.21099 4.90058 5.7168 5.88808 5.7168 7.17641V19.1678C5.7168 20.332 6.96977 21.0658 7.98496 20.4962L12.8143 17.7872L17.5994 20.4903L17.6002 20.4907C18.6154 21.0626 19.8719 20.3303 19.8719 19.1637V11.9586H18.3719V19.1637C18.3719 19.1699 18.3711 19.1728 18.371 19.1734L18.3703 19.175C18.3695 19.1763 18.3666 19.1801 18.3604 19.1837C18.3543 19.1874 18.3494 19.1881 18.3476 19.1881C18.347 19.1881 18.3464 19.1881 18.3456 19.1879C18.3452 19.1878 18.3441 19.1875 18.3422 19.1867C18.3408 19.1861 18.339 19.1852 18.3366 19.1839L18.3364 19.1838L13.1845 16.2736C12.9562 16.1446 12.6773 16.1442 12.4487 16.2725L7.25108 19.188L7.25105 19.1881C7.24571 19.191 7.24286 19.1918 7.2423 19.1919L7.24063 19.1921C7.23909 19.1921 7.23435 19.1914 7.22823 19.1878C7.22212 19.1842 7.21922 19.1804 7.21842 19.1791L7.21774 19.1774C7.21757 19.1769 7.2168 19.174 7.2168 19.1678V7.17641C7.2168 6.31254 7.52355 5.80551 7.97167 5.48453C8.46072 5.13422 9.21634 4.93735 10.2062 4.93735H14.0001V3.43735Z" fill="white"/>
<path d="M16.4434 5.85048H22.1443" stroke="white" stroke-width="1.5" stroke-linecap="round" stroke-linejoin="round"/>
<path d="M19.2939 8.70093L19.2939 3" stroke="white" stroke-width="1.5" stroke-linecap="round" stroke-linejoin="round"/>
</svg>
