<svg width="25" height="24" viewBox="0 0 25 24" fill="none" xmlns="http://www.w3.org/2000/svg">
<path fill-rule="evenodd" clip-rule="evenodd" d="M9.23337 2H15.4034C18.1134 2 20.3034 3.07 20.3334 5.79V20.97C20.3334 21.14 20.2934 21.31 20.2134 21.46C20.0834 21.7 19.8634 21.88 19.5934 21.96C19.3334 22.04 19.0434 22 18.8034 21.86L12.3234 18.62L5.83337 21.86C5.68437 21.939 5.51337 21.99 5.34337 21.99C4.78337 21.99 4.33337 21.53 4.33337 20.97V5.79C4.33337 3.07 6.53337 2 9.23337 2ZM8.55337 9.62H16.0834C16.5134 9.62 16.8634 9.269 16.8634 8.83C16.8634 8.39 16.5134 8.04 16.0834 8.04H8.55337C8.12337 8.04 7.77337 8.39 7.77337 8.83C7.77337 9.269 8.12337 9.62 8.55337 9.62Z" fill="#FCEB54"/>
</svg>
