<svg width="24" height="24" viewBox="0 0 24 24" fill="none" xmlns="http://www.w3.org/2000/svg">
<path fill-rule="evenodd" clip-rule="evenodd" d="M15.1526 3H9.82815C7.49814 3 5.59961 3.92337 5.59961 6.27064V19.3705C5.59961 19.8537 5.98794 20.2507 6.47121 20.2507C6.61791 20.2507 6.76548 20.2067 6.89406 20.1385L12.4947 17.3425L18.0867 20.1385C18.2938 20.2593 18.5441 20.2939 18.7685 20.2248C19.0015 20.1558 19.1913 20.0004 19.3035 19.7933C19.3726 19.6639 19.4071 19.5172 19.4071 19.3705V6.27064C19.3812 3.92337 17.4913 3 15.1526 3ZM9.69608 13.5739C9.40319 13.281 9.40319 12.8061 9.69608 12.5133L11.4427 10.7666L9.69592 9.01984C9.40303 8.72695 9.40303 8.25207 9.69592 7.95918C9.98882 7.66629 10.4637 7.66629 10.7566 7.95918L12.5034 9.70596L14.25 7.95928C14.5429 7.66639 15.0178 7.66639 15.3107 7.95928C15.6036 8.25218 15.6036 8.72705 15.3107 9.01994L13.564 10.7666L15.3106 12.5131C15.6034 12.806 15.6034 13.2809 15.3106 13.5738C15.0177 13.8667 14.5428 13.8667 14.2499 13.5738L12.5034 11.8273L10.7567 13.5739C10.4638 13.8668 9.98897 13.8668 9.69608 13.5739Z" fill="#FCEB54"/>
</svg>
