<svg width="270" height="160" viewBox="0 0 270 160" fill="none" xmlns="http://www.w3.org/2000/svg">
<g clip-path="url(#clip0_1187_5617)">
<path d="M135 93.973C203.113 93.973 259.396 108.334 268.66 126.991C269.517 125.317 269.975 123.468 270 121.588C270 100.369 209.559 83.1675 135 83.1675C60.4408 83.1675 0 100.369 0 121.588C0.0191959 123.469 0.478036 125.319 1.33968 126.991C10.5693 108.334 66.8868 93.973 135 93.973Z" fill="#2E333F"/>
<path d="M135 160C208.819 160 268.66 145.221 268.66 126.991C268.66 108.761 208.819 93.9819 135 93.9819C61.1814 93.9819 1.3396 108.761 1.3396 126.991C1.3396 145.221 61.1814 160 135 160Z" fill="black"/>
<path d="M81.0574 107.114C81.3184 107.489 81.5881 107.863 81.849 108.247L80.9791 107.07L81.0574 107.114Z" fill="white"/>
<path d="M108.416 119.2V119.288L108.659 119.749L108.833 120.081L108.955 120.316L109.094 120.577L109.155 120.708C109.155 120.708 96.3329 95.8989 86.5378 79.3159C94.9411 93.4589 105.493 113.589 108.416 119.2Z" fill="white"/>
<path d="M88.843 118.826C89.2432 119.436 89.6173 120.063 89.9826 120.69C89.6173 120.054 89.2432 119.427 88.843 118.817V118.826Z" fill="white"/>
<path d="M174.955 124.682C175.955 125.091 176.955 125.509 177.947 125.945C176.955 125.509 175.964 125.082 174.955 124.682Z" fill="black"/>
<path d="M79.5002 114.303C78.6303 113.144 77.7604 111.985 76.8905 110.817C77.7604 111.968 78.6303 113.127 79.5002 114.303Z" fill="black"/>
<path d="M66.1909 97.3019L63.4158 93.9906C62.5459 92.8751 61.5717 91.7772 60.6322 90.6792C61.5717 91.7772 62.5024 92.8751 63.4158 93.9906L66.1909 97.3019Z" fill="black"/>
<path d="M115.358 111.706C115.227 111.358 115.105 111.009 114.966 110.669C114.697 109.981 114.401 109.301 114.096 108.622C114.375 109.301 114.67 109.981 114.966 110.669C115.105 111.009 115.192 111.358 115.358 111.706Z" fill="black"/>
<path d="M54.7516 83.9082C55.7694 85.0759 56.7959 86.2349 57.8049 87.3939C58.814 88.5528 59.6926 89.5724 60.6321 90.6704C59.6926 89.5724 58.7444 88.4918 57.8049 87.3939C56.8655 86.2959 55.7694 85.0759 54.7516 83.9082Z" fill="black"/>
<path d="M196.963 142.685C196.433 142.171 195.884 141.665 195.336 141.169C189.84 137.038 183.928 133.495 177.695 130.598C176.99 130.267 176.268 129.945 175.546 129.631C173.502 132.315 167.717 136.846 152.172 135.025C148.865 134.644 145.602 133.944 142.429 132.934C137.656 131.46 133.205 129.095 129.311 125.963C127.538 124.537 125.933 122.915 124.526 121.126C123.282 121.248 122.039 121.396 120.803 121.579C119.568 121.762 118.315 121.98 117.071 122.215C116.945 122.242 116.817 122.259 116.689 122.268C116.418 122.276 116.148 122.241 115.888 122.163C115.767 122.127 115.648 122.084 115.532 122.032C115.322 122.008 115.116 121.952 114.923 121.867C114.609 121.749 114.326 121.562 114.093 121.321C113.86 121.08 113.683 120.79 113.574 120.473V120.394C113.357 119.775 113.131 119.122 112.887 118.46C112.644 117.797 112.383 117.135 112.104 116.482C111.539 115.174 111.026 113.867 110.417 112.551C109.295 109.937 108.059 107.323 106.798 104.778L104.849 100.953C104.197 99.672 103.475 98.4259 102.796 97.1623C101.448 94.6352 99.9778 92.1691 98.5251 89.6943C92.644 79.8159 86.2261 70.2683 79.3003 61.0946C77.5605 58.794 75.8729 56.4761 74.0809 54.2453L68.6962 47.5441C64.9557 43.187 61.3282 38.7254 57.3875 34.4729L54.4907 31.2661L53.038 29.6627L52.3246 28.8349C52.255 28.7477 52.1507 28.6432 52.0463 28.5386C51.9419 28.434 51.8201 28.3207 51.7157 28.2075C49.8556 26.4202 47.774 24.8798 45.5221 23.6239C43.3875 22.4056 41.0503 21.5848 38.6237 21.2013L37.7538 21.1055C36.8857 21.0254 36.0122 21.0254 35.1441 21.1055C34.5595 21.1667 33.9787 21.2598 33.4043 21.3843C32.8423 21.5176 32.2876 21.6805 31.7427 21.8723C31.1878 22.077 30.6447 22.3126 30.116 22.5781C29.5854 22.8396 29.0635 23.1271 28.559 23.4496C28.0715 23.7548 27.6011 24.0864 27.1497 24.443C26.7014 24.7948 26.2743 25.1731 25.8709 25.5758C25.6882 25.7588 25.5143 25.9418 25.349 26.1335C24.6763 26.9355 24.1386 27.8421 23.7571 28.8175C23.4762 29.5555 23.2863 30.3251 23.1916 31.1093C22.6784 35.3879 24.8096 40.538 27.9326 44.4157C28.3153 44.9037 28.7242 45.3568 29.133 45.7926L30.6468 47.3437L33.6914 50.4982C35.7096 52.6128 37.7132 54.7362 39.7024 56.8682C43.6952 61.1294 47.6272 65.4342 51.4634 69.8348C55.2997 74.2354 59.1186 78.6535 62.8331 83.1587L65.5993 86.5572C66.5214 87.7191 67.4319 88.8606 68.3308 89.9819L71.0362 93.4152L73.6982 96.9009C74.5681 98.0511 75.4902 99.2363 76.3079 100.387L78.9176 103.959C79.657 104.97 80.379 105.998 81.101 107.044L81.9709 108.221L83.9891 111.166L85.2331 112.978L86.4334 114.826L88.8084 118.538C88.8605 118.616 88.904 118.695 88.9475 118.773C89.3476 119.383 89.7217 120.011 90.0871 120.647L91.0701 122.329L93.1492 125.893L93.2883 126.137C93.2883 126.137 93.2883 126.137 93.2883 126.206C93.3705 126.355 93.4349 126.513 93.4797 126.677C93.4838 126.729 93.4838 126.782 93.4797 126.834C93.5233 127.01 93.5409 127.193 93.5319 127.374C93.5155 127.76 93.4026 128.135 93.2034 128.466C93.0043 128.796 92.7254 129.071 92.3923 129.265C92.3215 129.301 92.2489 129.333 92.1749 129.361L91.9487 129.448L91.6355 129.527C91.5631 129.531 91.4905 129.531 91.4181 129.527C91.3197 129.536 91.2206 129.536 91.1222 129.527C84.9785 131.933 79.2534 135.297 74.1591 139.495H74.107C71.5015 141.596 69.0479 143.879 66.765 146.327C66.0082 147.147 65.2775 147.983 64.5642 148.837C72.8283 150.179 81.6317 151.268 90.8613 152.087C103.579 153.22 117.106 153.83 131.129 153.83C157.148 153.83 181.435 151.73 202.043 148.105C200.464 146.194 198.768 144.384 196.963 142.685ZM77.1168 91.5243L75.7859 89.7292C70.9231 83.2284 66.478 77.5294 63.7987 74.401C60.6236 70.6801 60.1799 67.8044 60.7627 65.6869C61.4201 63.7368 62.8212 62.1265 64.6599 61.2079C64.6599 61.2079 67.113 59.3256 71.0449 60.7722C73.1327 61.539 75.6467 63.2469 78.4304 66.6803C81.4188 70.7132 84.1555 74.9273 86.6249 79.2984C96.4113 95.8552 109.242 120.69 109.242 120.69L98.5686 123.836V123.775C95.8458 117.736 85.9985 103.55 77.082 91.5243H77.1168Z" fill="white"/>
<path d="M159.192 119.488C157.252 119.009 155.295 118.617 153.338 118.216C153.407 118.556 153.477 118.878 153.529 119.201L163.689 121.44L163.637 120.63C162.167 120.246 160.671 119.845 159.192 119.488Z" fill="#F7C1C7"/>
<path d="M132.59 44.7121C122.317 47.9886 130.468 60.4673 130.468 60.4673C130.468 60.4673 149.875 101.955 153.355 118.216C155.312 118.59 157.269 119.009 159.209 119.488C160.688 119.845 162.176 120.246 163.654 120.673C163.254 115.209 160.549 83.3854 149.501 57.7572C148.759 56.0492 147.985 54.3703 147.179 52.7204C146.274 50.5789 144.942 48.6454 143.264 47.0388C142.781 46.5823 142.26 46.1683 141.707 45.8014C141.321 45.5482 140.92 45.3183 140.506 45.1129C140.08 44.8994 139.638 44.7187 139.184 44.5727C138.712 44.4217 138.23 44.3081 137.74 44.2328C136.01 43.9795 134.244 44.1438 132.59 44.7121Z" fill="#F7C1C7"/>
<path d="M63.7725 74.3751C71.5407 83.4901 94.2191 114.077 98.499 123.793V123.854L109.173 120.708L109.112 120.577L108.973 120.316L108.851 120.081L108.677 119.75L108.433 119.288V119.201C104.371 111.358 85.5374 75.5079 78.4042 66.7241C75.6205 63.2384 73.1152 61.5653 71.0275 60.7898C67.0955 59.3432 64.6424 61.2255 64.6424 61.2255C62.8037 62.1441 61.4026 63.7544 60.7453 65.7045C60.1537 67.8046 60.6061 70.6716 63.7725 74.3751Z" fill="#F7C1C7"/>
<path d="M222.556 134.711C222.288 134.162 221.813 133.741 221.235 133.542C220.658 133.342 220.025 133.381 219.476 133.648L219.38 133.692C211.551 137.753 206.871 141.378 204.488 143.556C202.576 141.449 200.542 139.456 198.398 137.587H198.355L198.233 137.491C192.374 133.257 186.105 129.623 179.521 126.642C179.008 126.407 178.478 126.189 177.956 125.962C176.964 125.527 175.964 125.091 174.963 124.699C173.963 124.307 172.806 123.827 171.718 123.444V122.86C171.718 122.738 171.718 122.607 171.718 122.477C171.39 111.403 170.118 100.377 167.917 89.52C167.117 85.433 166.108 80.8843 164.846 75.9956C164.492 74.5956 164.113 73.1694 163.707 71.717C163.301 70.2647 162.872 68.7861 162.419 67.2815C161.52 64.2664 160.526 61.1671 159.435 57.9836C158.856 56.3976 158.276 54.7884 157.696 53.1559C154.827 45.3877 151.528 37.7858 147.814 30.3859C146.944 28.6431 146.039 26.9003 145.1 25.1574C143.232 21.6718 141.22 18.1862 139.062 14.7005L138.984 14.5872C137.848 12.9885 136.595 11.4768 135.235 10.0646C128.728 3.27628 117.837 -3.63401 106.833 2.22188C101.413 5.14111 97.9943 9.19318 96.6808 14.3171C94.2798 23.5628 99.6037 32.8694 101.291 35.5011C101.631 36.0327 102.161 36.7995 102.796 37.7842C111.273 50.4918 119.053 63.6521 126.101 77.2069C132.776 89.9297 138.4 103.179 142.916 116.821C141.22 116.673 139.506 116.56 137.81 116.499C136.113 116.438 134.391 116.403 132.677 116.403C127.549 116.404 122.424 116.672 117.324 117.205C117.063 116.403 116.793 115.627 116.523 114.834C116.132 113.806 115.758 112.752 115.366 111.706C115.236 111.358 115.114 111.009 114.975 110.669C114.705 109.981 114.409 109.301 114.105 108.621C113.264 106.576 112.394 104.543 111.495 102.521L109.677 98.4607C109.06 97.1274 108.364 95.8464 107.72 94.5131C106.424 91.8989 105.006 89.2847 103.614 86.6704C102.901 85.3807 102.179 84.1085 101.439 82.8363C96.3191 73.949 90.7292 65.3417 84.6935 57.0511C82.9537 54.6722 81.2835 52.2758 79.4741 49.984C77.6647 47.6922 75.9076 45.3394 74.0895 43.0127C73.15 41.8886 72.2192 40.7557 71.2797 39.6229C69.4181 37.3659 67.5478 35.1003 65.6427 32.8869C64.6975 31.7715 63.7347 30.6764 62.7546 29.6017L59.8492 26.3077L58.4051 24.652L57.6744 23.7806C57.3526 23.4234 57.0655 23.1358 56.8045 22.8482C55.0698 21.1554 53.1729 19.6376 51.1415 18.3169C50.4716 17.8812 49.7757 17.4455 49.0711 17.0707C48.7057 16.8616 48.3403 16.6612 47.9663 16.4695C45.3481 15.1341 42.5355 14.2224 39.6327 13.7681C37.0273 13.3849 34.3739 13.4824 31.8036 14.0557C31.3773 14.1515 30.9337 14.2561 30.5335 14.3781C30.1334 14.5001 29.6636 14.6308 29.2808 14.7789C27.6537 15.3703 26.0937 16.1327 24.6269 17.0533C23.5115 17.7479 22.4605 18.5411 21.4865 19.4236C21.156 19.7111 20.8428 20.0161 20.5297 20.295C19.8941 20.9561 19.3123 21.6671 18.7899 22.4212C18.2583 23.1741 17.7897 23.9698 17.3892 24.8002C17.1892 25.2184 16.9979 25.6716 16.8326 26.0811C16.5009 26.9528 16.242 27.8506 16.0584 28.7651C15.9627 29.2182 15.8931 29.6365 15.8409 30.1419C15.7234 31.4493 15.7234 32.7646 15.8409 34.072C16.0185 36.2519 16.5199 38.393 17.3284 40.4246C18.5102 43.5125 20.1752 46.3922 22.2608 48.9557C22.8057 49.6147 23.3865 50.2431 24.0006 50.838L25.5402 52.3891L28.5763 55.4652C30.6002 57.5333 32.6096 59.6073 34.6046 61.6871C36.5967 63.7697 38.58 65.8785 40.546 67.9874C42.512 70.0962 44.478 72.2311 46.4353 74.3486C49.2972 77.4596 52.0984 80.6228 54.8821 83.8035C55.8999 84.9712 56.9263 86.1302 57.9354 87.2892C58.9445 88.4481 59.8231 89.4677 60.7626 90.5657C61.7021 91.6637 62.6329 92.7616 63.5463 93.877L66.3212 97.1884L69.044 100.552L71.7668 103.907L73.0891 105.65L74.42 107.349C75.2899 108.473 76.1598 109.623 77.0297 110.774C77.8996 111.924 78.7695 113.083 79.6394 114.259L80.9095 116.002L82.1622 117.745L84.6239 121.283C85.0502 121.858 85.4939 122.459 85.8418 123.026C86.1898 123.592 86.616 124.228 87.0162 124.83L87.6686 125.84C81.9598 128.708 76.4832 132.018 71.2884 135.74C68.395 137.84 65.6537 140.144 63.0852 142.633C61.3454 144.28 59.7448 146.005 58.1876 147.791C60.3015 148.183 62.4676 148.549 64.6685 148.907C65.3818 148.035 66.1124 147.216 66.8692 146.397C69.1522 143.949 71.6057 141.666 74.2113 139.565H74.2634C79.3573 135.364 85.0824 131.997 91.2265 129.587H91.5223C91.5947 129.592 91.6674 129.592 91.7398 129.587L92.0529 129.509L92.2791 129.422C92.6641 129.245 92.9938 128.967 93.2329 128.617C93.472 128.267 93.6113 127.859 93.6361 127.435C93.6451 127.253 93.6276 127.071 93.584 126.895C93.588 126.843 93.588 126.79 93.584 126.738C93.5422 126.573 93.4777 126.415 93.3925 126.267C93.3925 126.267 93.3925 126.215 93.3925 126.198L93.2534 125.954L91.1743 122.39L89.9652 120.664C89.5998 120.037 89.217 119.409 88.8255 118.799C88.8255 118.721 88.7386 118.643 88.6864 118.564L86.3116 114.852L85.1111 113.005L83.8671 111.192L81.849 108.247L81.3879 107.584L81.0574 107.114C80.3354 106.068 79.6133 105.04 78.8739 104.029L76.2642 100.456C75.3943 99.2885 74.5244 98.1034 73.6545 96.9705L70.9926 93.4849L68.2872 90.0515C67.3883 88.8896 66.4778 87.7481 65.5557 86.6269L62.7894 83.2283C59.075 78.7231 55.256 74.3051 51.4198 69.9045C47.5835 65.5038 43.6516 61.1903 39.6588 56.9379C37.6696 54.8 35.6659 52.6766 33.6477 50.5678L30.6031 47.4133L29.0895 45.8622C28.6806 45.4265 28.2718 44.9908 27.889 44.4854C24.7661 40.6076 22.6695 35.4575 23.148 31.1789C23.2426 30.3948 23.4325 29.6251 23.7134 28.8871C24.0949 27.9117 24.6327 27.0052 25.3054 26.2032C25.4707 26.0114 25.6447 25.8284 25.8273 25.6454C26.2307 25.2427 26.6577 24.8644 27.1061 24.5126C27.5574 24.156 28.0279 23.8244 28.5153 23.5192C29.0199 23.2055 29.5418 22.9179 30.0725 22.6478C30.6011 22.3822 31.1442 22.1466 31.6992 21.9419C32.2441 21.7501 32.7987 21.5872 33.3607 21.4539C33.9352 21.3294 34.516 21.2363 35.1005 21.1751C35.9686 21.095 36.8422 21.095 37.7102 21.1751L38.5801 21.271C41.0067 21.6545 43.3439 22.4753 45.4784 23.6935C47.7304 24.9494 49.8119 26.4899 51.6721 28.2771C51.7765 28.3904 51.8983 28.495 52.0026 28.6082C52.107 28.7215 52.2115 28.8174 52.2811 28.9045L52.9943 29.7324L54.4471 31.3358L57.3439 34.5426C61.2671 38.7864 64.8946 43.2567 68.6526 47.6138L74.0372 54.3149C75.8553 56.5457 77.5603 58.8637 79.2566 61.1642C86.1824 70.3379 92.6004 79.8855 98.4815 89.7639C99.9343 92.2387 101.404 94.7048 102.753 97.2319C103.431 98.4955 104.153 99.7416 104.806 101.023L106.754 104.848C108.016 107.462 109.251 110.007 110.373 112.621C110.982 113.92 111.495 115.235 112.061 116.551C112.339 117.205 112.6 117.876 112.844 118.529C113.087 119.183 113.313 119.845 113.531 120.464V120.542C113.639 120.86 113.816 121.15 114.049 121.391C114.282 121.632 114.566 121.818 114.879 121.937C115.065 122.015 115.262 122.068 115.462 122.093C115.578 122.145 115.697 122.188 115.819 122.224C116.188 122.311 116.572 122.311 116.941 122.224C118.185 121.98 119.429 121.771 120.673 121.588C121.917 121.405 123.178 121.248 124.431 121.126C125.837 122.915 127.442 124.537 129.215 125.962C133.109 129.095 137.561 131.46 142.333 132.934C145.487 133.933 148.729 134.627 152.015 135.008C167.586 136.838 173.389 132.298 175.398 129.605H175.45C176.172 129.919 176.894 130.241 177.599 130.572C183.832 133.469 189.745 137.012 195.241 141.142C195.789 141.639 196.337 142.145 196.867 142.659C198.68 144.414 200.38 146.282 201.956 148.253C203.864 147.922 205.737 147.573 207.576 147.207L207.428 147.016C209.481 145.142 213.848 141.683 221.425 137.77C221.979 137.514 222.409 137.048 222.621 136.475C222.833 135.902 222.81 135.267 222.556 134.711ZM163.689 121.483L153.529 119.244C153.477 118.921 153.398 118.616 153.337 118.259C152.707 115.496 151.935 112.768 151.023 110.085C150.684 109.057 150.319 107.985 149.928 106.887C149.675 106.164 149.406 105.415 149.136 104.665L148.718 103.524C148.301 102.382 147.848 101.214 147.405 100.038C145.9 96.0991 144.247 92.0122 142.577 88.0211C141.585 85.616 140.576 83.2545 139.602 80.9888C138.627 78.7231 137.671 76.5359 136.766 74.4968C133.173 66.3491 130.442 60.5106 130.442 60.5106C130.442 60.5106 122.317 48.032 132.573 44.7468C133.973 44.2798 135.45 44.0875 136.922 44.1804C137.185 44.1984 137.446 44.2304 137.705 44.2762C138.195 44.3515 138.678 44.4651 139.149 44.6161C139.603 44.7622 140.045 44.9428 140.472 45.1564C140.885 45.3617 141.286 45.5916 141.672 45.8448C142.226 46.2118 142.747 46.6257 143.229 47.0822C144.907 48.6888 146.239 50.6223 147.144 52.7638C147.95 54.4137 148.724 56.0926 149.466 57.8005C160.514 83.4288 163.22 115.253 163.62 120.717L163.672 121.527L163.689 121.483Z" fill="black"/>
</g>
<defs>
<clipPath id="clip0_1187_5617">
<rect width="270" height="160" fill="white"/>
</clipPath>
</defs>
</svg>
