<svg width="267" height="58" viewBox="0 0 267 58" fill="none" xmlns="http://www.w3.org/2000/svg">
<path d="M266.163 52.0181C265.976 51.9147 265.779 51.8308 265.574 51.7677C266.396 51.0107 265.28 50.2419 263.28 49.6499C261.349 49.1488 259.378 48.8234 257.389 48.6779C258.729 48.6072 259.878 48.4098 260.296 48.0888C260.714 47.7677 260.261 47.4113 259.392 47.1462C257.669 46.6219 254.753 46.4364 252.125 46.3421C249.018 46.2302 245.866 46.1624 242.723 46.1536C240.956 46.1536 239.196 46.1703 237.445 46.2037C236.485 46.2243 235.451 46.242 234.499 46.3068C234.486 46.2518 234.462 46.2003 234.427 46.1556C234.393 46.1109 234.349 46.074 234.299 46.0475C233.725 45.6646 232.137 45.4585 230.552 45.3878C226.847 45.2404 223.136 45.2925 219.436 45.5439C212.022 46.0034 205.548 47.0166 198.912 47.8796C195.248 48.3627 191.486 48.8045 187.46 49.0844C187.357 49.0844 187.271 49.102 187.195 49.1138C187.159 48.4982 186.729 47.8855 185.922 47.3023C184.72 46.4644 183.383 45.8397 181.969 45.4555C178.617 44.454 173.516 43.8502 168.323 43.6146C165.513 43.4879 162.653 43.4555 159.801 43.485C158.953 43.485 158.105 43.485 157.262 43.5174H157.212C155.115 43.3671 152.941 43.2847 150.732 43.3023C147.856 43.3062 144.984 43.5367 142.143 43.9916C137.33 43.8443 133.095 44.5601 130.467 45.4879C127.778 46.4364 126.344 47.5792 125.846 48.7132C125.348 49.8472 125.881 51.0254 127.215 52.1271C128.447 53.1403 130.311 54.2449 133.869 54.9164C136.117 55.3406 138.806 55.5055 141.607 55.5969C144.656 55.6852 147.731 55.6587 150.762 55.5468C150.835 55.5468 150.903 55.5468 150.968 55.5291C156.134 55.8384 161.899 55.8237 166.399 55.0578C170.182 55.2858 173.978 55.0463 177.701 54.345C181.038 53.6823 183.816 52.8075 185.41 51.8384C185.833 51.5933 186.216 51.2854 186.547 50.9253C191.118 51.0755 194.977 51.8089 198.603 52.4304C200.558 52.7721 202.535 53.1109 204.691 53.3759C206.997 53.6731 209.32 53.8344 211.645 53.859C213.271 53.859 214.947 53.6793 215.262 53.2699C215.304 53.2225 215.326 53.1607 215.323 53.0976C215.32 53.0344 215.293 52.9748 215.248 52.9312C219.504 53.4378 223.86 53.915 228.502 54.1712C231.268 54.3244 234.169 54.4039 237.006 54.345C238.417 54.3156 239.825 54.2537 241.15 54.1329C242.233 54.0604 243.307 53.8928 244.361 53.6322C245.392 53.3229 245.406 52.9547 244.629 52.616L244.334 52.4923C247.798 52.9606 251.574 53.3141 255.445 53.4997C258.038 53.6542 260.639 53.6178 263.227 53.3907C265.401 53.1521 267.162 52.6072 266.163 52.0181Z" fill="black"/>
<path d="M184.369 24.4482V24.404C184.372 24.1421 184.39 23.8805 184.422 23.6205C184.372 23.3223 184.339 23.0213 184.325 22.7192C184.325 22.46 184.293 22.2008 184.284 21.9416C184.284 21.8179 184.284 21.6942 184.284 21.5734C184.291 21.1769 184.339 20.7822 184.425 20.3952C184.399 19.9504 184.363 19.5116 184.328 19.058C184.328 19.0256 184.328 18.9932 184.328 18.9637C184.033 16.1449 183.621 13.273 182.078 10.9313C180.732 8.89009 178.664 7.45858 176.564 6.21852C173.269 4.29994 169.775 2.74729 166.142 1.58821C163.659 0.789979 161.044 0.492484 159.106 2.17731C157.044 1.46155 155.176 1.15522 156.455 1.80322C156.726 1.93872 152.484 1.1346 150.802 1.10219C149.624 1.08158 148.098 0.954919 146.953 1.18467C146.114 1.35593 145.288 1.58124 144.478 1.85919C144.162 2.33335 143.732 2.7203 143.227 2.98437L143.003 3.09041C142.717 3.26649 142.41 3.4051 142.09 3.50278C141.828 3.61624 141.561 3.71459 141.288 3.79733C140.781 3.92815 140.26 4.00418 139.736 4.02413C139.642 4.02413 139.548 4.02413 139.442 4.02413L137.474 5.00793C134.679 6.42558 132.291 8.52961 130.531 11.1228C129.518 12.5824 128.696 14.1663 128.087 15.8356C125.878 21.8915 126.275 28.6456 127.851 34.8988C128.534 37.6028 129.439 40.2744 130.885 42.6514C132.331 45.0284 134.355 47.0991 136.864 48.2626C138.412 48.9276 140.046 49.368 141.718 49.5704C148.69 50.6101 155.83 49.8384 162.69 48.2007C163.409 48.0629 164.103 47.8218 164.752 47.485C164.849 47.4319 164.935 47.3612 165.026 47.2994C165.298 47.5071 165.601 47.6702 165.925 47.7825C167.129 48.1889 168.443 47.7825 169.621 47.2847C171.256 46.6115 172.833 45.8036 174.334 44.8694C176.334 43.6578 178.138 42.1503 179.686 40.3981C182.947 36.5955 184.499 31.5351 184.714 26.4924C184.459 25.8421 184.342 25.1461 184.369 24.4482Z" fill="url(#paint0_linear_3959_15044)"/>
<path d="M252.512 13.4085C252.571 13.3879 252.627 13.3673 252.683 13.3525L252.512 13.4085Z" fill="url(#paint1_linear_3959_15044)"/>
<path opacity="0.88" d="M264.645 38.1035C264.392 37.8736 264.232 37.5594 264.194 37.2199C264.066 36.0286 264.019 34.8299 264.056 33.6323C263.849 32.5866 263.699 31.5321 263.466 30.4953C263.408 30.2449 263.337 30.0005 263.263 29.756L263.145 29.5616C262.218 28.0623 261.225 25.7324 259.679 24.8753C259.336 24.6699 258.941 24.5676 258.542 24.5807C257.944 24.1526 257.31 23.7771 256.648 23.4585C254.975 22.6632 254.123 22.4983 252.606 21.4349C254.618 21.2405 255.59 21.2847 257.475 20.5513C257.876 20.3952 258.312 20.1861 258.462 19.7884C258.652 19.6679 258.789 19.4793 258.845 19.2612C258.868 19.0807 258.853 18.8974 258.802 18.7227C258.752 18.548 258.666 18.3854 258.55 18.245C258.047 17.592 257.452 17.0155 256.783 16.5336C256.091 15.9828 255.764 15.0609 254.948 14.7163L252.45 13.3613C251.861 13.1817 250.866 13.432 250.259 13.3083C244.662 12.1684 238.824 13.2553 233.193 14.2686C232.804 14.3392 232.327 14.3805 232.094 14.0653C232.018 13.9486 231.964 13.8188 231.935 13.6824C232.094 13.5396 232.198 13.3458 232.229 13.1345C232.268 12.8724 232.565 12.2185 232.45 11.9799C231.998 11.1259 231.244 10.4707 230.335 10.1419C229.649 9.87092 227.095 9.67946 226.135 10.1419C225.758 10.1154 225.378 10.1036 225.001 10.1007C220.489 10.0683 216.023 11.2052 211.847 12.9195C207.67 14.6338 203.325 16.2774 199.991 19.3201C196.657 22.3628 192.739 22.7045 188.828 24.2685L188.698 23.6028C187.59 24.3009 186.377 25.8061 185.087 25.9592C184.309 26.0505 184.315 26.0829 184.274 26.9077C184.274 27.0756 184.274 27.2405 184.259 27.4084L184.118 27.4762C183.749 28.9489 182.35 30.7663 183.552 31.9327C183.679 31.8885 183.805 31.8502 183.935 31.8119L185.09 31.6588C187.119 30.6308 189.788 31.8208 191.826 33.1109C192.121 33.2464 192.415 33.3878 192.71 33.538L192.975 33.6352C194.766 34.4776 196.468 35.7236 198.174 37.0402C198.989 37.535 199.761 38.0888 200.53 38.6396C200.561 38.659 200.594 38.6767 200.627 38.6926C202.238 39.6911 203.994 40.4069 205.635 41.373C206.336 41.6381 207.034 41.9179 207.696 42.242L208.126 42.3716C208.182 42.3892 208.462 42.4746 208.683 42.5483C208.995 42.5483 209.661 42.5984 209.773 42.5984C210.2 42.5984 210.624 42.5984 211.051 42.5984C211.72 42.6175 212.383 42.7325 213.019 42.94C213.134 42.9106 213.249 42.89 213.364 42.8576C213.462 42.7531 213.544 42.6338 213.605 42.5041C213.787 42.4221 213.948 42.3022 214.079 42.1522C214.211 42.0023 214.308 41.826 214.365 41.6352C214.636 40.94 214.365 40.1624 214.009 39.5056L214.377 39.6381L220.412 41.8237C224.215 43.1992 228.05 44.5866 232.053 45.1462C233.725 45.3865 235.418 45.4507 237.104 45.3377C238.728 44.8462 240.305 44.2114 241.817 43.4408L241.838 43.4084C242.167 42.5473 242.733 41.7974 243.472 41.2464C243.546 41.1639 243.623 41.0873 243.702 41.0137C243.673 40.9283 243.643 40.8428 243.611 40.7604C243.399 40.1958 243.112 39.662 242.76 39.1727C241.761 37.7501 244.097 36.4069 245.087 37.8149C245.201 37.9769 245.319 38.1654 245.434 38.3657C246.32 38.7419 247.17 39.2004 247.97 39.7353L248.742 40.1919C250.601 40.837 252.447 41.5674 254.338 41.9121C256.118 42.2017 257.927 42.265 259.723 42.1006C259.827 42.0624 259.936 42.0357 260.047 42.021C261.519 41.8384 263.251 40.8959 264.465 39.7442C264.629 39.2137 264.69 38.6568 264.645 38.1035Z" fill="url(#paint2_linear_3959_15044)"/>
<path d="M135.427 26.9342C135.672 28.1478 136.016 29.0285 135.754 30.242C135.648 30.7428 135.813 31.5528 136.246 31.8267C136.399 31.9053 136.567 31.9504 136.738 31.9592C137.739 32.0908 138.7 32.4342 139.557 32.9666C139.355 28.9266 139.453 24.8772 139.851 20.8518C139.9 20.6363 139.867 20.4104 139.757 20.2185C139.639 20.0904 139.485 20.0002 139.315 19.9593C137.469 19.3289 135.486 17.918 135.018 20.3216C134.65 22.1861 135.056 25.1021 135.427 26.9342Z" fill="url(#paint3_linear_3959_15044)"/>
<path d="M143.276 27.052C143.314 29.4968 143.188 31.9769 143.75 34.3598C145.194 34.6623 146.585 35.1806 147.874 35.8974L147.2 25.4762C147.155 24.1093 146.983 22.7495 146.687 21.4143C146.662 21.2439 146.581 21.0865 146.457 20.9666C146.346 20.8906 146.217 20.844 146.083 20.8311C145.312 20.6927 144.316 20.3157 143.524 20.3805C142.619 20.4541 142.861 21.1021 142.934 21.8267C143.15 23.5604 143.264 25.3051 143.276 27.052Z" fill="url(#paint4_linear_3959_15044)"/>
<path d="M138.068 31.1109C138.507 30.9018 138.952 30.622 139.426 30.6043C139.532 31.4691 139.518 32.3442 139.385 33.2052C138.357 32.6161 137.297 32.133 136.254 31.5881C136.884 31.5476 137.5 31.3856 138.068 31.1109Z" fill="#DF6040"/>
<path d="M147.639 32.4541C147.647 33.6097 147.746 34.763 147.934 35.9033C147.212 35.5027 144.744 35.3142 144.511 34.4158C144.364 33.8503 145.342 33.6794 145.728 33.4909C145.946 33.3849 147.639 32.6573 147.639 32.4541Z" fill="#DF6040"/>
<path d="M185.633 20.136C185.279 18.072 184.787 16.0341 184.161 14.0359C183.804 13.3584 183.433 12.6898 183.018 12.0477C182.723 11.5823 182.387 11.1405 182.081 10.678L181.901 10.407C181.436 9.85624 180.974 9.30249 180.526 8.7399C180.084 8.36288 179.653 7.97505 179.233 7.57643C174.898 4.85635 170.01 3.13856 164.926 2.54846C161.377 2.13609 157.775 2.26864 154.225 1.84449C152.753 1.66776 151.256 1.39088 149.772 1.54994C148.58 1.71981 147.413 2.02925 146.293 2.47188C145.684 2.6869 143.619 3.02858 143.739 3.94463C143.834 4.63388 145.801 5.09337 146.39 5.3673C148.547 6.28582 150.567 7.49486 152.396 8.96081C157.442 13.1847 158.025 19.8827 157.893 26.2597C157.857 27.9652 157.689 29.7295 158.334 31.3201C158.535 31.8149 158.817 32.3216 158.738 32.8488C158.651 33.1911 158.512 33.5179 158.326 33.8179C157.816 34.8606 157.819 36.0506 157.678 37.1934C157.03 42.4747 154.37 47.2081 148.988 48.7309C148.037 48.999 146.959 49.2375 146.417 50.024C154.47 50.4478 162.54 49.6352 170.346 47.6146C174.299 46.5895 178.437 45.0579 180.682 41.8149C181.468 40.6809 181.972 39.3996 182.473 38.133C183.61 35.2405 184.75 32.3274 185.548 29.3407C185.872 26.2744 186.158 23.217 185.633 20.136Z" fill="url(#paint5_linear_3959_15044)"/>
<path d="M265.361 36.1566C265.21 35.7916 265.018 35.4448 264.789 35.1227C265.608 31.9887 264.495 28.7928 262.51 26.3451C260.975 24.463 258.892 23.1728 256.642 22.3127C257.976 22.0182 259.119 21.2023 259.535 19.8532C259.95 18.5042 259.502 17.0403 258.651 15.9446C256.937 13.7737 254.035 12.9991 251.42 12.6073C248.322 12.1378 245.197 11.8751 242.065 11.8209C240.313 11.7909 238.56 11.8597 236.816 12.0271C235.823 12.0844 234.838 12.2292 233.87 12.46C233.863 12.0953 233.796 11.7342 233.673 11.3908C233.102 9.79732 231.523 8.96668 229.944 8.64857C226.327 7.92103 222.424 8.38642 218.884 9.29953C211.52 11.1964 205.066 15.3673 198.463 18.9902C194.819 20.9873 191.075 22.8194 187.069 23.9828C186.977 24.0111 186.889 24.0517 186.807 24.1036C186.77 21.5481 186.343 19.0133 185.541 16.5867C184.636 13.8592 183.414 11.1846 181.608 8.92839C178.271 4.77229 173.196 2.26862 168.03 1.29366C165.233 0.788135 162.388 0.606272 159.55 0.751685C158.706 0.743295 157.863 0.789538 157.025 0.890124H156.975C154.891 0.249664 152.716 -0.0487542 150.536 0.00647424C147.454 0.0816474 144.465 1.07664 141.953 2.86361C137.164 2.25684 132.949 5.22001 130.336 9.06683C127.659 13.002 126.212 17.7502 125.738 22.4512C125.276 27.2146 125.739 32.0226 127.102 36.6102C128.324 40.8134 130.18 45.3937 133.721 48.1801C135.956 49.9474 138.631 50.672 141.417 51.0019C144.449 51.3488 147.515 51.2765 150.528 50.7869C150.599 50.7755 150.667 50.7526 150.731 50.7191C155.871 52.0004 161.609 51.8973 166.089 48.7604C170.041 49.8325 174.248 48.3598 177.332 45.8149C180.711 43.0399 183.343 39.4649 184.99 35.4143C185.473 34.1877 185.851 32.9226 186.121 31.6323C190.669 32.2509 194.507 35.267 198.115 37.8797C200.062 39.2906 202.03 40.6956 204.171 41.7943C206.312 42.8929 208.695 43.7795 211.093 43.8002C212.71 43.8178 214.377 43.052 214.692 41.3141C214.776 40.8521 214.771 40.3782 214.678 39.918C218.91 42.0211 223.246 43.9916 227.859 45.0549C230.625 45.7343 233.48 45.9778 236.321 45.7766C237.73 45.6752 239.118 45.3778 240.445 44.8929C241.623 44.4364 242.828 43.8326 243.641 42.8311C244.666 41.5527 244.68 40.0299 243.906 38.6161C243.811 38.4452 243.711 38.2744 243.611 38.1065C247.054 40.0647 250.783 41.4683 254.663 42.2655C257.243 42.7781 259.965 42.8812 262.406 41.8119C264.604 40.8605 266.353 38.6013 265.361 36.1566ZM176.819 43.7147C175.474 44.9939 173.88 45.9825 172.136 46.619C170.678 47.1366 169.119 47.3051 167.585 47.1109C168.616 45.7394 169.406 44.2025 169.921 42.566C169.921 42.566 169.997 42.1507 170.044 41.7442C170.087 41.4883 170.104 41.2288 170.094 40.9695C170.092 40.8511 170.082 40.7329 170.062 40.6161C170.072 40.5764 170.072 40.5349 170.062 40.4953C170.043 40.4106 169.999 40.3337 169.935 40.2748C169.872 40.2158 169.792 40.1777 169.706 40.1654C169.644 40.1515 169.58 40.1614 169.525 40.193C169.47 40.2247 169.43 40.2759 169.411 40.3362C168.359 43.1479 166.604 45.6428 164.312 47.5822C164.286 47.6042 164.264 47.6312 164.248 47.6617C160.666 49.7589 156.404 49.9327 152.377 49.1344L153.261 48.3156C153.579 48.021 153.915 47.6764 154.239 47.3613C154.406 47.1883 154.558 47.0021 154.695 46.8046C154.837 46.6101 154.961 46.4069 155.081 46.2007C155.311 45.7917 155.508 45.3652 155.67 44.9253C155.67 44.9253 155.779 44.4894 155.847 44.0652C155.903 43.8016 155.936 43.5335 155.944 43.2641C155.988 43.0155 155.948 42.7594 155.829 42.5365C155.826 42.5288 155.821 42.5221 155.814 42.5167C155.808 42.5113 155.8 42.5075 155.792 42.5055C155.784 42.5035 155.775 42.5034 155.767 42.5052C155.758 42.507 155.751 42.5107 155.744 42.5159C155.724 42.5233 155.705 42.5343 155.688 42.5483C155.681 42.5307 155.672 42.5139 155.662 42.4982C155.659 42.4904 155.654 42.4833 155.648 42.4776C155.642 42.4719 155.634 42.4677 155.626 42.4654C155.618 42.4631 155.61 42.4628 155.602 42.4644C155.593 42.466 155.586 42.4695 155.579 42.4747C155.489 42.5212 155.414 42.5928 155.364 42.6809C155.267 42.8016 155.176 42.9901 155.022 43.2287C154.893 43.4113 154.781 43.6234 154.639 43.8178C154.498 44.0122 154.377 44.2096 154.248 44.3716L153.927 44.7722C153.85 44.8723 153.797 44.9283 153.797 44.9283C153.632 45.1669 153.473 45.4084 153.287 45.6323C153.109 45.8616 152.92 46.0818 152.719 46.292C152.528 46.51 152.307 46.7015 152.097 46.9047C151.888 47.1079 151.662 47.2906 151.423 47.4555C150.958 47.8038 150.466 48.1132 149.95 48.3804C149.694 48.5129 149.426 48.6278 149.161 48.7427C148.896 48.8576 148.625 48.9548 148.342 49.0372L147.991 49.1374C147.877 49.1727 147.756 49.1904 147.638 49.2169L147.614 49.2346C145.916 49.3647 144.21 49.3578 142.513 49.214C140.268 49.0284 137.947 48.6249 135.989 47.4467C132.478 45.3465 130.637 41.2611 129.397 37.5262C126.657 29.2788 126.634 19.8002 130.816 12.0212C132.878 8.19202 136.654 4.25094 141.37 4.73694C143.659 5.2583 145.9 5.91515 147.924 7.01677C147.924 7.01677 148.513 7.26713 149.049 7.55874C149.385 7.73547 149.706 7.92398 149.897 8.03591C150.507 8.5013 151.096 8.99613 151.706 9.45858C151.827 9.57345 151.95 9.68833 152.065 9.80909L152.48 10.1832L152.905 10.6044C153.343 11.0786 153.788 11.5587 154.209 12.0329C154.283 12.1338 154.366 12.2275 154.457 12.3128C154.704 12.5838 154.91 12.8489 155.09 13.0374C155.199 13.1793 155.338 13.2959 155.497 13.379C155.503 13.3818 155.511 13.383 155.518 13.3827C155.525 13.3824 155.532 13.3804 155.539 13.3771C155.545 13.3737 155.551 13.369 155.555 13.3632C155.56 13.3575 155.563 13.3508 155.564 13.3437C155.608 13.3466 155.651 13.3381 155.69 13.3189C155.729 13.2997 155.763 13.2706 155.787 13.2345C155.811 13.1983 155.825 13.1565 155.828 13.1131C155.831 13.0697 155.822 13.0263 155.803 12.9873C155.191 11.6524 154.344 10.4382 153.302 9.40262C153.288 9.38667 153.274 9.36995 153.261 9.35254L153.034 9.09334L152.504 8.56315L151.947 8.06241C151.585 7.72074 151.181 7.42324 150.799 7.10513C150.416 6.78701 150 6.5013 149.576 6.23915L148.949 5.82973L148.301 5.45271C147.874 5.1935 147.417 4.98732 146.975 4.75463C146.533 4.52193 146.071 4.33047 145.603 4.16553L144.902 3.89748C144.675 3.81796 144.442 3.75021 144.215 3.67362C148.044 1.43799 152.787 1.61178 157.002 2.9402L157.064 2.96671C159.594 4.05275 161.947 5.51446 164.041 7.30248C164.041 7.30248 164.283 7.47626 164.595 7.71485C164.634 7.75608 164.678 7.79437 164.716 7.83267C164.754 7.87096 165.114 8.16845 165.494 8.51308C165.874 8.8577 166.233 9.20527 166.218 9.16109C166.348 9.27302 166.472 9.37022 166.583 9.45564L166.604 9.47626L166.672 9.55873L166.695 9.59113L166.731 9.63826C166.778 9.70306 166.825 9.7708 166.869 9.83855C166.902 9.89292 166.955 9.93227 167.017 9.94821C167.078 9.96416 167.144 9.95547 167.199 9.92397C167.212 9.91475 167.224 9.90385 167.234 9.89157C167.269 9.9069 167.307 9.91483 167.345 9.91483C167.383 9.91483 167.421 9.9069 167.455 9.89157C167.509 9.858 167.548 9.80506 167.564 9.74367C167.58 9.68228 167.571 9.61713 167.541 9.56167C167.413 9.27826 167.259 9.00713 167.081 8.75166C167.005 8.625 166.925 8.50129 166.837 8.38347C166.837 8.33969 166.825 8.29673 166.801 8.25977C165.381 6.15371 163.526 4.37607 161.361 3.04623L161.019 2.73106C161.009 2.70569 160.998 2.68108 160.984 2.65742C165.429 2.6103 169.915 3.26125 173.906 5.28186C175.989 6.31297 177.869 7.70971 179.458 9.40556C181.226 11.3349 182.421 13.6913 183.329 16.136C184.291 18.6799 184.812 21.3695 184.869 24.0889C184.844 24.1749 184.832 24.2643 184.834 24.354C184.884 25.5106 184.866 26.6692 184.781 27.8238C184.69 27.969 184.638 28.1355 184.631 28.3068C184.454 32.2185 182.996 36.0123 180.801 39.2052C179.651 40.8562 178.315 42.3694 176.819 43.7147ZM211.281 36.9254V36.943L211.22 36.8782L211.281 36.9254ZM263.505 38.51C263.069 39.3142 262.209 39.8591 261.375 40.1772C259.293 40.9725 256.998 40.7987 254.86 40.3421C252.613 39.8532 250.417 39.1509 248.303 38.2449C245.842 37.1945 243.495 35.8946 241.299 34.3657C241.095 34.2471 240.854 34.2079 240.623 34.2557C240.392 34.3036 240.187 34.435 240.047 34.6249C239.373 34.7663 238.869 35.6234 239.517 36.2243C240.451 37.0716 241.275 38.0336 241.968 39.0874C242.507 39.918 242.851 40.7751 242.162 41.6205C241.473 42.4658 240.327 42.9342 239.302 43.2611C238.117 43.6297 236.889 43.8436 235.649 43.8974C230.616 44.1566 225.67 42.6985 221.075 40.7663C218.477 39.6706 215.953 38.4099 213.437 37.1374C213.358 37.0815 213.284 37.0226 213.205 36.9695C213.046 36.8606 212.884 36.7575 212.722 36.6514C212.629 36.5554 212.516 36.481 212.392 36.4335L212.274 36.3598C212.144 36.2773 212.015 36.1978 211.885 36.1301C211.737 36.0386 211.583 35.9551 211.426 35.8797C211.166 35.7436 210.873 35.6843 210.58 35.7089C210.514 35.7091 210.447 35.7236 210.387 35.7514C210.326 35.7793 210.272 35.8198 210.228 35.8703C210.184 35.9208 210.152 35.9801 210.133 36.0442C210.114 36.1084 210.109 36.1758 210.118 36.242C210.145 36.3646 210.199 36.4795 210.277 36.5778C210.301 36.6072 210.321 36.6396 210.345 36.672C210.46 36.8311 210.577 36.9872 210.704 37.1374C210.731 37.1698 210.76 37.1993 210.789 37.2317C210.925 37.4317 211.075 37.6208 211.24 37.7972C211.281 37.8899 211.337 37.9754 211.405 38.0505C212.103 38.8252 213.22 39.9798 212.775 41.1345C212.415 42.0682 211.007 41.9121 210.23 41.806C208.109 41.5115 206.106 40.6838 204.256 39.6411C200.327 37.4261 196.969 34.3392 193.043 32.1242C191.028 30.9527 188.817 30.1544 186.519 29.7678C186.519 29.7118 186.542 29.6559 186.551 29.597C186.589 29.3024 186.619 28.9931 186.648 28.6897C186.907 28.6897 187.172 28.6721 187.452 28.6573C188.289 28.622 189.22 28.569 190.242 28.5012C192.274 28.3628 194.625 28.1537 197.125 27.8827C199.626 27.6117 202.283 27.2936 204.928 26.9666C206.471 26.7781 208.009 26.5925 209.517 26.4188C209.533 26.4307 209.553 26.4378 209.573 26.4394L210.33 26.4718C210.89 26.5219 211.449 26.5631 212.006 26.6456C212.563 26.728 213.119 26.8135 213.667 26.9401C214.215 27.0668 214.76 27.1993 215.305 27.3436C215.85 27.488 216.38 27.6765 216.91 27.8679C217.44 28.0594 217.965 28.2626 218.474 28.5012C218.984 28.7398 219.493 28.9813 219.994 29.2376C220.495 29.4939 220.978 29.7884 221.467 30.0741C221.956 30.3598 222.418 30.6632 222.866 31.0196L223.435 31.3937C223.764 31.6293 224.2 31.9475 224.627 32.2774C225.055 32.6073 225.461 32.943 225.741 33.2081C225.878 33.3456 226.026 33.4726 226.183 33.5881C226.524 33.8827 226.813 34.1477 227.066 34.348C227.219 34.4957 227.396 34.6154 227.591 34.7015C227.599 34.7034 227.607 34.7033 227.615 34.7013C227.623 34.6993 227.631 34.6954 227.637 34.69C227.644 34.6845 227.648 34.6777 227.652 34.6699C227.655 34.6622 227.656 34.6539 227.655 34.6455C227.613 34.4774 227.538 34.3193 227.435 34.1802C227.218 33.8246 226.975 33.4859 226.707 33.1669C226.433 32.8341 226.138 32.4511 225.806 32.1124C225.473 31.7737 225.155 31.4202 224.842 31.1433C224.53 30.8665 224.271 30.6073 224.068 30.4453L223.744 30.1831C223.502 30.0093 223.264 29.8238 223.013 29.6588L222.239 29.161C221.735 28.8341 221.208 28.5454 220.686 28.2538C220.165 27.9622 219.626 27.6942 219.072 27.4615C218.798 27.3437 218.527 27.2111 218.25 27.1021L217.411 26.7811C216.851 26.566 216.277 26.3923 215.706 26.2126C215.461 26.1507 215.217 26.083 214.975 26.0182L214.919 25.9681L214.898 25.921C214.897 25.9152 214.897 25.9091 214.898 25.9033L214.937 25.8621C216.554 25.7177 218.071 25.5999 219.432 25.5263C221.408 25.4173 223.055 25.3613 224.206 25.3584C225.358 25.3554 226.015 25.3584 226.015 25.3584H226.563C226.913 25.3584 227.411 25.3584 228.006 25.3731C229.184 25.3731 230.778 25.4585 232.339 25.5705C233.9 25.6824 235.437 25.865 236.551 26.0447L237.853 26.242C238.147 26.2951 238.286 26.3186 238.221 26.3009C239.485 26.516 240.627 26.7575 241.517 26.9372C242.087 27.0854 242.667 27.1956 243.252 27.2671C243.26 27.264 243.266 27.2593 243.272 27.2533C243.278 27.2472 243.282 27.24 243.285 27.2321C243.287 27.2242 243.288 27.2159 243.287 27.2076C243.286 27.1994 243.283 27.1916 243.278 27.1846C242.845 26.9755 242.397 26.7973 241.938 26.6515C241.555 26.5101 241.081 26.3775 240.515 26.2096C240.306 26.1448 240.082 26.083 239.847 26.0211C239.83 25.9944 239.808 25.9714 239.782 25.9534C239.76 25.9443 239.738 25.9335 239.717 25.921C239.691 25.9038 239.66 25.8946 239.629 25.8945C239.597 25.8857 239.563 25.8857 239.532 25.8945C239.514 25.9009 239.497 25.9098 239.482 25.921L238.51 25.6824C237.311 25.3878 235.968 25.1316 234.63 24.9107C233.959 24.8046 233.29 24.7222 232.642 24.6308L230.769 24.4276C229.591 24.3275 228.548 24.2538 227.823 24.2244C227.411 24.2008 227.096 24.1861 226.895 24.1802H226.848L226.804 24.1566L226.778 24.1331L226.751 24.1036V24.083C227.081 23.8297 227.423 23.594 227.764 23.3584C228.106 23.1227 228.465 22.8989 228.816 22.6691C229.166 22.4394 229.532 22.2273 229.9 22.03C230.268 21.8326 230.633 21.6205 231.01 21.4409C231.387 21.2612 231.764 21.0727 232.141 20.8871C232.518 20.7016 232.907 20.5425 233.296 20.3864C233.685 20.2303 234.074 20.0712 234.474 19.9328L234.937 19.7325L235.968 19.326C236.342 19.1935 236.713 19.0462 236.987 18.9578C237.126 18.9199 237.262 18.8696 237.393 18.8076C237.688 18.6868 237.982 18.5867 238.2 18.4895C238.354 18.437 238.493 18.3492 238.607 18.2332C238.613 18.228 238.618 18.2214 238.621 18.214C238.625 18.2067 238.627 18.1986 238.627 18.1905C238.627 18.1824 238.625 18.1743 238.621 18.167C238.618 18.1596 238.613 18.1531 238.607 18.1478C238.483 18.0981 238.348 18.0779 238.215 18.0889C237.906 18.0888 237.597 18.1105 237.29 18.1537C236.972 18.192 236.616 18.2273 236.268 18.2951C235.92 18.3628 235.576 18.4188 235.275 18.4924L234.524 18.675L234.23 18.7575C233.812 18.9048 233.396 19.0521 232.987 19.2317C232.577 19.4114 232.174 19.5793 231.767 19.7531C231.361 19.9269 230.963 20.1272 230.571 20.3422C230.18 20.5572 229.782 20.7487 229.393 20.9696C229.004 21.1905 228.627 21.4144 228.247 21.6412C227.867 21.868 227.499 22.1154 227.134 22.3658C226.769 22.6161 226.404 22.8694 226.053 23.1375C225.817 23.3083 225.591 23.485 225.367 23.6647C224.923 23.8896 224.462 24.0787 223.988 24.2303C222.895 24.245 221.52 24.2833 219.932 24.3687C217.909 24.4777 215.546 24.6632 213.025 24.9136C210.504 25.164 207.817 25.488 205.134 25.8149L202.739 26.1095C202.721 26.1064 202.702 26.1064 202.683 26.1095H202.468H202.359H202.321H202.233L202.139 26.0889L202.097 26.0712L202.047 26.0447L202.021 26.0241L201.991 25.9946C202.05 25.9445 202.106 25.8886 202.165 25.8356C202.519 25.5145 202.881 25.2052 203.249 24.9018C203.617 24.5984 203.994 24.3127 204.362 24.0035C204.731 23.6942 205.122 23.4144 205.514 23.1522C205.906 22.8901 206.295 22.6014 206.692 22.3451C207.09 22.0889 207.496 21.8297 207.9 21.5764C208.303 21.323 208.722 21.0904 209.137 20.8577C209.552 20.625 209.974 20.3952 210.401 20.1831L210.898 19.8886L212.003 19.2995C212.41 19.0963 212.807 18.8812 213.102 18.7428C213.254 18.6821 213.4 18.6061 213.538 18.516C213.868 18.3422 214.174 18.189 214.404 18.0506C214.565 17.9692 214.709 17.8572 214.828 17.7207C214.832 17.7136 214.835 17.7055 214.836 17.6971C214.837 17.6888 214.836 17.6803 214.833 17.6724C214.83 17.6644 214.826 17.6573 214.82 17.6513C214.814 17.6454 214.806 17.641 214.798 17.6382C214.654 17.6069 214.504 17.6069 214.359 17.6382C214.014 17.6939 213.672 17.7727 213.337 17.8739C212.99 17.9681 212.598 18.0712 212.224 18.2008C211.85 18.3304 211.47 18.4482 211.146 18.5778C210.492 18.8223 210.018 19.0314 210.018 19.0314C209.57 19.2553 209.134 19.488 208.692 19.7325C208.25 19.977 207.826 20.2273 207.393 20.4777C206.96 20.7281 206.542 20.9961 206.127 21.2759C205.711 21.5557 205.296 21.8297 204.89 22.1213C204.483 22.4129 204.086 22.7104 203.685 23.0049C203.284 23.2995 202.896 23.6176 202.507 23.9416C202.118 24.2656 201.741 24.5837 201.373 24.9195C201.061 25.1905 200.763 25.4733 200.466 25.756C200.342 25.8414 200.224 25.9357 200.097 26.0152C199.764 26.2406 199.4 26.4172 199.016 26.5395L198.851 26.5896C198.289 26.6544 197.729 26.7192 197.178 26.7781C194.654 27.052 192.286 27.2671 190.245 27.4055C189.225 27.4733 188.286 27.5263 187.449 27.5616L186.74 27.5911C186.76 27.2082 186.778 26.8252 186.787 26.4423L188.642 25.6706C188.733 25.6346 188.821 25.5912 188.904 25.541C195.131 23.4968 200.734 19.9858 206.442 16.8223C212.448 13.4969 219.013 10.3953 226.021 10.3599C227.614 10.3599 229.602 10.3216 231.028 11.1758C231.279 11.3068 231.495 11.496 231.657 11.7277C231.82 11.9594 231.924 12.2267 231.962 12.5072C232.018 13.0197 231.876 13.3908 231.461 13.6147C230.353 14.1743 231.328 15.8356 232.43 15.2759C232.52 15.2322 232.607 15.182 232.689 15.1257C232.824 15.141 232.96 15.1268 233.088 15.0841C233.216 15.0413 233.333 14.9711 233.432 14.8783C233.827 14.5801 234.295 14.392 234.786 14.3334C235.458 14.2102 236.135 14.1208 236.816 14.0653C238.186 13.9298 239.561 13.8621 240.94 13.8533C243.731 13.8502 246.52 14.0213 249.29 14.3658C251.585 14.6368 254.044 14.9195 256.015 16.2303C256.828 16.7723 257.649 17.5882 257.782 18.6073C257.915 19.6264 257.272 20.2833 256.333 20.5278C255.007 20.8753 253.54 20.8783 252.177 20.9372C251.479 20.9666 250.778 20.9814 250.079 20.9814C249.396 20.9087 248.709 20.8469 248.018 20.7958C247.847 20.7876 247.678 20.8329 247.535 20.9254H247.387C246.15 20.8636 246.153 22.7899 247.387 22.8488C248.263 22.8901 249.138 22.9097 250.012 22.9077C255.122 23.4968 260.739 25.1993 262.66 30.4305C263.032 31.41 263.194 32.4565 263.137 33.5027C263.001 33.3908 262.863 33.2818 262.725 33.1728C261.493 32.2155 260.218 31.3142 258.895 30.4806C257.844 29.8208 256.878 31.485 257.923 32.1448C258.969 32.8046 260.003 33.5086 260.996 34.2538C261.791 34.8429 262.651 35.488 263.219 36.3156C263.697 36.9106 263.926 37.703 263.499 38.51H263.505Z" fill="black"/>
<path d="M158.301 22.0712C158.251 21.1112 158.112 20.1577 157.888 19.2229C157.903 19.1963 157.913 19.1669 157.916 19.1366C157.92 19.1063 157.917 19.0755 157.909 19.0462C157.745 18.5159 157.549 17.9965 157.32 17.4909C157.297 17.4288 157.26 17.3725 157.213 17.3261C157.166 17.2798 157.109 17.2445 157.046 17.2229C156.971 17.2062 156.893 17.2105 156.821 17.2355C156.749 17.2605 156.685 17.3051 156.636 17.3643C156.562 17.458 156.508 17.5659 156.476 17.6813C156.445 17.7968 156.437 17.9174 156.454 18.0359C156.478 18.3496 156.536 18.6597 156.628 18.9607C156.628 19.0314 156.628 19.0786 156.628 19.0786C156.895 20.076 157.056 21.0989 157.108 22.1301C157.108 22.3775 157.125 22.6279 157.125 22.8753C157.137 22.9078 157.153 22.9385 157.173 22.9666C157.181 23.1044 157.208 23.2403 157.255 23.3702C157.286 23.5337 157.358 23.6867 157.464 23.8149C157.503 23.859 157.551 23.8945 157.604 23.9195C157.657 23.9444 157.715 23.9581 157.774 23.9597C157.833 23.9614 157.891 23.951 157.946 23.9291C158.001 23.9072 158.05 23.8744 158.092 23.8326C158.223 23.6593 158.292 23.4463 158.286 23.2288C158.291 23.1307 158.291 23.0323 158.286 22.9342C158.299 22.9152 158.305 22.8924 158.304 22.8694C158.321 22.6102 158.315 22.3422 158.301 22.0712Z" fill="black"/>
<path d="M140.081 20.083C140.021 19.993 139.945 19.9143 139.857 19.8503C139.837 19.8103 139.813 19.772 139.787 19.7354C139.76 19.6971 139.751 19.6942 139.725 19.6883C139.489 19.6235 139.257 19.5499 139.018 19.4674C138.202 19.1905 137.366 18.8312 136.438 18.5985H136.223C136.049 18.5226 135.866 18.4711 135.678 18.4453C135.458 18.412 135.233 18.4515 135.037 18.5579C134.841 18.6642 134.686 18.8315 134.594 19.0344C134.584 19.0438 134.576 19.0551 134.57 19.0678C134.564 19.0805 134.562 19.0942 134.561 19.108V19.2494C134.561 19.2671 134.561 19.2818 134.561 19.2995L134.529 19.8886C134.458 21.3142 134.427 22.7408 134.435 24.1684C134.433 24.185 134.433 24.2018 134.435 24.2185C134.435 24.407 134.435 24.5926 134.45 24.7811C134.45 24.8753 134.45 24.9725 134.45 25.0756V25.1198C134.494 26.5248 134.576 27.9298 134.712 29.3289C134.741 30.0569 134.832 30.7811 134.983 31.4939C135.016 31.6179 135.059 31.7391 135.112 31.8562C135.101 32.0192 135.148 32.1808 135.245 32.3127C135.311 32.4085 135.397 32.488 135.498 32.5454C135.57 32.5838 135.649 32.6079 135.731 32.6161C135.799 32.6868 135.846 32.731 135.846 32.731C136.22 32.9195 136.606 33.0903 136.997 33.2435C137.389 33.3966 137.793 33.538 138.176 33.6441C138.407 33.7041 138.635 33.7758 138.859 33.8591C138.89 33.858 138.921 33.8531 138.95 33.8444C139.003 33.8237 139.045 33.8002 139.092 33.7796C139.237 33.8419 139.401 33.8461 139.549 33.7913C139.698 33.7365 139.82 33.6269 139.89 33.485C139.899 33.4748 139.907 33.4627 139.911 33.4495C139.916 33.4363 139.918 33.4223 139.916 33.4084C139.916 33.1522 139.916 32.8959 139.916 32.6397C139.916 30.7486 140.002 28.8517 140.087 26.9431C140.164 26.5601 140.208 26.2391 140.208 26.2391V24.1331C140.208 24.03 140.208 23.9269 140.208 23.8238L140.193 23.485V21.3231V20.7487C140.203 20.7376 140.21 20.7245 140.214 20.7104C140.235 20.6023 140.234 20.491 140.211 20.3833C140.188 20.2755 140.144 20.1734 140.081 20.083ZM136.311 31.1198L136.237 31.1492L136.199 30.893L135.905 28.7722L135.878 28.7104C135.796 27.4752 135.711 26.242 135.625 25.0108C135.597 23.328 135.627 21.6461 135.713 19.9652L135.737 19.5292L135.884 19.6205L136.114 19.759C136.93 19.9563 137.749 20.3069 138.629 20.6102C138.744 20.6515 138.865 20.6839 138.983 20.7222V21.3407L138.997 24.1419C138.933 26.1478 138.818 28.1625 138.756 30.1919C138.626 30.2126 138.535 30.2332 138.535 30.2332L136.311 31.1198ZM136.591 31.7825L138.738 30.9195C138.738 31.4673 138.715 32.0123 138.712 32.5631L138.5 32.5012C137.847 32.3158 137.212 32.0754 136.6 31.7825H136.591Z" fill="black"/>
<path d="M148.301 35.4438C148.13 32.1055 147.961 28.7732 147.792 25.4468C147.846 24.6624 147.853 23.8755 147.812 23.0904C147.812 22.6927 147.774 22.2951 147.736 21.8974C147.736 21.8974 147.736 21.8974 147.736 21.8798C147.734 21.8273 147.728 21.7751 147.718 21.7237C147.718 21.6913 147.718 21.6589 147.718 21.6235C147.713 21.5869 147.701 21.5519 147.681 21.5208C147.661 21.4898 147.634 21.4635 147.603 21.4438C147.493 21.2858 147.345 21.1581 147.173 21.0727C147.016 21.0003 146.854 20.9364 146.69 20.8812L146.166 20.6898C146.13 20.6779 146.092 20.6779 146.057 20.6898C145.267 20.4853 144.462 20.3444 143.65 20.2686C143.397 20.2362 143.152 20.2008 142.911 20.1566C142.878 20.1624 142.846 20.1734 142.817 20.1891C142.636 20.2766 142.491 20.4231 142.404 20.6044C142.321 20.6731 142.25 20.7558 142.195 20.8488C142.185 20.8593 142.178 20.8718 142.173 20.8856C142.168 20.8994 142.167 20.914 142.169 20.9284L142.201 21.7089C142.315 24.1871 142.498 26.6593 142.749 29.1257L142.829 29.5381C142.899 30.5219 142.982 31.5057 143.088 32.4836C143.088 32.516 143.088 32.5366 143.088 32.5366L143.117 33.6264L143.135 34.2626C143.131 34.4364 143.178 34.6075 143.27 34.7545C143.365 34.8975 143.5 35.0085 143.659 35.0727L144.157 35.2523L144.519 35.3819L145.247 35.6382L146.72 36.1536L147.453 36.4129C147.488 36.4147 147.523 36.4097 147.556 36.3981C147.629 36.3738 147.699 36.3422 147.765 36.3039C147.87 36.2747 147.968 36.2233 148.051 36.1532C148.134 36.083 148.202 35.9958 148.248 35.8974C148.257 35.8865 148.264 35.8738 148.268 35.8601C148.272 35.8464 148.274 35.832 148.272 35.8179L148.257 35.6146C148.276 35.5909 148.29 35.5634 148.297 35.5339C148.305 35.5045 148.306 35.4738 148.301 35.4438ZM144.001 30.9902C143.974 30.8842 143.945 30.7899 143.915 30.6956C143.945 29.9062 143.939 29.111 143.939 29.111C143.69 26.6308 143.507 24.1439 143.391 21.65V21.4379L143.5 21.4527C144.322 21.52 145.135 21.668 145.927 21.8945C145.927 21.8945 146.119 21.8945 146.307 21.9328H146.36V22.5219C146.36 25.0373 146.36 27.5646 146.56 30.0977C146.56 30.0977 146.655 30.7074 146.767 31.2995C146.802 31.4939 146.84 31.6824 146.876 31.8532C146.826 32.0594 146.796 32.2214 146.796 32.2214L146.831 32.7104C146.675 32.7104 146.537 32.7104 146.537 32.7104C145.862 32.8989 145.197 33.1198 144.546 33.3731L144.295 33.4733L144.272 32.5542C144.272 32.5542 144.024 30.9283 144.001 30.9902ZM144.608 34.1684L144.805 34.0918C145.425 33.8483 146.058 33.6353 146.702 33.4526L146.867 33.3731L146.985 35.0079L144.608 34.1684Z" fill="black"/>
<path d="M245.118 27.5174C244.811 27.4093 244.499 27.3188 244.182 27.2464C244.12 27.231 244.055 27.2402 244 27.2721C243.945 27.304 243.904 27.3561 243.887 27.4173C243.871 27.4786 243.879 27.5438 243.911 27.5989C243.942 27.6541 243.994 27.6946 244.055 27.7118C244.372 27.7836 244.685 27.8731 244.992 27.9799C245.022 27.9883 245.054 27.9907 245.085 27.9868C245.116 27.983 245.146 27.9729 245.174 27.9573C245.201 27.9417 245.225 27.9208 245.245 27.8959C245.264 27.8709 245.278 27.8424 245.286 27.812C245.302 27.7507 245.293 27.6858 245.262 27.6309C245.23 27.5759 245.179 27.5353 245.118 27.5174Z" fill="black"/>
<path d="M246.919 27.9828C246.888 27.955 246.852 27.9339 246.813 27.921L246.683 27.8886C246.652 27.8797 246.62 27.8797 246.589 27.8886C246.557 27.8912 246.525 27.9013 246.498 27.918C246.47 27.9329 246.447 27.9541 246.43 27.9799C246.409 28.003 246.394 28.0315 246.389 28.0623V28.1271C246.389 28.1695 246.4 28.2109 246.421 28.2479L246.459 28.295C246.489 28.3244 246.525 28.3457 246.565 28.3569L246.692 28.3922C246.724 28.401 246.757 28.401 246.789 28.3922C246.821 28.3925 246.852 28.3833 246.878 28.3657C246.905 28.3517 246.929 28.3303 246.945 28.3039C246.966 28.2798 246.981 28.2517 246.99 28.2214V28.1566C246.99 28.1138 246.977 28.0718 246.954 28.0358L246.919 27.9828Z" fill="black"/>
<path d="M216.51 16.351L215.626 16.5631C215.595 16.5713 215.567 16.5854 215.542 16.6047C215.517 16.624 215.496 16.648 215.481 16.6754C215.465 16.7028 215.455 16.733 215.451 16.7643C215.447 16.7955 215.45 16.8273 215.458 16.8577C215.476 16.9183 215.517 16.9696 215.571 17.001C215.626 17.0323 215.691 17.0411 215.753 17.0255L216.621 16.8135C216.683 16.7963 216.734 16.7557 216.766 16.7006C216.797 16.6455 216.806 16.5802 216.789 16.5189C216.772 16.4614 216.733 16.4124 216.682 16.3815C216.63 16.3505 216.569 16.3396 216.51 16.351Z" fill="black"/>
<path d="M115.272 53.2308C115.197 53.1915 115.125 53.1483 115.056 53.1012C114.814 52.9452 114.594 52.7574 114.402 52.5428C114.217 52.3454 114.056 52.1418 113.856 51.9258C113.754 51.824 113.646 51.7191 113.519 51.6173C113.482 51.5896 113.464 51.571 113.414 51.5371L113.202 51.4106C113.165 51.3869 113.127 51.3663 113.087 51.3489C113.026 51.3321 112.965 51.3188 112.902 51.3088C112.75 51.2897 112.596 51.2825 112.443 51.2872L104.215 51.3767H103.65C103.714 51.1374 103.743 50.8901 103.736 50.6424H104.529H104.674L108.707 50.627H108.842L110.465 50.664L112.18 50.698C112.393 50.698 112.628 50.698 112.797 50.698C112.967 50.698 113.084 50.6764 113.084 50.6764C113.315 50.6505 113.541 50.5987 113.76 50.5221L114.13 50.3894L114.852 50.1272L115.074 50.047C115.189 50.0119 115.3 49.9676 115.407 49.9143L115.185 49.6552L114.877 49.322C114.445 48.8649 113.986 48.4352 113.501 48.0355C113.248 47.8257 112.979 47.6159 112.699 47.4185L112.165 47.0329L112.057 46.9557C112.057 46.9372 111.992 46.9557 111.949 46.9557H111.276H110.69C107.173 46.9928 103.654 47.0041 100.133 46.9897H100.087C99.2344 46.5683 98.3565 46.2005 97.4583 45.8883C96.6284 45.5983 95.7122 45.3268 94.7126 45.0862C93.713 44.8455 92.6147 44.6358 91.4763 44.4692C89.0695 44.1266 86.6445 43.9268 84.214 43.8706C81.7213 43.8028 79.2038 43.8706 76.7882 44.028C74.3726 44.1853 72.0372 44.4414 69.8159 44.753C69.3068 44.827 68.8009 44.9011 68.3042 44.9782H68.2702C67.5329 44.9196 66.7832 44.8795 66.0367 44.8517C65.1399 44.8188 64.2463 44.8054 63.3557 44.8116C61.5818 44.8116 59.848 44.8949 58.1604 44.9905C57.312 45.0368 56.4821 45.0893 55.6491 45.1448C54.8162 45.2003 53.9801 45.2589 53.141 45.3268C52.3018 45.3947 51.4596 45.4749 50.6266 45.5705C49.7936 45.6662 48.9637 45.7803 48.1585 45.9161C47.9025 45.9623 47.6433 46.0025 47.3934 46.0549C47.1435 46.1073 46.8937 46.1536 46.653 46.2092H46.6283C45.5856 46.1598 44.5366 46.132 43.4846 46.1197C42.4326 46.1073 41.3713 46.1197 40.3193 46.1505C39.2673 46.1814 38.2307 46.2338 37.2034 46.2986C36.176 46.3634 35.1641 46.4467 34.1646 46.5423C32.1685 46.7336 30.2434 46.9835 28.3924 47.2735C27.4668 47.4154 26.5629 47.582 25.6744 47.7363L25.0111 47.8597L24.3262 47.9985C23.8789 48.0941 23.45 48.1959 23.0366 48.307C22.6232 48.4181 22.1728 48.5384 21.7625 48.6649C21.5188 48.6649 21.275 48.6649 21.0344 48.6649C20.0071 48.6649 19.0198 48.7235 18.1036 48.7975C17.1873 48.8716 16.3296 48.958 15.5368 49.0505C13.9449 49.2387 12.6337 49.4516 11.7174 49.6089C10.8012 49.7663 10.2767 49.8681 10.2767 49.8681C9.26787 50.0748 8.30223 50.2876 7.34586 50.5129C6.38948 50.7381 5.45161 50.9818 4.56927 51.2564C3.76047 51.4966 2.97393 51.8062 2.21843 52.1819C1.91989 52.3394 1.63596 52.5232 1.37003 52.731C1.15578 52.8915 0.985907 53.1038 0.876417 53.3481C0.832027 53.4614 0.820642 53.585 0.843573 53.7046C0.866503 53.8242 0.922811 53.9348 1.00599 54.0237C1.27841 54.301 1.6109 54.5121 1.9778 54.6407C2.96254 55.0039 3.98026 55.2705 5.01661 55.4367C7.24713 55.8346 9.64425 56.029 11.9118 56.2048C14.1793 56.3807 16.4962 56.5442 18.8162 56.68C21.1362 56.8157 23.4809 56.9298 25.841 57.007C28.2011 57.0841 30.5797 57.1304 32.9706 57.1273C35.3616 57.1242 37.7587 57.0656 40.1342 56.9484C40.4119 56.9329 40.6895 56.9237 40.9641 56.9052L41.7508 56.8558C41.9729 56.8867 42.1951 56.9175 42.4172 56.9422C43.1946 57.0316 43.9597 57.0934 44.7217 57.1458C45.4838 57.1982 46.2365 57.2384 46.9985 57.2723C48.5257 57.3402 50.0682 57.371 51.6108 57.3679C53.1533 57.3648 54.6959 57.3278 56.2168 57.2507C56.9696 57.2168 57.7593 57.1736 58.5985 57.0841C58.8515 57.0563 59.0952 57.0224 59.3358 56.9885C59.814 57.0964 60.32 57.1797 60.8074 57.2414C61.2949 57.3031 61.7669 57.3525 62.2327 57.3957C62.6986 57.4389 63.1737 57.479 63.6457 57.516C64.5959 57.5901 65.5615 57.6394 66.5303 57.6764C68.4708 57.7474 70.436 57.7474 72.3765 57.6764C73.3452 57.6394 74.3109 57.587 75.258 57.5129C76.2051 57.4389 77.1954 57.3494 78.1641 57.189C78.4325 57.1458 78.6917 57.0964 78.9447 57.0409C79.2809 57.1149 79.6265 57.1859 79.9843 57.2476C81.3117 57.4636 82.6511 57.5976 83.995 57.6487C85.374 57.7073 86.753 57.6949 88.0889 57.6487C89.4247 57.6024 90.7081 57.5098 92.0008 57.3834C93.2431 57.2659 94.4787 57.0857 95.7029 56.8435C95.7029 56.8435 95.9713 56.7818 96.3446 56.683C96.7179 56.5843 97.193 56.4393 97.6249 56.2943C98.085 56.1401 98.5343 55.9557 98.97 55.7421C99.5113 55.5388 100.037 55.2965 100.543 55.0171C100.812 54.869 101.003 54.7487 101.133 54.6654C101.199 54.6251 101.263 54.5808 101.324 54.5327C101.373 54.4988 101.416 54.4618 101.463 54.4247C102.514 54.4247 103.564 54.4124 104.613 54.3877H104.65H104.699H105.19L107.328 54.3538H108.5C109.601 54.3538 110.703 54.3538 111.804 54.3538H114.007C114.03 54.3581 114.054 54.357 114.077 54.3506C114.1 54.3442 114.122 54.3326 114.139 54.3168L114.235 54.2612L114.522 54.0885L114.905 53.8633L115.142 53.7244L115.259 53.6535L115.29 53.635L115.343 53.601C115.373 53.5803 115.4 53.5554 115.423 53.527C115.439 53.5038 115.447 53.4753 115.444 53.4469C115.441 53.4185 115.428 53.3922 115.407 53.3727C115.369 53.3192 115.323 53.2714 115.272 53.2308ZM102.823 48.7358L103.237 48.6988C103.545 48.6556 103.854 48.6217 104.162 48.6063C104.471 48.5908 104.779 48.5908 105.119 48.6063C105.458 48.6217 105.844 48.6402 106.171 48.6618C106.498 48.6834 106.812 48.7204 107.075 48.7636L107.173 48.7852L107.031 48.816C106.625 48.9028 106.212 48.9605 105.797 48.9888C105.35 49.0227 104.872 49.0382 104.4 49.032C103.979 49.0316 103.558 49.0006 103.141 48.9395L102.913 48.8932C102.866 48.8438 102.814 48.7945 102.762 48.7451L102.823 48.7358ZM104.097 52.9562C104.27 52.9408 104.443 52.9285 104.622 52.9192C104.801 52.91 104.977 52.9192 105.156 52.9007H105.689C105.868 52.9007 106.044 52.9007 106.223 52.9161C106.402 52.9316 106.572 52.9346 106.741 52.9532L107.019 52.9778C106.553 53.0087 106.093 53.0241 105.625 53.0241C105.625 53.0241 105.396 53.0241 105.06 53.0241C104.724 53.0241 104.316 53.0056 103.909 52.9717L104.097 52.9562ZM103.116 52.6015C103.116 52.5943 103.116 52.5871 103.116 52.5799H103.132L103.116 52.6015Z" fill="black"/>
<path d="M114.154 28.7938C113.981 28.1428 113.805 27.4919 113.632 26.8409C113.496 26.4059 113.351 25.9771 113.206 25.5483C112.96 24.8665 112.713 24.1878 112.46 23.509C112.083 22.5403 111.682 21.5809 111.266 20.6306C107.971 20.6769 104.688 20.4733 101.394 20.4579C97.7902 20.4394 99.9714 23.3455 100.974 25.3046C100.956 25.1479 100.946 24.9903 100.946 24.8325C100.93 24.5 100.981 24.1675 101.094 23.8546C101.237 23.5671 101.447 23.3175 101.704 23.1261C101.962 22.9347 102.262 22.807 102.578 22.7532C103.741 22.5033 105.586 22.6545 106.512 23.4751C106.775 23.6991 106.975 23.9871 107.094 24.3115C107.213 24.6358 107.246 24.9853 107.19 25.3262C107.024 26.1067 106.305 26.6774 105.534 26.8872C104.751 27.0508 103.944 27.0508 103.161 26.8872C102.495 26.7885 101.758 26.6157 101.332 26.1314C101.881 27.7387 101.881 29.4694 101.776 31.1786C101.849 31.1845 101.921 31.1948 101.992 31.2094C103.291 31.5179 104.63 31.5611 105.963 31.6228C106.863 31.558 107.764 31.4871 108.668 31.4994C109.572 31.5118 110.559 31.5827 111.5 31.5395L112.546 31.2773C113.052 30.6577 113.604 30.0771 114.197 29.5404C114.21 29.5021 114.22 29.4629 114.228 29.4232C114.246 29.2105 114.221 28.9963 114.154 28.7938Z" fill="#9598A2"/>
<path d="M100.98 25.3015C101.003 25.4989 101.059 25.691 101.147 25.8691C101.198 25.9669 101.263 26.0573 101.338 26.1376C101.317 26.0789 101.304 26.0203 101.283 25.9617C101.194 25.7363 101.093 25.5159 100.98 25.3015Z" fill="#9598A2"/>
<path d="M100.765 26.3443C99.8394 23.3579 98.1703 20.6646 96.381 18.104C95.1469 16.3547 93.8389 14.624 92.0989 13.39C90.3589 12.1559 88.1129 11.4741 86.0552 12.0356C84.2041 12.5416 82.2636 10.7399 80.3416 10.6072C79.2371 10.5301 78.1542 10.9157 77.1084 11.2705L71.6601 13.1833C69.7319 13.8589 67.7914 14.5407 65.7738 14.8801C63.6142 15.2441 61.4022 15.2071 59.221 15.42C54.3929 15.8858 49.6912 16.3763 45.6806 19.1005C44.0424 18.3261 42.3116 18.9586 40.513 18.9339C37.582 18.8747 34.6869 19.5875 32.1185 21.0009L26.0717 24.3081C25.3854 24.7128 24.6623 25.0516 23.9121 25.32C22.7984 25.6779 21.6138 26.5232 20.4507 26.6435C16.3745 27.0866 12.469 28.5219 9.07594 30.8238C5.4818 33.2425 3.98554 35.9667 1.55757 39.4621C0.96523 40.3136 0.428424 42.6521 0.897358 43.7041C1.43725 44.9073 2.64969 45.4317 3.81585 45.8636C11.0099 48.4465 18.4242 50.3693 25.9668 51.6081C29.0211 52.1326 32.1062 51.4507 35.2005 51.2841C36.7646 51.1978 38.3195 50.9386 39.8837 51.0219C42.58 51.1638 45.1283 51.9135 47.7692 52.4287C49.5547 52.7724 51.3841 52.8255 53.1866 52.5861C55.2142 52.3354 57.1545 51.6115 58.8508 50.4728C63.5359 53.009 68.9148 53.9645 74.1868 53.1969C74.8563 53.0982 75.5227 52.9686 76.1921 52.8514C76.4062 52.4912 76.6711 52.1639 76.9788 51.8796C77.2471 51.6218 77.6048 51.4779 77.9768 51.4779C78.3489 51.4779 78.7065 51.6218 78.9749 51.8796C79.1582 52.0568 79.2849 52.2844 79.3389 52.5336C79.4808 52.5336 79.6258 52.5336 79.7677 52.5336C82.0507 52.6755 84.2226 53.7183 86.5087 53.7183C87.9432 53.7183 89.3439 53.308 90.7106 52.8699C92.5153 52.2899 94.3448 51.6358 95.8256 50.445C98.3091 48.449 99.4568 45.2497 100.268 42.1677C101.629 36.994 102.348 31.4501 100.765 26.3443Z" fill="url(#paint6_linear_3959_15044)"/>
<path d="M99.8187 43.5405C99.9676 43.4886 100.124 43.4615 100.282 43.4603C104.292 43.4603 108.303 43.3153 112.313 43.3647C112.538 43.2751 112.758 43.1721 112.97 43.0562C113.332 42.6119 113.692 42.1656 114.05 41.7173C114.175 41.5889 114.264 41.4305 114.309 41.2576C114.325 41.1175 114.312 40.9756 114.269 40.8411C113.755 38.7362 112.923 36.7221 111.801 34.8684C111.743 34.7471 111.651 34.6453 111.536 34.5753C111.424 34.5315 111.303 34.5166 111.184 34.5321L104.397 34.8406C103.641 34.8776 102.546 34.6617 102.065 35.3527C101.583 36.0438 101.679 37.1853 101.586 37.938C101.339 39.9183 100.675 41.8236 99.6367 43.5282C99.6977 43.5222 99.7592 43.5264 99.8187 43.5405ZM102.324 37.6418C102.392 37.5691 102.473 37.5086 102.561 37.4629C102.639 37.2707 102.78 37.1115 102.962 37.0125C103.63 36.7112 104.353 36.5505 105.085 36.5405C105.219 36.5329 105.353 36.5594 105.474 36.6176H105.727C106.609 36.6392 107.67 36.8181 108.371 37.4166C108.474 37.4717 108.566 37.5471 108.64 37.6382C108.714 37.7294 108.77 37.8345 108.803 37.9473C108.871 38.1345 108.885 38.3374 108.843 38.5323C108.801 38.7273 108.705 38.9063 108.565 39.0487C108.053 39.6657 106.998 39.8508 106.257 39.9063C105.352 40.0013 104.436 39.8687 103.595 39.5207C103.129 39.52 102.677 39.36 102.315 39.0672C102.129 38.8756 102.026 38.6191 102.028 38.3526C102.03 38.0861 102.136 37.8309 102.324 37.6418Z" fill="#9598A2"/>
<path d="M108.956 28.9604C108.234 29.0129 107.509 29.019 106.797 29.0252H106.769C106.144 29.0828 105.517 29.0941 104.89 29.0591C104.52 29.0776 104.153 29.1023 103.786 29.1486C103.702 29.1563 103.617 29.1563 103.533 29.1486C103.419 29.1702 103.305 29.1949 103.187 29.2134C102.836 29.2689 102.246 29.1733 102.064 29.5651C101.984 29.7409 102.345 31.2588 102.41 32.0332C102.463 31.9034 102.563 31.7982 102.689 31.7383C102.816 31.6783 102.961 31.668 103.095 31.7092C103.296 31.7613 103.504 31.7883 103.712 31.7894C104.773 31.5827 105.844 31.6722 106.917 31.6846C107.008 31.6197 107.115 31.5822 107.226 31.5766C107.434 31.5665 107.642 31.5894 107.843 31.6444C108.707 31.6969 109.583 31.5303 110.45 31.6198C110.497 31.6274 110.544 31.6398 110.588 31.6568C111.125 31.5827 111.659 31.4994 112.193 31.3946L112.615 31.3143C113.185 30.8617 113.69 30.3322 114.115 29.7409C112.415 29.3627 110.692 29.102 108.956 28.9604Z" fill="#666B80"/>
<path d="M100.484 43.7041C102.752 44.1082 105.112 43.4912 107.392 43.5344C108.626 43.5591 109.86 43.5868 111.075 43.5097C111.597 43.4789 112.115 43.4388 112.636 43.4017C113.026 42.911 113.383 42.3957 113.707 41.8592C113.876 41.6281 113.974 41.3524 113.988 41.0663L111.371 41.3131C110.702 41.3779 110.032 41.4427 109.363 41.4674C108.289 41.5106 107.203 41.4674 106.145 41.4088L104.717 41.3378L102.557 41.236C102.017 41.2082 101.113 40.983 100.601 41.165C100.163 41.3193 100.231 41.9641 100.154 42.3405C100.023 42.9971 99.7902 43.6291 99.4629 44.2131L99.7344 44.2347C99.7478 44.1502 99.778 44.0692 99.8231 43.9965C99.8683 43.9238 99.9276 43.8609 99.9974 43.8114C100.067 43.762 100.146 43.727 100.23 43.7086C100.313 43.6902 100.4 43.6886 100.484 43.7041Z" fill="#666B80"/>
<path d="M105.9 24.7832C106.416 25.0084 106.891 25.3323 107.418 25.5113C107.539 24.8233 107.637 24.0335 107.212 23.4998C106.97 23.232 106.658 23.0375 106.311 22.9383C105.036 22.4844 103.653 22.4359 102.35 22.7995C102.004 22.8796 101.68 23.0356 101.402 23.2561C101.262 23.3735 101.151 23.5224 101.079 23.6908C101.008 23.8592 100.977 24.0422 100.989 24.2248C101.085 24.6543 101.21 25.0769 101.362 25.4897C102.757 24.5456 104.299 24.0921 105.9 24.7832Z" fill="#666B80"/>
<path d="M105.248 38.3576C105.797 38.4214 106.327 38.5932 106.809 38.8633C107.291 39.1334 107.715 39.4963 108.055 39.931C108.095 39.9834 108.145 40.0421 108.2 40.039C108.246 40.0312 108.287 40.0084 108.318 39.9742C108.633 39.7361 108.845 39.386 108.91 38.9962C108.905 38.7824 108.854 38.5722 108.76 38.38C108.666 38.1877 108.532 38.018 108.367 37.8825C107.238 36.7749 105.797 36.1733 104.387 36.3399C103.819 36.3924 103.285 36.631 102.866 37.0187C102.53 37.3488 101.682 38.9962 102.585 38.771C103.489 38.5458 104.301 38.2434 105.248 38.3576Z" fill="#666B80"/>
<path d="M114.426 40.1099C114.349 39.9649 114.278 39.8354 114.21 39.6934C113.944 39.1094 113.725 38.5048 113.556 37.8856C113.374 37.2531 113.214 36.5929 113.013 35.9265C112.911 35.5903 112.803 35.254 112.677 34.9208C112.64 34.8313 112.621 34.7666 112.572 34.6586L112.359 34.2513C112.325 34.1831 112.287 34.1171 112.245 34.0539C112.19 34.0014 112.128 33.9577 112.06 33.9243C111.914 33.8625 111.755 33.8391 111.597 33.8564L103.372 34.1464L102.808 34.165C102.869 33.3813 102.903 32.5885 102.894 31.7925L107.864 31.7277H108L109.623 31.8419L111.338 31.9529C111.544 31.9707 111.751 31.9656 111.955 31.9375C112.052 31.9218 112.147 31.897 112.239 31.8635C112.512 31.7559 112.753 31.5807 112.939 31.3544L113.312 30.9225L114.031 30.0803L114.256 29.8211C114.375 29.6945 114.481 29.5571 114.574 29.4108L114.352 28.5686L114.044 27.4919C113.632 26.0913 113.174 24.7081 112.668 23.3425C112.415 22.6606 112.146 21.9819 111.865 21.3125L111.329 20.063L111.224 19.8162C111.224 19.7545 111.159 19.7761 111.116 19.7761H110.98L110.443 19.7977L109.857 19.8162C106.34 19.9355 102.821 19.9746 99.2999 19.9334H99.2536C98.4794 18.6748 97.6001 17.4838 96.6251 16.3732C95.7895 15.4288 94.8705 14.5615 93.8794 13.7818C92.8722 13.0027 91.7865 12.3306 90.6401 11.7764C88.3572 10.6979 85.8977 10.0425 83.3808 9.84209C80.8942 9.63859 78.3911 9.80913 75.955 10.348C73.5535 10.8772 71.216 11.6632 68.9827 12.6927C68.4747 12.9272 67.9698 13.1689 67.4679 13.4177L67.4371 13.4516C66.703 13.2615 65.9567 13.1223 65.2035 13.0352C64.3137 12.9328 63.4179 12.8916 62.5225 12.9118C60.7782 12.9639 59.0409 13.1558 57.3272 13.4856C56.4788 13.6368 55.6489 13.8095 54.816 13.9854C53.983 14.1612 53.1469 14.3556 52.3078 14.5777C51.4686 14.7998 50.6264 15.0559 49.7934 15.3613C48.9444 15.67 48.1195 16.0412 47.3254 16.472C47.0693 16.62 46.8071 16.7589 46.5603 16.9224C46.3135 17.0859 46.0605 17.2309 45.8168 17.4222L45.7921 17.4561C44.7515 17.3013 43.7029 17.2066 42.6515 17.1723C41.5952 17.1471 40.5384 17.1821 39.4861 17.2772C38.44 17.379 37.4 17.5355 36.3702 17.7461C35.3429 17.9559 34.3279 18.2274 33.3314 18.5328C31.3456 19.1593 29.415 19.9487 27.5592 20.8929C26.6337 21.3587 25.7297 21.8647 24.8412 22.3922L24.1779 22.7933C23.9527 22.929 23.7152 23.0833 23.493 23.2376C23.0457 23.5461 22.6138 23.8762 22.2035 24.2217C21.7931 24.5672 21.3365 24.9745 20.9293 25.3786C20.6871 25.3591 20.4441 25.3519 20.2012 25.357C19.211 25.3832 18.2272 25.5261 17.2704 25.7828C16.3996 26.0111 15.5418 26.2861 14.7005 26.6065C13.3871 27.1141 12.1118 27.7152 10.8843 28.4051C9.95873 28.9141 9.44352 29.2473 9.44352 29.2473C8.43469 29.9075 7.46906 30.5986 6.51268 31.3236C5.53495 32.0612 4.60737 32.863 3.7361 33.7238C2.83203 34.6197 2.04335 35.625 1.38834 36.7163C1.05816 37.2816 0.774428 37.8728 0.539942 38.4841C0.296147 39.1252 0.130417 39.7933 0.0463281 40.474C-0.0449861 41.2059 -0.00106641 41.9483 0.175901 42.6644C0.365381 43.3872 0.695623 44.0655 1.14771 44.6604C1.98207 45.7083 3.01466 46.5816 4.18652 47.2303C6.41705 48.5168 8.81416 49.14 11.0817 49.6984C13.3492 50.2568 15.6662 50.7905 17.9861 51.2409C20.3061 51.6914 22.6508 52.0431 25.0109 52.293C27.3784 52.5545 29.7587 52.6833 32.1405 52.6786C34.5395 52.6689 36.9342 52.4771 39.3041 52.1048C39.5818 52.0585 39.8594 52.0276 40.134 51.969L40.9207 51.8086C41.1428 51.9114 41.365 52.004 41.5871 52.0863C42.3381 52.3607 43.1084 52.5793 43.8917 52.7403C44.6444 52.91 45.4064 53.0488 46.1685 53.1506C49.2273 53.5878 52.3343 53.5659 55.3867 53.0858C56.1986 52.9815 56.9991 52.8018 57.7777 52.549C58.0306 52.4596 58.2744 52.3547 58.5119 52.2405C58.9689 52.5712 59.464 52.8457 59.9866 53.0581C60.4528 53.2481 60.9285 53.4139 61.4119 53.5548C61.8778 53.7059 62.3374 53.8262 62.8249 53.9435C63.7744 54.1764 64.7379 54.3485 65.7094 54.4587C67.651 54.6947 69.6141 54.6947 71.5557 54.4587C72.5265 54.3446 73.4889 54.1684 74.4372 53.9311C75.4465 53.7092 76.4231 53.3587 77.3433 52.8884C77.6129 52.7449 77.8736 52.5852 78.1238 52.4102C78.4572 52.6523 78.8043 52.8748 79.1635 53.0766C80.411 53.7469 81.77 54.1849 83.1741 54.3692C84.5331 54.5451 85.9091 54.5451 87.2681 54.3692C88.5959 54.187 89.905 53.8876 91.18 53.4745C92.4872 53.0652 93.7327 52.4798 94.8821 51.7346C94.8821 51.7346 95.1474 51.534 95.5238 51.2132C95.9759 50.8214 96.4035 50.402 96.8041 49.9575C97.306 49.4066 97.7562 48.8107 98.1492 48.1774C98.7375 47.444 99.2638 46.6628 99.7226 45.842C99.991 45.3608 100.182 44.9689 100.312 44.6975C100.441 44.426 100.503 44.2779 100.503 44.2779C100.552 44.1607 100.596 44.0403 100.642 43.9231C101.694 43.9046 102.743 43.8645 103.792 43.809L103.829 43.8336C103.843 43.8448 103.86 43.8503 103.878 43.8491L104.369 43.8213L106.507 43.7041H107.679C108.781 43.6814 109.883 43.666 110.983 43.6578H113.186C113.269 43.6825 113.285 43.593 113.319 43.5375L113.414 43.3524L113.701 42.8032L114.084 42.069L114.318 41.6185L114.435 41.3933L114.469 41.3347L114.522 41.2236C114.556 41.1463 114.583 41.0657 114.602 40.983C114.635 40.8195 114.63 40.6505 114.587 40.4894C114.548 40.357 114.494 40.2296 114.426 40.1099ZM103.415 35.399L111.397 35.1183V35.146L111.477 35.3527C111.591 35.6612 111.693 35.9697 111.785 36.2782C111.973 36.8953 112.137 37.5616 112.328 38.2249C112.514 38.9128 112.757 39.5837 113.056 40.2303C113.124 40.3722 113.201 40.5172 113.275 40.6529L105.254 41.1835C104.967 41.1404 104.714 41.1126 104.714 41.1126C103.673 41.1466 102.631 41.1064 101.595 40.9923C101.703 40.5943 101.802 40.1963 101.904 39.7983L101.996 39.8631C102.369 40.0993 102.772 40.285 103.193 40.4154C103.513 40.5169 103.84 40.5922 104.171 40.6406C104.418 40.6745 104.569 40.6838 104.569 40.6838C105.698 40.6905 106.818 40.493 107.876 40.1007C108.152 40.0073 108.42 39.8939 108.679 39.7613C108.993 39.6132 109.274 39.4034 109.505 39.1443C109.656 38.9664 109.762 38.7548 109.814 38.5273C109.866 38.2734 109.839 38.0095 109.737 37.7714C109.564 37.4104 109.28 37.1149 108.925 36.9292C108.404 36.6523 107.845 36.4518 107.266 36.3338C106.722 36.2202 106.17 36.148 105.615 36.1178C105.057 36.07 104.495 36.07 103.937 36.1178C103.458 36.1617 102.988 36.2706 102.539 36.4418C102.589 36.1024 102.635 35.76 102.675 35.4175L103.415 35.399ZM102.058 26.0913C102.012 25.9339 101.959 25.7828 101.907 25.6162L101.981 25.5946C102.225 25.5236 102.394 25.4804 102.394 25.4804C102.687 25.3357 102.999 25.2319 103.32 25.1719C103.637 25.1239 103.959 25.1239 104.276 25.1719C104.63 25.2132 104.981 25.273 105.328 25.3508C105.644 25.4174 105.948 25.5285 106.232 25.681C106.266 25.6995 106.297 25.7241 106.331 25.7457L106.189 25.8506C105.815 26.1078 105.396 26.294 104.955 26.3998C104.497 26.5092 104.027 26.5559 103.557 26.5386C103.12 26.5305 102.69 26.4251 102.299 26.2301C102.215 26.1909 102.134 26.1444 102.058 26.0913ZM107.895 38.7617C107.759 38.6661 107.623 38.5828 107.485 38.5026C107.285 38.3938 107.079 38.2969 106.868 38.2126C106.666 38.1325 106.46 38.0625 106.251 38.0028C106.038 37.9411 105.819 37.901 105.603 37.8609C105.387 37.8208 105.165 37.7992 104.946 37.793C104.727 37.7869 104.508 37.793 104.289 37.793C104.069 37.793 103.85 37.8239 103.634 37.864C103.419 37.9041 103.206 37.9473 102.993 37.9966C102.784 38.0526 102.578 38.1196 102.376 38.1972C102.376 38.1972 102.326 38.2188 102.249 38.262C102.265 38.1787 102.283 38.0923 102.299 38.009C102.447 37.89 102.607 37.7867 102.777 37.7005C103.557 37.321 104.517 37.2871 105.51 37.3519C105.997 37.3776 106.482 37.4374 106.96 37.5308C107.411 37.6207 107.849 37.7679 108.262 37.9689C108.394 38.0269 108.51 38.1171 108.598 38.2311C108.614 38.2836 108.623 38.2311 108.598 38.3021C108.406 38.512 108.164 38.6702 107.895 38.7617ZM106.177 39.2831C105.718 39.3788 105.251 39.4294 104.782 39.4343C104.782 39.4343 104.554 39.4528 104.218 39.4343C103.83 39.4247 103.444 39.374 103.067 39.2831L103.252 39.2183C103.426 39.1708 103.602 39.1327 103.779 39.1042C103.956 39.0754 104.134 39.0558 104.313 39.0456C104.491 39.0348 104.669 39.0348 104.847 39.0456C105.026 39.0456 105.202 39.0764 105.381 39.0949C105.555 39.1238 105.728 39.1619 105.899 39.2091C105.993 39.2282 106.086 39.2529 106.177 39.2831ZM107.102 24.7523C107.016 24.6887 106.926 24.63 106.834 24.5765C106.453 24.3697 106.045 24.218 105.621 24.1261C105.234 24.0381 104.843 23.9701 104.449 23.9224C104.02 23.8608 103.585 23.8608 103.156 23.9224C102.729 23.9922 102.314 24.121 101.922 24.305C101.922 24.305 101.746 24.4161 101.543 24.5642C101.444 24.2988 101.339 24.0366 101.234 23.7744C101.278 23.6618 101.341 23.5575 101.419 23.4659C101.817 23.0309 102.721 22.9476 103.397 22.9692C103.797 22.9763 104.196 23.0145 104.591 23.0833C105.063 23.1244 105.528 23.2281 105.973 23.3918C106.362 23.5171 106.707 23.7517 106.966 24.0674C107.04 24.1656 107.09 24.2788 107.114 24.3988C107.138 24.5189 107.135 24.6428 107.105 24.7616L107.102 24.7523ZM112.183 30.2901C112.069 30.4197 111.964 30.5492 111.896 30.5986C111.87 30.627 111.84 30.6519 111.807 30.6726C111.62 30.7318 111.422 30.7497 111.227 30.7251H108.676C106.824 30.7251 105.035 30.7436 105.189 30.759C104.264 30.7806 103.422 30.8176 102.863 30.8701C102.848 30.5616 102.826 30.2531 102.798 29.96H102.897C104.02 29.853 105.145 29.7862 106.272 29.7594L106.488 29.7286C108.545 29.7759 110.612 29.7646 112.689 29.6947L112.516 29.8983L112.183 30.2901ZM109.9 21.0348L110.397 21.0163L110.706 21.7536C110.98 22.4138 111.239 23.0771 111.489 23.7435C111.989 25.0783 112.438 26.4317 112.837 27.8035L113.112 28.7753L113.152 28.9203H112.985C110.244 29.017 107.498 29.017 104.748 28.9203H103.431H102.672C102.607 28.476 102.527 28.0349 102.434 27.5999C102.76 27.6854 103.094 27.737 103.431 27.7541C104.01 27.7817 104.59 27.7298 105.155 27.5999C105.737 27.4684 106.291 27.2344 106.791 26.9088C107.325 26.582 107.772 26.1298 108.092 25.5915C108.272 25.2728 108.369 24.9144 108.376 24.5487C108.378 24.175 108.28 23.8074 108.092 23.4844C107.737 22.9269 107.211 22.4994 106.593 22.2658C106.056 22.0449 105.492 21.9006 104.915 21.8369C104.199 21.7806 103.48 21.8168 102.774 21.9449C102.291 22.025 101.828 22.2001 101.413 22.4601C101.346 22.4671 101.28 22.4795 101.216 22.4971C101.072 22.5722 100.938 22.6655 100.818 22.7748C100.781 22.6946 100.747 22.6144 100.71 22.5372C100.482 22.0663 100.242 21.6025 99.991 21.1459C103.294 21.1993 106.598 21.1695 109.903 21.0564L109.9 21.0348ZM76.3407 50.5653C75.6142 50.9596 74.8365 51.2514 74.0299 51.4322C73.1683 51.6542 72.2935 51.8211 71.4107 51.932C70.5279 52.0481 69.6387 52.1089 68.7483 52.114C67.8566 52.1182 66.9656 52.0698 66.0796 51.969C65.1956 51.8704 64.3187 51.7158 63.4542 51.5063C63.0223 51.4014 62.5904 51.2872 62.1677 51.1546C61.7451 51.0219 61.3163 50.8862 60.9491 50.7319L60.7856 50.6579C61.2958 50.1593 61.7604 49.6163 62.1739 49.0351C62.5773 48.4762 62.9265 47.8802 63.2167 47.255C63.3545 47.0166 63.4583 46.7601 63.5252 46.493C63.7078 45.9865 63.8249 45.4588 63.8738 44.9227C63.9266 44.6295 63.8934 44.3274 63.7782 44.0527C63.7714 44.0364 63.761 44.0219 63.7478 44.0103C63.7345 43.9987 63.7188 43.9904 63.7017 43.9859C63.6847 43.9814 63.6669 43.9809 63.6496 43.9845C63.6324 43.988 63.6162 43.9955 63.6023 44.0064C63.4851 44.0558 63.3463 44.2285 63.1457 44.5309C62.9452 44.8332 62.683 45.2682 62.3066 45.8235C61.9836 46.2688 61.6354 46.6952 61.2638 47.1007C60.9093 47.491 60.5279 47.856 60.1223 48.1929C59.7037 48.5469 59.2581 48.8677 58.7896 49.1523C58.2852 49.5444 57.73 49.8661 57.139 50.1087C56.514 50.3345 55.8665 50.4927 55.2078 50.5807C52.3616 51.0433 49.462 51.0745 46.6065 50.6733C45.8939 50.5715 45.1843 50.4481 44.484 50.2938C43.8058 50.1558 43.1387 49.9681 42.4879 49.7323L42.3676 49.683C42.3954 49.6182 42.4293 49.5565 42.4571 49.4948C43.0115 48.3061 43.3091 47.0139 43.3303 45.7025C43.3516 44.391 43.0961 43.0899 42.5805 41.8839L42.3615 41.5537C42.2257 41.3625 42.0375 41.1126 41.837 40.8812C41.6553 40.6727 41.4628 40.4739 41.2601 40.2858C41.0966 40.1439 40.9886 40.0606 40.9917 40.0883C40.81 39.9523 40.6066 39.848 40.3901 39.7798C40.243 39.7238 40.0805 39.7238 39.9335 39.7798C39.916 39.7774 39.8983 39.779 39.8815 39.7844C39.8648 39.7899 39.8495 39.799 39.8367 39.8111C39.824 39.8233 39.8141 39.8382 39.8079 39.8546C39.8017 39.8711 39.7993 39.8888 39.8008 39.9063C39.699 40.0852 39.733 40.3999 39.878 40.9151C39.9674 41.3347 40.0754 41.8006 40.1402 42.1492C40.205 42.4978 40.2451 42.7662 40.2451 42.7662C40.6405 43.6599 40.8393 44.6281 40.8282 45.6054C40.817 46.5826 40.596 47.546 40.1803 48.4304C40.0886 48.6415 39.9856 48.8475 39.8718 49.0474C39.7761 49.2079 39.6713 49.356 39.5633 49.5133C39.3535 49.5503 39.1437 49.5781 38.9463 49.612C36.7368 49.9618 34.504 50.1433 32.267 50.155C30.0134 50.1614 27.7611 50.0461 25.5199 49.8095C23.2709 49.575 21.028 49.2387 18.7975 48.8253C16.567 48.4119 14.3426 47.8998 12.1306 47.363C9.91863 46.8262 7.7498 46.2554 5.89566 45.2775C4.99948 44.8188 4.1845 44.2165 3.48312 43.4943C3.18669 43.1769 2.94577 42.8118 2.77046 42.4145C2.61416 42.035 2.53649 41.6278 2.54217 41.2175C2.58239 40.2593 2.84203 39.3231 3.3011 38.481C3.77861 37.5604 4.37958 36.7093 5.08737 35.9512C6.51885 34.3871 8.33597 33.042 10.1778 31.7648L10.7948 31.339C11.1835 31.0706 11.7388 30.6973 12.4175 30.2747C14.0554 29.2524 15.8008 28.4133 17.6221 27.7726C18.5389 27.4462 19.4938 27.2388 20.4635 27.1556C20.875 27.1274 21.2884 27.1398 21.6975 27.1926C21.8088 27.2266 21.9238 27.2473 22.04 27.2544C22.8184 27.4026 23.5553 27.7184 24.1995 28.1799C24.508 28.3866 24.6345 28.4884 24.579 28.439C25.6728 29.3291 26.424 30.5709 26.7046 31.9529C26.8342 32.7163 26.8981 33.4894 26.8959 34.2637C26.9026 34.28 26.913 34.2944 26.9263 34.306C26.9395 34.3176 26.9553 34.326 26.9723 34.3305C26.9894 34.3349 27.0072 34.3354 27.0244 34.3319C27.0417 34.3283 27.0579 34.3208 27.0717 34.31C27.2106 34.1063 27.5067 33.5017 27.5561 32.3262C27.5741 31.4429 27.4128 30.565 27.082 29.7457C26.7511 28.9265 26.2575 28.1828 25.631 27.5598C25.0933 26.9998 24.4681 26.5309 23.7799 26.1715L23.817 26.1406C24.1728 25.8445 24.5368 25.5668 24.9091 25.3077C25.0973 25.175 25.2824 25.0578 25.4767 24.9344L26.0938 24.5611C26.9237 24.0705 27.7597 23.5923 28.6174 23.1635C30.3208 22.2879 32.0935 21.5542 33.9176 20.97C35.7235 20.3878 37.5842 19.9919 39.4707 19.7884C40.406 19.6867 41.3467 19.6434 42.2874 19.6589C43.2269 19.6705 44.1646 19.7426 45.0948 19.8748C45.0948 19.8748 45.5484 19.9057 46.2209 19.9951C46.5603 20.0291 46.9459 20.1093 47.3624 20.171C47.7789 20.2327 48.22 20.3345 48.6489 20.4579C49.4345 20.6534 50.2081 20.8944 50.9658 21.1798C51.2652 21.3172 51.5746 21.4317 51.8913 21.5222L52.8631 21.9264C53.1716 22.0652 53.44 22.1855 53.6899 22.2843C54.01 22.4613 54.3626 22.5715 54.7265 22.6082C54.7439 22.6083 54.7611 22.6043 54.7767 22.5967C54.7923 22.5892 54.806 22.5781 54.8167 22.5644C54.8274 22.5507 54.8349 22.5348 54.8385 22.5178C54.8421 22.5008 54.8418 22.4831 54.8376 22.4663C54.721 22.1813 54.5405 21.9269 54.31 21.7228C53.7945 21.2087 53.2304 20.7459 52.6256 20.3407C52.317 20.1309 51.9777 19.9057 51.626 19.6959C51.2743 19.4861 50.9072 19.2732 50.5277 19.0974C50.1482 18.9215 49.7749 18.7302 49.3986 18.5791C49.2721 18.5235 49.1487 18.4773 49.0222 18.4279C50.2616 17.8288 51.5575 17.3544 52.8909 17.0118C54.4334 16.6046 56.05 16.2653 57.6357 15.9691C59.197 15.6636 60.7789 15.4759 62.3683 15.4076C63.1414 15.3867 63.9151 15.4125 64.6852 15.4847C65.44 15.5547 66.1873 15.6899 66.9188 15.8889C67.2192 15.9403 67.5168 16.0073 67.8104 16.0894C68.341 16.2313 69.0444 16.4658 69.7663 16.7373C70.4882 17.0088 71.204 17.3018 71.7007 17.5085C71.9439 17.6338 72.1979 17.7371 72.4596 17.8171C73.0242 18.0546 73.5209 18.2891 73.9127 18.4773C74.173 18.6315 74.4596 18.7361 74.758 18.7858C74.8413 18.7858 74.8876 18.7488 74.8876 18.6593C74.8516 18.3949 74.7365 18.1476 74.5575 17.9497C74.1764 17.4581 73.7277 17.023 73.2247 16.6571C72.6951 16.2406 72.143 15.8533 71.5711 15.4971C71.1886 15.2503 70.806 15.0189 70.4265 14.7968C72.3433 13.9392 74.3411 13.2757 76.39 12.8161C78.5505 12.3292 80.7706 12.1608 82.9798 12.3163C85.1626 12.4683 87.3009 13.0074 89.295 13.9082C91.2692 14.8206 93.0385 16.1229 94.4964 17.7368C95.9847 19.3807 97.2416 21.2199 98.2325 23.2036C99.237 25.1601 99.9124 27.2687 100.232 29.4448C100.494 31.6465 100.445 33.8742 100.087 36.0623C99.7775 38.2873 99.2484 40.476 98.507 42.5965L98.4423 42.7755C98.4022 42.8927 98.3435 43.0654 98.2572 43.2814C98.2572 43.3153 98.2263 43.3585 98.214 43.3955H98.1739C98.1684 43.401 98.164 43.4075 98.161 43.4146C98.158 43.4218 98.1565 43.4295 98.1565 43.4372C98.1565 43.4449 98.158 43.4526 98.161 43.4598C98.164 43.4669 98.1684 43.4734 98.1739 43.4789C98.0104 43.8892 97.7851 44.4044 97.4828 45.006C96.6245 46.6945 95.4222 48.1846 93.9535 49.3806C93.9312 49.4008 93.9075 49.4194 93.8825 49.4362L93.7097 49.5287C92.7413 50.1792 91.6861 50.6902 90.5753 51.0466C89.4323 51.4154 88.2583 51.6798 87.0675 51.8364C85.9068 52.0006 84.7294 52.011 83.5659 51.8672C82.4471 51.7287 81.3636 51.3846 80.3698 50.8522C80.2279 50.772 80.0921 50.6856 79.9533 50.5992C80.2344 50.2263 80.4881 49.8335 80.7122 49.4238C80.9665 48.9708 81.1892 48.5008 81.3786 48.017C81.5121 47.6243 81.6244 47.2248 81.7149 46.82C81.9021 45.9489 81.9992 45.0609 82.0049 44.1699C82.0092 43.3116 81.9223 42.4554 81.7458 41.6155C81.6918 41.2797 81.6018 40.9508 81.4773 40.6344C81.2734 39.998 80.9926 39.3888 80.6413 38.8204C80.4733 38.5068 80.228 38.2413 79.9286 38.0491C79.9131 38.0411 79.8959 38.0368 79.8784 38.0367C79.8609 38.0366 79.8437 38.0406 79.828 38.0485C79.8124 38.0563 79.7988 38.0677 79.7884 38.0817C79.778 38.0958 79.7711 38.1121 79.7682 38.1293C79.7259 38.4096 79.7438 38.6956 79.8206 38.9684C79.8854 39.4158 80.0212 40.0297 80.1045 40.8658C80.1561 41.5547 80.1612 42.2463 80.1199 42.9359C80.0649 43.5955 79.9618 44.2503 79.8114 44.8949C79.6925 45.3742 79.5452 45.8461 79.3702 46.3079C79.3024 46.4745 79.2499 46.6164 79.2129 46.7028L79.1481 46.8416C78.872 47.6194 78.49 48.3555 78.0128 49.0289C77.5721 49.6551 77.0018 50.1791 76.3407 50.5653ZM112.51 42.4268H111.156L108.006 42.4669C108.006 42.4669 106.189 42.5533 104.409 42.6706H104.239L101.136 42.5965C101.197 42.4145 101.253 42.2294 101.311 42.0443C102.397 42.0597 103.597 42.0443 103.597 42.0443L113.029 41.4273L112.988 41.5044L112.51 42.4268Z" fill="black"/>
<defs>
<linearGradient id="paint0_linear_3959_15044" x1="130.019" y1="11.8621" x2="179.889" y2="40.6573" gradientUnits="userSpaceOnUse">
<stop stop-color="#F8A04E"/>
<stop offset="0.41" stop-color="#F79E4E"/>
<stop offset="0.65" stop-color="#F5954E"/>
<stop offset="0.84" stop-color="#F2874E"/>
<stop offset="1" stop-color="#ED754E"/>
</linearGradient>
<linearGradient id="paint1_linear_3959_15044" x1="252.565" y1="13.438" x2="252.63" y2="13.3231" gradientUnits="userSpaceOnUse">
<stop stop-color="#429B7A"/>
<stop offset="0.32" stop-color="#67B06D"/>
<stop offset="0.68" stop-color="#94C95D"/>
<stop offset="0.81" stop-color="#98CB61"/>
<stop offset="0.95" stop-color="#A2D06E"/>
<stop offset="1" stop-color="#A8D275"/>
</linearGradient>
<linearGradient id="paint2_linear_3959_15044" x1="214.639" y1="49.9002" x2="239.944" y2="6.06829" gradientUnits="userSpaceOnUse">
<stop stop-color="#429B7A"/>
<stop offset="0.32" stop-color="#67B06D"/>
<stop offset="0.68" stop-color="#94C95D"/>
<stop offset="0.81" stop-color="#98CB61"/>
<stop offset="0.95" stop-color="#A2D06E"/>
<stop offset="1" stop-color="#A8D275"/>
</linearGradient>
<linearGradient id="paint3_linear_3959_15044" x1="134.008" y1="28.133" x2="141.754" y2="23.6618" gradientUnits="userSpaceOnUse">
<stop stop-color="#F48342"/>
<stop offset="0.39" stop-color="#F38142"/>
<stop offset="0.62" stop-color="#EF7843"/>
<stop offset="0.81" stop-color="#E86A44"/>
<stop offset="0.97" stop-color="#DE5645"/>
<stop offset="1" stop-color="#DC5245"/>
</linearGradient>
<linearGradient id="paint4_linear_3959_15044" x1="141.515" y1="30.4835" x2="149.362" y2="25.9533" gradientUnits="userSpaceOnUse">
<stop stop-color="#F48342"/>
<stop offset="0.39" stop-color="#F38142"/>
<stop offset="0.62" stop-color="#EF7843"/>
<stop offset="0.81" stop-color="#E86A44"/>
<stop offset="0.97" stop-color="#DE5645"/>
<stop offset="1" stop-color="#DC5245"/>
</linearGradient>
<linearGradient id="paint5_linear_3959_15044" x1="143.731" y1="25.8208" x2="186.588" y2="25.8208" gradientUnits="userSpaceOnUse">
<stop stop-color="#F8A04E" stop-opacity="0"/>
<stop offset="0.17" stop-color="#F8A04E"/>
<stop offset="0.65" stop-color="#F1844E"/>
<stop offset="1" stop-color="#ED754E"/>
</linearGradient>
<linearGradient id="paint6_linear_3959_15044" x1="45.9428" y1="16.7928" x2="57.9716" y2="61.6871" gradientUnits="userSpaceOnUse">
<stop stop-color="#F8A04E"/>
<stop offset="0.3" stop-color="#F79D4E"/>
<stop offset="0.54" stop-color="#F5934E"/>
<stop offset="0.75" stop-color="#F0834E"/>
<stop offset="0.82" stop-color="#EE7B4E"/>
<stop offset="0.96" stop-color="#EE794E"/>
<stop offset="1" stop-color="#ED754E"/>
</linearGradient>
</defs>
</svg>
