<svg width="20" height="20" viewBox="0 0 20 20" fill="none" xmlns="http://www.w3.org/2000/svg">
<path fill-rule="evenodd" clip-rule="evenodd" d="M2.5 5.41667C2.5 3.22899 2.52342 2.5 5.41667 2.5C8.30991 2.5 8.33333 3.22899 8.33333 5.41667C8.33333 7.60434 8.34256 8.33333 5.41667 8.33333C2.49077 8.33333 2.5 7.60434 2.5 5.41667Z" stroke="white" stroke-width="1.5" stroke-linecap="round" stroke-linejoin="round"/>
<path fill-rule="evenodd" clip-rule="evenodd" d="M11.667 5.41667C11.667 3.22899 11.6904 2.5 14.5837 2.5C17.4769 2.5 17.5003 3.22899 17.5003 5.41667C17.5003 7.60434 17.5096 8.33333 14.5837 8.33333C11.6578 8.33333 11.667 7.60434 11.667 5.41667Z" stroke="white" stroke-width="1.5" stroke-linecap="round" stroke-linejoin="round"/>
<path fill-rule="evenodd" clip-rule="evenodd" d="M2.5 14.5833C2.5 12.3957 2.52342 11.6667 5.41667 11.6667C8.30991 11.6667 8.33333 12.3957 8.33333 14.5833C8.33333 16.771 8.34256 17.5 5.41667 17.5C2.49077 17.5 2.5 16.771 2.5 14.5833Z" stroke="white" stroke-width="1.5" stroke-linecap="round" stroke-linejoin="round"/>
<path fill-rule="evenodd" clip-rule="evenodd" d="M11.667 14.5833C11.667 12.3957 11.6904 11.6667 14.5837 11.6667C17.4769 11.6667 17.5003 12.3957 17.5003 14.5833C17.5003 16.771 17.5096 17.5 14.5837 17.5C11.6578 17.5 11.667 16.771 11.667 14.5833Z" stroke="white" stroke-width="1.5" stroke-linecap="round" stroke-linejoin="round"/>
</svg>
