<svg width="21" height="21" viewBox="0 0 21 21" fill="none" xmlns="http://www.w3.org/2000/svg">
<g id="Vector">
<path id="Vector_2" fill-rule="evenodd" clip-rule="evenodd" d="M20 10.5C20 15.7467 15.7467 20 10.5 20C5.25329 20 1 15.7467 1 10.5C1 5.25329 5.25329 1 10.5 1C13.0196 1 15.4359 2.00089 17.2175 3.78249C18.9991 5.56408 20 7.98044 20 10.5Z" stroke="white" stroke-width="1.5" stroke-linecap="round" stroke-linejoin="round"/>
<path id="Vector-2" d="M10.5005 13.6781C10.0863 13.6781 9.75047 14.0139 9.75047 14.4281C9.75047 14.8423 10.0863 15.1781 10.5005 15.1781V13.6781ZM8.85045 9.39994L9.37302 8.86195C9.34398 8.83374 9.3127 8.80793 9.27949 8.78477L8.85045 9.39994ZM8.30045 8.29992L9.05 8.32579C9.0503 8.31717 9.05045 8.30855 9.05045 8.29992H8.30045ZM10.5005 7.3218C10.9147 7.3218 11.2505 6.98601 11.2505 6.5718C11.2505 6.15759 10.9147 5.8218 10.5005 5.8218V7.3218ZM10.4695 15.1787C10.8834 15.1956 11.2326 14.8738 11.2495 14.46C11.2665 14.0461 10.9447 13.6969 10.5308 13.6799L10.4695 15.1787ZM9.0434 11.9061C9.09884 11.4957 8.81102 11.1179 8.40054 11.0625C7.99005 11.0071 7.61234 11.2949 7.5569 11.7054L9.0434 11.9061ZM11.2504 14.4282C11.2504 14.014 10.9147 13.6782 10.5004 13.6782C10.0862 13.6782 9.75044 14.014 9.75044 14.4282H11.2504ZM9.75044 16.0001C9.75044 16.4144 10.0862 16.7501 10.5004 16.7501C10.9147 16.7501 11.2504 16.4144 11.2504 16.0001H9.75044ZM10.4582 5.82296C10.0446 5.84627 9.72824 6.20042 9.75155 6.61398C9.77485 7.02754 10.129 7.34389 10.5426 7.32059L10.4582 5.82296ZM12.1692 7.25053L11.6163 7.7573L12.1692 7.25053ZM11.9581 8.86491C11.8989 9.27487 12.1833 9.65517 12.5933 9.71432C13.0033 9.77347 13.3836 9.48907 13.4427 9.0791L11.9581 8.86491ZM9.75044 6.57192C9.75044 6.98613 10.0862 7.32192 10.5004 7.32192C10.9147 7.32192 11.2504 6.98613 11.2504 6.57192H9.75044ZM11.2504 5C11.2504 4.58579 10.9147 4.25 10.5004 4.25C10.0862 4.25 9.75044 4.58579 9.75044 5H11.2504ZM10.5005 15.1781C10.9576 15.1781 11.6459 15.074 12.2482 14.7292C12.8875 14.3632 13.4505 13.703 13.4505 12.6791H11.9505C11.9505 13.0544 11.7803 13.2687 11.503 13.4274C11.1888 13.6073 10.7771 13.6781 10.5005 13.6781V15.1781ZM13.4505 12.6791C13.4505 12.0494 13.2533 11.5394 12.898 11.129C12.5676 10.7473 12.1328 10.4915 11.7384 10.2878C10.8906 9.8498 10.0931 9.56144 9.37302 8.86195L8.32789 9.93792C9.25778 10.8412 10.3854 11.2772 11.05 11.6205C11.412 11.8074 11.6303 11.9564 11.7639 12.1108C11.8727 12.2364 11.9505 12.3935 11.9505 12.6791H13.4505ZM9.27949 8.78477C9.13012 8.68059 9.04372 8.5078 9.05 8.32579L7.55089 8.27406C7.52707 8.96447 7.85479 9.61991 8.42141 10.0151L9.27949 8.78477ZM9.05045 8.29992C9.05045 8.00098 9.11572 7.82982 9.17782 7.73002C9.23977 7.63046 9.32913 7.55277 9.45677 7.48989C9.74396 7.3484 10.1353 7.3218 10.5005 7.3218V5.8218C10.1319 5.8218 9.42326 5.83425 8.79387 6.14432C8.46322 6.30721 8.14014 6.55843 7.90423 6.93758C7.66846 7.31649 7.55045 7.77385 7.55045 8.29992H9.05045ZM10.5308 13.6799C10.0906 13.6619 9.67836 13.4592 9.39526 13.1216L8.2459 14.0855C8.80025 14.7465 9.6075 15.1434 10.4695 15.1787L10.5308 13.6799ZM9.39526 13.1216C9.11216 12.784 8.98442 12.3428 9.0434 11.9061L7.5569 11.7054C7.44142 12.5603 7.69155 13.4244 8.2459 14.0855L9.39526 13.1216ZM9.75044 14.4282V16.0001H11.2504V14.4282H9.75044ZM10.5426 7.32059C10.9479 7.29774 11.342 7.45805 11.6163 7.7573L12.7221 6.74376C12.1437 6.1128 11.3127 5.7748 10.4582 5.82296L10.5426 7.32059ZM11.6163 7.7573C11.8906 8.05655 12.016 8.46313 11.9581 8.86491L13.4427 9.0791C13.5649 8.23197 13.3004 7.37472 12.7221 6.74376L11.6163 7.7573ZM11.2504 6.57192V5H9.75044V6.57192H11.2504Z" fill="white"/>
</g>
</svg>
