<svg xmlns="http://www.w3.org/2000/svg" width="396" height="229" fill="none" xmlns:v="https://vecta.io/nano"><g opacity=".1" clip-path="url(#A)"><g fill="#8b8fa2"><path d="M171.407 176.544c.359.351.838.546 1.337.545h.299c15.988-2.549 31.761-6.337 47.178-11.331a1.92 1.92 0 0 0 .991-.75c.25-.351.373-.779.346-1.211-.658-14.405-2.475-28.733-5.433-42.839a1.89 1.89 0 0 0-.334-.738 1.95 1.95 0 0 0-.597-.533 1.92 1.92 0 0 0-.767-.241c-.27-.025-.541.008-.798.096l-2.913 5.035 2.185-.726c2.516 12.725 4.112 25.618 4.776 38.579a309.75 309.75 0 0 1-42.676 10.325c1.098-8.473 2.03-17.952 2.782-28.229l-3.845-.23c-.812 11.246-1.851 21.499-3.093 30.529a2.08 2.08 0 0 0 .096.896 2.2 2.2 0 0 0 .466.823zm73.531-66.553a1.99 1.99 0 0 0-.8-.133c-.272.01-.538.085-.776.217a105.64 105.64 0 0 1-21.577 7.978c-.246.05-.478.153-.681.302-.414.306-.696.761-.788 1.271a2.31 2.31 0 0 0 0 .751c1.039 4.612 3.582 17.83 4.944 41.036.015.298.101.589.25.847a1.85 1.85 0 0 0 .597.654 1.87 1.87 0 0 0 .824.314 1.97 1.97 0 0 0 .872-.084c10.197-3.571 20.455-7.711 30.497-12.323a1.97 1.97 0 0 0 .979-1.017c.179-.455.179-.962 0-1.416l-13.278-37.296c-.098-.262-.249-.501-.442-.702a1.96 1.96 0 0 0-.621-.399zm-16.001 48.674a273.67 273.67 0 0 0-4.465-37.223c6.432-1.723 12.692-4.049 18.699-6.948l11.941 33.543a339 339 0 0 1-26.175 10.628zm-119.36-13.17a2.1 2.1 0 0 0 .597.738 1.81 1.81 0 0 0 .884.351c13.037 1.741 26.171 2.63 39.321 2.664 5.755 0 11.714-.182 17.768-.642.459-.029.893-.227 1.218-.557a1.92 1.92 0 0 0 .549-1.235l.215-2.711-3.845-.279-.072 1.017c-17.274 1.015-34.604.435-51.775-1.731 1.445-2.421 2.603-4.454 3.355-5.834l-3.988-.775a286.32 286.32 0 0 1-4.179 7.118c-.168.281-.263.6-.275.928s.057.655.203.948h.024zm57.639 7.069a242.92 242.92 0 0 1-17.04.593c-14.406-.023-28.791-1.091-43.047-3.195-.368-.062-.746-.012-1.086.145a1.92 1.92 0 0 0-.824.726c-1.803 2.833-3.391 5.75-4.944 8.583-2.734 5.035-5.337 9.78-8.788 13.606a1.99 1.99 0 0 0-.454.895c-.09.329-.09.676 0 1.005a1.97 1.97 0 0 0 .537.847 1.89 1.89 0 0 0 .884.46c.215 0 15.929 3.366 42.294 3.366 8.908 0 19.046-.388 30.199-1.393a1.93 1.93 0 0 0 1.194-.52 1.91 1.91 0 0 0 .585-1.138c.955-6.597 1.803-13.957 2.519-21.874.032-.28 0-.565-.094-.831s-.244-.508-.443-.706c-.192-.206-.429-.364-.692-.46s-.536-.142-.812-.121l.012.012zm-4.06 21.922c-34.235 2.954-58.331-.109-66.654-1.464a92.96 92.96 0 0 0 7.165-11.73c1.313-2.421 2.674-4.842 4.143-7.263 14.041 1.996 28.2 3.015 42.378 3.05a253.73 253.73 0 0 0 15.045-.448c-.644 6.356-1.337 12.36-2.077 17.855zm-23.715-77.012a2.02 2.02 0 0 0 .43.787 2.04 2.04 0 0 0 .728.508c36.002 14.139 53.734 15.277 63.287 15.882h.119c.364 0 .72-.105 1.027-.303s.559-.485.716-.823l6.437-14.368a1.98 1.98 0 0 0 .167-.859 1.86 1.86 0 0 0-.239-.847 1.97 1.97 0 0 0-.561-.654 1.96 1.96 0 0 0-.8-.339c-17.434-3.172-33.029-8.667-46.725-13.509l-10.961-3.813a1.91 1.91 0 0 0-1.242.012c-.402.142-.746.415-.979.775-2.233 3.523-5.971 9.127-11.093 15.882a2.12 2.12 0 0 0-.359.823 2.07 2.07 0 0 0 .048.847zm13.84-14.211l9.552 3.317c13.243 4.672 28.169 9.962 44.921 13.315l-4.883 10.895c-9.386-.63-26.163-2.179-58.51-14.623 3.892-5.217 6.878-9.684 8.931-12.819l-.011-.085zm6.818 26.752c-.109-.268-.276-.509-.49-.702a2 2 0 0 0-.74-.424c-10.484-3.159-18.843-6.161-21.959-7.263-.373-.136-.779-.153-1.162-.047a1.92 1.92 0 0 0-.976.641c-6.218 7.707-12.902 15.016-20.013 21.885-.25.247-.431.556-.525.896a1.96 1.96 0 0 0 .001 1.045c.095.341.28.65.536.892a1.94 1.94 0 0 0 .908.484c9.791 2.119 19.583 3.91 29.1 5.314h.274a1.83 1.83 0 0 0 .8-.181c.244-.123.463-.291.645-.497a126.98 126.98 0 0 0 13.493-20.36c.133-.256.215-.535.239-.823a1.86 1.86 0 0 0-.131-.86zm-15.81 18.69c-7.952-1.21-16.096-2.663-24.264-4.382a242.78 242.78 0 0 0 16.861-18.629c3.498 1.271 10.269 3.631 18.604 6.21a119.04 119.04 0 0 1-11.201 16.801zm57.017-11.572c-9.839-1.029-22.687-2.639-34.903-6.053-.42-.112-.865-.077-1.264.098a1.95 1.95 0 0 0-.933.871c-3.425 6.557-7.354 12.83-11.75 18.762a2.12 2.12 0 0 0-.382.945 1.95 1.95 0 0 0 .132 1.004 1.99 1.99 0 0 0 .609.799c.275.202.595.331.931.376 11.718 1.546 23.517 2.383 35.333 2.505h2.913a1.96 1.96 0 0 0 .741-.181c.231-.105.439-.257.609-.448 3.092-3.402 5.385-7.917 7.415-11.887l2.018-3.886c.152-.283.238-.598.251-.92a2.1 2.1 0 0 0-.215-.932c-.15-.283-.363-.528-.621-.714-.265-.179-.568-.292-.884-.327v-.012zm-3.952 4.963c-1.726 3.698-3.839 7.196-6.305 10.434-11.22.009-22.429-.682-33.565-2.07a155 155 0 0 0 9.373-15.228c10.241 2.6 20.658 4.425 31.166 5.46l-.669 1.404zm121.39-38.603l-1.516-6.476a1.65 1.65 0 0 0-.585-.884 1.66 1.66 0 0 0-.991-.363c-19.691-.399-31.405 3.704-31.894 3.898a1.61 1.61 0 0 0-.908.775 1.74 1.74 0 0 0-.179 1.211 18.93 18.93 0 0 1 .454 4.019c-.004.356.061.71.191 1.041a2.69 2.69 0 0 0 1.445 1.465c.322.134.667.204 1.015.206a2.72 2.72 0 0 0 .442 0 159.56 159.56 0 0 1 31.129-2.118 1.48 1.48 0 0 0 .812-.169 1.59 1.59 0 0 0 .621-.545 1.67 1.67 0 0 0 .299-.775c.036-.283-.001-.571-.108-.835a2.14 2.14 0 0 0-.227-.448zm-32.24 1.368c-.037-.811-.117-1.619-.239-2.421a100.19 100.19 0 0 1 28.097-3.28c.311 1.21.597 2.421.836 3.631-9.618-.161-19.231.532-28.73 2.07h.036zm-2.997-8.122c2.842-.92 13.362-3.946 29.971-3.946h.096a1.79 1.79 0 0 0 .716-.169c.224-.105.427-.264.586-.46a1.87 1.87 0 0 0 .322-.678 1.59 1.59 0 0 0 0-.751 27.48 27.48 0 0 0-2.46-6.137c-.227-.484-.513-1.029-.597-1.21a1.72 1.72 0 0 0-.633-1.017 1.61 1.61 0 0 0-1.122-.339 161.73 161.73 0 0 0-30.306 5.036 1.86 1.86 0 0 0-.645.351c-.276.24-.468.565-.545.926s-.037.737.115 1.072a66.45 66.45 0 0 1 2.388 6.246 1.65 1.65 0 0 0 .598.872 1.69 1.69 0 0 0 1.003.327 1.48 1.48 0 0 0 .513-.121zm25.923-11.27l.335.678c.454.896 1.051 2.094 1.516 3.256-9.186.033-18.331 1.253-27.213 3.631-.37-1.041-.812-2.191-1.194-3.208a162.14 162.14 0 0 1 26.556-4.358zm40.146 2.167c-8.144-3.934-18.521-5.931-30.879-5.931a1.92 1.92 0 0 0-.86.206c-.257.144-.478.347-.645.593a1.62 1.62 0 0 0-.251.811 1.68 1.68 0 0 0 .156.835 168.66 168.66 0 0 1 6.042 20.687 1.78 1.78 0 0 0 .215 1.102 1.66 1.66 0 0 0 .621.605 1.62 1.62 0 0 0 .823.218c17.04.097 27.548 4.152 27.655 4.188a1.48 1.48 0 0 0 .609.121 1.69 1.69 0 0 0 .896-.266c.223-.145.411-.34.549-.569a1.89 1.89 0 0 0 .227-.763c.563-7.355-.979-14.719-4.442-21.208a1.73 1.73 0 0 0-.716-.63zm-23.285 15.736c-.287-1.537-.967-4.14-2.257-8.715-.895-3.111-2.054-6.924-2.949-9.539 10.544.242 19.499 2.034 26.58 5.35 2.546 5.135 3.844 10.813 3.785 16.56-8.178-2.394-16.647-3.612-25.159-3.619v-.036z"/></g><g fill="#fff"><path d="M246.371 105.379l-4.382 2.046-8.884 3.498-8.992 2.966-4.525 1.331-4.311 1.211-1.707 3.147c.256-.092.529-.125.8-.097.269.022.531.104.764.242.235.131.439.313.597.533a1.86 1.86 0 0 1 .334.738 268.44 268.44 0 0 1 5.433 42.84 1.94 1.94 0 0 1-.336 1.198 1.9 1.9 0 0 1-.989.739 312.9 312.9 0 0 1-47.178 11.342h-.299a1.9 1.9 0 0 1-1.349-.557c-.215-.211-.375-.473-.466-.762-.099-.288-.128-.595-.083-.896 1.194-9.018 2.28-19.283 3.104-30.517l-2.197-.133-1.636-.121-.203 2.712a1.99 1.99 0 0 1-.561 1.21 1.9 1.9 0 0 1-1.194.557c-6.054.46-12.036.641-17.78.641-13.15-.033-26.284-.923-39.321-2.663a2 2 0 0 1-.86-.351c-.255-.19-.46-.44-.598-.729s-.202-.608-.19-.929a2.05 2.05 0 0 1 .263-.908l4.179-7.118-2.746-.544-7.165 11.548c-2.698 4.188-5.484 8.332-8.358 12.432-2.878 4.091-5.815 8.134-8.884 12.105-1.767 2.239-3.582 4.442-5.421 6.633l5.791.944a290.78 290.78 0 0 0 12.144 1.501 311.66 311.66 0 0 0 24.478 1.453c8.18.169 16.371 0 24.551-.436s16.395-1.283 24.478-2.397l6.09-.859 6.054-1.017c2.03-.315 4.036-.738 6.042-1.126l3.021-.593 1.517-.303 1.492-.326 5.971-1.356c1.003-.218 1.994-.484 2.985-.739l2.985-.762c3.988-.969 7.905-2.191 11.846-3.305a301.46 301.46 0 0 0 44.216-17.455l-17.911-46.955-.609.387zm-79.633 71.189a1.91 1.91 0 0 1-.585 1.126c-.326.311-.748.499-1.194.533-11.153 1.004-21.279 1.38-30.211 1.38-26.365 0-42.067-3.305-42.282-3.353a1.89 1.89 0 0 1-.884-.46 1.87 1.87 0 0 1-.537-.848 1.91 1.91 0 0 1 0-1.004 1.93 1.93 0 0 1 .454-.896c3.451-3.85 6.042-8.595 8.788-13.606 1.553-2.833 3.141-5.762 4.932-8.583.203-.318.493-.569.834-.724a1.9 1.9 0 0 1 1.088-.147c14.257 2.09 28.642 3.15 43.047 3.171a242.99 242.99 0 0 0 17.039-.581 1.87 1.87 0 0 1 .812.121 1.89 1.89 0 0 1 .698.476 1.91 1.91 0 0 1 .425.735c.095.263.131.544.107.823-.728 7.868-1.576 15.228-2.531 21.837zm91.586-25.699c-10.054 4.612-20.299 8.752-30.509 12.323-.28.095-.578.124-.872.085a1.81 1.81 0 0 1-.812-.315 1.98 1.98 0 0 1-.608-.653 1.87 1.87 0 0 1-.239-.848c-1.338-23.205-3.905-36.423-4.944-41.035a2.02 2.02 0 0 1 0-.751c.039-.254.128-.497.263-.714a2.08 2.08 0 0 1 .513-.557c.204-.147.436-.25.681-.303a105.4 105.4 0 0 0 21.601-8.025c.243-.132.513-.206.788-.218a1.98 1.98 0 0 1 .8.133c.255.098.479.253.669.448.189.201.336.44.43.702l13.278 37.295a2 2 0 0 1 0 1.417c-.208.459-.579.822-1.039 1.016zM117.84 137.3l-3.367 5.834a281.76 281.76 0 0 0 51.751 1.731c0-.339.06-.678.084-1.016-5.66-.46-11.312-1.025-16.956-1.695-10.54-1.243-21.044-2.861-31.512-4.854zm-10.042 16.693l-4.144 7.263a94.13 94.13 0 0 1-7.164 11.729c8.359 1.356 32.407 4.419 66.654 1.465.752-5.496 1.432-11.5 2.065-17.891-4.883.303-9.934.448-15.045.448a304.72 304.72 0 0 1-42.366-3.014zm97.771-21.354l-4.621 6.174c-1.634 2.042-3.427 3.949-5.361 5.701-.325.307-.751.48-1.194.484h-.072c-3.833 0-7.547 0-11.308-.205l-5.218-.23c-.752 10.277-1.684 19.755-2.782 28.228a309.79 309.79 0 0 0 42.676-10.337 268.14 268.14 0 0 0-4.872-38.542l-2.173.726-.931 1.561c-1.326 2.179-2.699 4.358-4.144 6.44zm18.915-11.197a273.67 273.67 0 0 1 4.465 37.223c8.753-3.135 17.542-6.694 26.175-10.604l-11.941-33.543a105.91 105.91 0 0 1-18.699 6.924zM358.03 82.149c-.264-3.166-.905-6.288-1.911-9.297a24.71 24.71 0 0 0-4.275-7.784l-.776-.327-1.194-.496-2.388-.859-4.944-1.465a95.9 95.9 0 0 0-10.114-2.046 106.79 106.79 0 0 0-20.621-.98c-.86 0-1.72.109-2.58.157a45.74 45.74 0 0 0-2.579.218l-2.567.254-2.555.339a58.96 58.96 0 0 0-2.556.387l-2.555.436-2.531.484-1.266.254-1.254.291a133.43 133.43 0 0 0-16.789 5.048l.251.69c.442 1.21.86 2.53 1.266 3.813a100.62 100.62 0 0 1 2.065 7.784c.59 2.651 1.024 5.335 1.302 8.038.131 1.356.215 2.724.239 4.116v1.065l2.388-.363 5.314-.726c3.582-.436 7.092-.799 10.663-1.077 7.164-.569 14.257-.872 21.434-.738a131.57 131.57 0 0 1 21.529 2.058 74.08 74.08 0 0 1 10.747 2.772 51.03 51.03 0 0 1 5.97 2.53v-.06c.215-1.598.358-3.22.478-4.842a60.42 60.42 0 0 0-.191-9.672zm-76.649-6.464c-.525-1.731-1.731-4.842-2.388-6.246a1.76 1.76 0 0 1 0-1.416 1.63 1.63 0 0 1 .442-.581 1.71 1.71 0 0 1 .633-.351 161.82 161.82 0 0 1 30.318-5.011c.405-.029.806.093 1.129.342s.546.61.626 1.013c.084.218.37.787.597 1.211a27.48 27.48 0 0 1 2.46 6.137 1.59 1.59 0 0 1 0 .751c-.06.247-.168.478-.323.678a1.68 1.68 0 0 1-.585.46c-.224.106-.468.163-.716.169h-.096c-16.609 0-27.129 3.026-29.971 3.946a1.5 1.5 0 0 1-.514.085c-.362.004-.715-.112-1.006-.33s-.504-.528-.606-.88v.024zm37.399 9.878a1.59 1.59 0 0 1-.621.545 1.47 1.47 0 0 1-.812.169c-10.415-.31-20.836.395-31.118 2.106h-.429c-.353 0-.701-.07-1.027-.206a2.79 2.79 0 0 1-.86-.581 2.68 2.68 0 0 1-.573-.884 2.77 2.77 0 0 1-.203-1.041 18.29 18.29 0 0 0-.442-4.019 1.8 1.8 0 0 1 .167-1.211 1.69 1.69 0 0 1 .908-.775c.477-.182 12.215-4.285 31.894-3.886a1.67 1.67 0 0 1 .989.342 1.71 1.71 0 0 1 .599.868c.585 2.13 1.098 4.309 1.504 6.476a2.06 2.06 0 0 1 .203.4 1.68 1.68 0 0 1 .12.835c-.031.288-.134.563-.299.799v.061zm35.966 3.971a1.72 1.72 0 0 1-.227.763 1.66 1.66 0 0 1-.549.569 1.65 1.65 0 0 1-.896.266c-.209.003-.416-.038-.609-.121-.107 0-10.615-4.091-27.655-4.188a1.65 1.65 0 0 1-.824-.218c-.295-.163-.534-.414-.684-.72a1.69 1.69 0 0 1-.152-.987c-.203-2.143-4.633-17.734-6.042-20.687a1.66 1.66 0 0 1-.155-.835 1.62 1.62 0 0 1 .251-.811 2.03 2.03 0 0 1 .645-.593 1.91 1.91 0 0 1 .859-.206c12.359 0 22.76 1.997 30.891 5.931.284.145.527.362.705.63a39.19 39.19 0 0 1 4.442 21.147v.061zm-43.465-20.131c-.477-1.21-1.062-2.361-1.516-3.256l-.335-.678c-8.978.706-17.884 2.159-26.628 4.346a61.37 61.37 0 0 1 1.195 3.208 106.09 106.09 0 0 1 27.284-3.619zm9.804-4.261l2.937 9.527 2.269 8.716a91.89 91.89 0 0 1 25.159 3.632 36.45 36.45 0 0 0-3.785-16.547c-7.081-3.256-16.013-5.096-26.58-5.326zm-34.856 17.286c.122.802.202 1.61.239 2.421a163.86 163.86 0 0 1 28.658-2.07l-.836-3.631a102.08 102.08 0 0 0-28.061 3.28zm-67.358 10.991l-2.268-.363-2.269-.412-4.538-.823-4.513-.932-8.992-2.009-4.454-1.114-2.244-.557-2.21-.605-4.441-1.21-4.419-1.283-4.406-1.332-4.382-1.38c-5.839-1.888-11.63-3.922-17.374-6.052-5.461-2.058-10.874-4.225-16.239-6.5a34 34 0 0 1-1.72 3.426l11.236 4.237c.275.1.524.262.729.472a1.97 1.97 0 0 1 .452.749 1.99 1.99 0 0 1 .085.873 1.82 1.82 0 0 1-.31.811 246.72 246.72 0 0 1-38.318 45.442c-.23.212-.51.362-.812.435a1.77 1.77 0 0 1-.908 0c-20.681-4.926-42.199-13.702-67.071-23.87l-3.463-1.417a1.99 1.99 0 0 1-.693-.484 1.92 1.92 0 0 1-.418-.726c-.092-.272-.121-.562-.084-.847s.137-.556.287-.799c.8-1.211 19.667-30.589 50.593-47.573a2.02 2.02 0 0 1 .991-.23 1.94 1.94 0 0 1 .955.303c.12.073 36.097 18.46 48.491 24.573.311-.496 2.389-3.414 2.747-4.225-2.305-1.21-34.509-16.039-36.79-17.25a280.3 280.3 0 0 1-8.072-4.418l-4-2.288-1.982-1.211-.991-.605-.322-.182a22.51 22.51 0 0 1-1.576 1.053l-2.161 1.211c-.8.496-1.612.896-2.388 1.392l-2.388 1.453c-3.093 1.997-6.138 4.079-9.051 6.319-5.861 4.5-11.422 9.389-16.645 14.635a220.31 220.31 0 0 0-14.902 16.499 227.31 227.31 0 0 0-6.818 8.776l-3.236 4.503-.37.533c5.206 2.542 10.46 5.023 15.822 7.263 3.355 1.501 6.842 2.844 10.269 4.237 1.707.689 3.451 1.319 5.182 1.985l5.206 1.949 5.242 1.852a169.52 169.52 0 0 0 5.266 1.767l2.639.884 2.651.823 5.29 1.598c7.109 2.106 14.273 4.051 21.494 5.834 14.424 3.499 29.004 6.355 43.715 8.474 7.344 1.041 14.723 1.937 22.126 2.614 3.686.347 7.384.638 11.093.872 3.439.218 6.902.387 10.317.46a48.04 48.04 0 0 0 4.191-4.915c1.433-1.949 2.83-3.982 4.132-6.052s2.543-4.225 3.749-6.392 2.388-4.369 3.463-6.585a261.62 261.62 0 0 0 6.281-13.545c1.433-3.341 2.83-6.718 4.132-10.096l-.586-.024zm-72.361 38.603c-.176.215-.396.389-.645.508-.249.109-.516.17-.788.182h-.274c-9.553-1.404-19.309-3.196-29.112-5.326-.34-.078-.653-.245-.908-.485-.249-.241-.431-.546-.525-.883a1.99 1.99 0 0 1-.001-1.042 1.98 1.98 0 0 1 .526-.895 236.54 236.54 0 0 0 19.953-21.91c.253-.31.594-.534.976-.64a1.9 1.9 0 0 1 1.162.047c3.116 1.21 11.475 4.152 21.959 7.263.276.08.53.225.74.424.217.19.385.431.49.702.106.264.155.549.143.835a2.03 2.03 0 0 1-.239.835c-3.825 7.22-8.332 14.046-13.457 20.385zm56.289-11.996c-.669 1.21-1.325 2.493-2.018 3.886-2.03 3.982-4.311 8.473-7.427 11.887a1.86 1.86 0 0 1-.597.46 1.99 1.99 0 0 1-.74.169h-2.926c-11.812-.123-23.607-.96-35.321-2.506-.338-.039-.659-.169-.931-.375a1.99 1.99 0 0 1-.609-.799 1.93 1.93 0 0 1-.132-1.005 1.8 1.8 0 0 1 .382-.932c4.391-5.936 8.319-12.209 11.75-18.762.2-.396.529-.708.932-.884a1.9 1.9 0 0 1 1.265-.097c11.449 2.975 23.118 4.999 34.891 6.053a1.91 1.91 0 0 1 .884.326c.265.184.482.429.633.715.144.284.217.6.215.92a2.04 2.04 0 0 1-.251.944zm9.493-20.845s-2.125 4.951-6.436 14.369a1.95 1.95 0 0 1-.711.818 1.91 1.91 0 0 1-1.032.307h-.12c-9.552-.605-27.297-1.743-63.286-15.881-.277-.114-.525-.287-.729-.508-.215-.23-.375-.507-.465-.811-.072-.294-.072-.602 0-.896a1.92 1.92 0 0 1 .37-.811c5.123-6.754 8.86-12.359 11.093-15.882.233-.36.577-.633.979-.775a1.91 1.91 0 0 1 1.242-.012l10.962 3.813c13.732 4.842 29.29 10.362 46.736 13.558a1.95 1.95 0 0 1 .791.341 1.98 1.98 0 0 1 .57.651 1.86 1.86 0 0 1 .227.847c-.008.308-.094.608-.251.872h.06zm-4.573.714c-16.777-3.305-31.679-8.582-44.922-13.315-3.283-1.211-6.412-2.276-9.552-3.329-2.054 3.184-5.039 7.602-8.92 12.807 32.24 12.456 49.077 14.005 58.51 14.623l4.884-10.786zm-52.229 12.02c-8.359-2.566-15.106-4.951-18.616-6.209a242.78 242.78 0 0 1-16.861 18.629 447.56 447.56 0 0 0 24.264 4.382c4.193-5.274 7.944-10.894 11.213-16.802zm1.934 18.545a269.64 269.64 0 0 0 33.613 2.119c2.474-3.233 4.588-6.732 6.305-10.435l.716-1.404c-10.518-1.04-20.947-2.864-31.201-5.459a152.68 152.68 0 0 1-9.433 15.179z"/></g><g fill="#000"><path d="M269.25 152.334l-17.135-53.383v-.121c-.126-.394-.324-.76-.586-1.077a3.27 3.27 0 0 0-2.213-1.188c-.864-.084-1.725.182-2.396.74a9 9 0 0 1-.752.557l-.896.617-1.886 1.21-3.929 2.239-8.227 4.043-8.514 3.632-4.394 1.549-.358.133 2.591-5.241c2.209-4.576 4.323-9.164 6.293-13.921.079-.223.135-.455.167-.69a3.29 3.29 0 0 0-.064-1.273 3.26 3.26 0 0 0-.545-1.148 3.3 3.3 0 0 0-.931-.847 3.14 3.14 0 0 0-1.195-.412l-4.465-.629-2.209-.315-2.233-.363-4.454-.738-4.442-.847c-2.962-.52-5.899-1.211-8.848-1.804l-4.419-1.029-2.197-.484-2.197-.557-4.394-1.102-4.37-1.211-4.359-1.21c-1.456-.399-2.901-.835-4.346-1.283a393.39 393.39 0 0 1-17.243-5.665c-5.469-1.949-16.299-6.198-21.696-8.352-.49 1.537.597 3.305 0 4.769l19.989 8.473c5.755 2.13 11.535 4.164 17.374 6.053 1.433.484 2.925.92 4.382 1.38l4.406 1.332 4.418 1.295 4.442 1.21 2.221.605 2.233.557 4.466 1.126 8.991 1.997 4.502.932 4.538.835 2.268.412 2.281.363.585.097c-1.301 3.377-2.698 6.754-4.131 10.095-1.971 4.564-4.06 9.091-6.281 13.534-1.111 2.227-2.269 4.418-3.463 6.597s-2.388 4.297-3.738 6.379-2.686 4.116-4.143 6.053c-1.29 1.733-2.69 3.378-4.191 4.926-3.403-.072-6.878-.242-10.317-.46l-11.093-.871c-7.391-.678-14.771-1.574-22.126-2.627-14.7-2.094-29.279-4.951-43.704-8.473a470.89 470.89 0 0 1-21.493-5.835l-5.29-1.646-2.651-.823-2.639-.884-5.278-1.767-5.254-1.852c-1.755-.606-3.487-1.271-5.218-1.949l-5.182-1.986-10.257-4.236c-5.349-2.252-10.592-4.733-15.833-7.263l.37-.533c1.051-1.513 2.137-3.014 3.236-4.503a249.92 249.92 0 0 1 6.83-8.776 217.6 217.6 0 0 1 14.89-16.499 168.49 168.49 0 0 1 16.646-14.635c2.925-2.251 5.97-4.334 9.063-6.319l2.388-1.453c.776-.484 1.588-.92 2.388-1.392l2.173-1.211a22.25 22.25 0 0 0 1.576-1.053l.311.182.991.605 1.994 1.211 3.988 2.288 8.072 4.418c2.305 1.21 32.873 15.736 36.3 16.79a38.5 38.5 0 0 0 .931-4.14c-2.197-1.065-33.112-15.313-35.285-16.414l-8.06-4.225-3.976-2.191-1.97-1.126-.955-.557-.478-.291-.251-.145h-.06l-.323-.169a3.12 3.12 0 0 0-.728-.206 77.25 77.25 0 0 0-3.272 1.21l-.812.363-.406.182-.322.169-1.278.642c-.848.436-1.719.835-2.543 1.307l-2.508 1.38c-3.308 1.913-6.567 3.898-9.696 6.052a171.29 171.29 0 0 0-17.911 14.223A223.69 223.69 0 0 0 32.368 81.92a242.36 242.36 0 0 0-7.475 8.691l-3.582 4.503-1.755 2.3a79.77 79.77 0 0 0-1.743 2.421l-.072.121a4.68 4.68 0 0 0-.299.532 4.34 4.34 0 0 0-.37 1.562c-.013.54.072 1.077.251 1.586.381 1.02 1.139 1.85 2.114 2.312 6.866 3.196 13.756 6.319 20.801 9.091 3.487 1.464 7.045 2.723 10.568 4.067l5.337 1.888c1.755.678 3.582 1.211 5.349 1.828l5.385 1.768 5.397 1.658 2.699.823 2.722.775 5.433 1.537a535.49 535.49 0 0 0 21.923 5.35l2.018.412c-2.232 3.268-4.537 6.512-6.866 9.684a410.8 410.8 0 0 1-8.895 11.766 283.89 283.89 0 0 1-9.373 11.33c-3.212 3.692-6.532 7.263-9.983 10.544l-.084.097a3.64 3.64 0 0 0-.907 1.67 3.85 3.85 0 0 0 .06 1.913c.198.607.55 1.151 1.022 1.576a3.56 3.56 0 0 0 1.665.845 73.89 73.89 0 0 0 3.188.617l3.117.533c2.078.339 4.155.629 6.233.907a278.83 278.83 0 0 0 12.466 1.32c8.358.702 16.717 1.029 25.076 1.053a330.2 330.2 0 0 0 25.004-.884c8.287-.606 16.597-1.573 24.848-2.808l6.174-.968 6.149-1.211c2.054-.351 4.084-.811 6.114-1.21l3.069-.654 1.528-.327 1.517-.375 6.066-1.453c1.027-.23 2.018-.52 3.033-.799l3.009-.835c4.036-1.041 8-2.421 11.941-3.559a305.43 305.43 0 0 0 46.115-19.271c.407-.208.728-.555.908-.98a2.08 2.08 0 0 0-.012-1.332zm-48.54 17.104c-3.94 1.126-7.869 2.349-11.857 3.305l-2.973.763c-1.003.254-1.994.532-2.997.738l-5.971 1.356-1.504.339-1.505.29-3.021.593-6.042 1.138-6.066 1.005-6.078.872c-8.131 1.065-16.311 1.876-24.455 2.336a325.53 325.53 0 0 1-24.55.448c-8.179-.158-16.359-.642-24.479-1.465a278.49 278.49 0 0 1-12.156-1.501l-5.779-.944c1.851-2.179 3.666-4.394 5.421-6.634 3.069-3.97 5.97-8.013 8.884-12.105s5.636-8.267 8.359-12.444l7.164-11.536 2.747.545 3.988.763c10.452 1.977 20.956 3.591 31.512 4.842 5.636.653 11.296 1.21 16.944 1.682l3.845.279 1.636.121c.728.06 1.457.084 2.185.133l3.833.23 5.23.242c3.761.133 7.487.23 11.308.194h.107c.445 0 .873-.174 1.194-.485a50.19 50.19 0 0 0 5.326-5.762c1.636-1.997 3.164-4.067 4.621-6.173s2.818-4.261 4.144-6.44c.322-.52.621-1.041.931-1.561l2.914-5.036c.585-1.041 1.194-2.094 1.707-3.147l4.323-1.211 4.525-1.331c3.009-.933 5.971-1.889 8.992-2.966s5.97-2.215 8.884-3.498a96.54 96.54 0 0 0 4.382-2.046l.681-.351 17.911 46.943c-14.278 6.999-29.079 12.844-44.265 17.479zm139.6-98.255a28.69 28.69 0 0 0-5.863-9.055 1.8 1.8 0 0 0-.513-.387l-1.302-.605s-.835-.375-1.265-.545l-2.532-.98-5.158-1.683a97.51 97.51 0 0 0-10.508-2.421 113.25 113.25 0 0 0-21.494-1.634c-.895 0-1.791.073-2.698.097s-1.791.073-2.699.145l-2.686.194-2.687.266c-.896.085-1.779.206-2.675.327l-2.675.375-2.662.448-1.326.23-1.325.266a139.19 139.19 0 0 0-20.789 5.835l-.144.06c-.751.323-1.347.935-1.655 1.701a3.18 3.18 0 0 0 .008 2.39v.121c.238.484.477 1.102.74 1.671s.49 1.21.74 1.743l1.35 3.535c.859 2.421 1.612 4.842 2.268 7.263a63.4 63.4 0 0 1 1.541 7.336 47.11 47.11 0 0 1 .394 3.632c0 .605.059 1.21.059 1.816v1.368a6.01 6.01 0 0 0 .741 2.421 3.55 3.55 0 0 0 1.695.557h.693.143.167l.633-.097 1.278-.194 2.591-.351c1.732-.23 3.463-.424 5.206-.605a249.11 249.11 0 0 1 10.46-.847c6.974-.412 13.971-.557 20.921-.29 6.897.167 13.769.9 20.55 2.191a67.28 67.28 0 0 1 9.756 2.747c3.071 1.124 5.989 2.641 8.681 4.516l.274.169a3.11 3.11 0 0 0 1.773.462 3.12 3.12 0 0 0 1.726-.619c.341-.247.63-.56.849-.922a3.21 3.21 0 0 0 .428-1.185c.084-.52.132-.932.192-1.38l.143-1.331a66.32 66.32 0 0 0 .203-2.627 77.63 77.63 0 0 0 .143-5.254 67.48 67.48 0 0 0-.824-10.519c-.543-3.554-1.505-7.028-2.866-10.35zm-2.161 20.578a55.02 55.02 0 0 1-.477 4.842c.006.011.009.023.009.036s-.003.025-.009.036a47.03 47.03 0 0 0-5.971-2.53 72.97 72.97 0 0 0-10.747-2.784 131.63 131.63 0 0 0-21.577-1.997c-7.164-.121-14.329.169-21.493.738-3.582.278-7.165.642-10.651 1.089l-5.314.714-2.388.363v-1.065c0-1.38-.108-2.76-.239-4.116a70.4 70.4 0 0 0-1.314-8.038c-.585-2.627-1.265-5.217-2.065-7.771a89.11 89.11 0 0 0-1.266-3.825l-.251-.69a135.4 135.4 0 0 1 16.789-5.048l1.266-.291 1.266-.254 2.531-.484 2.543-.424c.848-.145 1.696-.291 2.556-.387l2.555-.339 2.579-.266a44.88 44.88 0 0 1 2.568-.206c.859-.048 1.719-.133 2.579-.157 6.888-.338 13.793-.013 20.621.968 3.41.499 6.79 1.186 10.126 2.058 1.66.436 3.32.908 4.932 1.453l2.388.872c.394.157.788.303 1.194.484l.776.339c1.885 2.302 3.334 4.936 4.275 7.771a40.62 40.62 0 0 1 1.923 9.297 60.25 60.25 0 0 1 .286 9.648v-.036z"/></g><path d="M133.542 76.121l8.454 3.208c-10.253 15.308-22.191 29.383-35.583 41.956-20.108-4.842-41.184-13.509-65.531-23.459l-1.254-.52c4.776-6.803 21.864-29.681 46.904-43.747 2.197 1.368 34.342 16.463 45.626 21.971l.561.218.812.4.012-.024z" fill="#fff"/><g fill="#8b8fa2"><path d="M135.56 72.853l-1.982 3.268-.848-.339-.537-.254a27.54 27.54 0 0 0 2.209-3.244l1.158.569z"/><path d="M146.367 76.981c.206.21.361.466.452.748a1.92 1.92 0 0 1 .073.874 1.96 1.96 0 0 1-.298.811c-10.909 16.666-23.776 31.925-38.318 45.442-.235.206-.513.355-.813.435s-.615.088-.919.025c-20.681-4.927-42.175-13.715-67.059-23.883l-3.475-1.417c-.261-.112-.496-.277-.692-.484a1.92 1.92 0 0 1-.418-.726c-.083-.274-.107-.563-.072-.847s.132-.558.287-.799c.788-1.21 19.643-30.589 50.593-47.572a1.84 1.84 0 0 1 .979-.218 1.94 1.94 0 0 1 .967.303c.119.073 33.434 16.087 46.748 22.612a27.54 27.54 0 0 1-2.209 3.244L86.567 53.558C61.492 67.623 44.392 90.502 39.664 97.305l1.254.52c24.347 9.951 45.375 18.557 65.531 23.46 13.392-12.576 25.33-26.656 35.583-41.968l-8.454-3.208 1.982-3.268-1.194-.569 11.237 4.237a1.96 1.96 0 0 1 .764.472z"/></g></g><rect x=".75" y=".75" width="394.5" height="227.5" rx="7.25" stroke="#414756" stroke-width="1.5"/><path d="M110.066 98.4v1.872h-4.014V111h-1.872v-10.728h-4.005V98.4h9.891zm10.107 6.957V111h-1.872v-5.184c0-.402-.099-.768-.297-1.098a2.13 2.13 0 0 0-.783-.783c-.324-.198-.69-.297-1.098-.297-.396 0-.759.099-1.089.297a2.2 2.2 0 0 0-.792.783c-.198.33-.297.696-.297 1.098V111h-1.872V97.5h1.872v5.454a3.36 3.36 0 0 1 1.152-.882c.456-.216.948-.324 1.476-.324.666 0 1.272.162 1.818.486s.978.759 1.296 1.305c.324.546.486 1.152.486 1.818zM122.17 102h1.872v9h-1.872v-9zm.954-1.305c-.288 0-.528-.093-.72-.279s-.288-.42-.288-.702c0-.276.096-.507.288-.693.192-.192.429-.288.711-.288.276 0 .51.096.702.288.192.186.288.417.288.693 0 .282-.096.516-.288.702a.94.94 0 0 1-.693.279zm5.848 10.476c-.474-.03-.936-.126-1.386-.288s-.846-.381-1.188-.657c-.336-.282-.588-.612-.756-.99l1.593-.684c.078.162.213.321.405.477a2.66 2.66 0 0 0 .693.387c.264.096.54.144.828.144a2.52 2.52 0 0 0 .783-.117 1.44 1.44 0 0 0 .603-.378c.156-.168.234-.369.234-.603 0-.264-.09-.468-.27-.612a1.75 1.75 0 0 0-.657-.342l-.792-.225c-.588-.132-1.128-.312-1.62-.54-.486-.234-.873-.531-1.161-.891-.288-.366-.432-.813-.432-1.341 0-.576.156-1.074.468-1.494.312-.426.72-.753 1.224-.981.51-.228 1.053-.342 1.629-.342.72 0 1.38.153 1.98.459s1.059.726 1.377 1.26l-1.485.882c-.09-.18-.225-.342-.405-.486s-.384-.258-.612-.342a2.22 2.22 0 0 0-.711-.153 2.48 2.48 0 0 0-.855.108c-.258.078-.465.204-.621.378a.96.96 0 0 0-.234.666c0 .264.093.462.279.594.186.126.42.228.702.306l.882.261c.534.168 1.035.375 1.503.621.468.24.846.537 1.134.891s.426.786.414 1.296c0 .564-.171 1.059-.513 1.485-.336.426-.774.75-1.314.972a3.86 3.86 0 0 1-1.719.279zm9.812-9.171h1.872v9h-1.872v-9zm.954-1.305c-.288 0-.528-.093-.72-.279s-.288-.42-.288-.702c0-.276.096-.507.288-.693.192-.192.429-.288.711-.288.276 0 .51.096.702.288.192.186.288.417.288.693 0 .282-.096.516-.288.702a.94.94 0 0 1-.693.279zm5.848 10.476c-.474-.03-.936-.126-1.386-.288s-.846-.381-1.188-.657c-.336-.282-.588-.612-.756-.99l1.593-.684c.078.162.213.321.405.477a2.66 2.66 0 0 0 .693.387c.264.096.54.144.828.144a2.52 2.52 0 0 0 .783-.117 1.44 1.44 0 0 0 .603-.378c.156-.168.234-.369.234-.603 0-.264-.09-.468-.27-.612a1.75 1.75 0 0 0-.657-.342l-.792-.225c-.588-.132-1.128-.312-1.62-.54-.486-.234-.873-.531-1.161-.891-.288-.366-.432-.813-.432-1.341 0-.576.156-1.074.468-1.494.312-.426.72-.753 1.224-.981.51-.228 1.053-.342 1.629-.342.72 0 1.38.153 1.98.459s1.059.726 1.377 1.26l-1.485.882c-.09-.18-.225-.342-.405-.486s-.384-.258-.612-.342a2.22 2.22 0 0 0-.711-.153 2.48 2.48 0 0 0-.855.108c-.258.078-.465.204-.621.378a.96.96 0 0 0-.234.666c0 .264.093.462.279.594.186.126.42.228.702.306l.882.261c.534.168 1.035.375 1.503.621.468.24.846.537 1.134.891s.426.786.414 1.296c0 .564-.171 1.059-.513 1.485-.336.426-.774.75-1.314.972a3.86 3.86 0 0 1-1.719.279zM162.399 102h1.872v9h-1.881l-.072-1.305a3.13 3.13 0 0 1-1.071 1.116c-.45.282-.981.423-1.593.423-.66 0-1.281-.123-1.863-.369a4.92 4.92 0 0 1-1.539-1.044 4.9 4.9 0 0 1-1.026-1.53c-.246-.582-.369-1.206-.369-1.872a4.57 4.57 0 0 1 .36-1.809 4.63 4.63 0 0 1 .999-1.494c.426-.426.918-.759 1.476-.999.564-.246 1.167-.369 1.809-.369.654 0 1.23.15 1.728.45.504.294.921.672 1.251 1.134l-.081-1.332zm-2.79 7.425c.528 0 .99-.129 1.386-.387.396-.264.702-.618.918-1.062.222-.444.333-.936.333-1.476 0-.546-.111-1.041-.333-1.485s-.531-.795-.927-1.053c-.39-.264-.849-.396-1.377-.396a2.69 2.69 0 0 0-1.431.396c-.432.264-.774.618-1.026 1.062s-.378.936-.378 1.476a2.9 2.9 0 0 0 .387 1.485c.264.438.609.789 1.035 1.053.432.258.903.387 1.413.387zm17.059-.981l1.674.909c-.408.57-.927 1.026-1.557 1.368-.624.342-1.302.513-2.034.513-.828 0-1.584-.213-2.268-.639a4.79 4.79 0 0 1-1.629-1.71c-.402-.72-.603-1.515-.603-2.385a4.81 4.81 0 0 1 .351-1.845 4.82 4.82 0 0 1 .963-1.512c.414-.438.894-.78 1.44-1.026a4.2 4.2 0 0 1 1.746-.369c.732 0 1.41.171 2.034.513.63.342 1.149.801 1.557 1.377l-1.674.909c-.252-.3-.546-.528-.882-.684-.336-.162-.681-.243-1.035-.243a2.35 2.35 0 0 0-1.341.405c-.396.264-.711.615-.945 1.053a3 3 0 0 0-.342 1.422 2.97 2.97 0 0 0 .351 1.422 2.88 2.88 0 0 0 .945 1.044c.402.264.846.396 1.332.396.372 0 .726-.084 1.062-.252s.621-.39.855-.666zm7.231 2.79c-.828 0-1.584-.213-2.268-.639a4.79 4.79 0 0 1-1.629-1.71c-.402-.72-.603-1.515-.603-2.385a4.81 4.81 0 0 1 .351-1.845 4.82 4.82 0 0 1 .963-1.512c.414-.438.894-.78 1.44-1.026a4.2 4.2 0 0 1 1.746-.369 4.16 4.16 0 0 1 2.259.639 4.67 4.67 0 0 1 1.629 1.719 4.77 4.77 0 0 1 .612 2.394c0 .654-.117 1.266-.351 1.836s-.558 1.074-.972 1.512a4.48 4.48 0 0 1-1.431 1.017 4.16 4.16 0 0 1-1.746.369zm0-1.872c.498 0 .945-.132 1.341-.396s.708-.612.936-1.044a2.97 2.97 0 0 0 .351-1.422c0-.522-.12-1.002-.36-1.44-.234-.438-.549-.786-.945-1.044-.396-.264-.837-.396-1.323-.396a2.39 2.39 0 0 0-1.341.396c-.396.264-.711.615-.945 1.053-.228.438-.342.915-.342 1.431 0 .534.12 1.017.36 1.449s.558.777.954 1.035c.402.252.84.378 1.314.378zm6.154 1.638v-9h1.872v.954a3.38 3.38 0 0 1 1.143-.882c.456-.216.948-.324 1.476-.324a3.48 3.48 0 0 1 1.773.468 3.55 3.55 0 0 1 1.287 1.224c.318-.51.741-.918 1.269-1.224.534-.312 1.122-.468 1.764-.468.666 0 1.272.162 1.818.486s.981.759 1.305 1.305.486 1.152.486 1.818V111h-1.872v-5.166c0-.396-.096-.759-.288-1.089a2.3 2.3 0 0 0-.774-.801c-.324-.204-.684-.306-1.08-.306a2.08 2.08 0 0 0-1.08.288 2.15 2.15 0 0 0-.774.783c-.192.33-.288.705-.288 1.125V111h-1.872v-5.166c0-.42-.096-.795-.288-1.125a2.13 2.13 0 0 0-.783-.783 2.08 2.08 0 0 0-1.08-.288c-.39 0-.75.102-1.08.306a2.3 2.3 0 0 0-.774.801c-.192.33-.288.693-.288 1.089V111h-1.872zm16.196-9h1.872v9h-1.872v-9zm.954-1.305c-.288 0-.528-.093-.72-.279s-.288-.42-.288-.702c0-.276.096-.507.288-.693.192-.192.429-.288.711-.288.276 0 .51.096.702.288.192.186.288.417.288.693 0 .282-.096.516-.288.702a.94.94 0 0 1-.693.279zm8.99 7.749l1.674.909c-.408.57-.927 1.026-1.557 1.368-.624.342-1.302.513-2.034.513-.828 0-1.584-.213-2.268-.639a4.79 4.79 0 0 1-1.629-1.71c-.402-.72-.603-1.515-.603-2.385a4.81 4.81 0 0 1 .351-1.845 4.82 4.82 0 0 1 .963-1.512c.414-.438.894-.78 1.44-1.026a4.2 4.2 0 0 1 1.746-.369c.732 0 1.41.171 2.034.513.63.342 1.149.801 1.557 1.377l-1.674.909c-.252-.3-.546-.528-.882-.684-.336-.162-.681-.243-1.035-.243a2.35 2.35 0 0 0-1.341.405c-.396.264-.711.615-.945 1.053a3 3 0 0 0-.342 1.422 2.97 2.97 0 0 0 .351 1.422 2.88 2.88 0 0 0 .945 1.044c.402.264.846.396 1.332.396.372 0 .726-.084 1.062-.252s.621-.39.855-.666zm9.895 7.056h-1.872V102h1.872v1.323a3.62 3.62 0 0 1 1.152-1.125c.468-.288 1.02-.432 1.656-.432.654 0 1.266.123 1.836.369.576.246 1.08.588 1.512 1.026.432.432.771.933 1.017 1.503s.369 1.182.369 1.836-.123 1.269-.369 1.845-.585 1.083-1.017 1.521a4.76 4.76 0 0 1-1.512 1.017c-.57.246-1.182.369-1.836.369-.636 0-1.188-.144-1.656-.432a3.75 3.75 0 0 1-1.152-1.125v5.805zm2.79-11.925c-.522 0-.981.132-1.377.396a2.7 2.7 0 0 0-.927 1.062c-.222.438-.333.927-.333 1.467s.111 1.032.333 1.476a2.7 2.7 0 0 0 .927 1.062c.396.264.855.396 1.377.396a2.72 2.72 0 0 0 1.422-.387c.432-.264.777-.618 1.035-1.062a2.9 2.9 0 0 0 .387-1.485c0-.534-.129-1.023-.387-1.467-.252-.444-.594-.798-1.026-1.062a2.69 2.69 0 0 0-1.431-.396zm6.419 7.425v-9h1.872v.954a3.36 3.36 0 0 1 1.152-.882c.456-.216.948-.324 1.476-.324a3.78 3.78 0 0 1 .999.135l-.747 1.89c-.234-.09-.468-.135-.702-.135-.396 0-.759.099-1.089.297a2.2 2.2 0 0 0-.792.783c-.198.33-.297.696-.297 1.098V111h-1.872zm10.277.234c-.828 0-1.584-.213-2.268-.639a4.79 4.79 0 0 1-1.629-1.71c-.402-.72-.603-1.515-.603-2.385a4.81 4.81 0 0 1 .351-1.845 4.82 4.82 0 0 1 .963-1.512c.414-.438.894-.78 1.44-1.026a4.2 4.2 0 0 1 1.746-.369c.69 0 1.323.144 1.899.432.576.282 1.068.675 1.476 1.179.408.498.708 1.074.9 1.728a5.26 5.26 0 0 1 .171 2.07h-6.939a3.04 3.04 0 0 0 .45 1.125c.228.33.516.591.864.783.354.192.747.291 1.179.297a2.33 2.33 0 0 0 1.242-.342 2.69 2.69 0 0 0 .927-.945l1.899.441c-.36.798-.903 1.452-1.629 1.962-.726.504-1.539.756-2.439.756zm-2.556-5.508h5.112a2.62 2.62 0 0 0-.459-1.17c-.24-.354-.543-.633-.909-.837-.36-.21-.756-.315-1.188-.315a2.4 2.4 0 0 0-1.188.306c-.36.204-.66.483-.9.837-.234.348-.39.741-.468 1.179zM256.437 111h-2.403l-3.285-9.018h1.998l2.484 6.858 2.493-6.858h1.989L256.437 111zm4.86-9h1.872v9h-1.872v-9zm.954-1.305c-.288 0-.528-.093-.72-.279s-.288-.42-.288-.702c0-.276.096-.507.288-.693.192-.192.429-.288.711-.288.276 0 .51.096.702.288.192.186.288.417.288.693 0 .282-.096.516-.288.702a.94.94 0 0 1-.693.279zm7.073 10.539c-.828 0-1.584-.213-2.268-.639a4.79 4.79 0 0 1-1.629-1.71c-.402-.72-.603-1.515-.603-2.385a4.81 4.81 0 0 1 .351-1.845 4.82 4.82 0 0 1 .963-1.512c.414-.438.894-.78 1.44-1.026a4.2 4.2 0 0 1 1.746-.369c.69 0 1.323.144 1.899.432.576.282 1.068.675 1.476 1.179.408.498.708 1.074.9 1.728a5.26 5.26 0 0 1 .171 2.07h-6.939a3.04 3.04 0 0 0 .45 1.125c.228.33.516.591.864.783.354.192.747.291 1.179.297a2.33 2.33 0 0 0 1.242-.342 2.69 2.69 0 0 0 .927-.945l1.899.441c-.36.798-.903 1.452-1.629 1.962-.726.504-1.539.756-2.439.756zm-2.556-5.508h5.112a2.62 2.62 0 0 0-.459-1.17c-.24-.354-.543-.633-.909-.837-.36-.21-.756-.315-1.188-.315a2.4 2.4 0 0 0-1.188.306c-.36.204-.66.483-.9.837-.234.348-.39.741-.468 1.179zM279.377 111h-1.863l-3.015-9h1.836l2.124 6.318 2.106-6.318h1.89l2.106 6.318 2.115-6.318h1.836l-3.006 9h-1.881l-2.124-6.363-2.124 6.363zm10.791-3.78V98.4h1.593v8.82h-1.593zm.801 4.014c-.276 0-.51-.096-.702-.288s-.288-.429-.288-.711c0-.27.096-.498.288-.684.192-.192.426-.288.702-.288.27 0 .498.096.684.288.192.186.288.414.288.684 0 .282-.096.519-.288.711-.186.192-.414.288-.684.288z" fill="#fff"/><path d="M81.085 137.8v1.344h-3.728V149h-1.344v-9.856h-3.72V137.8h8.792zm4.092 11.408c-.736 0-1.408-.189-2.016-.568-.603-.379-1.085-.885-1.448-1.52-.357-.64-.536-1.347-.536-2.12 0-.587.104-1.133.312-1.64.208-.512.493-.96.856-1.344.368-.389.795-.693 1.28-.912a3.73 3.73 0 0 1 1.552-.328c.736 0 1.405.189 2.008.568.608.379 1.091.888 1.448 1.528a4.24 4.24 0 0 1 .544 2.128c0 .581-.104 1.125-.312 1.632s-.496.955-.864 1.344a3.99 3.99 0 0 1-1.272.904c-.48.219-.997.328-1.552.328zm0-1.344a2.42 2.42 0 0 0 1.352-.392c.405-.267.723-.616.952-1.048.235-.437.352-.912.352-1.424 0-.523-.12-1.003-.36-1.44a2.82 2.82 0 0 0-.952-1.048c-.4-.261-.848-.392-1.344-.392a2.38 2.38 0 0 0-1.352.4 2.82 2.82 0 0 0-.952 1.048 2.98 2.98 0 0 0-.352 1.432c0 .533.12 1.019.36 1.456s.563.776.968 1.032.848.376 1.328.376zM99.014 149h-1.72l-2.92-8.016h1.432l2.344 6.456 2.344-6.456h1.432L99.014 149zm4.415-8h1.344v8h-1.344v-8zm.688-1.304a.74.74 0 0 1-.536-.208c-.144-.139-.216-.312-.216-.52s.072-.381.216-.52a.73.73 0 0 1 .528-.208.73.73 0 0 1 .528.208c.144.139.216.312.216.52s-.072.381-.216.52c-.139.139-.312.208-.52.208zm6.188 9.512c-.736 0-1.408-.189-2.016-.568-.603-.379-1.085-.885-1.448-1.52-.357-.64-.536-1.347-.536-2.12 0-.587.104-1.133.312-1.64a4.28 4.28 0 0 1 .856-1.344 4.03 4.03 0 0 1 1.28-.912 3.73 3.73 0 0 1 1.552-.328c.603 0 1.155.123 1.656.368.507.24.939.576 1.296 1.008.363.432.632.933.808 1.504s.248 1.181.2 1.832h-6.528c.064.453.213.859.448 1.216s.533.632.896.84.776.315 1.224.32c.48 0 .915-.123 1.304-.368.389-.251.704-.592.944-1.024l1.368.32a4.22 4.22 0 0 1-1.448 1.744c-.645.448-1.368.672-2.168.672zm-2.608-4.776h5.216c-.043-.448-.187-.856-.432-1.224a2.83 2.83 0 0 0-.936-.896 2.39 2.39 0 0 0-1.24-.336 2.39 2.39 0 0 0-1.232.328 2.79 2.79 0 0 0-.928.888c-.24.368-.389.781-.448 1.24zM119.029 149h-1.36l-2.68-8h1.312l2.064 6.104 2.04-6.104h1.384l2.048 6.104 2.04-6.104h1.328l-2.68 8h-1.368l-2.072-6.16-2.056 6.16zm20.288-8h1.344v8h-1.344l-.056-1.352a3.06 3.06 0 0 1-1.04 1.128c-.437.288-.96.432-1.568.432-.587 0-1.136-.109-1.648-.328a4.48 4.48 0 0 1-1.36-.92 4.37 4.37 0 0 1-.912-1.36c-.219-.512-.328-1.064-.328-1.656 0-.571.107-1.109.32-1.616s.509-.949.888-1.328a4.17 4.17 0 0 1 1.328-.896 3.99 3.99 0 0 1 1.616-.328c.629 0 1.181.149 1.656.448a3.52 3.52 0 0 1 1.152 1.144l-.048-1.368zm-2.688 6.904c.528 0 .984-.128 1.368-.384.389-.261.688-.613.896-1.056s.32-.931.32-1.464c0-.544-.107-1.035-.32-1.472-.213-.443-.515-.792-.904-1.048s-.837-.392-1.36-.392a2.73 2.73 0 0 0-1.44.392 2.92 2.92 0 0 0-1.032 1.056c-.251.437-.376.925-.376 1.464s.131 1.029.392 1.472c.261.437.608.787 1.04 1.048.432.256.904.384 1.416.384zm5.925 1.096v-12h1.344v12h-1.344zm3.465 0v-12h1.344v12h-1.344zm8.854 4h-1.344v-12h1.344v1.368a3.26 3.26 0 0 1 1.088-1.136c.453-.293.992-.44 1.616-.44a4.07 4.07 0 0 1 1.632.328c.512.219.96.523 1.344.912.384.384.685.829.904 1.336s.328 1.051.328 1.632-.11 1.128-.328 1.64a4.33 4.33 0 0 1-.904 1.352c-.384.384-.832.685-1.344.904a4.07 4.07 0 0 1-1.632.328c-.624 0-1.163-.144-1.616-.432a3.33 3.33 0 0 1-1.088-1.144V153zm2.688-10.904c-.518 0-.971.131-1.36.392a2.61 2.61 0 0 0-.904 1.048c-.208.437-.312.925-.312 1.464 0 .533.104 1.021.312 1.464s.512.795.896 1.056.845.392 1.368.392c.517 0 .992-.128 1.424-.384s.778-.611 1.04-1.048a2.86 2.86 0 0 0 .392-1.48 2.83 2.83 0 0 0-.384-1.456 2.92 2.92 0 0 0-1.032-1.056 2.73 2.73 0 0 0-1.44-.392zM169.708 141h1.344v8h-1.344l-.056-1.352a3.07 3.07 0 0 1-1.04 1.128c-.438.288-.96.432-1.568.432-.587 0-1.136-.109-1.648-.328a4.47 4.47 0 0 1-1.36-.92c-.39-.395-.694-.848-.912-1.36s-.328-1.064-.328-1.656a4.11 4.11 0 0 1 .32-1.616c.213-.507.509-.949.888-1.328.384-.384.826-.683 1.328-.896a3.99 3.99 0 0 1 1.616-.328c.629 0 1.181.149 1.656.448.474.293.858.675 1.152 1.144l-.048-1.368zm-2.688 6.904c.528 0 .984-.128 1.368-.384.389-.261.688-.613.896-1.056.213-.443.32-.931.32-1.464 0-.544-.107-1.035-.32-1.472-.214-.443-.515-.792-.904-1.048-.384-.261-.838-.392-1.36-.392a2.73 2.73 0 0 0-1.44.392 2.92 2.92 0 0 0-1.032 1.056c-.251.437-.376.925-.376 1.464s.13 1.029.392 1.472c.261.437.608.787 1.04 1.048.432.256.904.384 1.416.384zM178.942 141h1.344v8.256c0 .528-.114 1.019-.344 1.472a3.76 3.76 0 0 1-.912 1.192 4.22 4.22 0 0 1-1.312.792c-.49.192-1.002.288-1.536.288-.554 0-1.09-.125-1.608-.376-.517-.245-.97-.576-1.36-.992a3.75 3.75 0 0 1-.832-1.384l1.232-.56c.102.368.283.699.544.992a2.98 2.98 0 0 0 .928.704c.358.176.723.264 1.096.264.352 0 .691-.061 1.016-.184.331-.123.627-.293.888-.512.267-.213.475-.467.624-.76.155-.288.232-.6.232-.936v-1.592c-.272.459-.632.832-1.08 1.12-.442.283-.96.424-1.552.424-.565 0-1.096-.109-1.592-.328a4.13 4.13 0 0 1-1.304-.904 4.39 4.39 0 0 1-.88-1.344 4.17 4.17 0 0 1-.32-1.632 4.17 4.17 0 0 1 .32-1.632c.214-.512.507-.96.88-1.344.374-.389.808-.693 1.304-.912s1.027-.328 1.592-.328c.592 0 1.11.141 1.552.424.448.283.808.656 1.08 1.12V141zm-2.624 6.904c.518 0 .966-.133 1.344-.4a2.63 2.63 0 0 0 .888-1.064c.208-.443.312-.923.312-1.44 0-.533-.106-1.019-.32-1.456-.208-.443-.504-.795-.888-1.056-.378-.267-.824-.4-1.336-.4a2.54 2.54 0 0 0-1.376.392 2.86 2.86 0 0 0-.992 1.056 2.99 2.99 0 0 0-.36 1.464c0 .539.123 1.029.368 1.472a2.98 2.98 0 0 0 .992 1.048 2.56 2.56 0 0 0 1.368.384zm9.503 1.304c-.736 0-1.408-.189-2.016-.568a4.25 4.25 0 0 1-1.448-1.52c-.358-.64-.536-1.347-.536-2.12 0-.587.104-1.133.312-1.64a4.28 4.28 0 0 1 .856-1.344 4.02 4.02 0 0 1 1.28-.912c.485-.219 1.002-.328 1.552-.328.602 0 1.154.123 1.656.368a3.75 3.75 0 0 1 1.296 1.008c.362.432.632.933.808 1.504.181.571.248 1.181.2 1.832h-6.528c.064.453.213.859.448 1.216s.533.632.896.84.776.315 1.224.32a2.4 2.4 0 0 0 1.304-.368c.389-.251.704-.592.944-1.024l1.368.32a4.22 4.22 0 0 1-1.448 1.744c-.646.448-1.368.672-2.168.672zm-2.608-4.776h5.216c-.043-.448-.187-.856-.432-1.224a2.85 2.85 0 0 0-.936-.896 2.39 2.39 0 0 0-1.24-.336 2.39 2.39 0 0 0-1.232.328 2.78 2.78 0 0 0-.928.888c-.24.368-.39.781-.448 1.24zm10.587 4.72a4.28 4.28 0 0 1-1.264-.24c-.405-.149-.763-.349-1.072-.6-.304-.256-.525-.549-.664-.88l1.152-.496c.08.181.224.352.432.512s.448.288.72.384a2.46 2.46 0 0 0 .824.144c.293 0 .568-.045.824-.136s.464-.224.624-.4a.93.93 0 0 0 .248-.648c0-.267-.091-.475-.272-.624-.176-.155-.4-.275-.672-.36l-.816-.256a9.18 9.18 0 0 1-1.472-.496c-.432-.197-.773-.445-1.024-.744-.245-.304-.368-.691-.368-1.16 0-.496.136-.925.408-1.288.277-.363.64-.643 1.088-.84s.928-.296 1.44-.296c.645 0 1.235.139 1.768.416s.931.653 1.192 1.128l-1.08.632a1.38 1.38 0 0 0-.416-.504c-.187-.149-.4-.267-.64-.352a2.33 2.33 0 0 0-.736-.136c-.309-.011-.6.029-.872.12-.267.091-.483.229-.648.416a.99.99 0 0 0-.24.68c0 .267.085.469.256.608s.403.251.68.336l.92.28c.485.155.939.333 1.36.536s.76.456 1.016.76.389.68.384 1.128c0 .491-.147.92-.44 1.288s-.675.64-1.144.832-.963.277-1.496.256zm12.742-8.376c.779 0 1.486.189 2.12.568a4.28 4.28 0 0 1 1.528 1.528c.379.635.568 1.341.568 2.12 0 .581-.109 1.128-.328 1.64s-.522.955-.912 1.344c-.384.384-.832.685-1.344.904-.506.219-1.05.328-1.632.328-.618 0-1.157-.144-1.616-.432a3.34 3.34 0 0 1-1.088-1.144V149h-1.344v-12h1.344v5.352a3.27 3.27 0 0 1 1.088-1.136c.459-.293.998-.44 1.616-.44zm-.016 7.12a2.73 2.73 0 0 0 1.44-.392c.432-.261.776-.611 1.032-1.048.256-.443.384-.931.384-1.464 0-.544-.13-1.035-.392-1.472a2.92 2.92 0 0 0-1.04-1.048 2.7 2.7 0 0 0-1.424-.392c-.522 0-.978.131-1.368.392a2.63 2.63 0 0 0-.896 1.056c-.208.443-.312.931-.312 1.464 0 .539.104 1.029.312 1.472.214.437.515.787.904 1.048s.843.384 1.36.384zm5.333-1.936V141h1.344v4.664a2.11 2.11 0 0 0 .296 1.104 2.24 2.24 0 0 0 .792.792c.336.192.704.288 1.104.288s.77-.096 1.096-.288a2.26 2.26 0 0 0 .792-.792c.197-.331.296-.699.296-1.104V141h1.344l.008 8h-1.344l-.008-1.016a3.14 3.14 0 0 1-1.072.896c-.432.219-.899.328-1.4.328-.598 0-1.144-.144-1.64-.432-.491-.293-.883-.685-1.176-1.176a3.18 3.18 0 0 1-.432-1.64zm14.218-4.96h1.424l-4.376 12h-1.424l1.448-4-2.872-8h1.472l2.072 6.152 2.256-6.152zm13.696 0h1.344v8h-1.344l-.056-1.352c-.25.464-.597.84-1.04 1.128-.437.288-.96.432-1.568.432-.586 0-1.136-.109-1.648-.328a4.48 4.48 0 0 1-1.36-.92 4.37 4.37 0 0 1-.912-1.36c-.218-.512-.328-1.064-.328-1.656 0-.571.107-1.109.32-1.616a4.14 4.14 0 0 1 .888-1.328 4.17 4.17 0 0 1 1.328-.896c.502-.219 1.04-.328 1.616-.328.63 0 1.182.149 1.656.448a3.52 3.52 0 0 1 1.152 1.144l-.048-1.368zm-2.688 6.904c.528 0 .984-.128 1.368-.384a2.54 2.54 0 0 0 .896-1.056 3.32 3.32 0 0 0 .32-1.464c0-.544-.106-1.035-.32-1.472a2.54 2.54 0 0 0-.904-1.048c-.384-.261-.837-.392-1.36-.392a2.73 2.73 0 0 0-1.44.392 2.92 2.92 0 0 0-1.032 1.056c-.25.437-.376.925-.376 1.464s.131 1.029.392 1.472c.262.437.608.787 1.04 1.048.432.256.904.384 1.416.384zm15.387-1.016l1.2.648c-.363.507-.824.912-1.384 1.216a3.7 3.7 0 0 1-1.808.456c-.736 0-1.408-.189-2.016-.568s-1.085-.885-1.448-1.52c-.357-.64-.536-1.347-.536-2.12 0-.587.104-1.133.312-1.64a4.28 4.28 0 0 1 .856-1.344 4.03 4.03 0 0 1 1.28-.912 3.73 3.73 0 0 1 1.552-.328 3.7 3.7 0 0 1 1.808.456c.56.304 1.021.712 1.384 1.224l-1.2.648c-.256-.315-.56-.557-.912-.728s-.712-.256-1.08-.256c-.496 0-.947.133-1.352.4-.4.261-.717.611-.952 1.048s-.352.915-.352 1.432.117.995.352 1.432c.24.432.56.779.96 1.04a2.43 2.43 0 0 0 1.344.392 2.37 2.37 0 0 0 1.112-.272c.347-.181.64-.416.88-.704zm6.224 2.32c-.736 0-1.408-.189-2.016-.568a4.25 4.25 0 0 1-1.448-1.52c-.358-.64-.536-1.347-.536-2.12 0-.587.104-1.133.312-1.64a4.28 4.28 0 0 1 .856-1.344 4.02 4.02 0 0 1 1.28-.912c.485-.219 1.002-.328 1.552-.328.736 0 1.405.189 2.008.568a4.16 4.16 0 0 1 1.448 1.528c.362.64.544 1.349.544 2.128 0 .581-.104 1.125-.312 1.632s-.496.955-.864 1.344-.787.685-1.272.904-.998.328-1.552.328zm0-1.344a2.42 2.42 0 0 0 1.352-.392c.405-.267.722-.616.952-1.048a2.97 2.97 0 0 0 .352-1.424c0-.523-.12-1.003-.36-1.44s-.552-.787-.952-1.048-.848-.392-1.344-.392c-.502 0-.952.133-1.352.4-.4.261-.718.611-.952 1.048s-.352.915-.352 1.432c0 .533.12 1.019.36 1.456a2.81 2.81 0 0 0 .968 1.032c.405.251.848.376 1.328.376zm6.867 5.136h-1.344v-12h1.344v1.368a3.27 3.27 0 0 1 1.088-1.136c.454-.293.992-.44 1.616-.44.582 0 1.126.109 1.632.328.512.219.96.523 1.344.912a4.24 4.24 0 0 1 .904 1.336 4.07 4.07 0 0 1 .328 1.632c0 .581-.109 1.128-.328 1.64a4.31 4.31 0 0 1-.904 1.352c-.384.384-.832.685-1.344.904-.506.219-1.05.328-1.632.328-.624 0-1.162-.144-1.616-.432a3.34 3.34 0 0 1-1.088-1.144V153zm2.688-10.904c-.517 0-.97.131-1.36.392s-.69.611-.904 1.048c-.208.437-.312.925-.312 1.464 0 .533.104 1.021.312 1.464a2.63 2.63 0 0 0 .896 1.056c.39.261.846.392 1.368.392a2.74 2.74 0 0 0 1.424-.384c.432-.261.779-.611 1.04-1.048a2.85 2.85 0 0 0 .392-1.48 2.83 2.83 0 0 0-.384-1.456 2.92 2.92 0 0 0-1.032-1.056 2.73 2.73 0 0 0-1.44-.392zM279.056 141h1.424l-4.376 12h-1.424l1.448-4-2.872-8h1.472l2.072 6.152 2.256-6.152zm10.823 8h-1.36l-2.68-8h1.312l2.064 6.104 2.04-6.104h1.384l2.048 6.104 2.04-6.104h1.328l-2.68 8h-1.368l-2.072-6.16-2.056 6.16zm16.884-4.976V149h-1.344v-4.68a2.11 2.11 0 0 0-.296-1.104 2.18 2.18 0 0 0-.792-.784c-.33-.197-.698-.296-1.104-.296-.4 0-.768.099-1.104.296-.33.192-.594.453-.792.784s-.296.699-.296 1.104V149h-1.344v-12h1.344v5c.283-.373.64-.669 1.072-.888s.902-.336 1.408-.336a3.12 3.12 0 0 1 1.632.44c.496.288.888.677 1.176 1.168.294.491.44 1.037.44 1.64zm5.164 5.184c-.736 0-1.408-.189-2.016-.568s-1.085-.885-1.448-1.52c-.357-.64-.536-1.347-.536-2.12 0-.587.104-1.133.312-1.64a4.28 4.28 0 0 1 .856-1.344 4.03 4.03 0 0 1 1.28-.912 3.73 3.73 0 0 1 1.552-.328c.603 0 1.155.123 1.656.368.507.24.939.576 1.296 1.008.363.432.632.933.808 1.504s.248 1.181.2 1.832h-6.528c.064.453.213.859.448 1.216s.533.632.896.84c.368.208.776.315 1.224.32.48 0 .915-.123 1.304-.368.389-.251.704-.592.944-1.024l1.368.32a4.22 4.22 0 0 1-1.448 1.744c-.645.448-1.368.672-2.168.672zm-2.608-4.776h5.216c-.043-.448-.187-.856-.432-1.224a2.83 2.83 0 0 0-.936-.896 2.39 2.39 0 0 0-1.24-.336 2.39 2.39 0 0 0-1.232.328 2.79 2.79 0 0 0-.928.888c-.24.368-.389.781-.448 1.24zm15.188-.408V149h-1.344v-4.68c0-.405-.099-.773-.296-1.104a2.18 2.18 0 0 0-.792-.784c-.331-.197-.699-.296-1.104-.296s-.768.099-1.104.296a2.18 2.18 0 0 0-.792.784c-.197.331-.296.699-.296 1.104V149h-1.344v-8h1.344v1c.283-.373.64-.669 1.072-.888s.901-.336 1.408-.336c.597 0 1.141.147 1.632.44.496.288.888.677 1.176 1.168s.44 1.037.44 1.64zm-207.525 17.32h-1.816l-.008 6.656h-1.344l.008-6.656h-1.376V160h1.376l-.008-2.512h1.344l.008 2.512h1.816v1.344zm8.706 1.68V168h-1.344v-4.68a2.11 2.11 0 0 0-.296-1.104 2.18 2.18 0 0 0-.792-.784c-.33-.197-.698-.296-1.104-.296-.4 0-.768.099-1.104.296-.33.192-.594.453-.792.784s-.296.699-.296 1.104V168h-1.344v-12h1.344v5c.283-.373.64-.669 1.072-.888s.902-.336 1.408-.336a3.12 3.12 0 0 1 1.632.44c.496.288.888.677 1.176 1.168.294.491.44 1.037.44 1.64zm5.164 5.184c-.736 0-1.408-.189-2.016-.568s-1.085-.885-1.448-1.52c-.357-.64-.536-1.347-.536-2.12 0-.587.104-1.133.312-1.64a4.28 4.28 0 0 1 .856-1.344 4.03 4.03 0 0 1 1.28-.912 3.73 3.73 0 0 1 1.552-.328c.603 0 1.155.123 1.656.368.507.24.939.576 1.296 1.008.363.432.632.933.808 1.504.181.571.248 1.181.2 1.832h-6.528c.064.453.213.859.448 1.216s.533.632.896.84c.368.208.776.315 1.224.32.48 0 .915-.123 1.304-.368.389-.251.704-.592.944-1.024l1.368.32a4.22 4.22 0 0 1-1.448 1.744c-.645.448-1.368.672-2.168.672zm-2.608-4.776h5.216c-.043-.448-.187-.856-.432-1.224a2.83 2.83 0 0 0-.936-.896 2.39 2.39 0 0 0-1.24-.336 2.39 2.39 0 0 0-1.232.328 2.79 2.79 0 0 0-.928.888c-.24.368-.389.781-.448 1.24zm14.709 4.72a4.28 4.28 0 0 1-1.264-.24c-.405-.149-.763-.349-1.072-.6-.304-.256-.525-.549-.664-.88l1.152-.496c.08.181.224.352.432.512s.448.288.72.384a2.46 2.46 0 0 0 .824.144c.293 0 .568-.045.824-.136s.464-.224.624-.4a.93.93 0 0 0 .248-.648c0-.267-.091-.475-.272-.624-.176-.155-.4-.275-.672-.36l-.816-.256a9.18 9.18 0 0 1-1.472-.496c-.432-.197-.773-.445-1.024-.744-.245-.304-.368-.691-.368-1.16 0-.496.136-.925.408-1.288s.64-.643 1.088-.84.928-.296 1.44-.296c.645 0 1.235.139 1.768.416s.931.653 1.192 1.128l-1.08.632a1.38 1.38 0 0 0-.416-.504c-.187-.149-.4-.267-.64-.352a2.33 2.33 0 0 0-.736-.136c-.309-.011-.6.029-.872.12s-.483.229-.648.416a.99.99 0 0 0-.24.68c0 .267.085.469.256.608s.403.251.68.336l.92.28c.485.155.939.333 1.36.536s.76.456 1.016.76.389.68.384 1.128c0 .491-.147.92-.44 1.288s-.675.64-1.144.832-.963.277-1.496.256zM153.958 160h1.344v8h-1.344l-.056-1.352a3.07 3.07 0 0 1-1.04 1.128c-.438.288-.96.432-1.568.432-.587 0-1.136-.109-1.648-.328a4.47 4.47 0 0 1-1.36-.92c-.39-.395-.694-.848-.912-1.36s-.328-1.064-.328-1.656a4.11 4.11 0 0 1 .32-1.616c.213-.507.509-.949.888-1.328.384-.384.826-.683 1.328-.896a3.99 3.99 0 0 1 1.616-.328c.629 0 1.181.149 1.656.448.474.293.858.675 1.152 1.144l-.048-1.368zm-2.688 6.904c.528 0 .984-.128 1.368-.384.389-.261.688-.613.896-1.056.213-.443.32-.931.32-1.464 0-.544-.107-1.035-.32-1.472-.214-.443-.515-.792-.904-1.048-.384-.261-.838-.392-1.36-.392a2.73 2.73 0 0 0-1.44.392 2.92 2.92 0 0 0-1.032 1.056c-.251.437-.376.925-.376 1.464s.13 1.029.392 1.472c.261.437.608.787 1.04 1.048.432.256.904.384 1.416.384zm5.924 1.096v-12h1.344v12h-1.344zm6.908.208c-.736 0-1.408-.189-2.016-.568s-1.085-.885-1.448-1.52c-.357-.64-.536-1.347-.536-2.12 0-.587.104-1.133.312-1.64a4.28 4.28 0 0 1 .856-1.344 4.03 4.03 0 0 1 1.28-.912 3.73 3.73 0 0 1 1.552-.328c.603 0 1.155.123 1.656.368.507.24.939.576 1.296 1.008.363.432.632.933.808 1.504.181.571.248 1.181.2 1.832h-6.528c.064.453.213.859.448 1.216s.533.632.896.84c.368.208.776.315 1.224.32.48 0 .915-.123 1.304-.368.389-.251.704-.592.944-1.024l1.368.32a4.22 4.22 0 0 1-1.448 1.744c-.645.448-1.368.672-2.168.672zm-2.608-4.776h5.216c-.043-.448-.187-.856-.432-1.224a2.83 2.83 0 0 0-.936-.896 2.39 2.39 0 0 0-1.24-.336 2.39 2.39 0 0 0-1.232.328 2.79 2.79 0 0 0-.928.888c-.24.368-.389.781-.448 1.24zM177.323 168h-1.36l-2.68-8h1.312l2.064 6.104 2.04-6.104h1.384l2.048 6.104 2.04-6.104h1.328l-2.68 8h-1.368l-2.072-6.16-2.056 6.16zm9.671-8h1.344v8h-1.344v-8zm.688-1.304a.74.74 0 0 1-.536-.208c-.144-.139-.216-.312-.216-.52s.072-.381.216-.52a.73.73 0 0 1 .528-.208.73.73 0 0 1 .528.208c.144.139.216.312.216.52s-.072.381-.216.52c-.138.139-.312.208-.52.208zm9.803 4.328V168h-1.344v-4.68c0-.405-.099-.773-.296-1.104a2.18 2.18 0 0 0-.792-.784c-.331-.197-.699-.296-1.104-.296s-.768.099-1.104.296a2.18 2.18 0 0 0-.792.784c-.197.331-.296.699-.296 1.104V168h-1.344v-8h1.344v1c.283-.373.64-.669 1.072-.888s.901-.336 1.408-.336c.597 0 1.141.147 1.632.44.496.288.888.677 1.176 1.168.293.491.44 1.037.44 1.64zm8.084-7.024h1.344v12h-1.344v-1.36a3.25 3.25 0 0 1-1.096 1.136c-.459.288-.998.432-1.616.432-.582 0-1.126-.109-1.632-.328a4.35 4.35 0 0 1-1.344-.904c-.384-.389-.686-.837-.904-1.344a4.07 4.07 0 0 1-.328-1.632 4.07 4.07 0 0 1 .328-1.632 4.22 4.22 0 0 1 .904-1.344 4.29 4.29 0 0 1 1.344-.912c.506-.219 1.05-.328 1.632-.328.618 0 1.157.144 1.616.432a3.25 3.25 0 0 1 1.096 1.136V156zm-2.696 10.904c.528 0 .984-.128 1.368-.384.389-.261.688-.613.896-1.056s.32-.931.32-1.464c0-.544-.107-1.035-.32-1.472-.214-.443-.515-.792-.904-1.048s-.838-.392-1.36-.392a2.73 2.73 0 0 0-1.44.392c-.427.261-.768.613-1.024 1.056-.256.437-.384.925-.384 1.464s.13 1.029.392 1.472c.261.437.608.787 1.04 1.048.432.256.904.384 1.416.384zm9.601 1.304c-.736 0-1.408-.189-2.016-.568a4.25 4.25 0 0 1-1.448-1.52c-.358-.64-.536-1.347-.536-2.12 0-.587.104-1.133.312-1.64a4.28 4.28 0 0 1 .856-1.344 4.02 4.02 0 0 1 1.28-.912c.485-.219 1.002-.328 1.552-.328.736 0 1.405.189 2.008.568a4.16 4.16 0 0 1 1.448 1.528c.362.64.544 1.349.544 2.128 0 .581-.104 1.125-.312 1.632s-.496.955-.864 1.344-.787.685-1.272.904-.998.328-1.552.328zm0-1.344a2.42 2.42 0 0 0 1.352-.392c.405-.267.722-.616.952-1.048a2.97 2.97 0 0 0 .352-1.424c0-.523-.12-1.003-.36-1.44s-.552-.787-.952-1.048-.848-.392-1.344-.392c-.502 0-.952.133-1.352.4-.4.261-.718.611-.952 1.048s-.352.915-.352 1.432c0 .533.12 1.019.36 1.456a2.81 2.81 0 0 0 .968 1.032c.405.251.848.376 1.328.376zm8.74 1.136h-1.36l-2.68-8h1.312l2.064 6.104 2.04-6.104h1.384l2.048 6.104 2.04-6.104h1.328l-2.68 8h-1.368l-2.072-6.16-2.056 6.16zm13.855-8h1.344v8h-1.344v-8zm.688-1.304a.74.74 0 0 1-.536-.208c-.144-.139-.216-.312-.216-.52s.072-.381.216-.52a.73.73 0 0 1 .528-.208.73.73 0 0 1 .528.208c.144.139.216.312.216.52s-.072.381-.216.52c-.138.139-.312.208-.52.208zm5.14 9.456a4.28 4.28 0 0 1-1.264-.24c-.405-.149-.763-.349-1.072-.6-.304-.256-.525-.549-.664-.88l1.152-.496c.08.181.224.352.432.512s.448.288.72.384a2.46 2.46 0 0 0 .824.144c.293 0 .568-.045.824-.136s.464-.224.624-.4a.93.93 0 0 0 .248-.648c0-.267-.091-.475-.272-.624-.176-.155-.4-.275-.672-.36l-.816-.256a9.18 9.18 0 0 1-1.472-.496c-.432-.197-.773-.445-1.024-.744-.245-.304-.368-.691-.368-1.16 0-.496.136-.925.408-1.288.277-.363.64-.643 1.088-.84s.928-.296 1.44-.296c.645 0 1.235.139 1.768.416s.931.653 1.192 1.128l-1.08.632a1.38 1.38 0 0 0-.416-.504c-.187-.149-.4-.267-.64-.352a2.33 2.33 0 0 0-.736-.136c-.309-.011-.6.029-.872.12s-.483.229-.648.416a.99.99 0 0 0-.24.68c0 .267.085.469.256.608.176.139.403.251.68.336l.92.28c.485.155.939.333 1.36.536s.76.456 1.016.76c.261.304.389.68.384 1.128 0 .491-.147.92-.44 1.288s-.675.64-1.144.832-.963.277-1.496.256zm12.214.056c-.736 0-1.408-.189-2.016-.568-.602-.379-1.085-.885-1.448-1.52-.357-.64-.536-1.347-.536-2.12 0-.587.104-1.133.312-1.64.208-.512.494-.96.856-1.344a4.03 4.03 0 0 1 1.28-.912c.486-.219 1.003-.328 1.552-.328.736 0 1.406.189 2.008.568a4.15 4.15 0 0 1 1.448 1.528c.363.64.544 1.349.544 2.128 0 .581-.104 1.125-.312 1.632s-.496.955-.864 1.344c-.362.384-.786.685-1.272.904-.48.219-.997.328-1.552.328zm0-1.344c.502 0 .952-.131 1.352-.392.406-.267.723-.616.952-1.048a2.96 2.96 0 0 0 .352-1.424c0-.523-.12-1.003-.36-1.44-.234-.437-.552-.787-.952-1.048s-.848-.392-1.344-.392a2.38 2.38 0 0 0-1.352.4c-.4.261-.717.611-.952 1.048s-.352.915-.352 1.432c0 .533.12 1.019.36 1.456s.563.776.968 1.032.848.376 1.328.376zm6.868 5.136h-1.344v-12h1.344v1.368a3.27 3.27 0 0 1 1.088-1.136c.453-.293.992-.44 1.616-.44a4.07 4.07 0 0 1 1.632.328c.512.219.96.523 1.344.912.384.384.685.829.904 1.336a4.07 4.07 0 0 1 .328 1.632c0 .581-.109 1.128-.328 1.64a4.33 4.33 0 0 1-.904 1.352c-.384.384-.832.685-1.344.904a4.07 4.07 0 0 1-1.632.328c-.624 0-1.163-.144-1.616-.432a3.34 3.34 0 0 1-1.088-1.144V172zm2.688-10.904c-.517 0-.971.131-1.36.392a2.62 2.62 0 0 0-.904 1.048c-.208.437-.312.925-.312 1.464 0 .533.104 1.021.312 1.464s.512.795.896 1.056c.389.261.845.392 1.368.392.517 0 .992-.128 1.424-.384s.779-.611 1.04-1.048a2.86 2.86 0 0 0 .392-1.48 2.83 2.83 0 0 0-.384-1.456 2.92 2.92 0 0 0-1.032-1.056 2.73 2.73 0 0 0-1.44-.392zm9.235 7.112c-.736 0-1.408-.189-2.016-.568s-1.085-.885-1.448-1.52c-.357-.64-.536-1.347-.536-2.12 0-.587.104-1.133.312-1.64a4.28 4.28 0 0 1 .856-1.344 4.03 4.03 0 0 1 1.28-.912 3.73 3.73 0 0 1 1.552-.328c.603 0 1.155.123 1.656.368.507.24.939.576 1.296 1.008.363.432.632.933.808 1.504.181.571.248 1.181.2 1.832h-6.528c.064.453.213.859.448 1.216s.533.632.896.84.776.315 1.224.32c.48 0 .915-.123 1.304-.368.389-.251.704-.592.944-1.024l1.368.32a4.22 4.22 0 0 1-1.448 1.744c-.645.448-1.368.672-2.168.672zm-2.608-4.776h5.216c-.043-.448-.187-.856-.432-1.224a2.83 2.83 0 0 0-.936-.896 2.39 2.39 0 0 0-1.24-.336 2.39 2.39 0 0 0-1.232.328 2.79 2.79 0 0 0-.928.888c-.24.368-.389.781-.448 1.24zm15.188-.408V168h-1.344v-4.68c0-.405-.099-.773-.296-1.104a2.18 2.18 0 0 0-.792-.784c-.331-.197-.699-.296-1.104-.296s-.768.099-1.104.296a2.18 2.18 0 0 0-.792.784c-.197.331-.296.699-.296 1.104V168h-1.344v-8h1.344v1c.283-.373.64-.669 1.072-.888s.901-.336 1.408-.336c.597 0 1.141.147 1.632.44.496.288.888.677 1.176 1.168.293.491.44 1.037.44 1.64z" fill="#ebedf3"/><path d="M191.76 79.367c-.575-.574-.925-1.354-.925-2.229a3.16 3.16 0 0 1 3.164-3.166c.867 0 1.665.351 2.23.925m.876 2.802a3.16 3.16 0 0 1-2.537 2.542m-5.913 2.231c-1.587-1.246-2.931-3.066-3.905-5.335.984-2.279 2.337-4.109 3.934-5.365 1.587-1.256 3.418-1.938 5.316-1.938 1.909 0 3.739.692 5.336 1.957m2.112 2.2c.688.914 1.293 1.969 1.802 3.146-1.967 4.557-5.443 7.302-9.25 7.302a7.98 7.98 0 0 1-2.532-.413m10.419-14.776l-15.774 15.774" stroke-width="1.5" stroke="#fff" stroke-linecap="round" stroke-linejoin="round"/><defs><clipPath id="A"><path fill="#fff" transform="translate(17 40)" d="M0 0h347v149H0z"/></clipPath></defs></svg>