<svg width="294" height="128" viewBox="0 0 294 128" fill="none" xmlns="http://www.w3.org/2000/svg">
<g opacity="0.1" clip-path="url(#clip0_1308_8150)">
<path d="M130.823 117.3C131.127 117.601 131.533 117.769 131.956 117.768H132.209C145.755 115.578 159.119 112.324 172.181 108.034C172.522 107.92 172.817 107.694 173.021 107.389C173.233 107.088 173.337 106.721 173.314 106.35C172.757 93.974 171.217 81.6659 168.711 69.5479C168.663 69.3176 168.566 69.101 168.428 68.9135C168.292 68.7266 168.119 68.5708 167.922 68.4559C167.722 68.341 167.5 68.2706 167.272 68.2491C167.044 68.2276 166.813 68.2555 166.596 68.3312C165.777 69.787 164.967 71.2221 164.128 72.6571L165.979 72.0332C168.11 82.9644 169.463 94.0409 170.026 105.174C158.19 108.996 146.107 111.96 133.868 114.045C134.799 106.766 135.588 98.6232 136.225 89.7945L132.967 89.5969C132.279 99.2575 131.399 108.065 130.347 115.823C130.318 116.082 130.346 116.345 130.428 116.592C130.508 116.855 130.642 117.096 130.823 117.3Z" fill="#8B8FA2"/>
<path d="M193.124 60.1264C192.908 60.0416 192.677 60.0026 192.446 60.012C192.216 60.0212 191.991 60.0852 191.789 60.1992C185.953 63.1537 179.823 65.4513 173.507 67.0521C173.299 67.0951 173.102 67.1838 172.93 67.312C172.58 67.5744 172.341 67.9653 172.263 68.4039C172.228 68.6173 172.228 68.8353 172.263 69.0486C173.143 73.0106 175.298 84.3662 176.451 104.301C176.465 104.557 176.537 104.807 176.664 105.029C176.785 105.256 176.959 105.449 177.17 105.59C177.378 105.736 177.617 105.829 177.868 105.861C178.116 105.893 178.368 105.869 178.606 105.788C187.246 102.72 195.937 99.1639 204.445 95.2019C204.817 95.0259 205.112 94.7148 205.275 94.3284C205.426 93.9377 205.426 93.5023 205.275 93.1117L194.024 61.0727C193.941 60.8474 193.814 60.6421 193.65 60.4695C193.497 60.3222 193.319 60.2059 193.124 60.1264ZM179.567 101.94C179.028 91.2043 177.764 80.5197 175.783 69.9637C181.233 68.4835 186.537 66.4852 191.627 63.9948L201.744 92.8102C194.429 96.1898 186.983 99.247 179.567 101.94Z" fill="#8B8FA2"/>
<path d="M78.438 90.6264C78.5574 90.8746 78.7304 91.0917 78.9438 91.2608C79.1634 91.4269 79.4216 91.5309 79.6925 91.5623C90.7385 93.0574 101.866 93.8216 113.008 93.8501C117.884 93.8501 122.933 93.6941 128.062 93.2989C128.451 93.2743 128.818 93.1043 129.094 92.8208C129.37 92.5373 129.535 92.16 129.559 91.7599C129.62 90.9696 129.681 90.2001 129.741 89.4306C128.659 89.3578 127.576 89.2849 126.484 89.1913L126.423 90.0649C111.787 90.9363 97.104 90.4386 82.5556 88.5778C83.7798 86.4981 84.7611 84.751 85.3985 83.5656C84.2755 83.3472 83.1424 83.1496 82.0194 82.9C81.1595 84.4391 79.9454 86.5604 78.4785 89.0146C78.3362 89.2559 78.256 89.5305 78.2454 89.8125C78.2347 90.0944 78.2941 90.3745 78.4178 90.6264H78.438Z" fill="#8B8FA2"/>
<path d="M127.272 96.6994C122.618 97.0321 117.762 97.2089 112.835 97.2089C100.629 97.1891 88.4409 96.2716 76.3629 94.4636C76.0508 94.4106 75.7304 94.4541 75.4423 94.5884C75.1558 94.7226 74.9134 94.9394 74.7442 95.2123C73.2166 97.6457 71.871 100.152 70.5558 102.585C68.239 106.911 66.0335 110.987 63.1097 114.273C62.9193 114.492 62.7869 114.757 62.7252 115.043C62.6489 115.325 62.6489 115.624 62.7252 115.906C62.8131 116.185 62.97 116.436 63.1805 116.634C63.3915 116.832 63.6499 116.968 63.9291 117.029C64.1113 117.029 77.4252 119.92 99.7636 119.92C107.311 119.92 115.9 119.587 125.349 118.724C125.727 118.699 126.084 118.541 126.361 118.277C126.632 118.02 126.807 117.675 126.857 117.3C127.666 111.632 128.385 105.31 128.992 98.5088C129.018 98.2676 128.991 98.0233 128.912 97.7946C128.833 97.5658 128.705 97.3584 128.536 97.1881C128.373 97.0111 128.172 96.8757 127.95 96.7929C127.73 96.7065 127.496 96.671 127.262 96.689L127.272 96.6994ZM123.832 115.532C94.8265 118.069 74.4104 115.438 67.3588 114.273C69.6231 111.074 71.6521 107.706 73.429 104.197C74.5419 102.117 75.6952 100.037 76.9396 97.9576C88.8358 99.6726 100.832 100.548 112.845 100.578C117.175 100.578 121.454 100.443 125.592 100.193C125.046 105.653 124.459 110.811 123.832 115.532Z" fill="#8B8FA2"/>
<path d="M103.74 49.3739C103.811 49.6245 103.935 49.8555 104.104 50.0499C104.276 50.2401 104.487 50.3891 104.721 50.4866C135.224 62.6325 150.248 63.61 158.341 64.13H158.443C158.751 64.1302 159.053 64.04 159.313 63.87C159.576 63.6976 159.786 63.4525 159.92 63.1629C163.572 55.0725 165.363 50.861 165.373 50.8194C165.474 50.5875 165.522 50.335 165.514 50.081C165.505 49.8252 165.436 49.5755 165.312 49.3531C165.196 49.132 165.034 48.9402 164.837 48.7916C164.634 48.644 164.403 48.5445 164.159 48.5004C149.388 45.7759 136.175 41.0548 124.571 36.8953C121.354 35.741 118.309 34.6595 115.284 33.6196C114.941 33.504 114.571 33.5075 114.231 33.6297C113.891 33.7519 113.6 33.9859 113.402 34.2955C111.51 37.3216 108.343 42.1363 104.003 47.9389C103.853 48.1492 103.75 48.3905 103.7 48.646C103.663 48.8889 103.677 49.1369 103.74 49.3739ZM115.466 37.1656C118.086 38.0703 120.747 39.0166 123.559 40.0149C134.779 44.0289 147.425 48.5732 161.619 51.4537C160.81 53.2839 159.454 56.414 157.482 60.8127C149.53 60.272 135.315 58.9409 107.908 48.2508C111.206 43.7689 113.736 39.9317 115.476 37.2384L115.466 37.1656Z" fill="#8B8FA2"/>
<path d="M121.241 60.1472C121.149 59.9164 121.007 59.7102 120.826 59.5441C120.645 59.3776 120.431 59.2534 120.199 59.1801C111.316 56.466 104.235 53.8871 101.594 52.9408C101.278 52.8233 100.934 52.8091 100.61 52.9003C100.286 52.9916 99.9968 53.1837 99.783 53.4503C94.5143 60.0714 88.8514 66.3505 82.8269 72.2515C82.6149 72.463 82.4613 72.7286 82.3818 73.021C82.3021 73.3146 82.3024 73.6251 82.3827 73.9185C82.463 74.2119 82.6202 74.477 82.837 74.6849C83.0528 74.8913 83.3183 75.0348 83.6059 75.1008C91.9019 76.9206 100.198 78.4597 108.261 79.666H108.494C108.728 79.6663 108.96 79.613 109.172 79.5099C109.378 79.4047 109.564 79.26 109.718 79.0836C114.069 73.6465 117.898 67.7888 121.15 61.5927C121.263 61.3733 121.332 61.1328 121.352 60.8855C121.373 60.6338 121.335 60.3806 121.241 60.1472ZM107.846 76.2031C101.108 75.1632 94.2085 73.9153 87.2885 72.4387C92.3161 67.3614 97.0842 62.0196 101.574 56.4348C104.538 57.5267 110.274 59.5545 117.336 61.7694C114.579 66.8498 111.404 71.6786 107.846 76.2031Z" fill="#8B8FA2"/>
<path d="M156.157 66.2618C147.82 65.3779 136.934 63.9948 126.585 61.0623C126.229 60.9659 125.851 60.9955 125.514 61.1464C125.176 61.2973 124.897 61.5608 124.723 61.8942C121.821 67.5269 118.492 72.9163 114.768 78.0125C114.597 78.2513 114.485 78.53 114.444 78.8237C114.406 79.1164 114.444 79.4145 114.556 79.6868C114.668 79.957 114.846 80.1932 115.072 80.3731C115.304 80.5463 115.576 80.657 115.861 80.6954C125.789 82.0242 135.785 82.743 145.797 82.848C147.304 82.848 148.144 82.848 148.265 82.848C148.482 82.8382 148.695 82.7852 148.893 82.692C149.089 82.6022 149.265 82.4712 149.409 82.3073C152.029 79.3852 153.971 75.5064 155.691 72.0955C156.288 70.9205 156.845 69.8078 157.401 68.7575C157.53 68.5143 157.602 68.2439 157.613 67.9672C157.614 67.6893 157.552 67.4151 157.431 67.1665C157.304 66.9232 157.124 66.7133 156.905 66.553C156.681 66.399 156.425 66.3027 156.157 66.2722V66.2618ZM152.808 70.5254C151.346 73.702 149.555 76.7073 147.466 79.4892C137.96 79.4964 128.462 78.9026 119.027 77.711C121.919 73.5122 124.571 69.1442 126.969 64.6291C135.646 66.8625 144.472 68.4302 153.374 69.3191L152.808 70.5254Z" fill="#8B8FA2"/>
<path d="M255.657 37.3632C255.303 35.5018 254.878 33.63 254.372 31.7998C254.293 31.4973 254.119 31.2303 253.877 31.0407C253.637 30.8463 253.342 30.7369 253.037 30.7287C236.354 30.3855 226.429 33.9107 226.014 34.0771C225.684 34.1895 225.409 34.4277 225.245 34.7427C225.072 35.0584 225.018 35.4285 225.094 35.7826C225.343 36.9157 225.472 38.0733 225.478 39.235C225.475 39.5411 225.53 39.8448 225.64 40.1293C225.87 40.6987 226.31 41.1512 226.864 41.3876C227.137 41.503 227.429 41.563 227.724 41.5643C227.849 41.5746 227.974 41.5746 228.098 41.5643C236.812 40.0854 245.645 39.476 254.473 39.7445C254.712 39.7637 254.95 39.7133 255.161 39.5989C255.374 39.493 255.555 39.3317 255.687 39.131C255.825 38.9349 255.912 38.7058 255.94 38.4655C255.972 38.2222 255.94 37.9748 255.849 37.748C255.8 37.6124 255.736 37.4832 255.657 37.3632ZM228.341 38.5383C228.31 37.8418 228.242 37.1476 228.139 36.4585C235.907 34.3818 243.92 33.4332 251.944 33.6404C252.207 34.6803 252.45 35.7202 252.652 36.7601C244.504 36.6219 236.359 37.2169 228.311 38.5383H228.341Z" fill="#8B8FA2"/>
<path d="M225.802 31.5606C228.21 30.7703 237.123 28.1706 251.196 28.1706H251.277C251.487 28.1655 251.693 28.1159 251.884 28.025C252.075 27.9327 252.245 27.7978 252.379 27.6299C252.508 27.457 252.601 27.2588 252.653 27.0476C252.703 26.8358 252.703 26.6145 252.653 26.4028C252.169 24.5647 251.469 22.7943 250.568 21.1306C250.376 20.7146 250.133 20.2467 250.063 20.0907C249.992 19.7427 249.802 19.4325 249.526 19.2172C249.256 19.0019 248.917 18.8981 248.575 18.926C239.903 19.5381 231.307 20.9865 222.898 23.2519C222.699 23.3146 222.513 23.417 222.352 23.5535C222.118 23.7597 221.956 24.039 221.89 24.3486C221.824 24.6583 221.859 24.9816 221.988 25.2693C222.75 27.0216 223.426 28.8125 224.011 30.6351C224.095 30.9353 224.273 31.1985 224.517 31.3839C224.765 31.5672 225.062 31.6654 225.367 31.6646C225.517 31.6568 225.664 31.6216 225.802 31.5606ZM247.766 21.8793L248.049 22.4616C248.434 23.2311 248.94 24.2606 249.334 25.2589C241.551 25.2869 233.803 26.3353 226.278 28.3786C225.964 27.4843 225.59 26.4964 225.266 25.6229C232.654 23.7444 240.179 22.4923 247.766 21.8793Z" fill="#8B8FA2"/>
<path d="M281.778 23.7407C274.879 20.361 266.087 18.6453 255.616 18.6453C255.363 18.6457 255.114 18.7061 254.887 18.822C254.669 18.9461 254.482 19.1205 254.341 19.3316C254.21 19.5398 254.137 19.7806 254.129 20.0283C254.111 20.2752 254.156 20.5224 254.26 20.7458C256.338 26.5499 258.048 32.4862 259.379 38.5175C259.338 38.8449 259.402 39.1771 259.562 39.4638C259.689 39.6817 259.871 39.861 260.088 39.9838C260.3 40.1084 260.541 40.173 260.786 40.171C275.223 40.2542 284.126 43.7378 284.217 43.769C284.38 43.8404 284.555 43.8759 284.733 43.873C285.001 43.8706 285.264 43.7914 285.491 43.6442C285.68 43.5195 285.84 43.3524 285.957 43.1555C286.066 42.9539 286.132 42.7304 286.149 42.5003C286.626 36.1817 285.319 29.8557 282.385 24.2814C282.236 24.0463 282.026 23.8589 281.778 23.7407ZM262.05 37.2592C261.808 35.9386 261.231 33.7029 260.138 29.7721C259.379 27.0996 258.398 23.8239 257.639 21.5778C266.573 21.7857 274.16 23.3248 280.16 26.1741C282.317 30.5854 283.416 35.4629 283.367 40.3997C276.438 38.3434 269.262 37.2968 262.05 37.2905V37.2592Z" fill="#8B8FA2"/>
<path d="M194.338 56.1644C193.124 56.7884 191.869 57.3706 190.625 57.9218C188.136 59.0241 185.627 60.0016 183.098 60.9271C180.569 61.8526 178.04 62.6741 175.48 63.4748L171.646 64.6187L167.993 65.6586C167.518 66.5633 167.032 67.468 166.547 68.3623C166.764 68.2831 166.995 68.2546 167.224 68.2791C167.453 68.2973 167.674 68.3684 167.872 68.4871C168.071 68.5993 168.244 68.7556 168.378 68.9447C168.516 69.1321 168.613 69.3487 168.661 69.579C171.167 81.697 172.707 94.0051 173.264 106.381C173.283 106.747 173.183 107.109 172.98 107.41C172.776 107.711 172.481 107.934 172.141 108.044C159.079 112.338 145.716 115.596 132.169 117.788H131.916C131.489 117.79 131.078 117.618 130.773 117.31C130.591 117.128 130.455 116.903 130.378 116.655C130.294 116.408 130.27 116.144 130.308 115.885C131.319 108.138 132.24 99.3198 132.938 89.6697L131.076 89.5553L129.69 89.4513C129.63 90.2208 129.579 90.9903 129.518 91.7807C129.482 92.1734 129.314 92.5409 129.043 92.8205C128.771 93.098 128.413 93.2674 128.031 93.2989C122.902 93.694 117.833 93.85 112.967 93.85C101.826 93.8212 90.6977 93.057 79.6517 91.5623C79.3894 91.5212 79.1401 91.418 78.9233 91.2607C78.7071 91.0975 78.5331 90.8823 78.4167 90.6339C78.3003 90.3855 78.2449 90.1115 78.2556 89.836C78.2687 89.5616 78.345 89.2943 78.4781 89.0561C79.935 86.6019 81.149 84.4598 82.0191 82.9416C81.2401 82.7856 80.4611 82.64 79.6922 82.4736C77.716 85.8082 75.6926 89.115 73.622 92.3942C71.3356 95.9922 68.9749 99.5521 66.5401 103.074C64.1019 106.589 61.6131 110.062 59.013 113.473C57.5157 115.397 55.9779 117.289 54.4199 119.171C56.0488 119.462 57.6776 119.733 59.3267 119.982C62.7462 120.482 66.1759 120.918 69.6156 121.272C76.4952 121.969 83.4253 122.374 90.3555 122.52C97.2856 122.665 104.226 122.52 111.156 122.145C118.086 121.771 125.047 121.043 131.896 120.086L137.056 119.348L142.185 118.475C143.905 118.204 145.604 117.84 147.304 117.508L149.864 116.998L151.149 116.738L152.413 116.457L157.472 115.293C158.321 115.105 159.161 114.877 160.001 114.658L162.53 114.003C165.909 113.171 169.228 112.121 172.566 111.164C185.415 107.177 197.941 102.163 210.029 96.169L194.854 55.8317L194.338 56.1644ZM126.868 117.32C126.816 117.692 126.64 118.033 126.372 118.287C126.096 118.554 125.739 118.716 125.36 118.745C115.911 119.608 107.332 119.93 99.7643 119.93C77.426 119.93 64.1221 117.092 63.94 117.05C63.6608 116.989 63.4024 116.852 63.1913 116.655C62.9775 116.46 62.82 116.208 62.7361 115.927C62.6603 115.644 62.6603 115.346 62.7361 115.064C62.7955 114.777 62.9282 114.511 63.1205 114.294C66.0444 110.987 68.2397 106.911 70.5666 102.606C71.8819 100.173 73.2274 97.656 74.745 95.233C74.9171 94.9598 75.1625 94.7438 75.4516 94.6109C75.7406 94.478 76.061 94.4341 76.3738 94.4843C88.4529 96.2803 100.641 97.1907 112.846 97.2089C117.773 97.2089 122.629 97.0425 127.283 96.7097C127.516 96.6924 127.751 96.7279 127.971 96.8137C128.195 96.9024 128.397 97.0419 128.562 97.222C128.726 97.402 128.849 97.6179 128.921 97.8536C129.002 98.0796 129.033 98.321 129.013 98.5607C128.395 105.32 127.677 111.643 126.868 117.32ZM204.465 95.2434C195.947 99.2054 187.266 102.762 178.616 105.83C178.379 105.911 178.126 105.936 177.878 105.902C177.631 105.87 177.395 105.778 177.19 105.632C176.978 105.487 176.802 105.295 176.674 105.07C176.55 104.848 176.481 104.598 176.471 104.342C175.338 84.4078 173.163 73.0522 172.283 69.0903C172.243 68.8774 172.243 68.6584 172.283 68.4455C172.316 68.2276 172.392 68.0188 172.506 67.832C172.62 67.6462 172.768 67.484 172.941 67.3536C173.113 67.2272 173.31 67.1388 173.517 67.0936C179.843 65.483 185.979 63.1713 191.819 60.1992C192.025 60.0864 192.253 60.0225 192.487 60.012C192.718 60.0034 192.948 60.0424 193.164 60.1264C193.377 60.2123 193.571 60.3434 193.731 60.5112C193.892 60.6841 194.016 60.8894 194.095 61.1143L205.345 93.1533C205.492 93.5448 205.492 93.9784 205.345 94.37C205.169 94.7645 204.855 95.0764 204.465 95.2434Z" fill="white"/>
<path d="M85.4389 83.5863C84.7813 84.751 83.8101 86.4771 82.5859 88.5985C97.1277 90.4573 111.804 90.9551 126.433 90.0856C126.433 89.7944 126.484 89.5032 126.504 89.2121C121.708 88.8169 116.92 88.3316 112.138 87.7562C103.208 86.6886 94.3082 85.2987 85.4389 83.5863Z" fill="white"/>
<path d="M76.9304 97.9264C75.686 100.006 74.5428 102.086 73.4198 104.166C71.6393 107.673 69.6104 111.041 67.3496 114.242C74.4315 115.407 94.8072 118.038 123.823 115.501C124.46 110.779 125.037 105.622 125.573 100.131C121.435 100.391 117.156 100.516 112.826 100.516C100.817 100.5 88.8235 99.6352 76.9304 97.9264Z" fill="white"/>
<path d="M159.768 79.5828C158.544 81.3922 157.239 83.1704 155.853 84.8862C154.468 86.6406 152.949 88.2784 151.31 89.7841C151.035 90.0475 150.675 90.1959 150.299 90.2001H150.238C146.991 90.2001 143.844 90.2001 140.657 90.0233C139.18 89.9713 137.703 89.8985 136.236 89.8257C135.599 98.6544 134.81 106.797 133.879 114.076C146.119 111.988 158.201 109.02 170.037 105.195C169.452 94.0695 168.072 83.0031 165.909 72.0852L164.068 72.7091C163.805 73.1563 163.552 73.6034 163.279 74.0505C162.156 75.9223 160.992 77.7942 159.768 79.5828Z" fill="white"/>
<path d="M175.793 69.9638C177.773 80.5197 179.037 91.2043 179.577 101.94C186.992 99.2471 194.439 96.1898 201.753 92.8309L191.636 64.0156C186.547 66.5005 181.243 68.4918 175.793 69.9638Z" fill="white"/>
<path d="M288.942 36.209C288.719 33.4893 288.176 30.8075 287.323 28.2226C286.522 25.7858 285.294 23.5199 283.701 21.5361L283.044 21.2554C282.71 21.1098 282.376 20.985 282.032 20.829C281.354 20.569 280.677 20.3195 280.009 20.0907C278.633 19.6227 277.237 19.2068 275.82 18.8324C272.996 18.091 270.136 17.5044 267.251 17.075C261.467 16.2229 255.616 15.9409 249.779 16.2327C249.051 16.2327 248.322 16.3263 247.594 16.3679C246.865 16.4095 246.137 16.4718 245.409 16.555L243.233 16.7734L241.068 17.0646C240.34 17.1582 239.622 17.2726 238.903 17.3973L236.738 17.7717L234.594 18.1877L233.521 18.406L232.459 18.6556C227.631 19.7825 222.879 21.231 218.234 22.992L218.447 23.5847C218.821 24.6246 219.175 25.758 219.519 26.8603C220.187 29.0545 220.774 31.2903 221.269 33.5469C221.769 35.8242 222.137 38.1298 222.372 40.4517C222.484 41.6164 222.554 42.7915 222.575 43.9873V44.9024L224.598 44.5905C226.095 44.3617 227.633 44.1537 229.1 43.9665C232.135 43.5921 235.11 43.2802 238.135 43.041C244.205 42.5522 250.214 42.2923 256.295 42.4067C262.411 42.487 268.512 43.0783 274.535 44.1745C277.624 44.736 280.667 45.5319 283.641 46.5558C285.37 47.1702 287.059 47.8962 288.699 48.7292V48.6772C288.881 47.3046 289.003 45.9111 289.104 44.5177C289.27 41.7482 289.216 38.9694 288.942 36.209ZM224.001 30.6559C223.556 29.1689 222.534 26.4964 221.978 25.2901C221.894 25.0988 221.851 24.8915 221.851 24.6818C221.851 24.4721 221.894 24.2648 221.978 24.0734C222.064 23.88 222.192 23.7094 222.352 23.5743C222.508 23.4359 222.691 23.3332 222.888 23.2727C231.301 21.0141 239.901 19.5727 248.575 18.9676C248.918 18.9429 249.259 19.0475 249.532 19.2618C249.806 19.4762 249.994 19.7856 250.062 20.1323C250.133 20.3194 250.376 20.8082 250.568 21.1721C251.469 22.8359 252.169 24.6064 252.652 26.4444C252.703 26.6562 252.703 26.8774 252.652 27.0891C252.603 27.3011 252.51 27.4998 252.379 27.6715C252.245 27.8394 252.075 27.9743 251.884 28.0666C251.693 28.1575 251.486 28.2071 251.276 28.2122H251.196C237.123 28.2122 228.21 30.8119 225.802 31.6022C225.662 31.6525 225.515 31.6771 225.367 31.675C225.06 31.6786 224.76 31.5789 224.514 31.3912C224.267 31.2034 224.087 30.9379 224.001 30.6351V30.6559ZM255.688 39.1414C255.555 39.3421 255.374 39.5035 255.161 39.6094C254.95 39.7237 254.712 39.7742 254.473 39.755C245.649 39.4885 236.82 40.0944 228.109 41.5644H227.744C227.446 41.5641 227.15 41.5041 226.874 41.3876C226.603 41.2694 226.356 41.1001 226.146 40.8885C225.936 40.6712 225.771 40.413 225.66 40.1293C225.547 39.8455 225.489 39.5418 225.488 39.235C225.49 38.0734 225.364 36.9153 225.114 35.7826C225.04 35.4296 225.09 35.0613 225.256 34.7427C225.425 34.4323 225.698 34.1958 226.024 34.0771C226.429 33.9212 236.374 30.396 253.047 30.7391C253.35 30.7434 253.643 30.8464 253.885 31.0333C254.127 31.2203 254.305 31.4814 254.393 31.779C254.888 33.6092 255.323 35.481 255.667 37.3424C255.736 37.4501 255.794 37.5652 255.839 37.6856C255.933 37.9118 255.967 38.159 255.94 38.4031C255.915 38.6503 255.827 38.8866 255.688 39.0894V39.1414ZM286.16 42.5523C286.147 42.7832 286.081 43.0078 285.968 43.2074C285.853 43.4065 285.693 43.5741 285.502 43.6961C285.276 43.8449 285.012 43.9243 284.744 43.9249C284.566 43.9278 284.391 43.8923 284.228 43.8209C284.137 43.8209 275.234 40.3061 260.797 40.2229C260.552 40.224 260.311 40.1595 260.099 40.0358C259.848 39.8958 259.646 39.68 259.519 39.4176C259.392 39.1553 259.347 38.8591 259.39 38.5695C259.218 36.7289 255.465 23.3351 254.271 20.7978C254.167 20.5747 254.121 20.3272 254.14 20.0803C254.148 19.8326 254.221 19.5918 254.352 19.3835C254.496 19.1748 254.682 19.0009 254.898 18.874C255.125 18.7581 255.374 18.6976 255.627 18.6972C266.098 18.6972 274.91 20.4131 281.799 23.7927C282.04 23.9176 282.246 24.1037 282.396 24.3334C285.303 29.8991 286.608 36.2002 286.16 42.5003V42.5523Z" fill="white"/>
<path d="M249.334 25.2589C248.929 24.219 248.434 23.2311 248.049 22.4616L247.766 21.8793C240.159 22.4855 232.613 23.7342 225.205 25.6125C225.549 26.486 225.923 27.4739 226.217 28.3682C233.761 26.3178 241.531 25.2728 249.334 25.2589Z" fill="white"/>
<path d="M257.639 21.5985C258.397 23.8343 259.379 27.1099 260.127 29.7824C261.25 33.7236 261.807 35.949 262.05 37.2697C269.261 37.3028 276.433 38.3525 283.366 40.3893C283.414 35.4559 282.315 30.5821 280.159 26.1741C274.16 23.3767 266.592 21.7961 257.639 21.5985Z" fill="white"/>
<path d="M228.107 36.4481C228.211 37.1372 228.278 37.8314 228.31 38.5279C236.338 37.2153 244.462 36.6203 252.591 36.7496C252.388 35.7098 252.145 34.6699 251.882 33.63C243.869 33.4471 235.87 34.3954 228.107 36.4481Z" fill="white"/>
<path d="M171.039 45.8904L169.116 45.5784L167.194 45.2249L163.35 44.5177L159.526 43.717C156.976 43.2075 154.467 42.5732 151.907 41.9908L148.134 41.0341L146.232 40.5558L144.36 40.0358L140.597 38.9959L136.853 37.8936C135.599 37.5297 134.365 37.1345 133.12 36.7497C131.876 36.365 130.631 35.9698 129.407 35.5642C124.46 33.942 119.553 32.195 114.687 30.3648C110.06 28.597 105.474 26.7356 100.928 24.7806C100.497 25.7893 100.011 26.7718 99.471 27.7235C102.493 28.9298 105.666 30.143 108.991 31.3631C109.224 31.4494 109.435 31.5879 109.608 31.7687C109.782 31.9505 109.913 32.1703 109.992 32.4117C110.07 32.653 110.095 32.9096 110.064 33.1621C110.032 33.4129 109.942 33.6522 109.8 33.8589C100.553 48.1715 89.6512 61.2795 77.335 72.8963C77.1402 73.0789 76.9035 73.2077 76.6471 73.2706C76.395 73.338 76.1303 73.338 75.8782 73.2706C58.3555 69.0383 40.1247 61.4991 19.051 52.7641L16.1171 51.5474C15.8949 51.4532 15.6949 51.3114 15.5303 51.1314C15.3687 50.953 15.2477 50.7399 15.1762 50.5075C15.0979 50.2738 15.0737 50.0246 15.1054 49.7796C15.1387 49.5358 15.2214 49.302 15.3482 49.0932C16.026 48.0533 32.0109 22.8152 58.2139 8.22557C58.4731 8.08799 58.762 8.02002 59.0536 8.02799C59.3408 8.04113 59.6197 8.13071 59.863 8.28796C59.9642 8.35035 90.4467 24.1463 100.948 29.3977C101.211 28.9713 102.972 26.4652 103.275 25.7685C101.322 24.7286 74.0369 11.99 72.1046 10.9501C69.8046 9.723 67.5249 8.45784 65.2655 7.15452C64.1324 6.50978 62.9993 5.85464 61.8763 5.18911L60.1968 4.14922L59.3571 3.62928L59.084 3.47327C58.6287 3.80603 58.1937 4.10759 57.7485 4.37797L55.9174 5.41785C55.2395 5.84421 54.5516 6.1874 53.894 6.61375L51.8706 7.86163C49.2503 9.57745 46.6704 11.366 44.2019 13.2898C39.236 17.156 34.5247 21.356 30.0988 25.8621C25.6604 30.365 21.4464 35.0956 17.4728 40.0358C15.4898 42.4969 13.5642 45.01 11.696 47.575C10.7652 48.8541 9.84455 50.1435 8.95425 51.4434L8.64062 51.9009C13.0516 54.0847 17.5031 56.2165 22.0456 58.1403C24.8885 59.4297 27.8427 60.584 30.7463 61.7799C32.193 62.3726 33.6701 62.9134 35.137 63.4853C36.604 64.0573 38.0609 64.6292 39.5481 65.1595L43.9894 66.7506C45.4665 67.2809 46.9638 67.7904 48.451 68.2688L50.6869 69.0279L52.9328 69.7351L57.4147 71.1077C63.4377 72.9171 69.5079 74.5878 75.6253 76.1199C87.8466 79.1252 100.199 81.5793 112.664 83.3992C118.886 84.2935 125.138 85.063 131.41 85.6454C134.533 85.9435 137.666 86.193 140.809 86.394C143.723 86.5812 146.657 86.7268 149.55 86.7892C150.825 85.4654 152.011 84.0549 153.101 82.5673C154.315 80.893 155.499 79.146 156.602 77.3678C157.704 75.5896 158.757 73.7386 159.778 71.8772C160.8 70.0158 161.802 68.1232 162.712 66.2202C164.594 62.4038 166.365 58.5146 168.034 54.5839C169.248 51.7138 170.432 48.8124 171.534 45.9112L171.039 45.8904ZM109.73 79.0524C109.581 79.2373 109.394 79.3864 109.183 79.4892C108.972 79.5825 108.746 79.6354 108.516 79.6452H108.283C100.189 78.4389 91.9237 76.8999 83.6177 75.0697C83.3302 75.0032 83.0649 74.8597 82.8488 74.6537C82.6372 74.4461 82.4835 74.184 82.4037 73.8946C82.325 73.6018 82.3249 73.2925 82.4032 72.9996C82.4816 72.7067 82.6356 72.4411 82.8488 72.2308C88.8614 66.3264 94.5077 60.04 99.7543 53.4088C99.9681 53.1422 100.257 52.95 100.581 52.8588C100.905 52.7676 101.249 52.7817 101.565 52.8992C104.206 53.9391 111.288 56.4661 120.17 59.1386C120.404 59.2075 120.619 59.3322 120.798 59.5025C120.981 59.6665 121.123 59.8734 121.212 60.1057C121.302 60.3332 121.344 60.5778 121.334 60.8232C121.318 61.0746 121.249 61.3195 121.132 61.5407C117.89 67.7428 114.072 73.6074 109.73 79.0524ZM157.421 68.7471C156.855 69.787 156.298 70.8893 155.711 72.0852C153.992 75.5065 152.059 79.3644 149.419 82.2969C149.278 82.4627 149.106 82.5972 148.913 82.692C148.715 82.7809 148.502 82.8303 148.286 82.8376C148.164 82.8376 147.324 82.8376 145.807 82.8376C135.799 82.7318 125.806 82.013 115.881 80.6851C115.595 80.6512 115.322 80.54 115.092 80.3627C114.866 80.1828 114.688 79.9466 114.576 79.6764C114.463 79.4044 114.425 79.106 114.464 78.8133C114.495 78.5198 114.607 78.2417 114.788 78.0125C118.508 72.9131 121.836 67.5241 124.743 61.8942C124.913 61.5547 125.192 61.2863 125.532 61.1352C125.87 60.9834 126.249 60.9541 126.605 61.0519C136.305 63.6073 146.192 65.3462 156.167 66.2514C156.435 66.2802 156.692 66.3767 156.915 66.5322C157.139 66.6895 157.323 66.8999 157.452 67.1457C157.573 67.3903 157.636 67.6613 157.634 67.936C157.629 68.2202 157.556 68.4989 157.421 68.7471ZM165.464 50.8402C165.464 50.8402 163.663 55.0934 160.011 63.1838C159.879 63.472 159.67 63.7159 159.409 63.8871C159.147 64.0583 158.844 64.1497 158.534 64.1509H158.433C150.339 63.6309 135.305 62.6534 104.813 50.5075C104.579 50.41 104.368 50.2609 104.196 50.0707C104.013 49.8735 103.878 49.6348 103.801 49.374C103.74 49.1213 103.74 48.8572 103.801 48.6045C103.851 48.3501 103.958 48.1113 104.115 47.9078C108.455 42.1052 111.622 37.2905 113.513 34.2644C113.711 33.9548 114.003 33.7208 114.343 33.5986C114.683 33.4764 115.053 33.4729 115.395 33.5885C118.43 34.6284 121.465 35.6682 124.683 36.8641C136.317 41.0237 149.5 45.7656 164.281 48.5109C164.522 48.5564 164.751 48.6565 164.95 48.8039C165.15 48.9514 165.315 49.1426 165.434 49.3636C165.554 49.5869 165.62 49.8366 165.626 50.0915C165.619 50.3558 165.546 50.6137 165.414 50.8402H165.464Z" fill="white"/>
<path d="M161.588 51.4538C147.374 48.6149 134.748 44.0809 123.528 40.015C120.746 38.9751 118.095 38.06 115.434 37.1553C113.694 39.8902 111.165 43.6858 107.877 48.1573C135.193 58.8578 149.458 60.1888 157.45 60.7191C159.443 56.3724 160.789 53.2528 161.588 51.4538Z" fill="white"/>
<path d="M117.337 61.7798C110.255 59.5753 104.539 57.5267 101.564 56.4452C97.075 62.03 92.3069 67.3718 87.2793 72.4491C94.1892 73.9153 101.099 75.1736 107.837 76.2135C111.389 71.6828 114.567 66.8548 117.337 61.7798Z" fill="white"/>
<path d="M118.977 77.711C128.424 78.9186 137.935 79.5264 147.456 79.5308C149.551 76.7536 151.343 73.7475 152.798 70.5669L153.405 69.3606C144.493 68.4675 135.657 66.9 126.969 64.6708C124.556 69.175 121.887 73.5293 118.977 77.711Z" fill="white"/>
<path d="M213.723 96.5017L199.205 50.6425V50.5386C199.099 50.2003 198.93 49.8861 198.709 49.6131C198.239 49.0317 197.565 48.6649 196.833 48.5928C196.102 48.5208 195.372 48.7492 194.804 49.2283C194.599 49.3989 194.387 49.5586 194.166 49.7067L193.408 50.237C192.882 50.5802 192.396 50.913 191.809 51.2769C190.727 51.9424 189.614 52.5872 188.481 53.2007C186.214 54.459 183.877 55.5925 181.51 56.6739C179.143 57.7554 176.725 58.7537 174.297 59.7936L170.574 61.1246L170.27 61.239C171.009 59.752 171.747 58.2546 172.465 56.7363C174.337 52.8056 176.128 48.8644 177.797 44.7776C177.864 44.5857 177.912 44.387 177.939 44.1849C177.991 43.8204 177.973 43.4487 177.884 43.0917C177.796 42.7346 177.639 42.3992 177.423 42.1051C177.208 41.8127 176.94 41.5656 176.634 41.3772C176.323 41.1907 175.979 41.0704 175.622 41.0236L171.838 40.4829L169.966 40.2125L168.075 39.9005L164.301 39.2662L160.537 38.5383C158.028 38.0911 155.54 37.4984 153.041 36.9888L149.297 36.1049L147.436 35.689L145.574 35.2106L141.851 34.2643L138.149 33.2244C136.935 32.8916 135.69 32.5277 134.456 32.1845C133.222 31.8413 131.997 31.467 130.773 31.0822C125.877 29.5744 121.02 27.9626 116.164 26.2155C111.531 24.5413 102.355 20.8913 97.7817 19.0403C97.3669 20.361 98.2876 21.8792 97.7817 23.1375C102.334 25.0821 110.104 28.6073 114.718 30.4167C119.594 32.2469 124.491 33.994 129.438 35.6162C130.652 36.0321 131.916 36.4065 133.151 36.8016C134.385 37.1968 135.629 37.5816 136.884 37.9455L140.627 39.0582L144.391 40.0981L146.273 40.618L148.164 41.0964L151.948 42.0634C154.487 42.6354 157.007 43.2801 159.566 43.7793L163.38 44.58L167.225 45.2976L169.147 45.6511L171.079 45.963L171.575 46.0462C170.472 48.9475 169.289 51.8489 168.075 54.7189C166.405 58.6393 164.635 62.5285 162.753 66.3449C161.812 68.2583 160.831 70.1405 159.819 72.0123C158.807 73.8841 157.796 75.7039 156.653 77.4925C155.509 79.2811 154.376 81.0281 153.142 82.6919C152.049 84.1808 150.863 85.5946 149.591 86.9243C146.708 86.8619 143.763 86.7163 140.85 86.5291C137.714 86.3212 134.581 86.0716 131.451 85.7804C125.189 85.1981 118.936 84.4286 112.704 83.5239C100.25 81.7249 87.8974 79.2708 75.6761 76.2447C69.5654 74.7195 63.4952 73.0487 57.4655 71.2324L52.9836 69.8181L50.7377 69.111L48.5018 68.3519C47.0146 67.8527 45.5173 67.312 44.0301 66.8336L39.5786 65.2426C38.0914 64.7227 36.6245 64.1508 35.1575 63.5684C33.6905 62.9861 32.2236 62.4557 30.7667 61.863C27.8631 60.6671 24.9393 59.5128 22.0762 58.2234C17.5438 56.2892 13.1024 54.1574 8.66108 51.984L8.97471 51.5265C9.865 50.2266 10.7856 48.9371 11.7164 47.6581C13.5914 45.0999 15.5204 42.5869 17.5033 40.1189C21.4706 35.1762 25.6815 30.4454 30.1192 25.9452C34.5474 21.4415 39.2585 17.2417 44.2223 13.3729C46.701 11.4387 49.2808 9.6501 51.9011 7.94468L53.9245 6.69686C54.5821 6.28091 55.2701 5.90652 55.9479 5.50096L57.7892 4.46107C58.2344 4.1907 58.6694 3.88914 59.1247 3.55638L59.3877 3.71238L60.2274 4.23233L61.917 5.27222C63.0298 5.93775 64.1629 6.59283 65.296 7.23756C67.5622 8.53742 69.8487 9.79572 72.1351 11.0332C74.0877 12.0731 99.9872 24.5517 102.891 25.4564C103.218 24.287 103.481 23.0997 103.68 21.9C101.818 20.9849 75.6255 8.74544 73.7842 7.79914C71.4977 6.62407 69.2214 5.40741 66.9552 4.16994L63.5863 2.28768L61.917 1.32059L61.1076 0.842279L60.7029 0.592716L60.4905 0.467871H60.4399L60.1667 0.322335C59.9686 0.23817 59.7615 0.17877 59.5496 0.145508C58.6391 0.457475 57.6982 0.821436 56.7775 1.1854L56.0896 1.49741L55.7456 1.65336L55.4724 1.79896L54.3899 2.35013C53.6716 2.72449 52.9331 3.06761 52.235 3.47317L50.1104 4.65866C47.308 6.30168 44.5461 8.0071 41.8954 9.8581C36.5785 13.58 31.5088 17.662 26.7199 22.0768C21.9253 26.4782 17.3532 31.1291 13.0215 36.0113C10.8565 38.4447 8.74538 40.9335 6.68826 43.4777C5.65632 44.7603 4.64462 46.0497 3.65316 47.3461L2.16596 49.3219C1.67022 49.9978 1.20485 50.6426 0.688884 51.4017L0.628185 51.5057C0.534155 51.6523 0.449662 51.8051 0.37526 51.9632C0.189403 52.3861 0.0829944 52.8412 0.0616355 53.3047C0.0506664 53.7683 0.122673 54.2301 0.274084 54.667C0.59658 55.5435 1.23904 56.256 2.0648 56.6531C7.88207 59.3984 13.7196 62.0814 19.6886 64.4627C22.6428 65.721 25.6576 66.8024 28.6422 67.9567C30.1496 68.5183 31.6772 68.9966 33.1644 69.5789C34.6516 70.1613 36.1996 70.6188 37.6969 71.1492L42.2596 72.6674C43.7772 73.1562 45.2947 73.6137 46.8325 74.0921L49.119 74.7992L51.4256 75.4648L56.0289 76.7854C62.1867 78.4492 68.3784 79.9813 74.6037 81.3817L76.3134 81.7353C74.4215 84.543 72.469 87.3299 70.4962 90.0544C68.0411 93.4721 65.5287 96.8414 62.959 100.162C60.3893 103.49 57.7386 106.724 55.0172 109.895C52.2957 113.067 49.4832 116.135 46.5594 118.953L46.4885 119.036C46.1124 119.435 45.847 119.931 45.7196 120.471C45.5999 121.014 45.6173 121.58 45.7702 122.114C45.9377 122.636 46.2365 123.104 46.6362 123.469C47.0359 123.834 47.5225 124.084 48.0466 124.194C48.9976 124.402 49.8474 124.568 50.7478 124.724C51.6482 124.88 52.5082 125.036 53.3883 125.182C55.1487 125.473 56.9091 125.723 58.6694 125.962C62.1901 126.419 65.7513 126.804 69.2315 127.095C76.3134 127.698 83.3953 127.979 90.4772 128C97.5591 128.021 104.641 127.761 111.662 127.241C118.683 126.721 125.725 125.889 132.716 124.828L137.946 123.996L143.156 122.956C144.897 122.655 146.616 122.26 148.336 121.917L150.936 121.355L152.231 121.074L153.516 120.752L158.656 119.504C159.526 119.306 160.365 119.057 161.225 118.818L163.775 118.1C167.194 117.206 170.553 116.02 173.892 115.043C187.33 110.62 200.397 105.084 212.964 98.4879C213.309 98.309 213.581 98.0107 213.733 97.6456C213.853 97.2738 213.85 96.8712 213.723 96.5017ZM172.597 111.195C169.258 112.162 165.93 113.213 162.551 114.034L160.032 114.689C159.182 114.908 158.342 115.147 157.492 115.324L152.434 116.488L151.159 116.78L149.884 117.029L147.325 117.539C145.625 117.882 143.925 118.235 142.205 118.516L137.066 119.379L131.916 120.128C125.027 121.043 118.097 121.74 111.197 122.135C104.297 122.53 97.3264 122.655 90.3963 122.52C83.4662 122.385 76.536 121.969 69.6565 121.261C66.2099 120.908 62.7769 120.478 59.3574 119.972C57.7386 119.722 56.0997 119.452 54.4607 119.161C56.0289 117.289 57.5666 115.386 59.0538 113.462C61.6539 110.051 64.1123 106.578 66.5809 103.063C69.0494 99.5486 71.3561 95.9609 73.6628 92.3733C75.7368 89.0977 77.7703 85.8116 79.733 82.4632L82.0599 82.9312L85.439 83.5863C94.2947 85.2848 103.194 86.6713 112.138 87.7458C116.913 88.3074 121.708 88.7857 126.494 89.1912C127.576 89.2848 128.659 89.3577 129.751 89.4305L131.137 89.5344C131.755 89.5864 132.372 89.6072 132.989 89.6488L136.236 89.8464L140.668 90.0544C143.855 90.1688 147.011 90.252 150.248 90.2208H150.34C150.716 90.2208 151.078 90.0718 151.351 89.8048C152.978 88.2781 154.487 86.6231 155.863 84.8549C157.249 83.1391 158.544 81.3609 159.779 79.5515C161.013 77.7421 162.166 75.8911 163.289 74.0193C163.562 73.5721 163.815 73.1249 164.078 72.6778C164.918 71.2428 165.748 69.7973 166.547 68.3519C167.043 67.4576 167.559 66.5529 167.994 65.6482L171.656 64.6083L175.49 63.4644C178.04 62.6637 180.549 61.8422 183.108 60.9166C185.668 59.9911 188.167 59.0137 190.636 57.9114C191.88 57.3603 193.114 56.7779 194.348 56.154L194.925 55.8524L210.101 96.1793C198.004 102.192 185.464 107.213 172.597 111.195Z" fill="black"/>
<path d="M290.873 26.7876C289.713 23.8939 288.027 21.2539 285.905 19.0092C285.781 18.8725 285.634 18.7598 285.47 18.6764C285.066 18.4684 284.732 18.3124 284.368 18.1564C284.003 18.0005 283.66 17.8341 283.295 17.6885C282.587 17.387 281.869 17.0957 281.15 16.8462C279.704 16.3054 278.247 15.8063 276.78 15.4008C273.851 14.5412 270.879 13.8469 267.877 13.321C261.863 12.2668 255.766 11.7967 249.666 11.9171C248.908 11.9171 248.149 11.9795 247.38 12.0003C246.611 12.0211 245.862 12.0627 245.093 12.1251L242.817 12.2915L240.541 12.5203C239.782 12.5931 239.033 12.6971 238.275 12.801L236.008 13.1234L233.752 13.5082L232.629 13.7057L231.506 13.9345C225.519 15.1395 219.63 16.8152 213.893 18.9468L213.771 18.9988C213.134 19.2764 212.63 19.8018 212.368 20.4603C212.107 21.1188 212.109 21.8569 212.375 22.5136V22.6176C212.577 23.0336 212.78 23.5639 213.002 24.0527C213.225 24.5414 213.417 25.0926 213.63 25.5501C214.034 26.59 214.409 27.5675 214.773 28.5866C215.501 30.6663 216.139 32.7461 216.695 34.8259C217.252 36.8978 217.688 39.0022 218 41.1276C218.152 42.1675 218.263 43.2074 218.334 44.2473C218.334 44.7672 218.385 45.2872 218.385 45.8071V46.9822C218.446 47.7138 218.66 48.4232 219.012 49.062C219.444 49.3433 219.938 49.5078 220.448 49.5403H221.035H221.157H221.298L221.835 49.4572L222.917 49.2907L225.112 48.9892C226.579 48.7916 228.046 48.6252 229.523 48.4692C232.467 48.1677 235.422 47.9181 238.386 47.7413C244.294 47.3877 250.223 47.263 256.111 47.4917C261.955 47.6356 267.777 48.2651 273.522 49.3739C276.331 49.9484 279.094 50.7375 281.788 51.7345C284.39 52.6997 286.862 54.0032 289.143 55.6133L289.376 55.7589C289.827 56.0415 290.35 56.1795 290.878 56.1554C291.406 56.1314 291.915 55.9462 292.34 55.6237C292.629 55.412 292.874 55.1427 293.06 54.8319C293.246 54.5211 293.369 54.175 293.422 53.8143C293.493 53.3671 293.534 53.0136 293.584 52.6288L293.706 51.485C293.776 50.7362 293.837 49.9771 293.878 49.2283C293.969 47.7205 294.009 46.2127 293.999 44.7153C293.999 41.6888 293.766 38.6671 293.301 35.6786C292.841 32.6257 292.025 29.6407 290.873 26.7876ZM289.042 44.4657C288.961 45.8592 288.839 47.2422 288.637 48.6253C288.642 48.6347 288.645 48.6455 288.645 48.6564C288.645 48.6674 288.642 48.6782 288.637 48.6876C287.001 47.8456 285.311 47.1194 283.579 46.5143C280.606 45.4833 277.562 44.6838 274.473 44.1225C268.435 43.0419 262.321 42.4681 256.192 42.4067C250.122 42.3027 244.051 42.5522 237.981 43.041C234.946 43.2802 231.911 43.5922 228.957 43.9769C227.449 44.1641 225.922 44.3721 224.455 44.5905L222.431 44.9024V43.9873C222.431 42.8019 222.34 41.6164 222.229 40.4517C221.99 38.1297 221.618 35.8242 221.116 33.5469C220.62 31.2903 220.044 29.0649 219.366 26.8707C219.032 25.7684 218.678 24.6766 218.294 23.5847L218.081 22.992C222.728 21.2357 227.479 19.7873 232.306 18.6556L233.378 18.406L234.45 18.1877L236.595 17.7717L238.75 17.4078C239.468 17.283 240.187 17.1582 240.915 17.075L243.08 16.7838L245.265 16.555C245.984 16.4718 246.712 16.4199 247.441 16.3783C248.169 16.3367 248.897 16.2639 249.626 16.2431C255.462 15.953 261.313 16.2316 267.098 17.075C269.987 17.5038 272.851 18.094 275.677 18.8428C277.083 19.2172 278.49 19.6227 279.855 20.0907C280.53 20.3333 281.204 20.5829 281.879 20.8394C282.213 20.9746 282.547 21.0994 282.891 21.2554L283.548 21.5465C285.145 23.524 286.373 25.7872 287.17 28.2226C288.019 30.809 288.566 33.4899 288.799 36.209C289.098 38.9603 289.18 41.732 289.042 44.4969V44.4657Z" fill="black"/>
<path d="M98.7421 31.0303C101.042 31.9454 103.43 32.864 105.905 33.786C97.2172 46.9362 87.1027 59.028 75.7562 69.8286C58.7192 65.669 40.8627 58.2234 20.2341 49.6755L19.1719 49.2283C23.2187 43.3842 37.6961 23.7302 58.9114 11.6467C60.773 12.8218 88.0079 25.7893 97.5685 30.5207L98.044 30.7079L98.7319 31.0511L98.7421 31.0303Z" fill="white"/>
<path d="M100.453 28.2226C99.8861 29.1585 99.3296 30.0944 98.7732 31.0303L98.0549 30.7392L97.5996 30.5208C98.2875 29.639 98.9129 28.7076 99.4713 27.7339L100.453 28.2226Z" fill="#8B8FA2"/>
<path d="M109.608 31.7686C109.783 31.9491 109.914 32.1691 109.992 32.411C110.069 32.653 110.09 32.9102 110.053 33.162C110.021 33.4109 109.935 33.6491 109.8 33.8588C100.558 48.1755 89.6559 61.2841 77.3349 72.8962C77.1365 73.0736 76.9008 73.2016 76.6464 73.2701C76.392 73.3386 76.1256 73.3459 75.868 73.2914C58.3453 69.059 40.1347 61.5094 19.0509 52.7744L16.1069 51.5577C15.8861 51.4608 15.6866 51.3194 15.5201 51.1417C15.3585 50.9633 15.2375 50.7502 15.166 50.5178C15.0958 50.2823 15.0751 50.0342 15.1053 49.7899C15.1341 49.545 15.2171 49.3102 15.3481 49.1035C16.0158 48.0636 31.9906 22.8255 58.2138 8.23589C58.4685 8.09675 58.7554 8.03202 59.0434 8.04872C59.334 8.06006 59.6166 8.14971 59.8629 8.30869C59.9641 8.37108 88.1905 22.1288 99.4709 27.7338C98.9126 28.7076 98.2871 29.6389 97.5993 30.5207C88.0387 25.7892 60.8038 12.8426 58.9422 11.6467C37.6965 23.7302 23.209 43.3841 19.2027 49.2283L20.2649 49.6755C40.8935 58.2234 58.7095 65.617 75.787 69.8285C87.1341 59.0248 97.2486 46.9294 105.936 33.7756C103.46 32.8466 101.073 31.928 98.7729 31.0198C99.3293 30.0839 99.8857 29.1481 100.452 28.2122L99.4406 27.7234C102.462 28.9297 105.636 30.1429 108.961 31.363C109.204 31.445 109.426 31.5839 109.608 31.7686Z" fill="#8B8FA2"/>
</g>
<defs>
<clipPath id="clip0_1308_8150">
<rect width="294" height="128" fill="white"/>
</clipPath>
</defs>
</svg>
