<svg width="25" height="24" viewBox="0 0 25 24" fill="none" xmlns="http://www.w3.org/2000/svg">
<path fill-rule="evenodd" clip-rule="evenodd" d="M2.6665 12.0001C2.6665 6.48012 7.1365 2.00012 12.6665 2.00012C18.1865 2.00012 22.6665 6.48012 22.6665 12.0001C22.6665 17.5301 18.1865 22.0001 12.6665 22.0001C7.1365 22.0001 2.6665 17.5301 2.6665 12.0001ZM14.8965 13.8301L16.5165 8.71012C16.6265 8.36012 16.3065 8.03012 15.9565 8.14012L10.8365 9.74012C10.6265 9.81012 10.4565 9.97012 10.3965 10.1801L8.7965 15.3101C8.6865 15.6501 9.0165 15.9801 9.3565 15.8701L14.4565 14.2701C14.6665 14.2101 14.8365 14.0401 14.8965 13.8301Z" fill="#FCEB54"/>
</svg>
