<svg width="24" height="24" viewBox="0 0 24 24" fill="none" xmlns="http://www.w3.org/2000/svg">
<path fill-rule="evenodd" clip-rule="evenodd" d="M22 12.5C22 17.7467 17.7467 22 12.5 22C7.25329 22 3 17.7467 3 12.5C3 7.25329 7.25329 3 12.5 3C15.0196 3 17.4359 4.00089 19.2175 5.78249C20.9991 7.56408 22 9.98044 22 12.5Z" stroke="white" stroke-width="1.5" stroke-linecap="round" stroke-linejoin="round"/>
<path d="M12.5005 15.6781C12.0863 15.6781 11.7505 16.0139 11.7505 16.4281C11.7505 16.8423 12.0863 17.1781 12.5005 17.1781V15.6781ZM10.8505 11.3999L11.373 10.862C11.344 10.8337 11.3127 10.8079 11.2795 10.7848L10.8505 11.3999ZM10.3004 10.2999L11.05 10.3258C11.0503 10.3172 11.0504 10.3085 11.0504 10.2999H10.3004ZM12.5005 9.3218C12.9147 9.3218 13.2505 8.98601 13.2505 8.5718C13.2505 8.15759 12.9147 7.8218 12.5005 7.8218V9.3218ZM12.4695 17.1787C12.8834 17.1956 13.2326 16.8738 13.2495 16.46C13.2665 16.0461 12.9447 15.6969 12.5308 15.6799L12.4695 17.1787ZM11.0434 13.9061C11.0988 13.4957 10.811 13.1179 10.4005 13.0625C9.99005 13.0071 9.61234 13.2949 9.5569 13.7054L11.0434 13.9061ZM13.2504 16.4282C13.2504 16.014 12.9147 15.6782 12.5004 15.6782C12.0862 15.6782 11.7504 16.014 11.7504 16.4282H13.2504ZM11.7504 18.0001C11.7504 18.4144 12.0862 18.7501 12.5004 18.7501C12.9147 18.7501 13.2504 18.4144 13.2504 18.0001H11.7504ZM12.4582 7.82296C12.0446 7.84627 11.7282 8.20042 11.7515 8.61398C11.7749 9.02754 12.129 9.34389 12.5426 9.32059L12.4582 7.82296ZM14.1692 9.25053L13.6163 9.7573L14.1692 9.25053ZM13.9581 10.8649C13.8989 11.2749 14.1833 11.6552 14.5933 11.7143C15.0033 11.7735 15.3836 11.4891 15.4427 11.0791L13.9581 10.8649ZM11.7504 8.57192C11.7504 8.98613 12.0862 9.32192 12.5004 9.32192C12.9147 9.32192 13.2504 8.98613 13.2504 8.57192H11.7504ZM13.2504 7C13.2504 6.58579 12.9147 6.25 12.5004 6.25C12.0862 6.25 11.7504 6.58579 11.7504 7H13.2504ZM12.5005 17.1781C12.9576 17.1781 13.6459 17.074 14.2482 16.7292C14.8875 16.3632 15.4505 15.703 15.4505 14.6791H13.9505C13.9505 15.0544 13.7803 15.2687 13.503 15.4274C13.1888 15.6073 12.7771 15.6781 12.5005 15.6781V17.1781ZM15.4505 14.6791C15.4505 14.0494 15.2533 13.5394 14.898 13.129C14.5676 12.7473 14.1328 12.4915 13.7384 12.2878C12.8906 11.8498 12.0931 11.5614 11.373 10.862L10.3279 11.9379C11.2578 12.8412 12.3854 13.2772 13.05 13.6205C13.412 13.8074 13.6303 13.9564 13.7639 14.1108C13.8727 14.2364 13.9505 14.3935 13.9505 14.6791H15.4505ZM11.2795 10.7848C11.1301 10.6806 11.0437 10.5078 11.05 10.3258L9.55089 10.2741C9.52707 10.9645 9.85479 11.6199 10.4214 12.0151L11.2795 10.7848ZM11.0504 10.2999C11.0504 10.001 11.1157 9.82982 11.1778 9.73002C11.2398 9.63046 11.3291 9.55277 11.4568 9.48989C11.744 9.3484 12.1353 9.3218 12.5005 9.3218V7.8218C12.1319 7.8218 11.4233 7.83425 10.7939 8.14432C10.4632 8.30721 10.1401 8.55843 9.90423 8.93758C9.66846 9.31649 9.55045 9.77385 9.55045 10.2999H11.0504ZM12.5308 15.6799C12.0906 15.6619 11.6784 15.4592 11.3953 15.1216L10.2459 16.0855C10.8003 16.7465 11.6075 17.1434 12.4695 17.1787L12.5308 15.6799ZM11.3953 15.1216C11.1122 14.784 10.9844 14.3428 11.0434 13.9061L9.5569 13.7054C9.44142 14.5603 9.69155 15.4244 10.2459 16.0855L11.3953 15.1216ZM11.7504 16.4282V18.0001H13.2504V16.4282H11.7504ZM12.5426 9.32059C12.9479 9.29774 13.342 9.45805 13.6163 9.7573L14.7221 8.74376C14.1437 8.1128 13.3127 7.7748 12.4582 7.82296L12.5426 9.32059ZM13.6163 9.7573C13.8906 10.0566 14.016 10.4631 13.9581 10.8649L15.4427 11.0791C15.5649 10.232 15.3004 9.37472 14.7221 8.74376L13.6163 9.7573ZM13.2504 8.57192V7H11.7504V8.57192H13.2504Z" fill="white"/>
</svg>
