<svg width="18" height="10" viewBox="0 0 18 10" fill="none" xmlns="http://www.w3.org/2000/svg">
<path d="M1.53033 4.46967C1.23744 4.17678 0.762563 4.17678 0.46967 4.46967C0.176777 4.76256 0.176777 5.23744 0.46967 5.53033L1.53033 4.46967ZM5 9L4.46967 9.53033C4.76256 9.82322 5.23744 9.82322 5.53033 9.53033L5 9ZM13.5303 1.53033C13.8232 1.23744 13.8232 0.762563 13.5303 0.46967C13.2374 0.176777 12.7626 0.176777 12.4697 0.46967L13.5303 1.53033ZM5.53033 4.46967C5.23744 4.17678 4.76256 4.17678 4.46967 4.46967C4.17678 4.76256 4.17678 5.23744 4.46967 5.53033L5.53033 4.46967ZM9 9L8.46967 9.53033C8.76256 9.82322 9.23744 9.82322 9.53033 9.53033L9 9ZM17.5303 1.53033C17.8232 1.23744 17.8232 0.762563 17.5303 0.46967C17.2374 0.176777 16.7626 0.176777 16.4697 0.46967L17.5303 1.53033ZM0.46967 5.53033L4.46967 9.53033L5.53033 8.46967L1.53033 4.46967L0.46967 5.53033ZM5.53033 9.53033L13.5303 1.53033L12.4697 0.46967L4.46967 8.46967L5.53033 9.53033ZM4.46967 5.53033L8.46967 9.53033L9.53033 8.46967L5.53033 4.46967L4.46967 5.53033ZM9.53033 9.53033L17.5303 1.53033L16.4697 0.46967L8.46967 8.46967L9.53033 9.53033Z" fill="#777D8C"/>
</svg>
