<svg width="24" height="24" viewBox="0 0 24 24" fill="none" xmlns="http://www.w3.org/2000/svg">
<path d="M10.33 16.5929H4.0293" stroke="#777D8C" stroke-width="1.5" stroke-linecap="round" stroke-linejoin="round"/>
<path d="M13.1406 6.90037H19.4413" stroke="#777D8C" stroke-width="1.5" stroke-linecap="round" stroke-linejoin="round"/>
<path fill-rule="evenodd" clip-rule="evenodd" d="M8.72629 6.84625C8.72629 5.5506 7.66813 4.5 6.36314 4.5C5.05816 4.5 4 5.5506 4 6.84625C4 8.14191 5.05816 9.19251 6.36314 9.19251C7.66813 9.19251 8.72629 8.14191 8.72629 6.84625Z" stroke="#777D8C" stroke-width="1.5" stroke-linecap="round" stroke-linejoin="round"/>
<path fill-rule="evenodd" clip-rule="evenodd" d="M19.9997 16.5537C19.9997 15.2581 18.9424 14.2075 17.6374 14.2075C16.3316 14.2075 15.2734 15.2581 15.2734 16.5537C15.2734 17.8494 16.3316 18.9 17.6374 18.9C18.9424 18.9 19.9997 17.8494 19.9997 16.5537Z" stroke="#777D8C" stroke-width="1.5" stroke-linecap="round" stroke-linejoin="round"/>
</svg>
