<svg width="18" height="19" viewBox="0 0 18 19" fill="none" xmlns="http://www.w3.org/2000/svg">
<path d="M13.2825 2.59305C12.8333 2.4423 12.3608 2.37555 11.8875 2.37555C10.845 2.36805 9.83326 2.71305 9.00001 3.3498C8.93251 3.29805 8.85001 3.2523 8.77501 3.20805C8.70001 3.1623 8.56501 3.05055 8.45251 2.99055L8.16751 2.86305C8.01751 2.78055 7.86076 2.72055 7.69501 2.6673C7.68001 2.65305 7.65751 2.6373 7.62751 2.62305H7.58326C7.14001 2.4723 6.68251 2.3898 6.21001 2.37555H6.12751C5.91751 2.37555 5.70826 2.3898 5.49751 2.42055H5.40751C5.18251 2.4498 4.95826 2.5023 4.74076 2.5773C1.94251 3.49305 0.945012 6.53055 1.79251 9.18555C2.27251 10.5423 3.04576 11.773 4.05076 12.7848C5.51251 14.1948 7.11076 15.4398 8.82751 16.5048L9.02251 16.6255L9.21001 16.5123C10.9208 15.4398 12.51 14.1948 13.9583 12.7923C14.97 11.7805 15.7425 10.5423 16.215 9.18555C17.0483 6.53055 16.0508 3.49305 13.2825 2.59305V2.59305Z" fill="#E3635B"/>
</svg>
