<svg width="14" height="15" viewBox="0 0 14 15" fill="none" xmlns="http://www.w3.org/2000/svg">
<path d="M6.48989 12.4497L6.48881 12.4487C4.67121 10.8005 3.22351 9.48581 2.22116 8.26035C1.22743 7.04542 0.75 6.00995 0.75 4.93331C0.75 3.19153 2.10821 1.83331 3.85 1.83331C4.84091 1.83331 5.80368 2.29826 6.42899 3.03257L7 3.70312L7.57101 3.03257C8.19632 2.29826 9.15909 1.83331 10.15 1.83331C11.8918 1.83331 13.25 3.19153 13.25 4.93331C13.25 6.00996 12.7726 7.04546 11.7787 8.26142C10.7763 9.48775 9.32879 10.804 7.51141 12.4555C7.51114 12.4558 7.51087 12.456 7.5106 12.4563L7.00192 12.9158L6.48989 12.4497Z" stroke="#C2C5CE" stroke-width="1.5"/>
</svg>
