<svg width="24" height="24" viewBox="0 0 24 24" fill="none" xmlns="http://www.w3.org/2000/svg">
<path d="M5.47898 19.7915C5.59252 17.813 6.05237 16.6638 6.36839 16.0936C6.3872 16.0586 6.41647 16.0306 6.45192 16.0138C6.48737 15.9969 6.52717 15.9921 6.5655 16C6.60383 16.0078 6.63869 16.028 6.66502 16.0575C6.69134 16.0871 6.70775 16.1244 6.71185 16.1641C6.86987 17.6922 7.76212 22 12.7977 22C16.4707 22 20.1429 19.4445 20.1429 15.6103C20.1429 12.9485 18.963 10.9033 18.242 9.90008C18.1913 9.83044 18.1233 9.77585 18.0451 9.74189C17.9669 9.70793 17.8813 9.69583 17.797 9.70685C17.7128 9.71787 17.6329 9.7516 17.5656 9.80458C17.4983 9.85757 17.446 9.9279 17.4141 10.0083C16.5313 12.2429 15.2558 13.4501 14.5472 13.9856C14.5143 14.0079 14.4753 14.0191 14.4359 14.0177C14.3964 14.0163 14.3583 14.0023 14.327 13.9777C14.2957 13.9531 14.2727 13.9191 14.2613 13.8805C14.2499 13.8418 14.2506 13.8005 14.2633 13.7623C14.621 12.8731 15.2417 11.0657 15.2417 9.2448C15.2417 5.4019 11.8174 3.01748 10.0916 2.05966C10.0112 2.01488 9.91986 1.99459 9.82849 2.00123C9.73712 2.00787 9.64954 2.04117 9.57613 2.09713C9.50272 2.15309 9.44656 2.22937 9.41433 2.31696C9.38209 2.40454 9.37513 2.49974 9.39427 2.59125C10.787 9.11914 3 8.3005 3 15.6393C3 18.0199 3.94618 19.4087 4.6596 20.1133C4.72519 20.1807 4.80854 20.2272 4.89952 20.2471C4.99049 20.267 5.08517 20.2594 5.172 20.2253C5.25884 20.1912 5.3341 20.132 5.3886 20.055C5.44311 19.9779 5.4745 19.8864 5.47898 19.7915Z" fill="white"/>
</svg>
