<svg width="24" height="24" viewBox="0 0 24 24" fill="none" xmlns="http://www.w3.org/2000/svg">
<path d="M16.8993 3.00001H7.08695C6.00232 3.00203 4.96281 3.43432 4.19657 4.20198C3.43034 4.96965 3 6.00996 3 7.09459V16.9069C3.00041 17.9926 3.43198 19.0337 4.19982 19.8013C4.96766 20.5688 6.0089 21 7.09459 21H16.9069C17.9925 21 19.0336 20.5688 19.8012 19.8012C20.5688 19.0336 21 17.9925 21 16.9069V7.09459C21.0002 6.55631 20.8942 6.02328 20.6881 5.52601C20.4821 5.02875 20.1799 4.577 19.799 4.19667C19.4181 3.81633 18.9659 3.51485 18.4683 3.30951C17.9708 3.10417 17.4376 2.999 16.8993 3.00001ZM12.7466 18.0319C9.64397 18.0319 9.09374 15.4336 8.99745 14.5165C8.99522 14.4923 8.98523 14.4694 8.96896 14.4513C8.95269 14.4332 8.93102 14.4208 8.90716 14.416C8.8833 14.4112 8.85853 14.4142 8.83652 14.4246C8.81451 14.435 8.79644 14.4522 8.785 14.4737C8.59089 14.8176 8.30662 15.5115 8.23784 16.7052C8.2338 16.7616 8.21373 16.8157 8.17999 16.861C8.14625 16.9064 8.10024 16.9411 8.04739 16.9612C7.99455 16.9813 7.93706 16.9859 7.88171 16.9743C7.82636 16.9628 7.77545 16.9357 7.73499 16.8962C7.29481 16.4698 6.71249 15.6338 6.71249 14.1971C6.71249 9.77389 11.5117 10.2676 10.6527 6.32886C10.6412 6.27377 10.6458 6.21656 10.6657 6.16396C10.6857 6.11136 10.7203 6.06558 10.7654 6.032C10.8106 5.99842 10.8644 5.97846 10.9205 5.97446C10.9766 5.97046 11.0327 5.98259 11.0822 6.00942C12.1521 6.58716 14.2552 8.02539 14.2552 10.3424C14.2552 11.4414 13.8731 12.5311 13.653 13.0676C13.6436 13.0904 13.6419 13.1156 13.6481 13.1394C13.6544 13.1633 13.6683 13.1844 13.6877 13.1996C13.707 13.2148 13.7309 13.2233 13.7555 13.2238C13.7801 13.2242 13.8042 13.2166 13.8241 13.2021C14.2613 12.8796 15.0469 12.1505 15.591 10.804C15.6106 10.7554 15.6427 10.7128 15.6842 10.6808C15.7257 10.6487 15.775 10.6283 15.827 10.6216C15.879 10.6149 15.9318 10.6222 15.9801 10.6427C16.0283 10.6632 16.0702 10.6962 16.1015 10.7383C16.8434 11.7348 17.253 12.9395 17.2722 14.1818C17.2722 16.4912 15.0102 18.0319 12.7466 18.0319Z" fill="#E85A5B"/>
</svg>
