<svg width="16" height="16" viewBox="0 0 16 16" fill="none" xmlns="http://www.w3.org/2000/svg">
<path d="M6.68275 3.68276C6.38986 3.97566 6.38986 4.45053 6.68275 4.74342C6.97565 5.03632 7.45052 5.03632 7.74341 4.74342L6.68275 3.68276ZM9.48508 1.94109L10.0154 2.47142V2.47142L9.48508 1.94109ZM14.0291 1.94109L13.4988 2.47142L14.0291 1.94109ZM14.0291 6.48509L13.4988 5.95476L14.0291 6.48509ZM11.2268 8.22676C10.9339 8.51966 10.9339 8.99453 11.2268 9.28742C11.5196 9.58032 11.9945 9.58032 12.2874 9.28742L11.2268 8.22676ZM9.2583 12.3185C9.55125 12.0257 9.55136 11.5508 9.25853 11.2579C8.9657 10.9649 8.49083 10.9648 8.19787 11.2576L9.2583 12.3185ZM6.45608 14.0591L6.97972 14.5961L6.9863 14.5895L6.45608 14.0591ZM1.94132 14.0309L1.41104 14.5612H1.41104L1.94132 14.0309ZM1.91208 9.51609L1.38171 8.98572L1.37499 8.99262L1.91208 9.51609ZM4.71441 7.77442C5.00731 7.48153 5.00731 7.00666 4.71441 6.71376C4.42152 6.42087 3.94665 6.42087 3.65375 6.71376L4.71441 7.77442ZM10.7744 6.25742C11.0673 5.96453 11.0673 5.48966 10.7744 5.19676C10.4815 4.90387 10.0066 4.90387 9.71375 5.19676L10.7744 6.25742ZM5.16975 9.74076C4.87686 10.0337 4.87686 10.5085 5.16975 10.8014C5.46265 11.0943 5.93752 11.0943 6.23041 10.8014L5.16975 9.74076ZM7.74341 4.74342L10.0154 2.47142L8.95475 1.41076L6.68275 3.68276L7.74341 4.74342ZM10.0154 2.47142C10.9773 1.50953 12.5369 1.50953 13.4988 2.47142L14.5594 1.41076C13.0117 -0.136921 10.5024 -0.136921 8.95475 1.41076L10.0154 2.47142ZM13.4988 2.47142C14.4607 3.43332 14.4607 4.99287 13.4988 5.95476L14.5594 7.01542C16.1071 5.46774 16.1071 2.95845 14.5594 1.41076L13.4988 2.47142ZM13.4988 5.95476L11.2268 8.22676L12.2874 9.28742L14.5594 7.01542L13.4988 5.95476ZM8.19787 11.2576L5.92587 13.5286L6.9863 14.5895L9.2583 12.3185L8.19787 11.2576ZM5.93249 13.5221C4.96732 14.4632 3.42491 14.4536 2.47159 13.5005L1.41104 14.5612C2.94495 16.0948 5.42671 16.1103 6.97968 14.5961L5.93249 13.5221ZM2.47159 13.5005C1.51827 12.5474 1.50828 11.0049 2.44918 10.0396L1.37499 8.99262C-0.138929 10.5459 -0.12286 13.0277 1.41104 14.5612L2.47159 13.5005ZM2.44241 10.0464L4.71441 7.77442L3.65375 6.71376L1.38175 8.98576L2.44241 10.0464ZM9.71375 5.19676L5.16975 9.74076L6.23041 10.8014L10.7744 6.25742L9.71375 5.19676Z" fill="white"/>
</svg>
