<svg width="24" height="27" viewBox="0 0 24 27" fill="none" xmlns="http://www.w3.org/2000/svg">
<path d="M12.5122 4H6V7.325C6 9.175 7.46341 10.675 9.2439 10.675H11.2439C11.9268 10.675 12.4878 11.25 12.5122 11.95V20.675C12.5122 22.5 13.9756 24 15.7561 24H19V7.325C19 5.5 17.5366 4 15.7561 4H12.5122Z" fill="white"/>
<path d="M6.00003 13H9.63156C9.81162 12.9991 9.99012 13.0243 10.1567 13.0743C10.3233 13.1242 10.4747 13.1978 10.602 13.2909C10.7293 13.3839 10.83 13.4945 10.8984 13.6162C10.9667 13.738 11.0012 13.8684 11 14V15H7.36844C7.18838 15.0009 7.00988 14.9757 6.84328 14.9257C6.67669 14.8758 6.52534 14.8022 6.39802 14.7091C6.2707 14.6161 6.16995 14.5055 6.10163 14.3838C6.03331 14.262 5.99877 14.1316 6.00003 14V13Z" fill="white"/>
</svg>
