<svg width="24" height="24" viewBox="0 0 24 24" fill="none" xmlns="http://www.w3.org/2000/svg">
<path d="M16.9054 3H7.09307C6.55479 3 6.02179 3.10612 5.5246 3.3123C5.02741 3.51848 4.57579 3.82067 4.19559 4.20156C3.8154 4.58245 3.51409 5.03454 3.30894 5.53199C3.10378 6.02943 2.9988 6.56244 3.00001 7.10049V16.9087C3.00001 17.9938 3.43124 19.0344 4.19884 19.8017C4.96644 20.569 6.00752 21 7.09307 21H16.9054C17.9911 21 19.0323 20.569 19.8002 19.8018C20.568 19.0346 20.9996 17.9939 21 16.9087V7.10049C21.001 6.56237 20.8958 6.02932 20.6905 5.53187C20.4852 5.03442 20.1837 4.58233 19.8034 4.20147C19.4231 3.8206 18.9714 3.51843 18.4741 3.31226C17.9768 3.1061 17.4438 3 16.9054 3ZM17.8026 12.3055C16.4495 12.5877 15.2082 13.2584 14.2309 14.2353C13.2536 15.2122 12.5826 16.453 12.3003 17.8055C12.2817 17.8705 12.2427 17.9279 12.1891 17.9691C12.1354 18.0104 12.07 18.0333 12.0023 18.0346C11.9318 18.0423 11.861 18.0229 11.8042 17.9804C11.7474 17.9378 11.709 17.8753 11.6966 17.8055C11.4143 16.453 10.7434 15.2122 9.76605 14.2353C8.7887 13.2584 7.54741 12.5877 6.19437 12.3055C6.12806 12.2866 6.06977 12.2464 6.02838 12.1913C5.98699 12.1361 5.96477 12.0689 5.96511 12C5.95945 11.9307 5.9798 11.8619 6.02218 11.8068C6.06457 11.7517 6.12595 11.7144 6.19437 11.7021C7.54916 11.4149 8.79096 10.7395 9.76807 9.75851C10.7452 8.77746 11.4153 7.5332 11.6966 6.17772C11.7153 6.11115 11.7554 6.05255 11.8106 6.01088C11.8658 5.96922 11.9331 5.94679 12.0023 5.94703C12.0717 5.94177 12.1406 5.96247 12.1957 6.00508C12.2508 6.0477 12.288 6.10921 12.3003 6.17772C12.5778 7.53492 13.2467 8.78124 14.2244 9.76293C15.2022 10.7446 16.446 11.4187 17.8026 11.7021C17.8701 11.7175 17.9304 11.7553 17.9736 11.8095C18.0168 11.8636 18.0403 11.9308 18.0403 12C18.0403 12.0692 18.0168 12.1364 17.9736 12.1906C17.9304 12.2447 17.8701 12.2825 17.8026 12.2979V12.3055Z" fill="#07BD74"/>
</svg>
