<svg width="223" height="250" viewBox="0 0 223 250" fill="none" xmlns="http://www.w3.org/2000/svg">
<path d="M220.61 130.872L220.445 130.927L220.119 131.037L219.47 131.26L218.177 131.703L215.613 132.588L214.906 132.837L213.503 133.042C214.172 130.373 214.661 127.662 214.969 124.928C215.031 124.419 215.097 123.903 215.166 123.373C215.236 122.842 215.298 122.212 215.328 121.543C215.367 120.809 215.329 120.073 215.214 119.347C215.078 118.457 214.763 117.604 214.287 116.84C213.76 116.004 213.026 115.318 212.155 114.848C211.34 114.428 210.448 114.178 209.533 114.116C207.982 114.036 206.429 114.231 204.946 114.691L200.943 115.921C199.602 116.331 198.221 116.708 196.818 117.103C194.001 117.853 191.063 118.567 188.027 119.164C184.99 119.76 182.012 120.262 179.122 120.657C176.232 121.052 173.437 121.363 170.77 121.612C168.103 121.861 165.568 122.037 163.191 122.187L156.598 122.553C154.583 122.677 152.755 122.754 151.154 122.919H150.905C150.701 123.032 150.481 123.116 150.253 123.168L143.462 122.033L46.6874 119.522L13.5367 121.133L4.89188 123.197L1.02368 132.347L6.95783 193.835L11.3535 230.069L17.4159 234.966L33.0279 239.091L114.817 248.241L187.712 244.372L189.129 226.438L190.481 220.769L191.038 220.509C191.598 218.401 193.335 211.787 194.034 209.082C195.745 207.755 197.294 206.232 198.65 204.544C200.398 202.315 201.885 199.893 203.082 197.327C204.16 195.042 205.112 192.701 205.935 190.314C206.727 188.063 207.401 185.955 208.056 183.927C208.712 181.9 209.262 179.953 209.723 178.093C210.564 174.872 211.016 171.562 211.067 168.233C211.067 165.452 210.111 158.864 209.602 157.476C209.569 157.389 209.536 157.312 209.507 157.231L209.547 157.143L209.947 156.382C211.412 153.575 212.906 150.446 214.408 147.038C215.16 145.33 215.908 143.56 216.65 141.728C217.016 140.813 217.383 139.872 217.749 138.924C218.115 137.976 218.507 136.915 218.892 135.89L220.723 130.883C220.742 130.81 220.661 130.854 220.61 130.872Z" fill="#BA8B61"/>
<path d="M13.8188 132.519L23.1084 136.051C23.1084 136.051 72.948 143.945 75.8931 143.876C78.8382 143.806 106.645 145.149 106.645 145.149H145.315L168.547 143.876L203.001 137.829L199.338 132.519L156.25 131.219H131.583L57.6877 126.974L40.6435 128.595L11.4855 131.219L13.8188 132.519Z" fill="#E5C089"/>
<path d="M153.323 198.278C153.323 198.278 143.433 201.938 144.532 208.526C145.63 215.114 151.858 216.578 151.858 216.578C151.858 216.578 159.184 216.944 159.916 207.428C160.649 197.912 153.323 198.278 153.323 198.278Z" fill="#FFE088"/>
<path d="M116.249 156.338C115.472 156.345 114.702 156.198 113.982 155.906C111.256 154.808 110.018 151.91 109.996 149.545C109.987 148.677 110.075 147.81 110.26 146.961L110.33 146.614H109.963C106.395 146.57 102.329 146.427 97.8752 146.182L97.5382 146.163L97.5712 146.5C97.8093 149.062 96.9228 152.18 94.4319 153.524C93.5877 153.964 92.6478 154.189 91.6956 154.179C91.1122 154.177 90.5313 154.102 89.9666 153.955C88.4645 153.528 87.0842 152.753 85.9373 151.694C84.9968 150.827 84.1146 149.899 83.2962 148.916C82.0837 147.525 80.8309 146.09 79.2668 145.054L78.9518 144.86H78.8822C74.0103 144.385 69.1678 143.843 64.4973 143.254C62.4241 143.01 60.3483 142.745 58.2701 142.459L56.695 142.24C52.5484 139.25 49.8268 136.863 49.7352 131.362C49.7132 130.173 49.7352 128.95 49.7682 127.768C49.8011 126.271 49.8378 124.727 49.7682 123.215C49.966 121.982 50.2444 120.653 50.5887 119.372C51.0889 117.516 51.7495 115.708 52.5631 113.966C53.3737 112.221 54.3372 110.55 55.4423 108.974C56.4581 107.495 57.5769 106.09 58.7903 104.769C59.8829 103.558 61.0513 102.417 62.2885 101.354C63.3675 100.424 64.5081 99.5682 65.7025 98.7919C66.6841 98.139 67.721 97.5732 68.8014 97.101L69.6843 96.735L69.2593 95.8786C66.8673 90.9742 63.6329 83.4346 60.783 76.7148C56.9075 67.4916 53.0906 58.3416 49.1198 47.8008L48.8561 47.0944C47.9147 44.5764 46.9403 41.9704 46.1491 39.2035C45.1234 35.5984 44.6838 32.5569 44.7571 29.6289C44.8413 25.9287 45.7828 22.5505 47.4751 19.8604C49.4109 16.8386 52.3111 14.5584 55.706 13.3895C57.3166 12.8216 59.0128 12.5344 60.7207 12.5404C62.5808 12.5421 64.4259 12.8716 66.1714 13.5139C67.8163 14.1122 69.351 14.9778 70.7136 16.0759C72.0535 17.1612 73.211 18.4536 74.1422 19.9043C76.0104 22.7957 76.9957 25.9396 77.7796 28.9079C78.2302 30.6903 78.6478 32.4252 79.0617 34.1344C79.3474 35.3275 79.6343 36.5109 79.9225 37.6846C80.7162 40.9493 81.4915 44.1213 82.2486 47.2006C84.0801 54.7109 85.8237 61.804 87.2669 67.9564C90.1461 80.2065 91.5198 87.2776 91.8641 91.6037L91.8897 91.9038L92.1864 91.8709C93.1132 91.7684 94.1242 91.6952 95.2011 91.6513C95.8788 91.6513 96.5968 91.622 97.3514 91.622C98.6225 91.622 99.8203 91.6549 101.014 91.7245C101.949 91.7794 102.93 91.8489 103.945 91.9404L104.264 91.9697V91.428C104.297 90.6082 104.373 89.598 104.483 88.4781C104.813 85.7778 105.355 83.1076 106.102 80.4919C107.097 77.0201 108.386 73.6393 109.956 70.3867C111.84 66.4352 114.084 62.6654 116.659 59.1249C119.62 55.0696 122.993 51.3322 126.725 47.9728C127.224 47.4897 127.762 47.0469 128.227 46.6662L129.791 45.3706C130.458 44.8143 131.183 44.2726 131.887 43.7748C132.286 43.4857 132.685 43.1965 133.077 42.8964C135.37 41.2283 137.807 39.7671 140.359 38.53C143.03 37.216 145.888 36.321 148.832 35.8765C149.875 35.7346 150.926 35.6625 151.979 35.6606C154.018 35.6491 156.047 35.9528 157.993 36.561C164.221 38.391 168.77 44.3019 168.55 50.3372C168.455 53.0895 167.272 55.9809 165.217 58.4734C163.356 60.7243 161.188 62.4701 159.111 64.0219C158.184 64.7137 157.257 65.3761 156.352 66.024L155.96 66.3021L155.33 66.7669C154.532 67.3525 153.744 67.9308 152.975 68.5237C150.741 70.2549 148.997 71.686 147.48 73.0292C144.285 75.8248 141.239 78.7849 138.352 81.8974C134.026 86.5566 130.788 90.6997 128.187 94.0303C127.619 94.7623 127.088 95.4321 126.594 96.0579C126.26 96.4825 125.949 96.8704 125.645 97.2438L125.414 97.5256L125.744 97.6866C128.222 98.8954 130.592 100.313 132.828 101.925C135.464 103.8 137.884 105.96 140.044 108.367C142.075 110.631 143.821 113.137 145.242 115.826C145.987 117.277 146.621 118.783 147.136 120.331C147.089 120.45 147.049 120.573 147.019 120.697C146.924 121.151 146.922 121.619 147.014 122.073C147.106 122.528 147.289 122.959 147.554 123.34C147.381 123.7 147.284 124.091 147.268 124.49C147.252 124.889 147.316 125.287 147.458 125.66C147.458 125.814 147.48 125.905 147.499 126C147.556 126.523 147.736 127.024 148.023 127.464C148.223 127.76 148.471 128.021 148.755 128.237C148.814 129.159 148.832 130.048 148.806 130.886C148.763 132.468 148.58 134.043 148.261 135.593C147.371 140.311 145.975 142.577 145.224 143.51L144.821 144.008H144.843C144.1 144.769 143.396 145.568 142.733 146.401L141.433 146.431C140.059 146.431 138.803 146.398 137.66 146.368C136.693 146.343 135.806 146.317 134.997 146.317C133.231 146.317 131.916 146.291 130.967 146.237H130.894L130.828 146.266L130.443 146.434C130.161 146.551 129.839 146.69 129.465 146.881C128.693 147.278 127.974 147.77 127.323 148.345C126.385 149.211 125.514 150.147 124.718 151.145L124.352 151.555C123.333 152.833 122.133 153.958 120.791 154.892C119.861 155.5 118.829 155.934 117.744 156.173C117.253 156.283 116.752 156.338 116.249 156.338Z" fill="white"/>
<path d="M110.395 136.545C110.057 136.196 109.624 135.953 109.15 135.846C108.454 135.64 107.775 135.379 107.121 135.066C106.93 134.967 106.732 134.858 106.535 134.737L106.238 134.55L106.091 134.448C105.52 134.063 105.179 133.441 104.483 133.236C103.476 132.94 103.102 133.708 102.567 134.363C102.362 134.621 102.141 134.866 101.904 135.095C101.58 135.426 101.21 135.708 100.806 135.934C100.455 136.111 100.086 136.252 99.7066 136.354C99.3403 136.453 98.974 136.519 98.6773 136.574C98.1625 136.617 97.6593 136.75 97.1901 136.966C96.9697 137.106 96.7842 137.294 96.6477 137.517C96.5112 137.74 96.4274 137.99 96.4025 138.25C96.3489 138.483 96.3846 138.727 96.5027 138.935C96.6207 139.142 96.8125 139.297 97.0399 139.37C97.7667 139.619 98.5518 139.644 99.2927 139.44C99.798 139.327 100.289 139.159 100.758 138.938C101.31 138.686 101.83 138.369 102.307 137.994C102.806 137.585 103.258 137.122 103.655 136.614L103.945 136.248L104.014 136.161C104.033 136.135 104.014 136.142 104.014 136.131V136.098C104.042 136.052 104.072 136.008 104.106 135.967L104.143 135.919C104.143 135.919 104.168 135.879 104.179 135.897C104.238 135.974 104.292 136.055 104.34 136.139C104.34 136.139 104.34 136.139 104.34 136.161L104.414 136.234L104.564 136.384L104.864 136.669C105.062 136.86 105.267 137.035 105.472 137.207C106.204 137.838 107.033 138.347 107.927 138.715C108.536 138.989 109.207 139.095 109.872 139.023C110.081 139.005 110.277 138.915 110.426 138.767C110.575 138.619 110.667 138.423 110.685 138.214C110.802 137.409 110.663 136.911 110.395 136.545Z" fill="black"/>
<path d="M222.906 129.177L222.745 129.232L222.419 129.346L221.767 129.565L220.474 130.008L217.91 130.897L216.251 131.476L215.716 131.659C216.339 129.536 216.815 126.681 217.284 123.241C217.35 122.736 217.416 122.216 217.481 121.685C217.547 121.155 217.617 120.525 217.646 119.855C217.684 119.121 217.646 118.385 217.533 117.659C217.395 116.77 217.08 115.917 216.606 115.152C216.076 114.317 215.341 113.631 214.47 113.161C213.656 112.74 212.763 112.491 211.848 112.429C210.297 112.349 208.744 112.544 207.262 113.004L203.247 114.219C201.902 114.629 200.521 115.006 199.119 115.401C196.302 116.151 193.368 116.865 190.327 117.465C187.287 118.066 184.312 118.563 181.422 118.955C178.532 119.347 175.737 119.661 173.074 119.914C170.411 120.166 167.869 120.335 165.495 120.485L158.902 120.851C156.883 120.979 155.059 121.052 153.458 121.217C152.107 121.316 149.264 121.458 147.729 121.63C147.142 119.64 146.364 117.711 145.407 115.87C143.982 113.162 142.228 110.64 140.183 108.363C138.01 105.941 135.575 103.766 132.923 101.877C130.671 100.258 128.287 98.8318 125.795 97.6134C126.099 97.2474 126.414 96.8485 126.747 96.4239C129.454 93.0092 133.205 87.973 138.491 82.2817C141.371 79.171 144.413 76.2144 147.605 73.4245C149.315 71.9093 151.158 70.4233 153.099 68.93C154.066 68.198 155.066 67.466 156.081 66.7157C157.096 65.9654 158.169 65.2224 159.231 64.4319C161.352 62.8434 163.528 61.083 165.389 58.8357C167.25 56.5885 168.686 53.7117 168.792 50.5239C169.019 44.1408 164.191 38.2556 158.034 36.4621C155.014 35.5411 151.827 35.3024 148.704 35.7631C145.735 36.2163 142.853 37.1249 140.161 38.4568C137.594 39.7013 135.142 41.171 132.835 42.8489C131.736 43.6906 130.583 44.4592 129.539 45.3303L127.974 46.626C127.454 47.0505 126.938 47.4788 126.462 47.9399C122.713 51.3078 119.323 55.0535 116.344 59.1175C113.76 62.6745 111.506 66.4601 109.612 70.427C108.038 73.6962 106.744 77.0926 105.743 80.5798C104.987 83.2164 104.442 85.9089 104.113 88.6318C104.003 89.7518 103.93 90.7473 103.89 91.611C103.89 91.6916 103.89 91.7574 103.89 91.8343C102.879 91.7428 101.893 91.6696 100.959 91.6147C98.7945 91.4902 96.8384 91.4939 95.1205 91.5415C93.9996 91.5854 92.9922 91.6623 92.0874 91.7611C91.6992 86.9372 89.9885 78.7461 87.4793 68.0699C85.4536 59.4396 82.9115 49.1916 80.1349 37.8017C79.4279 34.9469 78.7612 32.0555 77.9883 29.0177C77.2154 25.9799 76.1898 22.8286 74.3253 19.9263C73.3783 18.4516 72.2009 17.1381 70.838 16.0357C69.4501 14.9222 67.8883 14.0443 66.2152 13.4371C62.7829 12.1608 59.0133 12.1169 55.5521 13.3126C52.0969 14.5054 49.1445 16.8261 47.171 19.9006C45.2515 22.9458 44.4859 26.4667 44.4054 29.8192C44.3836 33.0913 44.8578 36.3478 45.812 39.478C46.6801 42.5158 47.768 45.334 48.79 48.0973C52.944 59.1102 57.0246 68.8605 60.4569 77.0113C63.8892 85.1621 66.7684 91.7355 68.9406 96.1897L69.2263 96.7643C69.0285 96.8412 68.8343 96.918 68.6255 97.0059C67.5322 97.485 66.4819 98.0568 65.4863 98.7151C64.2811 99.5003 63.1296 100.365 62.0393 101.303C60.7953 102.375 59.6185 103.523 58.5155 104.739C57.2951 106.072 56.1691 107.489 55.1455 108.978C54.0301 110.567 53.058 112.253 52.2406 114.014C51.4209 115.77 50.7542 117.593 50.2479 119.464C49.7813 121.211 49.441 122.989 49.2296 124.785C49.0508 126.42 48.9933 128.065 49.0574 129.708C49.0574 130.484 49.1673 131.227 49.2223 131.944C49.3322 132.654 49.4128 133.346 49.5483 133.99C49.7728 135.159 50.095 136.308 50.5117 137.423C50.7058 137.91 50.9 138.36 51.0905 138.766C51.2589 139.078 51.4238 139.356 51.585 139.612C48.4164 139.085 45.3577 138.536 42.4273 137.98C39.0316 137.306 35.8008 136.68 32.7971 136.014C29.7934 135.348 26.9911 134.748 24.438 134.184C21.6834 133.566 19.0643 133.013 16.7456 132.563C19.9471 132.244 23.8922 131.772 28.178 131.465C38.8595 130.66 47.5922 130.908 47.442 129.013C47.182 125.572 38.691 128.475 28.0278 129.28C17.3646 130.085 8.56594 129.13 8.77839 131.926C8.78813 132.033 8.82222 132.137 8.87809 132.229C8.93395 132.321 9.01011 132.399 9.10075 132.457C9.15543 132.518 9.22129 132.569 9.29488 132.607C10.9579 133.492 13.3242 134.719 15.1558 135.169C16.5807 135.535 18.0093 135.882 19.4416 136.212C23.0131 137.032 26.6029 137.76 30.2 138.444C34.5664 139.274 38.9449 140.039 43.3357 140.739C48.2809 141.535 53.237 142.267 58.2041 142.935C60.2701 143.211 62.3458 143.476 64.4313 143.729C69.3984 144.359 74.2117 144.886 78.8272 145.336L79.0799 145.494C81.7063 147.21 83.3803 150.036 85.7357 152.107C86.9198 153.197 88.3441 153.993 89.8933 154.431C91.4541 154.864 93.1202 154.701 94.5673 153.974C97.0436 152.642 98.1242 149.534 97.8641 146.738V146.668C102.425 146.917 106.505 147.056 109.952 147.1C109.764 147.97 109.674 148.857 109.685 149.746C109.707 152.389 111.124 155.262 113.85 156.375C115.098 156.865 116.467 156.964 117.773 156.657C118.893 156.407 119.959 155.958 120.919 155.332C122.751 154.109 123.886 152.685 124.894 151.533C125.678 150.546 126.535 149.62 127.458 148.762C128.092 148.204 128.792 147.726 129.542 147.338C130.099 147.053 130.546 146.892 130.898 146.727C131.788 146.778 133.095 146.811 134.927 146.811C136.696 146.811 138.857 146.925 141.37 146.925C143.88 146.862 146.74 146.822 149.894 146.606C151.473 146.515 153.129 146.423 154.847 146.262C156.565 146.101 158.356 145.991 160.202 145.768C163.898 145.402 167.84 144.893 171.972 144.271C174.034 143.945 176.155 143.645 178.305 143.246L181.569 142.672L184.884 142.024C189.345 141.167 193.932 140.106 198.617 138.979C200.95 138.386 203.258 137.797 205.522 137.182C207.785 136.567 210.016 135.956 212.185 135.271L215.415 134.29C215.95 134.137 216.478 133.961 217.005 133.789L218.416 133.328C218.555 133.291 218.69 133.247 218.782 133.229C218.731 133.35 218.676 133.467 218.624 133.595L217.525 136.256C217.13 137.178 216.76 138.086 216.361 138.986C215.584 140.776 214.8 142.503 214.024 144.161C212.463 147.455 210.925 150.522 209.459 153.271C207.994 156.02 206.624 158.479 205.397 160.631C204.17 162.783 203.115 164.61 202.236 166.143C201.752 166.992 201.346 167.728 201.009 168.369C200.075 169.225 196.8 171.549 194.415 172.512C189.653 174.437 182.792 177.27 173.972 179.74C171.774 180.355 169.444 180.952 167.012 181.486L159.235 183.137C156.318 183.755 153.461 184.627 150.696 185.743C147.65 187 144.856 188.795 142.447 191.042C137.238 195.891 134.083 202.547 133.627 209.646C133.517 211.52 133.66 213.399 134.051 215.235C134.257 216.193 134.548 217.131 134.92 218.038C135.295 218.98 135.774 219.878 136.348 220.714C137.526 222.465 139.131 223.888 141.011 224.85C142.851 225.768 144.854 226.313 146.905 226.453C150.975 226.757 154.719 225.699 158.081 224.575C161.444 223.452 164.627 222.229 167.792 220.999C174.103 218.544 180.107 215.949 185.741 213.313C187.455 212.497 189.173 211.685 190.869 210.795C189.928 215.685 188.759 222.204 188.21 226.036C187.415 231.624 186.609 236.693 186.411 240.401C186.378 241.005 186.364 241.554 186.364 242.081L166.107 243.691L158.781 244.087C152.92 244.405 146.239 244.742 138.846 244.954C136.997 245.035 135.106 245.071 133.169 245.089L127.238 245.185C125.22 245.221 123.161 245.185 121.062 245.185C118.963 245.185 116.824 245.203 114.652 245.133C110.304 245.02 105.802 244.958 101.172 244.705C96.5381 244.537 91.7761 244.189 86.8859 243.86C77.1238 243.076 66.8929 242.008 56.3433 240.456C45.7936 238.904 34.9034 236.862 23.9398 234.355C21.2768 233.678 18.7016 232.803 16.7382 231.288C14.7748 229.772 13.621 227.628 13.0752 225.095C12.5294 222.562 12.3938 219.828 12.1154 217.123C11.837 214.419 11.6173 211.732 11.3828 209.071C10.4378 198.399 9.50734 188.151 8.63186 178.357C7.75639 168.563 6.9432 159.273 6.1703 150.574C5.77957 146.223 5.40226 142.026 5.0384 137.983C4.81884 136.081 4.69658 134.17 4.67209 132.255C4.62859 130.632 4.90361 129.015 5.48164 127.497C5.96548 126.291 6.8993 125.32 8.08607 124.789C9.26558 124.251 10.7857 124.057 12.3645 123.969L21.7786 123.519C27.6761 123.215 32.7678 122.889 36.8997 122.531C45.1929 121.799 49.7608 120.946 49.7205 119.826C49.6875 118.988 45.072 118.655 36.7495 118.68C32.5883 118.68 27.504 118.794 21.5991 118.97C18.6284 119.061 15.5331 119.153 12.1008 119.295C10.3425 119.405 8.31317 119.555 6.15563 120.503C3.90024 121.522 2.1177 123.361 1.1702 125.645C0.347067 127.742 -0.0477453 129.982 0.00901956 132.233C0.0475401 134.305 0.194267 136.373 0.448592 138.43C0.858855 142.468 1.28499 146.66 1.727 151.006C2.62445 159.694 3.58417 168.98 4.59152 178.748C5.59886 188.517 6.64648 198.776 7.73441 209.408C8.00548 212.068 8.27655 214.752 8.54762 217.46C8.68682 218.819 8.82479 220.182 8.96155 221.548C9.10023 223.002 9.32528 224.447 9.63554 225.874C9.9715 227.433 10.5356 228.934 11.3096 230.329C12.1454 231.784 13.2667 233.057 14.6063 234.069C17.2511 236.075 20.2548 236.997 23.09 237.729C34.288 240.291 45.1526 242.377 55.7828 244.098C66.413 245.818 76.6953 247.026 86.5233 247.981C91.4464 248.402 96.2414 248.841 100.915 249.079C105.586 249.416 110.128 249.562 114.516 249.749C116.714 249.855 118.872 249.851 120.989 249.902C123.106 249.954 125.191 250.005 127.216 249.998L133.213 249.972C135.165 249.972 137.081 249.95 138.945 249.884C146.418 249.716 153.173 249.361 159.092 248.914L162.114 248.665L162.415 248.64L164.382 248.471L188.496 246.407C188.976 246.404 189.445 246.262 189.846 245.999C190.247 245.735 190.563 245.361 190.756 244.921C191.225 243.929 191.36 242.476 191.36 240.672C191.36 238.867 191.247 236.704 191.221 234.296C191.221 233.096 191.221 231.829 191.298 230.526C191.375 229.223 191.488 227.873 191.664 226.5C191.84 225.128 192.107 223.799 192.397 222.526C192.686 221.252 192.983 220.026 193.28 218.866C193.825 216.812 195.587 210.111 196.291 207.384C198.003 206.059 199.554 204.537 200.91 202.849C202.654 200.618 204.14 198.197 205.338 195.632C206.415 193.346 207.369 191.004 208.196 188.616C208.983 186.368 209.661 184.257 210.313 182.233C210.965 180.209 211.518 178.254 211.98 176.399C212.825 173.184 213.28 169.88 213.335 166.557C213.335 163.772 212.379 157.184 211.87 155.796L211.771 155.544C211.921 155.262 212.067 154.991 212.218 154.706C213.683 151.895 215.177 148.766 216.679 145.362C217.412 143.656 218.177 141.885 218.917 140.047C219.284 139.132 219.65 138.192 220.016 137.244L221.163 134.21C221.764 132.563 222.374 130.894 222.994 129.203C223.042 129.115 222.958 129.163 222.906 129.177ZM94.9007 149.088C94.6659 149.967 94.0968 150.719 93.3146 151.185C92.9278 151.37 92.5081 151.476 92.0798 151.497C91.6516 151.519 91.2233 151.455 90.82 151.309C90.0154 151.013 89.2782 150.558 88.6515 149.973C86.7943 148.345 85.4463 146.218 83.6771 144.483C81.9078 142.749 79.4352 141.424 77.0286 141.995C76.8183 142.031 76.6182 142.111 76.4418 142.231C76.2655 142.351 76.1171 142.508 76.0066 142.69C73.9138 142.514 71.7868 142.313 69.6255 142.086C73.3129 139.392 77.7433 137.901 82.3107 137.819C84.9738 137.782 87.6844 138.254 90.0032 139.531C92.3219 140.809 94.2523 142.961 94.9117 145.534C95.2381 146.697 95.2343 147.927 94.9007 149.088ZM134.905 144.381C132.044 144.246 130.33 144.227 129.337 144.286H129.29C129.132 144.286 128.989 144.308 128.868 144.322C128.747 144.337 128.67 144.322 128.564 144.344C127.321 144.577 126.152 145.102 125.154 145.878C123.978 146.815 122.926 147.897 122.022 149.099C121.062 150.274 120.103 151.536 118.956 152.393C117.809 153.249 116.238 153.857 114.949 153.443C113.659 153.03 112.505 151.481 112.425 149.622C112.344 147.763 112.963 145.596 114.011 143.707C114.562 142.788 115.209 141.929 115.941 141.145C116.665 140.391 117.463 139.71 118.322 139.114C119.157 138.559 120.042 138.085 120.967 137.698C121.849 137.34 122.766 137.076 123.703 136.911C125.414 136.611 127.168 136.672 128.854 137.09C130.334 137.434 131.76 137.979 133.092 138.712C134.035 139.237 134.926 139.85 135.755 140.542C136.461 141.065 137.1 141.673 137.656 142.353C138.074 142.924 138.238 143.631 138.553 144.253C137.341 144.368 136.123 144.411 134.905 144.381ZM141.275 144.063H141.14C141.026 143.273 140.84 142.497 140.583 141.742C140.118 140.487 139.407 139.337 138.491 138.36C137.395 137.249 136.132 136.316 134.747 135.593C133.102 134.724 131.331 134.116 129.498 133.789C128.997 133.693 128.491 133.626 127.982 133.588C127.451 133.531 126.918 133.508 126.385 133.518C125.83 133.523 125.276 133.556 124.725 133.617C124.18 133.708 123.626 133.771 123.07 133.917C121.944 134.18 120.848 134.556 119.799 135.041C118.717 135.554 117.686 136.167 116.718 136.871C115.729 137.607 114.812 138.434 113.978 139.341C113.13 140.287 112.378 141.315 111.732 142.408C111.442 142.935 111.174 143.47 110.93 144.011C109.221 143.965 107.355 143.923 105.333 143.887C102.809 143.836 100.044 143.792 97.0875 143.697C96.0516 141.178 94.2781 139.031 91.9995 137.537C88.8676 135.469 85.0397 134.609 81.2887 134.609C78.4652 134.574 75.6631 135.103 73.0468 136.164C70.4248 137.235 68.1495 139.008 66.4716 141.288C66.3749 141.422 66.2926 141.565 66.2262 141.716L64.6584 141.537C61.2115 141.102 57.8525 140.615 54.5887 140.099C54.5579 139.629 54.4881 139.162 54.3799 138.704C54.3066 138.375 54.2114 138.016 54.0941 137.632C53.9769 137.248 53.8854 136.816 53.7535 136.366C53.5081 135.458 53.237 134.426 52.9879 133.273C52.856 132.698 52.7681 132.083 52.6216 131.443C52.4751 130.802 52.4238 130.14 52.3725 129.444C52.2246 127.967 52.1817 126.481 52.2443 124.998C52.3265 123.353 52.5471 121.719 52.9036 120.111C53.2887 118.389 53.8573 116.713 54.5996 115.112C55.344 113.516 56.2682 112.011 57.3543 110.625C58.3627 109.315 59.4776 108.091 60.6877 106.965C61.7768 105.932 62.9292 104.967 64.1383 104.077C65.2775 103.25 66.3654 102.514 67.3911 101.903C68.4167 101.292 69.3545 100.754 70.186 100.3L71.3472 99.6594C71.7135 99.4764 72.0358 99.2934 72.3252 99.1177C72.6146 98.942 72.8967 98.7517 73.1274 98.5943V98.4882L73.175 98.4662C73.1457 98.3601 73.1091 98.2393 73.0762 98.1258C73.0432 98.0124 73.0505 97.9428 73.0395 97.8477C73.0395 97.9392 73.0652 98.0307 73.0762 98.1258V98.0819C73.0542 97.9904 73.0322 97.8953 73.0175 97.8037C72.9642 97.6857 72.9213 97.5632 72.8893 97.4378C72.7758 97.0718 72.6549 96.6838 72.523 96.2775C72.5136 96.2426 72.5062 96.2072 72.5011 96.1714C72.3692 95.7688 72.23 95.3516 72.0798 94.9124C70.4571 90.2019 67.7464 83.5334 64.2482 75.3862C60.7499 67.2391 56.4605 57.6023 52.1161 46.7797C51.0172 44.0603 49.9183 41.2897 49.0611 38.4935C48.1346 35.7035 47.6429 32.7878 47.6032 29.8485C47.6288 26.9205 48.2699 23.9925 49.801 21.5293C51.378 19.0362 53.7578 17.1541 56.5484 16.1931C59.3321 15.2296 62.3672 15.2815 65.1163 16.3395C66.4611 16.8396 67.7128 17.5608 68.8197 18.4732C69.903 19.3758 70.8332 20.4473 71.5743 21.6465C73.0908 24.0657 73.9663 26.9205 74.6586 29.8156C75.3509 32.7106 75.948 35.7118 76.5744 38.5593C79.0579 50.0151 81.2924 60.3327 83.2375 68.9812C85.6221 79.5953 87.5746 87.6912 89.0251 92.2991C87.7394 92.6651 87.0691 93.1739 87.1167 93.7631C87.1643 94.3524 88.4976 94.6671 90.8567 94.7916C92.0362 94.8575 93.4721 94.8904 95.1424 94.9197C96.4208 94.9599 97.8384 94.9819 99.3733 95.0331C100.897 97.9355 104.868 103.349 114.355 106.624C124.396 110.098 130.59 107.038 133.07 105.277C134.898 106.735 136.577 108.37 138.081 110.16C139.893 112.302 141.416 114.672 142.612 117.209C143.661 119.5 144.416 121.914 144.858 124.394C145.249 126.546 145.395 128.735 145.293 130.919C145.221 132.711 144.986 134.492 144.59 136.241C144.436 137.017 144.206 137.705 144.048 138.379C143.909 138.792 143.784 139.18 143.682 139.557C143.649 139.652 142.634 142.646 142.143 144.019C141.839 144.033 141.55 144.044 141.275 144.063ZM212.807 119.489C212.767 119.936 212.697 120.415 212.621 120.917C212.544 121.418 212.456 121.956 212.375 122.458C211.643 127.161 211.214 130.821 211.276 133.104C209.207 133.789 207.071 134.374 204.917 135.019C204.408 135.161 203.891 135.297 203.375 135.44C203.339 135.221 203.283 135.007 203.206 134.799C202.829 133.827 202.187 132.98 201.353 132.354C200.853 131.96 200.3 131.636 199.712 131.392C199.088 131.135 198.438 130.943 197.774 130.821C196.376 130.595 194.957 130.524 193.543 130.608L189.008 130.773C185.818 130.879 182.309 130.967 178.627 130.912C163.902 130.682 151.993 128.888 151.949 131.692C151.916 133.785 163.869 132.874 178.594 133.101C182.276 133.159 185.781 133.269 188.968 133.372L193.496 133.518C194.713 133.523 195.928 133.636 197.126 133.855C197.595 133.95 198.054 134.086 198.499 134.261C198.868 134.404 199.219 134.587 199.547 134.806C200.07 135.148 200.536 135.569 200.928 136.054L200.957 136.091C200.001 136.34 199.045 136.589 198.078 136.823C193.433 137.943 188.877 138.953 184.437 139.751L181.14 140.34L177.898 140.853C175.759 141.219 173.653 141.464 171.605 141.746C167.499 142.273 163.587 142.668 159.924 142.979C158.092 143.162 156.319 143.243 154.616 143.374C152.913 143.506 151.279 143.583 149.718 143.664C148.158 143.744 146.748 143.825 145.37 143.88C146.22 142.825 147.568 140.516 148.458 135.871C148.458 135.871 148.458 135.871 148.458 135.842C148.784 134.276 148.969 132.683 149.011 131.084C149.06 129.273 148.938 127.462 148.645 125.675C150.246 125.733 152.466 125.759 153.634 125.766C155.272 125.737 157.136 125.697 159.191 125.539C161.246 125.382 163.495 125.199 165.906 124.939C168.316 124.679 170.88 124.342 173.572 123.954C176.265 123.567 179.089 123.113 181.997 122.597C184.906 122.081 187.928 121.528 191.005 120.913C194.082 120.298 197.078 119.661 199.968 119.017L204.21 118.022L206.265 117.517L207.272 117.268L208.185 117.052C209.195 116.798 210.242 116.715 211.28 116.806C212.104 116.949 212.379 117.172 212.577 117.538C212.774 117.904 212.884 118.589 212.807 119.489ZM209.188 166.337C208.755 169.317 208.12 172.264 207.287 175.158C206.8 176.882 206.229 178.73 205.591 180.703C204.954 182.676 204.269 184.802 203.536 186.961C202.049 191.266 200.305 195.914 197.28 199.965C195.711 202.043 193.799 203.839 191.628 205.276C189.356 206.81 186.708 208.145 183.964 209.54C178.488 212.303 172.638 215.012 166.455 217.544C163.371 218.811 160.18 220.044 156.953 221.204C153.726 222.365 150.451 223.21 147.206 222.957C145.618 222.854 144.067 222.434 142.645 221.72C141.294 221.028 140.146 219.998 139.312 218.73C137.627 216.197 137.114 212.914 137.304 209.829C137.544 206.742 138.396 203.734 139.81 200.979C141.166 198.349 142.99 195.986 145.191 194.007C147.285 192.142 149.7 190.672 152.319 189.67C154.872 188.714 157.502 187.979 160.18 187.474C162.821 186.936 165.44 186.508 167.982 185.973C170.525 185.439 172.939 184.875 175.228 184.238C184.386 181.735 191.474 178.591 196.075 175.967C197.879 174.994 199.572 173.83 201.126 172.493C202.979 170.718 205.331 166.755 205.353 166.249C206.181 165.071 207.078 163.709 208.027 162.154C208.434 161.488 208.855 160.778 209.276 160.046C209.316 162.319 209.364 164.965 209.177 166.345L209.188 166.337Z" fill="black"/>
<path d="M157.576 197.345C155.052 195.515 152.008 195.515 149.275 196.924C145.685 198.783 142.586 202.366 141.879 206.403C141.52 208.369 141.711 210.396 142.433 212.259C143.29 214.362 144.877 216.086 146.902 217.116C147.999 217.671 149.207 217.975 150.436 218.006C151.689 218.02 152.928 217.752 154.063 217.222C156.061 216.243 157.767 214.757 159.008 212.911C160.194 211.248 160.995 209.343 161.352 207.333C161.69 205.394 161.489 203.4 160.77 201.568C160.132 199.884 159.023 198.418 157.576 197.345ZM155.935 210.817C155.165 212.188 154.007 213.3 152.605 214.012C151.978 214.321 151.284 214.467 150.587 214.437C149.889 214.407 149.21 214.202 148.612 213.84C147.475 213.165 146.63 212.092 146.242 210.828C145.656 208.812 146.392 206.542 147.433 204.8C148.005 203.876 148.656 203.003 149.378 202.191C149.993 201.459 150.737 200.804 151.693 200.61C152.539 200.467 153.407 200.631 154.143 201.071C155.125 201.642 155.932 202.47 156.476 203.466C157.02 204.462 157.281 205.588 157.231 206.722C157.139 208.172 156.694 209.578 155.935 210.817Z" fill="black"/>
<path d="M222.28 17.3351C221.889 15.3196 221.178 13.3796 220.174 11.5889C219.21 9.87989 218.002 8.32024 216.588 6.95896C213.95 4.41008 210.769 2.49066 207.283 1.34452C205.664 0.791005 203.99 0.40948 202.291 0.206257C201.459 0.0854771 200.628 0.0561983 199.807 0.0159383C198.987 -0.0243217 198.155 0.0159372 197.386 0.0891372C194.495 0.302204 191.66 0.996169 188.997 2.1424C186.849 3.05216 184.854 4.28659 183.082 5.8024C181.747 6.92432 180.639 8.29084 179.818 9.8284C179.173 11.135 178.961 12.3611 179.188 13.4664C179.415 14.5718 180.067 15.5453 181.148 16.4384C181.862 17.0543 182.768 17.4025 183.712 17.4229C184.688 17.408 185.649 17.1807 186.529 16.7568C188.532 15.904 190.855 14.2387 193.855 12.8479C195.442 12.0872 197.118 11.5266 198.844 11.1789C199.309 11.0655 199.738 11.0399 200.199 10.963C200.664 10.941 201.133 10.8788 201.62 10.8935C202.631 10.877 203.641 10.9715 204.631 11.1753C206.742 11.5683 208.724 12.4718 210.404 13.8068C211.238 14.4715 211.955 15.2706 212.525 16.1712C213.074 17.049 213.455 18.0206 213.65 19.037C213.856 20.1084 213.883 21.2067 213.73 22.287C213.581 23.3094 213.26 24.2992 212.782 25.215C212.373 26.0071 211.825 26.7188 211.163 27.3159C210.998 27.4293 210.84 27.5465 210.69 27.6819C210.54 27.8173 210.357 27.8722 210.203 27.9783C209.827 28.2027 209.429 28.3891 209.016 28.5347C207.185 29.285 204.305 29.7754 201.104 31.1918C199.409 31.9626 197.843 32.991 196.463 34.2406C195.207 35.4092 194.129 36.7558 193.265 38.2373C191.814 40.6819 190.996 43.4493 190.884 46.2893C190.778 48.4278 191.184 50.5607 192.067 52.5113C192.869 54.1071 193.866 55.1392 194.825 55.593C195.235 55.8111 195.697 55.9118 196.161 55.884C196.624 55.8562 197.071 55.7011 197.452 55.4357C198.648 54.6461 199.707 53.667 200.587 52.5369C201.215 51.7613 201.745 50.912 202.166 50.0079C202.53 49.2036 202.812 48.3649 203.009 47.5044C203.236 46.4853 203.554 45.4884 203.957 44.5252C204.183 44.001 204.46 43.5008 204.785 43.0319C204.953 42.7967 205.138 42.5741 205.338 42.3658C205.579 42.0962 205.852 41.8577 206.152 41.6558C207.071 41.0489 208.04 40.5212 209.049 40.0783C210.258 39.5037 211.719 38.8888 213.313 37.9958C215.069 37.0309 216.655 35.786 218.009 34.3101C219.347 32.7826 220.417 31.0403 221.174 29.1569C222.682 25.4069 223.067 21.2995 222.28 17.3351Z" fill="#E36359"/>
<path d="M198.771 66.0131C198.016 65.151 197.063 64.4852 195.994 64.0733C194.664 63.5865 193.459 63.656 192.602 64.1318C191.966 64.0354 191.317 64.0867 190.704 64.2819C189.518 64.6823 188.491 65.4519 187.774 66.4779C186.847 67.779 186.354 69.3387 186.364 70.9358C186.367 71.8789 186.554 72.8124 186.913 73.6844C187.258 74.519 187.77 75.2739 188.419 75.9024C188.983 76.4564 189.64 76.9073 190.36 77.2346C191.021 77.5415 191.723 77.7499 192.444 77.8532C194.025 78.1189 195.65 77.8456 197.056 77.0773C198.387 76.3008 199.419 75.1011 199.987 73.6698C200.506 72.4301 200.684 71.0743 200.503 69.7426C200.297 68.3586 199.696 67.0635 198.771 66.0131Z" fill="#E36359"/>
<path d="M52.9037 117.366C52.9037 117.366 82.9005 107.265 115.758 112.389C148.616 117.513 145.872 122 145.872 122L146.869 138.225C146.869 138.225 146.532 134.052 114.48 130.539C82.428 127.025 50.574 134.426 50.574 134.426L51.4568 122.948L52.9037 117.366Z" fill="#E36359"/>
<path d="M27.1597 131.11C27.1597 131.11 38.9621 135.615 44.8669 133.573C50.7718 131.531 52.3469 130.886 52.3469 130.886L53.0465 125.861L52.0941 122.084C52.0941 122.084 49.5007 115.218 42.453 111.635C35.4052 108.052 30.4344 107.609 30.4344 107.609C30.4344 107.609 37.6067 123.036 43.2808 123.713C43.2808 123.735 28.6725 126.634 27.1597 131.11Z" fill="#E36359"/>
<path d="M78.058 112.023C78.3803 112.484 77.4609 113.015 76.3693 113.776C75.2777 114.537 74.5378 115.394 74.1055 114.779C73.633 114.102 74.3033 113.212 75.3949 112.451C76.4865 111.69 77.2741 110.925 78.058 112.023Z" fill="black"/>
<path d="M128.96 115.954C128.634 116.32 128.018 115.635 127.176 114.856C126.333 114.076 125.48 113.615 125.92 113.143C126.359 112.671 127.271 113.018 128.117 113.794C128.964 114.57 129.747 115.101 128.96 115.954Z" fill="black"/>
<path d="M56.1748 126.07C56.2078 126.919 52.9916 126.915 48.9476 127.076C44.9036 127.237 41.5775 127.808 41.5336 126.659C41.4823 125.404 44.6765 124.745 48.7205 124.584C52.7645 124.423 56.0906 124.017 56.1748 126.07Z" fill="black"/>
<path d="M56.1272 130.323C56.5264 131.015 53.856 132.413 50.5776 134.312C47.2992 136.212 44.7827 138.122 44.2478 137.196C43.6581 136.179 46.0208 134.239 49.2992 132.343C52.5776 130.447 55.1601 128.665 56.1272 130.323Z" fill="black"/>
<path d="M78.5744 96.4203L83.732 94.3597L75.893 62.3933C75.893 62.3933 71.8636 44.6899 67.0467 46.2344C62.2298 47.7789 65.3397 63.2022 78.5744 96.4203Z" fill="#F7C1C7"/>
<path d="M148.253 57.5804C148.158 54.7329 143.161 56.1164 141.407 57.0131C138.732 58.4385 136.233 60.1703 133.96 62.1737C125.169 69.7353 118.619 83.0577 114.615 93.8327C116.154 94.3744 117.674 94.971 119.172 95.6115C122.72 88.836 126.878 82.3971 131.594 76.3745C135.854 71.0053 140.733 66.4925 145.781 61.8882C146.638 61.1013 147.528 60.2742 147.931 59.1872C148.141 58.6775 148.251 58.1318 148.253 57.5804Z" fill="#F7C1C7"/>
<path d="M168.096 95.4724C168.569 96.1787 165.818 97.8514 162.455 100.099C159.092 102.346 156.543 104.553 155.909 103.605C155.213 102.562 157.594 100.333 160.96 98.0892C164.327 95.8457 166.953 93.7631 168.096 95.4724Z" fill="black"/>
<path d="M158.33 109.611C158.448 108.879 160.927 108.908 164.074 108.802C167.221 108.696 169.876 108.242 169.719 109.219C169.547 110.295 166.972 110.833 163.825 110.943C160.678 111.053 158.048 111.368 158.33 109.611Z" fill="black"/>
<path d="M157.037 88.1523C157.715 88.6683 155.66 91.1425 153.213 94.3743C150.766 97.6061 149.077 100.508 148.169 99.8204C147.169 99.0591 148.696 96.1787 151.143 92.9615C153.59 89.7444 155.4 86.9115 157.037 88.1523Z" fill="black"/>
<path d="M84.9408 135.765C85.3071 135.765 85.6734 135.765 86.0397 135.802C87.0374 135.825 88.0308 135.941 89.0068 136.15C88.617 131.751 88.9887 127.319 90.1057 123.047H75.9003C75.9003 123.047 74.4351 130.319 74.49 137.416C74.601 137.328 74.7245 137.256 74.8563 137.204C75.0358 137.138 75.2226 137.083 75.3985 137.024L75.8014 136.867C75.892 136.834 75.9871 136.814 76.0835 136.808C78.1186 136.26 80.2058 135.926 82.3107 135.813C82.362 135.813 82.4169 135.791 82.4719 135.787C83.2917 135.692 84.1194 135.685 84.9408 135.765Z" fill="#ABD9E2"/>
<path d="M94.0912 122.78C93.9959 124.723 89.212 123.537 83.2522 123.215C77.2924 122.893 72.4058 123.735 72.5121 121.608C72.6513 118.743 77.4023 120.653 83.3621 120.975C89.3219 121.297 94.2597 119.251 94.0912 122.78Z" fill="black"/>
<path d="M113.846 140.732C114.249 140.204 114.699 139.714 115.19 139.268L115.63 138.902C118.927 136.098 123.689 134.085 128.084 134.934C128.396 134.977 128.703 135.051 129 135.154C128.808 130.874 128.347 126.61 127.619 122.388H113.392C114.504 126.866 114.888 131.494 114.531 136.095C114.461 136.922 114.363 137.753 114.234 138.576C114.124 139.275 113.905 140.022 113.846 140.732Z" fill="#ABD9E2"/>
<path d="M111.707 122.578C111.681 124.547 116.037 123.632 121.396 123.676C126.755 123.72 131.081 124.859 131.11 122.688C131.15 119.786 126.784 121.433 121.425 121.407C116.066 121.382 111.751 119.006 111.707 122.578Z" fill="black"/>
<path d="M222.906 129.177L222.745 129.232L222.419 129.346L221.767 129.565L220.474 130.008L217.91 130.897L216.251 131.476L215.716 131.659C216.339 129.536 216.815 126.681 217.284 123.241C217.35 122.736 217.416 122.216 217.481 121.685C217.547 121.155 217.617 120.525 217.646 119.855C217.684 119.121 217.646 118.385 217.533 117.659C217.395 116.77 217.08 115.917 216.606 115.152C216.077 114.317 215.342 113.632 214.47 113.165C213.658 112.736 212.765 112.48 211.848 112.414C210.297 112.335 208.744 112.529 207.262 112.989L203.247 114.219C201.902 114.629 200.521 115.006 199.119 115.401C196.302 116.151 193.368 116.865 190.327 117.465C187.287 118.066 184.312 118.563 181.422 118.955C178.532 119.347 175.737 119.661 173.074 119.914C170.411 120.166 167.869 120.335 165.495 120.485L158.902 120.851C156.883 120.979 155.059 121.052 153.458 121.217C152.107 121.316 149.264 121.458 147.729 121.63C147.142 119.64 146.364 117.711 145.407 115.87C143.982 113.162 142.228 110.64 140.183 108.363C138.01 105.941 135.575 103.766 132.923 101.877C130.672 100.258 128.287 98.8318 125.795 97.6134C126.099 97.2474 126.414 96.8485 126.747 96.4239C129.454 93.0092 133.205 87.973 138.491 82.2817C141.371 79.171 144.413 76.2144 147.605 73.4245C149.315 71.9093 151.158 70.4233 153.099 68.93C154.066 68.198 155.067 67.466 156.081 66.7157C157.096 65.9654 158.169 65.2224 159.231 64.4319C161.352 62.8434 163.528 61.083 165.389 58.8357C167.25 56.5885 168.686 53.7117 168.788 50.5239C169.019 44.1408 164.191 38.2556 158.034 36.4621C155.014 35.5411 151.827 35.3024 148.704 35.7631C145.735 36.2163 142.853 37.1249 140.161 38.4568C137.594 39.7013 135.142 41.171 132.835 42.8489C131.736 43.6906 130.583 44.4592 129.539 45.3303L127.974 46.626C127.454 47.0505 126.938 47.4788 126.462 47.9399C122.713 51.3078 119.323 55.0535 116.344 59.1175C113.76 62.6745 111.506 66.4601 109.612 70.427C108.038 73.6962 106.744 77.0926 105.743 80.5798C104.987 83.2164 104.442 85.9089 104.113 88.6318C104.003 89.7518 103.93 90.7473 103.89 91.611C103.89 91.6916 103.89 91.7574 103.89 91.8343C102.879 91.7428 101.893 91.6696 100.959 91.6147C98.7945 91.4902 96.8384 91.4939 95.1205 91.5415C93.9996 91.5854 92.9922 91.6623 92.0875 91.7611C91.6992 86.9372 89.9885 78.7461 87.4793 68.0699C85.4536 59.4396 82.9115 49.1916 80.1349 37.8017C79.4279 34.9469 78.7612 32.0555 77.9883 29.0177C77.2154 25.9799 76.1898 22.8286 74.3253 19.9299C73.3793 18.4534 72.2019 17.1386 70.838 16.0357C69.4501 14.9222 67.8883 14.0443 66.2152 13.4371C62.7829 12.1608 59.0133 12.1169 55.5521 13.3126C52.0969 14.5054 49.1445 16.8261 47.171 19.9006C45.2515 22.9458 44.4859 26.4667 44.4054 29.8192C44.3836 33.0913 44.8578 36.3478 45.812 39.478C46.6801 42.5158 47.768 45.334 48.79 48.0973C52.944 59.1102 57.0246 68.8605 60.4569 77.0113C63.8892 85.1621 66.7684 91.7355 68.9406 96.1897L69.2263 96.7643C69.0285 96.8412 68.8343 96.918 68.6255 97.0059C67.5329 97.4865 66.4828 98.0583 65.4863 98.7151C64.2811 99.5003 63.1296 100.365 62.0393 101.303C60.7953 102.375 59.6185 103.523 58.5155 104.739C57.2951 106.072 56.1691 107.489 55.1455 108.978C54.0308 110.568 53.0588 112.253 52.2406 114.014C51.4209 115.77 50.7542 117.593 50.2479 119.464C49.7816 121.211 49.4413 122.989 49.2296 124.785C49.0508 126.42 48.9933 128.065 49.0574 129.708C49.0574 130.484 49.1673 131.227 49.2223 131.944C49.3322 132.658 49.4128 133.346 49.5483 133.99C49.7728 135.159 50.095 136.308 50.5117 137.423C50.7058 137.91 50.9 138.36 51.0905 138.766C51.259 139.078 51.4238 139.356 51.585 139.612C48.4164 139.085 45.3577 138.536 42.4273 137.98C39.0316 137.306 35.8008 136.68 32.7971 136.014C29.7934 135.348 26.9912 134.748 24.438 134.184C22.9728 133.855 21.5478 133.547 20.1888 133.262C19.5075 133.145 18.7859 133.006 18.0569 132.823L16.7529 132.563L17.0276 132.534C15.3023 132.003 13.6466 131.212 12.5514 129.99C10.1154 130.253 8.68315 130.766 8.77107 131.911C8.7808 132.018 8.81492 132.122 8.87078 132.214C8.92665 132.306 9.00279 132.384 9.09342 132.442C9.1481 132.504 9.21398 132.555 9.28757 132.592C10.9506 133.478 13.3169 134.704 15.1485 135.154C16.5734 135.52 18.002 135.868 19.4342 136.197C23.0057 137.017 26.5955 137.745 30.1927 138.43C34.559 139.259 38.9376 140.024 43.3284 140.725C48.2736 141.52 53.2297 142.252 58.1968 142.921C60.2628 143.196 62.3385 143.461 64.424 143.715C69.3911 144.344 74.2044 144.871 78.8198 145.322L79.0726 145.479C81.699 147.195 83.373 150.021 85.7284 152.093C86.9125 153.183 88.3367 153.979 89.8859 154.417C91.4468 154.849 93.1129 154.686 94.56 153.959C97.0362 152.627 98.1169 149.52 97.8568 146.723V146.654C102.417 146.903 106.498 147.042 109.945 147.086C109.757 147.955 109.667 148.843 109.677 149.732C109.699 152.374 111.117 155.247 113.842 156.36C115.091 156.851 116.46 156.949 117.766 156.642C118.885 156.393 119.951 155.944 120.912 155.317C122.744 154.095 123.879 152.671 124.887 151.518C125.671 150.532 126.528 149.605 127.451 148.747C128.085 148.19 128.785 147.712 129.535 147.324C130.092 147.038 130.539 146.877 130.89 146.712C131.78 146.764 133.088 146.797 134.92 146.797C136.689 146.797 138.85 146.91 141.363 146.91C143.872 146.848 146.733 146.808 149.887 146.592C151.466 146.5 153.121 146.409 154.839 146.248C156.557 146.086 158.349 145.977 160.195 145.753C163.891 145.387 167.832 144.879 171.964 144.256C174.027 143.931 176.147 143.631 178.298 143.232L181.561 142.657L184.877 142.009C189.338 141.153 193.924 140.091 198.609 138.964C200.943 138.371 203.25 137.782 205.514 137.167C207.778 136.552 210.009 135.941 212.177 135.257L215.408 134.276C215.943 134.122 216.47 133.946 216.998 133.774L218.408 133.313C218.547 133.276 218.683 133.233 218.775 133.214C218.723 133.335 218.668 133.452 218.617 133.58L217.518 136.241C217.122 137.163 216.753 138.071 216.353 138.971C215.577 140.762 214.796 142.487 214.013 144.147C212.456 147.441 210.917 150.508 209.452 153.256C207.987 156.005 206.617 158.465 205.39 160.617C204.163 162.769 203.108 164.595 202.228 166.129C201.745 166.978 201.338 167.713 201.001 168.354C200.067 169.21 196.792 171.534 194.408 172.497C189.646 174.422 182.785 177.255 173.964 179.726C171.766 180.34 169.437 180.937 167.004 181.471L159.228 183.122C156.31 183.741 153.452 184.613 150.685 185.728C147.641 186.986 144.848 188.781 142.44 191.028C137.231 195.877 134.075 202.533 133.619 209.631C133.511 211.51 133.656 213.395 134.052 215.235C134.257 216.193 134.548 217.131 134.92 218.038C135.295 218.98 135.774 219.878 136.348 220.714C137.526 222.465 139.131 223.888 141.011 224.85C142.851 225.768 144.854 226.313 146.905 226.453C150.975 226.757 154.719 225.699 158.081 224.575C161.444 223.452 164.627 222.229 167.792 220.999C174.103 218.544 180.107 215.949 185.741 213.313C187.455 212.497 189.173 211.685 190.869 210.795C189.928 215.685 188.759 222.204 188.21 226.036C187.415 231.624 186.609 236.693 186.411 240.401C186.378 241.005 186.364 241.554 186.364 242.081L166.107 243.691L158.781 244.087C152.92 244.405 146.239 244.742 138.846 244.954C136.997 245.035 135.106 245.071 133.169 245.089L127.238 245.185C125.22 245.221 123.161 245.185 121.062 245.185C118.963 245.185 116.824 245.203 114.652 245.133C110.304 245.02 105.802 244.958 101.172 244.705C96.5381 244.537 91.7761 244.189 86.8859 243.86C77.1238 243.076 66.8929 242.008 56.3433 240.456C45.7937 238.904 34.9034 236.862 23.9398 234.355C21.2768 233.678 18.7016 232.803 16.7382 231.288C14.7748 229.772 13.621 227.628 13.0752 225.095C12.5294 222.562 12.3938 219.828 12.1154 217.123C11.8371 214.419 11.6173 211.732 11.3828 209.071C10.4378 198.399 9.50734 188.151 8.63187 178.357C7.7564 168.563 6.94321 159.273 6.1703 150.574C5.77957 146.223 5.40227 142.026 5.0384 137.983C4.81885 136.081 4.69658 134.17 4.6721 132.255C4.62859 130.632 4.90362 129.015 5.48164 127.497C5.96548 126.291 6.8993 125.32 8.08607 124.789C9.26558 124.251 10.7858 124.057 12.3645 123.969L21.7786 123.519C25.3538 123.336 28.6163 123.143 31.5663 122.941C32.6652 121.949 33.0572 120.379 33.1085 118.71C29.7275 118.754 25.8812 118.845 21.5955 118.97C18.6247 119.061 15.5294 119.153 12.0971 119.295C10.3389 119.405 8.30953 119.555 6.15199 120.503C3.8966 121.522 2.11404 123.361 1.16654 125.645C0.343405 127.742 -0.0514074 129.982 0.00535745 132.233C0.043878 134.305 0.190605 136.373 0.44493 138.43C0.855193 142.468 1.28133 146.66 1.72334 151.006C2.62079 159.694 3.58051 168.98 4.58785 178.748C5.5952 188.517 6.64284 198.776 7.73077 209.408C8.00183 212.068 8.27289 214.752 8.54396 217.46C8.68315 218.819 8.82113 220.182 8.95789 221.548C9.09657 223.002 9.32164 224.447 9.6319 225.874C9.96786 227.433 10.5319 228.934 11.3059 230.329C12.1418 231.784 13.2631 233.057 14.6027 234.069C17.2474 236.075 20.2511 236.997 23.0863 237.729C34.2843 240.291 45.149 242.377 55.7792 244.098C66.4094 245.818 76.6916 247.026 86.5196 247.981C91.4427 248.402 96.2377 248.841 100.912 249.079C105.582 249.416 110.124 249.562 114.513 249.749C116.711 249.855 118.868 249.851 120.985 249.902C123.103 249.954 125.187 250.005 127.213 249.998L133.209 249.972C135.161 249.972 137.077 249.95 138.942 249.884C146.414 249.716 153.169 249.361 159.089 248.914L162.111 248.665L162.411 248.64L164.378 248.471L188.492 246.407C188.972 246.404 189.441 246.262 189.842 245.999C190.243 245.735 190.559 245.361 190.752 244.921C191.221 243.929 191.356 242.476 191.356 240.672C191.356 238.867 191.243 236.704 191.217 234.296C191.217 233.096 191.217 231.829 191.294 230.526C191.371 229.223 191.485 227.873 191.661 226.5C191.836 225.128 192.104 223.799 192.393 222.526C192.682 221.252 192.979 220.026 193.276 218.866C193.822 216.812 195.584 210.111 196.287 207.384C198 206.059 199.55 204.537 200.906 202.849C202.65 200.618 204.136 198.197 205.335 195.632C206.411 193.346 207.365 191.004 208.192 188.616C208.979 186.368 209.657 184.257 210.309 182.233C210.961 180.209 211.514 178.254 211.976 176.399C212.822 173.184 213.279 169.88 213.335 166.557C213.335 163.772 212.379 157.184 211.87 155.796L211.771 155.544C211.921 155.262 212.067 154.991 212.218 154.706C213.683 151.895 215.177 148.766 216.679 145.362C217.412 143.656 218.177 141.885 218.917 140.047C219.284 139.132 219.65 138.192 220.016 137.244L221.163 134.21C221.764 132.563 222.374 130.894 222.994 129.203C223.042 129.115 222.958 129.163 222.906 129.177ZM94.9007 149.088C94.6659 149.967 94.0968 150.719 93.3146 151.185C92.9278 151.37 92.5081 151.476 92.0798 151.497C91.6516 151.519 91.2233 151.455 90.82 151.309C90.0154 151.013 89.2782 150.558 88.6515 149.973C86.7943 148.348 85.4463 146.218 83.6771 144.483C81.9078 142.749 79.4352 141.424 77.0286 141.995C76.8183 142.031 76.6182 142.111 76.4418 142.231C76.2655 142.351 76.1171 142.508 76.0066 142.69C73.9138 142.514 71.7868 142.313 69.6255 142.086C73.3129 139.392 77.7433 137.901 82.3107 137.819C84.9738 137.782 87.6845 138.254 90.0032 139.531C92.3219 140.809 94.2523 142.961 94.9117 145.534C95.2381 146.697 95.2343 147.927 94.9007 149.088ZM134.905 144.381C132.044 144.246 130.33 144.227 129.337 144.286H129.29C129.132 144.286 128.989 144.308 128.868 144.322C128.747 144.337 128.67 144.322 128.564 144.344C127.321 144.577 126.152 145.102 125.154 145.878C123.978 146.815 122.926 147.897 122.022 149.099C121.062 150.274 120.103 151.536 118.956 152.393C117.809 153.249 116.238 153.857 114.949 153.443C113.659 153.03 112.505 151.481 112.425 149.622C112.344 147.763 112.963 145.596 114.011 143.707C114.561 142.787 115.208 141.928 115.941 141.145C116.665 140.391 117.463 139.71 118.322 139.114C119.157 138.559 120.042 138.085 120.967 137.698C121.849 137.34 122.766 137.076 123.703 136.911C125.414 136.611 127.168 136.672 128.854 137.09C130.334 137.434 131.76 137.979 133.092 138.712C134.035 139.237 134.926 139.85 135.755 140.542C136.461 141.065 137.1 141.673 137.656 142.353C138.074 142.924 138.238 143.631 138.553 144.253C137.341 144.368 136.123 144.411 134.905 144.381ZM145.282 130.919C145.21 132.711 144.975 134.492 144.579 136.241C144.425 137.017 144.195 137.705 144.037 138.379C143.898 138.792 143.773 139.18 143.671 139.557C143.638 139.652 142.623 142.646 142.132 144.019C141.85 144.019 141.561 144.044 141.286 144.063H141.151C141.037 143.274 140.851 142.497 140.594 141.742C140.129 140.487 139.418 139.337 138.502 138.36C137.406 137.249 136.143 136.316 134.758 135.593C133.113 134.724 131.342 134.116 129.509 133.789C129.008 133.693 128.502 133.626 127.993 133.588C127.462 133.531 126.929 133.508 126.396 133.518C125.841 133.523 125.287 133.556 124.736 133.617C124.191 133.708 123.637 133.771 123.081 133.917C121.954 134.18 120.857 134.557 119.806 135.041C118.726 135.555 117.696 136.168 116.729 136.871C115.74 137.607 114.823 138.434 113.989 139.341C113.141 140.287 112.389 141.315 111.743 142.408C111.453 142.935 111.185 143.47 110.941 144.011C109.232 143.965 107.366 143.923 105.344 143.887C102.82 143.836 100.055 143.792 97.0985 143.697C96.0619 141.174 94.284 139.025 91.9995 137.533C88.8676 135.462 85.0397 134.605 81.2887 134.605C78.4652 134.57 75.6631 135.099 73.0468 136.161C70.4248 137.231 68.1495 139.004 66.4717 141.285C66.3741 141.419 66.2918 141.564 66.2262 141.716L64.6584 141.533C61.2115 141.098 57.8525 140.611 54.5887 140.095C54.5579 139.625 54.4881 139.159 54.3799 138.701C54.3066 138.371 54.2114 138.013 54.0941 137.628C53.9769 137.244 53.8854 136.812 53.7535 136.362C53.5081 135.454 53.237 134.422 52.9879 133.269C52.856 132.695 52.7681 132.08 52.6216 131.439C52.4751 130.799 52.4238 130.136 52.3725 129.441C52.2246 127.963 52.1817 126.477 52.2443 124.994C52.3265 123.35 52.5471 121.715 52.9037 120.108C53.2887 118.386 53.8573 116.709 54.5997 115.108C55.344 113.513 56.2682 112.007 57.3543 110.621C58.3627 109.311 59.4776 108.087 60.6877 106.961C61.7768 105.928 62.9292 104.963 64.1383 104.073C65.2775 103.246 66.3654 102.511 67.3911 101.899C68.4167 101.288 69.3545 100.75 70.186 100.296L71.3472 99.6557C71.7135 99.4727 72.0358 99.2897 72.3252 99.114C72.6146 98.9384 72.8967 98.748 73.1274 98.5907V98.4845L73.1751 98.4626C73.1458 98.3564 73.1091 98.2356 73.0762 98.1222C73.0432 98.0087 73.0505 97.9392 73.0395 97.844C73.0395 97.9355 73.0652 98.027 73.0762 98.1222V98.0783C73.0542 97.9868 73.0322 97.8916 73.0175 97.8001C72.9642 97.6821 72.9213 97.5596 72.8893 97.4341C72.7758 97.0681 72.6512 96.6801 72.523 96.2739C72.5136 96.239 72.5062 96.2035 72.5011 96.1677C72.3692 95.7651 72.23 95.3479 72.0798 94.9087C70.4571 90.1983 67.7464 83.5298 64.2482 75.3826C60.7499 67.2354 56.4605 57.5986 52.1161 46.776C51.0172 44.0566 49.9183 41.286 49.0611 38.4898C48.135 35.701 47.6433 32.7866 47.6032 29.8485C47.6289 26.9205 48.2699 23.9925 49.801 21.5293C51.378 19.0362 53.7578 17.1541 56.5484 16.1931C59.3321 15.2296 62.3672 15.2815 65.1163 16.3395C66.4611 16.8396 67.7128 17.5608 68.8197 18.4732C69.903 19.3758 70.8332 20.4473 71.5743 21.6465C73.0908 24.0657 73.9663 26.9205 74.6586 29.8156C75.3509 32.7106 75.948 35.7118 76.5744 38.5593C79.0579 50.0151 81.2924 60.3327 83.2375 68.9812C85.6221 79.5953 87.5746 87.6912 89.0251 92.2991C87.7394 92.6651 87.0691 93.1739 87.1167 93.7631C87.1643 94.3524 88.4977 94.6671 90.8567 94.7916C92.0362 94.8575 93.4721 94.8904 95.1424 94.9197C96.4209 94.9599 97.8385 94.9819 99.3733 95.0331C100.897 97.9355 104.868 103.349 114.355 106.624C124.396 110.098 130.59 107.038 133.07 105.281C134.899 106.736 136.578 108.37 138.081 110.16C139.893 112.302 141.416 114.672 142.612 117.209C143.661 119.5 144.416 121.914 144.858 124.394C145.245 126.546 145.388 128.735 145.282 130.919ZM212.807 119.489C212.767 119.936 212.697 120.415 212.621 120.917C212.544 121.418 212.456 121.956 212.375 122.458C211.643 127.161 211.214 130.821 211.276 133.108C209.207 133.789 207.071 134.374 204.917 135.019C204.408 135.161 203.891 135.3 203.375 135.44C203.339 135.221 203.283 135.007 203.206 134.799C202.829 133.827 202.187 132.98 201.353 132.354C200.853 131.96 200.3 131.636 199.712 131.392C199.088 131.135 198.438 130.943 197.774 130.821C196.376 130.595 194.957 130.524 193.543 130.608L189.008 130.773C185.818 130.879 182.309 130.967 178.627 130.912C169.202 130.766 152.557 129.964 147.356 130.14C147.429 130.261 147.489 130.39 147.535 130.524C147.706 130.844 147.787 131.205 147.77 131.567V131.655C147.769 132.111 147.653 132.559 147.433 132.958C152.645 133.255 169.243 132.958 178.594 133.101C182.276 133.159 185.781 133.269 188.968 133.372L193.496 133.518C194.713 133.523 195.928 133.636 197.126 133.855C197.594 133.952 198.054 134.088 198.499 134.261C198.868 134.404 199.219 134.587 199.547 134.806C200.07 135.148 200.536 135.569 200.928 136.054L200.957 136.091C200.001 136.34 199.045 136.589 198.078 136.823C193.433 137.943 188.877 138.953 184.437 139.751L181.14 140.34L177.898 140.853C175.759 141.219 173.653 141.468 171.605 141.746C167.499 142.273 163.587 142.668 159.924 142.979C158.092 143.162 156.319 143.243 154.616 143.374C152.913 143.506 151.279 143.583 149.718 143.664C148.158 143.744 146.744 143.825 145.37 143.88C146.22 142.825 147.568 140.516 148.458 135.871C148.458 135.871 148.458 135.871 148.458 135.842C148.784 134.276 148.969 132.683 149.011 131.084C149.06 129.273 148.938 127.462 148.645 125.675C150.246 125.733 152.466 125.759 153.634 125.766C155.272 125.737 157.136 125.697 159.191 125.539C161.246 125.382 163.495 125.199 165.906 124.939C168.316 124.679 170.88 124.342 173.572 123.954C176.265 123.567 179.089 123.113 181.997 122.597C184.906 122.081 187.928 121.528 191.005 120.913C194.082 120.298 197.078 119.661 199.968 119.017L204.21 118.022L206.265 117.517L207.272 117.268L208.185 117.052C209.195 116.797 210.242 116.716 211.28 116.81C212.104 116.949 212.379 117.176 212.577 117.542C212.774 117.908 212.884 118.589 212.807 119.489ZM209.188 166.337C208.755 169.316 208.119 172.262 207.287 175.154C206.8 176.878 206.229 178.726 205.591 180.703C204.954 182.679 204.269 184.798 203.536 186.958C202.045 191.262 200.305 195.91 197.28 199.962C195.711 202.039 193.799 203.835 191.628 205.272C189.356 206.806 186.708 208.142 183.964 209.536C178.488 212.3 172.638 215.008 166.455 217.541C163.371 218.807 160.18 220.04 156.953 221.201C153.726 222.361 150.451 223.206 147.206 222.954C145.618 222.851 144.067 222.43 142.645 221.717C141.294 221.024 140.146 219.994 139.312 218.727C137.627 216.194 137.114 212.911 137.304 209.825C137.544 206.739 138.396 203.73 139.81 200.975C141.167 198.346 142.99 195.985 145.191 194.007C147.285 192.142 149.7 190.672 152.319 189.67C154.872 188.714 157.502 187.979 160.18 187.474C162.821 186.936 165.44 186.508 167.982 185.973C170.525 185.439 172.939 184.875 175.228 184.238C184.386 181.735 191.474 178.591 196.075 175.967C197.879 174.994 199.572 173.83 201.126 172.493C202.979 170.718 205.331 166.755 205.353 166.249C206.181 165.071 207.078 163.709 208.027 162.154C208.434 161.488 208.855 160.778 209.276 160.046C209.316 162.319 209.364 164.965 209.177 166.348L209.188 166.337Z" fill="black"/>
<path d="M148.253 57.5804C148.158 54.7329 143.161 56.1164 141.407 57.0131C138.732 58.4385 136.233 60.1703 133.96 62.1737C125.169 69.7353 118.619 83.0577 114.615 93.8327C116.154 94.3744 117.674 94.971 119.172 95.6115C122.72 88.836 126.878 82.3971 131.594 76.3745C135.854 71.0053 140.733 66.4925 145.781 61.8882C146.638 61.1013 147.528 60.2742 147.931 59.1872C148.141 58.6775 148.251 58.1318 148.253 57.5804Z" fill="#F7C1C7"/>
</svg>
