<svg width="18" height="14" viewBox="0 0 18 14" fill="none" xmlns="http://www.w3.org/2000/svg">
<g clip-path="url(#clip0_1252_7598)">
<path d="M16.6263 2.42131C15.6835 1.48796 14.3977 0.936326 13.0371 0.881425C11.6655 0.839913 10.3317 1.31284 9.32428 2.19796C9.28816 2.2096 9.24898 2.2096 9.21286 2.19796C9.17674 2.2096 9.13759 2.2096 9.10148 2.19796C8.25919 1.46755 7.19167 1.01419 6.05693 0.904958C5.2866 0.851529 4.51336 0.959876 3.7921 1.22233C3.06163 1.48135 2.39573 1.88162 1.83663 2.39781C1.69764 2.52823 1.58814 2.68421 1.51484 2.85623C1.44108 3.03609 1.40331 3.22745 1.40345 3.42047V11.1551C1.39573 11.402 1.46 11.6461 1.58913 11.8604C1.69839 12.0782 1.87551 12.2588 2.09652 12.3776C2.30278 12.5043 2.54407 12.5697 2.78963 12.5657C3.04003 12.5644 3.28479 12.4951 3.49504 12.3659C4.02734 12.0519 4.62877 11.8588 5.25248 11.8017C6.37911 11.7254 7.49165 12.0762 8.34654 12.7773C8.57982 12.9788 8.88526 13.0881 9.20051 13.0829C9.53054 13.0875 9.85123 12.979 10.1039 12.7773C10.7694 12.2064 11.6119 11.8558 12.5049 11.7782C13.3765 11.7001 14.2499 11.9075 14.9802 12.3659C15.1964 12.4907 15.445 12.5558 15.698 12.554C15.9478 12.5603 16.1937 12.4948 16.4035 12.3659C16.6112 12.2353 16.7814 12.0575 16.8985 11.8487C17.0141 11.6345 17.0695 11.3956 17.0594 11.1551V3.44397C17.0595 3.25477 17.0217 3.06728 16.948 2.89149C16.872 2.71737 16.7629 2.55801 16.6263 2.42131Z" stroke="white" stroke-width="1.5" stroke-miterlimit="10"/>
<path d="M9.25 2.19824V13.1185" stroke="white" stroke-width="1.5" stroke-miterlimit="10"/>
</g>
<defs>
<clipPath id="clip0_1252_7598">
<rect width="17.5" height="14" fill="white" transform="translate(0.5)"/>
</clipPath>
</defs>
</svg>
