<svg width="24" height="24" viewBox="0 0 24 24" fill="none" xmlns="http://www.w3.org/2000/svg">
<g clip-path="url(#clip0_196_1899)">
<path d="M23.7165 13.983C23.8795 13.4318 23.9746 12.8635 23.9998 12.2902C24.0086 11.6054 23.8568 10.9277 23.556 10.3094C23.4211 10.0255 23.0164 9.74027 22.7089 9.67293C22.3405 9.57709 21.9484 9.6274 21.6176 9.81291C19.8162 10.9274 18.1209 12.1984 16.5524 13.6107C15.8577 14.2273 15.186 14.8651 14.529 15.5161C14.5749 15.4012 14.6208 15.2864 14.6639 15.1702C15.5124 13.0059 16.3528 10.831 16.9382 8.5822C17.2952 7.21665 17.5428 5.8259 17.6788 4.42264C17.6626 4.29983 17.645 4.17702 17.6289 4.05421C17.5816 3.94329 17.5331 3.83237 17.4859 3.72277C17.3739 3.54268 17.222 3.38955 17.0415 3.27468C16.8609 3.15981 16.6563 3.08614 16.4427 3.05913C16.2291 3.03213 16.0121 3.05249 15.8076 3.11868C15.6032 3.18486 15.4165 3.29519 15.2615 3.44152C13.2381 5.57015 11.4144 7.88499 9.68236 10.2487C9.28039 10.798 8.882 11.3504 8.48722 11.9059C9.31546 9.84194 10.0965 7.76085 10.7804 5.64674C11.0326 4.86764 11.32 4.078 11.4899 3.27778C11.6121 2.76159 11.6318 2.22722 11.5479 1.70376C11.5025 1.46085 11.4182 1.22646 11.2984 1.00917C11.1794 0.777144 11.0127 0.571684 10.8087 0.405699C10.52 0.177254 10.2004 -0.01819 9.80781 -0.00102353C9.43544 0.0156874 9.08081 0.159605 8.80557 0.405699C6.30828 2.47072 4.0338 4.78089 2.0178 7.3C1.38785 8.0923 0.775439 8.88459 0.190007 9.7099C-0.00963283 9.99117 -0.0420074 10.4573 0.0483704 10.7782C0.148262 11.1326 0.387825 11.4336 0.714388 11.6151C1.04095 11.7966 1.42778 11.8437 1.78983 11.7461C2.1388 11.6353 2.43802 11.4101 2.63695 11.1083C3.06141 10.5115 3.50071 9.92426 3.95484 9.34677C5.22858 7.74899 6.60693 6.23382 8.0812 4.81085C8.06636 4.85575 8.05287 4.90065 8.03803 4.9429C7.73048 5.89102 7.40539 6.83343 7.06276 7.7701C6.3883 9.6188 5.65044 11.4596 4.88965 13.2818C4.47418 14.2766 4.05242 15.2683 3.62436 16.2569C2.81501 18.1426 1.99891 20.0282 1.17607 21.9139C1.07454 22.068 1.01681 22.2458 1.0088 22.4289C0.966926 22.6123 0.975773 22.8033 1.03443 22.9822C1.12269 23.268 1.30003 23.5196 1.54162 23.7019C1.78362 23.8957 2.08688 24.0012 2.39954 24.0003C2.75026 23.9845 3.17112 23.8748 3.40179 23.5936C4.92607 21.7277 6.35458 19.7906 7.74666 17.8283C9.08209 15.9466 10.3892 14.0451 11.7449 12.1766C12.3861 11.2901 13.0416 10.4146 13.7116 9.55013C13.5263 10.132 13.3312 10.7108 13.1262 11.2866C12.3829 13.3663 11.5277 15.4052 10.7561 17.4744C10.3191 18.6457 9.91033 19.8262 9.56231 21.0252C9.39774 21.5944 9.66618 22.3088 10.2138 22.5913C10.4349 22.7056 10.679 22.7705 10.9288 22.7815C11.1147 22.7815 11.2989 22.7455 11.4706 22.6757C11.6424 22.6059 11.7984 22.5037 11.9297 22.3748C14.0974 19.9807 16.2732 17.58 18.708 15.4395C19.3456 14.877 20.003 14.3365 20.6801 13.818C20.7354 13.7757 20.7934 13.7334 20.8501 13.6925C20.7422 14.0292 20.6248 14.3647 20.5169 14.7001C20.2377 15.5689 20.0043 16.5052 20.0879 17.4203C20.0983 17.786 20.2457 18.1352 20.5021 18.4014C20.7679 18.6611 21.1281 18.807 21.5036 18.807C21.8792 18.807 22.2394 18.6611 22.5052 18.4014C22.7467 18.1439 22.953 17.7821 22.9207 17.4203C22.8991 17.183 22.8991 16.9444 22.9207 16.7072C23.0825 15.7723 23.4575 14.8929 23.7165 13.983Z" fill="#E9A860"/>
</g>
<defs>
<clipPath id="clip0_196_1899">
<rect width="24" height="24" fill="white"/>
</clipPath>
</defs>
</svg>
