<svg width="24" height="24" viewBox="0 0 24 24" fill="none" xmlns="http://www.w3.org/2000/svg">
<path d="M17.9264 14.6602C17.4679 14.8568 17.019 15.0744 16.5799 15.3128C16.4611 15.3805 16.3268 15.4161 16.1901 15.4161C16.0534 15.4161 15.9191 15.3805 15.8004 15.3128C15.6835 15.2454 15.5866 15.1482 15.5195 15.0311C15.4524 14.9141 15.4175 14.7814 15.4183 14.6464C15.3824 14.1873 15.4014 13.7255 15.4748 13.2709C15.2884 13.4237 15.1065 13.5765 14.9261 13.7447C13.7661 14.787 12.7283 15.9563 11.6951 17.1224C11.6236 17.1942 11.5385 17.251 11.4448 17.2896C11.3511 17.3281 11.2507 17.3477 11.1494 17.3471C11.014 17.3412 10.8815 17.3057 10.7612 17.2432C10.6159 17.1559 10.5027 17.0237 10.4388 16.8667C10.3749 16.7096 10.3636 16.536 10.4066 16.372C10.5717 15.7866 10.7673 15.2119 10.9752 14.6418C11.3359 13.656 11.7394 12.6824 12.0833 11.692C11.3833 12.6503 10.697 13.6178 10.0016 14.5792C9.23741 15.6491 8.45028 16.6914 7.63106 17.7155C7.56003 17.788 7.47509 17.8454 7.38133 17.8843C7.28757 17.9231 7.18692 17.9427 7.08542 17.9417C6.91492 17.942 6.74959 17.8832 6.61773 17.7751C6.48591 17.6738 6.38915 17.5338 6.34109 17.3746C6.30941 17.2758 6.30466 17.1703 6.32733 17.0689C6.33177 16.9667 6.36343 16.8675 6.41904 16.7816C6.80725 15.8646 7.19445 14.9516 7.58062 14.0427C7.78237 13.5628 7.98259 13.0844 8.17975 12.603C8.54199 11.715 8.89199 10.8224 9.21449 9.91907C9.33981 9.56754 9.46056 9.21091 9.57672 8.84919C8.98118 9.45477 8.41989 10.0931 7.89547 10.7612C7.6815 11.0394 7.47516 11.3222 7.27341 11.611C7.16553 11.7781 7.00372 11.9032 6.81489 11.9656C6.71556 11.9926 6.61187 11.9996 6.50981 11.9862C6.40775 11.9728 6.30936 11.9393 6.22035 11.8877C6.04834 11.7852 5.9216 11.6214 5.86576 11.4291C5.83877 11.3298 5.83176 11.2261 5.84514 11.1241C5.85852 11.022 5.89203 10.9236 5.94371 10.8346C6.22646 10.428 6.5245 10.0322 6.83018 9.64244C7.79452 8.41819 8.88293 7.297 10.078 6.29676C10.1719 6.20207 10.2888 6.13356 10.4173 6.09806L10.6237 6.07056C10.8273 6.07592 11.0216 6.15651 11.1693 6.29676C11.2201 6.34211 11.2653 6.39343 11.3038 6.4496C11.3468 6.50024 11.3847 6.55502 11.4169 6.61313C11.4784 6.72588 11.5217 6.84762 11.5453 6.97385C11.5712 7.10567 11.582 7.24002 11.5774 7.37429C11.5666 7.51453 11.5467 7.65391 11.5178 7.79154C11.4353 8.18129 11.2992 8.5649 11.18 8.94395C10.8881 9.86099 10.5595 10.778 10.2095 11.6752C10.3241 11.5224 10.4372 11.3619 10.5503 11.2045C11.394 10.0429 12.256 8.89657 13.1486 7.77777C13.2652 7.6557 13.4222 7.58021 13.5903 7.56534C13.726 7.54478 13.8648 7.56278 13.9907 7.6173C14.1447 7.67991 14.274 7.79097 14.3591 7.93367L14.437 8.11709L14.4645 8.32343C14.3988 9.01477 14.2797 9.7 14.1084 10.373C13.8354 11.3797 13.5042 12.3697 13.1165 13.3381C13.3289 13.1318 13.5444 12.927 13.763 12.7267C14.5169 12.0333 15.3318 11.4092 16.1978 10.8621C16.3 10.8044 16.414 10.7705 16.5312 10.763C16.6483 10.7554 16.7657 10.7744 16.8745 10.8184C16.9834 10.8625 17.0808 10.9305 17.1598 11.0175C17.2387 11.1044 17.297 11.208 17.3303 11.3206C17.3609 11.4554 17.3609 11.5954 17.3303 11.7302C17.2386 12.2835 17.1056 12.8307 17.0139 13.3855C17.7944 13.0385 18.5989 12.7484 19.4212 12.5174C19.9401 12.3736 20.4661 12.2563 20.9969 12.1658V7.09458C20.9971 6.55694 20.8914 6.02453 20.6858 5.52776C20.4802 5.03099 20.1787 4.5796 19.7986 4.19936C19.4186 3.81913 18.9673 3.5175 18.4706 3.31171C17.9739 3.10592 17.4415 3 16.9039 3H7.09306C6.55542 3 6.02305 3.10592 5.52636 3.31171C5.02967 3.5175 4.57839 3.81913 4.19829 4.19936C3.81819 4.5796 3.51673 5.03099 3.31113 5.52776C3.10552 6.02453 2.9998 6.55694 3 7.09458V16.9069C3 17.9925 3.43123 19.0336 4.19883 19.8012C4.96643 20.5688 6.00751 21 7.09306 21H16.9069C17.9925 21 19.0336 20.5688 19.8012 19.8012C20.5688 19.0336 21 17.9925 21 16.9069V13.7279C19.9476 13.938 18.9182 14.2502 17.9264 14.6602Z" fill="#E9A860"/>
</svg>
