<svg width="16" height="16" viewBox="0 0 16 16" fill="none" xmlns="http://www.w3.org/2000/svg">
<path fill-rule="evenodd" clip-rule="evenodd" d="M8.73617 2.78465L9.95445 5.21848C10.0738 5.45742 10.3043 5.6231 10.5716 5.66143L13.2969 6.05372C13.9702 6.15094 14.2382 6.96701 13.7509 7.43461L11.7801 9.32827C11.5864 9.51449 11.4983 9.78218 11.5441 10.0451L12.0092 12.7185C12.1237 13.3799 11.4198 13.8844 10.818 13.5716L8.38214 12.3084C8.14335 12.1845 7.85735 12.1845 7.61786 12.3084L5.182 13.5716C4.58015 13.8844 3.87626 13.3799 3.9915 12.7185L4.4559 10.0451C4.50171 9.78218 4.41355 9.51449 4.21988 9.32827L2.24912 7.43461C1.76181 6.96701 2.02976 6.15094 2.70311 6.05372L5.42843 5.66143C5.69569 5.6231 5.92685 5.45742 6.04625 5.21848L7.26383 2.78465C7.5651 2.18287 8.4349 2.18287 8.73617 2.78465Z" stroke="#C2C5CE" stroke-width="1.5" stroke-linecap="round" stroke-linejoin="round"/>
</svg>
