<svg width="36" height="36" viewBox="0 0 36 36" fill="none" xmlns="http://www.w3.org/2000/svg">
<path d="M26.8778 21.48C26.4893 21.8565 26.3108 22.401 26.3993 22.935L27.7328 30.315C27.8453 30.9405 27.5813 31.5735 27.0578 31.935C26.5448 32.31 25.8623 32.355 25.3028 32.055L18.6593 28.59C18.4283 28.467 18.1718 28.401 17.9093 28.3935H17.5028C17.3618 28.4145 17.2238 28.4595 17.0978 28.5285L10.4528 32.01C10.1243 32.175 9.75233 32.2335 9.38783 32.175C8.49983 32.007 7.90733 31.161 8.05283 30.2685L9.38783 22.8885C9.47633 22.35 9.29783 21.8025 8.90933 21.42L3.49283 16.17C3.03983 15.7305 2.88233 15.0705 3.08933 14.475C3.29033 13.881 3.80333 13.4475 4.42283 13.35L11.8778 12.2685C12.4448 12.21 12.9428 11.865 13.1978 11.355L16.4828 4.62C16.5608 4.47 16.6613 4.332 16.7828 4.215L16.9178 4.11C16.9883 4.032 17.0693 3.9675 17.1593 3.915L17.3228 3.855L17.5778 3.75H18.2093C18.7733 3.8085 19.2698 4.146 19.5293 4.65L22.8578 11.355C23.0978 11.8455 23.5643 12.186 24.1028 12.2685L31.5578 13.35C32.1878 13.44 32.7143 13.875 32.9228 14.475C33.1193 15.0765 32.9498 15.7365 32.4878 16.17L26.8778 21.48Z" fill="#FCEB54"/>
</svg>
