<svg width="36" height="36" viewBox="0 0 36 36" fill="none" xmlns="http://www.w3.org/2000/svg">
<path fill-rule="evenodd" clip-rule="evenodd" d="M19.6564 6.26551L22.3975 11.7416C22.6661 12.2792 23.1847 12.652 23.786 12.7383L29.918 13.6209C31.433 13.8397 32.0359 15.6758 30.9395 16.7279L26.5053 20.9887C26.0695 21.4076 25.8711 22.0099 25.9742 22.6015L27.0207 28.6167C27.2784 30.1048 25.6947 31.24 24.3405 30.5361L18.8598 27.694C18.3225 27.4152 17.679 27.4152 17.1402 27.694L11.6595 30.5361C10.3053 31.24 8.72159 30.1048 8.98086 28.6167L10.0258 22.6015C10.1289 22.0099 9.93049 21.4076 9.49473 20.9887L5.06052 16.7279C3.96407 15.6758 4.56696 13.8397 6.082 13.6209L12.214 12.7383C12.8153 12.652 13.3354 12.2792 13.6041 11.7416L16.3436 6.26551C17.0215 4.9115 18.9785 4.9115 19.6564 6.26551Z" stroke="#FCEB54" stroke-width="1.5" stroke-linecap="round" stroke-linejoin="round"/>
</svg>
