<svg width="16" height="16" viewBox="0 0 16 16" fill="none" xmlns="http://www.w3.org/2000/svg">
<g clip-path="url(#clip0_196_1924)">
<path d="M16 9.72334C16.0003 9.77276 15.9908 9.82172 15.972 9.86745C15.9533 9.91319 15.9257 9.95475 15.8909 9.98979C15.856 10.0248 15.8146 10.0526 15.769 10.0716C15.7233 10.0906 15.6744 10.1004 15.625 10.1004H13.1762C13.0768 10.1004 12.9814 10.1399 12.9111 10.2102C12.8407 10.2806 12.8012 10.3759 12.8012 10.4754V12.9241C12.8007 13.0239 12.7608 13.1196 12.6902 13.1902C12.6196 13.2608 12.524 13.3006 12.4242 13.3012H9.97543C9.87597 13.3012 9.78058 13.3407 9.71025 13.411C9.63992 13.4813 9.60041 13.5767 9.60041 13.6762V16.1249C9.60041 16.1743 9.59064 16.2233 9.57167 16.2689C9.55269 16.3146 9.5249 16.356 9.48986 16.3908C9.45482 16.4257 9.41323 16.4533 9.3675 16.472C9.32176 16.4907 9.27279 16.5002 9.22337 16.5H6.77664C6.72722 16.5002 6.67824 16.4907 6.6325 16.472C6.58677 16.4533 6.54519 16.4257 6.51015 16.3908C6.47511 16.356 6.44732 16.3146 6.42834 16.2689C6.40937 16.2233 6.3996 16.1743 6.3996 16.1249V13.6762C6.3996 13.5767 6.36009 13.4813 6.28976 13.411C6.21943 13.3407 6.12404 13.3012 6.02458 13.3012H3.58394C3.48411 13.3006 3.38851 13.2608 3.31792 13.1902C3.24732 13.1196 3.20743 13.0239 3.2069 12.9241V10.4754C3.2069 10.3759 3.16739 10.2806 3.09706 10.2102C3.02673 10.1399 2.93134 10.1004 2.83188 10.1004H0.375016C0.325598 10.1004 0.276669 10.0906 0.231037 10.0716C0.185406 10.0526 0.143969 10.0248 0.109119 9.98979C0.0742686 9.95475 0.046694 9.91319 0.0279674 9.86745C0.00924068 9.82172 -0.000261649 9.77276 5.47952e-06 9.72334V7.2766C-0.000261649 7.22718 0.00924068 7.17822 0.0279674 7.13248C0.046694 7.08675 0.0742686 7.04513 0.109119 7.0101C0.143969 6.97506 0.185406 6.94726 0.231037 6.92829C0.276669 6.90932 0.325598 6.89953 0.375016 6.89953H2.82377C2.92323 6.89953 3.01862 6.86005 3.08895 6.78972C3.15928 6.71939 3.19878 6.62401 3.19878 6.52455V4.07984C3.19932 3.98001 3.23922 3.88442 3.30981 3.81383C3.38041 3.74324 3.476 3.70331 3.57584 3.70277H6.01647C6.11593 3.70277 6.21133 3.66328 6.28165 3.59296C6.35198 3.52263 6.39149 3.42725 6.39149 3.32779V0.87902C6.39148 0.829601 6.40125 0.780685 6.42023 0.735053C6.4392 0.689422 6.46701 0.64796 6.50205 0.61311C6.53708 0.57826 6.57866 0.550722 6.6244 0.531996C6.67013 0.513269 6.71912 0.503767 6.76854 0.504034H9.21526C9.26468 0.503767 9.31366 0.513269 9.35939 0.531996C9.40512 0.550722 9.4467 0.57826 9.48174 0.61311C9.51678 0.64796 9.54459 0.689422 9.56356 0.735053C9.58254 0.780685 9.59231 0.829601 9.5923 0.87902V3.32779C9.5923 3.42725 9.63181 3.52263 9.70214 3.59296C9.77246 3.66328 9.86786 3.70277 9.96731 3.70277H12.4161C12.5159 3.70331 12.6115 3.74324 12.6821 3.81383C12.7527 3.88442 12.7926 3.98001 12.7931 4.07984V6.52861C12.7931 6.57785 12.8028 6.62663 12.8217 6.67213C12.8405 6.71763 12.8681 6.75895 12.903 6.79377C12.9378 6.8286 12.9791 6.85619 13.0246 6.87504C13.0701 6.89388 13.1189 6.90359 13.1681 6.90359H15.625C15.6744 6.90359 15.7233 6.91337 15.769 6.93235C15.8146 6.95132 15.856 6.97912 15.8909 7.01415C15.9257 7.04919 15.9533 7.09076 15.972 7.13649C15.9908 7.18223 16.0003 7.23124 16 7.28066V9.72334Z" fill="#87C7E4"/>
</g>
<defs>
<clipPath id="clip0_196_1924">
<rect width="16" height="16" fill="white" transform="translate(0 0.5)"/>
</clipPath>
</defs>
</svg>
